<svg xmlns="http://www.w3.org/2000/svg" width="89" height="89" viewBox="0 0 89 89">
  <g id="Grupo_1112365" data-name="Grupo 1112365" transform="translate(-755.378 -8335.31)">
    <rect id="Rectángulo_400898" data-name="Rectángulo 400898" width="89" height="89" rx="44.5" transform="translate(755.378 8335.31)" fill="#769671"/>
    <g id="Grupo_1111727" data-name="Grupo 1111727" transform="translate(721.796 8322.997)">
      <circle id="Elipse_12098" data-name="Elipse 12098" cx="18.084" cy="18.084" r="18.084" transform="translate(68.867 26.672)" fill="#fd4755"/>
      <circle id="Elipse_12099" data-name="Elipse 12099" cx="11.741" cy="11.741" r="11.741" transform="translate(75.211 33.016)" fill="#eceff1"/>
      <path id="Trazado_896969" data-name="Trazado 896969" d="M139.617,284.3a2.793,2.793,0,1,1-2.793,2.793A2.793,2.793,0,0,1,139.617,284.3Zm-3.1,13.248h6.206v13.1h-6.206Z" transform="translate(-74.317 -223.694)" fill="#ffd266" fill-rule="evenodd"/>
      <path id="Trazado_896970" data-name="Trazado 896970" d="M220.429,305.5a2.793,2.793,0,1,1-2.793,2.793A2.793,2.793,0,0,1,220.429,305.5Zm-3.1,13.648h6.206v9.862h-6.206Z" transform="translate(-144.303 -242.054)" fill="#00e499" fill-rule="evenodd"/>
      <path id="Trazado_896971" data-name="Trazado 896971" d="M286.409,125.708a5.4,5.4,0,1,1-5.4,5.4A5.4,5.4,0,0,1,286.409,125.708Zm-3.1,28.426h6.206V173.3h-6.206Z" transform="translate(-199.458 -86.349)" fill="#60b7ff" fill-rule="evenodd"/>
      <path id="Trazado_896972" data-name="Trazado 896972" d="M58.8,324.254a2.793,2.793,0,1,1-2.793,2.793A2.793,2.793,0,0,1,58.8,324.254Zm-3.1,13.482h6.206v7.516H55.7Z" transform="translate(-4.33 -258.298)" fill="#fd4755" fill-rule="evenodd"/>
      <path id="Trazado_896973" data-name="Trazado 896973" d="M55.7,144.1h6.93l2.125,2.934-2.125,2.934H55.7l2.125-2.934Z" transform="translate(-4.33 -102.273)" fill="#fd4755" fill-rule="evenodd"/>
      <path id="Trazado_896974" data-name="Trazado 896974" d="M89.384,86.287H84.518V68.455h4.866Zm.67-19.169H83.848a.666.666,0,0,0-.67.665V86.952a.671.671,0,0,0,.67.671h6.206a.671.671,0,0,0,.67-.671V67.784A.666.666,0,0,0,90.054,67.119Zm-11.5,19.169H73.692V77.763h4.866Zm.67-9.867H73.023a.671.671,0,0,0-.67.671v9.86a.671.671,0,0,0,.67.671h6.206a.671.671,0,0,0,.67-.671v-9.86A.671.671,0,0,0,79.229,76.421Zm-11.5,9.867H62.867V74.52h4.866Zm.67-13.1H62.2a.671.671,0,0,0-.67.671v13.1a.671.671,0,0,0,.67.671H68.4a.671.671,0,0,0,.67-.671v-13.1A.671.671,0,0,0,68.4,73.184Zm-11.5,13.1H52.041V80.109h4.866Zm.67-7.521H51.372a.671.671,0,0,0-.67.671v7.514a.671.671,0,0,0,.67.671h6.206a.671.671,0,0,0,.67-.671V79.438A.671.671,0,0,0,57.577,78.767Zm29.374-16.6A17.32,17.32,0,0,1,79.718,60.6l2.254-4.472a12.411,12.411,0,1,0-7.414-12.037H69.551a17.414,17.414,0,1,1,17.4,18.084ZM80.922,45.429H75.9a11.066,11.066,0,0,0,5.48,8.888l2.259-4.479A6.078,6.078,0,0,1,80.922,45.429Zm6.029,5.394a5.929,5.929,0,0,1-2.115-.383l-2.259,4.485A11.07,11.07,0,1,0,75.9,44.087h5.019a6.067,6.067,0,1,1,6.029,6.737Zm0-6.737a.671.671,0,0,1,0,1.342H82.272a4.729,4.729,0,1,0,0-1.342Zm-17.4,1.342a17.432,17.432,0,0,0,8.973,14.565l2.253-4.472a12.422,12.422,0,0,1-6.218-10.092ZM57.96,47.022H52.684l1.356-1.869a.677.677,0,0,0,0-.79l-1.356-1.869H57.96l1.64,2.264ZM76.126,68.361a2.123,2.123,0,1,1,2.123-2.12,2.125,2.125,0,0,1-2.123,2.12ZM65.3,65.519a2.123,2.123,0,1,1,2.123-2.12A2.125,2.125,0,0,1,65.3,65.519ZM54.474,70.87A2.12,2.12,0,1,1,56.6,68.75,2.121,2.121,0,0,1,54.474,70.87ZM86.951,26A18.777,18.777,0,0,0,68.21,44.086H60.769l-1.925-2.653a.671.671,0,0,0-.542-.282H51.372a.674.674,0,0,0-.542,1.066l1.841,2.54L50.829,47.3a.674.674,0,0,0,.542,1.066H58.3a.671.671,0,0,0,.542-.282l1.925-2.653H68.21A18.781,18.781,0,0,0,77.92,61.191L77.056,62.9a3.472,3.472,0,0,0-4.046,1.825l-4.255-1.116c0-.069.007-.144.007-.213a3.462,3.462,0,0,0-6.925,0,3.427,3.427,0,0,0,.121.9l-4.738,2.34a3.472,3.472,0,1,0,.6,1.2L62.554,65.5a3.455,3.455,0,0,0,5.862-.6l4.255,1.117c0,.075-.007.144-.007.22a3.462,3.462,0,1,0,5.588-2.735l.864-1.712A18.753,18.753,0,1,0,86.951,26Z" transform="translate(0)" fill-rule="evenodd"/>
    </g>
  </g>
</svg>
