<svg id="Grupo_1111226" data-name="Grupo 1111226" xmlns="http://www.w3.org/2000/svg" width="132.163" height="132.163" viewBox="0 0 132.163 132.163">
  <g id="Grupo_1111224" data-name="Grupo 1111224" transform="translate(2.132 2.132)">
    <g id="Grupo_1111217" data-name="Grupo 1111217">
      <path id="Trazado_896563" data-name="Trazado 896563" d="M135.209,62.733l-7.3-7.3a2.372,2.372,0,0,0-1.276-.658l-10.685-1.78a2.361,2.361,0,0,0-2.225.85l-5.366,6.712a4.01,4.01,0,0,1-6.467-4.73l1.644-2.467a2.362,2.362,0,0,0,.394-1.3v-.709a2.362,2.362,0,0,0-.394-1.3l-2.8-4.2a2.353,2.353,0,0,1,.3-2.968l2.209-2.209a2.356,2.356,0,0,0,.69-1.665V35.933a2.352,2.352,0,0,0-2.353-2.353h-5.62a2.349,2.349,0,0,1-1.05-.248L92.435,32.1a2.354,2.354,0,0,1-1.3-2.105V27.406a2.352,2.352,0,0,0-2.353-2.353H82.829A2.352,2.352,0,0,1,80.476,22.7V17.784a2.355,2.355,0,0,0-1.047-1.956L68.984,8.866A5.15,5.15,0,0,0,66.128,8h-.815a5.149,5.149,0,0,0-1.628,10.035l.261.088a2.349,2.349,0,0,1,1.609,2.23V26.21a2.356,2.356,0,0,1-.69,1.665L62.32,30.42a2.35,2.35,0,0,1-2.409.568l-3.309-1.1a2.354,2.354,0,0,0-2.7.927l-1.961,2.942a2.353,2.353,0,0,1-3.264.653L44.83,31.843a2.362,2.362,0,0,0-1.3-.394H37.406a2.349,2.349,0,0,0-2.23,1.609l-1.061,3.176a2.349,2.349,0,0,1-2.23,1.609H28.36a2.357,2.357,0,0,0-1.881.941l-4.277,5.7a2.351,2.351,0,0,0,.469,3.293l5.012,3.76a2.357,2.357,0,0,0,3.075-.218,2.356,2.356,0,0,1,1.665-.69h6.1a2.354,2.354,0,0,1,2.105,1.3l1.91,3.821a2.352,2.352,0,0,1-2.1,3.405H39.1a2.355,2.355,0,0,0-1.956,1.047l-2.5,3.744a2.353,2.353,0,0,0,.3,2.968l3.832,3.832a2.35,2.35,0,0,1,.44,2.715l-.762,1.527a2.346,2.346,0,0,0,.147,2.355l1.559,2.337a2.354,2.354,0,0,1-1.5,3.613l-2.9.578a2.353,2.353,0,0,0-1.2,3.97l.128.128a2.35,2.35,0,0,1,.568,2.409L34.611,92.3a2.353,2.353,0,0,0,2.233,3.1H52.765v4.263a4.262,4.262,0,0,1-4.263,4.263H47.31a4.267,4.267,0,0,0-4.045,2.915l-2.6,7.807a2.354,2.354,0,0,1-2.8,1.54l-4.583-1.146a2.351,2.351,0,0,0-2.675,1.228l-2.768,5.54a2.354,2.354,0,0,1-2.105,1.3H24.376a2.354,2.354,0,0,1-2.105-1.3L17.177,111.62a2.354,2.354,0,0,0-2.105-1.3H10.353A2.352,2.352,0,0,0,8,112.672v1.2a2.362,2.362,0,0,0,.394,1.3l2.8,4.2a2.353,2.353,0,0,1-.3,2.968L8.69,124.551A2.351,2.351,0,0,0,8,126.216v.935a2.352,2.352,0,0,0,2.353,2.353h2.784a2.355,2.355,0,0,1,1.956,1.047l2.867,4.3a2.355,2.355,0,0,0,1.956,1.047H22.21a2.362,2.362,0,0,0,1.3-.394l5.212-3.475a2.362,2.362,0,0,1,1.3-.394h6.84a2.356,2.356,0,0,1,1.665.69l2.883,2.883a2.356,2.356,0,0,0,1.665.69H48.64a2.352,2.352,0,0,0,2.321-1.966l1.551-9.3a2.351,2.351,0,0,1,1.751-1.895l5.862-1.468a2.352,2.352,0,0,0,1.615-1.407l3.224-8.063a2.354,2.354,0,0,1,2.185-1.479h3.826a2.356,2.356,0,0,1,1.665.69l2.883,2.883a2.356,2.356,0,0,0,1.665.69h3.725a2.349,2.349,0,0,0,2.23-1.609L84.2,109.8a2.349,2.349,0,0,1,2.23-1.609h5.377a2.354,2.354,0,0,0,2.105-1.3l.831-1.663a2.354,2.354,0,0,1,2.105-1.3h4.559a2.348,2.348,0,0,1,.743.12l5.67,1.892a2.348,2.348,0,0,0,.743.12h7.17a2.356,2.356,0,0,0,1.665-.69l2.324-2.324a4.265,4.265,0,0,1,3.016-1.25h6.76a4.263,4.263,0,1,0,0-8.527h-5.87a4.226,4.226,0,0,1-1.034-.128l-6.235-1.559a2.351,2.351,0,0,1-1.783-2.281V87.092a2.352,2.352,0,0,1,2.353-2.353h3.821a2.352,2.352,0,0,0,2.353-2.353V79.056a2.362,2.362,0,0,1,.394-1.3L126.675,73a2.355,2.355,0,0,1,1.956-1.047h4.916A2.352,2.352,0,0,0,135.9,69.6V64.4a2.356,2.356,0,0,0-.69-1.665Z" transform="translate(-8 -8)" fill="#b4dd7f"/>
    </g>
    <g id="Grupo_1111218" data-name="Grupo 1111218" transform="translate(68.213 36.238)">
      <path id="Trazado_896564" data-name="Trazado 896564" d="M264,144h14.922v21.317H264Z" transform="translate(-264 -144)" fill="#e6e9ed"/>
    </g>
    <g id="Grupo_1111219" data-name="Grupo 1111219" transform="translate(44.765 36.238)">
      <path id="Trazado_896565" data-name="Trazado 896565" d="M176,144h14.922v21.317H176Z" transform="translate(-176 -144)" fill="#e6e9ed"/>
    </g>
    <g id="Grupo_1111220" data-name="Grupo 1111220" transform="translate(81.004 108.6)">
      <path id="Trazado_896566" data-name="Trazado 896566" d="M331.323,418.229a4.06,4.06,0,0,1,.813,5.684l-2.2,2.939a4.066,4.066,0,0,1-4.532,1.415l-2.334-.778a4.035,4.035,0,0,0-2.569,0l-1.772.589a4.058,4.058,0,0,1-4.913-2.036l-1.38-2.76a4.061,4.061,0,0,1,.759-4.684l.421-.421a4.057,4.057,0,0,1,4.154-.981l1.636.544a4.057,4.057,0,0,0,4.154-.981,4.058,4.058,0,0,1,5.305-.376Z" transform="translate(-312.003 -415.57)" fill="#a0d468"/>
    </g>
    <g id="Grupo_1111221" data-name="Grupo 1111221" transform="translate(44.765 66.081)">
      <path id="Trazado_896567" data-name="Trazado 896567" d="M190.922,256v21.317H176V256h14.922Z" transform="translate(-176 -256)" fill="#e6e9ed"/>
    </g>
    <g id="Grupo_1111222" data-name="Grupo 1111222" transform="translate(68.213 66.081)">
      <path id="Trazado_896568" data-name="Trazado 896568" d="M278.922,256v21.317H264V256h14.922Z" transform="translate(-264 -256)" fill="#e6e9ed"/>
    </g>
    <g id="Grupo_1111223" data-name="Grupo 1111223" transform="translate(44.765 36.238)">
      <path id="Trazado_896569" data-name="Trazado 896569" d="M214.37,165.317v8.527H199.448V195.16h-8.527V173.843H176v-8.527h14.922V144h8.527v21.317Z" transform="translate(-176 -144)" fill="#ff826e"/>
    </g>
  </g>
  <g id="Grupo_1111225" data-name="Grupo 1111225" transform="translate(0 0)">
    <path id="Trazado_896570" data-name="Trazado 896570" d="M326.728,410.682l-2.463-1.847a6.222,6.222,0,0,0-8.092.575,1.916,1.916,0,0,1-1.972.466l-1.635-.545a6.157,6.157,0,0,0-6.335,1.5l-.421.421a6.183,6.183,0,0,0-1.16,7.146l1.381,2.761a6.22,6.22,0,0,0,7.495,3.1l1.772-.59a1.941,1.941,0,0,1,1.219,0l2.336.779a6.182,6.182,0,0,0,6.91-2.159l2.2-2.938a6.191,6.191,0,0,0-1.238-8.667Zm-2.173,6.109-2.2,2.939a1.925,1.925,0,0,1-2.151.672l-2.336-.779a6.228,6.228,0,0,0-3.916,0l-1.772.59a1.936,1.936,0,0,1-2.333-.967l-1.381-2.761a1.925,1.925,0,0,1,.361-2.225l.421-.421a1.916,1.916,0,0,1,1.972-.465l1.635.545a6.157,6.157,0,0,0,6.335-1.5,1.937,1.937,0,0,1,2.52-.179l2.463,1.847a1.928,1.928,0,0,1,.386,2.7Z" transform="translate(-222.993 -298.996)"/>
    <path id="Trazado_896571" data-name="Trazado 896571" d="M130.849,55.358l-7.3-7.3a4.46,4.46,0,0,0-2.434-1.252l-10.685-1.781a4.487,4.487,0,0,0-4.239,1.622l-5.368,6.71a1.878,1.878,0,0,1-3.029-2.215l1.644-2.466a4.469,4.469,0,0,0,.753-2.487v-.707a4.471,4.471,0,0,0-.753-2.487l-2.8-4.2a.221.221,0,0,1,.028-.279l2.21-2.21a4.454,4.454,0,0,0,1.314-3.171V30.064A4.489,4.489,0,0,0,95.7,25.58H90.085a.222.222,0,0,1-.1-.023L87.52,24.324a.22.22,0,0,1-.122-.2V21.537a4.489,4.489,0,0,0-4.484-4.484H76.96a.221.221,0,0,1-.221-.221V11.917a4.475,4.475,0,0,0-2-3.731L64.3,1.223A7.259,7.259,0,0,0,60.259,0h-.815a7.281,7.281,0,0,0-2.3,14.188l.263.088a.22.22,0,0,1,.151.209v5.857a.219.219,0,0,1-.065.156l-2.546,2.546a.22.22,0,0,1-.226.054l-3.311-1.1a4.493,4.493,0,0,0-5.149,1.767L44.3,26.7a.221.221,0,0,1-.306.061L40.144,24.2a4.468,4.468,0,0,0-2.487-.753H31.539a4.479,4.479,0,0,0-4.254,3.066l-1.059,3.177a.221.221,0,0,1-.21.151H22.493a4.506,4.506,0,0,0-3.587,1.794l-4.278,5.7a4.484,4.484,0,0,0,.9,6.278l5.013,3.759a4.505,4.505,0,0,0,5.861-.416.22.22,0,0,1,.156-.065h6.1a.22.22,0,0,1,.2.122l1.911,3.822a.221.221,0,0,1-.2.319h-1.33a4.475,4.475,0,0,0-3.731,2l-2.5,3.743a4.5,4.5,0,0,0,.56,5.658L31.4,66.389a.221.221,0,0,1,.041.255l-.763,1.526a4.494,4.494,0,0,0,.28,4.492L32.517,75a.221.221,0,0,1-.14.339l-2.9.581a4.484,4.484,0,0,0-2.291,7.568l.127.127a.219.219,0,0,1,.053.226l-.64,1.92a4.484,4.484,0,0,0,4.254,5.9H44.765v2.132a2.134,2.134,0,0,1-2.132,2.132H41.443a6.387,6.387,0,0,0-6.067,4.373l-2.6,7.809a.221.221,0,0,1-.263.144L27.928,107.1a4.456,4.456,0,0,0-5.1,2.345l-2.769,5.538a.22.22,0,0,1-.2.122H18.507a.22.22,0,0,1-.2-.122L13.215,104.8A4.461,4.461,0,0,0,9.2,102.319H4.484A4.489,4.489,0,0,0,0,106.8V108a4.471,4.471,0,0,0,.753,2.487l2.8,4.2a.221.221,0,0,1-.028.279l-2.211,2.211A4.454,4.454,0,0,0,0,120.347v.937a4.489,4.489,0,0,0,4.484,4.484H7.268a.22.22,0,0,1,.184.1l2.867,4.3a4.476,4.476,0,0,0,3.731,2h2.292a4.471,4.471,0,0,0,2.487-.753l5.21-3.473a.221.221,0,0,1,.122-.037H31a.218.218,0,0,1,.156.065l2.885,2.885a4.455,4.455,0,0,0,3.171,1.313h5.559a4.471,4.471,0,0,0,4.423-3.747l1.551-9.3a.22.22,0,0,1,.164-.177l5.864-1.466a4.5,4.5,0,0,0,3.076-2.685l3.225-8.063a.22.22,0,0,1,.205-.139h3.828a.218.218,0,0,1,.156.065l2.885,2.885a4.455,4.455,0,0,0,3.171,1.313h3.725A4.479,4.479,0,0,0,79.3,107.78l1.059-3.177a.221.221,0,0,1,.21-.151h5.377a4.46,4.46,0,0,0,4.011-2.479l.831-1.662a.22.22,0,0,1,.2-.122h4.559a.223.223,0,0,1,.07.011l5.67,1.89a4.472,4.472,0,0,0,1.418.23h7.17a4.455,4.455,0,0,0,3.171-1.313l2.326-2.326a2.118,2.118,0,0,1,1.507-.624h6.761a6.395,6.395,0,0,0,0-12.79h-5.87a2.138,2.138,0,0,1-.517-.064l-6.236-1.559a.22.22,0,0,1-.167-.214V81.224a.221.221,0,0,1,.221-.221h3.822a4.489,4.489,0,0,0,4.484-4.484v-3.33a.219.219,0,0,1,.037-.122l3.17-4.755a.22.22,0,0,1,.184-.1h4.915a4.489,4.489,0,0,0,4.484-4.484v-5.2a4.455,4.455,0,0,0-1.313-3.171ZM83.135,83.135l-9.592-12.79h9.592ZM72.476,76.029,81,87.4H72.476ZM83.135,57.555H73.542l9.592-12.79ZM72.476,51.87V40.5H81Zm10.658,9.948v4.263H68.213V87.4H63.95V66.081H49.028V61.818H63.95V40.5h4.263V61.818ZM58.621,57.555H49.028V44.765Zm-9.592,12.79h9.592l-9.592,12.79Zm10.658,5.685V87.4H51.16Zm0-24.159L51.16,40.5h8.527ZM127.9,63.729a.221.221,0,0,1-.221.221h-4.915a4.475,4.475,0,0,0-3.731,2l-3.17,4.755a4.469,4.469,0,0,0-.753,2.487v3.33a.221.221,0,0,1-.221.221h-3.822a4.489,4.489,0,0,0-4.484,4.484V83.43a4.477,4.477,0,0,0,3.4,4.35l6.236,1.559a6.405,6.405,0,0,0,1.55.191h5.87a2.132,2.132,0,0,1,0,4.263h-6.761a6.354,6.354,0,0,0-4.522,1.873l-2.325,2.325a.22.22,0,0,1-.156.065H102.7a.223.223,0,0,1-.07-.011l-5.67-1.89a4.472,4.472,0,0,0-1.418-.23H90.983A4.46,4.46,0,0,0,86.973,98.4l-.831,1.662a.22.22,0,0,1-.2.122H80.567a4.479,4.479,0,0,0-4.254,3.066l-1.059,3.177a.221.221,0,0,1-.21.151H71.319a.218.218,0,0,1-.156-.065l-2.885-2.885a4.455,4.455,0,0,0-3.171-1.313H61.279a4.462,4.462,0,0,0-4.163,2.819L53.891,113.2a.222.222,0,0,1-.151.132L47.876,114.8a4.482,4.482,0,0,0-3.336,3.613l-1.55,9.3a.22.22,0,0,1-.218.185H37.213a.218.218,0,0,1-.156-.065l-2.885-2.885A4.455,4.455,0,0,0,31,123.636h-6.84a4.471,4.471,0,0,0-2.487.753l-5.21,3.473a.226.226,0,0,1-.123.036H14.049a.22.22,0,0,1-.184-.1L11,123.5a4.476,4.476,0,0,0-3.731-2H4.484a.221.221,0,0,1-.221-.221v-.937a.223.223,0,0,1,.065-.156l2.21-2.21a4.5,4.5,0,0,0,.561-5.658l-2.8-4.2A.219.219,0,0,1,4.263,108v-1.2a.221.221,0,0,1,.221-.221H9.2a.22.22,0,0,1,.2.122L14.5,116.894a4.461,4.461,0,0,0,4.011,2.479h1.356a4.46,4.46,0,0,0,4.011-2.479l2.769-5.538a.222.222,0,0,1,.251-.115l4.583,1.145a4.505,4.505,0,0,0,5.342-2.932l2.6-7.808a2.129,2.129,0,0,1,2.022-1.458h1.19a6.4,6.4,0,0,0,6.395-6.395V91.661H87.4V36.238H44.765V87.4H30.975a.22.22,0,0,1-.209-.29l.639-1.919a4.46,4.46,0,0,0-1.084-4.59l-.127-.126a.221.221,0,0,1,.113-.373l2.9-.581a4.484,4.484,0,0,0,2.851-6.884L34.506,70.3a.221.221,0,0,1-.014-.221l.763-1.526a4.479,4.479,0,0,0-.84-5.176l-3.833-3.833a.221.221,0,0,1-.028-.278l2.5-3.743a.22.22,0,0,1,.184-.1h1.33a4.484,4.484,0,0,0,4.01-6.489l-1.911-3.822a4.461,4.461,0,0,0-4.011-2.479h-6.1a4.455,4.455,0,0,0-3.171,1.313.222.222,0,0,1-.288.021l-5.013-3.759a.221.221,0,0,1-.044-.309l4.278-5.7a.221.221,0,0,1,.176-.088h3.523A4.479,4.479,0,0,0,30.27,31.04l1.059-3.177a.221.221,0,0,1,.21-.151h6.119a.219.219,0,0,1,.122.037l3.845,2.563a4.489,4.489,0,0,0,6.218-1.244l1.962-2.943a.222.222,0,0,1,.253-.087l3.311,1.1a4.459,4.459,0,0,0,4.589-1.083L60.5,23.513a4.454,4.454,0,0,0,1.314-3.171V14.486a4.479,4.479,0,0,0-3.066-4.254l-.263-.088a3.018,3.018,0,0,1,.954-5.881h.815a3.009,3.009,0,0,1,1.674.507l10.445,6.963a.221.221,0,0,1,.1.184v4.915a4.488,4.488,0,0,0,4.483,4.484h5.954a.221.221,0,0,1,.221.221v2.589a4.459,4.459,0,0,0,2.479,4.01l2.466,1.233a4.506,4.506,0,0,0,2.005.473H95.7a.221.221,0,0,1,.221.221v3.068a.219.219,0,0,1-.065.156l-2.21,2.21a4.5,4.5,0,0,0-.561,5.658l2.8,4.2a.219.219,0,0,1,.037.122v.707a.219.219,0,0,1-.037.122l-1.644,2.466a6.141,6.141,0,0,0,9.906,7.243l5.368-6.71a.222.222,0,0,1,.208-.079l10.685,1.781a.221.221,0,0,1,.12.062l7.3,7.3a.219.219,0,0,1,.064.156v5.2Z" transform="translate(0 0)"/>
  </g>
</svg>
