<svg xmlns="http://www.w3.org/2000/svg" width="89" height="89" viewBox="0 0 89 89">
  <g id="Grupo_1112367" data-name="Grupo 1112367" transform="translate(-345 -11553.31)">
    <rect id="Rectángulo_400898" data-name="Rectángulo 400898" width="89" height="89" rx="44.5" transform="translate(345 11553.31)" fill="#769671"/>
    <g id="Grupo_1111783" data-name="Grupo 1111783" transform="translate(360.447 11571.502)">
      <g id="Grupo_1111781" data-name="Grupo 1111781" transform="translate(0.791 0.851)">
        <g id="Grupo_1111780" data-name="Grupo 1111780">
          <g id="Grupo_1111775" data-name="Grupo 1111775" transform="translate(2.363)">
            <g id="Grupo_1111772" data-name="Grupo 1111772">
              <g id="Grupo_1111771" data-name="Grupo 1111771">
                <path id="Trazado_897029" data-name="Trazado 897029" d="M45.533,7.727,43.825,7.5h-14.9A1.125,1.125,0,0,0,27.8,8.625v10.24a1.125,1.125,0,0,0,1.125,1.125h3.749a.562.562,0,0,1,.563.563v1.916a.505.505,0,0,0,.831.386L37.3,20.122a.562.562,0,0,1,.363-.133h6.407l1.462-.227a1.125,1.125,0,0,0,1.125-1.125V8.852a1.125,1.125,0,0,0-1.125-1.125Z" transform="translate(-27.797 -7.5)" fill="#caefb1"/>
              </g>
            </g>
            <g id="Grupo_1111773" data-name="Grupo 1111773" transform="translate(15.693)">
              <path id="Trazado_897030" data-name="Trazado 897030" d="M168.349,7.5h-2.27A1.125,1.125,0,0,1,167.2,8.625v10.24a1.125,1.125,0,0,1-1.125,1.125h2.27a1.125,1.125,0,0,0,1.125-1.125V8.625A1.125,1.125,0,0,0,168.349,7.5Z" transform="translate(-166.079 -7.5)" fill="#9de0b1"/>
            </g>
            <path id="Trazado_897031" data-name="Trazado 897031" d="M261.708,7.727,260.063,7.5H235.876a1.125,1.125,0,0,0-1.125,1.125v10.24a1.125,1.125,0,0,0,1.125,1.125h3.273a.562.562,0,0,1,.363.133l3.236,2.732a.505.505,0,0,0,.831-.386V20.552a.563.563,0,0,1,.563-.563h9.526a.562.562,0,0,1,.563.563v1.916a.505.505,0,0,0,.831.386l3.236-2.732a.562.562,0,0,1,.363-.133h1.4l1.645-.227a1.125,1.125,0,0,0,1.125-1.125V8.852A1.125,1.125,0,0,0,261.708,7.727Z" transform="translate(-211.265 -7.5)" fill="#f2fbff"/>
            <g id="Grupo_1111774" data-name="Grupo 1111774" transform="translate(48.4)">
              <path id="Trazado_897032" data-name="Trazado 897032" d="M456.558,7.5h-2.27a1.125,1.125,0,0,1,1.125,1.125v10.24a1.125,1.125,0,0,1-1.125,1.125h2.27a1.125,1.125,0,0,0,1.125-1.125V8.625A1.125,1.125,0,0,0,456.558,7.5Z" transform="translate(-454.288 -7.5)" fill="#dcf2f7"/>
            </g>
          </g>
          <g id="Grupo_1111779" data-name="Grupo 1111779" transform="translate(0 20.12)">
            <path id="Trazado_897033" data-name="Trazado 897033" d="M68.3,265.535l.344-2.808h3.944l.343,2.808a2.227,2.227,0,0,1-2.276,2.646A2.3,2.3,0,0,1,68.3,265.535Z" transform="translate(-61.329 -253.883)" fill="#9de0b1"/>
            <path id="Trazado_897034" data-name="Trazado 897034" d="M56.222,184.8a4.192,4.192,0,0,0-4.14,4.581l.112,1.123a5.24,5.24,0,0,0,2.9,4.176,2.573,2.573,0,0,0,2.273,0,5.226,5.226,0,0,0,2.891-4.173l.112-1.123A4.223,4.223,0,0,0,56.222,184.8Z" transform="translate(-46.941 -184.797)" fill="#caefb1"/>
            <g id="Grupo_1111776" data-name="Grupo 1111776" transform="translate(0 11.652)">
              <path id="Trazado_897035" data-name="Trazado 897035" d="M21.9,305.289a6.07,6.07,0,0,0,.511.779,1.745,1.745,0,0,0,1.288.422c1.02.008,1.346-.715,1.346-1.735l-.022-8.778.044-3.452-.133-1.147a4.55,4.55,0,0,0-3.316-3.063l-2.737-.79-.312-.055a2.472,2.472,0,0,1-4.632,0l-3.519.636a4.23,4.23,0,0,0-3.446,4.119v13.039A1.836,1.836,0,0,0,8.81,307.1h.141a2.866,2.866,0,0,0,1.694-1.831v.017c0,.344-.024,5.884,0,6.38a.454.454,0,0,0,.454.433h4.3l.851-.227.851.227h4.341a.454.454,0,0,0,.454-.433Z" transform="translate(-6.973 -287.469)" fill="#caefb1"/>
            </g>
            <path id="Trazado_897036" data-name="Trazado 897036" d="M118.546,292.272a6.29,6.29,0,0,1,.042.722v12.669a1.866,1.866,0,0,1-1.855,1.867h-.084V293.5a4.383,4.383,0,0,0-1.7-3.929,13.679,13.679,0,0,0-3.017-1.619l3.211.58a4.125,4.125,0,0,1,2.083,1.053A4.328,4.328,0,0,1,118.546,292.272Z" transform="translate(-100.017 -276.248)" fill="#9de0b1"/>
            <path id="Trazado_897037" data-name="Trazado 897037" d="M402.716,265.535l.344-2.808H407l.343,2.808a2.227,2.227,0,0,1-2.276,2.646A2.3,2.3,0,0,1,402.716,265.535Z" transform="translate(-357.798 -253.883)" fill="#6cabca"/>
            <g id="Grupo_1111777" data-name="Grupo 1111777" transform="translate(37.951 11.651)">
              <path id="Trazado_897038" data-name="Trazado 897038" d="M359.488,292.523l-.133-1.147a4.7,4.7,0,0,0-3.316-3.176l-2.737-.676-.312-.055a2.472,2.472,0,0,1-4.632,0l-3.519.635a4.23,4.23,0,0,0-3.446,4.119v11.412l3.672,1.65s-.023,5.884,0,6.38a.454.454,0,0,0,.454.433h4.3l.851-.227.851.227h4.341a.454.454,0,0,0,.454-.432v-6.377a6.065,6.065,0,0,0,.511.779,1.745,1.745,0,0,0,1.288.422c1.02.008,1.346-.715,1.346-1.735l-.022-8.778Z" transform="translate(-341.391 -287.467)" fill="#8abbd5"/>
            </g>
            <path id="Trazado_897039" data-name="Trazado 897039" d="M453.008,305.663a1.866,1.866,0,0,1-1.855,1.867h-.084s-.014-13.341-.014-14.066a4.3,4.3,0,0,0-1.688-3.89,13.68,13.68,0,0,0-3.017-1.619l3.211.58a4.125,4.125,0,0,1,2.083,1.053,4.327,4.327,0,0,1,1.324,2.684,6.29,6.29,0,0,1,.042.722" transform="translate(-396.487 -276.248)" fill="#6cabca"/>
            <path id="Trazado_897040" data-name="Trazado 897040" d="M390.643,184.8a4.192,4.192,0,0,0-4.14,4.581l.112,1.123a5.24,5.24,0,0,0,2.9,4.176,2.573,2.573,0,0,0,2.273,0,5.226,5.226,0,0,0,2.891-4.173l.112-1.123A4.223,4.223,0,0,0,390.643,184.8Z" transform="translate(-343.41 -184.797)" fill="#8abbd5"/>
            <path id="Trazado_897041" data-name="Trazado 897041" d="M276.661,265.535l.339-2.808h3.944l.348,2.808a2.231,2.231,0,0,1-2.28,2.646A2.3,2.3,0,0,1,276.661,265.535Z" transform="translate(-246.048 -253.883)" fill="#6cabca"/>
            <g id="Grupo_1111778" data-name="Grupo 1111778" transform="translate(23.641 11.652)">
              <path id="Trazado_897042" data-name="Trazado 897042" d="M230.224,305.289c0,.253.346.612.511.779a1.745,1.745,0,0,0,1.288.422c1.02.008,1.346-.715,1.346-1.735l-.022-8.778.044-3.452-.133-1.147a4.7,4.7,0,0,0-3.316-3.176l-2.737-.676-.308-.055a2.472,2.472,0,0,1-4.631,0l-3.524.636a4.23,4.23,0,0,0-3.447,4.119v13.039a1.836,1.836,0,0,0,1.836,1.837h.141a2.865,2.865,0,0,0,1.694-1.831v.017c0,.344-.016,5.884.007,6.38a.454.454,0,0,0,.454.433h4.3l.851-.227.851.227h4.341a.454.454,0,0,0,.454-.433C230.247,311.166,230.224,306.161,230.224,305.289Z" transform="translate(-215.295 -287.469)" fill="#8abbd5"/>
            </g>
            <path id="Trazado_897043" data-name="Trazado 897043" d="M326.87,292.273a6.289,6.289,0,0,1,.042.722v12.669a1.866,1.866,0,0,1-1.855,1.867h-.084V293.542a4.452,4.452,0,0,0-1.7-3.967,13.68,13.68,0,0,0-3.017-1.619l3.211.58a4.125,4.125,0,0,1,2.083,1.053A4.327,4.327,0,0,1,326.87,292.273Z" transform="translate(-284.7 -276.249)" fill="#6cabca"/>
            <path id="Trazado_897044" data-name="Trazado 897044" d="M264.546,184.8a4.192,4.192,0,0,0-4.14,4.581l.112,1.123a5.24,5.24,0,0,0,2.9,4.176,2.573,2.573,0,0,0,2.273,0,5.226,5.226,0,0,0,2.891-4.173l.112-1.123A4.223,4.223,0,0,0,264.546,184.8Z" transform="translate(-231.623 -184.797)" fill="#8abbd5"/>
          </g>
        </g>
      </g>
      <g id="Grupo_1111782" data-name="Grupo 1111782" transform="translate(0)">
        <path id="Trazado_897045" data-name="Trazado 897045" d="M39.113,0H28.686a.851.851,0,1,0,0,1.7H39.113a.274.274,0,0,1,.273.273v10.24a.274.274,0,0,1-.273.275h-8.1a1.416,1.416,0,0,0-.912.334l-2.667,2.251V13.9a1.415,1.415,0,0,0-1.414-1.413H22.276A.274.274,0,0,1,22,12.215V1.976a.274.274,0,0,1,.273-.273h2.439a.851.851,0,1,0,0-1.7H22.276A1.978,1.978,0,0,0,20.3,1.976v10.24a1.979,1.979,0,0,0,1.976,1.977h3.46V15.82a1.356,1.356,0,0,0,2.231,1.036l3.156-2.664h7.99a1.979,1.979,0,0,0,1.976-1.977V1.976A1.978,1.978,0,0,0,39.113,0Z" transform="translate(-17.996)"/>
        <path id="Trazado_897046" data-name="Trazado 897046" d="M229.226,14.192h3.167l3.158,2.665a1.357,1.357,0,0,0,2.23-1.037V14.192h8.949V15.82a1.356,1.356,0,0,0,2.231,1.036l3.156-2.664h3.167a1.978,1.978,0,0,0,1.976-1.977V8.637a.851.851,0,1,0-1.7,0v3.578a.274.274,0,0,1-.273.275h-3.273a1.406,1.406,0,0,0-.912.334l-2.667,2.251V13.9a1.415,1.415,0,0,0-1.414-1.413h-9.527a1.414,1.414,0,0,0-1.413,1.413v1.173l-2.664-2.249a1.409,1.409,0,0,0-.915-.337h-3.274a.274.274,0,0,1-.273-.275V1.976a.274.274,0,0,1,.273-.273h26.059a.274.274,0,0,1,.273.273v2.69a.851.851,0,1,0,1.7,0V1.976A1.978,1.978,0,0,0,255.285,0H229.226a1.978,1.978,0,0,0-1.976,1.976v10.24a1.979,1.979,0,0,0,1.976,1.977Z" transform="translate(-201.461 0)"/>
        <path id="Trazado_897047" data-name="Trazado 897047" d="M74.978,56.73h6.87a.851.851,0,0,0,0-1.7h-6.87a.851.851,0,1,0,0,1.7Z" transform="translate(-65.715 -48.783)"/>
        <path id="Trazado_897048" data-name="Trazado 897048" d="M4.526,341.61a.851.851,0,0,0-.851.851v10.767a.986.986,0,0,1-1.681.7.979.979,0,0,1-.292-.7v-8.59a.851.851,0,1,0-1.7,0v8.59a2.689,2.689,0,0,0,3.675,2.5V360.1a.851.851,0,0,0,1.7,0V342.461a.851.851,0,0,0-.851-.851Z" transform="translate(0 -302.843)"/>
        <path id="Trazado_897049" data-name="Trazado 897049" d="M16.13,189.574l-2.906-.524-.153-1.248a6.028,6.028,0,0,0,1.937-3.873l.111-1.12a5.006,5.006,0,1,0-9.96,0l.112,1.12A6.04,6.04,0,0,0,7.208,187.8l-.154,1.254-2.907.524A5.041,5.041,0,0,0,0,194.537V195a.851.851,0,1,0,1.7,0v-.463a3.34,3.34,0,0,1,2.748-3.289l2.9-.523a3.328,3.328,0,0,0,5.574,0l2.9.523a3.34,3.34,0,0,1,2.748,3.289v13.025a.986.986,0,0,1-1.972,0V196.8a.851.851,0,1,0-1.7,0V214.43a.851.851,0,1,0,1.7,0v-4.369a2.682,2.682,0,0,0,3.674-2.5V194.538a5.041,5.041,0,0,0-4.148-4.964Zm-5.991.959A1.592,1.592,0,0,1,8.7,189.65l.1-.806a3.441,3.441,0,0,0,2.69,0l.1.8A1.592,1.592,0,0,1,10.139,190.533Zm.762-3.289a1.727,1.727,0,0,1-1.517,0,4.349,4.349,0,0,1-2.418-3.488l-.112-1.12a3.3,3.3,0,1,1,6.572,0l-.111,1.12A4.336,4.336,0,0,1,10.9,187.244Z" transform="translate(0 -157.178)"/>
        <path id="Trazado_897050" data-name="Trazado 897050" d="M82.693,438.885a.851.851,0,0,0-.851.851v6.6a.851.851,0,1,0,1.7,0v-6.6A.851.851,0,0,0,82.693,438.885Z" transform="translate(-72.554 -389.079)"/>
        <path id="Trazado_897051" data-name="Trazado 897051" d="M238.666,189.573l-2.906-.524-.153-1.248a6.027,6.027,0,0,0,1.937-3.873l.111-1.12a5.006,5.006,0,1,0-9.96,0l.112,1.12a6.04,6.04,0,0,0,1.936,3.87l-.154,1.254-2.906.524a5.044,5.044,0,0,0-1.1.332,5.056,5.056,0,0,0-1.1-.332l-2.906-.524-.153-1.248a6.027,6.027,0,0,0,1.937-3.874l.111-1.12a5.005,5.005,0,1,0-9.96,0l.112,1.12a6.04,6.04,0,0,0,1.936,3.87l-.154,1.254-2.907.524a5.041,5.041,0,0,0-4.147,4.964v13.025a2.689,2.689,0,0,0,3.675,2.5v4.366a.851.851,0,0,0,1.7,0V196.795a.851.851,0,1,0-1.7,0v10.767a.986.986,0,0,1-1.681.7.979.979,0,0,1-.292-.7V194.537a3.34,3.34,0,0,1,2.748-3.289l2.9-.523a3.328,3.328,0,0,0,5.574,0l2.9.523a3.34,3.34,0,0,1,2.748,3.289v5.977a.851.851,0,0,0,1.7,0v-5.977a5.033,5.033,0,0,0-1.277-3.355l2.532-.457a3.328,3.328,0,0,0,5.574,0l2.9.523a3.339,3.339,0,0,1,2.748,3.288v13.025a.98.98,0,0,1-.292.7.993.993,0,0,1-1.681-.7V196.794a.851.851,0,1,0-1.7,0v17.635a.851.851,0,0,0,1.7,0v-4.368a2.687,2.687,0,0,0,3.675-2.5V194.537a5.04,5.04,0,0,0-4.148-4.963Zm-20.171.959a1.591,1.591,0,0,1-1.443-.883l.1-.806a3.441,3.441,0,0,0,2.689,0l.1.8A1.591,1.591,0,0,1,218.5,190.532Zm.762-3.289a1.727,1.727,0,0,1-1.517,0,4.349,4.349,0,0,1-2.418-3.488l-.112-1.12a3.3,3.3,0,1,1,6.572.005l-.111,1.12A4.336,4.336,0,0,1,219.257,187.243Zm13.419,3.289a1.591,1.591,0,0,1-1.443-.883l.1-.806a3.441,3.441,0,0,0,2.689,0l.1.8A1.591,1.591,0,0,1,232.676,190.532Zm.761-3.289a1.728,1.728,0,0,1-1.516,0,4.349,4.349,0,0,1-2.418-3.488l-.112-1.12a3.3,3.3,0,1,1,6.572,0l-.111,1.12a4.336,4.336,0,0,1-2.414,3.484Z" transform="translate(-184.711 -157.177)"/>
        <path id="Trazado_897052" data-name="Trazado 897052" d="M416.01,438.885a.851.851,0,0,0-.851.851v6.6a.851.851,0,1,0,1.7,0v-6.6A.851.851,0,0,0,416.01,438.885Z" transform="translate(-368.045 -389.079)"/>
        <path id="Trazado_897053" data-name="Trazado 897053" d="M344.187,349.3a.851.851,0,0,0-.851.851v3.077a.987.987,0,0,1-.986.986h-.008a.989.989,0,0,1-.978-.986V342.461a.851.851,0,1,0-1.7,0V360.1a.851.851,0,0,0,1.7,0v-4.369a2.681,2.681,0,0,0,.971.19h.015a2.7,2.7,0,0,0,.279-.015V360.1a.851.851,0,0,0,1.7,0v-5.052a2.678,2.678,0,0,0,.707-1.815v-3.077A.851.851,0,0,0,344.187,349.3Z" transform="translate(-301.115 -302.843)"/>
        <path id="Trazado_897054" data-name="Trazado 897054" d="M291.052,438.885a.851.851,0,0,0-.851.851v6.6a.851.851,0,1,0,1.7,0v-6.6A.851.851,0,0,0,291.052,438.885Z" transform="translate(-257.268 -389.079)"/>
        <circle id="Elipse_12100" data-name="Elipse 12100" cx="0.851" cy="0.851" r="0.851" transform="translate(36.327 6.245)"/>
        <circle id="Elipse_12101" data-name="Elipse 12101" cx="0.851" cy="0.851" r="0.851" transform="translate(39.943 6.245)"/>
        <circle id="Elipse_12102" data-name="Elipse 12102" cx="0.851" cy="0.851" r="0.851" transform="translate(43.56 6.245)"/>
      </g>
    </g>
  </g>
</svg>
