<svg xmlns="http://www.w3.org/2000/svg" width="89" height="89" viewBox="0 0 89 89">
  <g id="Grupo_1112369" data-name="Grupo 1112369" transform="translate(-1176.378 -11553.31)">
    <rect id="Rectángulo_400898" data-name="Rectángulo 400898" width="89" height="89" rx="44.5" transform="translate(1176.378 11553.31)" fill="#769671"/>
    <g id="Grupo_1111787" data-name="Grupo 1111787" transform="translate(1184.76 11562.187)">
      <path id="Trazado_897066" data-name="Trazado 897066" d="M192.97,7.522s16.729,25.651,0,25.651S192.97,7.522,192.97,7.522Z" transform="translate(-159.72 -6.469)" fill="#6ec661"/>
      <path id="Trazado_897067" data-name="Trazado 897067" d="M195.572,32.058c-13.36,0-5.381-16.36-1.625-22.949-.593-1-.977-1.587-.977-1.587s-16.729,25.651,0,25.651a8.56,8.56,0,0,0,5.2-1.368A12.267,12.267,0,0,1,195.572,32.058Z" transform="translate(-159.72 -6.469)" fill="#4ab839"/>
      <g id="Grupo_1111786" data-name="Grupo 1111786" transform="translate(4.252 1.053)">
        <path id="Trazado_897068" data-name="Trazado 897068" d="M357.678,66.979a3.335,3.335,0,0,0-2.381,1,3.346,3.346,0,1,0-6.39,0,3.346,3.346,0,1,0-2.381,5.7h11.153a3.346,3.346,0,0,0,0-6.692Z" transform="translate(-299.684 -55.826)" fill="#eaecea"/>
        <path id="Trazado_897069" data-name="Trazado 897069" d="M45.059,10.868a3.335,3.335,0,0,0-2.381,1,3.346,3.346,0,1,0-6.39,0,3.346,3.346,0,1,0-2.381,5.7H45.059a3.346,3.346,0,0,0,0-6.692Z" transform="translate(-30.56 -7.522)" fill="#eaecea"/>
      </g>
      <path id="Trazado_897070" data-name="Trazado 897070" d="M108.811,293.457a3.346,3.346,0,0,0,.515,4.7l18.264,14.661,4.189-5.218-18.264-14.661A3.346,3.346,0,0,0,108.811,293.457Z" transform="translate(-93.037 -251.544)" fill="#efb19e"/>
      <path id="Trazado_897071" data-name="Trazado 897071" d="M60.528,293.457a3.346,3.346,0,0,0,.515,4.7l18.264,14.661L83.5,307.6,65.231,292.942A3.346,3.346,0,0,0,60.528,293.457Z" transform="translate(-51.472 -251.544)" fill="#edbca9"/>
      <circle id="Elipse_12106" data-name="Elipse 12106" cx="13.383" cy="13.383" r="13.383" transform="translate(20.005 31.165)" fill="#ea957a"/>
      <path id="Trazado_897072" data-name="Trazado 897072" d="M159.259,282.267a13.383,13.383,0,0,1-13.383-13.383c0-.171,0-.342.011-.511a13.384,13.384,0,1,0,24.654,7.714A13.373,13.373,0,0,1,159.259,282.267Z" transform="translate(-123.78 -231.028)" fill="#e2724d"/>
      <path id="Trazado_897073" data-name="Trazado 897073" d="M54.963,280.063c-6.692,0-10.037,2.231-10.037,2.231H33.773a4.461,4.461,0,0,0,0,8.922H44.926l-3.346,4.461H30.427L12.965,282.561a3.346,3.346,0,1,0-4.209,5.2L29.312,304.6H56.079l7.2,6.692,13.383-13.383S67.231,280.063,54.963,280.063Z" transform="translate(-6.469 -241.091)" fill="#f1cbbd"/>
      <path id="Trazado_897074" data-name="Trazado 897074" d="M57.054,317.5H30.288L9.732,300.662a3.33,3.33,0,0,1-1.125-1.729,3.348,3.348,0,0,0,.149,5.075l20.556,16.836H56.079l7.2,6.692L65.41,325.4Z" transform="translate(-6.469 -257.336)" fill="#edbca9"/>
      <path id="Trazado_897075" data-name="Trazado 897075" d="M379.021,201.282a3.264,3.264,0,0,0-2.231-.879,1.046,1.046,0,1,0,0,2.091,1.186,1.186,0,0,1,1.185,1.185,1.046,1.046,0,1,0,2.091,0,1.186,1.186,0,0,1,1.185-1.185,1.046,1.046,0,0,0,0-2.091A3.266,3.266,0,0,0,379.021,201.282Z" transform="translate(-323.467 -172.514)"/>
      <path id="Trazado_897076" data-name="Trazado 897076" d="M304.648,26.146a1.186,1.186,0,0,1,1.185,1.185,1.046,1.046,0,1,0,2.091,0,1.186,1.186,0,0,1,1.185-1.185,1.046,1.046,0,1,0,0-2.091,3.264,3.264,0,0,0-2.231.879,3.264,3.264,0,0,0-2.231-.879,1.046,1.046,0,0,0,0,2.091Z" transform="translate(-261.361 -20.702)"/>
      <path id="Trazado_897077" data-name="Trazado 897077" d="M74.417,145.171a3.264,3.264,0,0,0-2.231-.879,1.046,1.046,0,1,0,0,2.091,1.186,1.186,0,0,1,1.185,1.185,1.046,1.046,0,1,0,2.091,0,1.186,1.186,0,0,1,1.185-1.185,1.046,1.046,0,1,0,0-2.091A3.265,3.265,0,0,0,74.417,145.171Z" transform="translate(-61.243 -124.21)"/>
      <path id="Trazado_897078" data-name="Trazado 897078" d="M335.666,63.856a4.4,4.4,0,0,0,4.391,4.391H351.21a4.391,4.391,0,1,0-1.27-8.6,4.392,4.392,0,0,0-8.613,0,4.4,4.4,0,0,0-5.661,4.206Zm4.391-2.3a2.283,2.283,0,0,1,1.637.685,1.046,1.046,0,0,0,1.743-1.045,2.3,2.3,0,1,1,4.393,0,1.046,1.046,0,0,0,1.743,1.045,2.3,2.3,0,1,1,1.637,3.915H340.057a2.3,2.3,0,0,1,0-4.6Z" transform="translate(-288.964 -48.305)"/>
      <path id="Trazado_897079" data-name="Trazado 897079" d="M27.436,12.136H38.589a4.391,4.391,0,1,0-1.27-8.6,4.392,4.392,0,0,0-8.614,0,4.392,4.392,0,1,0-1.27,8.6Zm0-6.692a2.283,2.283,0,0,1,1.637.685,1.046,1.046,0,0,0,1.743-1.045,2.3,2.3,0,1,1,4.394,0,1.046,1.046,0,0,0,1.743,1.045,2.3,2.3,0,1,1,1.637,3.915H27.436a2.3,2.3,0,1,1,0-4.6Z" transform="translate(-19.838)"/>
      <path id="Trazado_897080" data-name="Trazado 897080" d="M267.117,449.178a1.045,1.045,0,0,0-.712-.28H252.879a1.046,1.046,0,1,0,0,2.091h13.115l6.9,6.412a1.046,1.046,0,0,0,1.423-1.532Z" transform="translate(-216.795 -386.436)"/>
      <path id="Trazado_897081" data-name="Trazado 897081" d="M71.117,56.379a53.351,53.351,0,0,0-6.385-9.121c-5.371-6.158-10.834-9.28-16.237-9.28-.792,0-1.539.031-2.243.085A14.416,14.416,0,0,0,34.295,30.2V27.763c3.161-.21,5.353-1.4,6.517-3.546,1.688-3.115,1.047-8.086-1.9-14.774A69.432,69.432,0,0,0,34.125.533a1.056,1.056,0,0,0-1.752,0,69.42,69.42,0,0,0-4.781,8.911C24.641,16.132,24,21.1,25.687,24.218c1.163,2.148,3.355,3.335,6.517,3.546V30.22a14.463,14.463,0,0,0-12.453,9.666,4.41,4.41,0,0,0-4.673,1.281l-.664-.533a4.391,4.391,0,0,0-6.173.676c-.036.045-.068.092-.1.137l-1-.751a4.391,4.391,0,0,0-5.514,6.836L22.182,64.368a1.046,1.046,0,0,0,.662.237h8.221a1.046,1.046,0,1,0,0-2.091H23.218L2.945,45.91A2.3,2.3,0,0,1,4.107,41.84a2.388,2.388,0,0,1,1.762.517L23.331,55.473a1.045,1.045,0,0,0,.628.21H35.111a1.045,1.045,0,0,0,.836-.418L39.294,50.8a1.055,1.055,0,0,0-.836-1.673H27.3a3.416,3.416,0,0,1,0-6.831H38.457a1.063,1.063,0,0,0,.576-.173c.031-.02,3.223-2.058,9.462-2.058,11.491,0,20.682,17.115,20.773,17.288a1.046,1.046,0,0,0,1.849-.977ZM38.972,23.222c-.794,1.466-2.33,2.273-4.678,2.45V21.738l5.2-3.469A8.124,8.124,0,0,1,38.972,23.222Zm.076-7.166-4.754,3.169V15.01l3.547-2.66A33.983,33.983,0,0,1,39.048,16.056Zm-5.8-12.979a65.528,65.528,0,0,1,3.77,7.275L34.295,12.4v-2.37a1.046,1.046,0,1,0-2.091,0v3.711l-2.6-3.249a1.055,1.055,0,0,0-.126-.131A65.6,65.6,0,0,1,33.249,3.077ZM28.58,12.555,32.2,17.085V21.7l-4.771-5.567A33.343,33.343,0,0,1,28.58,12.555ZM27.526,23.223a7.661,7.661,0,0,1-.588-4.454L32.2,24.911v.76C29.856,25.495,28.321,24.688,27.526,23.223ZM19.212,41.913a14.437,14.437,0,0,0-.248,2.373l-2.252-1.808A2.308,2.308,0,0,1,19.212,41.913Zm-9.34.705a2.3,2.3,0,0,1,3.234-.354l5.759,4.623a1.043,1.043,0,0,0,.309.172,14.452,14.452,0,0,0,1.068,3.478L9.809,42.7C9.83,42.674,9.849,42.646,9.871,42.619Zm28.3-2.41H27.3a5.507,5.507,0,0,0,0,11.013h9.062l-1.777,2.37H24.941A12.337,12.337,0,1,1,44.013,38.328,17.908,17.908,0,0,0,38.168,40.208Z" transform="translate(0 -0.051)"/>
    </g>
  </g>
</svg>
