<svg xmlns="http://www.w3.org/2000/svg" width="69.617" height="70.205" viewBox="0 0 69.617 70.205">
  <g id="Icons" transform="translate(-2.46 -1.397)">
    <g id="Grupo_1111951" data-name="Grupo 1111951" transform="translate(2.46 1.397)">
      <path id="Trazado_897337" data-name="Trazado 897337" d="M64.718,33.778a29.894,29.894,0,1,1-.114-2.6q.112,1.285.114,2.6Z" transform="translate(-4.268 -3.205)" fill="#72c2e9"/>
      <path id="Trazado_897338" data-name="Trazado 897338" d="M168.244,44.692H153.7a5.34,5.34,0,0,1-5.34-5.34V27.939a5.34,5.34,0,0,1,5.34-5.34h1.605A29.861,29.861,0,0,1,168.244,44.692Z" transform="translate(-107.907 -16.72)" fill="#13bf6d"/>
      <path id="Trazado_897339" data-name="Trazado 897339" d="M35.494,38.569v7.578A4.051,4.051,0,0,1,31.443,50.2H17.316a4.051,4.051,0,0,0-4.051,4.051v0A4.051,4.051,0,0,0,17.316,58.3H22.6a4.051,4.051,0,0,1,4.051,4.051v8.107A4.056,4.056,0,0,1,22.6,74.517h-1.65a4.057,4.057,0,0,1-4.056-4.056,4.055,4.055,0,0,0-4.054-4.054H7.3a29.888,29.888,0,0,1,7.12-33.383H29.949a5.544,5.544,0,0,1,5.545,5.545Z" transform="translate(-4.27 -24.255)" fill="#13bf6d"/>
      <path id="Trazado_897340" data-name="Trazado 897340" d="M144.942,116.353c-.125.677-.274,1.342-.446,2a15.153,15.153,0,0,0-3.993-1.819v-2.351a1.683,1.683,0,0,0-1.68-1.68H133.7a1.683,1.683,0,0,0-1.68,1.68v2.351a15.193,15.193,0,0,0-6.294,3.638L123.684,119a1.681,1.681,0,0,0-2.3.613l-2.562,4.439a1.681,1.681,0,0,0,.616,2.3l2.032,1.173a15.229,15.229,0,0,0,0,7.276l-2.032,1.173a1.682,1.682,0,0,0-.616,2.3l1.237,2.143q-1.04.162-2.1.244l-.818-1.417a3.619,3.619,0,0,1,1.325-4.946l.829-.48a17,17,0,0,1,0-5.3l-.829-.48a3.624,3.624,0,0,1-1.325-4.946l2.562-4.439a3.615,3.615,0,0,1,4.946-1.323l.832.48a17.328,17.328,0,0,1,4.589-2.653v-.957a3.626,3.626,0,0,1,3.621-3.624h5.127a3.626,3.626,0,0,1,3.621,3.624v.957A17.425,17.425,0,0,1,144.942,116.353Z" transform="translate(-84.996 -80.295)" fill="#4ba5c8"/>
      <path id="Trazado_897341" data-name="Trazado 897341" d="M158.754,143.322l-2.562,4.439a1.681,1.681,0,0,1-2.3.616l-2.038-1.178a15.229,15.229,0,0,1-6.294,3.641v2.348a1.683,1.683,0,0,1-1.68,1.68h-5.127a1.683,1.683,0,0,1-1.68-1.68v-2.348a15.229,15.229,0,0,1-6.294-3.641l-2.038,1.178a1.682,1.682,0,0,1-2.3-.616l-1.325-2.3-1.237-2.143a1.682,1.682,0,0,1,.616-2.3l2.032-1.173a15.229,15.229,0,0,1,0-7.276l-2.032-1.173a1.681,1.681,0,0,1-.616-2.3l2.562-4.439a1.681,1.681,0,0,1,2.3-.613l2.038,1.176a15.193,15.193,0,0,1,6.294-3.638v-2.351a1.683,1.683,0,0,1,1.68-1.68h5.127a1.683,1.683,0,0,1,1.68,1.68V121.6a15.153,15.153,0,0,1,3.993,1.819,15.369,15.369,0,0,1,2.3,1.819l2.038-1.176a1.68,1.68,0,0,1,2.3.613l2.562,4.439a1.681,1.681,0,0,1-.616,2.3l-2.032,1.173a15.229,15.229,0,0,1,0,7.276l2.032,1.173A1.682,1.682,0,0,1,158.754,143.322Z" transform="translate(-90.057 -85.354)" fill="#fc5d3d"/>
      <path id="Trazado_897342" data-name="Trazado 897342" d="M161.957,169.184a9.742,9.742,0,1,1,9.742-9.742A9.753,9.753,0,0,1,161.957,169.184Z" transform="translate(-110.693 -108.58)" fill="#efefef"/>
      <path id="Trazado_897343" data-name="Trazado 897343" d="M161.957,169.184a9.742,9.742,0,1,1,9.742-9.742A9.753,9.753,0,0,1,161.957,169.184Z" transform="translate(-110.693 -108.58)" fill="#efefef"/>
      <path id="Trazado_897344" data-name="Trazado 897344" d="M180.727,167.262a9.085,9.085,0,0,1-.856,3.862,3.611,3.611,0,0,1-6.532,0,9.133,9.133,0,0,1,3.266-11.5,9.125,9.125,0,0,1,4.122,7.633Z" transform="translate(-125.342 -115.756)" fill="#13bf6d"/>
      <path id="Trazado_897345" data-name="Trazado 897345" d="M50.1,177.344q-.426-.038-.848-.088a.693.693,0,0,1,.164-1.377q.4.048.807.084a.693.693,0,1,1-.123,1.381Zm-3.651-.57a27.758,27.758,0,0,1-16.834-11.457.693.693,0,1,1,1.144-.783,26.376,26.376,0,0,0,15.995,10.888.693.693,0,0,1-.305,1.352Z" transform="translate(-21.997 -119.083)" fill="#c5e5fe"/>
      <g id="Grupo_1111950" data-name="Grupo 1111950" transform="translate(5.058 13.549)">
        <path id="Trazado_897346" data-name="Trazado 897346" d="M43.4,52.3a.693.693,0,0,1-.693-.693v-.649a.693.693,0,1,1,1.386,0v.649A.693.693,0,0,1,43.4,52.3Z" transform="translate(-36.607 -50.263)" fill="#139c6e"/>
        <path id="Trazado_897347" data-name="Trazado 897347" d="M21.394,123.173a.693.693,0,0,1-.693-.693v-.649a.693.693,0,1,1,1.386,0v.649A.693.693,0,0,1,21.394,123.173Z" transform="translate(-20.701 -101.487)" fill="#139c6e"/>
        <path id="Trazado_897348" data-name="Trazado 897348" d="M64.387,148.064a.693.693,0,0,1-.693-.693v-.649a.693.693,0,1,1,1.386,0v.649A.693.693,0,0,1,64.387,148.064Z" transform="translate(-51.773 -119.476)" fill="#139c6e"/>
        <path id="Trazado_897349" data-name="Trazado 897349" d="M170.678,58.375a.693.693,0,0,1-.693-.693v-.649a.693.693,0,1,1,1.386,0v.649A.693.693,0,0,1,170.678,58.375Z" transform="translate(-128.593 -54.655)" fill="#139c6e"/>
        <path id="Trazado_897350" data-name="Trazado 897350" d="M196.473,86.514a.693.693,0,0,1-.693-.693v-.649a.693.693,0,1,1,1.386,0v.649A.693.693,0,0,1,196.473,86.514Z" transform="translate(-147.236 -74.992)" fill="#139c6e"/>
      </g>
      <circle id="Elipse_12116" data-name="Elipse 12116" cx="0.693" cy="0.693" r="0.693" transform="translate(39.761 16.393)"/>
      <path id="Trazado_897351" data-name="Trazado 897351" d="M57.527,61.763l1.915-1.915,1.915,1.915a.693.693,0,0,0,.98-.98l-.46-.46,1.683-1.683L66.2,61.278a.693.693,0,0,0,.98-.98l-3.128-3.128a.693.693,0,0,0-.98,0L60.9,59.343l-.965-.965a.693.693,0,0,0-.98,0l-2.4,2.4a.693.693,0,0,0,.98.98Z" transform="translate(-41.403 -41.559)"/>
      <path id="Trazado_897352" data-name="Trazado 897352" d="M81.759,5.366h0a.692.692,0,1,0,.851.482.692.692,0,0,0-.851-.482Z" transform="translate(-59.402 -4.248)"/>
      <path id="Trazado_897353" data-name="Trazado 897353" d="M160.15,147.2a10.447,10.447,0,0,0-10.435,10.435c0,.007,0,.014,0,.021a10.312,10.312,0,0,0,.726,3.807.692.692,0,1,0,1.287-.51,9.022,9.022,0,0,1-.629-3.309s0-.006,0-.009a9.049,9.049,0,1,1,9.742,9.02v-1.806a4.243,4.243,0,0,0,3.2-2.413,9.826,9.826,0,0,0-3.512-12.368.693.693,0,0,0-.762,0,9.826,9.826,0,0,0-3.512,12.368,4.244,4.244,0,0,0,3.2,2.413v1.808a8.964,8.964,0,0,1-4.605-1.689.708.708,0,0,0-.968.153.694.694,0,0,0,.152.967,10.34,10.34,0,0,0,6.108,1.982h.006a10.435,10.435,0,1,0,0-20.87Zm-2.638,14.648a8.44,8.44,0,0,1,2.638-10.356,8.44,8.44,0,0,1,2.638,10.356,2.827,2.827,0,0,1-1.945,1.586v-2.144l1.3-.788a.693.693,0,0,0-.72-1.185l-.576.35v-4.385a.693.693,0,0,0-1.386,0v1.875l-.6-.343a.693.693,0,0,0-.688,1.2l1.288.737v4.68A2.825,2.825,0,0,1,157.512,161.847Z" transform="translate(-108.886 -106.773)"/>
      <path id="Trazado_897354" data-name="Trazado 897354" d="M158.347,204.156a.709.709,0,0,0-.973-.122.7.7,0,0,0-.122.973l0,0a.7.7,0,0,0,.97.119.689.689,0,0,0,.122-.97Z" transform="translate(-114.228 -147.748)"/>
      <path id="Trazado_897355" data-name="Trazado 897355" d="M70.889,56.469l-1.59-.919a15.915,15.915,0,0,0,0-6.585l1.591-.919a2.376,2.376,0,0,0,.869-3.242L69.2,40.367a2.372,2.372,0,0,0-3.242-.869l-1.594.92a15.979,15.979,0,0,0-1.608-1.261A30.6,30.6,0,0,0,27.575,1.882a.693.693,0,0,0,.247,1.364A29.245,29.245,0,0,1,47.5,6.63a6.041,6.041,0,0,0-5.282,5.985c0,1.877,0,1.671,0,3.094a.693.693,0,0,0,1.386,0V12.615a4.653,4.653,0,0,1,4.647-4.647h1.363A29.208,29.208,0,0,1,62.031,28.675H48.255a4.652,4.652,0,0,1-4.647-4.647h0V21.255a.693.693,0,1,0-1.386,0v2.773h0a6.04,6.04,0,0,0,6.033,6.033h13.9c.041.631.064,1.267.064,1.908a29.426,29.426,0,0,1-.706,6.414,15.863,15.863,0,0,0-2.851-1.258V35.287a2.376,2.376,0,0,0-2.373-2.374H51.163a2.376,2.376,0,0,0-2.373,2.374v1.837a15.978,15.978,0,0,0-5.7,3.294L41.5,39.5a2.372,2.372,0,0,0-3.242.869l-2.562,4.438a2.372,2.372,0,0,0,.869,3.242l1.591.919a15.919,15.919,0,0,0,0,6.585l-1.59.919a2.372,2.372,0,0,0-.869,3.242l.721,1.249a29.612,29.612,0,0,1-3.38.194A29.223,29.223,0,0,1,6.558,44.242h4.475A3.364,3.364,0,0,1,14.393,47.6a4.755,4.755,0,0,0,4.75,4.75h1.65A4.754,4.754,0,0,0,25.54,47.6V39.5A4.749,4.749,0,0,0,20.8,34.751H15.508a3.359,3.359,0,0,1,0-6.718H29.635a4.749,4.749,0,0,0,4.744-4.744V15.712A6.246,6.246,0,0,0,28.14,9.473H14.47A28.907,28.907,0,0,1,22.615,4.7a.694.694,0,0,0,.4-.9.707.707,0,0,0-.9-.4A30.577,30.577,0,0,0,33.032,62.541a30.909,30.909,0,0,0,4.13-.282l1.092,1.891a2.376,2.376,0,0,0,3.242.869l1.594-.921a15.98,15.98,0,0,0,5.7,3.294V69.23A2.376,2.376,0,0,0,51.162,71.6h5.125A2.376,2.376,0,0,0,58.66,69.23V67.392a15.97,15.97,0,0,0,5.7-3.294l1.595.921a2.376,2.376,0,0,0,3.242-.869l2.563-4.438a2.372,2.372,0,0,0-.868-3.242ZM12.918,10.859H28.139a4.858,4.858,0,0,1,4.852,4.852v7.578a3.361,3.361,0,0,1-3.358,3.357H15.507a4.745,4.745,0,0,0,0,9.491h5.288A3.362,3.362,0,0,1,24.152,39.5V47.6a3.366,3.366,0,0,1-3.361,3.363h-1.65A3.367,3.367,0,0,1,15.778,47.6a4.752,4.752,0,0,0-4.747-4.747H5.954A29.028,29.028,0,0,1,3.847,31.969a29.337,29.337,0,0,1,9.071-21.109Zm57.64,48.159-2.563,4.438a.989.989,0,0,1-1.348.361l-2.038-1.176a.694.694,0,0,0-.827.1,14.566,14.566,0,0,1-6.008,3.473.693.693,0,0,0-.5.666v2.349a.988.988,0,0,1-.987.987H51.162a.988.988,0,0,1-.987-.987V66.88a.693.693,0,0,0-.5-.666,14.565,14.565,0,0,1-6.008-3.473.693.693,0,0,0-.827-.1L40.8,63.818a.989.989,0,0,1-1.349-.361l-2.562-4.438a.986.986,0,0,1,.361-1.348L39.286,56.5a.693.693,0,0,0,.327-.766,14.543,14.543,0,0,1,0-6.944.693.693,0,0,0-.327-.766l-2.033-1.174a.987.987,0,0,1-.361-1.348l2.562-4.438A.986.986,0,0,1,40.8,40.7l2.038,1.176a.692.692,0,0,0,.827-.1A14.571,14.571,0,0,1,49.675,38.3a.693.693,0,0,0,.5-.666V35.288a.988.988,0,0,1,.987-.987h5.125a.988.988,0,0,1,.987.987v2.349a.693.693,0,0,0,.5.666,14.574,14.574,0,0,1,6.008,3.473.692.692,0,0,0,.827.1L66.647,40.7A.986.986,0,0,1,68,41.061L70.558,45.5a.989.989,0,0,1-.361,1.348l-2.033,1.174a.693.693,0,0,0-.327.766,14.543,14.543,0,0,1,0,6.944.693.693,0,0,0,.327.766L70.2,57.67a.987.987,0,0,1,.361,1.348Z" transform="translate(-2.46 -1.397)"/>
    </g>
  </g>
</svg>
