<svg xmlns="http://www.w3.org/2000/svg" width="47" height="47" viewBox="0 0 47 47">
  <g id="Grupo_1112478" data-name="Grupo 1112478" transform="translate(-201.051 -14394)">
    <rect id="Rectángulo_400898" data-name="Rectángulo 400898" width="47" height="47" rx="23.5" transform="translate(201.051 14394)" fill="#769671"/>
    <g id="Grupo_1111987" data-name="Grupo 1111987" transform="translate(206.008 14362.548)">
      <g id="Grupo_1111986" data-name="Grupo 1111986" transform="translate(0.556 42.217)">
        <path id="Trazado_897527" data-name="Trazado 897527" d="M342.033,64.656h1.454a5.021,5.021,0,0,1,5.021,5.021v9.982h-11.5V69.677A5.021,5.021,0,0,1,342.033,64.656Z" transform="translate(-312.566 -63.507)" fill="#dd7f66"/>
        <path id="Trazado_897528" data-name="Trazado 897528" d="M409.48,64.656h-1.187a5.021,5.021,0,0,1,5.021,5.021v9.982H414.5V69.677A5.021,5.021,0,0,0,409.48,64.656Z" transform="translate(-378.559 -63.507)" fill="#d6694b"/>
        <path id="Trazado_897529" data-name="Trazado 897529" d="M20.553,58.01V57.2a5.022,5.022,0,0,0-5.023-5.023h-1.44A5.022,5.022,0,0,0,9.068,57.2v.714a.967.967,0,0,1-.52.867A1.9,1.9,0,0,0,7.5,60.473,1.946,1.946,0,0,0,9.448,62.38H20.03a1.93,1.93,0,0,0,1.943-1.844,1.9,1.9,0,0,0-.934-1.7A.967.967,0,0,1,20.553,58.01Z" transform="translate(-7.5 -51.951)" fill="#e49280"/>
        <path id="Trazado_897530" data-name="Trazado 897530" d="M107.369,58.839a.967.967,0,0,1-.486-.829V57.2a5.022,5.022,0,0,0-5.023-5.023h-1.113a5.023,5.023,0,0,1,5.023,5.023v.813a.967.967,0,0,0,.486.829,1.9,1.9,0,0,1,.934,1.7,1.93,1.93,0,0,1-1.943,1.844h1.113a1.93,1.93,0,0,0,1.943-1.844A1.9,1.9,0,0,0,107.369,58.839Z" transform="translate(-93.83 -51.951)" fill="#dd7f66"/>
        <path id="Trazado_897531" data-name="Trazado 897531" d="M25.859,177.493H23.448a.3.3,0,0,1-.3-.3v-3.837H20.286v3.837a.3.3,0,0,1-.3.3H17.576a2.536,2.536,0,0,0-2.536,2.536v7.3a.386.386,0,0,0,.387.387H28.4v-7.69A2.536,2.536,0,0,0,25.859,177.493Z" transform="translate(-14.481 -164.143)" fill="#fe9738"/>
        <path id="Trazado_897532" data-name="Trazado 897532" d="M113.17,177.493h-2.411a.3.3,0,0,1-.3-.3v-3.837h-1.113v4.707a.468.468,0,0,0,.468.468h2.749a2.029,2.029,0,0,1,2.029,2.029v7.158h1.113v-7.69A2.536,2.536,0,0,0,113.17,177.493Z" transform="translate(-101.791 -164.143)" fill="#fd6930"/>
        <path id="Trazado_897533" data-name="Trazado 897533" d="M79.627,179.662a2.037,2.037,0,0,0,2.037-2.037v-.131h-.307a.3.3,0,0,1-.3-.3v-3.837H78.2v3.837a.3.3,0,0,1-.3.3H77.59v.131A2.037,2.037,0,0,0,79.627,179.662Z" transform="translate(-72.39 -164.143)" fill="#ffbd86"/>
        <path id="Trazado_897534" data-name="Trazado 897534" d="M111.065,177.624v-.131h-.307a.3.3,0,0,1-.3-.3v-3.837h-1.113v4.707a.468.468,0,0,0,.468.468h1.037A2.026,2.026,0,0,0,111.065,177.624Z" transform="translate(-101.791 -164.143)" fill="#ea9b58"/>
        <path id="Trazado_897535" data-name="Trazado 897535" d="M65.439,106.469a1.263,1.263,0,0,1,1.263,1.263v2.926a2.885,2.885,0,0,1-2.886,2.885h-.911a2.885,2.885,0,0,1-2.885-2.885v-1.636a.448.448,0,0,1,.426-.447,6.939,6.939,0,0,0,4.291-2,.416.416,0,0,1,.28-.109h.421Z" transform="translate(-56.125 -102.217)" fill="#ffbd86"/>
        <path id="Trazado_897536" data-name="Trazado 897536" d="M335.3,177.493h-2.411a.3.3,0,0,1-.3-.3v-3.837h-2.863v3.837a.3.3,0,0,1-.3.3h-2.411a2.536,2.536,0,0,0-2.536,2.536v7.69h12.969a.386.386,0,0,0,.387-.387v-7.3A2.536,2.536,0,0,0,335.3,177.493Z" transform="translate(-300.964 -164.143)" fill="#97d729"/>
        <path id="Trazado_897537" data-name="Trazado 897537" d="M422.611,177.493H420.2a.3.3,0,0,1-.3-.3v-3.837h-1.113v4.876a.3.3,0,0,0,.3.3h3.189a1.758,1.758,0,0,1,1.758,1.758v7.043a.386.386,0,0,1-.387.387h1.113a.387.387,0,0,0,.387-.387v-7.3A2.536,2.536,0,0,0,422.611,177.493Z" transform="translate(-388.275 -164.143)" fill="#81b823"/>
        <g id="Grupo_1111984" data-name="Grupo 1111984" transform="translate(10.837 0)">
          <path id="Trazado_897538" data-name="Trazado 897538" d="M165.892,193.053h-2.576a.507.507,0,0,1-.507-.507v-4.2H159.55v4.2a.507.507,0,0,1-.507.507h-2.576a2.886,2.886,0,0,0-2.886,2.886V204.3a.387.387,0,0,0,.387.387h14.423a.387.387,0,0,0,.387-.387v-8.364A2.886,2.886,0,0,0,165.892,193.053Z" transform="translate(-153.581 -178.021)" fill="#01d0fb"/>
          <path id="Trazado_897539" data-name="Trazado 897539" d="M267.154,193.053h-2.576a.507.507,0,0,1-.507-.507v-4.2h-1.113v5.237a.507.507,0,0,0,.507.507H266.9a2.031,2.031,0,0,1,2.031,2.031v8.18a.387.387,0,0,1-.387.387h1.113a.387.387,0,0,0,.387-.387v-8.364A2.886,2.886,0,0,0,267.154,193.053Z" transform="translate(-254.844 -178.021)" fill="#08a9f1"/>
          <path id="Trazado_897540" data-name="Trazado 897540" d="M178.281,49.547l-.519.606a1.1,1.1,0,0,1-.837.385h-1.538a2.079,2.079,0,0,0-2.079,2.079v3.192a2.563,2.563,0,0,0,2.563,2.563h7.144a2.563,2.563,0,0,0,2.563-2.563V51.143a1.981,1.981,0,0,0-1.981-1.981h-4.48A1.1,1.1,0,0,0,178.281,49.547Z" transform="translate(-171.845 -49.162)" fill="#596c76"/>
          <path id="Trazado_897541" data-name="Trazado 897541" d="M290.842,49.162h-1.113a1.981,1.981,0,0,1,1.981,1.981v4.666a2.563,2.563,0,0,1-2.563,2.563h1.113a2.563,2.563,0,0,0,2.563-2.563V51.143A1.981,1.981,0,0,0,290.842,49.162Z" transform="translate(-279.09 -49.162)" fill="#465a61"/>
          <path id="Trazado_897542" data-name="Trazado 897542" d="M214.223,195.052a3.8,3.8,0,0,0,3.348-2h-1.211a.507.507,0,0,1-.507-.507v-4.2h-3.258v4.2a.507.507,0,0,1-.507.507h-1.211A3.8,3.8,0,0,0,214.223,195.052Z" transform="translate(-206.624 -178.02)" fill="#fed2a4"/>
          <path id="Trazado_897543" data-name="Trazado 897543" d="M265.789,193.053h-1.211a.507.507,0,0,1-.507-.507v-4.2h-1.113v5.237a.507.507,0,0,0,.507.507h1.5A3.815,3.815,0,0,0,265.789,193.053Z" transform="translate(-254.844 -178.021)" fill="#ffbd86"/>
          <path id="Trazado_897544" data-name="Trazado 897544" d="M212.369,105.575v3.456a3.283,3.283,0,0,1-3.283,3.283h-1.037a3.282,3.282,0,0,1-3.282-3.282V104.5a.877.877,0,0,1,.877-.877h.471a.827.827,0,0,1,.613.272l.641.708a3.627,3.627,0,0,0,4.519.692A.32.32,0,0,1,212.369,105.575Z" transform="translate(-200.97 -99.586)" fill="#fed2a4"/>
        </g>
        <path id="Trazado_897545" data-name="Trazado 897545" d="M382.971,196.085a2.526,2.526,0,0,0,2.526-2.526v-.277h-.8a.3.3,0,0,1-.3-.3v-2.572h-2.863v2.572a.3.3,0,0,1-.3.3h-.8v.277A2.526,2.526,0,0,0,382.971,196.085Z" transform="translate(-352.777 -179.932)" fill="#ffbd86"/>
        <path id="Trazado_897546" data-name="Trazado 897546" d="M421,193.559v-.277h-.8a.3.3,0,0,1-.3-.3v-2.572h-1.113v3.611a.3.3,0,0,0,.3.3h1.791A2.526,2.526,0,0,0,421,193.559Z" transform="translate(-388.276 -179.932)" fill="#ea9b58"/>
        <path id="Trazado_897547" data-name="Trazado 897547" d="M374.881,106.469a1.263,1.263,0,0,1,1.263,1.263v2.926a2.885,2.885,0,0,1-2.886,2.885h-.911a2.885,2.885,0,0,1-2.885-2.885v-1.636a.448.448,0,0,1,.426-.447,6.939,6.939,0,0,0,4.291-2,.416.416,0,0,1,.28-.109h.421Z" transform="translate(-342.61 -102.217)" fill="#ffbd86"/>
        <g id="Grupo_1111985" data-name="Grupo 1111985" transform="translate(15.426 20.324)">
          <path id="Trazado_897548" data-name="Trazado 897548" d="M215.436,328.111a3.009,3.009,0,0,0,6.019,0c0-1.455-1.886-3.886-2.672-4.836a.438.438,0,0,0-.675,0C217.322,324.225,215.436,326.656,215.436,328.111Z" transform="translate(-215.436 -323.116)" fill="#47a920"/>
        </g>
      </g>
      <path id="Trazado_897549" data-name="Trazado 897549" d="M37.055,55.9V52.216a.556.556,0,0,0-1.113,0v2.979a3.079,3.079,0,0,0-1.05-.184H32.738V53.738a3.444,3.444,0,0,0,1.909-3.08V47.732a1.821,1.821,0,0,0-1.819-1.819h-.421a.971.971,0,0,0-.654.254,6.3,6.3,0,0,1-3.944,1.853,1,1,0,0,0-.955,1v1.636a3.445,3.445,0,0,0,1.909,3.08v1.273H26.609a3.093,3.093,0,0,0-1.051.184V49.747a3.168,3.168,0,0,0,.125-.883V47.339a4.481,4.481,0,0,1,1.536-2.425,4.415,4.415,0,0,1,2.8-.99h1.454a4.469,4.469,0,0,1,4.465,4.464v1.232a.556.556,0,1,0,1.113,0V48.388a5.583,5.583,0,0,0-5.577-5.577H30.023a5.564,5.564,0,0,0-4.34,2.075V44.2a2.54,2.54,0,0,0-2.537-2.537H18.666a1.657,1.657,0,0,0-1.26.58l-.518.606a.545.545,0,0,1-.414.19H14.937a2.63,2.63,0,0,0-2,.927,5.588,5.588,0,0,0-4.345-2.08H7.147a5.556,5.556,0,0,0-1.947.35.556.556,0,1,0,.389,1.043A4.447,4.447,0,0,1,7.147,43h1.44a4.473,4.473,0,0,1,3.78,2.089,2.634,2.634,0,0,0-.067.586v3.192a3.1,3.1,0,0,0,1.777,2.82,1.409,1.409,0,0,1-.992.407h-1.71a3.419,3.419,0,0,0,.314-1.433V47.732a1.821,1.821,0,0,0-1.819-1.819H9.45a.971.971,0,0,0-.654.254,6.3,6.3,0,0,1-3.944,1.853,1,1,0,0,0-.955,1v1.636a3.419,3.419,0,0,0,.314,1.433H2.5a1.422,1.422,0,0,1-1-.419,1.31,1.31,0,0,1-.394-.931,1.342,1.342,0,0,1,.742-1.2,1.532,1.532,0,0,0,.826-1.364v-.714A4.471,4.471,0,0,1,3.719,44.6a.556.556,0,0,0-.854-.714,5.585,5.585,0,0,0-1.3,3.576v.714a.411.411,0,0,1-.214.37A2.449,2.449,0,0,0,0,50.738a2.416,2.416,0,0,0,.719,1.72A2.542,2.542,0,0,0,2.5,53.2h2.52a3.457,3.457,0,0,0,.78.534v1.273H3.652A3.1,3.1,0,0,0,.559,58.1v7.3a.944.944,0,0,0,.943.943h9.335V68.5a.944.944,0,0,0,.943.943h4.2a3.572,3.572,0,0,0,2.455,1.616v1.849a.556.556,0,1,0,1.113,0V71.059A3.572,3.572,0,0,0,22,69.442h4.2a.944.944,0,0,0,.943-.943V66.35h9.894a.944.944,0,0,0,.943-.943V58.1a3.082,3.082,0,0,0-.93-2.207Zm-9.089-5.238V49.124a7.376,7.376,0,0,0,4.5-2.1h.366a.707.707,0,0,1,.706.706v2.926a2.331,2.331,0,0,1-2.329,2.328h-.911a2.331,2.331,0,0,1-2.328-2.328ZM30.294,54.1H31.2a3.464,3.464,0,0,0,.42-.027v1.2a.856.856,0,0,0,.855.855H32.7a1.969,1.969,0,0,1-3.9,0h.219a.856.856,0,0,0,.855-.855v-1.2a3.456,3.456,0,0,0,.42.026Zm-6.44,2.6c-.05,0-.1,0-.149,0H21.178V55.121a3.846,3.846,0,0,0,2.165-3.235,3.1,3.1,0,0,0,1.1-.526v4.532A3.084,3.084,0,0,0,23.854,56.7Zm-8.106-9.562a.321.321,0,0,1,.32-.32h.471a.271.271,0,0,1,.2.089l.641.708a4.184,4.184,0,0,0,4.855.985v3.066a2.73,2.73,0,0,1-2.727,2.727H18.473a2.729,2.729,0,0,1-2.726-2.726V47.135Zm2.172,9.607v-1.28a3.855,3.855,0,0,0,.554.041H19.51a3.856,3.856,0,0,0,.555-.041v1.28a1.065,1.065,0,0,0,1.064,1.064h.091a3.24,3.24,0,0,1-4.455,0h.091A1.065,1.065,0,0,0,17.919,56.742Zm-4.505-7.878V45.672a1.525,1.525,0,0,1,1.523-1.523h1.537a1.657,1.657,0,0,0,1.26-.579l.518-.606a.545.545,0,0,1,.414-.191h4.479A1.426,1.426,0,0,1,24.57,44.2v4.666a2.022,2.022,0,0,1-1.221,1.845v-2.5a.876.876,0,0,0-1.319-.757,3.07,3.07,0,0,1-3.825-.586l-.641-.708a1.386,1.386,0,0,0-1.025-.455h-.471a1.435,1.435,0,0,0-1.433,1.433v3.574a2.023,2.023,0,0,1-1.221-1.845Zm1.332,3.716a3.854,3.854,0,0,0,2.06,2.541v1.572H14.687a3.1,3.1,0,0,0-2.752-1.682H9.782V53.738a3.455,3.455,0,0,0,.78-.534h2.524A2.524,2.524,0,0,0,14.746,52.58ZM5.009,49.124a7.376,7.376,0,0,0,4.5-2.1h.366a.707.707,0,0,1,.706.706v2.926a2.331,2.331,0,0,1-2.329,2.328H7.338a2.331,2.331,0,0,1-2.328-2.328ZM7.338,54.1h.911a3.449,3.449,0,0,0,.42-.027v1.2a.856.856,0,0,0,.557.8,1.479,1.479,0,0,1-2.864,0,.856.856,0,0,0,.557-.8v-1.2a3.439,3.439,0,0,0,.42.027ZM4.352,65.237V60.68a.556.556,0,1,0-1.113,0v4.557H1.672V58.1a1.982,1.982,0,0,1,1.98-1.979H5.235a2.593,2.593,0,0,0,5.116,0h1.583a1.984,1.984,0,0,1,1.49.677,3.448,3.448,0,0,0-2.587,3.335v5.1H4.352Zm16.589.776-1.393.878V63.872A15.458,15.458,0,0,1,20.941,66.013Zm-2.506.878-1.393-.878a15.458,15.458,0,0,1,1.393-2.141Zm-1.9.646a1.88,1.88,0,0,1,.074-.479l1.823,1.149v1.719A2.457,2.457,0,0,1,16.539,67.536Zm3.009,2.389V68.206l1.823-1.149a1.883,1.883,0,0,1,.074.479A2.457,2.457,0,0,1,19.548,69.925Zm6.486-1.6H24.6V63.067a.556.556,0,1,0-1.113,0v5.262H22.468a3.563,3.563,0,0,0,.09-.793c0-1.588-1.793-3.974-2.8-5.19a1.015,1.015,0,0,0-.708-.358.678.678,0,0,0-.118,0,1.015,1.015,0,0,0-.708.358c-1.006,1.216-2.8,3.6-2.8,5.19a3.559,3.559,0,0,0,.09.793H14.5V63.067a.556.556,0,0,0-1.113,0v5.262H11.95V60.135a2.332,2.332,0,0,1,2.33-2.329h1.048a4.356,4.356,0,0,0,7.328,0H23.7a2.332,2.332,0,0,1,2.33,2.329Zm10.837-3.092H35.3V60.68a.556.556,0,1,0-1.113,0v4.557H27.147v-5.1A3.447,3.447,0,0,0,25,56.947a1.982,1.982,0,0,1,1.607-.824h1.072a3.081,3.081,0,0,0,6.138,0h1.072a1.982,1.982,0,0,1,1.98,1.979v7.134Z"/>
    </g>
  </g>
</svg>
