<svg xmlns="http://www.w3.org/2000/svg" width="89.943" height="89.943" viewBox="0 0 89.943 89.943">
  <g id="Grupo_1112376" data-name="Grupo 1112376" transform="translate(-239.379 -16026.028)">
    <rect id="Rectángulo_400898" data-name="Rectángulo 400898" width="89.943" height="89.943" rx="44.971" transform="translate(239.379 16026.028)" fill="#769671"/>
    <g id="Grupo_1112198" data-name="Grupo 1112198" transform="translate(242.334 16028.334)">
      <g id="Grupo_1112197" data-name="Grupo 1112197" transform="translate(8.151 8.15)">
        <path id="Trazado_900199" data-name="Trazado 900199" d="M173.77,345.843c7.515,0,13.644-1.74,13.644-3.873s-6.129-3.871-13.644-3.871-13.644,1.738-13.644,3.871S166.255,345.843,173.77,345.843Z" transform="translate(-139.255 -291.633)" fill="#a79ba7" fill-rule="evenodd"/>
        <path id="Trazado_900200" data-name="Trazado 900200" d="M250,345.838c7.183-.107,12.925-1.8,12.925-3.868s-5.742-3.759-12.925-3.865q.357-.005.719-.005c7.515,0,13.644,1.738,13.644,3.871s-6.129,3.873-13.644,3.873Q250.357,345.843,250,345.838Z" transform="translate(-216.203 -291.633)" fill="#837683" fill-rule="evenodd"/>
        <path id="Trazado_900201" data-name="Trazado 900201" d="M174.317,152.934a.719.719,0,0,1-1.093,0c-4.945-5.749-13.1-14.149-13.1-21.231a13.644,13.644,0,1,1,27.289,0C187.415,138.785,179.264,147.185,174.317,152.934Z" transform="translate(-139.255 -103.237)" fill="#fe646f" fill-rule="evenodd"/>
        <path id="Trazado_900202" data-name="Trazado 900202" d="M250,118.077q.357-.019.719-.019A13.645,13.645,0,0,1,264.364,131.7c0,7.083-8.151,15.483-13.1,21.231a.719.719,0,0,1-1.093,0l-.172-.2c4.962-5.742,12.925-14.03,12.925-21.031A13.646,13.646,0,0,0,250,118.077Z" transform="translate(-216.204 -103.237)" fill="#fd4755" fill-rule="evenodd"/>
        <g id="Grupo_1112195" data-name="Grupo 1112195" transform="translate(26.061 20.011)">
          <path id="Trazado_900203" data-name="Trazado 900203" d="M204.664,154.14a8.456,8.456,0,1,1-8.456,8.457,8.456,8.456,0,0,1,8.456-8.457Z" transform="translate(-196.208 -154.14)" fill="#ffc338" fill-rule="evenodd"/>
          <path id="Trazado_900204" data-name="Trazado 900204" d="M204.665,154.14a8.456,8.456,0,1,0,0,16.913c.244,0,.485-.011.724-.031a8.456,8.456,0,0,1,0-16.851C205.15,154.151,204.908,154.14,204.665,154.14Z" transform="translate(-196.208 -154.14)" fill="#f5b829" fill-rule="evenodd"/>
        </g>
        <g id="Grupo_1112196" data-name="Grupo 1112196" transform="translate(0)">
          <path id="Trazado_900205" data-name="Trazado 900205" d="M57.776,22.174A28.56,28.56,0,0,0,35.4,74.34l2.011,7.506A34.524,34.524,0,0,1,57.776,16Z" transform="translate(-15 -15)" fill="#8ac9fe" fill-rule="evenodd"/>
          <path id="Trazado_900206" data-name="Trazado 900206" d="M15.007,50.235Q15,49.876,15,49.516A34.54,34.54,0,0,1,57.776,16v1.438a34.54,34.54,0,0,0-42.769,32.8Zm5.961,0A28.563,28.563,0,0,0,35.4,74.34l2.011,7.506q-.215-.081-.429-.164l-1.582-5.9a28.559,28.559,0,0,1-14.44-24.824Q20.959,50.593,20.968,50.235Z" transform="translate(-15 -15)" fill="#60b7ff" fill-rule="evenodd"/>
          <path id="Trazado_900207" data-name="Trazado 900207" d="M364.137,41.229a34.525,34.525,0,0,1,14.938,46.652l-4.465-4.465a28.568,28.568,0,0,0-10.473-35.3Z" transform="translate(-313.925 -37.457)" fill="#6cf5c2" fill-rule="evenodd"/>
          <path id="Trazado_900208" data-name="Trazado 900208" d="M364.137,42.009v-.78a34.525,34.525,0,0,1,14.938,46.652l-.958-.958a34.527,34.527,0,0,0-13.98-44.914Z" transform="translate(-313.925 -37.457)" fill="#00e499" fill-rule="evenodd"/>
          <path id="Trazado_900209" data-name="Trazado 900209" d="M257.777,392.866a34.426,34.426,0,0,1-25.329,11.078q-1.079,0-2.142-.066l-1.646-6.143a28.584,28.584,0,0,0,24.9-9.086Z" transform="translate(-197.932 -334.912)" fill="#ffe177" fill-rule="evenodd"/>
          <path id="Trazado_900210" data-name="Trazado 900210" d="M257.106,413.3l.672.672a34.426,34.426,0,0,1-25.329,11.078q-1.079,0-2.142-.066l-1.646-6.143.087.011,1.336,4.985q1.063.065,2.142.066A34.417,34.417,0,0,0,257.106,413.3Z" transform="translate(-197.932 -356.017)" fill="#ffd064" fill-rule="evenodd"/>
        </g>
      </g>
      <path id="Trazado_900211" data-name="Trazado 900211" d="M37.077,53.8a69.345,69.345,0,0,1-5.62-7.347c-2.128-3.315-3.584-6.705-3.584-9.839a14.794,14.794,0,0,1,29.588,0c0,3.133-1.456,6.524-3.584,9.839a69.322,69.322,0,0,1-5.62,7.347,19.474,19.474,0,0,1,7.566,2.192,3.087,3.087,0,0,1,1.637,2.494c0,.957-.667,1.989-2.125,2.786-2.38,1.3-7.166,2.236-12.669,2.236S32.378,62.574,30,61.274c-1.458-.8-2.125-1.829-2.125-2.786a3.086,3.086,0,0,1,1.637-2.494A19.475,19.475,0,0,1,37.077,53.8Zm9.344,2.119c-1.034,1.181-2.016,2.293-2.876,3.31a1.15,1.15,0,0,1-1.756,0c-.86-1.018-1.842-2.129-2.875-3.31a23.313,23.313,0,0,0-7.461,1.621,4.6,4.6,0,0,0-.97.585c-.155.129-.311.217-.311.361s.147.222.292.346a5.729,5.729,0,0,0,1.611.867,31.761,31.761,0,0,0,10.591,1.511A31.761,31.761,0,0,0,53.258,59.7a5.728,5.728,0,0,0,1.611-.867c.146-.124.292-.208.292-.346s-.155-.232-.311-.361a4.6,4.6,0,0,0-.97-.586,23.317,23.317,0,0,0-7.46-1.621Zm-3.754.8c2.834-3.268,6.6-7.335,9.276-11.509,1.866-2.906,3.219-5.85,3.219-8.6a12.495,12.495,0,0,0-24.99,0c0,2.747,1.354,5.691,3.22,8.6,2.68,4.174,6.442,8.242,9.275,11.51Zm0-10.5a9.608,9.608,0,1,1,9.609-9.609A9.626,9.626,0,0,1,42.666,46.226Zm0-2.3a7.309,7.309,0,1,0-7.308-7.31A7.325,7.325,0,0,0,42.666,43.927Zm-1.15-12.744v-.29a1.151,1.151,0,1,1,2.3,0v.277a3.813,3.813,0,0,1,2.575,2.254,1.151,1.151,0,0,1-2.122.89,1.757,1.757,0,0,0-2.311-.857,1.017,1.017,0,0,0-.743.974v0a.823.823,0,0,0,.552.7,3.972,3.972,0,0,0,1.092.313h0c1.723.284,3.585,1.1,3.832,3.149.235,1.944-1.244,3.121-2.877,3.49v.255a1.151,1.151,0,1,1-2.3,0V42.07a3.779,3.779,0,0,1-2.867-2.74,1.151,1.151,0,0,1,2.233-.556,1.734,1.734,0,0,0,1.874,1.137h0a2.762,2.762,0,0,0,1.128-.256.766.766,0,0,0,.524-.783h0a1.047,1.047,0,0,0-.71-.822,4.867,4.867,0,0,0-1.209-.331c-1.7-.276-3.477-1.163-3.572-3.175a3.246,3.246,0,0,1,2.2-3.227,4.06,4.06,0,0,1,.4-.133Zm9.077-14.757A27.41,27.41,0,0,0,29.12,66.491a1.15,1.15,0,0,1,.541.7L31.672,74.7a1.151,1.151,0,0,1-1.515,1.375A35.674,35.674,0,0,1,51.2,8.03a1.15,1.15,0,0,1,.876,1.117v6.177a1.15,1.15,0,0,1-1.483,1.1Zm-.818-2.609V10.061a33.371,33.371,0,0,0-20.93,62.978l-1.284-4.792a29.713,29.713,0,0,1,22.215-54.43ZM58.886,10.9A35.676,35.676,0,0,1,74.321,59.106a1.151,1.151,0,0,1-1.834.282l-4.466-4.465a1.15,1.15,0,0,1-.24-1.275A27.417,27.417,0,0,0,57.729,19.772a1.15,1.15,0,0,1-.517-.96V11.923A1.151,1.151,0,0,1,58.886,10.9Zm.626,2.967V18.2A29.72,29.72,0,0,1,70.2,53.843l2.781,2.781A33.378,33.378,0,0,0,59.513,13.866Zm9.327,53.02A35.573,35.573,0,0,1,42.666,78.333q-1.114,0-2.212-.068a1.151,1.151,0,0,1-1.041-.851l-1.646-6.143a1.151,1.151,0,0,1,1.263-1.438,27.634,27.634,0,0,0,3.637.239,27.339,27.339,0,0,0,20.262-8.96,1.15,1.15,0,0,1,1.664-.039l4.217,4.217A1.151,1.151,0,0,1,68.84,66.886Zm-2.453-.764L63.8,63.536a29.617,29.617,0,0,1-21.134,8.838q-1.132,0-2.244-.084l1,3.719q.621.023,1.248.023A33.264,33.264,0,0,0,66.386,66.122Z" fill-rule="evenodd"/>
    </g>
  </g>
</svg>
