<svg xmlns="http://www.w3.org/2000/svg" width="89" height="89" viewBox="0 0 89 89">
  <g id="Grupo_1112360" data-name="Grupo 1112360" transform="translate(-345.089 -736.31)">
    <rect id="Rectángulo_400898" data-name="Rectángulo 400898" width="89" height="89" rx="44.5" transform="translate(345.089 736.31)" fill="#769671"/>
    <g id="Grupo_1112255" data-name="Grupo 1112255" transform="translate(357.576 749.017)">
      <g id="Grupo_1112253" data-name="Grupo 1112253">
        <g id="Grupo_1112236" data-name="Grupo 1112236">
          <circle id="Elipse_12135" data-name="Elipse 12135" cx="13" cy="13" r="13" transform="translate(19 19)" fill="#e6e9ed"/>
        </g>
        <g id="Grupo_1112237" data-name="Grupo 1112237">
          <path id="Trazado_900299" data-name="Trazado 900299" d="M37.23,30.16,36,32V30.24a2,2,0,0,0-1.11-1.79L32,27l-2.89,1.45A2,2,0,0,0,28,30.24V32l-1.23-1.84A4.609,4.609,0,0,1,30.61,23h2.78A4.6,4.6,0,0,1,38,27.61,4.653,4.653,0,0,1,37.23,30.16Z" fill="#656d78"/>
        </g>
        <g id="Grupo_1112238" data-name="Grupo 1112238">
          <path id="Trazado_900300" data-name="Trazado 900300" d="M27.39,37.46,32,45a12.933,12.933,0,0,1-7.83-2.63A8.025,8.025,0,0,1,27.39,37.46Z" fill="#b4dd7f"/>
        </g>
        <g id="Grupo_1112239" data-name="Grupo 1112239">
          <path id="Trazado_900301" data-name="Trazado 900301" d="M37.08,37.82a8.007,8.007,0,0,1,2.75,4.55A12.933,12.933,0,0,1,32,45l4.61-7.54A5.325,5.325,0,0,1,37.08,37.82Z" fill="#b4dd7f"/>
        </g>
        <g id="Grupo_1112240" data-name="Grupo 1112240">
          <path id="Trazado_900302" data-name="Trazado 900302" d="M36.61,37.46,32,45V36A7.95,7.95,0,0,1,36.61,37.46Z" fill="#ffeaa7"/>
        </g>
        <g id="Grupo_1112241" data-name="Grupo 1112241">
          <path id="Trazado_900303" data-name="Trazado 900303" d="M32,36v9l-4.61-7.54A7.95,7.95,0,0,1,32,36Z" fill="#ffeaa7"/>
        </g>
        <g id="Grupo_1112242" data-name="Grupo 1112242">
          <path id="Trazado_900304" data-name="Trazado 900304" d="M36,30.24V32a4,4,0,1,1-8,0V30.24a2,2,0,0,1,1.11-1.79L32,27l2.89,1.45A2,2,0,0,1,36,30.24Z" fill="#f0d0b4"/>
        </g>
        <g id="Grupo_1112243" data-name="Grupo 1112243">
          <circle id="Elipse_12136" data-name="Elipse 12136" cx="2" cy="2" r="2" transform="translate(30 4)" fill="#ff826e"/>
        </g>
        <g id="Grupo_1112244" data-name="Grupo 1112244">
          <circle id="Elipse_12137" data-name="Elipse 12137" cx="2" cy="2" r="2" transform="translate(4 30)" fill="#ff826e"/>
        </g>
        <g id="Grupo_1112245" data-name="Grupo 1112245">
          <circle id="Elipse_12138" data-name="Elipse 12138" cx="2" cy="2" r="2" transform="translate(30 56)" fill="#ff826e"/>
        </g>
        <g id="Grupo_1112246" data-name="Grupo 1112246">
          <circle id="Elipse_12139" data-name="Elipse 12139" cx="2" cy="2" r="2" transform="translate(56 30)" fill="#ff826e"/>
        </g>
        <g id="Grupo_1112247" data-name="Grupo 1112247">
          <path id="Trazado_900305" data-name="Trazado 900305" d="M4,50H20V62H4Z" fill="#e6e9ed"/>
        </g>
        <g id="Grupo_1112248" data-name="Grupo 1112248">
          <path id="Trazado_900306" data-name="Trazado 900306" d="M20,44l2,6H2l2-6Z" fill="#cf9e76"/>
        </g>
        <g id="Grupo_1112249" data-name="Grupo 1112249">
          <circle id="Elipse_12140" data-name="Elipse 12140" cx="10" cy="10" r="10" transform="translate(42 42)" fill="#fcd770"/>
        </g>
        <g id="Grupo_1112250" data-name="Grupo 1112250">
          <path id="Trazado_900307" data-name="Trazado 900307" d="M61,10H59V20H47V10H45l8-8Z" fill="#cf9e76"/>
        </g>
        <g id="Grupo_1112251" data-name="Grupo 1112251">
          <path id="Trazado_900308" data-name="Trazado 900308" d="M12,2A10,10,0,1,1,2,12,10,10,0,0,1,12,2Z" fill="#e6e9ed"/>
        </g>
        <g id="Grupo_1112252" data-name="Grupo 1112252">
          <path id="Trazado_900309" data-name="Trazado 900309" d="M18,11v2a1,1,0,0,1-1,1H14v3a1,1,0,0,1-1,1H11a1,1,0,0,1-1-1V14H7a1,1,0,0,1-1-1V11a1,1,0,0,1,1-1h3V7a1,1,0,0,1,1-1h2a1,1,0,0,1,1,1v3h3A1,1,0,0,1,18,11Z" fill="#fcd770"/>
        </g>
      </g>
      <g id="Grupo_1112254" data-name="Grupo 1112254">
        <path id="Trazado_900310" data-name="Trazado 900310" d="M53,47.184V45H51v2H49v3a3,3,0,0,0,3,3,1,1,0,0,1,1,1v1H52a1,1,0,0,1-1-1V53H49v1a3,3,0,0,0,2,2.816V59h2V57h2V54a3,3,0,0,0-3-3,1,1,0,0,1-1-1V49h1a1,1,0,0,1,1,1v1h2V50A3,3,0,0,0,53,47.184Z"/>
        <path id="Trazado_900311" data-name="Trazado 900311" d="M52,41A11.01,11.01,0,0,0,41.051,51H38a1,1,0,0,1-1-1V45.061A14.007,14.007,0,0,0,45.949,33h9.235a3,3,0,1,0,0-2H45.949A14.007,14.007,0,0,0,37,18.939V16a1,1,0,0,1,1-1h8v6H60V11h3.414L53,.586,42.586,11H46v2H38a3,3,0,0,0-3,3v2.332a13.857,13.857,0,0,0-2-.281V8.816a3,3,0,1,0-2,0v9.235a13.857,13.857,0,0,0-2,.281V14a3,3,0,0,0-3-3H22.949a11,11,0,1,0,0,2H26a1,1,0,0,1,1,1v4.939A14.007,14.007,0,0,0,18.051,31H8.816a3,3,0,1,0,0,2h9.235A14.009,14.009,0,0,0,27,45.061V52a1,1,0,0,1-1,1H21V51h2.388l-2.667-8H3.279L.612,51H3V63H21V55h5a3,3,0,0,0,3-3V45.668a13.856,13.856,0,0,0,2,.281v9.235a3,3,0,1,0,2,0V45.949a13.857,13.857,0,0,0,2-.281V50a3,3,0,0,0,3,3h3.051A11,11,0,1,0,52,41ZM53,3.414,58.586,9H58V19H48V9h-.586ZM12,21a9,9,0,1,1,9-9A9.01,9.01,0,0,1,12,21ZM4.721,45H19.28l1.333,4H3.388ZM5,51h6V61H5Zm8,10V51h6V61ZM27,27.6A3.609,3.609,0,0,1,30.6,24h2.789a3.587,3.587,0,0,1,3.327,4.974,2.985,2.985,0,0,0-1.379-1.422L32,25.882l-3.342,1.671a2.985,2.985,0,0,0-1.379,1.422A3.6,3.6,0,0,1,27,27.6Zm6,9.483a6.948,6.948,0,0,1,2.228.724L33,41.452ZM29,32V30.236a.994.994,0,0,1,.553-.894L32,28.118l2.447,1.224a.994.994,0,0,1,.553.894V32a3,3,0,1,1-6,0Zm2,9.452-2.228-3.64A6.948,6.948,0,0,1,31,37.088Zm-3.85-2.459,2.966,4.845a11.929,11.929,0,0,1-4.789-1.87,6.935,6.935,0,0,1,1.823-2.975Zm9.7,0a6.935,6.935,0,0,1,1.823,2.975,11.924,11.924,0,0,1-4.789,1.87ZM58,31a1,1,0,1,1-1,1A1,1,0,0,1,58,31ZM32,5a1,1,0,1,1-1,1A1,1,0,0,1,32,5ZM6,33a1,1,0,1,1,1-1A1,1,0,0,1,6,33Zm14-1a12,12,0,1,1,20.337,8.612,9.053,9.053,0,0,0-4.967-4.944,4.963,4.963,0,0,0,1.593-3.312l1.1-1.642A5.605,5.605,0,0,0,33.4,22H30.606a5.605,5.605,0,0,0-4.665,8.714l1.095,1.642a4.965,4.965,0,0,0,1.593,3.312,9.05,9.05,0,0,0-4.967,4.944A11.958,11.958,0,0,1,20,32ZM32,59a1,1,0,1,1,1-1A1,1,0,0,1,32,59Zm20,2a9,9,0,1,1,9-9A9.01,9.01,0,0,1,52,61Z"/>
        <path id="Trazado_900312" data-name="Trazado 900312" d="M15,9V7a2,2,0,0,0-2-2H11A2,2,0,0,0,9,7V9H7a2,2,0,0,0-2,2v2a2,2,0,0,0,2,2H9v2a2,2,0,0,0,2,2h2a2,2,0,0,0,2-2V15h2a2,2,0,0,0,2-2V11a2,2,0,0,0-2-2Zm2,4H13v4H11V13H7V11h4V7h2v4l4,0Z"/>
      </g>
    </g>
  </g>
</svg>
