<svg xmlns="http://www.w3.org/2000/svg" width="89" height="89" viewBox="0 0 89 89">
  <g id="Grupo_1112362" data-name="Grupo 1112362" transform="translate(-1176.467 -736.31)">
    <rect id="Rectángulo_400898" data-name="Rectángulo 400898" width="89" height="89" rx="44.5" transform="translate(1176.467 736.31)" fill="#769671"/>
    <g id="protect-protection-world-global-hands" transform="translate(1189.14 749)">
      <circle id="Elipse_12143" data-name="Elipse 12143" cx="16" cy="16" r="16" transform="translate(20 18)" fill="#57a4ff"/>
      <path id="Trazado_900346" data-name="Trazado 900346" d="M52,34A16,16,0,0,1,36,50a16.523,16.523,0,0,1-2-.12,16,16,0,0,0,0-31.75A14.713,14.713,0,0,1,36,18,16,16,0,0,1,52,34Z" fill="#006df0"/>
      <rect id="Rectángulo_405187" data-name="Rectángulo 405187" width="6" height="12" transform="translate(55 8)" fill="#2488ff"/>
      <path id="Trazado_900347" data-name="Trazado 900347" d="M31.92,9H12a3,3,0,0,1,0-6H45.52a3.976,3.976,0,0,1,2.6.96l3.59,3.08a4,4,0,0,0,2.6.96H55V20H45.07a3.925,3.925,0,0,1-2-.54L32.74,13.5a3.014,3.014,0,0,1-1.1-4.1,2.858,2.858,0,0,1,.28-.4Z" fill="#ffc477"/>
      <path id="Trazado_900348" data-name="Trazado 900348" d="M31.45,12h.47a2.858,2.858,0,0,0-.28.4,3.62,3.62,0,0,1-.19-.4Z" fill="#ffa733"/>
      <path id="Trazado_900349" data-name="Trazado 900349" d="M55,8v3h-.69a4,4,0,0,1-2.6-.96L48.12,6.96A3.976,3.976,0,0,0,45.52,6H12a2.993,2.993,0,0,0-2.12.88,3.3,3.3,0,0,0-.48.62A3,3,0,0,1,12,3H45.52a3.976,3.976,0,0,1,2.6.96l3.59,3.08a4,4,0,0,0,2.6.96Z" fill="#ffa733"/>
      <path id="Trazado_900350" data-name="Trazado 900350" d="M32.08,55H52a3,3,0,0,1,0,6H18.48a3.976,3.976,0,0,1-2.6-.96l-3.59-3.08A4,4,0,0,0,9.69,56H9V44h9.93a3.925,3.925,0,0,1,2,.54L31.26,50.5a3.006,3.006,0,0,1,1.1,4.1A2.858,2.858,0,0,1,32.08,55Z" fill="#ffc477"/>
      <path id="Trazado_900351" data-name="Trazado 900351" d="M55,58a2.982,2.982,0,0,1-2.13,2.87A3.1,3.1,0,0,0,53,60a3,3,0,0,0-3-3H30.08a2.858,2.858,0,0,0,.28-.4,3.006,3.006,0,0,0-1.1-4.1L18.93,46.54a3.925,3.925,0,0,0-2-.54H9V44h9.93a3.925,3.925,0,0,1,2,.54L31.26,50.5a3.006,3.006,0,0,1,1.1,4.1,2.858,2.858,0,0,1-.28.4H52A3,3,0,0,1,55,58Z" fill="#ffa733"/>
      <path id="Trazado_900352" data-name="Trazado 900352" d="M44,46v1.85a15.873,15.873,0,0,1-6,2.03A16.525,16.525,0,0,1,36,50V46a2.006,2.006,0,0,0-2-2H32a2.006,2.006,0,0,1-2-2V36a2.006,2.006,0,0,1-2-2V32a2.015,2.015,0,0,1,2-2,2.006,2.006,0,0,0,2-2V26a2.015,2.015,0,0,0-2-2,2.006,2.006,0,0,1-2-2V20.16a15.7,15.7,0,0,1,6-2.03A14.712,14.712,0,0,1,36,18v6a2.006,2.006,0,0,0,2,2h2a2.006,2.006,0,0,1,2,2v2a2.006,2.006,0,0,1-2,2H36a2.006,2.006,0,0,0-2,2v4a2.006,2.006,0,0,0,2,2h2a2.006,2.006,0,0,1,2,2,2.015,2.015,0,0,0,2,2,2.015,2.015,0,0,1,2,2Z" fill="#b2fa09"/>
      <rect id="Rectángulo_405188" data-name="Rectángulo 405188" width="6" height="12" transform="translate(3 44)" fill="#2488ff"/>
      <path id="Trazado_900353" data-name="Trazado 900353" d="M61,7H54.31a3.029,3.029,0,0,1-1.95-.72L48.77,3.2A5.017,5.017,0,0,0,45.52,2H12a4,4,0,0,0,0,8H30.34a4.112,4.112,0,0,0,.04,1.94,3.987,3.987,0,0,0,1.86,2.43l4.61,2.66a16.2,16.2,0,0,0-2.97.11,16.973,16.973,0,0,0-11.4,27.14l-1.05-.61a4.982,4.982,0,0,0-2.5-.67H3a1,1,0,0,0-1,1V56a1,1,0,0,0,1,1H9.69a3.029,3.029,0,0,1,1.95.72l3.59,3.08A5.017,5.017,0,0,0,18.48,62H52a4,4,0,0,0,0-8H33.66a4.112,4.112,0,0,0-.04-1.94,3.976,3.976,0,0,0-.65-1.34c.3.05.6.11.91.15a17.351,17.351,0,0,0,4.24,0A16.987,16.987,0,0,0,46.93,21H61a1,1,0,0,0,1-1V8A1,1,0,0,0,61,7ZM8,55H4V45H8Zm44,1a2,2,0,0,1,0,4H18.48a3.009,3.009,0,0,1-1.95-.72L12.94,56.2A5.051,5.051,0,0,0,10,55.03V45h8.93a3.062,3.062,0,0,1,1.5.4l10.33,5.97a2,2,0,0,1-2,3.46L17.5,48.33l-1,1.73,11.26,6.5A3.989,3.989,0,0,0,32.51,56ZM35,48.97c-.29-.02-.58-.05-.88-.08A14.992,14.992,0,0,1,27,22.02,3,3,0,0,0,30,25a.949.949,0,0,1,.71.31A.928.928,0,0,1,31,26v2a1,1,0,0,1-1,1,3,3,0,0,0-3,3v2a3.014,3.014,0,0,0,2,2.83V42a3.009,3.009,0,0,0,3,3h2a1,1,0,0,1,1,1Zm8-1.7a14.977,14.977,0,0,1-5.12,1.62c-.29.03-.59.06-.88.08V46a3.009,3.009,0,0,0-3-3H32a1,1,0,0,1-1-1V36a1,1,0,0,0-1-1,1,1,0,0,1-1-1V32a.949.949,0,0,1,.31-.71A.928.928,0,0,1,30,31a3.009,3.009,0,0,0,3-3V26a3,3,0,0,0-3-3,1,1,0,0,1-1-1V20.74a14.816,14.816,0,0,1,5.13-1.62q.435-.06.87-.09V24a3.009,3.009,0,0,0,3,3h2a1,1,0,0,1,1,1v2a1,1,0,0,1-1,1H36a3.009,3.009,0,0,0-3,3v4a3.009,3.009,0,0,0,3,3h2a1,1,0,0,1,1,1,3,3,0,0,0,3,3,.949.949,0,0,1,.71.31A.928.928,0,0,1,43,46ZM51,34a15.011,15.011,0,0,1-6,11.99A3,3,0,0,0,42,43a.949.949,0,0,1-.71-.31A.928.928,0,0,1,41,42a3.009,3.009,0,0,0-3-3H36a1,1,0,0,1-1-1V34a1,1,0,0,1,1-1h4a3.009,3.009,0,0,0,3-3V28a3.009,3.009,0,0,0-3-3H38a1,1,0,0,1-1-1V19.03c.3.02.59.05.88.09A15.006,15.006,0,0,1,51,34Zm3-15H45.07a3.062,3.062,0,0,1-1.5-.4L33.24,12.63a2,2,0,1,1,2-3.46l11.26,6.5,1-1.73L36.24,7.44A3.989,3.989,0,0,0,31.49,8H12a2,2,0,0,1,0-4H45.52a3.009,3.009,0,0,1,1.95.72L51.06,7.8A5.051,5.051,0,0,0,54,8.97Zm6,0H56V9h4Z"/>
    </g>
  </g>
</svg>
