<svg xmlns="http://www.w3.org/2000/svg" width="89" height="89.178" viewBox="0 0 89 89.178">
  <g id="Grupo_1112382" data-name="Grupo 1112382" transform="translate(6572 10592)">
    <rect id="Rectángulo_405033" data-name="Rectángulo 405033" width="89" height="89" rx="44.5" transform="translate(-6572 -10591.822)" fill="none"/>
    <rect id="Rectángulo_400898" data-name="Rectángulo 400898" width="89" height="89" rx="44.5" transform="translate(-6572 -10591.822)" fill="#769671"/>
    <rect id="Rectángulo_400907" data-name="Rectángulo 400907" width="89" height="89" rx="44.5" transform="translate(-6572 -10592)" fill="none"/>
    <g id="Grupo_1111660" data-name="Grupo 1111660" transform="translate(-6558.333 -10578.515)">
      <path id="Trazado_896680" data-name="Trazado 896680" d="M318.492,325.511c-4.466-7.422-1.839-2.953-13.335-22.747H303.03a1.476,1.476,0,0,1-1.225-.652h-8.35l-.36.62,11.288,19.436,2.462,4.318h11.083A.646.646,0,0,0,318.492,325.511Z" transform="translate(-257.794 -265.717)" fill="#9b6f43"/>
      <path id="Trazado_896681" data-name="Trazado 896681" d="M295.9,302.112h-2.45l-.36.62,11.288,19.436,2.462,4.318h2.932C305.836,319.466,308.572,324.282,295.9,302.112Z" transform="translate(-257.793 -265.717)" fill="#8e6138"/>
      <path id="Trazado_896682" data-name="Trazado 896682" d="M296.755,245.736l-3.817,6.269.019.031h10.4a1.5,1.5,0,0,1-1.54-1.445v-2.976c0-2.07,0-1.662,0-1.768A3.046,3.046,0,0,0,296.755,245.736Z" transform="translate(-257.657 -214.99)" fill="#ffce9b"/>
      <path id="Trazado_896683" data-name="Trazado 896683" d="M296.14,287.6l-1.559-2.729-1.642,2.7.019.031Z" transform="translate(-257.657 -250.55)" fill="#ffb181"/>
      <path id="Trazado_896684" data-name="Trazado 896684" d="M53.487,279.182h0l-12.606-22.06h0l-2.219-3.883H24.021L21.8,257.122h0l-2.258,3.951C7.919,281.417,10.075,277.629,7.76,281.737A1.182,1.182,0,0,0,8.79,283.5H55.91Z" transform="translate(-6.69 -222.73)" fill="#9b6f43"/>
      <path id="Trazado_896685" data-name="Trazado 896685" d="M10.321,281.737c2.276-4.038.118-.248,11.785-20.664l2.258-3.951h0l2.219-3.883H24.021L21.8,257.122h0l-2.258,3.951C7.919,281.417,10.075,277.629,7.76,281.737A1.182,1.182,0,0,0,8.79,283.5h2.561A1.182,1.182,0,0,1,10.321,281.737Z" transform="translate(-6.69 -222.73)" fill="#8e6138"/>
      <path id="Trazado_896686" data-name="Trazado 896686" d="M347.506,86.813c-5.1,0-8.868,5.483-7.9,11.3a.949.949,0,0,0,.938.788H354.7a.672.672,0,0,0,.662-.542C356.486,92.439,352.659,86.813,347.506,86.813Z" transform="translate(-298.567 -76.349)" fill="#fac149"/>
      <path id="Trazado_896687" data-name="Trazado 896687" d="M342.012,98.109a11.081,11.081,0,0,1-.149-1.814c0-4.755,2.972-8.691,6.849-9.376a6.921,6.921,0,0,0-1.2-.106c-5.1,0-8.868,5.483-7.9,11.3a.949.949,0,0,0,.938.788h2.409A.949.949,0,0,1,342.012,98.109Z" transform="translate(-298.569 -76.349)" fill="#f8a748"/>
      <path id="Trazado_896688" data-name="Trazado 896688" d="M385.955,86.813c-1.849,0-3.189,6.022-2.681,12.084h5.363C389.145,92.834,387.8,86.813,385.955,86.813Z" transform="translate(-337.017 -76.349)" fill="#fc5b6f"/>
      <path id="Trazado_896689" data-name="Trazado 896689" d="M387.159,87.74c-.364-.594-.773-.927-1.2-.927-1.847,0-3.19,6.015-2.681,12.084h2.408C385.311,94.476,385.923,89.754,387.159,87.74Z" transform="translate(-337.017 -76.349)" fill="#f74352"/>
      <path id="Trazado_896690" data-name="Trazado 896690" d="M373.9,252.111h-6.942a1.45,1.45,0,0,1-1.445-1.445v-4.7a1.45,1.45,0,0,1,1.445-1.445H373.9a1.45,1.45,0,0,1,1.445,1.445v4.7A1.449,1.449,0,0,1,373.9,252.111Z" transform="translate(-321.488 -215.064)" fill="#fc5b6f"/>
      <path id="Trazado_896691" data-name="Trazado 896691" d="M367.919,250.665v-4.7a1.45,1.45,0,0,1,1.445-1.445h-2.409a1.45,1.45,0,0,0-1.445,1.445v4.7a1.45,1.45,0,0,0,1.445,1.445h2.409A1.45,1.45,0,0,1,367.919,250.665Z" transform="translate(-321.488 -215.064)" fill="#f74352"/>
      <path id="Trazado_896692" data-name="Trazado 896692" d="M62.428,292.84a3.609,3.609,0,0,1,4.282-3.3.375.375,0,0,0,.362-.132,2.877,2.877,0,0,1,2.805-1,.369.369,0,0,0,.427-.256,4.8,4.8,0,0,1,9.374,1.193v0c.026.335.417.27.417.27h0a3.563,3.563,0,0,1,4.208,3.257,3.566,3.566,0,0,1-3.557,3.814H66.028A3.607,3.607,0,0,1,62.428,292.84Z" transform="translate(-54.903 -250.453)" fill="#77cff2"/>
      <path id="Trazado_896693" data-name="Trazado 896693" d="M64.838,292.841a3.609,3.609,0,0,1,4.282-3.3.375.375,0,0,0,.362-.132,2.877,2.877,0,0,1,2.805-1,.369.369,0,0,0,.427-.256,4.8,4.8,0,0,1,3.38-3.235,4.8,4.8,0,0,0-5.788,3.235.369.369,0,0,1-.427.256,2.877,2.877,0,0,0-2.805,1,.375.375,0,0,1-.362.132,3.609,3.609,0,0,0-4.282,3.3,3.607,3.607,0,0,0,3.6,3.845h2.409A3.608,3.608,0,0,1,64.838,292.841Z" transform="translate(-54.904 -250.454)" fill="#48aef9"/>
      <path id="Trazado_896694" data-name="Trazado 896694" d="M365.51,270.818v2.976a1.449,1.449,0,0,0,1.445,1.445H373.9a1.45,1.45,0,0,0,1.445-1.445v-2.976Z" transform="translate(-321.488 -238.192)" fill="#d8a169"/>
      <path id="Trazado_896695" data-name="Trazado 896695" d="M367.919,273.793v-2.976H365.51v2.976a1.442,1.442,0,0,0,.31.89c.572.727,1.175.555,3.544.555A1.45,1.45,0,0,1,367.919,273.793Z" transform="translate(-321.488 -238.191)" fill="#c88551"/>
      <path id="Trazado_896696" data-name="Trazado 896696" d="M196.46,14.495a3.129,3.129,0,0,0-2.917-2.906c-.741-.045-.9.18-1.1-.064a2.486,2.486,0,0,0-2.424-.864.319.319,0,0,1-.369-.222,4.144,4.144,0,0,0-8.1,1.032v0c-.023.29-.36.233-.36.233h0a3.08,3.08,0,0,0-3.637,2.815,3.082,3.082,0,0,0,3.074,3.3h12.723A3.118,3.118,0,0,0,196.46,14.495Z" transform="translate(-156.161 -6.597)" fill="#a4d9f4"/>
      <g id="Grupo_1111658" data-name="Grupo 1111658" transform="translate(21.383 0.913)">
        <path id="Trazado_896697" data-name="Trazado 896697" d="M210.785,11.455a3.212,3.212,0,0,1,.8.047h0s.349.058.373-.241v0A4.286,4.286,0,0,1,214.5,7.531c-.134-.013-.269-.02-.407-.02a4.144,4.144,0,0,0-4.14,3.96v0a.229.229,0,0,1-.115.2A3.128,3.128,0,0,1,210.785,11.455Z" transform="translate(-205.948 -7.511)" fill="#77cff2"/>
        <path id="Trazado_896698" data-name="Trazado 896698" d="M179.422,44.68a3.2,3.2,0,0,1,1.945-2.714.472.472,0,0,1-.179.01h0a3.08,3.08,0,0,0-3.637,2.815,3.082,3.082,0,0,0,3.074,3.3H182.6A3.186,3.186,0,0,1,179.422,44.68Z" transform="translate(-177.544 -37.779)" fill="#77cff2"/>
      </g>
      <path id="Trazado_896699" data-name="Trazado 896699" d="M156.685,186.062l-4.657-8.149a3.493,3.493,0,0,0-5.917,0l-4.657,8.149Z" transform="translate(-124.418 -155.038)" fill="#ffce9b"/>
      <path id="Trazado_896700" data-name="Trazado 896700" d="M150.351,176.506a3.489,3.489,0,0,0-4.239,1.407l-4.657,8.149h2.561l4.657-8.149A3.19,3.19,0,0,1,150.351,176.506Z" transform="translate(-124.418 -155.038)" fill="#ffb181"/>
      <path id="Trazado_896701" data-name="Trazado 896701" d="M26.435,320.384a3.112,3.112,0,0,0-3.684-2.844.323.323,0,0,1-.311-.114,2.472,2.472,0,0,0-2.413-.861.317.317,0,0,1-.368-.221,4.126,4.126,0,0,0-8.067,1.03c-.023.288-.359.232-.359.232h0a3.068,3.068,0,1,0-.56,6.083H23.338A3.1,3.1,0,0,0,26.435,320.384Z" transform="translate(-6.689 -275.672)" fill="#a4d9f4"/>
      <g id="Grupo_1111659" data-name="Grupo 1111659" transform="translate(0.916 37.758)">
        <path id="Trazado_896702" data-name="Trazado 896702" d="M41.493,317.4h0c.167.028.354-.031.372-.243a4.266,4.266,0,0,1,2.529-3.708c-.133-.013-.268-.02-.4-.02a4.124,4.124,0,0,0-4.122,3.945.228.228,0,0,1-.115.195A3.147,3.147,0,0,1,41.493,317.4Z" transform="translate(-35.88 -313.43)" fill="#77cff2"/>
        <path id="Trazado_896703" data-name="Trazado 896703" d="M9.475,350.434a3.185,3.185,0,0,1,1.936-2.7.467.467,0,0,1-.178.01h0a3.068,3.068,0,1,0-.56,6.083h1.966A3.172,3.172,0,0,1,9.475,350.434Z" transform="translate(-7.605 -343.565)" fill="#77cff2"/>
      </g>
      <path id="Trazado_896704" data-name="Trazado 896704" d="M173.935,12.124h4.271a.9.9,0,0,0,0-1.807h-4.271a2.178,2.178,0,1,1,.652-4.257.9.9,0,0,0,1.173-.889V5.133c0-.025,0-.05,0-.075a3.241,3.241,0,0,1,6.4-.718A.9.9,0,0,0,183.327,5a1.584,1.584,0,0,1,1.8.6.9.9,0,0,0,.969.36,2.215,2.215,0,1,1,.558,4.358h-4.236a.9.9,0,0,0,0,1.807h4.236a4.021,4.021,0,1,0-.43-8.019,3.39,3.39,0,0,0-2.568-.992,5.05,5.05,0,0,0-9.628,1.042h-.1a3.985,3.985,0,1,0,0,7.97Z" transform="translate(-149.481)"/>
      <path id="Trazado_896705" data-name="Trazado 896705" d="M61.447,129.085c-4.185-7.069-3-5.037-5.627-9.633a.9.9,0,0,0-1.568.9c2.862,5.009,1.3,2.331,5.411,9.269H49.738c-2.98-5.31-.256-.517-12.484-21.916h9.771l5.135,8.986a.9.9,0,1,0,1.568-.9l-4.623-8.09H52.4a2.351,2.351,0,0,0,2.349-2.349v-4.7a2.338,2.338,0,0,0-.642-1.608c.114-.179,0,.193,1.522-5.843h.5a1.575,1.575,0,0,0,1.55-1.277,12.013,12.013,0,0,0,.209-2.229c0-5.726-4.018-10.385-8.956-10.385h0c-5.621,0-9.856,5.957-8.795,12.348A1.845,1.845,0,0,0,41.962,93.2h.311c1.525,6.05,1.408,5.623,1.476,5.76a3.777,3.777,0,0,0-4.466.139l-.017.013c-.037.03-.073.062-.109.094l-.048.045c-.03.029-.061.057-.09.087a3.5,3.5,0,0,0-.54.709h0l-2.8,4.9-7.3-12.768a4.392,4.392,0,0,0-7.485,0L12.16,107.469c-.047.034-.093.07-.138.106a5.063,5.063,0,0,0-7.939,3.189,3.985,3.985,0,1,0-.1,7.969H5.724c-4.418,7.732-3.3,5.756-5.451,9.581a2.085,2.085,0,0,0,1.817,3.11H60.114A1.551,1.551,0,0,0,61.447,129.085ZM52.94,105.352a.549.549,0,0,1-.542.542H45.456a.549.549,0,0,1-.542-.542V103.28H52.94Zm0-3.879H44.914c0-.945,0-.746,0-.834a.549.549,0,0,1,.54-.527H52.4a.549.549,0,0,1,.542.542ZM47.984,93.2h1.931l-.327,5.1H48.311Zm4.492,5.107c-.145,0,.245,0-1.077,0l.327-5.1h2.038ZM55.934,91.4H52.573c.154-2.944-.077-7.043-1.189-9.756C54.605,83.06,56.656,87.131,55.934,91.4ZM48.927,81.121c.7.229,2.178,4.137,1.839,10.275H47.088C46.749,85.247,48.235,81.348,48.927,81.121Zm-3.5,17.187L44.136,93.2h2.038l.327,5.1C45.034,98.306,45.569,98.306,45.423,98.308ZM41.961,91.4a.047.047,0,0,1-.047-.033c-.7-4.253,1.342-8.308,4.555-9.723-1.116,2.723-1.343,6.806-1.189,9.756h-3.32Zm-1.593,9.154a1.9,1.9,0,0,1,2.736.3l0,0c0,4.8-.032,4.64.063,5.042H37.218C40.294,100.512,40.1,100.79,40.369,100.55Zm-17.9-7.476a2.59,2.59,0,0,1,4.348,0l3.885,6.8H18.582ZM14.737,106.6q-.031.074-.06.148l-.023,0Zm.08,1.992a1.093,1.093,0,0,0,.926-.017.9.9,0,0,0,.438-.588,3.892,3.892,0,0,1,7.688.862c0,.032,0,.064,0,.1v.037a.9.9,0,0,0,1.173.892,2.663,2.663,0,1,1,.8,5.2H20.714a4.025,4.025,0,0,0-4.434-4.365,3.39,3.39,0,0,0-2.568-.992,5.037,5.037,0,0,0-.439-.832A2,2,0,0,1,14.817,108.594Zm-10.83,8.332a2.179,2.179,0,1,1,.653-4.257.9.9,0,0,0,1.173-.892,3.24,3.24,0,0,1,6.243-1.322c.193.476.134.7.439.971a1.016,1.016,0,0,0,1.051.135,1.581,1.581,0,0,1,1.638.647.9.9,0,0,0,.428.332c.4.15.554-.043,1.1-.043a2.214,2.214,0,0,1,0,4.429Zm36.106,12.691-7.516-13.228a.9.9,0,0,0-1.571.893l7.009,12.335c-37.977,0-36.047.068-36.167-.138-.106-.181-.489.533,5.956-10.746H16.71a4.036,4.036,0,0,0,3.382-1.848h5.743a4.469,4.469,0,1,0-.23-8.932A5.715,5.715,0,0,0,15.4,105.445l2.152-3.766H31.732l9.383,16.42c5.62,9.835,4.458,7.788,6.551,11.518Z" transform="translate(0 -69.751)"/>
    </g>
  </g>
</svg>
