<svg xmlns="http://www.w3.org/2000/svg" width="156.616" height="156.616" viewBox="0 0 156.616 156.616">
  <g id="filled_outline" data-name="filled outline" transform="translate(-20.363 -19.879)">
    <path id="Trazado_896706" data-name="Trazado 896706" d="M104.363,207.879H148.7a2.647,2.647,0,0,1,2.647,2.647v52.168H104.363V207.879Z" transform="translate(-56.592 -126.659)" fill="#00b377"/>
    <path id="Trazado_896707" data-name="Trazado 896707" d="M42.612,439.45a.979.979,0,0,1-1.821.509l-3.38-5.638-1.5,7.077a4.132,4.132,0,0,1-5.9,2.832l-3.384-1.706a4.137,4.137,0,0,1-2.268-3.687V423.88H42.534Z" transform="translate(-2.693 -272.182)" fill="#ffb3d0"/>
    <path id="Trazado_896708" data-name="Trazado 896708" d="M55.419,207.879l-4.062,12.2a172.527,172.527,0,0,0-8.836,55.406l.016,2.871H24.363V274.31a172.523,172.523,0,0,1,10.053-58.035l.446-1.251A10.767,10.767,0,0,1,45,207.879Z" transform="translate(-2.695 -126.659)" fill="#00b377"/>
    <path id="Trazado_896709" data-name="Trazado 896709" d="M160.424,182.058h6.606v11.561h-6.606Z" transform="translate(-94.362 -109.263)" fill="#ffb3d0"/>
    <path id="Trazado_896710" data-name="Trazado 896710" d="M160.424,143.583h9.767v11.581a3.643,3.643,0,0,1-3.643,3.643,6.123,6.123,0,0,1-6.123-6.123v-9.1Z" transform="translate(-94.362 -83.342)" fill="#ffb3d0"/>
    <path id="Trazado_896711" data-name="Trazado 896711" d="M191.928,284.88l-.81-6.475a20.608,20.608,0,0,0,18.024-20.417V239.879h6.526v18.109A27.144,27.144,0,0,1,191.928,284.88Z" transform="translate(-115.041 -148.218)" fill="#e86d3c"/>
    <path id="Trazado_896712" data-name="Trazado 896712" d="M156.4,132.16l-1.664-.009a7.651,7.651,0,0,0-6.684,11.448l3.005,5.257a4.1,4.1,0,0,0,4.095-4.095V142.4l3.432-1.975a4.426,4.426,0,0,0,2.219-3.836v0a4.426,4.426,0,0,0-4.4-4.427Z" transform="translate(-85.344 -75.639)" fill="#2e65b8"/>
    <path id="Trazado_896713" data-name="Trazado 896713" d="M330.891,185.255a2.2,2.2,0,0,1,1.687,2.222l-.653,17.841-16.712-.6.473-16.529a1.181,1.181,0,0,1,2.225-.516l2.839,5.423.894-7.531a2.2,2.2,0,0,1,2.7-1.883Z" transform="translate(-198.646 -110.319)" fill="#ffb3d0"/>
    <path id="Trazado_896714" data-name="Trazado 896714" d="M265.13,221.672l-.989,27A16.333,16.333,0,0,1,232.9,254.8l-16.086-35.212a8.257,8.257,0,1,1,15.022-6.862l15.824,34.645.754-26.3Z" transform="translate(-131.85 -126.673)" fill="#00b377"/>
    <path id="Trazado_896715" data-name="Trazado 896715" d="M106.447,415.072a104.363,104.363,0,0,0-.159-11.818l-1.925-27.375h23.492l3.24,24.412a104.216,104.216,0,0,1,.9,14.781Z" transform="translate(-56.592 -239.843)" fill="#2e65b8"/>
    <path id="Trazado_896716" data-name="Trazado 896716" d="M186.41,411.03a126.114,126.114,0,0,0-2.725-12.4l-7.322-28.755,23.374.039,7.362,27a125.924,125.924,0,0,1,3.21,14.109Z" transform="translate(-105.1 -235.801)" fill="#2e65b8"/>
    <path id="Trazado_896717" data-name="Trazado 896717" d="M384.363,23.879h5.221V177.884h-5.221Z" transform="translate(-245.233 -2.695)" fill="#f07f35"/>
    <path id="Trazado_896718" data-name="Trazado 896718" d="M343.009,63.541H290.8L280.363,55.71,290.8,47.879h52.205Z" transform="translate(-175.167 -18.864)" fill="#ffa54f"/>
    <path id="Trazado_896719" data-name="Trazado 896719" d="M304.363,135.541h52.205l10.441-7.831-10.441-7.831H304.363Z" transform="translate(-191.336 -67.372)" fill="#ffa54f"/>
    <path id="Trazado_896720" data-name="Trazado 896720" d="M151.391,118.748a8.694,8.694,0,0,0-8.674,8.288v2.676h17.347v-2.676A8.694,8.694,0,0,0,151.391,118.748Z" transform="translate(-82.432 -66.61)" fill="#00b377"/>
    <path id="Trazado_896721" data-name="Trazado 896721" d="M115.827,238.529V286.61H78.393V238.529h37.434Z" transform="translate(-39.096 -147.308)" fill="#ffa54f"/>
    <path id="Trazado_896722" data-name="Trazado 896722" d="M115.827,183.429v17.978H78.393V188.829a5.4,5.4,0,0,1,5.4-5.4Z" transform="translate(-39.096 -110.186)" fill="#f07f35"/>
    <path id="Trazado_896723" data-name="Trazado 896723" d="M86.632,310.588H51.4l.115-29.887a6.606,6.606,0,0,1,6.607-6.581h22.02a6.606,6.606,0,0,1,6.606,6.631Z" transform="translate(-20.91 -171.286)" fill="#f07f35"/>
    <path id="Trazado_896724" data-name="Trazado 896724" d="M69.077,295.5H88.961a2.61,2.61,0,0,1,2.61,2.61v26.883h-25.1V298.11A2.61,2.61,0,0,1,69.077,295.5Z" transform="translate(-31.061 -185.691)" fill="#ffa54f"/>
    <path id="Trazado_896725" data-name="Trazado 896725" d="M179.482,183.427a6.606,6.606,0,0,1,6.606,6.606v59.454H172.876V190.033A6.606,6.606,0,0,1,179.482,183.427Z" transform="translate(-102.751 -110.185)" fill="#e86d3c"/>
    <path id="Trazado_896726" data-name="Trazado 896726" d="M48.808,385.889H92.324v17.616H48.808a8.808,8.808,0,1,1,0-17.616Z" transform="translate(-13.23 -246.587)" fill="#e86d3c"/>
    <circle id="Elipse_12093" data-name="Elipse 12093" cx="8.5" cy="8.5" r="8.5" transform="translate(72.03 139.879)" fill="#ffa54f"/>
    <circle id="Elipse_12094" data-name="Elipse 12094" cx="3.133" cy="3.133" r="3.133" transform="translate(66.763 63.79)" fill="#ffb3d0"/>
    <path id="Trazado_896727" data-name="Trazado 896727" d="M132.551,138.335,126,136.765a3.509,3.509,0,0,0-4.3,3l-.4,3.344-.883-1.687a2.486,2.486,0,0,0-4.686,1.083l-1.067,37.219-13.494-29.542a9.553,9.553,0,0,0-8.842-5.588h-7.69v-.078a7.91,7.91,0,0,0-7.532-7.9c.012-.15.022-.3.022-.453V129.9h8.074a1.305,1.305,0,0,0,0-2.61H78.235v-2.147a9.278,9.278,0,1,0-18.555,0v2.146H52.523a1.305,1.305,0,1,0,0,2.61h7.285a17.211,17.211,0,0,0,.943,3.217q.009.023.019.046l1.475,3.442H44.7a6.714,6.714,0,0,0-6.708,6.705v2.076a12.093,12.093,0,0,0-7.053,7.208l-.447,1.252a173.354,173.354,0,0,0-10.129,58.473v19a5.416,5.416,0,0,0,2.985,4.852l3.383,1.706a5.437,5.437,0,0,0,7.767-3.726l.81-3.827,1.672,2.789a2.284,2.284,0,0,0,4.244-1.188l-.045-9.038h6.842l.371,5.28a103.381,103.381,0,0,1,.158,11.631,1.305,1.305,0,0,0,1.248,1.36h.057a1.305,1.305,0,0,0,1.3-1.249A106,106,0,0,0,51,227.986l-.359-5.1H72.89l.319,2.4a103.27,103.27,0,0,1,.889,14.556,1.305,1.305,0,0,0,1.292,1.318H75.4a1.305,1.305,0,0,0,1.305-1.292,105.927,105.927,0,0,0-.912-14.926l-.273-2.053h.451l1.353,4.954c1.1,4.013,2,8.128,2.691,12.229a1.305,1.305,0,0,0,2.574-.433c-.7-4.187-1.628-8.385-2.747-12.484l-1.165-4.266h2.048a10.113,10.113,0,0,0,3.915-19.437v-2.879a28.185,28.185,0,0,0,2.952-1.462,27.384,27.384,0,0,0,5.855-4.532v3.186H91.857a1.305,1.305,0,1,0,0,2.61h1.9l6.988,25.773a125.172,125.172,0,0,1,3.171,13.924,1.305,1.305,0,1,0,2.574-.433,127.688,127.688,0,0,0-3.232-14.193L96.06,198.9v-7.347q.53-.705,1.021-1.445l.774-1.168,2.011,4.4a17.946,17.946,0,0,0,5.754,7.084,17.2,17.2,0,0,0,10.147,3.266,18.561,18.561,0,0,0,3.575-.351A17.4,17.4,0,0,0,133.6,186.713l1.641-44.837a3.515,3.515,0,0,0-2.685-3.541ZM62.29,125.144a6.667,6.667,0,0,1,13.335,0v2.146H62.29Zm8.35,8.968a1.305,1.305,0,0,0-1.052-.567,1.832,1.832,0,0,1-1.577-2.7,1.876,1.876,0,0,1,1.638-.949h4.874v6.261a2.328,2.328,0,0,1-.047.444H70.181a14.35,14.35,0,0,0,.608-1.307,1.305,1.305,0,0,0-.149-1.185Zm-2.933,1.6c-.163.321-.314.625-.437.89H65.084l-1.906-4.447a16.394,16.394,0,0,1-.714-2.258h3.117A4.412,4.412,0,0,0,67.707,135.715Zm-27.1,7.6a4.1,4.1,0,0,1,4.1-4.095H70.863a7.876,7.876,0,0,0-2.044,5.3v10.068h-8v-3.461a1.305,1.305,0,1,0-2.61,0v3.461H49.479v-3.461a1.305,1.305,0,1,0-2.61,0v3.461H40.6Zm0,13.882h6.267v3.126a1.305,1.305,0,1,0,2.61,0v-3.126h8.731v3.126a1.305,1.305,0,0,0,2.61,0v-3.126h8v45.472H67.031l.109-28.527a7.912,7.912,0,0,0-7.911-7.941H40.6ZM59.23,168.806a5.3,5.3,0,0,1,5.3,5.321l-.109,28.537H61.816V174.477a1.305,1.305,0,0,0-1.305-1.305h-25.1a1.305,1.305,0,0,0-1.305,1.305V202.7a10.084,10.084,0,0,0-2.3.448l.107-29.059a5.311,5.311,0,0,1,5.3-5.284ZM42.536,189.893a1.305,1.305,0,0,0,1.305-1.305v-1.814h6.692v1.814a1.305,1.305,0,0,0,2.61,0v-1.814h6.061v15.89H36.711v-15.89h4.52v1.814a1.305,1.305,0,0,0,1.305,1.305Zm10.608-5.73v-2.557a1.305,1.305,0,1,0-2.61,0v2.557H43.841v-2.557a1.305,1.305,0,1,0-2.61,0v2.557h-4.52v-8.381H59.205v8.383ZM22.973,212.319a170.741,170.741,0,0,1,9.977-57.594l.447-1.253a9.48,9.48,0,0,1,4.595-5.234V166.2h-.781a7.926,7.926,0,0,0-7.912,7.881l-.111,30.35a10.113,10.113,0,0,0-4.144,10.633h-2.07Zm12.866,13.816a1.305,1.305,0,0,0-2.4.4l-1.5,7.077a2.827,2.827,0,0,1-4.038,1.937l-3.381-1.706a2.816,2.816,0,0,1-1.553-2.522V217.67h3.073a10.118,10.118,0,0,0,8.846,5.221H38.57l.04,7.865Zm-.946-5.854a7.5,7.5,0,1,1,0-15.007l39.061,0a10.1,10.1,0,0,0,0,15.006Zm53.337-7.5a7.511,7.511,0,0,1-7.5,7.5c-.16,0-.317-.007-.475-.017l-.029,0a7.5,7.5,0,0,1-.007-14.968c.017,0,.357-.019.511-.019a7.511,7.511,0,0,1,7.5,7.5Zm6.675-24.112a25.854,25.854,0,0,1-8.607,8.182,25.6,25.6,0,0,1-6.409,2.592,1.305,1.305,0,1,0,.643,2.53c.5-.128,1-.274,1.5-.43v1.213a10.155,10.155,0,0,0-1.305-.087h-9.3V144.515a5.3,5.3,0,1,1,10.6,0v47.34a21.661,21.661,0,0,1-6.117,1.707,1.305,1.305,0,0,0,.161,2.6,1.322,1.322,0,0,0,.163-.01,24.285,24.285,0,0,0,13.095-5.918,20.762,20.762,0,0,0,5.532-7.834l1.709,3.742Zm36.082-2.056a15.135,15.135,0,0,1-23.837,11.7,15.33,15.33,0,0,1-4.911-6.054l-6.179-13.527v-9.346a1.305,1.305,0,0,0-2.61,0V177.6a18.457,18.457,0,0,1-8.806,12.871V147.2h7.713a6.965,6.965,0,0,1,6.445,4.063l15.825,34.645a1.305,1.305,0,0,0,2.492-.505l.716-24.983,14.093.5Zm1.036-28.295-14.114-.5.424-14.759,2.616,5a1.305,1.305,0,0,0,2.452-.452l.894-7.529a.893.893,0,0,1,.38-.633.883.883,0,0,1,.718-.136l6.548,1.57a.887.887,0,0,1,.685.9Z" transform="translate(0 -64.668)"/>
    <path id="Trazado_896728" data-name="Trazado 896728" d="M348.928,59.294l-10.441-7.831a1.3,1.3,0,0,0-.783-.261H318.127V45.982h22.187a1.305,1.305,0,0,0,1.305-1.305V29.015a1.305,1.305,0,0,0-1.305-1.305H318.127V21.184a1.305,1.305,0,0,0-1.305-1.305H311.6a1.305,1.305,0,0,0-1.305,1.305V27.71H288.109a1.3,1.3,0,0,0-.783.261L276.885,35.8a1.305,1.305,0,0,0,0,2.088l10.441,7.831a1.3,1.3,0,0,0,.783.261H310.3V51.2H285.5a1.305,1.305,0,0,0-1.305,1.305V68.169a1.305,1.305,0,0,0,1.305,1.305h24.8V175.19a1.305,1.305,0,0,0,2.61,0V69.474h2.61V175.19a1.305,1.305,0,1,0,2.61,0V69.474H337.7a1.3,1.3,0,0,0,.783-.261l10.441-7.831a1.305,1.305,0,0,0,0-2.088Zm-36.022-36.8h2.61V27.71h-2.61ZM279.843,36.846l8.7-6.526h50.465V43.371H288.545Zm33.063,9.136h2.61V51.2h-2.61Zm24.363,20.882H286.8V53.812h50.465l8.7,6.526Z" transform="translate(-172.472)"/>
  </g>
</svg>
