<svg xmlns="http://www.w3.org/2000/svg" width="82.903" height="73.709" viewBox="0 0 82.903 73.709">
  <g id="Grupo_1111677" data-name="Grupo 1111677" transform="translate(0 -28.39)">
    <g id="Grupo_1111675" data-name="Grupo 1111675" transform="translate(1.214 29.605)">
      <g id="Grupo_1111674" data-name="Grupo 1111674" transform="translate(0 0)">
        <g id="Grupo_1111661" data-name="Grupo 1111661" transform="translate(15.802 40.328)">
          <path id="Trazado_896729" data-name="Trazado 896729" d="M129.528,284.954l8.286,8.252a.486.486,0,0,1-.343.83h-7.764a4.888,4.888,0,0,0-3.4,1.372l-21.223,20.5H122.4l9.138-12.846a4.887,4.887,0,0,1,3.982-2.054H148.2a2.429,2.429,0,0,0,1.579-4.275L136,284.954h-6.476Z" transform="translate(-105.089 -284.954)" fill="#a2e62e"/>
        </g>
        <g id="Grupo_1111662" data-name="Grupo 1111662" transform="translate(10.142 47.986)">
          <path id="Trazado_896730" data-name="Trazado 896730" d="M70.135,332.247h5.539v19.222H70.135Z" transform="translate(-70.135 -332.247)" fill="#7a6d79"/>
          <path id="Trazado_896731" data-name="Trazado 896731" d="M127.134,332.247h5.539v19.222h-5.539Z" transform="translate(-117.905 -332.247)" fill="#7a6d79"/>
          <path id="Trazado_896732" data-name="Trazado 896732" d="M127.134,332.247h5.539v19.222h-5.539Z" transform="translate(-117.905 -332.247)" fill="#7a6d79"/>
        </g>
        <path id="Trazado_896733" data-name="Trazado 896733" d="M148,332.247h2.16v19.222H148Z" transform="translate(-125.25 -284.261)" fill="#685e68"/>
        <path id="Trazado_896734" data-name="Trazado 896734" d="M91,332.247h2.16v19.222H91Z" transform="translate(-77.48 -284.261)" fill="#685e68"/>
        <path id="Trazado_896735" data-name="Trazado 896735" d="M70.135,450.957h9.229v4.073H70.135Z" transform="translate(-59.993 -383.749)" fill="#f6a96c"/>
        <path id="Trazado_896736" data-name="Trazado 896736" d="M100.4,36.3,78,76.219h46.208L101.81,36.3a.81.81,0,0,0-1.412,0Z" transform="translate(-66.585 -35.891)" fill="#f6a96c"/>
        <g id="Grupo_1111663" data-name="Grupo 1111663" transform="translate(39.679 36.288)">
          <path id="Trazado_896737" data-name="Trazado 896737" d="M268.231,260H252.554l.561,4.041H270.5Z" transform="translate(-252.554 -260)" fill="#ea9b58"/>
        </g>
        <path id="Trazado_896738" data-name="Trazado 896738" d="M100.4,36.309,78,76.224h28.825l-5.6-40.319a.8.8,0,0,0-.825.4Z" transform="translate(-66.585 -35.895)" fill="#ffbd86"/>
        <g id="Grupo_1111664" data-name="Grupo 1111664" transform="translate(11.415 36.288)">
          <path id="Trazado_896739" data-name="Trazado 896739" d="M106.825,264.041,106.264,260h-26L78,264.041Z" transform="translate(-78 -260)" fill="#f6a96c"/>
        </g>
        <path id="Trazado_896740" data-name="Trazado 896740" d="M101.829,135.09c.142,0,.282.007.421.018l.322-.184a3.664,3.664,0,0,0,3.664-3.664v-3.554a4.729,4.729,0,0,0-9.458,0v7.384Z" transform="translate(-82.322 -108.876)" fill="#ffdfcf"/>
        <g id="Grupo_1111665" data-name="Grupo 1111665" transform="translate(19.827 18.83)">
          <path id="Trazado_896741" data-name="Trazado 896741" d="M130.673,152.184V157.4a3.647,3.647,0,0,1-.722,2.185l.1.006.322-.184a3.664,3.664,0,0,0,3.664-3.664v-3.554Z" transform="translate(-129.951 -152.184)" fill="#ffcebf"/>
        </g>
        <path id="Trazado_896742" data-name="Trazado 896742" d="M101.508,122.977a4.729,4.729,0,0,0-4.729,4.729h9.458A4.729,4.729,0,0,0,101.508,122.977Z" transform="translate(-82.323 -108.876)" fill="#22b27f"/>
        <path id="Trazado_896743" data-name="Trazado 896743" d="M117.278,122.977a4.715,4.715,0,0,0-1.682.309,4.73,4.73,0,0,1,3.047,4.42h3.365A4.729,4.729,0,0,0,117.278,122.977Z" transform="translate(-98.093 -108.876)" fill="#09a76d"/>
        <path id="Trazado_896744" data-name="Trazado 896744" d="M84.9,218.862H70.135v-22.1H79.5a5.4,5.4,0,0,1,5.4,5.4v16.7Z" transform="translate(-59.993 -170.714)" fill="#fe646f"/>
        <path id="Trazado_896745" data-name="Trazado 896745" d="M148,293.527h2.16v6.431H148Z" transform="translate(-125.25 -251.811)" fill="#fd4755"/>
        <g id="Grupo_1111669" data-name="Grupo 1111669" transform="translate(0 23.387)">
          <path id="Trazado_896746" data-name="Trazado 896746" d="M42.3,199.017a2.861,2.861,0,0,1-2.857,2.82H30v.324h5.28a2.1,2.1,0,0,1,2.1,2.1v1.1a2.1,2.1,0,0,1-2.1,2.1h-.538v.324a2.638,2.638,0,0,1,2.635,2.635v2.3a2.638,2.638,0,0,1-2.635,2.635H34.69l.053.162h4.291a3.434,3.434,0,0,0,3.434-3.434v-13.1Z" transform="translate(-26.357 -195.958)" fill="#02905d"/>
          <g id="Grupo_1111666" data-name="Grupo 1111666" transform="translate(8.333 3.02)">
            <path id="Trazado_896747" data-name="Trazado 896747" d="M66.579,199.017a2.861,2.861,0,0,1-2.589,2.807v6.857a3.434,3.434,0,0,1-2.338,3.252v.782a2.638,2.638,0,0,1-2.635,2.635h-.053l.053.162h4.291a3.434,3.434,0,0,0,3.434-3.434v-13.1Z" transform="translate(-58.965 -198.978)" fill="#017b4e"/>
          </g>
          <path id="Trazado_896748" data-name="Trazado 896748" d="M22.463,217.634h-5.5a2.259,2.259,0,0,0-2.259,2.259v1.1a2.259,2.259,0,0,0,2.259,2.259h5.5a2.259,2.259,0,0,0,2.259-2.259v-1.1A2.259,2.259,0,0,0,22.463,217.634Z" transform="translate(-13.539 -211.593)" fill="#8bc727"/>
          <path id="Trazado_896749" data-name="Trazado 896749" d="M15.886,260.233H10.3a2.8,2.8,0,0,1-2.8-2.8v-2.3a2.8,2.8,0,0,1,2.8-2.8h5.589a2.8,2.8,0,0,1,2.8,2.8v2.3a2.8,2.8,0,0,1-2.8,2.8Z" transform="translate(-7.5 -240.678)" fill="#22b27f"/>
          <g id="Grupo_1111667" data-name="Grupo 1111667" transform="translate(0 15.917)">
            <path id="Trazado_896750" data-name="Trazado 896750" d="M17.424,278.864H7.5v.6a2.8,2.8,0,0,0,2.8,2.8h5.589a2.8,2.8,0,0,0,2.8-2.8v-.841A3.422,3.422,0,0,1,17.424,278.864Z" transform="translate(-7.5 -278.623)" fill="#09a76d"/>
          </g>
          <path id="Trazado_896751" data-name="Trazado 896751" d="M24.229,180.324H14.862a3.021,3.021,0,0,0,0,6.041h9.367a3.021,3.021,0,0,0,0-6.041Z" transform="translate(-11.138 -180.324)" fill="#22b27f"/>
          <g id="Grupo_1111668" data-name="Grupo 1111668" transform="translate(0.71 0.21)">
            <path id="Trazado_896752" data-name="Trazado 896752" d="M25.363,181.618a3.019,3.019,0,0,1-3.017,2.949H11.883A3.018,3.018,0,0,0,14.9,187.45h9.367a3.019,3.019,0,0,0,1.1-5.832Z" transform="translate(-11.883 -181.618)" fill="#09a76d"/>
          </g>
        </g>
        <path id="Trazado_896753" data-name="Trazado 896753" d="M134.118,450.957h-6.983v4.073h9.229V453.2A2.246,2.246,0,0,0,134.118,450.957Z" transform="translate(-107.764 -383.749)" fill="#f6a96c"/>
        <g id="Grupo_1111670" data-name="Grupo 1111670" transform="translate(22.75 67.208)">
          <path id="Trazado_896754" data-name="Trazado 896754" d="M151.6,450.957H148v4.073h5.851V453.2A2.246,2.246,0,0,0,151.6,450.957Z" transform="translate(-148 -450.957)" fill="#ea9b58"/>
        </g>
        <g id="Grupo_1111671" data-name="Grupo 1111671" transform="translate(13.52 67.208)">
          <path id="Trazado_896755" data-name="Trazado 896755" d="M91,450.957h5.851v4.073H91Z" transform="translate(-91 -450.957)" fill="#ea9b58"/>
        </g>
        <g id="Grupo_1111672" data-name="Grupo 1111672" transform="translate(20.525 29.74)">
          <path id="Trazado_896756" data-name="Trazado 896756" d="M146.85,227.152h-8.207v-5.4a2.193,2.193,0,1,0-4.385,0v7.591a2.193,2.193,0,0,0,2.193,2.193h10.4a2.193,2.193,0,1,0,0-4.385Z" transform="translate(-134.257 -219.561)" fill="#fd4755"/>
          <path id="Trazado_896757" data-name="Trazado 896757" d="M203.411,268.636a2.193,2.193,0,0,0-2.193-2.193H199.13v4.386h2.088A2.193,2.193,0,0,0,203.411,268.636Z" transform="translate(-188.626 -258.852)" fill="#ffdfcf"/>
        </g>
        <path id="Trazado_896758" data-name="Trazado 896758" d="M311.18,115.96l-15.161,27.017h31.733L312.592,115.96A.81.81,0,0,0,311.18,115.96Z" transform="translate(-249.302 -102.649)" fill="#ea9b58"/>
        <path id="Trazado_896759" data-name="Trazado 896759" d="M312.592,115.96a.81.81,0,0,0-1.412,0l-1.886,3.361,9.654,17.2a1.619,1.619,0,0,1-1.412,2.412H298.287l-2.267,4.041h31.733Z" transform="translate(-249.303 -102.649)" fill="#d88a55"/>
        <path id="Trazado_896760" data-name="Trazado 896760" d="M428.962,316.5h-.767a4.859,4.859,0,0,0-4.8,4.1.661.661,0,0,0,.657.757H433.1a.661.661,0,0,0,.657-.757A4.859,4.859,0,0,0,428.962,316.5Z" transform="translate(-356.047 -271.064)" fill="#7a6d79"/>
        <path id="Trazado_896761" data-name="Trazado 896761" d="M350.9,413.137a3.656,3.656,0,0,1,3.08,1.51,3.661,3.661,0,0,1,3.633-3.537,3.736,3.736,0,0,1,3.686,3.741v1.376a3.647,3.647,0,0,1,2.439-.91,3.714,3.714,0,0,1,3.637,3.743v2.575h-20.02v-4.759A3.713,3.713,0,0,1,350.9,413.137Z" transform="translate(-292.327 -350.354)" fill="#a2e62e"/>
        <g id="Grupo_1111673" data-name="Grupo 1111673" transform="translate(55.03 64.972)">
          <path id="Trazado_896762" data-name="Trazado 896762" d="M363.977,437.152v1.433a1.619,1.619,0,0,1-1.619,1.619h-15v3.256h20.02v-2.575A3.722,3.722,0,0,0,363.977,437.152Z" transform="translate(-347.357 -437.152)" fill="#97d729"/>
        </g>
      </g>
    </g>
    <g id="Grupo_1111676" data-name="Grupo 1111676" transform="translate(0 28.39)">
      <path id="Trazado_896763" data-name="Trazado 896763" d="M81.689,99.67h-4.21V98.309a4.929,4.929,0,0,0-4.844-4.957,5.056,5.056,0,0,0-1.269.159,5.041,5.041,0,0,0-1.445-2.948,4.8,4.8,0,0,0-3.4-1.418h-.032a4.861,4.861,0,0,0-4.286,2.6,4.865,4.865,0,0,0-2.457-.576,4.954,4.954,0,0,0-4.721,4.953V99.67H36.686l3.564-5.009a1.214,1.214,0,1,0-1.979-1.408l-2.724,3.83V84.676l3.537-3.416a3.655,3.655,0,0,1,2.551-1.031H49.4a1.7,1.7,0,0,0,1.2-2.9l-6.2-6.177h3.088L60.913,82.634a1.214,1.214,0,0,1-.789,2.137H47.452a6.112,6.112,0,0,0-4.972,2.565l-.92,1.293a1.214,1.214,0,0,0,1.979,1.408l.92-1.293A3.679,3.679,0,0,1,47.452,87.2H60.124a3.643,3.643,0,0,0,2.368-6.412L51.22,71.148H81.689a1.214,1.214,0,0,0,0-2.429H80.376l-3.4-6.068a1.214,1.214,0,1,0-2.118,1.188l2.738,4.879H50.005L63.8,44.14,72.079,58.9A1.214,1.214,0,1,0,74.2,57.709L65.563,42.322a2.024,2.024,0,0,0-3.53,0L53.385,57.734,37.5,29.424a2.024,2.024,0,0,0-3.53,0L25.236,44.986A5.94,5.94,0,0,0,14.581,47.22H12.3a1.214,1.214,0,0,0,0,2.429h2.152V51.78c-.05,0-.1,0-.151,0H4.938a4.232,4.232,0,0,0-2.946,7.273,3.456,3.456,0,0,0-.825,2.242v1.1a3.446,3.446,0,0,0,.508,1.8A4.008,4.008,0,0,0,0,67.448v2.3A4.015,4.015,0,0,0,4.011,73.76h6.131V99.67H1.214a1.214,1.214,0,0,0,0,2.429H81.689a1.214,1.214,0,0,0,0-2.429Zm-48.572,0H31.029v-.612A3.464,3.464,0,0,0,27.569,95.6h-.23V92.6l5.778-5.581V99.67Zm-20.547-20.7h3.11V95.6h-3.11Zm5.539,0h1.262V95.6H18.109Zm3.691,0h3.11V95.6H21.8ZM18.54,67.9V56.867h2.181a4.175,4.175,0,0,1,3,1.273,3.409,3.409,0,0,0-3.2,3.4V67.9Zm-5.918-3.081a3.46,3.46,0,0,0,.989-2.422v-1.1a3.461,3.461,0,0,0-.161-1.045H14.3a4.21,4.21,0,0,0,1.806-.405v9.27a2.223,2.223,0,0,1-2.22,2.22h-.605a3.988,3.988,0,0,0,.326-1.582v-2.3a3.993,3.993,0,0,0-.989-2.633Zm10.331-3.278a.978.978,0,0,1,1.957,0v5.4a1.214,1.214,0,0,0,1.214,1.214h4.9v1.957h-7.1a.979.979,0,0,1-.978-.978ZM34.332,68.15a.978.978,0,0,1,0,1.957h-.874V68.15Zm-1.214,4.386v11.11l-5.778,5.581V72.535ZM47.634,77.8h-6A6.072,6.072,0,0,0,37.4,79.513L35.546,81.3V72.308a3.42,3.42,0,0,0,1.524-1.16h3.884ZM35.028,32.5l1.091,7.852a1.214,1.214,0,1,0,2.406-.334l-.7-5.056,14.17,25.253-4.772,8.5H42.512L39.3,45.632a1.214,1.214,0,1,0-2.406.334L40.06,68.719H37.712a3.412,3.412,0,0,0-2.166-2.77V64.558a1.214,1.214,0,0,0-2.429,0v1.164H27.339V61.056a6.612,6.612,0,0,0-2.724-5.346,4.869,4.869,0,0,0,1.729-3.721V49.649H28.5a1.214,1.214,0,1,0,0-2.429H26.767ZM20.4,44.92a3.521,3.521,0,0,1,3.3,2.3H17.1A3.52,3.52,0,0,1,20.4,44.92Zm-3.515,4.729h7.029v2.339a2.453,2.453,0,0,1-2.45,2.45H18.236a4.254,4.254,0,0,0-1.351-1.782ZM4.938,54.205H14.3a1.806,1.806,0,1,1,0,3.612H4.938a1.806,1.806,0,0,1,0-3.612Zm5.2,6.041a1.046,1.046,0,0,1,1.045,1.045v1.1a1.046,1.046,0,0,1-1.045,1.045H4.64A1.046,1.046,0,0,1,3.6,62.393v-1.1A1.046,1.046,0,0,1,4.64,60.247Zm-7.709,9.5v-2.3a1.584,1.584,0,0,1,1.582-1.582H9.6a1.584,1.584,0,0,1,1.582,1.582v2.3A1.584,1.584,0,0,1,9.6,71.331H4.011A1.584,1.584,0,0,1,2.429,69.749ZM13.891,73.76a4.657,4.657,0,0,0,4.487-3.435h2.368a3.41,3.41,0,0,0,3.186,2.21h.978v4H12.571V73.76Zm-1.32,24.266h6.8V99.67h-6.8ZM21.8,99.67V98.027h5.769A1.033,1.033,0,0,1,28.6,99.058v.612Zm35.658,0V96.126A2.507,2.507,0,0,1,59.827,93.6a2.463,2.463,0,0,1,2.059,1.01,1.215,1.215,0,0,0,2.2-.673,2.438,2.438,0,0,1,2.428-2.364,2.376,2.376,0,0,1,1.7.712,2.58,2.58,0,0,1,.764,1.814v1.376a1.214,1.214,0,0,0,2.016.912,2.443,2.443,0,0,1,1.614-.608h.016a2.5,2.5,0,0,1,2.431,2.528V99.67H57.458Z" transform="translate(0 -28.39)"/>
      <path id="Trazado_896764" data-name="Trazado 896764" d="M422.676,309h-.768a6.039,6.039,0,0,0-6,5.127,1.875,1.875,0,0,0,1.857,2.159h9.051a1.876,1.876,0,0,0,1.857-2.159A6.039,6.039,0,0,0,422.676,309Zm-4.205,4.858a3.621,3.621,0,0,1,3.438-2.429h.768a3.621,3.621,0,0,1,3.438,2.429Z" transform="translate(-348.547 -263.564)"/>
    </g>
  </g>
</svg>
