<svg xmlns="http://www.w3.org/2000/svg" width="85" height="85" viewBox="0 0 85 85">
  <g id="Icon" transform="translate(-6 -6)">
    <g id="Grupo_1111650" data-name="Grupo 1111650" transform="translate(6 6)">
      <path id="Trazado_896574" data-name="Trazado 896574" d="M32,32.278l7.68-9.653a1.4,1.4,0,0,1,2.225,0l7.681,9.653Z" transform="translate(-12.948 -10.295)" fill="#a5d6a7" fill-rule="evenodd"/>
      <path id="Trazado_896575" data-name="Trazado 896575" d="M67,28.532,80.19,8.774a1.419,1.419,0,0,1,2.466,0L94.845,28.532Z" transform="translate(-22.302 -6.55)" fill="#58b55c" fill-rule="evenodd"/>
      <path id="Trazado_896576" data-name="Trazado 896576" d="M46.237,85.56H8V35H90.069V62.638A24.916,24.916,0,0,0,46.237,85.56Z" transform="translate(-6.534 -13.75)" fill="#c2e3c3" fill-rule="evenodd"/>
      <path id="Trazado_896577" data-name="Trazado 896577" d="M8,33.983V20.78l7.42-7.864a2.88,2.88,0,0,1,4.186-.029l18.438,21.1Z" transform="translate(-6.534 -7.603)" fill="#58b55c" fill-rule="evenodd"/>
      <path id="Trazado_896578" data-name="Trazado 896578" d="M50.78,85.56H25L47.716,35h8.793l8.364,18.619A24.933,24.933,0,0,0,50.78,85.56Z" transform="translate(-11.078 -13.75)" fill="gray" fill-rule="evenodd"/>
      <path id="Trazado_896579" data-name="Trazado 896579" d="M58.53,100.259H54L54.733,90h2.241q-.042.728-.042,1.466A24.83,24.83,0,0,0,58.53,100.259Z" transform="translate(-18.828 -28.448)" fill="#ffee58" fill-rule="evenodd"/>
      <path id="Trazado_896580" data-name="Trazado 896580" d="M60.553,73.793H58L58.733,65h4.4l.35,4.2a24.962,24.962,0,0,0-2.927,4.591Z" transform="translate(-19.897 -21.767)" fill="#ffee58" fill-rule="evenodd"/>
      <path id="Trazado_896581" data-name="Trazado 896581" d="M63.4,52.328H59L59.733,45h2.931Z" transform="translate(-20.164 -16.422)" fill="#ffee58" fill-rule="evenodd"/>
      <g id="Grupo_1111649" data-name="Grupo 1111649" transform="translate(2.931 23.448)">
        <path id="Trazado_896582" data-name="Trazado 896582" d="M18.793,87.207H10l4.407-13.143Z" transform="translate(-10 -47.638)" fill="#558b2f" fill-rule="evenodd"/>
        <path id="Trazado_896583" data-name="Trazado 896583" d="M23,67.724,26.664,56l3.664,11.724Z" transform="translate(-13.474 -42.81)" fill="#558b2f" fill-rule="evenodd"/>
        <path id="Trazado_896584" data-name="Trazado 896584" d="M34,48.259,36.931,38l2.931,10.259Z" transform="translate(-16.414 -38)" fill="#558b2f" fill-rule="evenodd"/>
        <path id="Trazado_896585" data-name="Trazado 896585" d="M18.862,54.259H13L15.931,44Z" transform="translate(-10.802 -39.603)" fill="#558b2f" fill-rule="evenodd"/>
        <path id="Trazado_896586" data-name="Trazado 896586" d="M82,48.259,84.931,38l2.931,10.259Z" transform="translate(-29.241 -38)" fill="#558b2f" fill-rule="evenodd"/>
      </g>
      <ellipse id="Elipse_12085" data-name="Elipse 12085" cx="20" cy="20.5" rx="20" ry="20.5" transform="translate(43 42)" fill="#ffee58"/>
      <path id="Trazado_896587" data-name="Trazado 896587" d="M89.868,88.586c.049-.005-.05,0,0,0H86.113c-3.205-.069-6.391-1.307-7.6-3.517-.759-1.385-.746-3.158.539-5.263a1.469,1.469,0,0,0,.212-.854,5.566,5.566,0,0,1,.676-3.392,4.6,4.6,0,0,1,3.247-1.9,1.468,1.468,0,0,0,.862-.508,5.181,5.181,0,0,1,3.278-2.134,4.362,4.362,0,0,1,3.368,1.369,1.463,1.463,0,0,0,.9.374c2.1.114,3.414.7,4.129,1.642a4.641,4.641,0,0,1,.6,3.589,1.462,1.462,0,0,0,.261,1.08c1.749,2.42,2.237,4.276,1.756,5.681a4.105,4.105,0,0,1-2.032,2.193,17.373,17.373,0,0,1-6.441,1.638Z" transform="translate(-25.241 -23.371)" fill="#00c853" fill-rule="evenodd"/>
      <path id="Trazado_896588" data-name="Trazado 896588" d="M86,104.388C88.449,98.556,89.665,93.754,88.931,89c0,0,2.923,0,2.931,0-.684,4.666,2.673,15.388,2.931,15.388Z" transform="translate(-27.379 -28.181)" fill="#a1887f" fill-rule="evenodd"/>
      <path id="Trazado_896589" data-name="Trazado 896589" d="M69.017,47.034A21.983,21.983,0,1,1,47.034,69.017,21.994,21.994,0,0,1,69.017,47.034Zm0,2.931A19.052,19.052,0,1,0,88.069,69.017,19.061,19.061,0,0,0,69.017,49.966ZM65.18,72.546c-3.142-.443-5.984-1.934-7.2-4.144-.969-1.768-1.067-4.043.573-6.73a7,7,0,0,1,.906-4.275,5.979,5.979,0,0,1,4.212-2.549,6.578,6.578,0,0,1,4.249-2.658,5.759,5.759,0,0,1,4.507,1.737c2.68.146,4.3,1.018,5.217,2.22a6.052,6.052,0,0,1,.882,4.7c2.142,2.963,2.544,5.294,1.956,7.015a5.53,5.53,0,0,1-2.7,3,15.63,15.63,0,0,1-4.94,1.542,39.212,39.212,0,0,0,.606,4.367,13.789,13.789,0,0,0,1.264,3.975h2.365a1.466,1.466,0,0,1,0,2.931H60.957a1.466,1.466,0,1,1,0-2.931H62.9a35.52,35.52,0,0,0,2.276-8.2Zm6.332,8.2a17.577,17.577,0,0,1-.55-1.731A43.551,43.551,0,0,1,69.751,68.3a6.786,6.786,0,0,1-1.444-.065,31.82,31.82,0,0,1-2.263,12.5Zm1.176-11.287a14.219,14.219,0,0,0,2.987-.829,3.271,3.271,0,0,0,2.039-1.716,2.686,2.686,0,0,0-.1-1.72,10.864,10.864,0,0,0-1.795-3.083,1.464,1.464,0,0,1-.274-1.2,3.648,3.648,0,0,0-.227-2.985c-.577-.759-1.719-1.054-3.509-1.081a1.465,1.465,0,0,1-1.019-.432,3.288,3.288,0,0,0-2.543-1.3,4.185,4.185,0,0,0-2.6,1.981,1.463,1.463,0,0,1-.988.575,3.532,3.532,0,0,0-2.728,1.322,4.483,4.483,0,0,0-.413,2.908,1.461,1.461,0,0,1-.24.969,4.583,4.583,0,0,0-1,3.37,3.733,3.733,0,0,0,2.094,2.423,9.329,9.329,0,0,0,3.035.97,19.512,19.512,0,0,0-.128-2.491q-.451-.259-.9-.575a1.466,1.466,0,0,1,1.676-2.4c2.213,1.542,4.324,1.566,6.335.036a1.465,1.465,0,1,1,1.774,2.333,10.154,10.154,0,0,1-1.46.934c-.021.651-.023,1.322-.01,2ZM46.31,79.276H7.466a1.466,1.466,0,1,1,0-2.931h4.4v-4.4H8.931a1.466,1.466,0,0,1-1.39-1.929l4.4-13.19a1.465,1.465,0,0,1,2.78,0l4.4,13.19a1.466,1.466,0,0,1-1.39,1.929H14.793v4.4h4.181l19.094-42.5H34.578a1.466,1.466,0,1,1,0-2.931h1l-17.544-18.6a1.416,1.416,0,0,0-2.081,0L8.532,20.182A1.466,1.466,0,0,1,6.4,18.17l7.42-7.864a4.346,4.346,0,0,1,6.344,0l9.159,9.708,2.3-2.679a2.931,2.931,0,0,1,4.451,0l7.242,8.449H50.62L62.146,7.378a2.91,2.91,0,0,1,4.949,0L79.052,26.473a1.466,1.466,0,0,1-1.242,2.243H70.483a1.466,1.466,0,0,1,0-2.931h4.681L64.621,8.949,54.078,25.784h6.146a1.466,1.466,0,1,1,0,2.931H53.7l.988,2.2h2.609a1.466,1.466,0,0,1,0,2.931H56l5.175,11.52a24.706,24.706,0,0,0-2.724,1.087L50.483,28.716h-6.9l-21.4,47.629H39.808l.635-8.9a1.466,1.466,0,0,1,1.462-1.361h2.369a25.138,25.138,0,0,0-.171,2.931H43.27l-.523,7.328H45.2a24.742,24.742,0,0,0,1.109,2.931ZM39.456,30.755,40.92,27.5l-7.076-8.255-2.5,2.916ZM13.328,61.928l-2.363,7.089h4.726ZM63.155,44.8V41.172H61.69A1.465,1.465,0,0,1,60.281,39.3l2.931-10.259a1.465,1.465,0,0,1,2.818,0L68.961,39.3a1.465,1.465,0,0,1-1.409,1.868H66.086v3.1a24.932,24.932,0,0,0-2.931.524Zm1.466-10.015-.988,3.459h1.977ZM45.993,59.491H44.1a1.465,1.465,0,0,1-1.46-1.587l.733-8.793a1.465,1.465,0,0,1,1.46-1.344h4.4a1.465,1.465,0,0,1,1.46,1.344l.232,2.784a25.107,25.107,0,0,0-2.663,3.343l-.378-4.54h-1.7L45.7,56.56h1.745A24.8,24.8,0,0,0,45.993,59.491Zm3.966-25.06.733,7.328a1.465,1.465,0,0,1-1.458,1.611h-4.4a1.465,1.465,0,0,1-1.458-1.611l.733-7.328a1.465,1.465,0,0,1,1.458-1.32H48.5a1.465,1.465,0,0,1,1.458,1.32Zm-2.784,1.611H46.9l-.44,4.4h1.158ZM20.655,55.828h-2.2a1.466,1.466,0,0,1-1.4-1.9L20.722,42.2a1.466,1.466,0,0,1,2.8,0l3.664,11.724a1.466,1.466,0,0,1-1.4,1.9h-2.2v4.4a1.466,1.466,0,1,1-2.931,0Zm1.466-8.277L20.45,52.9h3.341Zm5.862-6.379H26.517A1.465,1.465,0,0,1,25.108,39.3l2.931-10.259a1.465,1.465,0,0,1,2.818,0L33.788,39.3a1.465,1.465,0,0,1-1.409,1.868H30.914V44.1a1.466,1.466,0,1,1-2.931,0Zm1.466-6.39-.988,3.459h1.977ZM12.595,45.569H11.129A1.465,1.465,0,0,1,9.72,43.7l2.931-10.259a1.465,1.465,0,0,1,2.818,0L18.4,43.7a1.465,1.465,0,0,1-1.409,1.868H15.526V48.5a1.466,1.466,0,1,1-2.931,0Zm1.466-6.39-.988,3.459h1.977Zm4.4-5.334a1.466,1.466,0,1,1,0-2.931h5.129a1.466,1.466,0,1,1,0,2.931Zm-10.991,0a1.466,1.466,0,1,1,0-2.931H10.4a1.466,1.466,0,1,1,0,2.931Z" transform="translate(-6 -6)" fill-rule="evenodd"/>
    </g>
  </g>
</svg>
