<svg xmlns="http://www.w3.org/2000/svg" width="85" height="85" viewBox="0 0 85 85">
  <g id="Grupo_1111206" data-name="Grupo 1111206" transform="translate(-235.051 -5287)">
    <path id="Trazado_873499" data-name="Trazado 873499" d="M42.5,0A42.5,42.5,0,1,1,0,42.5,42.5,42.5,0,0,1,42.5,0Z" transform="translate(235.051 5287)" fill="#769671"/>
    <g id="Grupo_1111205" data-name="Grupo 1111205">
      <g id="Grupo_1111203" data-name="Grupo 1111203" transform="translate(249.259 5301.333)">
        <path id="Trazado_896502" data-name="Trazado 896502" d="M79.956,54.978A24.978,24.978,0,1,1,54.978,30,24.978,24.978,0,0,1,79.956,54.978Zm0,0" transform="translate(-26.685 -26.684)" fill="#4fc3f7" stroke="#fff" stroke-width="3"/>
        <path id="Trazado_896503" data-name="Trazado 896503" d="M26.821,44.778a3.934,3.934,0,0,0-4.46-2.968.334.334,0,0,1-.372-.225,3.934,3.934,0,0,0-7.628.691.329.329,0,0,1-.406.271A3.24,3.24,0,0,0,10.1,44.7a.33.33,0,0,1-.271.225A2.69,2.69,0,0,0,7.5,47.592a2.755,2.755,0,0,0,2.756,2.686H27.963a2.738,2.738,0,0,0,2.745-2.726,2.692,2.692,0,0,0-3.468-2.539.33.33,0,0,1-.42-.235Zm0,0" transform="translate(-6.671 -34.596)" fill="#e1f5fe" stroke="#fff" stroke-width="3"/>
        <path id="Trazado_896504" data-name="Trazado 896504" d="M100.474,45.013a.33.33,0,0,1-.42-.235,3.934,3.934,0,0,0-4.46-2.968.334.334,0,0,1-.372-.225,3.934,3.934,0,0,0-5.39-2.324,3.948,3.948,0,0,1,2.074,2.324.333.333,0,0,0,.372.225,3.935,3.935,0,0,1,4.46,2.968.33.33,0,0,0,.42.235,2.692,2.692,0,0,1,3.468,2.539,2.738,2.738,0,0,1-2.745,2.726H101.2a2.738,2.738,0,0,0,2.745-2.726A2.692,2.692,0,0,0,100.474,45.013Zm0,0" transform="translate(-79.904 -34.596)" fill="#b3e5fc" stroke="#fff" stroke-width="3"/>
        <path id="Trazado_896505" data-name="Trazado 896505" d="M298.39,175.805a3.934,3.934,0,0,1,4.46-2.968.334.334,0,0,0,.372-.225,3.934,3.934,0,0,1,7.628.691.329.329,0,0,0,.406.271,3.24,3.24,0,0,1,3.853,2.151.33.33,0,0,0,.271.224,2.69,2.69,0,0,1,2.332,2.67,2.756,2.756,0,0,1-2.757,2.686H297.248a2.739,2.739,0,0,1-2.746-2.726,2.692,2.692,0,0,1,3.468-2.539.329.329,0,0,0,.42-.235Zm0,0" transform="translate(-261.954 -151.141)" fill="#e1f5fe" stroke="#fff" stroke-width="3"/>
        <path id="Trazado_896506" data-name="Trazado 896506" d="M402.255,175.95a.329.329,0,0,1-.271-.224,3.241,3.241,0,0,0-3.853-2.151.329.329,0,0,1-.406-.271,3.935,3.935,0,0,0-5.553-3.016,3.939,3.939,0,0,1,2.238,3.015.329.329,0,0,0,.406.272,3.241,3.241,0,0,1,3.853,2.15.329.329,0,0,0,.271.225,2.689,2.689,0,0,1,2.331,2.669,2.757,2.757,0,0,1-2.757,2.686h3.316a2.757,2.757,0,0,0,2.757-2.686A2.69,2.69,0,0,0,402.255,175.95Zm0,0" transform="translate(-348.828 -151.142)" fill="#b3e5fc" stroke="#fff" stroke-width="3"/>
        <path id="Trazado_896507" data-name="Trazado 896507" d="M302.01,11.755A4.255,4.255,0,1,1,297.755,7.5,4.255,4.255,0,0,1,302.01,11.755Zm0,0" transform="translate(-261.062 -6.671)" fill="#ffca28" stroke="#fff" stroke-width="3"/>
        <path id="Trazado_896508" data-name="Trazado 896508" d="M318.658,7.5A4.24,4.24,0,0,0,317,7.835a4.257,4.257,0,0,1,0,7.84A4.256,4.256,0,1,0,318.658,7.5Zm0,0" transform="translate(-281.965 -6.671)" fill="#ffb300" stroke="#fff" stroke-width="3"/>
        <path id="Trazado_896509" data-name="Trazado 896509" d="M60.637,224h3.316v7.737H60.637Zm0,0" transform="translate(-53.935 -199.243)" fill="#d66724" stroke="#fff" stroke-width="3"/>
        <path id="Trazado_896510" data-name="Trazado 896510" d="M41.98,304.5H57.011v9.947H41.98Zm0,0" transform="translate(-37.341 -270.846)" fill="#d66724" stroke="#fff" stroke-width="3"/>
        <path id="Trazado_896511" data-name="Trazado 896511" d="M147.98,304.5H151.3v9.947H147.98Zm0,0" transform="translate(-131.625 -270.846)" fill="#bf5c24" stroke="#fff" stroke-width="3"/>
        <path id="Trazado_896512" data-name="Trazado 896512" d="M98.3,341.131H94.98v-4.974a1.658,1.658,0,0,1,3.316,0Zm0,0" transform="translate(-84.483 -297.53)" fill="#8a421a" stroke="#fff" stroke-width="3"/>
        <path id="Trazado_896513" data-name="Trazado 896513" d="M45.885,250.487H28.2a.221.221,0,0,1-.127-.4l8.842-6.269a.219.219,0,0,1,.255,0l8.842,6.269a.221.221,0,0,1-.127.4Zm0,0" transform="translate(-24.888 -216.833)" fill="#f04a41" stroke="#fff" stroke-width="3"/>
        <path id="Trazado_896514" data-name="Trazado 896514" d="M105.612,250.085l-8.842-6.269a.219.219,0,0,0-.254,0l-1.53,1.085,7.311,5.184a.221.221,0,0,1-.127.4h3.316a.221.221,0,0,0,.127-.4Zm0,0" transform="translate(-84.487 -216.832)" fill="#db443c" stroke="#fff" stroke-width="3"/>
        <path id="Trazado_896515" data-name="Trazado 896515" d="M55.248,406.657H14.682A7.182,7.182,0,0,1,7.5,399.476V394.5H62.43v4.976A7.182,7.182,0,0,1,55.248,406.657Zm0,0" transform="translate(-6.672 -350.899)" fill="#66cf32" stroke="#fff" stroke-width="3"/>
        <path id="Trazado_896516" data-name="Trazado 896516" d="M416.7,394.5v4.976a7.182,7.182,0,0,1-7.182,7.182h3.316a7.182,7.182,0,0,0,7.182-7.182V394.5Zm0,0" transform="translate(-364.259 -350.899)" fill="#5cba2d" stroke="#fff" stroke-width="3"/>
        <path id="Trazado_896517" data-name="Trazado 896517" d="M275,361h3.316v3.7H275Zm0,0" transform="translate(-244.607 -321.101)" fill="#d66724" stroke="#fff" stroke-width="3"/>
        <path id="Trazado_896518" data-name="Trazado 896518" d="M253.444,216.906h-9.614c-.208,0-.365-.133-.327-.277l4.62-17.328c.107-.4.921-.4,1.027,0l4.62,17.328C253.809,216.773,253.652,216.906,253.444,216.906Zm0,0" transform="translate(-216.587 -177.007)" fill="#6fe036" stroke="#fff" stroke-width="3"/>
        <path id="Trazado_896519" data-name="Trazado 896519" d="M281.791,216.629l-4.62-17.328c-.107-.4-.921-.4-1.027,0L275,203.592l3.476,13.036c.038.144-.119.277-.327.277h3.316C281.672,216.905,281.829,216.773,281.791,216.629Zm0,0" transform="translate(-244.607 -177.007)" fill="#66cf32" stroke="#fff" stroke-width="3"/>
        <path id="Trazado_896520" data-name="Trazado 896520" d="M395.512,361h3.316v3.7h-3.316Zm0,0" transform="translate(-351.8 -321.101)" fill="#d66724" stroke="#fff" stroke-width="3"/>
        <path id="Trazado_896521" data-name="Trazado 896521" d="M373.956,216.906h-9.614c-.208,0-.365-.133-.327-.277l4.62-17.328c.106-.4.92-.4,1.027,0l4.62,17.328C374.321,216.773,374.164,216.906,373.956,216.906Zm0,0" transform="translate(-323.779 -177.007)" fill="#6fe036" stroke="#fff" stroke-width="3"/>
        <path id="Trazado_896522" data-name="Trazado 896522" d="M402.3,216.629l-4.62-17.328c-.107-.4-.921-.4-1.027,0l-1.144,4.292,3.475,13.036c.038.144-.118.277-.326.277h3.316C402.184,216.905,402.341,216.773,402.3,216.629Zm0,0" transform="translate(-351.799 -177.007)" fill="#66cf32" stroke="#fff" stroke-width="3"/>
        <path id="Trazado_896523" data-name="Trazado 896523" d="M55.758,42.772h-6.1a25.632,25.632,0,0,0,4.315-11.918,3.588,3.588,0,0,0,2.613-3.375,3.53,3.53,0,0,0-2.748-3.439q-.065-.161-.143-.313A25.511,25.511,0,0,0,49.7,13.879a.829.829,0,1,0-1.374.927,23.87,23.87,0,0,1,3.229,6.986,4.047,4.047,0,0,0-1.941-.257,4.763,4.763,0,0,0-8.989-.707A4.776,4.776,0,0,0,35.77,24a3.521,3.521,0,0,0-1.836.215l-.568-2.131a1.4,1.4,0,0,0-2.629,0l-4.62,17.329a1,1,0,0,0,.178.873,1.2,1.2,0,0,0,.95.446h2.32v2.045H28.293a.829.829,0,0,0,0,1.658H54.929v4.147a6.36,6.36,0,0,1-6.353,6.353H8.01a6.36,6.36,0,0,1-6.353-6.353V44.43H24.741a.829.829,0,0,0,0-1.658H20.5V34.483H21a1.05,1.05,0,0,0,.607-1.907l-8.842-6.27a1.051,1.051,0,0,0-1.213,0l-.7.5V25.586h.387a.829.829,0,0,0,0-1.658H5.485a.829.829,0,0,0,0,1.658h.387v4.746L4.346,31.414a24.448,24.448,0,0,1-.2-3.12A24.133,24.133,0,0,1,7.209,16.512h6.932a.829.829,0,1,0,0-1.658H3.585A1.921,1.921,0,0,1,1.657,13a1.864,1.864,0,0,1,1.612-1.847,1.164,1.164,0,0,0,.951-.793,2.409,2.409,0,0,1,2.864-1.6A1.158,1.158,0,0,0,8.511,7.8a3.105,3.105,0,0,1,6.02-.544,1.16,1.16,0,0,0,1.293.781,3.107,3.107,0,0,1,3.519,2.341,1.158,1.158,0,0,0,1.47.837,1.863,1.863,0,0,1,2.4,1.757,1.816,1.816,0,0,1-.537,1.306,1.952,1.952,0,0,1-1.379.581h-3.6a.829.829,0,0,0,0,1.658h3.6a3.62,3.62,0,0,0,2.559-1.074,3.486,3.486,0,0,0-.425-5.283,3.547,3.547,0,0,0-2.61-.641,4.774,4.774,0,0,0-3.056-2.956A24.128,24.128,0,0,1,28.293,4.145a24.419,24.419,0,0,1,3.366.234,5.082,5.082,0,0,0,9.352,3.383,24.211,24.211,0,0,1,5.215,4.358.829.829,0,1,0,1.23-1.111,25.857,25.857,0,0,0-5.808-4.8,5.082,5.082,0,0,0-9.485-3.433,26.076,26.076,0,0,0-3.872-.29A25.768,25.768,0,0,0,15.669,5.782a4.763,4.763,0,0,0-8.7,1.273,4.077,4.077,0,0,0-4.223,2.5A3.528,3.528,0,0,0,0,13a3.6,3.6,0,0,0,3.585,3.514H5.329a25.886,25.886,0,0,0-2.5,15.979l-.121.086a1.05,1.05,0,0,0,.528,1.9c.165.671.359,1.337.576,1.989v6.3H.828A.829.829,0,0,0,0,43.6v4.976A8.02,8.02,0,0,0,8.01,56.588H48.576a8.02,8.02,0,0,0,8.011-8.011V43.6a.829.829,0,0,0-.829-.829Zm-18.9-2.045a1.2,1.2,0,0,0,.95-.447,1,1,0,0,0,.178-.872l-2.244-8.416h5.938l-2.244,8.416a1,1,0,0,0,.177.872,1.2,1.2,0,0,0,.95.447h2.32v2.045H34.538V40.728Zm4.384-1.658L45.37,23.585,49.5,39.07Zm9.487-1.821-1.668-6.255h3.232A24.016,24.016,0,0,1,50.728,37.248ZM49,40.728q-.532.885-1.143,1.727V40.728ZM35.776,25.693a1.17,1.17,0,0,0,.92-.1,1.158,1.158,0,0,0,.547-.734,3.107,3.107,0,0,1,3.515-2.342,1.156,1.156,0,0,0,1.3-.779,3.105,3.105,0,0,1,6.02.542,1.157,1.157,0,0,0,1.426.962,2.409,2.409,0,0,1,2.864,1.6,1.161,1.161,0,0,0,.951.795,1.865,1.865,0,0,1,1.613,1.847A1.921,1.921,0,0,1,53,29.335H48.618L46.684,22.08a1.4,1.4,0,0,0-2.629,0l-1.934,7.255H35.3l-.934-3.5a1.855,1.855,0,0,1,1.41-.14Zm-3.725-2.108,1.788,6.707a0,0,0,0,0,0,0l2.34,8.776H27.923Zm-.829,19.187V40.728H32.88v2.045Zm13.319,0V40.728H46.2v2.045ZM36.693,1.658a3.426,3.426,0,1,1-3.426,3.426A3.43,3.43,0,0,1,36.693,1.658ZM11.326,42.772V38.628a.829.829,0,1,1,1.658,0v4.145Zm-3.8-17.186H9.188V27.98L7.531,29.156Zm4.624,2.323,6.934,4.916H5.222ZM5.468,34.483H18.841v8.289h-4.2V38.628a2.487,2.487,0,1,0-4.973,0v4.145h-4.2Zm0,0" stroke="#fff" stroke-width="3"/>
        <path id="Trazado_896524" data-name="Trazado 896524" d="M84.384,428.419a.829.829,0,0,0-.829-.829h-21.2a.829.829,0,0,0,0,1.658h21.2A.829.829,0,0,0,84.384,428.419Zm0,0" transform="translate(-54.724 -380.332)" stroke="#fff" stroke-width="3"/>
        <path id="Trazado_896525" data-name="Trazado 896525" d="M383.139,429.248a.829.829,0,1,0,0-1.658h-6.606a.829.829,0,0,0,0,1.658Zm0,0" transform="translate(-334.18 -380.332)" stroke="#fff" stroke-width="3"/>
        <path id="Trazado_896526" data-name="Trazado 896526" d="M132.075,458.762a.829.829,0,0,0,0,1.658h7.153a.829.829,0,1,0,0-1.658Zm0,0" transform="translate(-116.741 -408.058)" stroke="#fff" stroke-width="3"/>
        <path id="Trazado_896527" data-name="Trazado 896527" d="M314.278,460.42a.829.829,0,0,0,0-1.658h-5.172a.829.829,0,0,0,0,1.658Zm0,0" transform="translate(-274.206 -408.058)" stroke="#fff" stroke-width="3"/>
      </g>
      <g id="Grupo_1111204" data-name="Grupo 1111204" transform="translate(249.259 5301.333)">
        <path id="Trazado_896502-2" data-name="Trazado 896502" d="M79.956,54.978A24.978,24.978,0,1,1,54.978,30,24.978,24.978,0,0,1,79.956,54.978Zm0,0" transform="translate(-26.685 -26.684)" fill="#4fc3f7"/>
        <path id="Trazado_896503-2" data-name="Trazado 896503" d="M26.821,44.778a3.934,3.934,0,0,0-4.46-2.968.334.334,0,0,1-.372-.225,3.934,3.934,0,0,0-7.628.691.329.329,0,0,1-.406.271A3.24,3.24,0,0,0,10.1,44.7a.33.33,0,0,1-.271.225A2.69,2.69,0,0,0,7.5,47.592a2.755,2.755,0,0,0,2.756,2.686H27.963a2.738,2.738,0,0,0,2.745-2.726,2.692,2.692,0,0,0-3.468-2.539.33.33,0,0,1-.42-.235Zm0,0" transform="translate(-6.671 -34.596)" fill="#e1f5fe"/>
        <path id="Trazado_896504-2" data-name="Trazado 896504" d="M100.474,45.013a.33.33,0,0,1-.42-.235,3.934,3.934,0,0,0-4.46-2.968.334.334,0,0,1-.372-.225,3.934,3.934,0,0,0-5.39-2.324,3.948,3.948,0,0,1,2.074,2.324.333.333,0,0,0,.372.225,3.935,3.935,0,0,1,4.46,2.968.33.33,0,0,0,.42.235,2.692,2.692,0,0,1,3.468,2.539,2.738,2.738,0,0,1-2.745,2.726H101.2a2.738,2.738,0,0,0,2.745-2.726A2.692,2.692,0,0,0,100.474,45.013Zm0,0" transform="translate(-79.904 -34.596)" fill="#b3e5fc"/>
        <path id="Trazado_896505-2" data-name="Trazado 896505" d="M298.39,175.805a3.934,3.934,0,0,1,4.46-2.968.334.334,0,0,0,.372-.225,3.934,3.934,0,0,1,7.628.691.329.329,0,0,0,.406.271,3.24,3.24,0,0,1,3.853,2.151.33.33,0,0,0,.271.224,2.69,2.69,0,0,1,2.332,2.67,2.756,2.756,0,0,1-2.757,2.686H297.248a2.739,2.739,0,0,1-2.746-2.726,2.692,2.692,0,0,1,3.468-2.539.329.329,0,0,0,.42-.235Zm0,0" transform="translate(-261.954 -151.141)" fill="#e1f5fe"/>
        <path id="Trazado_896506-2" data-name="Trazado 896506" d="M402.255,175.95a.329.329,0,0,1-.271-.224,3.241,3.241,0,0,0-3.853-2.151.329.329,0,0,1-.406-.271,3.935,3.935,0,0,0-5.553-3.016,3.939,3.939,0,0,1,2.238,3.015.329.329,0,0,0,.406.272,3.241,3.241,0,0,1,3.853,2.15.329.329,0,0,0,.271.225,2.689,2.689,0,0,1,2.331,2.669,2.757,2.757,0,0,1-2.757,2.686h3.316a2.757,2.757,0,0,0,2.757-2.686A2.69,2.69,0,0,0,402.255,175.95Zm0,0" transform="translate(-348.828 -151.142)" fill="#b3e5fc"/>
        <path id="Trazado_896507-2" data-name="Trazado 896507" d="M302.01,11.755A4.255,4.255,0,1,1,297.755,7.5,4.255,4.255,0,0,1,302.01,11.755Zm0,0" transform="translate(-261.062 -6.671)" fill="#ffca28"/>
        <path id="Trazado_896508-2" data-name="Trazado 896508" d="M318.658,7.5A4.24,4.24,0,0,0,317,7.835a4.257,4.257,0,0,1,0,7.84A4.256,4.256,0,1,0,318.658,7.5Zm0,0" transform="translate(-281.965 -6.671)" fill="#ffb300"/>
        <path id="Trazado_896509-2" data-name="Trazado 896509" d="M60.637,224h3.316v7.737H60.637Zm0,0" transform="translate(-53.935 -199.243)" fill="#d66724"/>
        <path id="Trazado_896510-2" data-name="Trazado 896510" d="M41.98,304.5H57.011v9.947H41.98Zm0,0" transform="translate(-37.341 -270.846)" fill="#d66724"/>
        <path id="Trazado_896511-2" data-name="Trazado 896511" d="M147.98,304.5H151.3v9.947H147.98Zm0,0" transform="translate(-131.625 -270.846)" fill="#bf5c24"/>
        <path id="Trazado_896512-2" data-name="Trazado 896512" d="M98.3,341.131H94.98v-4.974a1.658,1.658,0,0,1,3.316,0Zm0,0" transform="translate(-84.483 -297.53)" fill="#8a421a"/>
        <path id="Trazado_896513-2" data-name="Trazado 896513" d="M45.885,250.487H28.2a.221.221,0,0,1-.127-.4l8.842-6.269a.219.219,0,0,1,.255,0l8.842,6.269a.221.221,0,0,1-.127.4Zm0,0" transform="translate(-24.888 -216.833)" fill="#f04a41"/>
        <path id="Trazado_896514-2" data-name="Trazado 896514" d="M105.612,250.085l-8.842-6.269a.219.219,0,0,0-.254,0l-1.53,1.085,7.311,5.184a.221.221,0,0,1-.127.4h3.316a.221.221,0,0,0,.127-.4Zm0,0" transform="translate(-84.487 -216.832)" fill="#db443c"/>
        <path id="Trazado_896515-2" data-name="Trazado 896515" d="M55.248,406.657H14.682A7.182,7.182,0,0,1,7.5,399.476V394.5H62.43v4.976A7.182,7.182,0,0,1,55.248,406.657Zm0,0" transform="translate(-6.672 -350.899)" fill="#66cf32"/>
        <path id="Trazado_896516-2" data-name="Trazado 896516" d="M416.7,394.5v4.976a7.182,7.182,0,0,1-7.182,7.182h3.316a7.182,7.182,0,0,0,7.182-7.182V394.5Zm0,0" transform="translate(-364.259 -350.899)" fill="#5cba2d"/>
        <path id="Trazado_896517-2" data-name="Trazado 896517" d="M275,361h3.316v3.7H275Zm0,0" transform="translate(-244.607 -321.101)" fill="#d66724"/>
        <path id="Trazado_896518-2" data-name="Trazado 896518" d="M253.444,216.906h-9.614c-.208,0-.365-.133-.327-.277l4.62-17.328c.107-.4.921-.4,1.027,0l4.62,17.328C253.809,216.773,253.652,216.906,253.444,216.906Zm0,0" transform="translate(-216.587 -177.007)" fill="#6fe036"/>
        <path id="Trazado_896519-2" data-name="Trazado 896519" d="M281.791,216.629l-4.62-17.328c-.107-.4-.921-.4-1.027,0L275,203.592l3.476,13.036c.038.144-.119.277-.327.277h3.316C281.672,216.905,281.829,216.773,281.791,216.629Zm0,0" transform="translate(-244.607 -177.007)" fill="#66cf32"/>
        <path id="Trazado_896520-2" data-name="Trazado 896520" d="M395.512,361h3.316v3.7h-3.316Zm0,0" transform="translate(-351.8 -321.101)" fill="#d66724"/>
        <path id="Trazado_896521-2" data-name="Trazado 896521" d="M373.956,216.906h-9.614c-.208,0-.365-.133-.327-.277l4.62-17.328c.106-.4.92-.4,1.027,0l4.62,17.328C374.321,216.773,374.164,216.906,373.956,216.906Zm0,0" transform="translate(-323.779 -177.007)" fill="#6fe036"/>
        <path id="Trazado_896522-2" data-name="Trazado 896522" d="M402.3,216.629l-4.62-17.328c-.107-.4-.921-.4-1.027,0l-1.144,4.292,3.475,13.036c.038.144-.118.277-.326.277h3.316C402.184,216.905,402.341,216.773,402.3,216.629Zm0,0" transform="translate(-351.799 -177.007)" fill="#66cf32"/>
        <path id="Trazado_896523-2" data-name="Trazado 896523" d="M55.758,42.772h-6.1a25.632,25.632,0,0,0,4.315-11.918,3.588,3.588,0,0,0,2.613-3.375,3.53,3.53,0,0,0-2.748-3.439q-.065-.161-.143-.313A25.511,25.511,0,0,0,49.7,13.879a.829.829,0,1,0-1.374.927,23.87,23.87,0,0,1,3.229,6.986,4.047,4.047,0,0,0-1.941-.257,4.763,4.763,0,0,0-8.989-.707A4.776,4.776,0,0,0,35.77,24a3.521,3.521,0,0,0-1.836.215l-.568-2.131a1.4,1.4,0,0,0-2.629,0l-4.62,17.329a1,1,0,0,0,.178.873,1.2,1.2,0,0,0,.95.446h2.32v2.045H28.293a.829.829,0,0,0,0,1.658H54.929v4.147a6.36,6.36,0,0,1-6.353,6.353H8.01a6.36,6.36,0,0,1-6.353-6.353V44.43H24.741a.829.829,0,0,0,0-1.658H20.5V34.483H21a1.05,1.05,0,0,0,.607-1.907l-8.842-6.27a1.051,1.051,0,0,0-1.213,0l-.7.5V25.586h.387a.829.829,0,0,0,0-1.658H5.485a.829.829,0,0,0,0,1.658h.387v4.746L4.346,31.414a24.448,24.448,0,0,1-.2-3.12A24.133,24.133,0,0,1,7.209,16.512h6.932a.829.829,0,1,0,0-1.658H3.585A1.921,1.921,0,0,1,1.657,13a1.864,1.864,0,0,1,1.612-1.847,1.164,1.164,0,0,0,.951-.793,2.409,2.409,0,0,1,2.864-1.6A1.158,1.158,0,0,0,8.511,7.8a3.105,3.105,0,0,1,6.02-.544,1.16,1.16,0,0,0,1.293.781,3.107,3.107,0,0,1,3.519,2.341,1.158,1.158,0,0,0,1.47.837,1.863,1.863,0,0,1,2.4,1.757,1.816,1.816,0,0,1-.537,1.306,1.952,1.952,0,0,1-1.379.581h-3.6a.829.829,0,0,0,0,1.658h3.6a3.62,3.62,0,0,0,2.559-1.074,3.486,3.486,0,0,0-.425-5.283,3.547,3.547,0,0,0-2.61-.641,4.774,4.774,0,0,0-3.056-2.956A24.128,24.128,0,0,1,28.293,4.145a24.419,24.419,0,0,1,3.366.234,5.082,5.082,0,0,0,9.352,3.383,24.211,24.211,0,0,1,5.215,4.358.829.829,0,1,0,1.23-1.111,25.857,25.857,0,0,0-5.808-4.8,5.082,5.082,0,0,0-9.485-3.433,26.076,26.076,0,0,0-3.872-.29A25.768,25.768,0,0,0,15.669,5.782a4.763,4.763,0,0,0-8.7,1.273,4.077,4.077,0,0,0-4.223,2.5A3.528,3.528,0,0,0,0,13a3.6,3.6,0,0,0,3.585,3.514H5.329a25.886,25.886,0,0,0-2.5,15.979l-.121.086a1.05,1.05,0,0,0,.528,1.9c.165.671.359,1.337.576,1.989v6.3H.828A.829.829,0,0,0,0,43.6v4.976A8.02,8.02,0,0,0,8.01,56.588H48.576a8.02,8.02,0,0,0,8.011-8.011V43.6a.829.829,0,0,0-.829-.829Zm-18.9-2.045a1.2,1.2,0,0,0,.95-.447,1,1,0,0,0,.178-.872l-2.244-8.416h5.938l-2.244,8.416a1,1,0,0,0,.177.872,1.2,1.2,0,0,0,.95.447h2.32v2.045H34.538V40.728Zm4.384-1.658L45.37,23.585,49.5,39.07Zm9.487-1.821-1.668-6.255h3.232A24.016,24.016,0,0,1,50.728,37.248ZM49,40.728q-.532.885-1.143,1.727V40.728ZM35.776,25.693a1.17,1.17,0,0,0,.92-.1,1.158,1.158,0,0,0,.547-.734,3.107,3.107,0,0,1,3.515-2.342,1.156,1.156,0,0,0,1.3-.779,3.105,3.105,0,0,1,6.02.542,1.157,1.157,0,0,0,1.426.962,2.409,2.409,0,0,1,2.864,1.6,1.161,1.161,0,0,0,.951.795,1.865,1.865,0,0,1,1.613,1.847A1.921,1.921,0,0,1,53,29.335H48.618L46.684,22.08a1.4,1.4,0,0,0-2.629,0l-1.934,7.255H35.3l-.934-3.5a1.855,1.855,0,0,1,1.41-.14Zm-3.725-2.108,1.788,6.707a0,0,0,0,0,0,0l2.34,8.776H27.923Zm-.829,19.187V40.728H32.88v2.045Zm13.319,0V40.728H46.2v2.045ZM36.693,1.658a3.426,3.426,0,1,1-3.426,3.426A3.43,3.43,0,0,1,36.693,1.658ZM11.326,42.772V38.628a.829.829,0,1,1,1.658,0v4.145Zm-3.8-17.186H9.188V27.98L7.531,29.156Zm4.624,2.323,6.934,4.916H5.222ZM5.468,34.483H18.841v8.289h-4.2V38.628a2.487,2.487,0,1,0-4.973,0v4.145h-4.2Zm0,0"/>
        <path id="Trazado_896524-2" data-name="Trazado 896524" d="M84.384,428.419a.829.829,0,0,0-.829-.829h-21.2a.829.829,0,0,0,0,1.658h21.2A.829.829,0,0,0,84.384,428.419Zm0,0" transform="translate(-54.724 -380.332)"/>
        <path id="Trazado_896525-2" data-name="Trazado 896525" d="M383.139,429.248a.829.829,0,1,0,0-1.658h-6.606a.829.829,0,0,0,0,1.658Zm0,0" transform="translate(-334.18 -380.332)"/>
        <path id="Trazado_896526-2" data-name="Trazado 896526" d="M132.075,458.762a.829.829,0,0,0,0,1.658h7.153a.829.829,0,1,0,0-1.658Zm0,0" transform="translate(-116.741 -408.058)"/>
        <path id="Trazado_896527-2" data-name="Trazado 896527" d="M314.278,460.42a.829.829,0,0,0,0-1.658h-5.172a.829.829,0,0,0,0,1.658Zm0,0" transform="translate(-274.206 -408.058)"/>
      </g>
    </g>
  </g>
</svg>
