<svg xmlns="http://www.w3.org/2000/svg" xmlns:xlink="http://www.w3.org/1999/xlink" width="450.326" height="221.255" viewBox="0 0 450.326 221.255">
  <defs>
    <clipPath id="clip-path">
      <rect id="Rectángulo_35929" data-name="Rectángulo 35929" width="450.326" height="221.255" transform="translate(-78)" fill="#769671"/>
    </clipPath>
    <clipPath id="clip-path-2">
      <rect id="Rectángulo_401196" data-name="Rectángulo 401196" width="91.8" height="131.834" fill="#fff"/>
    </clipPath>
    <clipPath id="clip-path-3">
      <rect id="Rectángulo_401198" data-name="Rectángulo 401198" width="96.087" height="82.06" transform="translate(0 0)" fill="#fff"/>
    </clipPath>
  </defs>
  <g id="Enmascarar_grupo_1098683" data-name="Enmascarar grupo 1098683" transform="translate(78)" clip-path="url(#clip-path)">
    <g id="Grupo_1099541" data-name="Grupo 1099541" transform="translate(-392.484 -272.166)">
      <g id="Grupo_1099532" data-name="Grupo 1099532" transform="translate(12495.73 12919.136)">
        <g id="Grupo_1099032" data-name="Grupo 1099032" transform="translate(-11837.393 -12571.834)">
          <g id="Grupo_1099022" data-name="Grupo 1099022" clip-path="url(#clip-path-2)">
            <path id="Trazado_873001" data-name="Trazado 873001" d="M15.378,124.327q-1.038-35.4.808-70.8c.317-6.05.531-12.148,1.331-18.158q-.134,1-.268,1.994a42.708,42.708,0,0,1,2.609-10.349L19.1,28.8a25.624,25.624,0,0,1,2.381-4.437c.312-.458,1.212-1.423-.249.26.259-.3.5-.611.759-.906a21.622,21.622,0,0,1,1.889-1.88c.208-.185,1.408-1.142.344-.329-1.107.846.352-.243.562-.388q1.017-.7,2.089-1.32a44.192,44.192,0,0,1,4.814-2.369l-1.792.756a46.58,46.58,0,0,1,11.559-3.2l-1.993.268a37.225,37.225,0,0,1,9.561-.061l-1.994-.268a28.985,28.985,0,0,1,6.861,1.815L52.1,15.992a25.579,25.579,0,0,1,2.848,1.4q.733.424,1.436.9c.209.142.413.291.62.436,1.143.8-1.076-.919-.425-.325.864.789,1.74,1.544,2.537,2.407q.628.681,1.212,1.4c.164.2.8,1.007.051.052-.816-1.047.039.08.152.239a68.473,68.473,0,0,1,6.926,13.117L66.7,33.831A129.47,129.47,0,0,1,75.19,66.557q-.134-1-.268-1.994c2.315,17.532,2.032,35.26,1.652,52.9a7.5,7.5,0,1,0,15,0c.4-18.341.544-36.671-1.919-54.89a136.851,136.851,0,0,0-5.8-25.619c-3.054-9.012-6.946-18.113-13.049-25.5-12.4-15.015-34.66-13.621-50.417-5.2A33.576,33.576,0,0,0,8.981,16.16,34.189,34.189,0,0,0,3.675,28.452,86.653,86.653,0,0,0,1.859,42.166c-.335,4.858-.6,9.723-.836,14.587Q-.441,86.788.189,116.875q.081,3.726.189,7.452c.115,3.918,3.367,7.685,7.5,7.5,3.965-.178,7.623-3.3,7.5-7.5" fill="#fff"/>
            <path id="Trazado_873002" data-name="Trazado 873002" d="M37.569,118.975q-1.389-15.353-1.442-30.784-.021-7.646.293-15.286c.205-4.984.384-10.016,1.044-14.964q-.134,1-.268,1.994a31.717,31.717,0,0,1,2.029-7.8l-.756,1.792a19.754,19.754,0,0,1,1.426-2.7c.2-.314.435-.61.634-.925-1.254,1.979-.438.564.011.074q.5-.548,1.052-1.047c.509-.46,1.433-.771-.377.239.856-.478,1.615-1.051,2.52-1.459l-1.791.756a12.643,12.643,0,0,1,2.8-.806l-1.994.268a12.383,12.383,0,0,1,2.968-.03l-1.994-.268a13.873,13.873,0,0,1,3.209.859l-1.792-.756a15.911,15.911,0,0,1,2.645,1.428c.052.036.607.453.62.441-.059.052-1.433-1.2-.622-.456.426.389.853.77,1.253,1.187.356.371.679.766,1.015,1.153.579.669-.941-1.352-.48-.6.133.216.29.419.428.632a22.457,22.457,0,0,1,1.647,3.136l-.756-1.791a38.443,38.443,0,0,1,2.447,9.657q-.134-1-.268-1.994c1.227,9.242,1.721,18.637,2.137,27.946q.639,14.315.407,28.65c-.062,3.924,3.494,7.679,7.5,7.5a7.642,7.642,0,0,0,7.5-7.5q.294-18.651-.872-37.284c-.379-6.005-.793-12.031-1.506-18.008-.755-6.331-1.891-12.99-5.6-18.359-3.485-5.041-8.7-9.353-14.923-10.3a19.771,19.771,0,0,0-11.548,1.592,19.392,19.392,0,0,0-6.723,5.173A28.879,28.879,0,0,0,24.266,49.4a42.737,42.737,0,0,0-1.944,9.666c-.7,5.967-.875,12.03-1.049,18.032a351.411,351.411,0,0,0,1.3,41.88,8.053,8.053,0,0,0,2.2,5.3,7.619,7.619,0,0,0,5.3,2.2c3.76-.168,7.879-3.316,7.5-7.5" fill="#fff"/>
          </g>
        </g>
        <path id="Trazado_873038" data-name="Trazado 873038" d="M80.8,2.182c-25.952,11.232-50.937,27.634-66.529,52.3s-19.937,58.795-5.279,84.1c10.958,18.914,30.491,30.359,50.168,38,41.172,15.992,86.346,18.8,129.7,11.835,13.86-2.228,27.792-5.513,40.124-12.573S252,157.522,256.221,143.369c4.244-14.24,1.627-29.709-2.1-44.111-3.286-12.7-7.527-25.389-15.041-35.882-15.141-21.146-40.636-29.959-63.427-41C160.29,14.928,145.343,5.927,128.819,2.2,112.4-1.5,95.381.217,78.676,1.955" transform="translate(-12004 -12527.511)" fill="#148c8e" opacity="0.592"/>
      </g>
    </g>
    <g id="Grupo_1099542" data-name="Grupo 1099542" transform="translate(-1064.73 -3561.864)">
      <g id="Grupo_1099535" data-name="Grupo 1099535" transform="translate(12990.73 16548)">
        <g id="Grupo_1099034" data-name="Grupo 1099034" transform="translate(-11793.637 -13030.03)">
          <g id="Grupo_1099026" data-name="Grupo 1099026" clip-path="url(#clip-path-3)">
            <path id="Trazado_873004" data-name="Trazado 873004" d="M88.994,20.131A39.555,39.555,0,0,0,66.678,4.151,63.28,63.28,0,0,0,51.371,1.943a6.785,6.785,0,0,0-6.8-1.589C43.04.9,41.549,1.5,40.074,2.136q-2.768.159-5.529.373a8,8,0,0,0-5.3,2.2,7.861,7.861,0,0,0-2.18,4.616,76,76,0,0,0-6.61,5.1,65.14,65.14,0,0,0-8.484,8.9A61.519,61.519,0,0,0,4.045,35.681,40.386,40.386,0,0,0,.009,51.541a30.628,30.628,0,0,0,3.328,14.5C7.905,75.1,17.516,79.315,27.084,80.7a122.474,122.474,0,0,0,31.06.674,115.35,115.35,0,0,0,15.917-2.689c5.033-1.289,10.16-3.511,13.748-7.392a30.125,30.125,0,0,0,6.815-13.685A53.3,53.3,0,0,0,96.08,44.575c-.141-8.486-2.321-17.335-7.086-24.444m-71.338,40.7a2.259,2.259,0,0,0,.2.22.877.877,0,0,1-.2-.22M80.771,50.443a38.478,38.478,0,0,1-1.945,7.525c-.276.578-.569,1.148-.9,1.7-.18.3-.393.584-.594.874-.132.147-.263.294-.4.435-.292.3-.674.566-.98.866-.109.071-.215.145-.325.214a18.921,18.921,0,0,1-1.9,1.019,62.332,62.332,0,0,1-13.234,3.009,118.157,118.157,0,0,1-29.957.068,41.464,41.464,0,0,1-8.1-1.993,21.464,21.464,0,0,1-2.176-1.143c-.6-.367-2.127-1.755-.407-.175-.431-.4-.892-.752-1.312-1.165-.373-.367-.716-.758-1.059-1.152-.052-.093-.1-.183-.147-.252a19.2,19.2,0,0,1-1.207-2.2,23.536,23.536,0,0,1-.987-3.659,25.924,25.924,0,0,1,0-4.561,33.751,33.751,0,0,1,1.785-6.359,53.047,53.047,0,0,1,5.629-9.5c.062-.084.156-.2.258-.323l-.229.261c.261-.3.5-.623.745-.93q.879-1.077,1.8-2.115,1.916-2.15,4.018-4.123c1.324-1.243,2.707-2.408,4.116-3.551q.553-.414,1.118-.816,1.131-.808,2.3-1.569a64.98,64.98,0,0,1,6.811-3.86,88.385,88.385,0,0,1,13.317.4,44.687,44.687,0,0,1,9.531,2.508,32.272,32.272,0,0,1,4.231,2.355c.359.239.707.492,1.058.743l.165.142a28.477,28.477,0,0,1,2.092,1.959c.439.453.843.932,1.249,1.411.076.086.163.186.248.288.126.147.249.3.378.44-.086-.1-.161-.18-.233-.26.046.058.089.114.123.162q.408.58.79,1.179a33.258,33.258,0,0,1,2.111,3.877,40.188,40.188,0,0,1,2.26,8.336,45.76,45.76,0,0,1-.031,9.934" fill="#fff"/>
            <path id="Trazado_873005" data-name="Trazado 873005" d="M22.8,33.669c.984-1.124.423-.509,0,0" fill="#fff"/>
            <path id="Trazado_873006" data-name="Trazado 873006" d="M75.518,26.955c-.046-.058-.094-.119-.146-.18-.082-.1-.166-.191-.248-.288-.292-.331-.421-.443.394.468" fill="#fff"/>
          </g>
        </g>
        <path id="Trazado_873036" data-name="Trazado 873036" d="M80.8,2.182c-25.952,11.232-50.937,27.634-66.529,52.3s-19.937,58.795-5.279,84.1c10.958,18.914,30.491,30.359,50.168,38,41.172,15.992,86.346,18.8,129.7,11.835,13.86-2.228,27.792-5.513,40.124-12.573S252,157.522,256.221,143.369c4.244-14.24,1.627-29.709-2.1-44.111-3.286-12.7-7.527-25.389-15.041-35.882-15.141-21.146-40.636-29.959-63.427-41C160.29,14.928,145.343,5.927,128.819,2.2,112.4-1.5,95.381.217,78.676,1.955" transform="translate(-12004 -13103)" fill="#fdb12a" opacity="0.592"/>
      </g>
    </g>
    <g id="Grupo_1111711" data-name="Grupo 1111711" transform="translate(-271.737 -36.362)">
      <g id="Grupo_1111703" data-name="Grupo 1111703" transform="translate(363.113 293.873)">
        <g id="Grupo_1111701" data-name="Grupo 1111701" transform="translate(0 29.214)">
          <path id="Trazado_896881" data-name="Trazado 896881" d="M391.591,454.278l-5.973-79.517L377.645,268.6l33.156,4.02s-8.675,80.6-9.455,87.229c0,0,3.119,10.138,5.069,16.378s-3.524,64.259-4.492,77.167c0,0,3.748,3.564,4.333,6.488s-.584,7.408-.584,7.408H360.633c-2.535,0-4.095-5.654,3.7-6.434S385.7,456.868,391.591,454.278Z" transform="translate(-355.76 -268.596)" fill="#f69872"/>
          <path id="Trazado_896882" data-name="Trazado 896882" d="M367.478,422.888s14.206-1.591,15.013,7.182h7.534s-5.23-10.239-8.883-10.245C371.893,419.806,367.478,422.888,367.478,422.888Z" transform="translate(-353.567 -231.379)" fill="#e83c54"/>
          <path id="Trazado_896883" data-name="Trazado 896883" d="M356.314,428.047h52.994s.329,3.509-1.621,4.485-47.669,0-49.424,0S356.314,428.047,356.314,428.047Z" transform="translate(-356.314 -229.356)" fill="#5e4737"/>
        </g>
        <g id="Grupo_1111702" data-name="Grupo 1111702" transform="translate(16.812)">
          <path id="Trazado_896884" data-name="Trazado 896884" d="M370.723,245.152l2.45,90.2a128.838,128.838,0,0,0,34.143,5.933l6.086-90Z" transform="translate(-369.58 -245.152)" fill="#afdcf1"/>
          <path id="Trazado_896885" data-name="Trazado 896885" d="M375.414,300.66c-.708,1.472,7.514,2.842,10.765,3.693,3.737.978,15.721,2.682,16.305,1.627C401.644,301.813,375.925,300.395,375.414,300.66Z" transform="translate(-368.436 -231.499)" fill="#45565e" opacity="0.05"/>
          <path id="Trazado_896886" data-name="Trazado 896886" d="M370.723,245.152l12.4,1.781s-2.8,32.6-3.563,35.61-7.625,7.229-7.625,7.229Z" transform="translate(-369.58 -245.152)" fill="#a1cbde"/>
          <path id="Trazado_896887" data-name="Trazado 896887" d="M393.97,339.825s3.86-75.976,5.252-90.728l8.46,1.215-6.086,90Z" transform="translate(-363.859 -244.181)" fill="#45565e" opacity="0.05"/>
          <path id="Trazado_896888" data-name="Trazado 896888" d="M409.085,328.253c-13.2.45-26.249-1.125-38.765-6.092-.208-4.407-.307-9.789-.515-14.2a115.388,115.388,0,0,0,40.983,7.655C410.693,319.905,409.18,323.968,409.085,328.253Z" transform="translate(-369.806 -229.694)" fill="#cde6f1"/>
          <path id="Trazado_896889" data-name="Trazado 896889" d="M371.824,295.2s7.125-2.186,9.165-5.905,6.141-42.223,6.141-42.223" transform="translate(-369.309 -244.679)" fill="none" stroke="#cff0ff" stroke-miterlimit="10" stroke-width="0.25"/>
        </g>
      </g>
      <g id="Grupo_1111706" data-name="Grupo 1111706" transform="translate(420.907 293.873)">
        <g id="Grupo_1111704" data-name="Grupo 1111704" transform="translate(5.594 29.214)">
          <path id="Trazado_896890" data-name="Trazado 896890" d="M426.393,454.278l5.973-79.517L440.339,268.6l-33.156,4.02s8.675,80.6,9.455,87.229c0,0-3.119,10.138-5.069,16.378s3.524,64.259,4.491,77.167c0,0-3.748,3.564-4.333,6.488s.584,7.408.584,7.408H457.35c2.535,0,4.095-5.654-3.7-6.434S432.284,456.868,426.393,454.278Z" transform="translate(-407.183 -268.596)" fill="#f69872"/>
          <path id="Trazado_896891" data-name="Trazado 896891" d="M444.643,422.888s-14.206-1.591-15.013,7.182H422.1s5.23-10.239,8.883-10.245C440.227,419.806,444.643,422.888,444.643,422.888Z" transform="translate(-403.513 -231.379)" fill="#e83c54"/>
          <path id="Trazado_896892" data-name="Trazado 896892" d="M461.824,428.047H408.83s-.329,3.509,1.621,4.485,47.669,0,49.424,0S461.824,428.047,461.824,428.047Z" transform="translate(-406.783 -229.356)" fill="#5e4737"/>
        </g>
        <g id="Grupo_1111705" data-name="Grupo 1111705">
          <path id="Trazado_896893" data-name="Trazado 896893" d="M445.374,245.152l-2.45,90.2a128.838,128.838,0,0,1-34.143,5.933l-6.086-90Z" transform="translate(-402.694 -245.152)" fill="#afdcf1"/>
          <path id="Trazado_896894" data-name="Trazado 896894" d="M437.691,300.576c.708,1.472-7.513,2.842-10.765,3.693-3.737.978-15.721,2.682-16.305,1.627C411.461,301.729,437.179,300.311,437.691,300.576Z" transform="translate(-400.743 -231.52)" fill="#45565e" opacity="0.05"/>
          <path id="Trazado_896895" data-name="Trazado 896895" d="M439.394,245.152l-12.4,1.781s2.8,32.6,3.563,35.61,7.625,7.229,7.625,7.229Z" transform="translate(-396.714 -245.152)" fill="#a1cbde"/>
          <path id="Trazado_896896" data-name="Trazado 896896" d="M416.406,339.825s-3.86-75.976-5.252-90.728l-8.46,1.215,6.086,90Z" transform="translate(-402.694 -244.181)" fill="#45565e" opacity="0.05"/>
          <path id="Trazado_896897" data-name="Trazado 896897" d="M406.676,328.253c13.2.45,26.249-1.125,38.765-6.092.208-4.407.307-9.789.515-14.2a115.388,115.388,0,0,1-40.983,7.655C405.069,319.905,406.58,323.968,406.676,328.253Z" transform="translate(-402.133 -229.694)" fill="#cde6f1"/>
          <path id="Trazado_896898" data-name="Trazado 896898" d="M438.866,295.2s-7.125-2.186-9.165-5.905-6.141-42.223-6.141-42.223" transform="translate(-397.559 -244.679)" fill="none" stroke="#cff0ff" stroke-miterlimit="10" stroke-width="0.25"/>
        </g>
      </g>
      <g id="Grupo_1111707" data-name="Grupo 1111707" transform="translate(328.687 133.976)">
        <path id="Trazado_896899" data-name="Trazado 896899" d="M419.481,218.5c-1.205,5.014-2.977,10.056-6.363,13.949-12.331,14.176-44.011,14.067-65.308,4.744-11.814-5.173-16.2-12.632-17.9-21.864-3.764-20.462,4.4-80.443,17.123-90.131.566-.424,1.16-.845,1.792-1.244a45.929,45.929,0,0,1,15.136-5.671c18.43-3.792,42.549-.421,50.4,13.334,2.783,4.855,3.244,10.657,3.465,16.248C418.754,170.644,424.823,196.19,419.481,218.5Z" transform="translate(-328.612 -116.834)" fill="#804223"/>
        <path id="Trazado_896900" data-name="Trazado 896900" d="M363.322,121.292s9.358,3.781,10.252,3.655,12.141-2.221,12.141-2.221l-5.094-3.559,2.781-.486s5.678,3.73,6.631,4.442-14.736,5.458-17.069,5.317-12.713-5.489-12.713-5.489S362.452,121.68,363.322,121.292Z" transform="translate(-320.919 -116.379)" fill="#5e2b0f"/>
        <path id="Trazado_896901" data-name="Trazado 896901" d="M365.263,202.41c-1.373,16.389-10.815,29.908-19.971,30.357a8.237,8.237,0,0,1-1.966-.111c-5.44-.876-10.547-6.7-13.55-19.661a70.7,70.7,0,0,1-1.088-14.463c.045-23.014,5.049-61.573,18.421-74.642,2.89-2.817,7.812-1.8,11.07.242a15.256,15.256,0,0,1,1.7,1.246c.156.143.3.275.439.407,5.5,5.262,7.362,46.761,4.984,76.044C365.3,202.027,365.28,202.213,365.263,202.41Z" transform="translate(-328.687 -115.524)" fill="#914b29"/>
        <path id="Trazado_896902" data-name="Trazado 896902" d="M343.214,176.037a485.114,485.114,0,0,0-.717,56.34,8.237,8.237,0,0,1-1.966-.111,486.818,486.818,0,0,1,1.155-62.109c1.241-14.736,1.359-36.068,13.7-46.416a15.256,15.256,0,0,1,1.7,1.246c-6.131,5.029-9.149,13.039-10.632,20.983C344.609,155.834,343.931,166.042,343.214,176.037Z" transform="translate(-325.894 -115.134)" fill="#5e2b0f"/>
        <path id="Trazado_896903" data-name="Trazado 896903" d="M365.263,187.327c-2.292,27.378-27.115,46.752-35.488,10.586a70.7,70.7,0,0,1-1.088-14.463,95.4,95.4,0,0,0,36.618,3.3C365.3,186.943,365.28,187.13,365.263,187.327Z" transform="translate(-328.687 -100.44)" fill="#5e2b0f"/>
      </g>
      <path id="Trazado_896904" data-name="Trazado 896904" d="M395.4,123.19l-3.335,158.872s8.628,2.284,14.858,2.077a139.37,139.37,0,0,0,16.2-2.077l-3.146-160.071Z" transform="translate(15.596 18.411)" fill="#43a390"/>
      <g id="Grupo_1111708" data-name="Grupo 1111708" transform="translate(351.129 126.671)">
        <path id="Trazado_896905" data-name="Trazado 896905" d="M398.9,291.317l3.335-168.364s-31.4,3.052-36.387,5.989,3.323,162.375,3.323,162.375S377.813,296.134,398.9,291.317Z" transform="translate(-342.375 -108.023)" fill="#7e6a21"/>
        <path id="Trazado_896906" data-name="Trazado 896906" d="M370.172,127.759s-11.156,6.69-23.427,116.964c-1.561,14.027,34.579,31.389,34.579,31.389S371.835,162.2,370.172,127.759Z" transform="translate(-346.697 -106.841)" fill="#7e6a21"/>
        <path id="Trazado_896907" data-name="Trazado 896907" d="M364.558,128.433s13.505,63.075,13.057,68.057c-.623,6.93-8.911,13.806-8.911,13.806s-.619,13.068-.786,16.121c0,0,19.9-14.284,18.853-25.138-1.291-13.445-11.14-77.224-11.14-77.224S366.878,125.585,364.558,128.433Z" transform="translate(-342.301 -107.752)" fill="#773713"/>
        <path id="Trazado_896908" data-name="Trazado 896908" d="M360.939,216.238c4.51,6.711,19.052,15.469,24.386,18.26" transform="translate(-343.192 -85.066)" fill="none" stroke="#9e842a" stroke-miterlimit="10" stroke-width="0.25"/>
        <path id="Trazado_896909" data-name="Trazado 896909" d="M364.558,143.505a202.737,202.737,0,0,1,4.637,40.5c.091,21.248-2.486,56.842-2.486,56.842" transform="translate(-342.301 -102.965)" fill="none" stroke="#9e842a" stroke-miterlimit="10" stroke-width="0.25"/>
        <path id="Trazado_896910" data-name="Trazado 896910" d="M447.522,291.317s8.308-159.438,3.323-162.375-36.387-5.989-36.387-5.989l3.335,168.364S433.508,296.446,447.522,291.317Z" transform="translate(-330.021 -108.023)" fill="#7e6a21"/>
        <path id="Trazado_896911" data-name="Trazado 896911" d="M448.514,127.759s8.51,2.522,12.248,29.52,6.854,87.444-2.907,93.146c-5.072,2.962-18.277.837-33.931-38.705l12.539-4.628S437.916,141.588,448.514,127.759Z" transform="translate(-327.691 -106.841)" fill="#7e6a21"/>
        <path id="Trazado_896912" data-name="Trazado 896912" d="M447.019,232.075a64.905,64.905,0,0,1-23.211-36.585" transform="translate(-327.72 -90.172)" fill="none" stroke="#9e842a" stroke-miterlimit="10" stroke-width="0.25"/>
        <path id="Trazado_896913" data-name="Trazado 896913" d="M446.274,133.128s-13.505,21.1-6.029,82.838" transform="translate(-324.23 -105.519)" fill="none" stroke="#9e842a" stroke-miterlimit="10" stroke-width="0.25"/>
        <path id="Trazado_896914" data-name="Trazado 896914" d="M429.975,190.63l1.247-.369a9.6,9.6,0,0,1,3.874-.587,3.28,3.28,0,0,1,2.892,2.308c.258,1.227-.459,2.426-1.144,3.475a163.181,163.181,0,0,0,14.284,16.269" transform="translate(-326.202 -91.613)" fill="none" stroke="#9e842a" stroke-miterlimit="10" stroke-width="0.25"/>
        <path id="Trazado_896915" data-name="Trazado 896915" d="M443.45,254.341,427.667,226.2l-7.062,3.66,15.337,28.635Z" transform="translate(-328.508 -82.615)" fill="#8f7826"/>
        <path id="Trazado_896916" data-name="Trazado 896916" d="M376.236,127.444c-.172-3.332,2.538-6.213,4.623-8.725,3.958-4.766,9.986-7.075,15.916-7.568,5.833-.483,8.7.046,14.363,1.14,5.662-1.094,8.529-1.624,14.362-1.14,5.93.491,11.959,2.8,15.916,7.568,2.086,2.512,4.785,5.393,4.623,8.725-5.566,114.849-19.874,114.7-19.874,114.7-1.189-27.848-2.25-114.059-2.3-117.441l-24.573,1.2c-.051,3.381-1.123,88.889-2.312,116.737C396.981,242.638,382.047,239.914,376.236,127.444Z" transform="translate(-339.429 -110.972)" fill="#f0bb6b"/>
        <path id="Trazado_896917" data-name="Trazado 896917" d="M370.2,254.341,385.987,226.2l7.06,3.66-15.337,28.635Z" transform="translate(-340.912 -82.615)" fill="#8f7826"/>
      </g>
      <path id="Trazado_896918" data-name="Trazado 896918" d="M431.171,122.155c-1.269-3.894-19.8-4.206-19.8-4.206s-27.258,2.121-28.349,13.4c-.947,9.793,1.667,39.719,2.653,68.539l2.643-.6s-2.255-60.233-1.131-68.463c.745-5.452,24.34-7.422,24.34-7.422s13.915-.761,16.394.784,4.032,55.819-1.832,72.363l4.078.091s2.88-11.711,4.036-36.321S432.556,126.406,431.171,122.155Z" transform="translate(13.323 17.416)" fill="#573a33"/>
      <g id="Grupo_1111709" data-name="Grupo 1111709" transform="translate(393.744 47.179)">
        <path id="Trazado_896919" data-name="Trazado 896919" d="M419.311,123.716s-2.235,13.878-11.883,13.878c-9.048,0-12.69-12.679-12.69-12.679V114.98h23.086l1,5.89Z" transform="translate(-377.489 -30.493)" fill="#ed936e"/>
        <path id="Trazado_896920" data-name="Trazado 896920" d="M432.362,109.961c1.169-4.021,4.952-30.009,5.695-41.818.127-2.024-5.727-3.814-7.287-3.884.925-2.653-1.006-5.6-3.489-6.84s-5.362-1.252-8.126-1.433a51.826,51.826,0,0,1-22.3-7.032c-.1,1.494-.331,3.235-.432,4.73l-11.666-6.506a19.637,19.637,0,0,0,5.027,17.432c-2.537-.806-8.046.952-8.512,4.324-1.772,2.74,3.138,32.765,4.619,39.108,3.224,13.806,14.478,19.707,24.822,19.9C424.164,128.188,428.409,123.561,432.362,109.961Z" transform="translate(-380.896 -47.179)" fill="#623329"/>
        <path id="Trazado_896921" data-name="Trazado 896921" d="M420.126,96.111a20.98,20.98,0,0,0,4.527-1.225,4.185,4.185,0,0,0,1.834-1.171,3.7,3.7,0,0,0,.545-2.245,15.292,15.292,0,0,0-.371-4.638,2.279,2.279,0,0,0-.581-1.078,3.011,3.011,0,0,0-2.4-.476,32.382,32.382,0,0,0-3.224.589C419.417,89.344,420.164,92.516,420.126,96.111Z" transform="translate(-371.296 -37.815)" fill="#f69872"/>
        <path id="Trazado_896922" data-name="Trazado 896922" d="M421.632,87.742a2.191,2.191,0,0,1,1.53-.928,1.659,1.659,0,0,1,1.4.95,4.228,4.228,0,0,1,.378,1.723c.022.379.036.758.037,1.136a2.092,2.092,0,0,1-.192,1.065.771.771,0,0,1-.921.386,2.044,2.044,0,0,1-.335-.233.989.989,0,0,0-1.1-.074.667.667,0,0,0-.108,1.008c.136.115.343.186.371.361.025.152-.106.282-.224.381-.41.341-.928.707-1.432.53a1.056,1.056,0,0,1-.611-.705,3.14,3.14,0,0,1-.087-.959C420.365,90.458,420.335,89.275,421.632,87.742Z" transform="translate(-371.19 -37.425)" fill="#fa654d"/>
        <path id="Trazado_896923" data-name="Trazado 896923" d="M389.537,96.111a21,21,0,0,1-4.527-1.225,4.185,4.185,0,0,1-1.834-1.171,3.7,3.7,0,0,1-.545-2.245A15.292,15.292,0,0,1,383,86.831a2.279,2.279,0,0,1,.581-1.078,3.009,3.009,0,0,1,2.4-.476,32.4,32.4,0,0,1,3.225.589C390.248,89.344,389.5,92.516,389.537,96.111Z" transform="translate(-380.473 -37.815)" fill="#f69872"/>
        <path id="Trazado_896924" data-name="Trazado 896924" d="M387.536,87.742a2.191,2.191,0,0,0-1.53-.928,1.659,1.659,0,0,0-1.4.95,4.228,4.228,0,0,0-.378,1.723c-.022.379-.036.758-.037,1.136a2.092,2.092,0,0,0,.192,1.065.771.771,0,0,0,.921.386,2.046,2.046,0,0,0,.335-.233.989.989,0,0,1,1.1-.074.667.667,0,0,1,.108,1.008c-.136.115-.343.186-.371.361-.025.152.106.282.224.381.41.341.928.707,1.432.53a1.056,1.056,0,0,0,.611-.705,3.14,3.14,0,0,0,.087-.959C388.8,90.458,388.835,89.275,387.536,87.742Z" transform="translate(-380.084 -37.425)" fill="#fa654d"/>
        <path id="Trazado_896925" data-name="Trazado 896925" d="M426.264,119.576s2.992-15.161,5.6-45.421c0,0,2.275-14.356-27.452-13.044-18.988.837-18.709,19.817-18.709,19.817l5.322,38.649c1.358,8.687,4.994,11.758,16.958,11.758C420.612,131.335,423.408,131.341,426.264,119.576Z" transform="translate(-379.712 -43.771)" fill="#f69872"/>
        <path id="Trazado_896926" data-name="Trazado 896926" d="M396.7,103.691l16.836-.125s.355,6.057-8.076,6.174C396.763,109.863,396.7,103.691,396.7,103.691Z" transform="translate(-377.006 -33.302)" fill="#fff"/>
        <path id="Trazado_896927" data-name="Trazado 896927" d="M397.934,88.67c-3.782-.01-3.8,5.854-.016,5.865S401.716,88.68,397.934,88.67Z" transform="translate(-377.403 -36.968)" fill="#382420"/>
        <path id="Trazado_896928" data-name="Trazado 896928" d="M400.568,83.468a2.3,2.3,0,0,0-2.8-1.588l-4.042,1.265a2.275,2.275,0,0,0,1.209,4.386l4.042-1.265A2.322,2.322,0,0,0,400.568,83.468Z" transform="translate(-378.148 -38.661)" fill="#623329"/>
        <path id="Trazado_896929" data-name="Trazado 896929" d="M410.867,88.67c3.782-.01,3.8,5.854.016,5.865S407.085,88.68,410.867,88.67Z" transform="translate(-374.216 -36.968)" fill="#382420"/>
        <path id="Trazado_896930" data-name="Trazado 896930" d="M408.808,83.468a2.3,2.3,0,0,1,2.8-1.588l4.042,1.265a2.275,2.275,0,0,1-1.209,4.386L410.4,86.267A2.322,2.322,0,0,1,408.808,83.468Z" transform="translate(-374.046 -38.661)" fill="#623329"/>
        <path id="Trazado_896931" data-name="Trazado 896931" d="M407.294,97.993c2.546,1.393.192,5.475-2.449,5.475-3.207,0-5.186-4.851-2.657-5.591a20.112,20.112,0,0,1,.991-5.459c.624-1.379,1.713-2.157,2.574-1.358a4.863,4.863,0,0,1,1.087,2.6A38.917,38.917,0,0,1,407.294,97.993Z" transform="translate(-375.939 -36.459)" fill="#fa654d"/>
        <path id="Trazado_896932" data-name="Trazado 896932" d="M393.558,73.4c.652,2.32,2.851,3.839,5.016,4.9A31.642,31.642,0,0,0,421.6,80.116a33.785,33.785,0,0,1-2.846-4.8,16.879,16.879,0,0,0,9.565,1.593c-.809,4.779-2.055,21.443.587,22.29,2.354.754,3.136-12.936,3.556-16,.566-4.133,4.48-22.637-18.728-23.991-23.161-1.352-27.918,14.787-28.094,16.566-.305,3.059-.162,24.05,2.694,24.05S393.162,80.227,393.558,73.4Z" transform="translate(-379.756 -44.24)" fill="#623329"/>
      </g>
      <path id="Trazado_896933" data-name="Trazado 896933" d="M430.537,179.861s-2.53-2.214-3.855-2.417-4.427,1.105-4.427,1.105l1.1,3.105Z" transform="translate(23.027 32.052)" fill="#ed936e"/>
      <g id="Grupo_1111710" data-name="Grupo 1111710" transform="translate(396.774 197.421)">
        <path id="Trazado_896934" data-name="Trazado 896934" d="M434.743,205.368l-44.3,5.665a3.036,3.036,0,0,1-3.4-2.626l-3.7-28.936a3.036,3.036,0,0,1,2.625-3.4l44.3-5.665a3.036,3.036,0,0,1,3.4,2.626l3.7,28.936A3.034,3.034,0,0,1,434.743,205.368Z" transform="translate(-383.327 -167.1)" fill="#f5e6e9"/>
        <rect id="Rectángulo_405172" data-name="Rectángulo 405172" width="50.726" height="20.9" transform="translate(0.529 16.492) rotate(-7.285)" fill="#c26e34"/>
        <path id="Trazado_896935" data-name="Trazado 896935" d="M426.3,193.426l.644-.082-2.031-15.882-.644.082a2.492,2.492,0,0,0-2.156,2.788l1.4,10.937A2.494,2.494,0,0,0,426.3,193.426Z" transform="translate(-373.786 -165.359)" fill="#804922"/>
        <circle id="Elipse_12096" data-name="Elipse 12096" cx="14.79" cy="14.79" r="14.79" transform="translate(8.786 13.62) rotate(-16.529)" fill="#3c404b"/>
        <path id="Trazado_896936" data-name="Trazado 896936" d="M420.646,187.616a13.054,13.054,0,1,1-14.6-11.293A13.051,13.051,0,0,1,420.646,187.616Z" transform="translate(-380.542 -165.665)" fill="#686866"/>
        <path id="Trazado_896937" data-name="Trazado 896937" d="M414.209,187.233a7.641,7.641,0,1,1-8.548-6.611A7.64,7.64,0,0,1,414.209,187.233Z" transform="translate(-379.473 -164.596)" fill="#b1b0c2"/>
        <path id="Trazado_896938" data-name="Trazado 896938" d="M410.952,187.039a4.9,4.9,0,1,1-5.484-4.24A4.9,4.9,0,0,1,410.952,187.039Z" transform="translate(-378.932 -164.055)" fill="#18191d"/>
        <path id="Trazado_896939" data-name="Trazado 896939" d="M402.919,182.774a1.92,1.92,0,1,1-2.148-1.661A1.92,1.92,0,0,1,402.919,182.774Z" transform="translate(-379.447 -164.464)" fill="#fff" opacity="0.3"/>
        <path id="Trazado_896940" data-name="Trazado 896940" d="M391.417,177.759a1.743,1.743,0,1,1-1.95-1.508A1.744,1.744,0,0,1,391.417,177.759Z" transform="translate(-382.191 -165.66)" fill="#3c404b"/>
        <path id="Trazado_896941" data-name="Trazado 896941" d="M387.878,198.32l-1.867.238-2.031-15.882,1.865-.238a2.492,2.492,0,0,1,2.787,2.156l1.4,10.937A2.489,2.489,0,0,1,387.878,198.32Z" transform="translate(-383.166 -164.139)" fill="#804922"/>
        <rect id="Rectángulo_405173" data-name="Rectángulo 405173" width="9.444" height="2.151" transform="translate(3.212 5.677) rotate(-7.285)" fill="#bfc1c0"/>
        <rect id="Rectángulo_405174" data-name="Rectángulo 405174" width="8.167" height="0.766" transform="translate(4.155 8.01) rotate(-7.285)" fill="#2d333f"/>
        <rect id="Rectángulo_405175" data-name="Rectángulo 405175" width="4.285" height="2.151" transform="translate(3.23 5.639) rotate(-7.291)" fill="#e5e8e7" opacity="0.2"/>
        <rect id="Rectángulo_405176" data-name="Rectángulo 405176" width="8.906" height="0.285" transform="translate(3.443 5.357) rotate(-7.285)" fill="#3c404b"/>
        <rect id="Rectángulo_405177" data-name="Rectángulo 405177" width="8.906" height="0.285" transform="translate(3.752 7.775) rotate(-7.285)" fill="#3c404b"/>
        <path id="Trazado_896942" data-name="Trazado 896942" d="M415.246,172.61l-20.072,2.567.874-3.254a3.818,3.818,0,0,1,3.2-2.8l10.523-1.346a3.82,3.82,0,0,1,3.806,1.9Z" transform="translate(-380.411 -167.749)" fill="#f5e6e9"/>
        <path id="Trazado_896943" data-name="Trazado 896943" d="M409.353,172.41l-9.578,1.225a1.523,1.523,0,0,1-1.7-1.317h0a1.523,1.523,0,0,1,1.317-1.7l9.579-1.225a1.52,1.52,0,0,1,1.7,1.317h0A1.522,1.522,0,0,1,409.353,172.41Z" transform="translate(-379.701 -167.348)" fill="#686866"/>
      </g>
      <path id="Trazado_896944" data-name="Trazado 896944" d="M434.46,190.916c-.324-2.989-1.084-11.206-1.381-11.3-1.615-.513-9.61-.349-13.774.627-1.526.543.227,2.273.034,3.3a3.591,3.591,0,0,0,.025,2.34c.176.48.553.921.5,1.429-.05.471-.452.814-.687,1.225-.844,1.479.74,3.3,2.4,3.668s3.416-.064,5.088.253c-.292,4.518.643,11.853,5.089,11.282,3.968-.508,3.128-4.554,3.237-6.137A41.279,41.279,0,0,0,434.46,190.916Z" transform="translate(22.146 32.522)" fill="#f69872"/>
    </g>
  </g>
</svg>
