<svg xmlns="http://www.w3.org/2000/svg" width="83.899" height="83.899" viewBox="0 0 83.899 83.899">
  <g id="_x30_7_x2C__Sustainability_x2C__lifecycle_x2C__sustainable_x2C__benefits_x2C__product_x2C__circular_economy" transform="translate(-1 -1)">
    <g id="Grupo_1111714" data-name="Grupo 1111714" transform="translate(1 1)">
      <path id="Trazado_896945" data-name="Trazado 896945" d="M150.02,337.268l3.715,8.483,13.72-1.592,10.759,3.005,6.676-9.9c-9.424-8.352-25.428-8.367-34.869,0Z" transform="translate(-125.505 -276.711)" fill="#e6b973"/>
      <path id="Trazado_896946" data-name="Trazado 896946" d="M235.113,161c2.272,0,4.113,3.315,4.113,7.4a10.371,10.371,0,0,1-1.571,5.822s0,0,0,0q-.286.321-.541.648c-2.66,2.66-6.111-.661-6.111-6.472C231,164.315,232.841,161,235.113,161Z" transform="translate(-193.163 -134.679)" fill="#00db3a"/>
      <path id="Trazado_896947" data-name="Trazado 896947" d="M267.223,219.939c1.606,1.607.564,5.253-2.328,8.143s-6.536,3.933-8.141,2.326a2.786,2.786,0,0,1-.753-1.967c0-.054,0-.081,0-.183a8.525,8.525,0,0,1,2-4.771,5.225,5.225,0,0,0,.541-.648s0,0,0,0q.257-.289.538-.571c2.89-2.892,6.536-3.933,8.143-2.328Z" transform="translate(-214.051 -183.292)" fill="#92f934"/>
      <path id="Trazado_896948" data-name="Trazado 896948" d="M195.172,228.65a2.91,2.91,0,0,1-.753,2.009c-1.606,1.607-5.251.564-8.141-2.326s-3.933-6.536-2.328-8.143,5.253-.564,8.143,2.328c3.2,3.2,3.074,5.975,3.08,5.991,0,.055,0,.08,0,.141Z" transform="translate(-153.222 -183.5)" fill="#92f934"/>
      <path id="Trazado_896949" data-name="Trazado 896949" d="M91.609,45.547V57.062H84.536A33.521,33.521,0,0,1,78.825,70.8l4.851,4.851-8.141,8.143L70.662,78.92a33.522,33.522,0,0,1-13.6,5.616v7.072H45.547V84.536a33.529,33.529,0,0,1-13.833-5.779l-4.919,4.919-8.143-8.141,4.97-4.97a33.524,33.524,0,0,1-5.549-13.5H11V45.547h7.072A33.521,33.521,0,0,1,23.784,31.81l-5.016-5.016,8.141-8.143,5.037,5.037a33.522,33.522,0,0,1,13.6-5.616V11H57.062v7.072A33.517,33.517,0,0,1,70.7,23.716l4.948-4.948,8.143,8.141-4.94,4.94a33.515,33.515,0,0,1,5.684,13.7ZM76.8,51.3A25.5,25.5,0,1,0,51.3,76.8,25.5,25.5,0,0,0,76.8,51.3Z" transform="translate(-9.355 -9.355)" fill="#6e788b"/>
      <g id="Grupo_1111713" data-name="Grupo 1111713" transform="translate(0)">
        <path id="Trazado_896950" data-name="Trazado 896950" d="M84.9,50.352V35.547H77.541A34.86,34.86,0,0,0,72.623,23.7l5.141-5.141L67.3,8.086l-5.152,5.152a34.862,34.862,0,0,0-11.791-4.88V1H35.547V8.358A34.864,34.864,0,0,0,23.8,13.211L18.555,7.97,8.086,18.439,13.3,23.655A34.857,34.857,0,0,0,8.358,35.547H1V50.352H8.358A34.875,34.875,0,0,0,13.147,62L7.97,67.179,18.439,77.648l5.117-5.118a35.5,35.5,0,0,0,11.99,5.009V84.9H50.352V77.541A34.87,34.87,0,0,0,62.1,72.687l5.077,5.077L77.648,67.3,72.6,62.244a34.863,34.863,0,0,0,4.944-11.892H84.9Zm-15.77,11.14-.8,1.133L73,67.3l-5.816,5.816-4.686-4.686a32.6,32.6,0,0,1-14.064,6.135l-1.366.235v6.813H38.837V74.8a32.811,32.811,0,0,1-14.521-5.732l-1.134-.811L18.439,73l-5.816-5.816L17.4,62.4a32.639,32.639,0,0,1-6.065-13.971L11.1,47.062H4.29V38.837H11.1a32.515,32.515,0,0,1,5.666-14.43l.8-1.133-4.835-4.835,5.816-5.816,4.851,4.851,1.131-.794a32.406,32.406,0,0,1,14.3-5.576V4.29h8.225V11.1a32.563,32.563,0,0,1,14.338,5.6l1.132.8L67.3,12.739l5.816,5.816-4.757,4.757A32.571,32.571,0,0,1,74.56,37.47l.235,1.366h6.813v8.225H74.8a32.515,32.515,0,0,1-5.666,14.43Z" transform="translate(-1 -1)"/>
        <path id="Trazado_896951" data-name="Trazado 896951" d="M118.144,91a27.144,27.144,0,1,0,27.144,27.144A27.175,27.175,0,0,0,118.144,91Zm-14.86,45.788a26.032,26.032,0,0,1,29.721,0A23.8,23.8,0,0,1,103.283,136.788Zm13.049-16.574c.163.569.315,1.555-.1,1.974-.694.695-3.369.121-5.816-2.327a9.457,9.457,0,0,1-2.431-3.842,2.178,2.178,0,0,1,.1-1.974,1.254,1.254,0,0,1,.895-.274C111.573,113.773,115.427,117.046,116.332,120.215Zm6.054-3.883c2.333-2.333,5.075-3.068,5.816-2.326a2.179,2.179,0,0,1,.1,1.974,10.37,10.37,0,0,1-6.273,6.273,2.179,2.179,0,0,1-1.974-.1C118.958,121.046,120.944,117.774,122.386,116.332Zm-3.013-1.59c-.331.379-.694.935-1.229.935-.982,0-2.468-2.3-2.468-5.758s1.485-5.758,2.468-5.758,2.468,2.3,2.468,5.758A8.825,8.825,0,0,1,119.373,114.741Zm16.095,19.782a27.785,27.785,0,0,0-15.679-5.642v-3.289c4.468,1.021,10.332-3.985,11.682-8.708,1.377-4.819-2.347-8.084-7.629-5.6.468-5.292-1.841-10.415-5.7-10.415-3.282,0-5.758,3.89-5.758,9.048q0,.723.064,1.41c-5.295-2.494-9.007.787-7.632,5.6s7.281,9.687,11.682,8.7v3.261a27.785,27.785,0,0,0-15.679,5.642,23.853,23.853,0,1,1,34.648,0Z" transform="translate(-76.194 -76.194)"/>
      </g>
    </g>
  </g>
</svg>
