<svg xmlns="http://www.w3.org/2000/svg" width="89" height="89" viewBox="0 0 89 89">
  <g id="Grupo_1112366" data-name="Grupo 1112366" transform="translate(-1176.378 -8335.31)">
    <rect id="Rectángulo_400898" data-name="Rectángulo 400898" width="89" height="89" rx="44.5" transform="translate(1176.378 8335.31)" fill="#769671"/>
    <g id="Grupo_1111749" data-name="Grupo 1111749" transform="translate(1190.051 8349)">
      <g id="Grupo_1111742" data-name="Grupo 1111742">
        <g id="Grupo_1111728" data-name="Grupo 1111728">
          <path id="Trazado_896975" data-name="Trazado 896975" d="M33,11.92V27.75L31,27H25v-.24a17.71,17.71,0,0,1,8-14.84Z" fill="#ffeaa7"/>
        </g>
        <g id="Grupo_1111729" data-name="Grupo 1111729">
          <path id="Trazado_896976" data-name="Trazado 896976" d="M14.71,17.51a1.231,1.231,0,0,1-.55-.13,1.266,1.266,0,0,0-1.06-.01c-.03.01-.06.03-.09.04a1.258,1.258,0,0,0-.73.75,1.225,1.225,0,0,1-1.16.84H8.88a1.225,1.225,0,0,1-1.16-.84,1.258,1.258,0,0,0-.73-.75c-.03-.01-.06-.03-.09-.04a1.387,1.387,0,0,0-.52-.11,1.253,1.253,0,0,0-.54.12,1.214,1.214,0,0,1-1.41-.22L2.84,15.57a1.21,1.21,0,0,1-.35-.86,1.231,1.231,0,0,1,.13-.55,1.266,1.266,0,0,0,.01-1.06c-.01-.03-.03-.06-.04-.09a1.258,1.258,0,0,0-.75-.73A1.225,1.225,0,0,1,1,11.12V8.88a1.225,1.225,0,0,1,.84-1.16,1.258,1.258,0,0,0,.75-.73c.01-.03.03-.06.04-.09a1.387,1.387,0,0,0,.11-.52,1.253,1.253,0,0,0-.12-.54,1.214,1.214,0,0,1,.22-1.41L4.43,2.84a1.21,1.21,0,0,1,.86-.35,1.231,1.231,0,0,1,.55.13,1.266,1.266,0,0,0,1.06.01c.03-.01.06-.03.09-.04a1.258,1.258,0,0,0,.73-.75A1.225,1.225,0,0,1,8.88,1h2.24a1.225,1.225,0,0,1,1.16.84,1.258,1.258,0,0,0,.73.75c.03.01.06.03.09.04a1.387,1.387,0,0,0,.52.11,1.253,1.253,0,0,0,.54-.12,1.214,1.214,0,0,1,1.41.22l1.59,1.59a1.21,1.21,0,0,1,.35.86,1.231,1.231,0,0,1-.13.55,1.266,1.266,0,0,0-.01,1.06c.01.03.03.06.04.09a1.258,1.258,0,0,0,.75.73A1.225,1.225,0,0,1,19,8.88v2.24a1.225,1.225,0,0,1-.84,1.16,1.258,1.258,0,0,0-.75.73c-.01.03-.03.06-.04.09a1.387,1.387,0,0,0-.11.52,1.253,1.253,0,0,0,.12.54,1.214,1.214,0,0,1-.22,1.41l-1.59,1.59a1.21,1.21,0,0,1-.86.35ZM14,10a4,4,0,1,0-4,4A4,4,0,0,0,14,10Z" fill="#fcd770"/>
        </g>
        <g id="Grupo_1111730" data-name="Grupo 1111730">
          <path id="Trazado_896977" data-name="Trazado 896977" d="M35,53a7.936,7.936,0,0,0,2,5.29V59a2.006,2.006,0,0,1-2,2H23a2.006,2.006,0,0,1-2-2V47a2.006,2.006,0,0,1,2-2H34.92a6.116,6.116,0,0,1,.08.96V47a2.006,2.006,0,0,0-2,2v2A2.006,2.006,0,0,0,35,53Z" fill="#b4dd7f"/>
        </g>
        <g id="Grupo_1111731" data-name="Grupo 1111731">
          <path id="Trazado_896978" data-name="Trazado 896978" d="M1,59V47a2.006,2.006,0,0,1,2-2H15a2.006,2.006,0,0,1,2,2V59a2.006,2.006,0,0,1-2,2H3A2.006,2.006,0,0,1,1,59Z" fill="#b4dd7f"/>
        </g>
        <g id="Grupo_1111732" data-name="Grupo 1111732">
          <path id="Trazado_896979" data-name="Trazado 896979" d="M35,53H51a8,8,0,0,1-13.66,5.66c-.12-.12-.23-.24-.34-.37A7.936,7.936,0,0,1,35,53Z" fill="#aab2bd"/>
        </g>
        <g id="Grupo_1111733" data-name="Grupo 1111733">
          <path id="Trazado_896980" data-name="Trazado 896980" d="M53,49v2a2.006,2.006,0,0,1-2,2H35a2.006,2.006,0,0,1-2-2V49a2.006,2.006,0,0,1,2-2H51A2.006,2.006,0,0,1,53,49Z" fill="#ccd1d9"/>
        </g>
        <g id="Grupo_1111734" data-name="Grupo 1111734">
          <path id="Trazado_896981" data-name="Trazado 896981" d="M61,26.76A17.764,17.764,0,0,1,53.43,41.3a5.829,5.829,0,0,0-1.79,2.04A5.761,5.761,0,0,0,51,45.96V47H35V45.96a6.115,6.115,0,0,0-.08-.96,5.75,5.75,0,0,0-2.35-3.7A17.706,17.706,0,0,1,27.03,35H31l2.34-.88A2.006,2.006,0,0,0,35,35H51a2.006,2.006,0,0,0,2-2V11.92a17.726,17.726,0,0,1,8,14.84Z" fill="#ffeaa7"/>
        </g>
        <g id="Grupo_1111735" data-name="Grupo 1111735">
          <path id="Trazado_896982" data-name="Trazado 896982" d="M51,1H41.83a1.968,1.968,0,0,0-.83.18V7a2.006,2.006,0,0,1-2,2H33.18a1.968,1.968,0,0,0-.18.83V27.75l.34,6.37A2.006,2.006,0,0,0,35,35H51a2.006,2.006,0,0,0,2-2V3A2.006,2.006,0,0,0,51,1Z" fill="#e6e9ed"/>
        </g>
        <g id="Grupo_1111736" data-name="Grupo 1111736">
          <path id="Trazado_896983" data-name="Trazado 896983" d="M41,1.18V7a2.006,2.006,0,0,1-2,2H33.18a2.017,2.017,0,0,1,.41-.59l6.82-6.82A2.016,2.016,0,0,1,41,1.18Z" fill="#b4dd7f"/>
        </g>
        <g id="Grupo_1111737" data-name="Grupo 1111737">
          <path id="Trazado_896984" data-name="Trazado 896984" d="M37,17H49v6H37Z" fill="#ff826e"/>
        </g>
        <g id="Grupo_1111738" data-name="Grupo 1111738">
          <path id="Trazado_896985" data-name="Trazado 896985" d="M31,31v4H9V31Z" fill="#b4dd7f"/>
        </g>
        <g id="Grupo_1111739" data-name="Grupo 1111739">
          <path id="Trazado_896986" data-name="Trazado 896986" d="M9,31v4H5a4,4,0,1,1,0-8H9Z" fill="#aab2bd"/>
        </g>
        <g id="Grupo_1111740" data-name="Grupo 1111740">
          <path id="Trazado_896987" data-name="Trazado 896987" d="M33,27.75l5.06,1.9a1.439,1.439,0,0,1,0,2.7l-4.72,1.77L31,35V27Z" fill="#aab2bd"/>
        </g>
        <g id="Grupo_1111741" data-name="Grupo 1111741">
          <path id="Trazado_896988" data-name="Trazado 896988" d="M31,27v4H9V27H31Z" fill="#ff826e"/>
        </g>
      </g>
      <g id="Grupo_1111748" data-name="Grupo 1111748">
        <g id="Grupo_1111743" data-name="Grupo 1111743">
          <path id="Trazado_896989" data-name="Trazado 896989" d="M15,62H3a3,3,0,0,1-3-3V47a3,3,0,0,1,3-3H15a3,3,0,0,1,3,3V59A3,3,0,0,1,15,62ZM3,46a1,1,0,0,0-1,1V59a1,1,0,0,0,1,1H15a1,1,0,0,0,1-1V47a1,1,0,0,0-1-1Z"/>
        </g>
        <g id="Grupo_1111744" data-name="Grupo 1111744">
          <path id="Trazado_896990" data-name="Trazado 896990" d="M6,58.414,3.293,55.707l1.414-1.414L6,55.586l7.293-7.293,1.414,1.414Z"/>
        </g>
        <g id="Grupo_1111745" data-name="Grupo 1111745">
          <path id="Trazado_896991" data-name="Trazado 896991" d="M35,62H23a3,3,0,0,1-3-3V47a3,3,0,0,1,3-3H34.918v2H23a1,1,0,0,0-1,1V59a1,1,0,0,0,1,1H35a1,1,0,0,0,1-1v-.709h2V59A3,3,0,0,1,35,62Z"/>
        </g>
        <g id="Grupo_1111746" data-name="Grupo 1111746">
          <path id="Trazado_896992" data-name="Trazado 896992" d="M26,58.414l-2.707-2.707,1.414-1.414L26,55.586l6.293-6.293,1.414,1.414Z"/>
        </g>
        <g id="Grupo_1111747" data-name="Grupo 1111747">
          <path id="Trazado_896993" data-name="Trazado 896993" d="M1.519,13.227a.283.283,0,0,1,.145.158l.045.108a.286.286,0,0,1,.012.222,2.217,2.217,0,0,0,.416,2.565L3.72,17.863a2.216,2.216,0,0,0,2.564.417.279.279,0,0,1,.211.007l.109.046a.291.291,0,0,1,.167.148A2.222,2.222,0,0,0,8.88,20h2.239a2.218,2.218,0,0,0,2.107-1.519.283.283,0,0,1,.158-.145l.108-.045a.3.3,0,0,1,.222-.012,2.218,2.218,0,0,0,2.565-.416l1.583-1.583a2.216,2.216,0,0,0,.417-2.564.273.273,0,0,1,.007-.211l.046-.109a.291.291,0,0,1,.148-.167A2.222,2.222,0,0,0,20,11.12V8.88a2.218,2.218,0,0,0-1.519-2.107.283.283,0,0,1-.145-.158l-.045-.108a.286.286,0,0,1-.012-.222,2.217,2.217,0,0,0-.416-2.565L16.28,2.138a2.216,2.216,0,0,0-2.564-.417.283.283,0,0,1-.211-.007L13.4,1.668a.291.291,0,0,1-.167-.148A2.222,2.222,0,0,0,11.12,0H8.88A2.218,2.218,0,0,0,6.773,1.519a.286.286,0,0,1-.158.145l-.108.045a.286.286,0,0,1-.222.012,2.215,2.215,0,0,0-2.564.417L2.138,3.72a2.217,2.217,0,0,0-.417,2.565.273.273,0,0,1-.007.211L1.668,6.6a.3.3,0,0,1-.148.168A2.217,2.217,0,0,0,0,8.88v2.239a2.218,2.218,0,0,0,1.519,2.108ZM2,8.88a.221.221,0,0,1,.152-.21,2.32,2.32,0,0,0,1.4-1.378,2.267,2.267,0,0,0-.039-1.9.219.219,0,0,1,.042-.255L5.135,3.552a.222.222,0,0,1,.256-.041,2.317,2.317,0,0,0,1.977.007,2.269,2.269,0,0,0,1.3-1.367A.223.223,0,0,1,8.88,2h2.239a.221.221,0,0,1,.21.152,2.322,2.322,0,0,0,1.379,1.4,2.254,2.254,0,0,0,1.9-.04.221.221,0,0,1,.255.042l1.583,1.583a.222.222,0,0,1,.041.256,2.317,2.317,0,0,0-.007,1.977,2.265,2.265,0,0,0,1.366,1.3A.224.224,0,0,1,18,8.88v2.239a.221.221,0,0,1-.152.21,2.322,2.322,0,0,0-1.4,1.379,2.261,2.261,0,0,0,.04,1.9.221.221,0,0,1-.042.255l-1.583,1.583a.225.225,0,0,1-.256.041,2.313,2.313,0,0,0-1.977-.007,2.265,2.265,0,0,0-1.3,1.366A.224.224,0,0,1,11.12,18H8.88a.221.221,0,0,1-.21-.152,2.322,2.322,0,0,0-1.379-1.4,2.342,2.342,0,0,0-.919-.19,2.205,2.205,0,0,0-.982.229.22.22,0,0,1-.255-.042L3.552,14.865a.222.222,0,0,1-.041-.256,2.317,2.317,0,0,0,.007-1.977,2.265,2.265,0,0,0-1.366-1.3A.222.222,0,0,1,2,11.12Z"/>
          <path id="Trazado_896994" data-name="Trazado 896994" d="M10,15a5,5,0,1,0-5-5A5.006,5.006,0,0,0,10,15Zm0-8a3,3,0,1,1-3,3A3,3,0,0,1,10,7Z"/>
          <path id="Trazado_896995" data-name="Trazado 896995" d="M54,11.4V3a3,3,0,0,0-3-3H41.829a2.982,2.982,0,0,0-2.122.879L32.879,7.707A2.978,2.978,0,0,0,32,9.829V11.4A18.7,18.7,0,0,0,24.023,26H5A5,5,0,0,0,5,36H26.447A18.842,18.842,0,0,0,32,42.121a4.693,4.693,0,0,1,2,3.841v.222A3,3,0,0,0,32,49v2a3,3,0,0,0,2.042,2.829,9,9,0,0,0,17.916,0A3,3,0,0,0,54,51V49a3,3,0,0,0-2-2.816v-.222a4.693,4.693,0,0,1,2-3.841A18.747,18.747,0,0,0,54,11.4ZM52,3V33a1,1,0,0,1-1,1H36.514l1.9-.713A2.448,2.448,0,0,0,39.778,32H50V30H39.779a2.445,2.445,0,0,0-1.364-1.288L36.515,28H38V26H36v1.807l-2-.75V10h5a3,3,0,0,0,3-3V2h9a1,1,0,0,1,1,1ZM46,46H44V36h4.719l-.5,2H46ZM30,28v2H10V28ZM10,32H30v2H10Zm22-3.557,5.713,2.142a.443.443,0,0,1,0,.83L32,33.557ZM40,46V38H37.781l-.5-2H42V46ZM40,3.414V7a1,1,0,0,1-1,1H35.414Zm-8,10.5v12.4L31.181,26H26.023A16.7,16.7,0,0,1,32,13.911ZM2,31a3,3,0,0,1,3-3H8v6H5a3,3,0,0,1-3-3Zm31.147,9.482A16.821,16.821,0,0,1,28.8,36h2.381l1.9-.711A2.989,2.989,0,0,0,35,36h.219l1,4H38v6H36v-.038a6.7,6.7,0,0,0-2.853-5.48ZM43,60a7.006,7.006,0,0,1-6.92-6H49.92A7.006,7.006,0,0,1,43,60Zm9-9a1,1,0,0,1-1,1H35a1,1,0,0,1-1-1V49a1,1,0,0,1,1-1H51a1,1,0,0,1,1,1Zm.854-10.518A6.693,6.693,0,0,0,50,45.962V46H48V40h1.781l1-4H51a3,3,0,0,0,3-3V13.911a16.753,16.753,0,0,1-1.146,26.571Z"/>
          <path id="Trazado_896996" data-name="Trazado 896996" d="M36,24H50V16H36Zm2-6H48v4H38Z"/>
          <path id="Trazado_896997" data-name="Trazado 896997" d="M40,26H50v2H40Z"/>
          <path id="Trazado_896998" data-name="Trazado 896998" d="M44,4h6V6H44Z"/>
          <path id="Trazado_896999" data-name="Trazado 896999" d="M44,8h6v2H44Z"/>
          <path id="Trazado_897000" data-name="Trazado 897000" d="M36,12H50v2H36Z"/>
        </g>
      </g>
    </g>
  </g>
</svg>
