<svg xmlns="http://www.w3.org/2000/svg" width="78" height="77.999" viewBox="0 0 78 77.999">
  <g id="Grupo_1111769" data-name="Grupo 1111769" transform="translate(0 -0.001)">
    <g id="Grupo_1111767" data-name="Grupo 1111767" transform="translate(1.038 1.176)">
      <g id="Grupo_1111766" data-name="Grupo 1111766">
        <g id="Grupo_1111765" data-name="Grupo 1111765">
          <g id="Grupo_1111750" data-name="Grupo 1111750" transform="translate(0 35.44)">
            <path id="Trazado_897001" data-name="Trazado 897001" d="M6.813,242.578a37.835,37.835,0,0,0,18.148,32.328L44.775,246.37c-10.853-6.317-24.664-7.811-37.962-3.792Z" transform="translate(-6.813 -240.346)" fill="#eb975d"/>
          </g>
          <g id="Grupo_1111751" data-name="Grupo 1111751" transform="translate(0 36.763)">
            <path id="Trazado_897002" data-name="Trazado 897002" d="M6.813,249.94a37.835,37.835,0,0,0,18.148,32.328l2-2.883-.442-.181a34.218,34.218,0,0,1-16.28-29.264v-.909q-1.717.4-3.428.909Z" transform="translate(-6.813 -249.031)" fill="#b25e1e"/>
          </g>
          <g id="Grupo_1111752" data-name="Grupo 1111752" transform="translate(4.931)">
            <path id="Trazado_897003" data-name="Trazado 897003" d="M52.659,10.027A7.894,7.894,0,0,0,41.5,21.191l5.582,5.582,5.582-5.582a7.894,7.894,0,0,0,0-11.164Zm-5.582,7.938a2.285,2.285,0,1,1,2.285-2.285A2.285,2.285,0,0,1,47.077,17.965Z" transform="translate(-39.183 -7.715)" fill="#ff6a47"/>
          </g>
          <g id="Grupo_1111753" data-name="Grupo 1111753" transform="translate(4.931 1.255)">
            <path id="Trazado_897004" data-name="Trazado 897004" d="M49.445,31.387l-5.582-5.582a7.9,7.9,0,0,1-1.057-9.852A7.894,7.894,0,0,0,41.5,28.174l5.582,5.582Z" transform="translate(-39.183 -15.953)" fill="#fd3501"/>
          </g>
          <g id="Grupo_1111754" data-name="Grupo 1111754" transform="translate(25.796 26.364)">
            <path id="Trazado_897005" data-name="Trazado 897005" d="M186.764,186.445l-3.025-5.609-4.536-.064-3.06,5.673Z" transform="translate(-176.144 -180.772)" fill="#00ca0f"/>
          </g>
          <g id="Grupo_1111756" data-name="Grupo 1111756" transform="translate(18.177 35.44)">
            <g id="Grupo_1111755" data-name="Grupo 1111755">
              <path id="Trazado_897006" data-name="Trazado 897006" d="M136.772,253.508a42.352,42.352,0,0,0-10.645,21.352,37.865,37.865,0,0,0,57.643-32.282C166.4,237.328,148.156,241.484,136.772,253.508Z" transform="translate(-126.127 -240.346)" fill="#c3f839"/>
            </g>
          </g>
          <g id="Grupo_1111757" data-name="Grupo 1111757" transform="translate(18.177 36.341)">
            <path id="Trazado_897007" data-name="Trazado 897007" d="M145.912,282.024a34.386,34.386,0,0,1-15.887-3.876c1.622-6.328,5.24-14.534,10.216-19.806,7.031-7.082,13.246-10.483,19.349-11.666q-.042-.2-.077-.413a41.122,41.122,0,0,0-33.387,33.613,37.877,37.877,0,0,0,55.7-20.282C175.748,272.986,160.17,282.024,145.912,282.024Z" transform="translate(-126.127 -246.264)" fill="#abe700"/>
          </g>
          <g id="Grupo_1111759" data-name="Grupo 1111759" transform="translate(3.271 39.298)">
            <g id="Grupo_1111758" data-name="Grupo 1111758">
              <path id="Trazado_897008" data-name="Trazado 897008" d="M28.775,268.949l-.49-2.232c.758-.166,1.529-.318,2.291-.45l.391,2.251C30.238,268.644,29.5,268.79,28.775,268.949Zm4.4-.765-.291-2.267c.769-.1,1.551-.182,2.323-.246l.19,2.277C34.66,268.01,33.913,268.089,33.177,268.184Z" transform="translate(-28.285 -265.671)" fill="#fff"/>
            </g>
          </g>
          <g id="Grupo_1111760" data-name="Grupo 1111760" transform="translate(39.337 0)">
            <path id="Trazado_897009" data-name="Trazado 897009" d="M296.388,22.86a7.738,7.738,0,0,0-6.78-8.36c-1.131-9.048-14.227-9.042-15.355,0a7.738,7.738,0,0,0-6.78,8.36c-5.1,4.585-1.7,13.48,5.261,13.387h18.394a7.727,7.727,0,0,0,5.261-13.387Z" transform="translate(-265.023 -7.715)" fill="#c3f839"/>
          </g>
          <g id="Grupo_1111762" data-name="Grupo 1111762" transform="translate(39.337 0)">
            <g id="Grupo_1111761" data-name="Grupo 1111761">
              <path id="Trazado_897010" data-name="Trazado 897010" d="M291.129,36.247a7.72,7.72,0,0,0,6.421-3.428H272.688a4.316,4.316,0,0,1-2.923-7.41l1.285-1.155c-.713-5.144.7-8.164,6.335-9.311.207-4.033,1.526-6.3,5.217-7.2a7.553,7.553,0,0,0-8.349,6.757,7.738,7.738,0,0,0-6.78,8.36c-5.1,4.585-1.7,13.48,5.261,13.387Z" transform="translate(-265.024 -7.716)" fill="#abe700"/>
            </g>
          </g>
          <g id="Grupo_1111763" data-name="Grupo 1111763" transform="translate(55.11 10.25)">
            <path id="Trazado_897011" data-name="Trazado 897011" d="M368.564,75h2.285v2.285h-2.285Z" transform="translate(-368.564 -75)" fill="#fff"/>
          </g>
          <g id="Grupo_1111764" data-name="Grupo 1111764" transform="translate(25.796 18.358)">
            <path id="Trazado_897012" data-name="Trazado 897012" d="M181.454,128.218l-5.31,7.935h10.62Z" transform="translate(-176.144 -128.218)" fill="#54e072"/>
          </g>
        </g>
      </g>
    </g>
    <g id="Grupo_1111768" data-name="Grupo 1111768" transform="translate(0 0.001)">
      <path id="Trazado_897013" data-name="Trazado 897013" d="M77.992,38.163a52.756,52.756,0,0,0-19.561-2.406V30.8h3.417V28.513c-.042,0-1.481,0-3.417,0V24.976l5.722-5.723-1.615-1.616-4.106,4.107V16.16H56.147v5.584L52.04,17.637l-1.615,1.616,5.722,5.723v3.537c-3.795,0-8.1,0-8.172,0a6.374,6.374,0,0,1-5.97-4.2,6.48,6.48,0,0,1,2.013-7.581,6.7,6.7,0,0,1,6.609-7.789,6.653,6.653,0,1,1,13.307,0,6.7,6.7,0,0,1,6.609,7.777,6.619,6.619,0,0,1-4.068,11.791H64.133V30.8h2.342c7.641.147,11.787-9.545,6.432-14.974a8.868,8.868,0,0,0-6.96-8.909c-1.86-9.2-15.47-9.2-17.333,0a8.867,8.867,0,0,0-6.96,8.9C36.347,21.047,40.442,31,47.977,30.8c.082,0,4.38,0,8.17,0v5.171a47.5,47.5,0,0,0-5.29.916A45.163,45.163,0,0,0,39,41.43a43.572,43.572,0,0,0-5.71-2.671v-4.24h4.166l1.005-1.685-2.189-4.059h1.183L38.407,27,33.1,19.062H31.2L25.892,27l.949,1.778h1.183l-2.189,4.059,1.005,1.685h4.166v3.435a48.859,48.859,0,0,0-15.992-2.3V33.275H12.731v2.477A53.08,53.08,0,0,0,.014,38.163C-.574,59.809,17.333,78.157,39,78.009A39.009,39.009,0,0,0,77.992,38.163ZM32.149,21.751l3.17,4.738H28.98Zm-1.53,7.023h3.06l1.865,3.459h-6.79ZM2.308,39.863c11.884-3.38,24.262-2.311,34.413,2.934a41.377,41.377,0,0,0-7.686,6.357A43.338,43.338,0,0,0,18.444,69.431,36.456,36.456,0,0,1,2.308,39.863ZM30.694,50.726c10.934-11.551,28.111-15.677,45-10.863a36.813,36.813,0,0,1-.383,4.516c-4.974-1.454-19.421-4.467-33.306,4.243A39.407,39.407,0,0,0,28.138,63.578,42.023,42.023,0,0,0,24.5,72.744a36.443,36.443,0,0,1-4-2.019,41.7,41.7,0,0,1,10.194-20ZM38.22,75.715a36.869,36.869,0,0,1-4.483-.369c1.337-4.422,5.448-14.43,16.272-19.832a32.06,32.06,0,0,1,22.736-2.062,36.656,36.656,0,0,1-2.512,4.826A28.169,28.169,0,0,0,54.1,59.5C44.047,63.453,39.65,72.138,38.22,75.715ZM48.989,53.469c-11.8,5.889-16.158,16.866-17.516,21.478a36.6,36.6,0,0,1-4.829-1.359c1.174-4.554,5.132-15.849,16.579-23.029,13.345-8.371,27.254-5.254,31.684-3.917a36.389,36.389,0,0,1-1.321,4.673,34.394,34.394,0,0,0-24.6,2.155ZM40.711,75.684c1.626-3.669,5.728-10.717,14.222-14.062a25.74,25.74,0,0,1,13.929-1.287A36.693,36.693,0,0,1,40.711,75.684Z" transform="translate(0 -0.011)"/>
      <path id="Trazado_897014" data-name="Trazado 897014" d="M72,44.151a3.428,3.428,0,1,0-3.427-3.428A3.431,3.431,0,0,0,72,44.151Zm0-4.57a1.143,1.143,0,1,1-1.142,1.143A1.144,1.144,0,0,1,72,39.581Z" transform="translate(-58.126 -31.614)"/>
      <path id="Trazado_897015" data-name="Trazado 897015" d="M34.825,15.851l1.615-1.616a6.912,6.912,0,0,1-2.4-5.2,6.75,6.75,0,1,1,13.5,0,6.708,6.708,0,0,1-1.977,4.774L40.79,18.586l-2.561-2.562L36.614,17.64l4.176,4.178,6.388-6.39a8.978,8.978,0,0,0,2.646-6.39,9.034,9.034,0,1,0-15,6.812Z" transform="translate(-26.917 -0.001)"/>
      <path id="Trazado_897016" data-name="Trazado 897016" d="M83.569,158.355h2.285v2.331H83.569Z" transform="translate(-70.838 -134.231)"/>
      <path id="Trazado_897017" data-name="Trazado 897017" d="M83.569,188.354h2.285v2.331H83.569Z" transform="translate(-70.838 -159.66)"/>
    </g>
  </g>
</svg>
