<svg xmlns="http://www.w3.org/2000/svg" width="96.323" height="76.215" viewBox="0 0 96.323 76.215">
  <g id="Layer_x0020_1" transform="translate(-0.001 -0.179)">
    <path id="Trazado_897018" data-name="Trazado 897018" d="M87.977,76.393H4.748A4.753,4.753,0,0,1,0,71.646V52.97a6.7,6.7,0,0,1,6.477-6.553l2.189-.155V41.482H3.972a1.129,1.129,0,0,1-.9-1.811l2.683-3.545-2.05-.5A1.129,1.129,0,0,1,3.1,33.813l2.882-3.5-2.256-.5a1.128,1.128,0,0,1-.552-1.9L9,22.09a1.127,1.127,0,0,1,1.6,0l5.823,5.822a1.128,1.128,0,0,1-.552,1.9l-2.256.5,2.881,3.5a1.129,1.129,0,0,1-.6,1.815l-2.05.5,2.588,3.42a1.129,1.129,0,0,1-.789,1.936H10.924V46.1L11,46.1a1.029,1.029,0,0,1,.133,0l5.932.284,10.832.9V43.89h-3.7a1.129,1.129,0,0,1-.9-1.811l2.049-2.708-1.416-.344a1.13,1.13,0,0,1-.605-1.815l2.191-2.661-1.566-.35a1.128,1.128,0,0,1-.552-1.9l4.83-4.83a1.127,1.127,0,0,1,1.6,0l4.831,4.83a1.128,1.128,0,0,1-.552,1.9l-1.566.35,2.191,2.661a1.129,1.129,0,0,1-.6,1.815l-1.416.344,1.954,2.582a1.129,1.129,0,0,1-.788,1.936H30.151V47.6a11.639,11.639,0,0,1,4.073,1.823A59.233,59.233,0,0,1,53.049,38.791V19.41l-1.613.86c-1.4.746-3.058.369-4.465-1.038A1.124,1.124,0,0,1,46.792,19a3.429,3.429,0,0,1,1.254-4.678L70.679.347a1.132,1.132,0,0,1,1.187,0l22.663,13.99A3.857,3.857,0,0,1,96.3,17.049a2.6,2.6,0,0,1-.622,2.07,3.431,3.431,0,0,1-4.605,1.131L89.5,19.409V37.87A3.885,3.885,0,0,1,92.725,41.6v30.05a4.752,4.752,0,0,1-4.748,4.747ZM20.609,73.98c.42-8.8,5.122-16.713,11.873-23a9.549,9.549,0,0,0-3.593-1.321l-.076-.011q-.305-.045-.615-.071l-11.284-.94-5.826-.278-4.452.314a4.472,4.472,0,0,0-4.379,4.3V71.646a2.492,2.492,0,0,0,2.49,2.489H20.6l.008-.155ZM35.224,51.5a1.121,1.121,0,0,1-.2.237c-7.347,6.5-11.608,14.227-12.132,21.917l-.016.257-.012.22H50.366V71.669a5.707,5.707,0,0,1-4.591-5.59c0-2.753,1.334-10.311,5.626-10.311,4.325,0,5.767,8.128,5.767,10.311a5.707,5.707,0,0,1-4.544,5.581v2.475H72.982V69.388a8,8,0,0,1-6.891-7.909c0-3.821,1.94-14.911,7.879-14.911,5.979,0,8.091,11.875,8.091,14.911a8,8,0,0,1-6.821,7.9v4.757H87.977a2.493,2.493,0,0,0,2.49-2.49V41.6a1.76,1.76,0,0,0-1.715-1.569l-12.917-1.8H68.915a44.594,44.594,0,0,0-10.878,1.427A56.934,56.934,0,0,0,35.224,51.5ZM73.97,48.826c-3.651,0-5.621,8.981-5.621,12.653a5.727,5.727,0,0,0,11.454,0c0-3.774-2.463-12.653-5.833-12.653ZM51.4,58.026c-1.946,0-3.368,5.3-3.368,8.053a3.439,3.439,0,1,0,6.877,0C54.909,63.5,53.249,58.026,51.4,58.026ZM6.242,39.223h7.105L11,36.116a1.13,1.13,0,0,1,.634-1.779l1.972-.479L10.7,30.33a1.129,1.129,0,0,1,.626-1.819l2.045-.457L9.8,24.482,6.223,28.053l2.045.457a1.129,1.129,0,0,1,.626,1.819L5.988,33.858l1.972.479a1.13,1.13,0,0,1,.633,1.779L6.242,39.223Zm20.219,2.409h5.121l-1.718-2.269a1.13,1.13,0,0,1,.633-1.779l1.339-.325-2.216-2.69a1.129,1.129,0,0,1,.626-1.819l1.355-.3-2.58-2.58-2.58,2.58,1.355.3a1.129,1.129,0,0,1,.626,1.819l-2.216,2.69,1.339.325a1.13,1.13,0,0,1,.633,1.779l-1.718,2.269ZM53.617,16.55l.031-.017,17.094-9.11.031-.016h0l.031-.015h0l.007,0,.008,0h0l.015-.006h0a1.128,1.128,0,0,1,.919.021h0l.008,0,.008,0h0l.007,0,.008,0h0l.007,0,.008,0h0L88.9,16.533l.035.02,3.237,1.725a1.155,1.155,0,0,0,1.627-.408,1.123,1.123,0,0,1,.179-.233c.035-.035.108-.108.082-.324a1.61,1.61,0,0,0-.716-1.053L71.272,2.635,49.2,16.259a1.18,1.18,0,0,0-.516,1.493c.632.587,1.181.8,1.687.527l3.243-1.728Zm1.691,1.656V37.968q1.069-.384,2.124-.705a39.386,39.386,0,0,1,11.484-1.818h7a1.15,1.15,0,0,1,.187.016l11.136,1.877V18.206L71.272,9.7,55.307,18.206ZM77.975,32.173H64.57A2.27,2.27,0,0,1,62.3,29.906V21a2.27,2.27,0,0,1,2.267-2.267h13.4A2.27,2.27,0,0,1,80.242,21v8.9a2.27,2.27,0,0,1-2.267,2.266ZM64.57,20.995l-.009,8.911,5.581,0V21Zm7.83,8.917,5.575,0L77.983,21,72.4,21Zm12.29,4.539a1.129,1.129,0,0,1-1.129-1.129V20.244a1.129,1.129,0,0,1,2.258,0V33.323a1.128,1.128,0,0,1-1.129,1.128Zm-26.837,0a1.129,1.129,0,0,1-1.129-1.129V20.244a1.129,1.129,0,0,1,2.257,0V33.323a1.128,1.128,0,0,1-1.129,1.128Z" transform="translate(0 0)" fill="#000002" fill-rule="evenodd"/>
    <path id="Trazado_897019" data-name="Trazado 897019" d="M1.144,9.458l5.581,0V.551l-5.572,0Z" transform="translate(63.418 20.448)" fill="#0cf" fill-rule="evenodd"/>
    <path id="Trazado_897020" data-name="Trazado 897020" d="M1.283.547V9.458l5.575,0L6.865.551Z" transform="translate(71.118 20.453)" fill="#0cf" fill-rule="evenodd"/>
    <path id="Trazado_897021" data-name="Trazado 897021" d="M16.959,9.386h6.688a2.27,2.27,0,0,1,2.267,2.267v8.9a2.27,2.27,0,0,1-2.267,2.266h-13.4a2.27,2.27,0,0,1-2.267-2.267v-8.9a2.27,2.27,0,0,1,2.267-2.267h6.717Zm4.627,16.708a1.15,1.15,0,0,1,.187.016l11.136,1.877V8.855L16.944.347.98,8.855V28.617q1.069-.384,2.124-.705a39.386,39.386,0,0,1,11.484-1.818h7Zm8.778-.994a1.129,1.129,0,0,1-1.129-1.129V10.893a1.129,1.129,0,0,1,2.258,0V23.972A1.128,1.128,0,0,1,30.363,25.1ZM4.655,10.893V23.972a1.129,1.129,0,0,1-2.257,0V10.893a1.129,1.129,0,0,1,2.257,0Z" transform="translate(54.328 9.351)" fill="#ffdf8e" fill-rule="evenodd"/>
    <path id="Trazado_897022" data-name="Trazado 897022" d="M24.073,5.009l17.095,9.11.035.02,3.237,1.725a1.155,1.155,0,0,0,1.627-.408,1.123,1.123,0,0,1,.179-.233c.035-.035.108-.108.082-.324a1.61,1.61,0,0,0-.716-1.053L23.542.222,1.472,13.846a1.18,1.18,0,0,0-.516,1.493c.632.587,1.181.8,1.687.527l3.243-1.728.031-.017,17.094-9.11.031-.016.032-.015.007,0,.009,0,.016-.007a1.129,1.129,0,0,1,.92.021l.008,0,.008,0,.007,0,.008,0,.007,0,.008,0Z" transform="translate(47.73 2.413)" fill="#ea5569" fill-rule="evenodd"/>
    <path id="Trazado_897023" data-name="Trazado 897023" d="M66.3,2.651,53.38.852H46.46A44.6,44.6,0,0,0,35.583,2.279,56.934,56.934,0,0,0,12.769,14.128a1.121,1.121,0,0,1-.2.237C5.218,20.868.957,28.592.433,36.282l-.016.257-.012.22H27.911V34.293A5.707,5.707,0,0,1,23.32,28.7c0-2.753,1.334-10.311,5.626-10.311,4.325,0,5.767,8.128,5.767,10.311a5.707,5.707,0,0,1-4.544,5.581v2.475H50.527V32.012A8,8,0,0,1,43.636,24.1c0-3.821,1.94-14.911,7.879-14.911,5.979,0,8.091,11.875,8.091,14.911A8,8,0,0,1,52.785,32v4.757H65.522a2.493,2.493,0,0,0,2.49-2.49V4.221A1.76,1.76,0,0,0,66.3,2.651Z" transform="translate(22.455 37.376)" fill="#85be7f" fill-rule="evenodd"/>
    <g id="Grupo_1111770" data-name="Grupo 1111770" transform="translate(2.258 48.355)">
      <path id="Trazado_897024" data-name="Trazado 897024" d="M12.664,13.693C12.664,9.919,10.2,1.04,6.831,1.04c-3.651,0-5.621,8.981-5.621,12.653a5.727,5.727,0,0,0,11.454,0Z" transform="translate(64.881 -0.568)" fill="#017b4e" fill-rule="evenodd"/>
      <path id="Trazado_897025" data-name="Trazado 897025" d="M7.728,9.256C7.728,6.672,6.067,1.2,4.219,1.2,2.274,1.2.851,6.5.851,9.256a3.439,3.439,0,1,0,6.877,0Z" transform="translate(44.924 8.469)" fill="#017b4e" fill-rule="evenodd"/>
      <path id="Trazado_897026" data-name="Trazado 897026" d="M18.392,26.656c.42-8.8,5.122-16.713,11.873-23a9.55,9.55,0,0,0-3.593-1.321L26.6,2.32q-.305-.045-.615-.071L14.7,1.309,8.871,1.032l-4.452.314A4.472,4.472,0,0,0,.04,5.647V24.323a2.492,2.492,0,0,0,2.49,2.489H18.384l.008-.155Z" transform="translate(-0.04 -1.032)" fill="#017b4e" fill-rule="evenodd"/>
    </g>
    <path id="Trazado_897027" data-name="Trazado 897027" d="M5.748,10.464l1.972-.479L4.815,6.457a1.129,1.129,0,0,1,.626-1.819L7.486,4.18,3.914.609.342,4.18l2.045.457a1.129,1.129,0,0,1,.626,1.819L.107,9.985l1.972.479a1.13,1.13,0,0,1,.633,1.779L.361,15.35H7.466L5.114,12.243a1.13,1.13,0,0,1,.634-1.779Z" transform="translate(5.882 23.873)" fill="#09a66d" fill-rule="evenodd"/>
    <path id="Trazado_897028" data-name="Trazado 897028" d="M3.279.7.7,3.284l1.355.3a1.129,1.129,0,0,1,.626,1.819L.465,8.1,1.8,8.421A1.13,1.13,0,0,1,2.437,10.2L.719,12.47H5.84L4.122,10.2a1.13,1.13,0,0,1,.633-1.779L6.094,8.1,3.878,5.406A1.129,1.129,0,0,1,4.5,3.586l1.355-.3L3.279.7Z" transform="translate(25.742 29.163)" fill="#09a66d" fill-rule="evenodd"/>
  </g>
</svg>
