<svg xmlns="http://www.w3.org/2000/svg" width="128" height="128" viewBox="0 0 128 128">
  <g id="Grupo_1111214" data-name="Grupo 1111214" transform="translate(0)">
    <g id="Grupo_1111213" data-name="Grupo 1111213" transform="translate(2.024 2)">
      <path id="Trazado_896528" data-name="Trazado 896528" d="M0,0H23.245V10.2H0Z" transform="matrix(0.306, -0.952, 0.952, 0.306, 107.21, 66.107)" fill="#ff748f"/>
      <path id="Trazado_896529" data-name="Trazado 896529" d="M0,0H23.245V10.2H0Z" transform="matrix(0.306, -0.952, 0.952, 0.306, 97.494, 62.988)" fill="#eeeff4"/>
      <path id="Trazado_896530" data-name="Trazado 896530" d="M0,0H23.245V10.2H0Z" transform="matrix(0.306, -0.952, 0.952, 0.306, 87.779, 59.869)" fill="#65add6"/>
      <path id="Trazado_896531" data-name="Trazado 896531" d="M0,0H4.285V10.2H0Z" transform="matrix(0.306, -0.952, 0.952, 0.306, 107.211, 66.112)" fill="#ff577f"/>
      <path id="Trazado_896532" data-name="Trazado 896532" d="M0,0H4.285V10.2H0Z" transform="matrix(0.306, -0.952, 0.952, 0.306, 97.495, 62.993)" fill="#e5e6ea"/>
      <path id="Trazado_896533" data-name="Trazado 896533" d="M0,0H4.285V10.2H0Z" transform="matrix(0.306, -0.952, 0.952, 0.306, 87.78, 59.874)" fill="#4da0c4"/>
      <path id="Trazado_896534" data-name="Trazado 896534" d="M237.31,59.52H225.871a2.417,2.417,0,0,1-2.417-2.417V52.518a2.417,2.417,0,0,1,2.417-2.417H237.31a2.417,2.417,0,0,1,2.417,2.417V57.1A2.417,2.417,0,0,1,237.31,59.52Z" transform="translate(-169.615 -39.576)" fill="#eeeff4"/>
      <path id="Trazado_896535" data-name="Trazado 896535" d="M237.31,62.525H225.871a2.417,2.417,0,0,1-2.417-2.417v4.5a2.417,2.417,0,0,0,2.417,2.417H237.31a2.417,2.417,0,0,0,2.417-2.417v-4.5A2.417,2.417,0,0,1,237.31,62.525Z" transform="translate(-169.615 -47.081)" fill="#e5e6ea"/>
      <path id="Trazado_896536" data-name="Trazado 896536" d="M226.449,204h-22.3a2.417,2.417,0,0,1-2.417-2.417V197a2.417,2.417,0,0,1,2.417-2.417h22.3A2.417,2.417,0,0,1,228.867,197v4.584A2.417,2.417,0,0,1,226.449,204Z" transform="translate(-153.325 -147.936)" fill="#eeeff4"/>
      <path id="Trazado_896537" data-name="Trazado 896537" d="M226.449,207.005h-22.3a2.417,2.417,0,0,1-2.417-2.417v4.5a2.417,2.417,0,0,0,2.417,2.417h22.3a2.417,2.417,0,0,0,2.417-2.417v-4.5A2.417,2.417,0,0,1,226.449,207.005Z" transform="translate(-153.325 -155.441)" fill="#e5e6ea"/>
      <path id="Trazado_896538" data-name="Trazado 896538" d="M200.387,348.48H152.025a2.417,2.417,0,0,1-2.417-2.417v-4.585a2.417,2.417,0,0,1,2.417-2.417h48.361a2.417,2.417,0,0,1,2.417,2.417v4.585A2.417,2.417,0,0,1,200.387,348.48Z" transform="translate(-114.23 -256.296)" fill="#eeeff4"/>
      <path id="Trazado_896539" data-name="Trazado 896539" d="M200.387,351.485H152.025a2.417,2.417,0,0,1-2.417-2.417v4.5a2.417,2.417,0,0,0,2.417,2.417h48.361a2.417,2.417,0,0,0,2.417-2.417v-4.5A2.417,2.417,0,0,1,200.387,351.485Z" transform="translate(-114.23 -263.801)" fill="#e5e6ea"/>
      <path id="Trazado_896540" data-name="Trazado 896540" d="M239.682,114.479a189.55,189.55,0,0,1-3.748-26.7h-8.822a189.5,189.5,0,0,1-3.748,26.7Z" transform="translate(-169.547 -67.834)" fill="#e1e1e5"/>
      <path id="Trazado_896541" data-name="Trazado 896541" d="M246.483,92.277c-.279-2.9-.348-4.5-.348-4.5h-8.822s-.069,1.6-.348,4.5Z" transform="translate(-179.748 -67.833)" fill="#d1d1d3"/>
      <path id="Trazado_896542" data-name="Trazado 896542" d="M180.989,404.766c-5.442-9.088-11.355-19.652-14.858-28.029H121.915c-3.5,8.377-9.416,18.941-14.858,28.029a2.5,2.5,0,0,0,2.143,3.787h11.618a2.5,2.5,0,0,0,2.273-1.46l4.111-8.984a18.5,18.5,0,0,1,33.639,0l4.111,8.984a2.5,2.5,0,0,0,2.273,1.46h11.618a2.5,2.5,0,0,0,2.143-3.787Z" transform="translate(-82.047 -284.553)" fill="#e1e1e5"/>
      <path id="Trazado_896543" data-name="Trazado 896543" d="M207.764,381.237c-.73-1.551-1.408-3.06-2.01-4.5H161.538c-.6,1.44-1.28,2.949-2.01,4.5Z" transform="translate(-121.67 -284.553)" fill="#d1d1d3"/>
      <path id="Trazado_896544" data-name="Trazado 896544" d="M203.044,248.546l3.807,10.413h12.335a247.445,247.445,0,0,1-8.138-26.7H190.509a247.441,247.441,0,0,1-8.138,26.7h12.334l3.807-10.413A2.41,2.41,0,0,1,203.044,248.546Z" transform="translate(-138.802 -176.194)" fill="#e1e1e5"/>
      <path id="Trazado_896545" data-name="Trazado 896545" d="M233.172,236.757q-.606-2.293-1.145-4.5H211.49q-.539,2.2-1.145,4.5Z" transform="translate(-159.783 -176.193)" fill="#d1d1d3"/>
      <path id="Trazado_896546" data-name="Trazado 896546" d="M238.356,18.525h8.822v-6.1a4.411,4.411,0,1,0-8.822,0Z" transform="translate(-180.791 -8)" fill="#e1e1e5"/>
      <path id="Trazado_896547" data-name="Trazado 896547" d="M238.356,32.1h8.822v4.5h-8.822Z" transform="translate(-180.791 -26.076)" fill="#d1d1d3"/>
      <path id="Trazado_896548" data-name="Trazado 896548" d="M0,0H10.2V23.245H0Z" transform="matrix(0.952, -0.306, 0.306, 0.952, 0, 47.025)" fill="#ff748f"/>
      <path id="Trazado_896549" data-name="Trazado 896549" d="M0,0H10.2V23.245H0Z" transform="matrix(0.952, -0.306, 0.306, 0.952, 9.707, 43.905)" fill="#eeeff4"/>
      <path id="Trazado_896550" data-name="Trazado 896550" d="M0,0H10.2V23.245H0Z" transform="matrix(0.952, -0.306, 0.306, 0.952, 19.414, 40.786)" fill="#65add6"/>
      <path id="Trazado_896551" data-name="Trazado 896551" d="M0,0H10.2V4.285H0Z" transform="matrix(0.952, -0.306, 0.306, 0.952, 5.801, 65.074)" fill="#ff577f"/>
      <path id="Trazado_896552" data-name="Trazado 896552" d="M0,0H10.2V4.285H0Z" transform="matrix(0.952, -0.306, 0.306, 0.952, 15.508, 61.955)" fill="#e5e6ea"/>
      <path id="Trazado_896553" data-name="Trazado 896553" d="M0,0H10.2V4.285H0Z" transform="matrix(0.952, -0.306, 0.306, 0.952, 25.215, 58.835)" fill="#4da0c4"/>
    </g>
    <path id="Trazado_896554" data-name="Trazado 896554" d="M127.792,48.149a1.878,1.878,0,0,0-1.1-.93L97.506,37.855a1.879,1.879,0,0,0-2.363,1.215L82.356,78.929c-2.154-6.295-4.07-12.744-5.722-19.259a4.3,4.3,0,0,0,2.838-4.039V51.037a4.306,4.306,0,0,0-4.3-4.3H73.719c-.574-2.91-1.1-5.822-1.548-8.677a1.879,1.879,0,0,0-3.711.588c.422,2.664.9,5.375,1.427,8.089H58.115a202.1,202.1,0,0,0,3.231-23h5.311c.115,1.547.336,4.054.743,7.379a1.879,1.879,0,1,0,3.729-.456c-.377-3.087-.591-5.467-.707-6.984a4.3,4.3,0,0,0,3.61-4.24V14.847A4.3,4.3,0,0,0,70.3,10.588V6.313a6.3,6.3,0,1,0-12.6,0v4.275a4.3,4.3,0,0,0-3.733,4.259V19.44a4.3,4.3,0,0,0,3.609,4.24,203.993,203.993,0,0,1-3.292,23.057H52.83a4.306,4.306,0,0,0-4.3,4.3v4.593a4.3,4.3,0,0,0,2.838,4.039c-1.652,6.514-3.568,12.964-5.722,19.259L32.859,39.071A1.879,1.879,0,0,0,30.5,37.856L1.307,47.219A1.89,1.89,0,0,0,.092,49.582L7.207,71.76A1.882,1.882,0,0,0,9.57,72.975l27.4-8.79,6.013,18.742H39.774a4.306,4.306,0,0,0-4.3,4.3v4.593a4.3,4.3,0,0,0,3.542,4.229c-1.192,2.645-2.643,5.6-4.33,8.813a1.879,1.879,0,1,0,3.327,1.746c2.039-3.886,3.745-7.408,5.08-10.488H84.91a248.667,248.667,0,0,0,14.517,27.17.627.627,0,0,1-.536.95H87.25a.628.628,0,0,1-.569-.366l-4.119-9a20.411,20.411,0,0,0-37.121,0l-4.119,9a.627.627,0,0,1-.569.366H29.111a.627.627,0,0,1-.536-.951c2.1-3.5,4.055-6.876,5.817-10.02a1.879,1.879,0,1,0-3.278-1.836c-1.743,3.113-3.682,6.452-5.762,9.926A4.384,4.384,0,0,0,29.111,128H40.752a4.394,4.394,0,0,0,3.986-2.56l4.119-9a16.654,16.654,0,0,1,30.288,0l4.119,9A4.395,4.395,0,0,0,87.25,128H98.891a4.384,4.384,0,0,0,3.759-6.638A258.594,258.594,0,0,1,88.988,96.051a4.3,4.3,0,0,0,3.542-4.229V87.228a4.306,4.306,0,0,0-4.3-4.3H85.02l6.013-18.742,27.4,8.79A1.882,1.882,0,0,0,120.8,71.76l7.115-22.178a1.878,1.878,0,0,0-.118-1.433ZM58.271,19.983a.544.544,0,0,1-.543-.544V14.847a.544.544,0,0,1,.543-.543H69.732a.544.544,0,0,1,.544.543V19.44a.544.544,0,0,1-.544.544ZM61.46,6.313a2.541,2.541,0,1,1,5.081,0v4.233H61.46Zm46.6,59.389-6.152-1.974,2.983-9.3,2.984-9.3,6.152,1.973-2.983,9.3ZM52.287,51.037a.544.544,0,0,1,.543-.543H75.172a.544.544,0,0,1,.544.543v4.593a.544.544,0,0,1-.544.543H52.831a.544.544,0,0,1-.544-.543Zm2.9,8.894H72.82c1.955,7.8,4.287,15.518,6.946,23H71.4l-3.364-9.2a4.294,4.294,0,0,0-8.069,0l-3.364,9.2H48.237c2.659-7.478,4.991-15.2,6.946-23Zm12.216,23H60.6L63.5,75.017a.536.536,0,0,1,1.011,0ZM14.671,61.575l1.692,5.275-6.152,1.974-5.967-18.6L10.4,48.25l1.976,6.16a1.879,1.879,0,0,0,3.578-1.148L13.974,47.1l6.152-1.973,2.983,9.3,2.983,9.3L19.941,65.7l-1.692-5.275a1.879,1.879,0,0,0-3.578,1.147Zm15,1.006-2.983-9.3L23.7,43.98l6.152-1.973,5.967,18.6Zm59.1,24.647v4.593a.544.544,0,0,1-.544.544H39.774a.544.544,0,0,1-.543-.543V87.228a.544.544,0,0,1,.543-.544H88.229a.544.544,0,0,1,.543.544Zm9.375-45.221L104.3,43.98l-2.983,9.3-2.983,9.3L92.18,60.607Zm19.645,26.816L111.64,66.85l2.983-9.3,2.983-9.3,6.152,1.973Z"/>
  </g>
</svg>
