<svg xmlns="http://www.w3.org/2000/svg" width="111.821" height="128" viewBox="0 0 111.821 128">
  <g id="Grupo_1111216" data-name="Grupo 1111216" transform="translate(-32.358 0.002)">
    <g id="Grupo_1111215" data-name="Grupo 1111215" transform="translate(34.232 1.875)">
      <path id="Trazado_896555" data-name="Trazado 896555" d="M260.4,440.045l4.231-8.254-4.231-8.254c-1.57.183-2.882.454-4.137.581a10.148,10.148,0,0,1-7.234-1.926c-2.185-1.409-3.92-1.6-5.227-1.144a5.09,5.09,0,0,0-3.062,4.9c.132,2.1,1.363,3.618,3.256,4.955a55.878,55.878,0,0,0,7.234,3.851c2.4,1.17,4.672,2.628,6.788,3.909.819.5,1.613.965,2.382,1.381Z" transform="translate(-190.511 -317.499)" fill="#eceaff"/>
      <path id="Trazado_896556" data-name="Trazado 896556" d="M95.907,78.137c5.828.13,6.605,10.49,11.138,8.936a12.718,12.718,0,0,1,2.694-.621l4.075-10.9-4.075-10.9c-.2-.163-.411-.33-.622-.507-4.191-3.517-5.231-10.1-6.386-11.95s-7.467-1.155-10.087-7.624-3.156-8.157,0-9.681-3.313-5.22-.887-6.837,6.673,1.319,11.2-.462c4.881-1.918-.924-7.624,1.964-10.974s-3.12-3.825-7.855-3.927c-5.726-.123-3.712-4.676-7.528-5.149-4.278-.53-6.218,4.687-9.915,3.417s-8.45-.2-10.38,2.506c-1.581,2.217-1.624,3.456-6.138,4.289-2.5.462-1.78,3.069-5.911,2.515-3.369-.452-2.59-4.485-6.8-3.534-3.621.818-2.244,5.234-6.689,5.84-4.364.594-2.973,4.724-2.973,6.854s-2.692,4.413,1.306,8.039.113,9.972,5.553,9.972S55.758,40.5,59,40.5s7.695,4.422,7.695,10.639,5.645,7.829,11.214,8.606,4.921,6.605,7.9,8.807,4.274,9.454,10.1,9.584Z" transform="translate(-39.854 -7.506)" fill="#eceaff"/>
    </g>
    <path id="Trazado_896557" data-name="Trazado 896557" d="M47.6,47.443c5.439,0,8.159-6.941,11.4-6.941s7.695,4.422,7.695,10.639,5.645,7.829,11.214,8.606,4.921,6.605,7.9,8.807,4.274,9.454,10.1,9.584a4.709,4.709,0,0,1,.672.064c-8.807-7.7-8.719-24.571-1.809-30.34a9.792,9.792,0,0,1-2.125-3.286c-2.62-6.469-3.156-8.157,0-9.681s-3.313-5.22-.887-6.837,6.673,1.319,11.2-.462c4.881-1.918-.924-7.624,1.964-10.974s-3.12-3.825-7.855-3.927c-5.726-.123-3.712-4.676-7.528-5.149-4.278-.53-6.218,4.687-9.915,3.417s-8.45-.2-10.38,2.506c-1.581,2.217-1.624,3.456-6.138,4.289-2.5.462-1.78,3.069-5.911,2.515-3.369-.452-2.59-4.485-6.8-3.534-3.621.818-2.244,5.234-6.689,5.84-4.365.594-2.974,4.724-2.974,6.854s-2.692,4.413,1.306,8.039.113,9.973,5.553,9.973Z" transform="translate(-5.621 -5.631)" fill="#d1d1ff"/>
    <path id="Trazado_896558" data-name="Trazado 896558" d="M352.181,255.24c-3.368-1.425-6.281-5.436-10.867-6.622-8.27-2.139-2.225-5.773-6.121-8.964-4.055-3.322-6.545,3.818-15.793-3.544v21.8c3.115-.35,5.233.8,5.335,2.435.129,2.072,7.123,2.072,7.641,9.454s3.626,8.418,0,8.548-2.581,6.605-9.445,6.476A25.774,25.774,0,0,0,319.4,285V301.5a11.378,11.378,0,0,0,5.077,1.7c3.756,0,3.882-5.6,3.882-7.671a7.159,7.159,0,0,1,3.521-5.776c1.943-.906,6.6.872,7.754-3.678,1.712-6.779,6.948-5.4,7.366-8.938.342-2.9-1.4-4.588-3.129-6.155-2.26-2.053-4.481-3.89-1.91-7.93,2.434-3.824,4.569-1.564,6.846,1.09,1.964,2.289,4.034,4.87,6.493,4.09,2.4-.761,2.681-3.2,1.958-5.774-.878-3.122-3.232-6.445-5.077-7.226Z" transform="translate(-215.281 -177.083)" fill="#fa5c6f"/>
    <path id="Trazado_896559" data-name="Trazado 896559" d="M94.895,284.3a4.094,4.094,0,0,1,3.1,3.242,13.837,13.837,0,0,1-.447,6.425c-1.325,5.13,1.546,4.578,1.546,7.339s.994,9.386-2.981,8.613-4.417,3.975-7.178,2.761-5.19-1.767-3.423-6.626a11.487,11.487,0,0,0,.769-4.719A10.058,10.058,0,0,0,84,295.807a15.857,15.857,0,0,1-3.048-5.936,2.917,2.917,0,0,1,1.743-3.543c3.984-1.717,4.533,3.159,6.594,2.129C90.972,287.617,92.381,283.65,94.895,284.3Z" transform="translate(-36.389 -213.175)" fill="#00be72"/>
    <path id="Trazado_896560" data-name="Trazado 896560" d="M88.93,317.864c2.761,1.215,3.2-3.534,7.178-2.761,2.754.535,3.123-2.481,3.09-5.3-7.529-.1-11.583-11.333-8.952-16.949a3.547,3.547,0,0,1-.958.786c-2.06,1.03-2.61-3.847-6.594-2.129a2.917,2.917,0,0,0-1.743,3.543A15.858,15.858,0,0,0,84,300.987a10.054,10.054,0,0,1,2.276,5.532,11.482,11.482,0,0,1-.769,4.719C83.74,316.1,86.17,316.649,88.93,317.864Z" transform="translate(-36.387 -218.355)" fill="#00a25b"/>
    <path id="Trazado_896561" data-name="Trazado 896561" d="M74.455,19.823A7.989,7.989,0,0,0,69.249,22.7c-1.581,2.217-1.624,3.456-6.138,4.289-2.5.462-1.78,3.069-5.911,2.515-3.369-.452-2.59-4.485-6.8-3.534-3.621.818-2.244,5.234-6.689,5.84-4.365.595-2.974,4.724-2.974,6.855s-2.692,4.413,1.306,8.039.113,9.972,5.553,9.972,8.159-6.941,11.4-6.941,7.695,4.422,7.695,10.639c0,4.917,3.532,6.952,7.763,7.973V19.823Z" transform="translate(-5.621 -14.869)" fill="#00be72"/>
    <path id="Trazado_896562" data-name="Trazado 896562" d="M143.781,84.875c-.916-3.26-3.468-7.31-6.151-8.445a20.363,20.363,0,0,1-4.011-2.729,1.875,1.875,0,0,0-2.314,2.951,22.328,22.328,0,0,0,4.864,3.232c1.046.443,3.175,3.063,4,6.006.557,1.98.315,3.151-.719,3.479-1.171.373-2.808-1.542-4.253-3.23-1.658-1.935-3.554-4.248-6.106-4.064-1.519.108-2.826,1.055-4,2.895-3.35,5.265-.1,8.211,2.05,10.16,1.577,1.429,2.954,2.649,2.71,4.711-.059.5-.286.707-1.617,1.468a10.5,10.5,0,0,0-5.7,7.231c-.421,1.666-1.293,1.844-3.677,1.928a7.851,7.851,0,0,0-3.052.509,9.051,9.051,0,0,0-4.6,7.476,15.147,15.147,0,0,1-.453,4.07c-.521,1.726-1.219,1.726-1.555,1.726a7.96,7.96,0,0,1-3.2-.97V109.636c.512-.026,1.05-.038,1.621-.028,5.076.1,6.883-2.879,8.074-4.847.8-1.325,1.063-1.614,1.474-1.629.935-.033,2.348-.084,3.124-1.219.744-1.087.352-2.212-.063-3.4a20.947,20.947,0,0,1-1.257-5.932c-.411-5.851-4.264-7.929-6.567-9.171-.375-.2-.862-.465-1.115-.644a4.128,4.128,0,0,0-1.871-2.771,7.1,7.1,0,0,0-3.419-1.076V62.572a11.531,11.531,0,0,0,9.723,1.257c1.642-.419,2.153-.508,3.007.192.822.673.839,1.159.766,2.467-.1,1.761-.26,4.708,4.53,6.4a1.875,1.875,0,0,0,1.247-3.537c-2.138-.754-2.114-1.194-2.033-2.653A5.937,5.937,0,0,0,121.1,61.12c-2.359-1.932-4.55-1.373-6.31-.924-2.4.613-4.891,1.248-10.087-3.113-2.562-2.15-3.825-5.8-4.747-8.467a16.066,16.066,0,0,0-1.254-3.04c-.744-1.19-2.122-1.661-3.582-2.159-2.317-.791-4.944-1.687-6.357-5.175-1.192-2.944-1.978-4.958-2.031-6.079-.02-.425-.031-.659,1.109-1.209a3.226,3.226,0,0,0,1.851-2.1c.514-1.975-1.089-3.627-1.972-5.04a11.056,11.056,0,0,1,2.61.24,13.917,13.917,0,0,0,7.7-.346c4.183-1.643,3.273-5.442,2.73-7.712-.445-1.86-.67-3.043-.032-3.783,1.488-1.726,1.338-3.127.95-4C100.624,5.854,97,5.306,91.49,5.187c-2.106-.045-2.461-.7-3.1-1.884A5.28,5.28,0,0,0,84.152.052c-2.83-.351-4.819,1.1-6.417,2.264-1.532,1.116-2.242,1.541-3.118,1.24C70.081,2,64.467,3.428,62.1,6.746c-1.6,2.238-1.308,2.861-4.952,3.534a5.119,5.119,0,0,0-3.02,1.828c-.565.618-.8.874-2.3.673-.683-.092-.959-.42-1.572-1.222a5.14,5.14,0,0,0-5.887-2.283c-2.551.576-3.484,2.4-4.165,3.728-.689,1.346-1.023,1.9-2.364,2.083-5.37.732-4.886,5.533-4.679,7.584a3.621,3.621,0,0,1-.223,2.316c-.6,1.784-1.6,4.771,2.229,8.241,1.262,1.144,1.411,2.781,1.57,4.514.2,2.223.544,5.944,5.242,5.944,3.849,0,6.44-2.6,8.522-4.69,1-1,2.243-2.251,2.875-2.251,2,0,5.82,3.413,5.82,8.764,0,8.673,8.991,9.927,12.83,10.463,2.3.32,3.008,1.689,4.069,4.079A10.22,10.22,0,0,0,79.07,64.43a11.83,11.83,0,0,1,2.276,3.092c1.719,2.849,4.073,6.751,8.9,6.858,1.794.04,2.967,1.725,4.552,4.292,1.51,2.447,3.58,5.8,7.236,4.543,2.491-.854,4.455-.668,5.3-.106.18.12.251.225.253.262.11,1.758,1.665,2.6,3.036,3.336,2.034,1.1,4.339,2.34,4.606,6.132a24.4,24.4,0,0,0,1.345,6.581c-2.212.292-3.289,2.074-4.09,3.4-1.222,2.02-2.084,3.091-4.795,3.039a31.894,31.894,0,0,0-6,.5c-3.108.487-4.743.679-7.927-1.372-3.1-2-5.438-1.83-6.856-1.339a6.953,6.953,0,0,0-4.32,6.789c.156,2.472,1.479,4.556,4.045,6.369a44.765,44.765,0,0,0,6.183,3.37,57.586,57.586,0,0,1,6.8,3.762c2.876,1.76,6.451,4.057,9.58,4.057,1.426,0,3.99-.57,5.144-4.391a18.338,18.338,0,0,0,.613-5.155,5.313,5.313,0,0,1,2.439-4.077,6.8,6.8,0,0,1,1.6-.16c2.108-.075,6.033-.213,7.181-4.758a6.8,6.8,0,0,1,3.932-4.894c1.42-.812,3.188-1.824,3.479-4.283.467-3.949-2.059-6.244-3.731-7.763-2.315-2.1-3.28-2.879-1.589-5.536.593-.931,1-1.161,1.1-1.168.635-.051,2.575,2.279,2.989,2.761,2.092,2.446,4.7,5.489,8.235,4.367,3.7-1.172,4.075-4.936,3.2-8.067Zm-41.538-5.619c-.471.113-.947.248-1.427.413-.661.227-1.217-.355-2.829-2.966-1.646-2.666-3.694-5.983-7.659-6.071-2.571-.057-3.955-2.035-5.771-5.046A13.937,13.937,0,0,0,81.3,61.414a7.384,7.384,0,0,1-1.777-2.883c-1.058-2.384-2.507-5.649-6.978-6.273q-.972-.136-1.835-.3V25.309a1.875,1.875,0,1,0-3.75,0V50.933c-2.823-1.134-4.013-2.837-4.013-5.424C62.945,38.462,57.8,33,53.375,33c-2.189,0-3.812,1.629-5.531,3.354-1.757,1.763-3.574,3.587-5.866,3.587-1.179,0-1.276,0-1.508-2.536-.186-2.036-.441-4.825-2.785-6.951-2.011-1.824-1.7-2.746-1.192-4.273a6.921,6.921,0,0,0,.4-3.883c-.3-2.93.033-3.3,1.455-3.492,3.334-.454,4.454-2.641,5.195-4.089.615-1.2.88-1.6,1.654-1.78,1.186-.268,1.341-.067,2.082.9A5.856,5.856,0,0,0,51.329,16.5c3.178.426,4.494-.684,5.568-1.859.434-.475.563-.6.933-.67,5.214-.963,5.65-2.7,7.324-5.045a4.749,4.749,0,0,1,1.8-1.443v8.986a1.875,1.875,0,0,0,3.75,0v-9.8A8.4,8.4,0,0,1,73.4,7.1c2.812.966,4.882-.543,6.546-1.756,1.486-1.083,2.481-1.729,3.747-1.573.677.084.832.276,1.4,1.32.812,1.494,2.038,3.751,6.319,3.843,4.173.09,5.866.475,6.545.745l-.07.083c-1.938,2.248-1.266,5.055-.775,7.1.668,2.791.474,2.984-.454,3.349a10.576,10.576,0,0,1-5.728.135c-2-.324-4.073-.659-5.831.512a2.983,2.983,0,0,0-1.342,1.957c-.365,1.946,1.288,3.572,2.091,4.936-4.423,2.353-2.954,5.981-.561,11.89,2.056,5.076,6.166,6.479,8.621,7.317a9.527,9.527,0,0,1,1.65.66,18.782,18.782,0,0,1,.853,2.216c1,2.891,2.511,7.253,5.833,10.071V79.256Zm0,41.9a67.156,67.156,0,0,0-7.8-4.35,41.754,41.754,0,0,1-5.65-3.055c-1.646-1.163-2.383-2.222-2.467-3.542a3.259,3.259,0,0,1,1.8-3.01c1.143-.4,2.587.3,3.6.948a12.008,12.008,0,0,0,8.439,2.216c.686-.069,1.36-.175,2.074-.287ZM64.577,88.134a5.144,5.144,0,0,0-1.261-3.37c-.56-.743-.93-1.234-.345-3.5a15.549,15.549,0,0,0,.454-7.335,5.929,5.929,0,0,0-4.447-4.615c-2.772-.722-4.558,1.517-5.739,3-.258.324-.608.762-.881,1.042-.1-.1-.2-.208-.29-.3-.979-1.016-3.016-3.131-6.5-1.628a4.762,4.762,0,0,0-2.848,5.586,17.226,17.226,0,0,0,3.4,6.751,8.308,8.308,0,0,1,1.9,4.52,9.754,9.754,0,0,1-.66,3.954c-2.235,6.146,1.4,7.692,3.806,8.714a5.288,5.288,0,0,0,2.252.635A5.044,5.044,0,0,0,56.87,99.75c.963-.954,1.434-1.367,2.492-1.161a3.959,3.959,0,0,0,3.492-.814C65.337,95.633,64.577,90.851,64.577,88.134ZM60.87,93.285c-.138,1.343-.455,1.64-.45,1.641a.838.838,0,0,1-.342-.019,6.124,6.124,0,0,0-5.846,2.177,5.547,5.547,0,0,1-.842.742c-.069-.02-.037-.015-.759-.322a5.477,5.477,0,0,1-2.093-1.194c-.274-.417-.149-1.433.344-2.788a13.456,13.456,0,0,0,.877-5.485A11.988,11.988,0,0,0,49.1,81.5a13.559,13.559,0,0,1-2.693-5.121c-.184-1.057.149-1.289.638-1.5a2.17,2.17,0,0,1,.834-.221c.485,0,.832.33,1.485,1.008.735.763,2.265,2.351,4.371,1.3a7.918,7.918,0,0,0,2.432-2.308c.576-.723,1.448-1.817,1.861-1.708a2.237,2.237,0,0,1,1.748,1.869,12.241,12.241,0,0,1-.44,5.515c-.958,3.71-.082,5.284.981,6.7.4.531.505.687.505,1.112a49.74,49.74,0,0,1,.043,5.151Z"/>
  </g>
</svg>
