<svg xmlns="http://www.w3.org/2000/svg" width="89" height="89" viewBox="0 0 89 89">
  <g id="Grupo_1112368" data-name="Grupo 1112368" transform="translate(-755.378 -11553.31)">
    <rect id="Rectángulo_400898" data-name="Rectángulo 400898" width="89" height="89" rx="44.5" transform="translate(755.378 11553.31)" fill="#769671"/>
    <g id="Grupo_1111785" data-name="Grupo 1111785" transform="translate(762.051 11560.193)">
      <path id="Trazado_897055" data-name="Trazado 897055" d="M2,35a36.174,36.174,0,0,0,71.613,0Z" transform="translate(0.194 6.387)" fill="#9dc8f2"/>
      <path id="Trazado_897056" data-name="Trazado 897056" d="M18.626,60.565a4.5,4.5,0,0,1,1.611-4.8,7.453,7.453,0,0,0,1.54-1.086,2.965,2.965,0,0,0-.143-3.509,21.864,21.864,0,0,0-2.7-2.662,4.029,4.029,0,0,1-1.468-3.342,3.65,3.65,0,0,1,2.172-2.506,28.111,28.111,0,0,1,4.8-1.277A11.528,11.528,0,0,0,31.791,35H2A35.784,35.784,0,0,0,18.626,60.565Z" transform="translate(0.194 6.387)" fill="#62b376"/>
      <path id="Trazado_897057" data-name="Trazado 897057" d="M66.247,40.382l-.405-.031a16.56,16.56,0,0,1-9.663,1.365,13.364,13.364,0,0,0-3.654-.389,2.969,2.969,0,0,0-2.7,2.136,14.248,14.248,0,0,1-.106,2.225c-.362,1.044-1.637,1.416-2.738,1.515-4,.359-8.3-.844-11.871.99A2.463,2.463,0,0,0,33.587,50c-.079,1.187,1.24,1.974,1.633,3.1.649,1.855-1.326,3.469-2.254,5.2a5.372,5.372,0,0,0,1.453,6.6A36.089,36.089,0,0,0,66.247,40.382Z" transform="translate(6.077 7.423)" fill="#62b376"/>
      <path id="Trazado_897058" data-name="Trazado 897058" d="M33.664,39.161c4.14-6.21,10.609-13.33,10.609-21.219a10.609,10.609,0,1,0-21.219,0c0,8.258,6.111,14.752,10.609,21.219Z" transform="translate(4.269 1.032)" fill="#d97777"/>
      <circle id="Elipse_12103" data-name="Elipse 12103" cx="6.365" cy="6.365" r="6.365" transform="translate(31.567 12.609)" fill="#e6ecf2"/>
      <g id="Grupo_1111784" data-name="Grupo 1111784" transform="translate(8.161 18.71)">
        <circle id="Elipse_12104" data-name="Elipse 12104" cx="4.774" cy="4.774" r="4.774" transform="translate(47.145)" fill="#72a6e4"/>
        <path id="Trazado_897059" data-name="Trazado 897059" d="M54.742,24H48.774A4.774,4.774,0,0,0,44,28.774v8.355H59.516V28.774A4.774,4.774,0,0,0,54.742,24Z" transform="translate(0.161 -14.452)" fill="#72a6e4"/>
        <circle id="Elipse_12105" data-name="Elipse 12105" cx="4.774" cy="4.774" r="4.774" transform="translate(2.984)" fill="#72a6e4"/>
        <path id="Trazado_897060" data-name="Trazado 897060" d="M17.742,24H11.774A4.774,4.774,0,0,0,7,28.774v8.355H22.516V28.774A4.774,4.774,0,0,0,17.742,24Z" transform="translate(-7 -14.452)" fill="#72a6e4"/>
      </g>
      <path id="Trazado_897061" data-name="Trazado 897061" d="M40.729,17.448a7.559,7.559,0,1,0-7.559,7.559A7.559,7.559,0,0,0,40.729,17.448ZM28,17.448a5.172,5.172,0,1,1,5.172,5.172A5.172,5.172,0,0,1,28,17.448Z" transform="translate(4.763 1.527)"/>
      <path id="Trazado_897062" data-name="Trazado 897062" d="M30.943,2H33.33V6.244H30.943Z" transform="translate(5.795)"/>
      <path id="Trazado_897063" data-name="Trazado 897063" d="M0,0H2.387V4.244H0Z" transform="translate(25.082 7.818) rotate(-45)"/>
      <path id="Trazado_897064" data-name="Trazado 897064" d="M0,0H4.244V2.387H0Z" transform="translate(46.085 9.134) rotate(-45)"/>
      <path id="Trazado_897065" data-name="Trazado 897065" d="M38,72.774A37.306,37.306,0,0,0,74.989,40.707a1.194,1.194,0,0,0-1.183-1.353H69.032V32.193a5.96,5.96,0,0,0-4.4-5.733,5.968,5.968,0,1,0-9.1,0,5.96,5.96,0,0,0-4.4,5.733v7.161H39.381c.669-.977,1.375-1.971,2.109-2.992,3.864-5.378,8.245-11.473,8.245-18.227a11.8,11.8,0,1,0-23.605,0c0,7.192,4.244,12.934,8.349,18.487Q35.494,38,36.466,39.355h-11.6V32.193a5.96,5.96,0,0,0-4.4-5.733,5.968,5.968,0,1,0-9.1,0,5.96,5.96,0,0,0-4.4,5.733v7.161H2.194a1.194,1.194,0,0,0-1.183,1.353A37.306,37.306,0,0,0,38,72.774ZM28.517,18.136a9.415,9.415,0,1,1,18.831,0c0,5.985-4.142,11.748-7.8,16.833-.566.789-1.114,1.55-1.638,2.3-.5-.686-1-1.374-1.515-2.065-3.875-5.242-7.882-10.663-7.882-17.068Zm12.4,52.125a4.2,4.2,0,0,1-.824-4.814,12.512,12.512,0,0,1,.89-1.34c.939-1.3,2.107-2.91,1.439-4.82a5.62,5.62,0,0,0-.977-1.6c-.312-.4-.607-.775-.592-1.018.013-.193.291-.525.882-.829,2.075-1.066,4.533-.963,7.134-.853a32.775,32.775,0,0,0,4.3-.009c1.967-.177,3.3-1,3.758-2.312a4.259,4.259,0,0,0,.152-1.7,3.394,3.394,0,0,1,0-.705c.109-.617.929-1.074,1.659-1.159a8.541,8.541,0,0,1,2.486.232c.28.052.56.1.839.15a17.79,17.79,0,0,0,8.29-.654A35.06,35.06,0,0,1,40.918,70.261Zm30.5-24.394-.006-.012a15.39,15.39,0,0,1-8.961,1.266c-.261-.042-.522-.091-.783-.14a10.417,10.417,0,0,0-3.2-.256,4.154,4.154,0,0,0-3.733,3.114A5.261,5.261,0,0,0,54.7,51.1a2.44,2.44,0,0,1-.024.781c-.122.353-.8.635-1.717.717a30.594,30.594,0,0,1-3.985,0c-2.8-.118-5.69-.24-8.326,1.116a3.536,3.536,0,0,0-2.172,2.793,3.827,3.827,0,0,0,1.1,2.649,3.8,3.8,0,0,1,.6.92c.239.683-.263,1.45-1.119,2.631a14.344,14.344,0,0,0-1.061,1.613,6.575,6.575,0,0,0,.092,6.064l-.082,0a35,35,0,0,1-18.114-5.052A3.23,3.23,0,0,1,21.1,62.3c.142-.1.291-.184.438-.272a5.106,5.106,0,0,0,1.329-1.016,4.118,4.118,0,0,0-.065-4.98,11.269,11.269,0,0,0-1.918-1.986c-.31-.272-.622-.543-.924-.845-.388-.378-1.275-1.358-1.124-2.289a2.559,2.559,0,0,1,1.518-1.632,11.316,11.316,0,0,1,2.754-.783c.619-.123,1.24-.247,1.839-.417a12.653,12.653,0,0,0,7.764-6.342h39.7a33.968,33.968,0,0,1-1,4.126ZM60.08,19.064A3.581,3.581,0,1,1,56.5,22.645a3.581,3.581,0,0,1,3.581-3.581ZM53.516,32.193A3.585,3.585,0,0,1,57.1,28.613h5.968a3.585,3.585,0,0,1,3.581,3.581v7.161H53.516Zm-37.6-13.129a3.581,3.581,0,1,1-3.581,3.581,3.581,3.581,0,0,1,3.581-3.581ZM9.355,32.193a3.585,3.585,0,0,1,3.581-3.581H18.9a3.585,3.585,0,0,1,3.581,3.581v7.161H9.355Zm20.577,9.548a10.394,10.394,0,0,1-5.626,4.044c-.544.154-1.1.263-1.659.374a13.256,13.256,0,0,0-3.323.972,4.811,4.811,0,0,0-2.841,3.4,5.087,5.087,0,0,0,1.8,4.376c.328.328.678.636,1.029.942a9.372,9.372,0,0,1,1.53,1.553c.427.62.635,1.579.227,2.047a3.189,3.189,0,0,1-.748.533c-.191.112-.381.227-.566.352a5.376,5.376,0,0,0-2.186,3.483A34.528,34.528,0,0,1,3.586,41.742Z" transform="translate(0 0.839)"/>
    </g>
  </g>
</svg>
