<svg xmlns="http://www.w3.org/2000/svg" width="83.707" height="83.026" viewBox="0 0 83.707 83.026">
  <g id="Grupo_1111792" data-name="Grupo 1111792" transform="translate(0 -2.08)">
    <g id="Grupo_1111791" data-name="Grupo 1111791" transform="translate(1.226 3.299)">
      <path id="Trazado_897082" data-name="Trazado 897082" d="M88.755,111.219v2.9l-6.213,4.212,6.213,3.747v11.837l-7.682,17.127,7.682,10.42v9.453a2.321,2.321,0,0,1-2.321,2.321H9.821A2.321,2.321,0,0,1,7.5,170.916v-6.176l5.558-6.271L7.5,152.9V141.068l5.7-11.823L7.5,117.4V111.22A2.322,2.322,0,0,1,9.821,108.9H86.434A2.322,2.322,0,0,1,88.755,111.219Z" transform="translate(-7.5 -92.655)" fill="#c8effe"/>
      <path id="Trazado_897083" data-name="Trazado 897083" d="M13.106,164.739v6.176a2.321,2.321,0,0,0,2.321,2.321H9.821A2.321,2.321,0,0,1,7.5,170.915v-6.176l5.557-6.272L7.5,152.9V141.067l5.7-11.822L7.5,117.4v-6.177A2.322,2.322,0,0,1,9.821,108.9h5.606a2.322,2.322,0,0,0-2.321,2.321V117.4l5.7,11.848-5.7,11.822V152.9l5.558,5.563Z" transform="translate(-7.5 -92.654)" fill="#99e6fc"/>
      <path id="Trazado_897084" data-name="Trazado 897084" d="M7.5,184.546h5.488a5.919,5.919,0,0,1,0,11.837H7.5v11.835H26.729a5.883,5.883,0,0,0,5.883-5.885v-.068a5.883,5.883,0,0,1,5.885-5.883h3.688a5.885,5.885,0,0,0,5.885-5.885v-.068a5.884,5.884,0,0,0-5.885-5.884H30.342a5.884,5.884,0,0,1-5.885-5.885v-.068a5.885,5.885,0,0,1,5.885-5.885,5.883,5.883,0,0,0,5.883-5.883v-.068a5.883,5.883,0,0,0-5.883-5.885H7.5Z" transform="translate(-7.5 -136.133)" fill="#9be69d"/>
      <path id="Trazado_897085" data-name="Trazado 897085" d="M7.5,160.876h5.606v23.671H7.5Z" transform="translate(-7.5 -136.134)" fill="#6fd7a3"/>
      <path id="Trazado_897086" data-name="Trazado 897086" d="M7.5,378.063h5.606V389.9H7.5Z" transform="translate(-7.5 -317.813)" fill="#6fd7a3"/>
      <path id="Trazado_897087" data-name="Trazado 897087" d="M315.2,160.63h-.984a5.919,5.919,0,1,1,0-11.837h.984v-7.959H284.071a5.871,5.871,0,0,0-5.872,5.87v.094a5.874,5.874,0,0,0,5.872,5.87,5.871,5.871,0,0,1,5.87,5.872v.094a5.871,5.871,0,0,0,5.87,5.87h.8a5.871,5.871,0,0,1,5.872,5.87v.094a5.872,5.872,0,0,1-5.872,5.872h-3.86a5.871,5.871,0,0,0-5.87,5.87v.094a5.871,5.871,0,0,0,5.87,5.87H315.2Z" transform="translate(-233.942 -119.369)" fill="#9be69d"/>
      <circle id="Elipse_12107" data-name="Elipse 12107" cx="4.3" cy="4.3" r="4.3" transform="translate(33.791 68.736)" fill="#9be69d"/>
      <g id="Grupo_1111788" data-name="Grupo 1111788" transform="translate(7.644 9.856)">
        <path id="Trazado_897088" data-name="Trazado 897088" d="M85.392,71.461c-5.564,1.468-11.128-3.68-16.693-.685l-2.03,9.045L68.7,87.3c5.85-3.149,11.7,2.7,17.548.4a1.371,1.371,0,0,0,.871-1.275V72.779A1.369,1.369,0,0,0,85.392,71.461Z" transform="translate(-64.639 -69.822)" fill="#7bacdf"/>
        <path id="Trazado_897089" data-name="Trazado 897089" d="M56.283,103.47a2.03,2.03,0,0,1-2.03-2.03V75.659h4.06V101.44A2.03,2.03,0,0,1,56.283,103.47Z" transform="translate(-54.253 -74.705)" fill="#e49280"/>
      </g>
      <g id="Grupo_1111789" data-name="Grupo 1111789" transform="translate(38.332 42.749)">
        <path id="Trazado_897090" data-name="Trazado 897090" d="M273.1,272.653c-5.564,1.468-11.128-3.68-16.693-.685l-2.03,9.045,2.03,7.483c5.85-3.149,11.7,2.7,17.548.4a1.371,1.371,0,0,0,.871-1.275V273.97a1.369,1.369,0,0,0-1.727-1.318Z" transform="translate(-252.345 -271.014)" fill="#fe646f"/>
        <path id="Trazado_897091" data-name="Trazado 897091" d="M243.989,306.184a2.03,2.03,0,0,1-2.03-2.03v-27.3h4.06v27.3A2.03,2.03,0,0,1,243.989,306.184Z" transform="translate(-241.959 -275.896)" fill="#e49280"/>
      </g>
      <g id="Grupo_1111790" data-name="Grupo 1111790" transform="translate(53.022 0)">
        <path id="Trazado_897092" data-name="Trazado 897092" d="M362.949,11.178c-5.564,1.468-11.128-3.68-16.693-.685l-2.03,9.045,2.03,7.483c5.85-3.149,11.7,2.7,17.548.4a1.371,1.371,0,0,0,.871-1.275V12.5a1.369,1.369,0,0,0-1.727-1.318Z" transform="translate(-342.196 -9.539)" fill="#ffe177"/>
        <path id="Trazado_897093" data-name="Trazado 897093" d="M333.841,42.774a2.03,2.03,0,0,1-2.03-2.03V15.375h4.06V40.744A2.03,2.03,0,0,1,333.841,42.774Z" transform="translate(-331.811 -14.421)" fill="#e49280"/>
      </g>
    </g>
    <path id="Trazado_897094" data-name="Trazado 897094" d="M80.161,18.318H77.953V6.256a2.6,2.6,0,0,0-3.266-2.5c-2.178.575-4.448-.036-6.851-.683-3.014-.811-6.42-1.727-9.824-.042H54.248a1.226,1.226,0,0,0-1.226,1.226V18.318H32.575V16.112a2.594,2.594,0,0,0-3.266-2.5c-1.994.526-4.061.061-6.36-.552a1.226,1.226,0,0,0-.632,2.369c2.546.679,5.045,1.232,7.619.553a.149.149,0,0,1,.135.025.126.126,0,0,1,.052.107V29.767a.144.144,0,0,1-.093.134c-2.4.943-4.913.268-7.571-.447-2.565-.69-5.413-1.457-8.3-.632V14.884a6.992,6.992,0,0,1,2.836-.5h.026a1.226,1.226,0,0,0,.025-2.452,9.3,9.3,0,0,0-4.409.951H8.87a1.226,1.226,0,0,0-1.226,1.226v4.209h-4.1A3.55,3.55,0,0,0,0,21.864v59.7a3.55,3.55,0,0,0,3.546,3.546H80.161a3.55,3.55,0,0,0,3.546-3.546v-59.7A3.55,3.55,0,0,0,80.161,18.318Zm1.094,3.546v1.674H70.09a1.226,1.226,0,0,0,0,2.452H81.255V31.5a7.143,7.143,0,0,0,0,14.277v25.1H60.039a4.65,4.65,0,0,1-4.645-4.645v-.093a4.672,4.672,0,0,1,.055-.714,14.25,14.25,0,0,0,2.7.285,9.348,9.348,0,0,0,3.467-.638,2.582,2.582,0,0,0,1.649-2.416V61.5H63.9A7.107,7.107,0,0,0,71,54.4v-.093a7.106,7.106,0,0,0-7.1-7.1h-.8a4.712,4.712,0,0,1-.6-.039,2.639,2.639,0,0,0-.245-.215,2.583,2.583,0,0,0-1.746-.533,4.649,4.649,0,0,1-2.059-3.855v-.095a7.105,7.105,0,0,0-7.1-7.1,4.646,4.646,0,0,1-4.646-4.643v-.095a4.651,4.651,0,0,1,4.646-4.645h1.666v3.632a3.256,3.256,0,1,0,6.512,0V25.991h4.834a1.226,1.226,0,0,0,0-2.452H59.534v-1.98c2.444-1,4.986-.314,7.665.407a21.856,21.856,0,0,0,5.638,1,9.349,9.349,0,0,0,3.468-.638,2.583,2.583,0,0,0,1.5-1.558h2.354a1.094,1.094,0,0,1,1.094,1.093Zm0,21.464a4.692,4.692,0,0,1,0-9.372ZM60.623,48.872a.149.149,0,0,1,.136.026.125.125,0,0,1,.052.107V62.66a.146.146,0,0,1-.093.134c-2.4.944-4.914.268-7.572-.447a21.841,21.841,0,0,0-5.641-.99,9.632,9.632,0,0,0-2.661.358V47.777c2.444-1,4.986-.312,7.665.409,2.608.7,5.3,1.428,8.115.686Zm3.275.79a4.651,4.651,0,0,1,4.646,4.645V54.4A4.652,4.652,0,0,1,63.9,59.046h-.635V49.662ZM67.2,5.437c2.608.7,5.3,1.428,8.114.686a.15.15,0,0,1,.136.026.125.125,0,0,1,.052.106V19.911a.146.146,0,0,1-.093.134c-2.4.944-4.914.268-7.572-.447a21.841,21.841,0,0,0-5.641-.99,9.631,9.631,0,0,0-2.661.358V5.029c2.444-1,4.986-.312,7.665.409Zm-11.725.042h1.607V29.623a.8.8,0,1,1-1.607,0V5.479ZM53.022,20.77v2.768H51.356a7.106,7.106,0,0,0-7.1,7.1v.095a7.1,7.1,0,0,0,7.1,7.1A4.65,4.65,0,0,1,56,42.472v.095a7.09,7.09,0,0,0,1.329,4.126,24.452,24.452,0,0,1-4.181-.874c-3.014-.811-6.42-1.727-9.825-.042H39.558A1.226,1.226,0,0,0,38.332,47v3.906a7.092,7.092,0,0,0-2.421-.422H24.069a4.664,4.664,0,0,1-4.659-4.658V45.76A4.664,4.664,0,0,1,24.069,41.1a7.109,7.109,0,0,0,7.109-7.109v-.067a7.115,7.115,0,0,0-.22-1.756,2.581,2.581,0,0,0,1.618-2.4v-9H53.022ZM41.587,77.562a3.249,3.249,0,0,0,.571-.053,3.073,3.073,0,1,1-3.826-4.082v.88a3.259,3.259,0,0,0,3.255,3.255ZM21.821,31.821a21.863,21.863,0,0,0,5.638,1,10.211,10.211,0,0,0,1.118-.062,4.672,4.672,0,0,1,.148,1.167v.067a4.657,4.657,0,0,1-4.656,4.656,7.119,7.119,0,0,0-7.112,7.11v.069a7.119,7.119,0,0,0,7.112,7.11H35.911a4.6,4.6,0,0,1,2.421.682v1.149a1.226,1.226,0,1,0,2.452,0V48.228h1.607V74.306a.8.8,0,0,1-1.607,0V60.492a1.226,1.226,0,1,0-2.452,0v1.149a4.6,4.6,0,0,1-2.421.682H32.222a7.117,7.117,0,0,0-7.11,7.109V69.5a4.662,4.662,0,0,1-4.656,4.658h-18V64.775H6.714a7.145,7.145,0,1,0,0-14.289H2.452V29.267H7.644V39.89a3.256,3.256,0,0,0,6.512,0V31.415c2.443-1,4.986-.315,7.665.406ZM2.452,52.938H6.714a4.692,4.692,0,1,1,0,9.385H2.452Zm7.644-37.6H11.7V39.89a.8.8,0,1,1-1.607,0V15.335ZM3.546,20.77h4.1v6.044H2.452v-4.95A1.1,1.1,0,0,1,3.546,20.77ZM80.161,82.654H3.546a1.1,1.1,0,0,1-1.094-1.094V76.61h18a7.117,7.117,0,0,0,7.109-7.11v-.069a4.662,4.662,0,0,1,4.658-4.656h3.688a7.092,7.092,0,0,0,2.421-.422V70.9a5.526,5.526,0,1,0,6.389,4.28,3.239,3.239,0,0,0,.122-.873v-10c2.444-1,4.986-.314,7.665.407l.549.147a7.123,7.123,0,0,0-.117,1.282v.093a7.105,7.105,0,0,0,7.1,7.1H81.255v8.227a1.1,1.1,0,0,1-1.094,1.094Z"/>
  </g>
</svg>
