<svg xmlns="http://www.w3.org/2000/svg" width="89" height="89" viewBox="0 0 89 89">
  <g id="Grupo_1111975" data-name="Grupo 1111975" transform="translate(-767.051 -12860.964)">
    <rect id="Rectángulo_400898" data-name="Rectángulo 400898" width="89" height="89" rx="44.5" transform="translate(767.051 12860.964)" fill="#e9bd68"/>
    <g id="Grupo_1111822" data-name="Grupo 1111822" transform="translate(778.006 12873.642)">
      <g id="Grupo_1111793" data-name="Grupo 1111793">
        <path id="Trazado_897095" data-name="Trazado 897095" d="M47.97,24.98c-.05-.31-.11-.61-.18-.91a.037.037,0,0,0-.01-.03.351.351,0,0,0-.06-.14.318.318,0,0,0-.11-.12.413.413,0,0,0-.11-.07.076.076,0,0,0-.04-.01.453.453,0,0,0-.16-.03H10.62a.453.453,0,0,0-.16.03.076.076,0,0,0-.04.01.413.413,0,0,0-.11.07.236.236,0,0,0-.08.09q-.015,0-.03.03a.351.351,0,0,0-.06.14.037.037,0,0,0-.01.03,19.527,19.527,0,0,0-.46,4.24A19.139,19.139,0,0,0,17.3,43.68a.61.61,0,0,0,.16.12,19.314,19.314,0,0,0,23.89-.7,18.22,18.22,0,0,0,1.63-1.54,18.787,18.787,0,0,0,1.46-1.73c.07-.09.14-.19.2-.28a19.053,19.053,0,0,0,3.62-11.24,17.623,17.623,0,0,0-.29-3.33ZM43.79,39.06a1.274,1.274,0,0,1-.13.19c-.22.3-.45.58-.69.87-.01-.01-.01.01-.01.01a17.731,17.731,0,0,1-1.33,1.41c-.19.19-.38.36-.58.53a5.721,5.721,0,0,1-.53.45c-.17.14-.34.28-.52.41-.09.07-.19.14-.29.21-.17.12-.33.24-.5.34-.13.09-.26.18-.38.26-.17.11-.34.22-.52.32a1.923,1.923,0,0,1-.31.18,8.206,8.206,0,0,1-.83.44c-.32.16-.64.32-.96.45a17.661,17.661,0,0,1-3.28,1.05c-.26.07-.52.12-.79.17H32.1c-.31.06-.61.11-.92.14l-.23.03c-.04,0-.07.01-.11.01a5.868,5.868,0,0,1-.59.05c-.17.02-.34.03-.52.04a1.615,1.615,0,0,1-.22,0c-.21.02-.42.02-.63.02-.13,0-.26,0-.38-.01-.29-.01-.56-.02-.84-.04h-.03a19.034,19.034,0,0,1-2.01-.26c-.38-.07-.77-.16-1.14-.25-.21-.06-.41-.11-.62-.17s-.4-.12-.6-.19a6.078,6.078,0,0,1-.6-.21c-.2-.07-.39-.15-.59-.23s-.39-.17-.59-.26-.38-.17-.57-.27c-.33-.16-.66-.33-.98-.52a3.992,3.992,0,0,1-.44-.27,15.8,15.8,0,0,1-1.32-.87c-.05-.04-.1-.07-.15-.11l-.06-.06c-.26-.2-.51-.39-.76-.6a18.163,18.163,0,0,1-6.55-14.03,18.591,18.591,0,0,1,.36-3.65H46.9c.02.11.04.21.06.32.04.2.08.39.1.59.05.3.09.59.12.9.02.18.04.35.05.54.01.15.02.31.03.46.01.28.02.56.02.85a17.888,17.888,0,0,1-3.49,10.76Z"/>
        <path id="Trazado_897096" data-name="Trazado 897096" d="M40.93,25.92c-.49,3.76-4.43,5.25-4.51,5.28a1.122,1.122,0,0,1-1.2-.03c-1.05-.69-1.72-3.34-1.67-6.51h7.36A4.474,4.474,0,0,1,40.93,25.92Z" fill="#73af14"/>
        <path id="Trazado_897097" data-name="Trazado 897097" d="M17.21,42.35a18.163,18.163,0,0,1-6.55-14.03,18.591,18.591,0,0,1,.36-3.65h.8a15.5,15.5,0,0,0,1.36,1.48A17.139,17.139,0,0,0,13,28.63a18.127,18.127,0,0,0,4.15,11.61,17.337,17.337,0,0,1,.06,2.11Z" fill="#709b13"/>
        <path id="Trazado_897098" data-name="Trazado 897098" d="M17.24,32.01c-1.1,1.87-2.18,4.26-.7,6.1a4.215,4.215,0,0,1,.61,2.13A18.107,18.107,0,0,1,13,28.63a17.276,17.276,0,0,1,.18-2.49,7.462,7.462,0,0,0,2.6,1.78c1.22.46,1.95,1,2.17,1.6a3.3,3.3,0,0,1-.71,2.49Z" fill="#73af14"/>
        <path id="Trazado_897099" data-name="Trazado 897099" d="M27.64,46.58a19.034,19.034,0,0,1-2.01-.26c-.38-.07-.77-.16-1.14-.25-.21-.06-.41-.11-.62-.17s-.4-.12-.6-.19-.4-.14-.6-.21-.39-.15-.59-.23-.39-.17-.59-.26-.38-.17-.57-.27c-.33-.16-.66-.33-.98-.52a3.992,3.992,0,0,1-.44-.27,15.8,15.8,0,0,1-1.32-.87c.03-.54.04-1.13.02-1.71a17.952,17.952,0,0,0,1.36,1.26l.97.77a17.628,17.628,0,0,0,7.11,3.18Z" fill="#0db8c9"/>
        <path id="Trazado_897100" data-name="Trazado 897100" d="M47.29,28.32a17.947,17.947,0,0,1-3.5,10.74,8.8,8.8,0,0,0-5.42,2.16,2.631,2.631,0,0,1-.57.41,3.031,3.031,0,0,1-.65.29c-.56.15-1.14-.25-1.8-.68-.31-.2-.63-.41-.98-.6a3.243,3.243,0,0,0-2.5-.28c-.47.15-1.89.58-3.36,6.26-.29-.01-.56-.02-.84-.04h-.03a18.341,18.341,0,0,1-7.13-3.15l-.97-.77a17.953,17.953,0,0,1-1.36-1.26,10.183,10.183,0,0,0-.06-1.11,8.472,8.472,0,0,0-.24-1.48c-.02-.08-.04-.16-.06-.23,0-.01-.01-.02-.01-.03a1.955,1.955,0,0,0-.12-.32,2.426,2.426,0,0,0-.16-.36,2.168,2.168,0,0,0-.25-.37c-1.09-1.36-.22-3.29.78-4.98.59-1,1.19-2.18.79-3.32a1.773,1.773,0,0,0-.16-.34,2.489,2.489,0,0,0-.19-.3c-.06-.08-.13-.16-.2-.24h-.01a4.8,4.8,0,0,0-1.49-1.01l-.33-.15-.36-.15H16.1l.01-.01a4.371,4.371,0,0,1-.95-.5,2.111,2.111,0,0,1-.27-.18,11.586,11.586,0,0,1-1.49-1.34c-.1-.1-.2-.21-.3-.32H32.54v.32c0,2.85.55,5.97,2.12,7.02a2.073,2.073,0,0,0,1.13.34,2.316,2.316,0,0,0,.96-.22c.01-.01.03-.01.04-.02.18-.07,4.54-1.69,5.1-6.05a5.463,5.463,0,0,0,0-1.4H46.9c.02.11.04.21.06.32.04.2.08.39.1.59q.075.45.12.9c.02.18.04.36.05.54.01.15.02.31.03.46.02.29.03.57.03.86Z" fill="#0fc9e8"/>
      </g>
      <g id="Grupo_1111794" data-name="Grupo 1111794">
        <path id="Trazado_897101" data-name="Trazado 897101" d="M41.9,26.06c-.56,4.35-4.92,5.98-5.1,6.05a2.339,2.339,0,0,1-.99.24,2.131,2.131,0,0,1-1.13-.34c-1.62-1.09-2.16-4.41-2.12-7.34,0-.17,0-.34.01-.51a.487.487,0,0,1,.49-.47h.02a.491.491,0,0,1,.47.51c-.01.16-.01.32-.01.47-.05,3.17.62,5.82,1.67,6.51a1.122,1.122,0,0,0,1.2.03c.08-.03,4.02-1.52,4.51-5.28a4.471,4.471,0,0,0-.02-1.26.06.06,0,0,0-.01-.04c-.01-.12-.04-.24-.06-.35a.475.475,0,0,1,.36-.57c.01-.01.01-.01.02-.01a.375.375,0,0,1,.1-.01.5.5,0,0,1,.48.39c.04.21.08.4.1.59A4.989,4.989,0,0,1,41.9,26.06Z"/>
      </g>
      <g id="Grupo_1111795" data-name="Grupo 1111795">
        <path id="Trazado_897102" data-name="Trazado 897102" d="M18.19,41.4c.02.58.01,1.17-.02,1.71a2.175,2.175,0,0,1-.01.26.5.5,0,0,1-.49.47h-.02a.585.585,0,0,1-.19-.04.61.61,0,0,1-.16-.12.507.507,0,0,1-.13-.33c.02-.35.03-.69.03-1a17.337,17.337,0,0,0-.06-2.11,4.392,4.392,0,0,0-.61-2.13c-1.48-1.84-.4-4.23.7-6.1.59-1,.94-1.82.71-2.48-.22-.6-.95-1.14-2.17-1.6a7.748,7.748,0,0,1-2.6-1.78,14.381,14.381,0,0,1-1.36-1.48c-.06-.06-.11-.13-.16-.19a.474.474,0,0,1,.07-.69.51.51,0,0,1,.31-.11.465.465,0,0,1,.38.18c.24.29.46.56.7.81.1.11.2.22.3.32a11.032,11.032,0,0,0,1.49,1.34,2.111,2.111,0,0,0,.27.18,3.973,3.973,0,0,0,.95.5l.01.01h.01q.195.075.36.15a3.31,3.31,0,0,1,.33.15,5.107,5.107,0,0,1,1.49,1.01h.01c.07.08.14.16.2.24a2.49,2.49,0,0,1,.19.3,2.6,2.6,0,0,1,.16.34c.4,1.14-.2,2.31-.79,3.32-.99,1.69-1.87,3.62-.78,4.98a3.414,3.414,0,0,1,.25.37,3.922,3.922,0,0,1,.16.36,3.026,3.026,0,0,1,.12.32c0,.01.01.02.01.03.02.07.04.15.06.23a8.32,8.32,0,0,1,.24,1.48c.02.35.03.73.04,1.1Z"/>
      </g>
      <g id="Grupo_1111796" data-name="Grupo 1111796">
        <path id="Trazado_897103" data-name="Trazado 897103" d="M44.5,39.33a.5.5,0,0,0-.44-.28,2.437,2.437,0,0,0-.27.01,8.8,8.8,0,0,0-5.42,2.16,3.347,3.347,0,0,1-1.22.7c-.56.15-1.14-.25-1.8-.68a3.922,3.922,0,0,0-3.49-.88c-.47.15-1.89.58-3.36,6.26-.03.13-.07.26-.1.38a.5.5,0,0,0,.13.42.591.591,0,0,0,.43.19,19.126,19.126,0,0,0,5.55-.83,19.444,19.444,0,0,0,6.83-3.68,15.74,15.74,0,0,0,1.63-1.54,18.787,18.787,0,0,0,1.46-1.73.428.428,0,0,0,.07-.5Zm-3.44,2.73a5.721,5.721,0,0,1-.53.45c-.17.14-.34.28-.52.41-.09.07-.19.14-.29.21-.17.12-.33.24-.5.34-.13.09-.26.18-.38.26-.17.11-.34.22-.52.32a1.923,1.923,0,0,1-.31.18,8.206,8.206,0,0,1-.83.44c-.32.16-.64.32-.96.45a17.661,17.661,0,0,1-3.28,1.05c-.26.07-.52.12-.79.17H32.1c-.31.06-.61.11-.92.14-.11.02-.23.03-.33.04a5.868,5.868,0,0,1-.59.05c-.17.02-.34.03-.52.04-.07,0-.15.01-.22.01v-.01c.83-3.08,1.8-5.05,2.64-5.32a1.944,1.944,0,0,1,.61-.1,3.791,3.791,0,0,1,2.03.86,3.26,3.26,0,0,0,2.6.81,4.086,4.086,0,0,0,1.61-.9,8.034,8.034,0,0,1,3.96-1.85,17.99,17.99,0,0,1-1.34,1.42,7.021,7.021,0,0,1-.57.53Z"/>
        <path id="Trazado_897104" data-name="Trazado 897104" d="M42.98,40.11a17.99,17.99,0,0,1-1.34,1.42c-.19.19-.38.36-.58.53a5.721,5.721,0,0,1-.53.45c-.17.14-.34.28-.52.41-.09.07-.19.14-.29.21-.17.12-.33.24-.5.34-.13.09-.26.18-.38.26-.17.11-.34.22-.52.32a1.923,1.923,0,0,1-.31.18,8.206,8.206,0,0,1-.83.44c-.32.16-.64.32-.96.45a17.661,17.661,0,0,1-3.28,1.05c-.26.07-.52.12-.79.17H32.1c-.31.06-.61.11-.92.14-.11.02-.23.03-.33.04a5.868,5.868,0,0,1-.59.05c-.17.02-.34.03-.52.04a1.615,1.615,0,0,1-.22,0c.83-3.08,1.8-5.05,2.64-5.32a1.944,1.944,0,0,1,.61-.1,3.791,3.791,0,0,1,2.03.86,3.26,3.26,0,0,0,2.6.81,4.086,4.086,0,0,0,1.61-.9,8.106,8.106,0,0,1,3.97-1.85Z" fill="#73af14"/>
      </g>
      <g id="Grupo_1111797" data-name="Grupo 1111797">
        <path id="Trazado_897105" data-name="Trazado 897105" d="M47.8,24.17a.491.491,0,0,1-.49.49H10.62a.491.491,0,0,1-.49-.49.34.34,0,0,1,.01-.1.037.037,0,0,1,.01-.03.351.351,0,0,1,.06-.14q.015-.03.03-.03a.236.236,0,0,1,.08-.09.413.413,0,0,1,.11-.07.076.076,0,0,1,.04-.01.453.453,0,0,1,.16-.03H47.32a.453.453,0,0,1,.16.03.076.076,0,0,1,.04.01.413.413,0,0,1,.11.07.318.318,0,0,1,.11.12.351.351,0,0,1,.06.14.037.037,0,0,1,.01.03.34.34,0,0,0-.01.1Z"/>
      </g>
      <g id="Grupo_1111798" data-name="Grupo 1111798">
        <path id="Trazado_897106" data-name="Trazado 897106" d="M16.52,4.02a3.52,3.52,0,1,0,3.51,3.52,3.525,3.525,0,0,0-3.51-3.52ZM13.98,7.53A2.535,2.535,0,0,1,16.52,5a2.479,2.479,0,0,1,1.69.66,2.521,2.521,0,0,1-1.69,4.4,2.545,2.545,0,0,1-2.54-2.53Z"/>
        <path id="Trazado_897107" data-name="Trazado 897107" d="M14.78,8.02a2.488,2.488,0,0,0,.84,1.87A2.527,2.527,0,0,1,16.53,5a2.479,2.479,0,0,1,1.69.66,2.442,2.442,0,0,0-.9-.17A2.542,2.542,0,0,0,14.78,8.02Z" fill="#db9905"/>
        <path id="Trazado_897108" data-name="Trazado 897108" d="M19.05,7.53a2.533,2.533,0,0,1-2.53,2.53,2.5,2.5,0,0,1-.91-.17,2.521,2.521,0,0,1,1.7-4.4,2.442,2.442,0,0,1,.9.17,2.524,2.524,0,0,1,.84,1.87Z" fill="#f7b103"/>
      </g>
      <g id="Grupo_1111799" data-name="Grupo 1111799">
        <path id="Trazado_897109" data-name="Trazado 897109" d="M19.39,5.15a.518.518,0,0,1-.35-.14.5.5,0,0,1,0-.7l.7-.7a.495.495,0,0,1,.7.7l-.7.7A.537.537,0,0,1,19.39,5.15Z"/>
      </g>
      <g id="Grupo_1111800" data-name="Grupo 1111800">
        <path id="Trazado_897110" data-name="Trazado 897110" d="M21.56,8.02h-.99a.49.49,0,0,1,0-.98h.99a.491.491,0,0,1,.49.49A.478.478,0,0,1,21.56,8.02Z"/>
      </g>
      <g id="Grupo_1111801" data-name="Grupo 1111801">
        <path id="Trazado_897111" data-name="Trazado 897111" d="M20.08,11.6a.518.518,0,0,1-.35-.14l-.7-.7a.495.495,0,0,1,.7-.7l.7.7a.49.49,0,0,1-.35.84Z"/>
      </g>
      <g id="Grupo_1111802" data-name="Grupo 1111802">
        <path id="Trazado_897112" data-name="Trazado 897112" d="M16.51,13.07a.491.491,0,0,1-.49-.49V11.6a.49.49,0,1,1,.98,0v.98A.478.478,0,0,1,16.51,13.07Z"/>
      </g>
      <g id="Grupo_1111803" data-name="Grupo 1111803">
        <path id="Trazado_897113" data-name="Trazado 897113" d="M12.94,11.6a.518.518,0,0,1-.35-.14.5.5,0,0,1,0-.7l.7-.7a.5.5,0,0,1,.7,0,.492.492,0,0,1,0,.7l-.7.7a.5.5,0,0,1-.35.14Z"/>
      </g>
      <g id="Grupo_1111804" data-name="Grupo 1111804">
        <path id="Trazado_897114" data-name="Trazado 897114" d="M12.45,8.02h-.99a.49.49,0,0,1,0-.98h.99a.49.49,0,0,1,0,.98Z"/>
      </g>
      <g id="Grupo_1111805" data-name="Grupo 1111805">
        <path id="Trazado_897115" data-name="Trazado 897115" d="M13.64,5.15a.518.518,0,0,1-.35-.14l-.7-.7a.495.495,0,1,1,.7-.7l.7.7a.5.5,0,0,1,0,.7.518.518,0,0,1-.35.14Z"/>
      </g>
      <g id="Grupo_1111806" data-name="Grupo 1111806">
        <path id="Trazado_897116" data-name="Trazado 897116" d="M16.51,3.96a.491.491,0,0,1-.49-.49V2.48a.49.49,0,1,1,.98,0v.99A.478.478,0,0,1,16.51,3.96Z"/>
      </g>
      <g id="Grupo_1111807" data-name="Grupo 1111807">
        <path id="Trazado_897117" data-name="Trazado 897117" d="M32.98,13.8a3.689,3.689,0,0,0-.68-3.63,2.883,2.883,0,0,0,.21-1.08,3.035,3.035,0,0,0-6.07,0,2.883,2.883,0,0,0,.21,1.08,3.716,3.716,0,0,0-.89,2.41,3.64,3.64,0,0,0,.21,1.22,4.45,4.45,0,0,0,1.95,6.92,4.114,4.114,0,0,0,1.06.26,4.028,4.028,0,0,0,.49.03,1.927,1.927,0,0,0,.24-.01,2.111,2.111,0,0,0,.26-.02,4.522,4.522,0,0,0,3.71-2.95,4.28,4.28,0,0,0,.26-1.49,4.436,4.436,0,0,0-.96-2.74Zm-.03,2.75a3.455,3.455,0,0,1-2.98,3.43,1.09,1.09,0,0,1-.26.03,1.927,1.927,0,0,1-.24.01,2.628,2.628,0,0,1-.49-.04,3.512,3.512,0,0,1-2.2-1.23v-.01a3.449,3.449,0,0,1,.11-4.52.491.491,0,0,0,.08-.53,2.7,2.7,0,0,1,.6-3.07.5.5,0,0,0,.09-.58,2.113,2.113,0,0,1-.25-.96,2.055,2.055,0,0,1,4.11,0,2.13,2.13,0,0,1-.24.96.474.474,0,0,0,.09.58,2.779,2.779,0,0,1,.64.97v.01a2.453,2.453,0,0,1,.18.67c0,.1.01.2.01.31a2.672,2.672,0,0,1-.24,1.11.476.476,0,0,0,.09.53,3.476,3.476,0,0,1,.64,1.03,2.965,2.965,0,0,1,.2.66,3.466,3.466,0,0,1,.06.64Z"/>
        <path id="Trazado_897118" data-name="Trazado 897118" d="M31.52,9.09a1.946,1.946,0,0,0-1.32-.48,2.061,2.061,0,0,0-2.06,2.05,2.146,2.146,0,0,0,.25.96.5.5,0,0,1-.09.58,2.7,2.7,0,0,0-.6,3.07.491.491,0,0,1-.08.53,3.463,3.463,0,0,0-.9,2.32,3.282,3.282,0,0,0,.06.63,3.449,3.449,0,0,1,.11-4.52.491.491,0,0,0,.08-.53,2.7,2.7,0,0,1,.6-3.07.5.5,0,0,0,.09-.58,2.113,2.113,0,0,1-.25-.96,2.055,2.055,0,0,1,4.11,0Z" fill="#8ead2f"/>
        <path id="Trazado_897119" data-name="Trazado 897119" d="M32.95,16.55a3.455,3.455,0,0,1-2.98,3.43v-.93l.73-1.39.46-.88a.5.5,0,0,0-.21-.67.512.512,0,0,0-.67.21l-.32.6V11.6a.484.484,0,0,0-.49-.49.491.491,0,0,0-.49.49v2.95l-.58-.84a.5.5,0,1,0-.82.56l.72,1.02.68.97v3.69a3.512,3.512,0,0,1-2.2-1.23v-.01a3.282,3.282,0,0,1-.06-.63,3.444,3.444,0,0,1,.9-2.32.491.491,0,0,0,.08-.53,2.7,2.7,0,0,1,.6-3.07.5.5,0,0,0,.09-.58,2.113,2.113,0,0,1-.25-.96A2.061,2.061,0,0,1,30.2,8.57a2.015,2.015,0,0,1,1.32.48,2.13,2.13,0,0,1-.24.96.474.474,0,0,0,.09.58,2.779,2.779,0,0,1,.64.97v.01a2.453,2.453,0,0,1,.18.67c0,.1.01.2.01.31a2.672,2.672,0,0,1-.24,1.11.476.476,0,0,0,.09.53,3.476,3.476,0,0,1,.64,1.03,2.965,2.965,0,0,1,.2.66A4.06,4.06,0,0,1,32.95,16.55Z" fill="#9ac435"/>
      </g>
      <g id="Grupo_1111808" data-name="Grupo 1111808">
        <path id="Trazado_897120" data-name="Trazado 897120" d="M29.97,11.62V24.17a.491.491,0,0,1-.49.49.5.5,0,0,1-.49-.49V11.62a.49.49,0,1,1,.98,0Z"/>
      </g>
      <g id="Grupo_1111809" data-name="Grupo 1111809">
        <path id="Trazado_897121" data-name="Trazado 897121" d="M31.16,16.8l-1.19,2.26-.06.11a.5.5,0,0,1-.43.27.465.465,0,0,1-.23-.06.484.484,0,0,1-.27-.43.465.465,0,0,1,.06-.23l.93-1.78.32-.6a.5.5,0,0,1,.67-.21.51.51,0,0,1,.2.67Z"/>
      </g>
      <g id="Grupo_1111810" data-name="Grupo 1111810">
        <path id="Trazado_897122" data-name="Trazado 897122" d="M29.97,16.14a.491.491,0,0,1-.22.41.468.468,0,0,1-.28.09.461.461,0,0,1-.4-.22l-.09-.13-1.4-2a.5.5,0,1,1,.82-.56l.58.84.9,1.29a.514.514,0,0,1,.09.28Z"/>
      </g>
      <g id="Grupo_1111812" data-name="Grupo 1111812">
        <path id="Trazado_897123" data-name="Trazado 897123" d="M46.34,12.97a5.347,5.347,0,0,0-.89-2.5c.01-.01,0-.01,0-.01a5.222,5.222,0,0,0-.34-.48,4.475,4.475,0,0,0,.3-1.62,2,2,0,0,0-.02-.35,4.425,4.425,0,0,0-.81-2.27,4.1,4.1,0,0,0-.35-.47,3.682,3.682,0,0,0,.3-1.44,1.34,1.34,0,0,0-.01-.2,3.812,3.812,0,0,0-7.62.18,3.719,3.719,0,0,0,.3,1.44,4.612,4.612,0,0,0-1.18,3.1,4.688,4.688,0,0,0,.29,1.62,5.655,5.655,0,0,0,3.92,9.18,4.028,4.028,0,0,0,.49.03,3.908,3.908,0,0,0,.49-.03.881.881,0,0,0,.17-.02.148.148,0,0,0,.07-.01,4.5,4.5,0,0,0,.98-.22,5.662,5.662,0,0,0,3.95-5.39c-.01-.17-.02-.36-.04-.54Zm-3.92,4.91a4.194,4.194,0,0,1-.98.27,2,2,0,0,1-.24.04c-.17.01-.32.02-.49.02s-.32-.01-.49-.02a4.681,4.681,0,0,1-4.18-4.66,4.657,4.657,0,0,1,1.2-3.13.476.476,0,0,0,.09-.53A3.65,3.65,0,0,1,37,8.35a3.723,3.723,0,0,1,1.12-2.66.486.486,0,0,0,.1-.58,2.7,2.7,0,0,1-.33-1.3A2.827,2.827,0,0,1,40.72.98,2.8,2.8,0,0,1,43,2.15a2.763,2.763,0,0,1,.54,1.65,2.948,2.948,0,0,1-.33,1.3.47.47,0,0,0,.09.58,3.676,3.676,0,0,1,1.13,2.66,3.839,3.839,0,0,1-.32,1.52.491.491,0,0,0,.08.53,4.67,4.67,0,0,1-1.77,7.49Z"/>
        <path id="Trazado_897124" data-name="Trazado 897124" d="M42.99,2.16a2.709,2.709,0,0,0-1.06-.21A2.827,2.827,0,0,0,39.1,4.78a2.789,2.789,0,0,0,.33,1.3.486.486,0,0,1-.1.58,3.717,3.717,0,0,0-1.11,2.46.363.363,0,0,0-.17.07.5.5,0,0,0-.13.69l.54.78a1.336,1.336,0,0,0,.07.18.492.492,0,0,1-.09.54,4.632,4.632,0,0,0-1.2,3.12,4.706,4.706,0,0,0,1.21,3.14,4.687,4.687,0,0,1-1.23-7.24.476.476,0,0,0,.09-.53A3.971,3.971,0,0,1,37,8.35a3.723,3.723,0,0,1,1.12-2.66.486.486,0,0,0,.1-.58,2.7,2.7,0,0,1-.33-1.3,2.811,2.811,0,0,1,5.1-1.65Z" fill="#4a630d"/>
        <g id="Grupo_1111811" data-name="Grupo 1111811">
          <path id="Trazado_897125" data-name="Trazado 897125" d="M38.48,10.65l1.74,2.5v5.03a4.721,4.721,0,0,1-1.75-.55,4.706,4.706,0,0,1-1.21-3.14,4.632,4.632,0,0,1,1.2-3.12.492.492,0,0,0,.09-.54.67.67,0,0,1-.07-.18Z" fill="#577c0f"/>
          <path id="Trazado_897126" data-name="Trazado 897126" d="M45.39,13.53a4.674,4.674,0,0,1-2.96,4.35,4.194,4.194,0,0,1-.98.27,2,2,0,0,1-.24.04V16.77l.24-.45.98-1.88,1.11-2.13a.49.49,0,1,0-.87-.45l-.25.47-.98,1.88-.24.45V7.11a.49.49,0,0,0-.98,0v4.32l-.9-1.29-.57-.83a.476.476,0,0,0-.52-.2,3.7,3.7,0,0,1,1.11-2.46.486.486,0,0,0,.1-.58,2.673,2.673,0,0,1-.33-1.3,2.827,2.827,0,0,1,2.83-2.83A2.709,2.709,0,0,1,43,2.15a2.763,2.763,0,0,1,.54,1.65,2.948,2.948,0,0,1-.33,1.3.47.47,0,0,0,.09.58,3.676,3.676,0,0,1,1.13,2.66,3.839,3.839,0,0,1-.32,1.52.491.491,0,0,0,.08.53,4.783,4.783,0,0,1,1.2,3.14Z" fill="#577c0f"/>
        </g>
      </g>
      <g id="Grupo_1111813" data-name="Grupo 1111813">
        <path id="Trazado_897127" data-name="Trazado 897127" d="M41.2,7.11V24.17a.48.48,0,0,1-.31.45.406.406,0,0,1-.19.04.491.491,0,0,1-.49-.49V7.11a.5.5,0,0,1,.99,0Z"/>
      </g>
      <g id="Grupo_1111814" data-name="Grupo 1111814">
        <path id="Trazado_897128" data-name="Trazado 897128" d="M43.54,12.31l-2.33,4.46-.06.11a.5.5,0,0,1-.43.27.465.465,0,0,1-.23-.06.5.5,0,0,1-.27-.43.465.465,0,0,1,.06-.23l.93-1.76,1.47-2.81a.484.484,0,0,1,.66-.21.492.492,0,0,1,.2.66Z"/>
      </g>
      <g id="Grupo_1111815" data-name="Grupo 1111815">
        <path id="Trazado_897129" data-name="Trazado 897129" d="M41.2,13a.486.486,0,0,1-.22.4.076.076,0,0,1-.04.02.42.42,0,0,1-.24.07.464.464,0,0,1-.4-.21l-.09-.13-1.74-2.5-.54-.78a.5.5,0,0,1,.13-.69.363.363,0,0,1,.17-.07.476.476,0,0,1,.52.2l.57.83.9,1.29.9,1.29a.538.538,0,0,1,.08.28Z"/>
      </g>
      <g id="Grupo_1111816" data-name="Grupo 1111816">
        <path id="Trazado_897130" data-name="Trazado 897130" d="M41.23,58.31a.475.475,0,0,1-.68-.12c-.05-.05-1.98-2.29-10.16.1a22.979,22.979,0,0,1-3.53.3c-1.78,0-3.66-.29-4.29-1.39a2.315,2.315,0,0,1-.29-1.65A2.723,2.723,0,0,1,23,54.21a4.168,4.168,0,0,1,.89-.74.479.479,0,0,1,.28-.08c.04,0,.08.01.12.01h.01a.581.581,0,0,1,.28.21.478.478,0,0,1-.14.68.71.71,0,0,0-.14.1c-1.58,1.11-.96,2.18-.89,2.29.63,1.11,4.34,1.04,6.77.65,8.85-2.59,10.96,0,11.18.3a.5.5,0,0,1-.13.68Z"/>
      </g>
      <g id="Grupo_1111817" data-name="Grupo 1111817">
        <path id="Trazado_897131" data-name="Trazado 897131" d="M63.38,54.29a3.239,3.239,0,0,0-2.87-2.73c-.19-.02-.36-.04-.54-.06-4.07-.45-6.34-.66-6.76-.61a2.79,2.79,0,0,1-2.13-.63h-.01a13.628,13.628,0,0,1-1.69-1.35,4.424,4.424,0,0,0-2.64-1.09,12.35,12.35,0,0,0-7.14,2.04l-.36.27a11.192,11.192,0,0,1-4.72,2.27l-.91.17c-.73.14-1.47.28-2.19.43a21.958,21.958,0,0,1-7.14.39h-.01c-.04,0-.08-.01-.12-.01-.64-.08-1.31-.19-1.99-.34-.35-.07-.72-.16-1.08-.27-.41-.11-.83-.23-1.25-.37C12.85,50,10.36,49.75,9.2,51.34a3.769,3.769,0,0,0-.69,1.47v.01a2.077,2.077,0,0,0,.1,1.24c.38.98,1.5,1.63,3.33,1.97.03,0,3.31.44,15.97,6.26A18.575,18.575,0,0,0,35.61,64a16.794,16.794,0,0,0,4.25-.55,11.734,11.734,0,0,0,2.11-.75A16.507,16.507,0,0,1,47.62,61a26.161,26.161,0,0,1,10.79,1.16,3,3,0,0,0,3.65-1.39,11.039,11.039,0,0,0,1.41-5.18,8.28,8.28,0,0,0-.09-1.3ZM61.2,60.3a2.031,2.031,0,0,1-2.46.94,27.276,27.276,0,0,0-11.2-1.22,17.531,17.531,0,0,0-5.99,1.8,11.419,11.419,0,0,1-1.94.69A16.853,16.853,0,0,1,28.33,61.4c-12.93-5.93-16.15-6.33-16.24-6.34-1.43-.26-2.31-.73-2.56-1.36a1.2,1.2,0,0,1-.08-.49,2.624,2.624,0,0,1,.54-1.28,1.822,1.822,0,0,1,1.6-.6c1.33,0,3.67.55,7.94,2.01.36.13.73.25,1.08.34.33.09.64.18.96.25.48.12.96.21,1.44.29q.66.12,1.29.18a23.215,23.215,0,0,0,7.36-.41c.71-.16,1.43-.3,2.15-.42l.92-.18a12.2,12.2,0,0,0,5.1-2.44l.36-.26c1.6-1.13,6.32-3.04,8.55-1.02,2.47,2.24,3.57,2.33,4.59,2.23.27-.02,2.28.14,7.1.67a.785.785,0,0,1,.22.05,2.244,2.244,0,0,1,1.79,1.84A9.7,9.7,0,0,1,61.2,60.3Z"/>
        <path id="Trazado_897132" data-name="Trazado 897132" d="M61.2,60.3a2.031,2.031,0,0,1-2.46.94,27.276,27.276,0,0,0-11.2-1.22,17.531,17.531,0,0,0-5.99,1.8,11.419,11.419,0,0,1-1.94.69A16.853,16.853,0,0,1,28.33,61.4c-12.93-5.93-16.15-6.33-16.24-6.34-1.43-.26-2.31-.73-2.56-1.36a1.2,1.2,0,0,1-.08-.49,6.592,6.592,0,0,0,.9.22c.09.01,3.31.41,16.24,6.34a16.853,16.853,0,0,0,11.28,1.11,11.419,11.419,0,0,0,1.94-.69,17.531,17.531,0,0,1,5.99-1.8A27.261,27.261,0,0,1,57,59.61a2.027,2.027,0,0,0,2.46-.94,9.536,9.536,0,0,0,1.21-5.87,1.6,1.6,0,0,0-.05-.21,2.244,2.244,0,0,1,1.79,1.84A9.536,9.536,0,0,1,61.2,60.3Z" fill="#c69c7f"/>
        <path id="Trazado_897133" data-name="Trazado 897133" d="M59.46,58.66A2.031,2.031,0,0,1,57,59.6a27.276,27.276,0,0,0-11.2-1.22,17.531,17.531,0,0,0-5.99,1.8,11.419,11.419,0,0,1-1.94.69,16.853,16.853,0,0,1-11.28-1.11c-12.93-5.93-16.15-6.33-16.24-6.34a6.976,6.976,0,0,1-.9-.22,2.624,2.624,0,0,1,.54-1.28,1.822,1.822,0,0,1,1.6-.6c1.33,0,3.67.55,7.94,2.01.36.13.73.25,1.08.34.33.09.64.18.96.25.48.12.96.21,1.44.29a2.776,2.776,0,0,0-.72,1.33v.01a2.442,2.442,0,0,0,.03,1.06,2.322,2.322,0,0,0,.26.59c.63,1.1,2.51,1.39,4.29,1.39a22.847,22.847,0,0,0,3.53-.3c8.18-2.39,10.11-.15,10.16-.1a.475.475,0,0,0,.68.12.5.5,0,0,0,.12-.69,3.282,3.282,0,0,0-1.74-1.06,5.979,5.979,0,0,0-1.12-.26c-1.7-.26-4.32-.15-8.31,1.02-2.28.37-5.71.45-6.63-.46a.9.9,0,0,1-.15-.19,1.259,1.259,0,0,1-.16-.87,2.249,2.249,0,0,1,1.04-1.43,23.215,23.215,0,0,0,7.36-.41c.71-.16,1.43-.3,2.15-.42l.92-.18a12.2,12.2,0,0,0,5.1-2.44l.36-.26c1.6-1.13,6.32-3.04,8.55-1.02,2.47,2.24,3.57,2.33,4.59,2.23.27-.02,2.28.14,7.1.67a.785.785,0,0,1,.22.05,1.6,1.6,0,0,1,.05.21,9.711,9.711,0,0,1-1.23,5.86Z" fill="#e2bda3"/>
      </g>
      <g id="Grupo_1111818" data-name="Grupo 1111818">
        <path id="Trazado_897134" data-name="Trazado 897134" d="M62.39,7.04H57.7a.49.49,0,1,1,0-.98h4.69a.49.49,0,1,1,0,.98Z"/>
      </g>
      <g id="Grupo_1111819" data-name="Grupo 1111819">
        <path id="Trazado_897135" data-name="Trazado 897135" d="M60.04,9.39a.491.491,0,0,1-.49-.49V4.2a.49.49,0,0,1,.98,0V8.89a.5.5,0,0,1-.49.5Z"/>
      </g>
      <g id="Grupo_1111820" data-name="Grupo 1111820">
        <path id="Trazado_897136" data-name="Trazado 897136" d="M4.33,45.89a.518.518,0,0,1-.35-.14L.66,42.43a.495.495,0,0,1,.7-.7l3.32,3.32a.49.49,0,0,1-.35.84Z"/>
      </g>
      <g id="Grupo_1111821" data-name="Grupo 1111821">
        <path id="Trazado_897137" data-name="Trazado 897137" d="M1.02,45.89a.518.518,0,0,1-.35-.14.5.5,0,0,1,0-.7l3.32-3.32a.495.495,0,0,1,.7.7L1.37,45.75a.537.537,0,0,1-.35.14Z"/>
      </g>
    </g>
  </g>
</svg>
