<svg xmlns="http://www.w3.org/2000/svg" width="89" height="89.178" viewBox="0 0 89 89.178">
  <g id="Grupo_1112371" data-name="Grupo 1112371" transform="translate(-1082.051 -12860.964)">
    <rect id="Rect치ngulo_400898" data-name="Rect치ngulo 400898" width="89" height="89" rx="44.5" transform="translate(1082.051 12861.142)" fill="#e9bd68"/>
    <g id="Grupo_1111976" data-name="Grupo 1111976">
      <rect id="Rect치ngulo_400907" data-name="Rect치ngulo 400907" width="89" height="89" rx="44.5" transform="translate(1082.051 12860.964)" fill="none"/>
      <g id="Layer_x0020_1" transform="translate(1092.546 12873.463)">
        <path id="Trazado_897138" data-name="Trazado 897138" d="M62.116,53.99H3.352A3.356,3.356,0,0,1,0,50.638V37.452a4.733,4.733,0,0,1,4.573-4.627l1.545-.109V29.341H2.8a.8.8,0,0,1-.636-1.279l1.894-2.5-1.447-.351a.8.8,0,0,1-.427-1.281l2.034-2.47L2.63,21.1a.8.8,0,0,1-.389-1.341l4.111-4.111a.8.8,0,0,1,1.127,0l4.111,4.111A.8.8,0,0,1,11.2,21.1l-1.593.356,2.034,2.47a.8.8,0,0,1-.427,1.281l-1.447.351,1.827,2.415a.8.8,0,0,1-.557,1.367H7.713V32.6l.05,0a.726.726,0,0,1,.094,0l4.189.2,7.648.637v-2.4H17.08a.8.8,0,0,1-.636-1.278l1.447-1.912-1-.243a.8.8,0,0,1-.427-1.281l1.547-1.879L16.9,24.2a.8.8,0,0,1-.389-1.341l3.41-3.41a.8.8,0,0,1,1.127,0l3.411,3.41a.8.8,0,0,1-.39,1.341l-1.106.247,1.547,1.879a.8.8,0,0,1-.427,1.281l-1,.243,1.38,1.823a.8.8,0,0,1-.556,1.367H21.288v2.622a8.218,8.218,0,0,1,2.876,1.287,41.821,41.821,0,0,1,13.291-7.509V13.757l-1.139.607a2.625,2.625,0,0,1-3.153-.733.794.794,0,0,1-.127-.165,2.421,2.421,0,0,1,.885-3.3L49.9.3a.8.8,0,0,1,.838,0l16,9.877a2.723,2.723,0,0,1,1.253,1.915,1.837,1.837,0,0,1-.439,1.462,2.422,2.422,0,0,1-3.252.8l-1.115-.594V26.79a2.743,2.743,0,0,1,2.279,2.631V50.638a3.355,3.355,0,0,1-3.352,3.352Zm-47.565-1.7c.3-6.215,3.616-11.8,8.383-16.242a6.742,6.742,0,0,0-2.537-.933l-.054-.008q-.216-.032-.435-.05l-7.967-.663-4.113-.2-3.143.222a3.157,3.157,0,0,0-3.092,3.037V50.638A1.76,1.76,0,0,0,3.352,52.4H14.545l.006-.11ZM24.87,36.416a.791.791,0,0,1-.144.168c-5.187,4.591-8.2,10.045-8.566,15.474l-.011.182-.009.155h19.42V50.654a4.029,4.029,0,0,1-3.241-3.947c0-1.944.942-7.28,3.972-7.28,3.054,0,4.072,5.739,4.072,7.28a4.03,4.03,0,0,1-3.208,3.94V52.4H51.529V49.043a5.646,5.646,0,0,1-4.866-5.584c0-2.7,1.37-10.528,5.563-10.528,4.222,0,5.713,8.385,5.713,10.528a5.646,5.646,0,0,1-4.816,5.577V52.4h8.993a1.76,1.76,0,0,0,1.758-1.758V29.421a1.243,1.243,0,0,0-1.211-1.108l-9.12-1.27H48.657a31.486,31.486,0,0,0-7.68,1.007A40.2,40.2,0,0,0,24.87,36.416Zm27.357-1.89c-2.577,0-3.968,6.341-3.968,8.934a4.043,4.043,0,0,0,8.087,0c0-2.665-1.739-8.934-4.118-8.934Zm-15.935,6.5c-1.374,0-2.378,3.74-2.378,5.686a2.428,2.428,0,1,0,4.856,0c0-1.824-1.173-5.686-2.478-5.686ZM4.408,27.746H9.424l-1.66-2.194A.8.8,0,0,1,8.212,24.3L9.6,23.958,7.552,21.467a.8.8,0,0,1,.442-1.285l1.444-.323L6.916,17.338,4.394,19.86l1.444.323a.8.8,0,0,1,.442,1.285L4.228,23.958l1.393.338a.8.8,0,0,1,.447,1.256l-1.66,2.194Zm14.275,1.7H22.3l-1.213-1.6a.8.8,0,0,1,.447-1.256l.945-.23-1.565-1.9a.8.8,0,0,1,.442-1.285l.957-.213L20.491,21.14l-1.821,1.821.957.213a.8.8,0,0,1,.442,1.285l-1.565,1.9.945.23a.8.8,0,0,1,.447,1.256l-1.213,1.6ZM37.856,11.737l.022-.012L49.947,5.293l.022-.011h0l.022-.01h0l.005,0,.006,0h0l.011,0h0a.8.8,0,0,1,.649.015h0l.005,0,.005,0h0l.005,0,.006,0h0l.005,0,.005,0h0l12.07,6.432.025.014,2.286,1.218a.816.816,0,0,0,1.148-.288.793.793,0,0,1,.127-.165c.025-.025.076-.076.058-.229a1.137,1.137,0,0,0-.506-.743L50.321,1.913,34.739,11.532a.833.833,0,0,0-.364,1.054c.446.415.834.563,1.191.372l2.29-1.22Zm1.194,1.17V26.859q.755-.271,1.5-.5a27.808,27.808,0,0,1,8.108-1.283H53.6a.812.812,0,0,1,.132.011l7.863,1.325V12.907L50.321,6.9,39.05,12.907Zm16,9.861H45.589a1.6,1.6,0,0,1-1.6-1.6V14.882a1.6,1.6,0,0,1,1.6-1.6h9.464a1.6,1.6,0,0,1,1.6,1.6v6.285a1.6,1.6,0,0,1-1.6,1.6ZM45.59,14.876l-.006,6.292,3.941,0V14.878Zm5.528,6.3,3.936,0,.005-6.292-3.942,0Zm8.677,3.2a.8.8,0,0,1-.8-.8V14.345a.8.8,0,0,1,1.594,0V23.58a.8.8,0,0,1-.8.8Zm-18.948,0a.8.8,0,0,1-.8-.8V14.345a.8.8,0,0,1,1.594,0V23.58a.8.8,0,0,1-.8.8Z" transform="translate(0 0)" fill="#000002" fill-rule="evenodd"/>
        <path id="Trazado_897139" data-name="Trazado 897139" d="M1.144,6.839l3.941,0V.55L1.15.547Z" transform="translate(44.44 14.329)" fill="#0cf" fill-rule="evenodd"/>
        <path id="Trazado_897140" data-name="Trazado 897140" d="M1.283.547V6.839l3.936,0L5.224.55Z" transform="translate(49.836 14.332)" fill="#0cf" fill-rule="evenodd"/>
        <path id="Trazado_897141" data-name="Trazado 897141" d="M12.262,6.729h4.722a1.6,1.6,0,0,1,1.6,1.6v6.285a1.6,1.6,0,0,1-1.6,1.6H7.52a1.6,1.6,0,0,1-1.6-1.6V8.33a1.6,1.6,0,0,1,1.6-1.6h4.742Zm3.267,11.8a.812.812,0,0,1,.132.011l7.863,1.325V6.354L12.251.347.98,6.354V20.307q.755-.271,1.5-.5a27.808,27.808,0,0,1,8.108-1.283h4.941Zm6.2-.7a.8.8,0,0,1-.8-.8V7.793a.8.8,0,0,1,1.594,0v9.234a.8.8,0,0,1-.8.8ZM3.574,7.793v9.234a.8.8,0,0,1-1.594,0V7.793a.8.8,0,0,1,1.594,0Z" transform="translate(38.07 6.553)" fill="#ffdf8e" fill-rule="evenodd"/>
        <path id="Trazado_897142" data-name="Trazado 897142" d="M17.25,3.6l12.07,6.432.025.014,2.286,1.218a.816.816,0,0,0,1.148-.288.793.793,0,0,1,.127-.165c.025-.025.076-.076.058-.229a1.137,1.137,0,0,0-.506-.743L16.875.222,1.292,9.841a.833.833,0,0,0-.364,1.054c.446.415.834.563,1.191.372l2.29-1.22.022-.012L16.5,3.6l.022-.011.022-.011.005,0,.006,0,.011,0a.8.8,0,0,1,.649.015l.005,0,.006,0,.005,0,.006,0,.005,0,.006,0Z" transform="translate(33.447 1.691)" fill="#ea5569" fill-rule="evenodd"/>
        <path id="Trazado_897143" data-name="Trazado 897143" d="M46.928,2.122,37.808.852H32.922a31.486,31.486,0,0,0-7.68,1.007A40.2,40.2,0,0,0,9.134,10.225a.791.791,0,0,1-.144.167C3.8,14.984.8,20.438.425,25.867l-.011.182L.405,26.2h19.42V24.463a4.029,4.029,0,0,1-3.241-3.947c0-1.944.942-7.28,3.972-7.28,3.054,0,4.072,5.739,4.072,7.28a4.03,4.03,0,0,1-3.208,3.94V26.2H35.794V22.853a5.646,5.646,0,0,1-4.866-5.584c0-2.7,1.37-10.528,5.563-10.528,4.222,0,5.713,8.385,5.713,10.528a5.646,5.646,0,0,1-4.816,5.577V26.2h8.993a1.76,1.76,0,0,0,1.758-1.758V3.23a1.243,1.243,0,0,0-1.211-1.108Z" transform="translate(15.735 26.191)" fill="#85be7f" fill-rule="evenodd"/>
        <g id="Grupo_1111823" data-name="Grupo 1111823" transform="translate(1.594 34.193)">
          <path id="Trazado_897144" data-name="Trazado 897144" d="M9.3,9.974C9.3,7.309,7.559,1.04,5.179,1.04,2.6,1.04,1.211,7.381,1.211,9.974a4.043,4.043,0,0,0,8.087,0Z" transform="translate(45.453 -0.707)" fill="#017b4e" fill-rule="evenodd"/>
          <path id="Trazado_897145" data-name="Trazado 897145" d="M5.707,6.889C5.706,5.064,4.534,1.2,3.229,1.2,1.855,1.2.851,4.943.851,6.889a2.428,2.428,0,1,0,4.856,0Z" transform="translate(31.468 5.626)" fill="#017b4e" fill-rule="evenodd"/>
          <path id="Trazado_897146" data-name="Trazado 897146" d="M13,19.124c.3-6.215,3.616-11.8,8.383-16.242a6.742,6.742,0,0,0-2.537-.933l-.054-.008q-.216-.032-.435-.05l-7.967-.663-4.113-.2-3.143.222A3.157,3.157,0,0,0,.04,4.29V17.476A1.76,1.76,0,0,0,1.8,19.234H12.992l.006-.11Z" transform="translate(-0.04 -1.032)" fill="#017b4e" fill-rule="evenodd"/>
        </g>
        <path id="Trazado_897147" data-name="Trazado 897147" d="M4.09,7.567l1.392-.338L3.431,4.738a.8.8,0,0,1,.442-1.285L5.317,3.13,2.795.609.272,3.13l1.444.323a.8.8,0,0,1,.442,1.285L.107,7.229,1.5,7.567a.8.8,0,0,1,.447,1.256L.286,11.017H5.3L3.642,8.823A.8.8,0,0,1,4.09,7.567Z" transform="translate(4.122 16.729)" fill="#09a66d" fill-rule="evenodd"/>
        <path id="Trazado_897148" data-name="Trazado 897148" d="M2.452.7.63,2.526l.957.213a.8.8,0,0,1,.442,1.285L.465,5.923l.945.23a.8.8,0,0,1,.447,1.256L.644,9.011H4.26l-1.213-1.6a.8.8,0,0,1,.447-1.256l.945-.23-1.565-1.9a.8.8,0,0,1,.442-1.285l.957-.213L2.452.7Z" transform="translate(18.039 20.436)" fill="#09a66d" fill-rule="evenodd"/>
      </g>
    </g>
  </g>
</svg>
