<svg xmlns="http://www.w3.org/2000/svg" width="89" height="89" viewBox="0 0 89 89">
  <g id="Grupo_1111977" data-name="Grupo 1111977" transform="translate(6897 -1252.964)">
    <rect id="Rectángulo_400898" data-name="Rectángulo 400898" width="89" height="89" rx="44.5" transform="translate(-6897 1252.964)" fill="#e9bd68"/>
    <g id="Grupo_1111824" data-name="Grupo 1111824" transform="translate(-6885.392 1265.002)">
      <path id="Trazado_897149" data-name="Trazado 897149" d="M206.384,268.1l5.632-5.632-1.845-1.845a1.966,1.966,0,1,0-2.78-2.78L205.546,256l-1.845,1.845a1.966,1.966,0,0,1-2.78,2.78l-1.845,1.845,5.632,5.632A1.188,1.188,0,0,0,206.384,268.1Z" transform="translate(-172.905 -223.363)" fill="#f9ac00" fill-rule="evenodd"/>
      <path id="Trazado_897150" data-name="Trazado 897150" d="M211.171,261.628l-1-1-.844-.844a1.437,1.437,0,1,0-1.937-1.937l-.844-.844-1-1-1.845,1.845a1.966,1.966,0,0,1-2.78,2.78l-1.845,1.845,4.788,4.788a1.188,1.188,0,0,0,1.674,0l5.632-5.632Z" transform="translate(-172.904 -223.362)" fill="#fcdb35" fill-rule="evenodd"/>
      <path id="Trazado_897151" data-name="Trazado 897151" d="M268.1,204.714l-5.632-5.632-1.845,1.845a1.966,1.966,0,0,0-2.78,2.78L256,205.551l1.845,1.845a1.966,1.966,0,0,1,2.78,2.78l1.845,1.845,5.632-5.632a1.187,1.187,0,0,0,0-1.674Z" transform="translate(-223.357 -172.911)" fill="#4eb1fc" fill-rule="evenodd"/>
      <path id="Trazado_897152" data-name="Trazado 897152" d="M267.256,203.87l-4.788-4.788-1.845,1.845a1.966,1.966,0,0,0-2.78,2.78L256,205.551l1,1a2.631,2.631,0,0,1,3.624,3.624l1,1,5.632-5.632a1.187,1.187,0,0,0,0-1.674Z" transform="translate(-223.357 -172.911)" fill="#85caff" fill-rule="evenodd"/>
      <path id="Trazado_897153" data-name="Trazado 897153" d="M204.709,146.832l-5.632,5.632,1.845,1.845a1.966,1.966,0,0,0,2.78,2.78l1.845,1.845,1.845-1.845a1.966,1.966,0,1,1,2.78-2.78l1.845-1.845-5.632-5.632a1.187,1.187,0,0,0-1.674,0Z" transform="translate(-172.905 -126.294)" fill="#29b933" fill-rule="evenodd"/>
      <path id="Trazado_897154" data-name="Trazado 897154" d="M204.709,146.834l-5.632,5.632,1.049,1.049.8.8a1.465,1.465,0,1,0,1.985,1.985l.8.8,1.049,1.049L206.6,156.3a1.966,1.966,0,0,1,2.78-2.78l1.845-1.845-4.837-4.837a1.187,1.187,0,0,0-1.674,0Z" transform="translate(-172.905 -126.296)" fill="#43f043" fill-rule="evenodd"/>
      <path id="Trazado_897155" data-name="Trazado 897155" d="M146.828,206.389l5.632,5.632,1.845-1.845a1.966,1.966,0,0,0,2.78-2.78l1.845-1.845-1.845-1.845a1.966,1.966,0,0,1-2.78-2.78l-1.845-1.845-5.632,5.632a1.187,1.187,0,0,0,0,1.674Z" transform="translate(-126.289 -172.911)" fill="#f23353" fill-rule="evenodd"/>
      <path id="Trazado_897156" data-name="Trazado 897156" d="M146.827,206.388l4.837,4.837,1.845-1.845a1.966,1.966,0,0,0,2.78-2.78l1.845-1.845-1.049-1.049a2.59,2.59,0,0,1-3.576-3.576l-1.049-1.049-5.632,5.632a1.187,1.187,0,0,0,0,1.674Z" transform="translate(-126.288 -172.911)" fill="#ff5471" fill-rule="evenodd"/>
      <path id="Trazado_897157" data-name="Trazado 897157" d="M57.052,17.744c-1.741-2.522-1.205-6.858,2.964-6.858s4.7,4.336,2.964,6.858a3.41,3.41,0,0,1-5.928,0Z" transform="translate(-46.195 -6.105)" fill="#fdb0a0" fill-rule="evenodd"/>
      <path id="Trazado_897158" data-name="Trazado 897158" d="M57.053,18.359c-1.6-2.322-1.276-6.182,2.04-6.779,3.316.6,3.643,4.457,2.04,6.779a3.917,3.917,0,0,1-2.04,1.584A3.917,3.917,0,0,1,57.053,18.359Z" transform="translate(-46.196 -6.72)" fill="#ffcec0" fill-rule="evenodd"/>
      <path id="Trazado_897159" data-name="Trazado 897159" d="M18.29,86.6l-2.813.692a13.9,13.9,0,0,0-3.1,1.041c-.932.546-1.264,1.1-1.378,2.589-.144,2.622-.1,5.06.009,7.565a2.32,2.32,0,0,0,2.318,2.223H26.558a2.32,2.32,0,0,0,2.318-2.223c.106-2.505.154-4.943.009-7.565-.114-1.484-.446-2.042-1.378-2.589a13.9,13.9,0,0,0-3.1-1.041L21.591,86.6a6.613,6.613,0,0,0-3.3,0Z" transform="translate(-6.12 -73.029)" fill="#ff5471" fill-rule="evenodd"/>
      <path id="Trazado_897160" data-name="Trazado 897160" d="M18.29,87.085l-2.813.692a13.9,13.9,0,0,0-3.1,1.041c-.932.546-1.264,1.1-1.378,2.589-.144,2.623-.1,5.06.009,7.565a2.32,2.32,0,0,0,2.318,2.223H24.778A2.32,2.32,0,0,0,27.1,98.972c.106-2.505.154-4.943.009-7.565-.114-1.484-.446-2.042-1.378-2.589a13.9,13.9,0,0,0-3.1-1.041l-2.813-.692a7.477,7.477,0,0,0-.761-.147,7.448,7.448,0,0,0-.761.147Z" transform="translate(-6.12 -73.513)" fill="#ff6b84" fill-rule="evenodd"/>
      <path id="Trazado_897161" data-name="Trazado 897161" d="M388.238,17.744c-1.741-2.522-1.205-6.858,2.964-6.858s4.7,4.336,2.964,6.858a3.41,3.41,0,0,1-5.928,0Z" transform="translate(-339.74 -6.105)" fill="#d9c5bf" fill-rule="evenodd"/>
      <path id="Trazado_897162" data-name="Trazado 897162" d="M388.238,18.359c-1.6-2.322-1.276-6.182,2.04-6.779,3.316.6,3.643,4.457,2.04,6.779a2.106,2.106,0,0,1-4.08,0Z" transform="translate(-339.74 -6.72)" fill="#f0e3df" fill-rule="evenodd"/>
      <path id="Trazado_897163" data-name="Trazado 897163" d="M349.476,86.6l-2.813.692a13.9,13.9,0,0,0-3.1,1.041c-.932.546-1.264,1.1-1.378,2.589-.144,2.622-.1,5.06.009,7.565a2.32,2.32,0,0,0,2.318,2.223h13.235a2.32,2.32,0,0,0,2.318-2.223c.106-2.505.154-4.943.009-7.565-.114-1.484-.446-2.042-1.378-2.589a13.9,13.9,0,0,0-3.1-1.041l-2.813-.692a6.613,6.613,0,0,0-3.3,0Z" transform="translate(-299.664 -73.029)" fill="#2dd62d" fill-rule="evenodd"/>
      <path id="Trazado_897164" data-name="Trazado 897164" d="M349.476,87.085l-2.813.692a13.9,13.9,0,0,0-3.1,1.041c-.932.546-1.264,1.1-1.378,2.589-.144,2.623-.1,5.06.009,7.565a2.32,2.32,0,0,0,2.318,2.223h11.455a2.32,2.32,0,0,0,2.318-2.223c.106-2.505.154-4.943.009-7.565-.114-1.484-.446-2.042-1.378-2.589a13.9,13.9,0,0,0-3.1-1.041L351,87.085a2.039,2.039,0,0,0-1.521,0Z" transform="translate(-299.665 -73.513)" fill="#43f043" fill-rule="evenodd"/>
      <path id="Trazado_897165" data-name="Trazado 897165" d="M388.238,306.492c-1.741-2.522-1.205-6.858,2.964-6.858s4.7,4.336,2.964,6.858a3.41,3.41,0,0,1-5.928,0Z" transform="translate(-339.74 -262.035)" fill="#fdb0a0" fill-rule="evenodd"/>
      <path id="Trazado_897166" data-name="Trazado 897166" d="M388.238,307.107c-1.6-2.322-1.276-6.182,2.04-6.779,3.316.6,3.643,4.457,2.04,6.779a2.106,2.106,0,0,1-4.08,0Z" transform="translate(-339.74 -262.65)" fill="#ffcec0" fill-rule="evenodd"/>
      <path id="Trazado_897167" data-name="Trazado 897167" d="M349.476,375.348l-2.813.692a13.9,13.9,0,0,0-3.1,1.041c-.932.546-1.264,1.1-1.378,2.589-.144,2.622-.1,5.06.009,7.565a2.32,2.32,0,0,0,2.318,2.223h13.235a2.32,2.32,0,0,0,2.318-2.223c.106-2.505.154-4.943.009-7.565-.114-1.484-.446-2.042-1.378-2.589a13.894,13.894,0,0,0-3.1-1.041l-2.813-.692a6.613,6.613,0,0,0-3.3,0Z" transform="translate(-299.664 -328.958)" fill="#4eb1fc" fill-rule="evenodd"/>
      <path id="Trazado_897168" data-name="Trazado 897168" d="M349.476,375.833l-2.813.692a13.9,13.9,0,0,0-3.1,1.041c-.932.546-1.264,1.1-1.378,2.589-.144,2.622-.1,5.06.009,7.565a2.32,2.32,0,0,0,2.318,2.223h11.455a2.32,2.32,0,0,0,2.318-2.223c.106-2.505.154-4.943.009-7.565-.114-1.484-.446-2.042-1.378-2.589a13.905,13.905,0,0,0-3.1-1.041L351,375.833a2.039,2.039,0,0,0-1.521,0Z" transform="translate(-299.665 -329.443)" fill="#85caff" fill-rule="evenodd"/>
      <path id="Trazado_897169" data-name="Trazado 897169" d="M57.052,306.492c-1.741-2.522-1.205-6.858,2.964-6.858s4.7,4.336,2.964,6.858a3.41,3.41,0,0,1-5.928,0Z" transform="translate(-46.195 -262.035)" fill="#d9c5bf" fill-rule="evenodd"/>
      <path id="Trazado_897170" data-name="Trazado 897170" d="M57.053,307.107c-1.6-2.322-1.276-6.182,2.04-6.779,3.316.6,3.643,4.457,2.04,6.779a3.917,3.917,0,0,1-2.04,1.584A3.917,3.917,0,0,1,57.053,307.107Z" transform="translate(-46.196 -262.65)" fill="#f0e3df" fill-rule="evenodd"/>
      <path id="Trazado_897171" data-name="Trazado 897171" d="M18.29,375.348l-2.813.692a13.9,13.9,0,0,0-3.1,1.041c-.932.546-1.264,1.1-1.378,2.589-.144,2.622-.1,5.06.009,7.565a2.32,2.32,0,0,0,2.318,2.223H26.558a2.32,2.32,0,0,0,2.318-2.223c.106-2.505.154-4.943.009-7.565-.114-1.484-.446-2.042-1.378-2.589a13.9,13.9,0,0,0-3.1-1.041l-2.813-.692a6.613,6.613,0,0,0-3.3,0Z" transform="translate(-6.12 -328.958)" fill="#fdc72e" fill-rule="evenodd"/>
      <path id="Trazado_897172" data-name="Trazado 897172" d="M18.29,375.833l-2.813.692a13.9,13.9,0,0,0-3.1,1.041c-.932.546-1.264,1.1-1.378,2.589-.144,2.622-.1,5.06.009,7.565a2.32,2.32,0,0,0,2.318,2.223H24.778A2.32,2.32,0,0,0,27.1,387.72c.106-2.505.154-4.943.009-7.565-.114-1.484-.446-2.042-1.378-2.589a13.9,13.9,0,0,0-3.1-1.041l-2.813-.692a7.48,7.48,0,0,0-.761-.147,7.446,7.446,0,0,0-.761.147Z" transform="translate(-6.12 -329.443)" fill="#fcdb35" fill-rule="evenodd"/>
      <path id="Trazado_897173" data-name="Trazado 897173" d="M5.68,17.944c.1-1.315.351-1.581.984-1.951a13.916,13.916,0,0,1,2.888-.954l2.81-.692a6.089,6.089,0,0,1,1.429-.186h.057a6.036,6.036,0,0,1,1.431.186l2.8.69a13.945,13.945,0,0,1,2.895.956c.633.37.882.636.984,1.951.152,2.768.08,5.329-.01,7.47a1.518,1.518,0,0,1-1.52,1.457h-.376V21.611a.8.8,0,1,0-1.591,0v5.261H9.178V21.611a.8.8,0,1,0-1.591,0v5.261H7.211A1.518,1.518,0,0,1,5.69,25.414c-.091-2.141-.162-4.7-.01-7.47Zm5.411-10.93a2.848,2.848,0,0,1,2.73-1.424A2.846,2.846,0,0,1,16.55,7.014a4.289,4.289,0,0,1-.424,4.178,2.847,2.847,0,0,1-2.263,1.376h-.087a2.848,2.848,0,0,1-2.261-1.376,4.286,4.286,0,0,1-.424-4.178ZM7.211,28.463h13.22a3.105,3.105,0,0,0,3.111-2.981c.092-2.183.165-4.794.009-7.634a.094.094,0,0,1,0-.018c-.131-1.7-.577-2.513-1.768-3.211a14.235,14.235,0,0,0-3.312-1.126l-1.857-.457a5.251,5.251,0,0,0,.823-.94,5.872,5.872,0,0,0,.523-5.821A4.4,4.4,0,0,0,13.821,4,4.4,4.4,0,0,0,9.683,6.275a5.875,5.875,0,0,0,.523,5.821,5.247,5.247,0,0,0,.823.94L9.165,13.5a14.182,14.182,0,0,0-3.306,1.124c-1.19.7-1.636,1.508-1.767,3.211a.094.094,0,0,1,0,.018c-.156,2.84-.083,5.453.009,7.634a3.105,3.105,0,0,0,3.111,2.981Zm36.11-10.519c.1-1.315.352-1.581.985-1.951a13.924,13.924,0,0,1,2.887-.954L50,14.347a6.09,6.09,0,0,1,1.43-.186h.056a6.05,6.05,0,0,1,1.431.186l2.8.69a13.95,13.95,0,0,1,2.894.956c.633.37.883.636.985,1.951.152,2.769.079,5.329-.01,7.47a1.518,1.518,0,0,1-1.52,1.457H57.7V21.611a.8.8,0,1,0-1.592,0v5.261H46.821V21.611a.8.8,0,1,0-1.592,0v5.261h-.377a1.518,1.518,0,0,1-1.521-1.457c-.09-2.141-.162-4.7-.01-7.47Zm5.412-10.93a3.326,3.326,0,0,1,5.458,0,4.29,4.29,0,0,1-.422,4.178,2.851,2.851,0,0,1-2.263,1.376h-.088a2.847,2.847,0,0,1-2.26-1.376,4.289,4.289,0,0,1-.424-4.178Zm-7,10.834c-.157,2.84-.083,5.452.009,7.634a3.105,3.105,0,0,0,3.11,2.981H58.072a3.106,3.106,0,0,0,3.111-2.981c.092-2.181.165-4.794.008-7.634a.088.088,0,0,0,0-.018c-.131-1.7-.576-2.513-1.768-3.211a14.188,14.188,0,0,0-3.312-1.126l-1.857-.457a5.306,5.306,0,0,0,.824-.94A5.875,5.875,0,0,0,55.6,6.275,4.4,4.4,0,0,0,51.462,4a4.4,4.4,0,0,0-4.138,2.277,5.876,5.876,0,0,0,.523,5.821,5.3,5.3,0,0,0,.824.94l-1.864.459A14.135,14.135,0,0,0,43.5,14.619c-1.191.7-1.636,1.508-1.767,3.211,0,.005,0,.011,0,.018Zm17.86,40.384a1.518,1.518,0,0,1-1.52,1.458H57.7V54.429a.8.8,0,0,0-1.592,0V59.69H46.821V54.429a.8.8,0,0,0-1.592,0V59.69h-.377a1.518,1.518,0,0,1-1.521-1.458c-.09-2.14-.162-4.7-.01-7.47.1-1.316.352-1.581.985-1.952a14.046,14.046,0,0,1,2.887-.954L50,47.165a6,6,0,0,1,1.429-.187h.058a6.008,6.008,0,0,1,1.431.187l2.8.69a14.1,14.1,0,0,1,2.894.954c.633.372.883.637.985,1.952.152,2.768.079,5.33-.01,7.471Zm-10.86-18.4a3.326,3.326,0,0,1,5.458,0,4.291,4.291,0,0,1-.422,4.178,2.855,2.855,0,0,1-2.262,1.377h-.09a2.85,2.85,0,0,1-2.259-1.377,4.289,4.289,0,0,1-.424-4.178ZM61.19,50.649c-.131-1.7-.576-2.513-1.768-3.211a14.112,14.112,0,0,0-3.312-1.127l-1.857-.457a5.4,5.4,0,0,0,.824-.939,5.876,5.876,0,0,0,.523-5.822,4.4,4.4,0,0,0-4.138-2.276,4.4,4.4,0,0,0-4.138,2.276,5.877,5.877,0,0,0,.523,5.822,5.4,5.4,0,0,0,.824.939l-1.864.459A14.079,14.079,0,0,0,43.5,47.438c-1.191.7-1.636,1.508-1.767,3.211,0,.005,0,.011,0,.016-.157,2.84-.083,5.453.009,7.633a3.105,3.105,0,0,0,3.11,2.982H58.072A3.106,3.106,0,0,0,61.183,58.3c.092-2.181.165-4.793.008-7.633a.081.081,0,0,0,0-.016ZM21.951,58.232a1.518,1.518,0,0,1-1.52,1.458h-.376V54.429a.8.8,0,0,0-1.591,0V59.69H9.178V54.429a.8.8,0,0,0-1.591,0V59.69H7.211A1.518,1.518,0,0,1,5.69,58.232c-.091-2.14-.162-4.7-.01-7.47.1-1.316.351-1.581.984-1.953a14.107,14.107,0,0,1,2.888-.953l2.81-.691a6.01,6.01,0,0,1,1.431-.187h.054a6.017,6.017,0,0,1,1.432.187l2.8.69a14.074,14.074,0,0,1,2.895.954c.633.372.882.637.984,1.953.152,2.767.08,5.329-.01,7.47Zm-10.86-18.4a2.848,2.848,0,0,1,2.73-1.424,2.846,2.846,0,0,1,2.729,1.424,4.289,4.289,0,0,1-.424,4.178,2.852,2.852,0,0,1-2.262,1.377h-.089a2.847,2.847,0,0,1-2.26-1.377,4.287,4.287,0,0,1-.424-4.178ZM23.549,50.649c-.131-1.7-.577-2.513-1.768-3.211a14.129,14.129,0,0,0-3.312-1.127l-1.857-.457a5.344,5.344,0,0,0,.823-.939,5.873,5.873,0,0,0,.523-5.822,4.4,4.4,0,0,0-4.137-2.276,4.4,4.4,0,0,0-4.138,2.276,5.876,5.876,0,0,0,.523,5.822,5.343,5.343,0,0,0,.823.939l-1.864.459a14.1,14.1,0,0,0-3.306,1.125c-1.19.7-1.636,1.508-1.767,3.211a.081.081,0,0,1,0,.016c-.156,2.84-.083,5.453.009,7.633a3.105,3.105,0,0,0,3.111,2.982H20.43A3.106,3.106,0,0,0,23.541,58.3c.092-2.181.165-4.793.009-7.633a.08.08,0,0,1,0-.016ZM40.97,52.038a.8.8,0,0,1-.456,1.028,21.958,21.958,0,0,1-15.746,0,.8.8,0,1,1,.572-1.484,20.377,20.377,0,0,0,14.6,0,.794.794,0,0,1,1.028.456ZM12.512,30.053a20.44,20.44,0,0,0,0,5.174.8.8,0,1,1-1.578.2,21.983,21.983,0,0,1,0-5.576.8.8,0,1,1,1.578.2ZM23.374,13.675a.8.8,0,0,1,.4-1.05,21.925,21.925,0,0,1,17.724,0,.8.8,0,0,1-.644,1.455,20.334,20.334,0,0,0-16.435,0,.8.8,0,0,1-1.05-.4Zm29.4,21.551a20.44,20.44,0,0,0,0-5.174.8.8,0,0,1,1.579-.2,22.053,22.053,0,0,1,0,5.576.8.8,0,0,1-.789.7.783.783,0,0,1-.1-.007.8.8,0,0,1-.689-.89Zm-8.6-2.312-5.067,5.067-.8-.8a2.763,2.763,0,0,0-3.741-3.742l-.8-.8,1.281-1.281a.8.8,0,0,0,0-1.125A1.17,1.17,0,0,1,36.7,28.579a.795.795,0,0,0,1.125,0L39.109,27.3l5.067,5.068a.394.394,0,0,1,0,.549ZM32.916,44.173l5.068-5.067L36.7,37.826a.8.8,0,0,1,0-1.125,1.17,1.17,0,0,0-1.653-1.655.794.794,0,0,1-1.125,0l-1.281-1.281-.8.8A2.761,2.761,0,0,1,28.1,38.305l-.8.8,5.067,5.068a.394.394,0,0,0,.549,0ZM21.107,32.366,26.175,27.3l.8.8a2.761,2.761,0,0,0,3.739,3.739l.8.8L30.236,33.92a.794.794,0,0,0,0,1.125A1.17,1.17,0,0,1,28.581,36.7a.8.8,0,0,0-1.125,0l-1.281,1.281-5.068-5.067a.4.4,0,0,1,0-.549Zm11.26-11.259L27.3,26.172l1.281,1.282a.793.793,0,0,1,0,1.124,1.17,1.17,0,0,0,1.655,1.655.794.794,0,0,1,1.124,0l1.282,1.281.8-.8a2.763,2.763,0,0,1,3.741-3.742l.8-.8-5.068-5.066a.39.39,0,0,0-.549,0Zm.275-1.7a1.968,1.968,0,0,0-1.4.579L19.983,31.24a1.981,1.981,0,0,0,0,2.8L31.243,45.3a1.978,1.978,0,0,0,2.8,0L45.3,34.039a1.981,1.981,0,0,0,0-2.8L34.041,19.981a1.965,1.965,0,0,0-1.4-.579Z" fill-rule="evenodd"/>
    </g>
  </g>
</svg>
