<svg xmlns="http://www.w3.org/2000/svg" width="89" height="89.178" viewBox="0 0 89 89.178">
  <g id="Grupo_1112372" data-name="Grupo 1112372" transform="translate(6582 -1252.964)">
    <rect id="Rect치ngulo_405089" data-name="Rect치ngulo 405089" width="89" height="89" rx="44.5" transform="translate(-6582 1253.142)" fill="#e9bd68"/>
    <g id="Grupo_1111978" data-name="Grupo 1111978">
      <rect id="Rect치ngulo_400907" data-name="Rect치ngulo 400907" width="89" height="89" rx="44.5" transform="translate(-6582 1252.964)" fill="none"/>
      <g id="Grupo_1111826" data-name="Grupo 1111826" transform="translate(-6569.75 1265.469)">
        <circle id="Elipse_12108" data-name="Elipse 12108" cx="5" cy="5" r="5" transform="translate(19 1)" fill="#ffdec9"/>
        <path id="Trazado_897174" data-name="Trazado 897174" d="M22,11h4a6,6,0,0,1,6,6V31H16V17a6,6,0,0,1,6-6Z" fill="#ffffaf"/>
        <path id="Trazado_897175" data-name="Trazado 897175" d="M32,31V17a5.967,5.967,0,0,0-1.262-3.672A4.96,4.96,0,0,0,29,13H23a5,5,0,0,0-5,5V31Z" fill="#fff055"/>
        <path id="Trazado_897176" data-name="Trazado 897176" d="M38,11h4a6,6,0,0,1,6,6V31H32V17A6,6,0,0,1,38,11Z" fill="#ff9687"/>
        <path id="Trazado_897177" data-name="Trazado 897177" d="M48,31V17a5.967,5.967,0,0,0-1.262-3.672A4.96,4.96,0,0,0,45,13H39a5,5,0,0,0-5,5V31Z" fill="#ff6b69"/>
        <circle id="Elipse_12109" data-name="Elipse 12109" cx="5" cy="5" r="5" transform="translate(35 1)" fill="#ffdec9"/>
        <path id="Trazado_897178" data-name="Trazado 897178" d="M14,23h4a6,6,0,0,1,6,6v4H8V29a6,6,0,0,1,6-6Z" fill="#ffbeff"/>
        <path id="Trazado_897179" data-name="Trazado 897179" d="M24,33V29a5.967,5.967,0,0,0-1.262-3.672A4.96,4.96,0,0,0,21,25H15a5,5,0,0,0-5,5v3Z" fill="#ff96f0"/>
        <path id="Trazado_897180" data-name="Trazado 897180" d="M30,23h4a6,6,0,0,1,6,6v4H24V29a6,6,0,0,1,6-6Z" fill="#dc9b83"/>
        <path id="Trazado_897181" data-name="Trazado 897181" d="M40,33V29a5.967,5.967,0,0,0-1.262-3.672A4.96,4.96,0,0,0,37,25H31a5,5,0,0,0-5,5v3Z" fill="#bf8264"/>
        <path id="Trazado_897182" data-name="Trazado 897182" d="M46,23h4a6,6,0,0,1,6,6v4H40V29A6,6,0,0,1,46,23Z" fill="#6bd75a"/>
        <path id="Trazado_897183" data-name="Trazado 897183" d="M56,33V29a5.968,5.968,0,0,0-1.262-3.672A4.96,4.96,0,0,0,53,25H47a5,5,0,0,0-5,5v3Z" fill="#5bbd45"/>
        <g id="Grupo_1111825" data-name="Grupo 1111825">
          <circle id="Elipse_12110" data-name="Elipse 12110" cx="5" cy="5" r="5" transform="translate(11 13)" fill="#ffdec9"/>
          <circle id="Elipse_12111" data-name="Elipse 12111" cx="5" cy="5" r="5" transform="translate(43 13)" fill="#ffdec9"/>
          <circle id="Elipse_12112" data-name="Elipse 12112" cx="5" cy="5" r="5" transform="translate(27 13)" fill="#ffdec9"/>
        </g>
        <path id="Trazado_897184" data-name="Trazado 897184" d="M2,33a30,30,0,0,0,60,0Z" fill="#87aaff"/>
        <path id="Trazado_897185" data-name="Trazado 897185" d="M57.577,33A30,30,0,0,1,6.719,49.142,30,30,0,0,0,62,33Z" fill="#7f8cf0"/>
        <path id="Trazado_897186" data-name="Trazado 897186" d="M10.571,35.067a4.017,4.017,0,0,0,.3,1.521l2.915,7.126,2.691.673a3,3,0,0,1,1.5,4.909L16.7,50.717a2.307,2.307,0,0,0-.55,1.984l1.265,6.514a29.848,29.848,0,0,0,3.873,1.808L23.429,55.5l5.357-3.214V49.663a2.308,2.308,0,0,1,1.578-2.189L32,46.929l2.8-4.661a2.931,2.931,0,0,0-1.938-4.382l-3-.6L28.294,33.38a2.258,2.258,0,0,0-.222-.38h-16.9a3.992,3.992,0,0,0-.6,2.067Z" fill="#b2f439"/>
        <path id="Trazado_897187" data-name="Trazado 897187" d="M50.214,38.217V47.4a4.615,4.615,0,0,0,1.07,2.954L53.9,53.493A29.887,29.887,0,0,0,62,33H46.9Z" fill="#b2f439"/>
        <path id="Trazado_897188" data-name="Trazado 897188" d="M17.413,59.214a29.848,29.848,0,0,0,3.873,1.808l1.361-3.508a29.773,29.773,0,0,1-5.895-1.7Z" fill="#8fe543"/>
        <path id="Trazado_897189" data-name="Trazado 897189" d="M57.577,33a29.893,29.893,0,0,1-7.3,15.092,4.606,4.606,0,0,0,1.009,2.263L53.9,53.493A29.887,29.887,0,0,0,62,33Z" fill="#8fe543"/>
        <path id="Trazado_897190" data-name="Trazado 897190" d="M62,32H57V29a7.01,7.01,0,0,0-4.864-6.664,5.982,5.982,0,0,0-5.154-10.243,6.961,6.961,0,0,0-2.849-1.755,6,6,0,1,0-8.266,0,6.961,6.961,0,0,0-2.849,1.755,5.616,5.616,0,0,0-2.036,0,6.961,6.961,0,0,0-2.849-1.754,6,6,0,1,0-8.266,0,6.961,6.961,0,0,0-2.849,1.754,5.99,5.99,0,0,0-5.154,10.243A7.01,7.01,0,0,0,7,29v3H2a1,1,0,0,0-1,1,31,31,0,1,0,62,0,1,1,0,0,0-1-1Zm-7-3v3H41V29a5.006,5.006,0,0,1,5-5h4a5.006,5.006,0,0,1,5,5ZM48,14a4,4,0,1,1-4,4A4,4,0,0,1,48,14ZM40,2a4,4,0,1,1-4,4,4,4,0,0,1,4-4ZM38,12h4a4.971,4.971,0,0,1,2.852.9,5.979,5.979,0,0,0-.987,9.434A7.025,7.025,0,0,0,40,25.413a7.025,7.025,0,0,0-3.864-3.077,5.979,5.979,0,0,0-.987-9.434A4.971,4.971,0,0,1,38,12Zm1,17v3H25V29a5.006,5.006,0,0,1,5-5h4a5.006,5.006,0,0,1,5,5ZM32,14a4,4,0,1,1-4,4A4,4,0,0,1,32,14ZM24,2a4,4,0,1,1-4,4,4,4,0,0,1,4-4ZM22,12h4a4.971,4.971,0,0,1,2.852.9,5.979,5.979,0,0,0-.988,9.434A7.025,7.025,0,0,0,24,25.413a7.025,7.025,0,0,0-3.864-3.077,5.979,5.979,0,0,0-.987-9.434A4.971,4.971,0,0,1,22,12Zm-6,2a4,4,0,1,1-4,4A4,4,0,0,1,16,14ZM9,29a5.006,5.006,0,0,1,5-5h4a5.006,5.006,0,0,1,5,5v3H9ZM3.017,34H9.706a4.747,4.747,0,0,0-.134,1.067,5,5,0,0,0,.374,1.9l2.915,7.126a1,1,0,0,0,.684.592l2.69.672a2,2,0,0,1,1,3.27l-1.278,1.42a3.322,3.322,0,0,0-.788,2.843L16,57.171A29,29,0,0,1,3.017,34Zm17.7,25.712q-1.24-.525-2.419-1.159l-1.173-6.043a1.314,1.314,0,0,1,.312-1.124l1.278-1.42a4,4,0,0,0-2-6.549l-2.2-.55L11.8,36.21a3,3,0,0,1-.225-1.142A2.869,2.869,0,0,1,11.791,34H27.465l1.463,3.657a1,1,0,0,0,.732.609l3,.6a1.931,1.931,0,0,1,1.278,2.887L31.333,46.1l-1.285.428a3.3,3.3,0,0,0-2.262,3.138v2.056l-4.872,2.923a1,1,0,0,0-.417.5ZM32,62a28.865,28.865,0,0,1-9.41-1.574l1.647-4.245L29.3,53.143a1,1,0,0,0,.485-.857V49.663a1.306,1.306,0,0,1,.895-1.24l1.636-.546a1,1,0,0,0,.541-.434l2.8-4.662a3.931,3.931,0,0,0-2.6-5.876l-2.471-.494L29.619,34H46.35l2.865,4.508V47.4a5.625,5.625,0,0,0,1.3,3.595l2.032,2.439A28.9,28.9,0,0,1,32,62ZM53.922,51.959l-1.87-2.245a3.623,3.623,0,0,1-.838-2.315V38.217a1,1,0,0,0-.156-.536L48.72,34H60.983a28.872,28.872,0,0,1-7.061,17.959Z"/>
      </g>
    </g>
  </g>
</svg>
