<svg xmlns="http://www.w3.org/2000/svg" width="89" height="89.178" viewBox="0 0 89 89.178">
  <g id="Grupo_1112373" data-name="Grupo 1112373" transform="translate(6267 -1252.964)">
    <rect id="Rect치ngulo_400907" data-name="Rect치ngulo 400907" width="89" height="89" rx="44.5" transform="translate(-6267 1252.964)" fill="none"/>
    <g id="Grupo_1111979" data-name="Grupo 1111979">
      <rect id="Rect치ngulo_405090" data-name="Rect치ngulo 405090" width="89" height="89" rx="44.5" transform="translate(-6267 1253.142)" fill="#e9bd68"/>
      <g id="Grupo_1111829" data-name="Grupo 1111829" transform="translate(-6255 1260.999)">
        <g id="Grupo_1111827" data-name="Grupo 1111827" transform="translate(1.25 1.251)">
          <path id="Trazado_897191" data-name="Trazado 897191" d="M332,116l-10,6v16.375l0,.007,20-.132V122Z" transform="translate(-283 -102.751)" fill="#ff9256"/>
          <path id="Trazado_897192" data-name="Trazado 897192" d="M362,216v8.14l10-.14v-8Z" transform="translate(-318 -190.251)" fill="#c1b0b5"/>
          <path id="Trazado_897193" data-name="Trazado 897193" d="M40,25a14.932,14.932,0,0,1-3.061,9.082L24.906,49.876,12.992,33.992A15,15,0,1,1,40,25Z" transform="translate(-10 -10.001)" fill="#ff9256"/>
          <path id="Trazado_897194" data-name="Trazado 897194" d="M219.85,273.948,234.369,292h20.75V262C242.378,262,229.379,265.5,219.85,273.948Z" transform="translate(-193.619 -230.501)" fill="#d8ec84"/>
          <path id="Trazado_897195" data-name="Trazado 897195" d="M10,302v25H50.75C43.986,310.109,28.937,302,10,302Z" transform="translate(-10 -265.501)" fill="#ffda8f"/>
          <path id="Trazado_897196" data-name="Trazado 897196" d="M60,50A10,10,0,1,1,50,60,10,10,0,0,1,60,50Z" transform="translate(-45 -45.001)" fill="#eefaff"/>
          <path id="Trazado_897197" data-name="Trazado 897197" d="M90,97.5v-5L95,90l5,2.5v5Z" transform="translate(-80 -80.001)" fill="#c1b0b5"/>
        </g>
        <g id="Grupo_1111828" data-name="Grupo 1111828" transform="translate(0 0.001)">
          <path id="Trazado_897198" data-name="Trazado 897198" d="M62.75,31.5c-.418,0-.835,0-1.25.011v-8.8l.607.364a1.25,1.25,0,0,0,1.286-2.144l-12.5-7.5a1.25,1.25,0,0,0-1.286,0l-12.5,7.5a1.25,1.25,0,0,0,1.286,2.144L39,22.709V36.052A45.69,45.69,0,0,0,27.371,43.14a40.752,40.752,0,0,0-8.191-3.92l10-13.129a16.1,16.1,0,0,0,3.317-9.84A16.25,16.25,0,1,0,3.243,25.992l8.5,11.331A66.948,66.948,0,0,0,1.25,36.5,1.25,1.25,0,0,0,0,37.751v25A1.25,1.25,0,0,0,1.25,64h61.5A1.25,1.25,0,0,0,64,62.751v-30a1.25,1.25,0,0,0-1.25-1.25ZM41.5,21.209l8.75-5.25L59,21.209V31.6c-.84.044-1.674.1-2.5.178V27a1.25,1.25,0,0,0-1.25-1.25h-10A1.25,1.25,0,0,0,44,27v7.213q-1.265.395-2.5.847ZM54,28.251v3.8A60.428,60.428,0,0,0,46.5,33.5v-5.25ZM5.243,24.492A13.75,13.75,0,1,1,30,16.251a13.623,13.623,0,0,1-2.805,8.325L16.164,39.053,5.243,24.492ZM2.5,61.5V54.016c11.32.269,18.143,4.172,21.919,7.485Zm33.486,0A33.931,33.931,0,0,0,27.5,52.027a1.25,1.25,0,1,0-1.519,1.986A31.618,31.618,0,0,1,33.029,61.5H28c-3.517-3.815-11.213-9.66-25.5-9.985v-5a45.077,45.077,0,0,1,13.941,2.389,1.25,1.25,0,1,0,.828-2.359A47.6,47.6,0,0,0,2.5,44.016v-5a58.1,58.1,0,0,1,11.482,1.3l1.174,1.565a1.25,1.25,0,0,0,1,.5h0a1.25,1.25,0,0,0,1-.494l.43-.565A36.945,36.945,0,0,1,40.1,61.5Zm25.514,0H42.837l-.012-.029c4.745-3.041,11.3-4.779,18.675-4.955Zm0-7.484c-7.709.177-14.616,1.988-19.732,5.167a41.7,41.7,0,0,0-2.254-3.973c5.649-3.827,13.367-6,21.986-6.195Zm0-7.5c-9.125.2-17.341,2.526-23.4,6.634a39.792,39.792,0,0,0-2.875-3.49c6.7-5.066,15.937-7.932,26.276-8.145Zm0-7.5c-11.018.219-20.889,3.335-28.045,8.851A38.667,38.667,0,0,0,29.529,44.6c8.9-7.258,20.577-10.376,31.97-10.585Z" transform="translate(0 -0.001)"/>
          <path id="Trazado_897199" data-name="Trazado 897199" d="M373.25,168.5h5a1.25,1.25,0,0,0,0-2.5h-5a1.25,1.25,0,0,0,0,2.5Z" transform="translate(-325.5 -145.251)"/>
          <path id="Trazado_897200" data-name="Trazado 897200" d="M62.5,51.251A11.25,11.25,0,1,0,51.25,62.5,11.263,11.263,0,0,0,62.5,51.251Zm-20,0A8.75,8.75,0,1,1,51.25,60,8.76,8.76,0,0,1,42.5,51.251Z" transform="translate(-35 -35.001)"/>
          <path id="Trazado_897201" data-name="Trazado 897201" d="M92.5,88.751v-5a1.25,1.25,0,0,0-.691-1.118l-5-2.5a1.25,1.25,0,0,0-1.118,0l-5,2.5A1.25,1.25,0,0,0,80,83.751v5A1.25,1.25,0,0,0,81.25,90h10A1.25,1.25,0,0,0,92.5,88.751ZM90,87.5H87.5v-1.25a1.25,1.25,0,1,0-2.5,0V87.5H82.5V84.524l3.75-1.875L90,84.524Z" transform="translate(-70 -70.001)"/>
          <ellipse id="Elipse_12113" data-name="Elipse 12113" cx="2" cy="1" rx="2" ry="1" transform="translate(20 49)"/>
        </g>
      </g>
    </g>
  </g>
</svg>
