<svg xmlns="http://www.w3.org/2000/svg" width="89" height="89.178" viewBox="0 0 89 89.178">
  <g id="Grupo_1112374" data-name="Grupo 1112374" transform="translate(5952 -1252.964)">
    <rect id="Rect치ngulo_405091" data-name="Rect치ngulo 405091" width="89" height="89" rx="44.5" transform="translate(-5952 1253.142)" fill="#e9bd68"/>
    <g id="Grupo_1111980" data-name="Grupo 1111980">
      <rect id="Rect치ngulo_400907" data-name="Rect치ngulo 400907" width="89" height="89" rx="44.5" transform="translate(-5952 1252.964)" fill="none"/>
      <g id="Grupo_1111831" data-name="Grupo 1111831" transform="translate(-5939.484 1265.626)">
        <path id="Trazado_897202" data-name="Trazado 897202" d="M5.43,21.09l1.29-2.12a5.058,5.058,0,0,0-.23-5.58A4.982,4.982,0,0,1,8.96,5.7a12.011,12.011,0,0,1,7.17.03l6.19,1.95a9.693,9.693,0,0,0,6.83-.37l7.06-3.1a2.424,2.424,0,0,1,3.34,2.58A2.422,2.422,0,0,0,42.8,9.4l5.16-2.04a1.007,1.007,0,0,1,1.05,1.66A1.006,1.006,0,0,0,50,10.7l8.16-2.61a2.436,2.436,0,0,1,3.02,3.07,25.038,25.038,0,0,0-.48,12.13l1.21,5.81a3.109,3.109,0,0,1-1.99,3.58,3.115,3.115,0,0,0-1.63,4.52l2.15,3.67a3.659,3.659,0,0,1-1.57,5.16L52.92,48.8a1.569,1.569,0,0,0-.61,2.3l1.74,2.55a4.054,4.054,0,0,1-3.24,6.37,3.949,3.949,0,0,1-3.63-2.46L46.03,54.8a1.491,1.491,0,0,0-2.46-.48,1.493,1.493,0,0,1-2.42-.4L38.17,47.8a2.829,2.829,0,0,0-3.62-1.41,2.949,2.949,0,0,0-1.59,3.81l.67,1.72a4.966,4.966,0,0,1-3.93,6.77l-3.63.44a35.206,35.206,0,0,1-14.6-1.31l-2.06-.63a1.855,1.855,0,0,0-1.75.35,1.926,1.926,0,0,1-3.07-1.98l1.02-4.55a6.507,6.507,0,0,0-1.74-6.03,6.5,6.5,0,0,1-.99-7.92l1.35-2.27a5.548,5.548,0,0,0,.62-4.14l-.56-2.3A9.587,9.587,0,0,1,5.4,21.12Z" fill="#6b86b3"/>
        <path id="Trazado_897203" data-name="Trazado 897203" d="M49,29H37l6-12Z" fill="#cc937a"/>
        <path id="Trazado_897204" data-name="Trazado 897204" d="M43,29H55L49,17l-3,6Z" fill="#cc937a"/>
        <g id="Grupo_1111830" data-name="Grupo 1111830">
          <path id="Trazado_897205" data-name="Trazado 897205" d="M16.25,48.16a3.042,3.042,0,0,1-2.13.84H12.88a2.692,2.692,0,0,1-2.86-2.85,20.746,20.746,0,0,1,3.42-9.05l.06-.09.06.09a20.77,20.77,0,0,1,2.69,5.65v5.42Z" fill="#36b385"/>
          <path id="Trazado_897206" data-name="Trazado 897206" d="M21.75,42.74a20.77,20.77,0,0,0-2.69-5.65L19,37l-.06.09a20.77,20.77,0,0,0-2.69,5.65,19.8,19.8,0,0,0-.73,3.4,2.377,2.377,0,0,0,.73,2.01,3.042,3.042,0,0,0,2.13.84h1.24a3.042,3.042,0,0,0,2.13-.84V42.73Z" fill="#36b385"/>
          <path id="Trazado_897207" data-name="Trazado 897207" d="M25.12,49H23.88a2.694,2.694,0,0,1-2.86-2.86,20.793,20.793,0,0,1,3.42-9.05L24.5,37l.06.09a20.793,20.793,0,0,1,3.42,9.05A2.7,2.7,0,0,1,25.12,49Z" fill="#36b385"/>
        </g>
        <path id="Trazado_897208" data-name="Trazado 897208" d="M16,20H28V30H16Z" fill="#fff"/>
        <path id="Trazado_897209" data-name="Trazado 897209" d="M20,26h4v4H20Z" fill="#5c7399"/>
        <path id="Trazado_897210" data-name="Trazado 897210" d="M30,20H14l1.6-5H28.4Z" fill="#e66d67"/>
        <path id="Trazado_897211" data-name="Trazado 897211" d="M37,30H55a1,1,0,0,0,.85-.47.986.986,0,0,0,.04-.97l-6-12a1.04,1.04,0,0,0-1.79,0l-2.11,4.21-2.11-4.21a1.04,1.04,0,0,0-1.79,0l-6,12a1.012,1.012,0,0,0,.04.97,1,1,0,0,0,.85.47ZM49,19.24,53.38,28H49.62l-2.5-5Zm-6,0L47.38,28H38.62Z"/>
        <path id="Trazado_897212" data-name="Trazado 897212" d="M12.5,49.96V54h2V49.96a4.055,4.055,0,0,0,1.75-.56,4.055,4.055,0,0,0,1.75.56V54h2V49.96a4.109,4.109,0,0,0,1.76-.57,4.013,4.013,0,0,0,1.74.56v4.04h2V49.95a3.917,3.917,0,0,0,2.63-1.28,3.365,3.365,0,0,0,.84-2.66,21.9,21.9,0,0,0-3.58-9.48l-.06-.09a1.041,1.041,0,0,0-1.66,0l-.06.09a22.2,22.2,0,0,0-1.87,3.36,21.266,21.266,0,0,0-1.84-3.33l-.06-.09a1.038,1.038,0,0,0-1.69,0l-.05.07a22.334,22.334,0,0,0-1.86,3.38,22.374,22.374,0,0,0-1.85-3.35l-.06-.09a1.038,1.038,0,0,0-1.69,0l-.05.07a21.627,21.627,0,0,0-3.58,9.49,3.354,3.354,0,0,0,.84,2.66,4.005,4.005,0,0,0,2.63,1.28Zm9.51-3.69a19.507,19.507,0,0,1,2.49-7.39,19.507,19.507,0,0,1,2.49,7.39,1.372,1.372,0,0,1-.36,1.09,1.99,1.99,0,0,1-1.51.64H23.88a1.99,1.99,0,0,1-1.51-.64,1.372,1.372,0,0,1-.36-1.09Zm-4.8-3.24A19.062,19.062,0,0,1,19,38.89a19.216,19.216,0,0,1,1.7,3.87,21.086,21.086,0,0,0-.68,3.27,3.259,3.259,0,0,0,.32,1.85,2.2,2.2,0,0,1-.73.13H18.37a2.054,2.054,0,0,1-1.43-.55,1.371,1.371,0,0,1-.44-1.18,18.443,18.443,0,0,1,.7-3.24Zm-6.2,3.24a19.4,19.4,0,0,1,2.49-7.38,19.419,19.419,0,0,1,1.71,3.89,21.517,21.517,0,0,0-.68,3.24,3.279,3.279,0,0,0,.33,1.85,2.243,2.243,0,0,1-.73.13H12.89a1.99,1.99,0,0,1-1.51-.64,1.4,1.4,0,0,1-.36-1.09Z"/>
        <path id="Trazado_897213" data-name="Trazado 897213" d="M14,21h1v9a1,1,0,0,0,1,1H28a1,1,0,0,0,1-1V21h1a1,1,0,0,0,.81-.41,1.013,1.013,0,0,0,.15-.89l-1.6-5a1.009,1.009,0,0,0-.95-.7H15.6a.987.987,0,0,0-.95.7l-1.6,5a.978.978,0,0,0,.15.89,1,1,0,0,0,.81.41Zm9,8H21V27h2Zm4,0H25V26a1,1,0,0,0-1-1H20a1,1,0,0,0-1,1v3H17V21H27ZM16.33,16H27.67l.96,3H15.37Z"/>
        <path id="Trazado_897214" data-name="Trazado 897214" d="M4.66,50.76,3.63,55.31a2.943,2.943,0,0,0,1.33,3.2,2.844,2.844,0,0,0,3.35-.23.9.9,0,0,1,.82-.17l2.06.63A36.148,36.148,0,0,0,26.2,60.09l3.63-.44a5.777,5.777,0,0,0,4.29-2.81,5.993,5.993,0,0,0,.44-5.31l-.67-1.72a1.951,1.951,0,0,1,1.04-2.52,1.823,1.823,0,0,1,2.34.92l2.98,6.12a2.5,2.5,0,0,0,4.04.67.459.459,0,0,1,.44-.14.523.523,0,0,1,.38.32l1.15,2.76a4.953,4.953,0,0,0,4.55,3.07,4.874,4.874,0,0,0,4.36-2.65,5.134,5.134,0,0,0-.29-5.29l-1.74-2.55a.579.579,0,0,1-.08-.48.535.535,0,0,1,.29-.35l5.95-2.77a4.614,4.614,0,0,0,2.44-2.8,4.694,4.694,0,0,0-.43-3.77l-2.15-3.67A2.143,2.143,0,0,1,59,34.85a2.032,2.032,0,0,1,1.25-1.23,4.107,4.107,0,0,0,2.65-4.73l-1.21-5.81a24.02,24.02,0,0,1,.46-11.64,3.5,3.5,0,0,0-.91-3.5,3.31,3.31,0,0,0-3.38-.8L49.73,9.73a2.011,2.011,0,0,0,.23-2.54,1.935,1.935,0,0,0-2.37-.75L42.42,8.48a1.331,1.331,0,0,1-1.33-.19,1.483,1.483,0,0,1-.56-1.37,3.467,3.467,0,0,0-1.37-3.23,3.337,3.337,0,0,0-3.36-.38l-7.06,3.1a8.7,8.7,0,0,1-6.13.33L16.42,4.79a13.033,13.033,0,0,0-7.77-.03A5.811,5.811,0,0,0,4.82,8.54,6.045,6.045,0,0,0,5.67,14a4.043,4.043,0,0,1,.18,4.46L4.56,20.58a10.621,10.621,0,0,0-1.23,7.98l.56,2.3a4.585,4.585,0,0,1-.5,3.4L2.04,36.53a7.486,7.486,0,0,0,1.14,9.14,5.53,5.53,0,0,1,1.47,5.1ZM3.77,37.54l1.35-2.27a6.586,6.586,0,0,0,.73-4.89l-.56-2.3a8.577,8.577,0,0,1,1-6.47l1.29-2.12A6.019,6.019,0,0,0,7.3,12.8a3.965,3.965,0,0,1-.56-3.65,3.818,3.818,0,0,1,2.52-2.5,11.1,11.1,0,0,1,6.58.02l6.19,1.95a10.772,10.772,0,0,0,7.54-.41l7.06-3.1a1.314,1.314,0,0,1,1.36.16,1.47,1.47,0,0,1,.58,1.38,3.466,3.466,0,0,0,1.32,3.19,3.339,3.339,0,0,0,3.29.47L48.31,8.3a2,2,0,0,0-.27,2.48,1.947,1.947,0,0,0,2.28.85l8.16-2.61a1.36,1.36,0,0,1,1.37.33,1.484,1.484,0,0,1,.39,1.5,26.131,26.131,0,0,0-.49,12.61l1.21,5.81a2.086,2.086,0,0,1-1.34,2.42,4.035,4.035,0,0,0-2.48,2.43,4.121,4.121,0,0,0,.31,3.54l2.15,3.67a2.7,2.7,0,0,1,.24,2.17,2.582,2.582,0,0,1-1.37,1.59l-5.95,2.77a2.54,2.54,0,0,0-1.37,1.63,2.614,2.614,0,0,0,.35,2.14l1.74,2.55a3.088,3.088,0,0,1,.18,3.22,2.9,2.9,0,0,1-2.59,1.59,2.947,2.947,0,0,1-2.71-1.84l-1.15-2.76a2.514,2.514,0,0,0-1.85-1.51,2.384,2.384,0,0,0-.46-.04,2.476,2.476,0,0,0-1.78.76.5.5,0,0,1-.43.15.509.509,0,0,1-.38-.29l-2.98-6.12a3.857,3.857,0,0,0-4.9-1.9,3.961,3.961,0,0,0-2.14,5.1l.67,1.72a4.026,4.026,0,0,1-.3,3.56,3.794,3.794,0,0,1-2.82,1.85l-3.63.44a34.036,34.036,0,0,1-14.18-1.27L9.73,56.2a2.888,2.888,0,0,0-2.68.53.857.857,0,0,1-1.03.07.967.967,0,0,1-.43-1.06l1.03-4.55a7.561,7.561,0,0,0-2.01-6.96,5.53,5.53,0,0,1-.83-6.7Z"/>
      </g>
    </g>
  </g>
</svg>
