<svg xmlns="http://www.w3.org/2000/svg" width="89" height="89.178" viewBox="0 0 89 89.178">
  <g id="Grupo_1112375" data-name="Grupo 1112375" transform="translate(5637 -1252.964)">
    <rect id="Rect치ngulo_400907" data-name="Rect치ngulo 400907" width="89" height="89" rx="44.5" transform="translate(-5637 1252.964)" fill="none"/>
    <g id="Grupo_1111981" data-name="Grupo 1111981">
      <rect id="Rect치ngulo_405092" data-name="Rect치ngulo 405092" width="89" height="89" rx="44.5" transform="translate(-5637 1253.142)" fill="#e9bd68"/>
      <g id="Grupo_1111860" data-name="Grupo 1111860" transform="translate(-5624 1263)">
        <g id="Grupo_1111858" data-name="Grupo 1111858" transform="translate(0.938 1.127)">
          <g id="Grupo_1111857" data-name="Grupo 1111857">
            <g id="Grupo_1111832" data-name="Grupo 1111832" transform="translate(0 48.624)">
              <path id="Trazado_897215" data-name="Trazado 897215" d="M7.5,398H39.541v3.75H7.5Z" transform="translate(-7.5 -398.002)" fill="#72869e"/>
            </g>
            <g id="Grupo_1111833" data-name="Grupo 1111833" transform="translate(0 48.749)">
              <path id="Trazado_897216" data-name="Trazado 897216" d="M7.5,399h2.875v3.75H7.5Z" transform="translate(-7.5 -399.003)" fill="#536275"/>
            </g>
            <g id="Grupo_1111834" data-name="Grupo 1111834" transform="translate(0 5.499)">
              <path id="Trazado_897217" data-name="Trazado 897217" d="M7.5,53V69.878h4.75l15.062-13,14.938,13H47V53Z" transform="translate(-7.5 -53.002)" fill="#a4d7f5"/>
            </g>
            <g id="Grupo_1111837" data-name="Grupo 1111837" transform="translate(0 5.624)">
              <g id="Grupo_1111835" data-name="Grupo 1111835">
                <path id="Trazado_897218" data-name="Trazado 897218" d="M10.379,68.028V54H7.5V70.879h4.75l3.289-2.851Z" transform="translate(-7.5 -54.003)" fill="#83c8f1"/>
              </g>
              <g id="Grupo_1111836" data-name="Grupo 1111836" transform="translate(19.085 1.386)">
                <path id="Trazado_897219" data-name="Trazado 897219" d="M176.826,77.731,162.292,65.092l-2.108,1.82,15.665,13.67H180.6V77.731Z" transform="translate(-160.184 -65.092)" fill="#83c8f1"/>
              </g>
            </g>
            <g id="Grupo_1111838" data-name="Grupo 1111838" transform="translate(2 9.498)">
              <path id="Trazado_897220" data-name="Trazado 897220" d="M56.251,98l-15-13-15,13H23.5v26.249H53.542l5.584-1.933V98Z" transform="translate(-23.501 -84.997)" fill="#e5ecf5"/>
            </g>
            <g id="Grupo_1111841" data-name="Grupo 1111841" transform="translate(2.064 9.498)">
              <g id="Grupo_1111839" data-name="Grupo 1111839" transform="translate(1.649)">
                <path id="Trazado_897221" data-name="Trazado 897221" d="M55.379,86.81,53.3,85,37.2,98.938H41.27Z" transform="translate(-37.203 -84.997)" fill="#cad8eb"/>
              </g>
              <g id="Grupo_1111840" data-name="Grupo 1111840" transform="translate(0 13.002)">
                <path id="Trazado_897222" data-name="Trazado 897222" d="M26.7,212.373V189.01H24.012v26.249H53.989v-2.886Z" transform="translate(-24.012 -189.01)" fill="#cad8eb"/>
              </g>
            </g>
            <g id="Grupo_1111842" data-name="Grupo 1111842" transform="translate(40.725 37.886)">
              <path id="Trazado_897223" data-name="Trazado 897223" d="M343.007,315.453l-3.353-3.353c-2.8,2.79-6.126,5.495-6.353,9.7,0,0,6.2,3.418,6.2,7.88,1.818-6.261,6.495-7.9,6.495-7.9A10.31,10.31,0,0,0,343.007,315.453Z" transform="translate(-333.301 -312.1)" fill="#e2fc85"/>
            </g>
            <g id="Grupo_1111843" data-name="Grupo 1111843" transform="translate(46.96 46.941)">
              <path id="Trazado_897224" data-name="Trazado 897224" d="M398.277,384.538h-4.742a10.353,10.353,0,0,0-10.353,10.353v4.762h4.742A10.353,10.353,0,0,0,398.277,389.3Z" transform="translate(-383.181 -384.538)" fill="#caf62e"/>
            </g>
            <g id="Grupo_1111844" data-name="Grupo 1111844" transform="translate(46.96 48.605)">
              <path id="Trazado_897225" data-name="Trazado 897225" d="M390.668,408.436h-4.742v-4.762a10.3,10.3,0,0,1,1.79-5.819,10.342,10.342,0,0,0-4.534,8.564v4.762h4.742a10.342,10.342,0,0,0,8.564-4.534A10.3,10.3,0,0,1,390.668,408.436Z" transform="translate(-383.181 -397.855)" fill="#bde62b"/>
            </g>
            <g id="Grupo_1111845" data-name="Grupo 1111845" transform="translate(40.725 37.886)">
              <path id="Trazado_897226" data-name="Trazado 897226" d="M345.066,319.034a14.785,14.785,0,0,0-5.563,4.2,14.819,14.819,0,0,0-3.384-3.03c1.14-2.457,3.317-4.39,5.3-6.339l-1.765-1.765c-2.138,2.126-4.574,4.2-5.713,6.934a8.334,8.334,0,0,0-.64,2.764s4.511,4,4.473,4.078a13.823,13.823,0,0,1,1.722,3.762c0,.014,0,.027,0,.041l.006-.019.006.019c0-.014,0-.027,0-.04a14.123,14.123,0,0,1,1.722-3.762c-.038-.074,4.473-4.077,4.473-4.077A8.266,8.266,0,0,0,345.066,319.034Z" transform="translate(-333.301 -312.1)" fill="#caf62e"/>
            </g>
            <g id="Grupo_1111846" data-name="Grupo 1111846" transform="translate(7.661 29.937)">
              <path id="Trazado_897227" data-name="Trazado 897227" d="M68.787,248.511H78.13v18.812H68.787Z" transform="translate(-68.787 -248.511)" fill="#d09851"/>
            </g>
            <g id="Grupo_1111847" data-name="Grupo 1111847" transform="translate(7.661 29.937)">
              <path id="Trazado_897228" data-name="Trazado 897228" d="M71.628,264.482V248.511h-2.84v18.811H78.13v-2.84Z" transform="translate(-68.787 -248.511)" fill="#b28246"/>
            </g>
            <g id="Grupo_1111848" data-name="Grupo 1111848" transform="translate(31.968 46.816)">
              <path id="Trazado_897229" data-name="Trazado 897229" d="M263.245,383.537h4.742a10.353,10.353,0,0,1,10.353,10.353v4.762H273.6A10.353,10.353,0,0,1,263.245,388.3Z" transform="translate(-263.245 -383.537)" fill="#caf62e"/>
            </g>
            <g id="Grupo_1111849" data-name="Grupo 1111849" transform="translate(31.968 46.816)">
              <path id="Trazado_897230" data-name="Trazado 897230" d="M274.045,396.085a8.231,8.231,0,0,1-8.231-8.231v-4.315h-2.569V388.3A10.353,10.353,0,0,0,273.6,398.654h4.742v-2.569Z" transform="translate(-263.245 -383.538)" fill="#bde62b"/>
            </g>
            <g id="Grupo_1111850" data-name="Grupo 1111850" transform="translate(32)">
              <path id="Trazado_897231" data-name="Trazado 897231" d="M263.5,9.012h3.75V20.223H263.5Z" transform="translate(-263.5 -9.012)" fill="#d09851"/>
            </g>
            <g id="Grupo_1111851" data-name="Grupo 1111851" transform="translate(32 8.411)">
              <path id="Trazado_897232" data-name="Trazado 897232" d="M263.5,76.3h3.75v2.8H263.5Z" transform="translate(-263.5 -76.298)" fill="#b28246"/>
            </g>
            <g id="Grupo_1111852" data-name="Grupo 1111852" transform="translate(55.29 50.965)">
              <path id="Trazado_897233" data-name="Trazado 897233" d="M0,0H1.905V1.875H0Z" transform="translate(0 1.347) rotate(-45)" fill="#fff"/>
            </g>
            <g id="Grupo_1111853" data-name="Grupo 1111853" transform="translate(36.015 50.967)">
              <path id="Trazado_897234" data-name="Trazado 897234" d="M0,0H1.875V1.905H0Z" transform="translate(0 1.326) rotate(-45)" fill="#fff"/>
            </g>
            <g id="Grupo_1111854" data-name="Grupo 1111854" transform="translate(22.629 29.937)">
              <path id="Trazado_897235" data-name="Trazado 897235" d="M188.532,248.511H197.9v7.5h-9.371Z" transform="translate(-188.532 -248.511)" fill="#c4e5f9"/>
            </g>
            <g id="Grupo_1111855" data-name="Grupo 1111855" transform="translate(22.629 29.937)">
              <path id="Trazado_897236" data-name="Trazado 897236" d="M191.343,253.2v-4.687h-2.811v7.5H197.9V253.2Z" transform="translate(-188.532 -248.511)" fill="#a4d7f5"/>
            </g>
            <g id="Grupo_1111856" data-name="Grupo 1111856" transform="translate(25.441 32.748)">
              <path id="Trazado_897237" data-name="Trazado 897237" d="M211.032,271h1.875v1.875h-1.875Z" transform="translate(-211.032 -271)" fill="#fff"/>
            </g>
          </g>
        </g>
        <g id="Grupo_1111859" data-name="Grupo 1111859" transform="translate(0 0)">
          <path id="Trazado_897238" data-name="Trazado 897238" d="M196.053,421.266h1.876v1.881h-1.876Z" transform="translate(-171.546 -368.608)"/>
          <path id="Trazado_897239" data-name="Trazado 897239" d="M58.319,46.958a11.229,11.229,0,0,0-3.237.475,11.359,11.359,0,0,0-3.088-5.793l-4.017-4.028-4.031,4.042a11.36,11.36,0,0,0-3.086,5.783,11.162,11.162,0,0,0-1.349-.318V24.449h1.875V5.641H37.635V0H32.009V11.245H28.2v1.881H39.511v9.442H36.048L31.713,18.8h5.92V16.921H29.55l-8.856-7.7-8.856,7.7H3.814V18.8h5.86L5.339,22.568H1.876V13.126H13.191V11.245H1.876V7.522H30.133V5.641H0V24.449H2V48.9H0v5.642H22.631V52.658H1.876V50.777H31.925v1.881H28.258v1.881h3.821A11.321,11.321,0,0,0,43.219,64h9.487a11.284,11.284,0,0,0,7.267-2.656l-1.208-1.439a9.409,9.409,0,0,1-6.06,2.214h-2.48l6-6.014L54.9,54.775l-6,6.015V58.283a9.442,9.442,0,0,1,9.418-9.444h3.806v3.836a9.475,9.475,0,0,1-2.15,6.007l1.446,1.2A11.361,11.361,0,0,0,64,52.675V46.958ZM33.884,11.245V1.881H35.76v9.364Zm3.751,0V7.522h1.875v3.723H37.635ZM17.009,48.9H9.539V31.909h7.47Zm1.875,0V30.028H7.663V48.9H3.876V24.449H6.039L20.693,11.712,35.348,24.449h2.287V46.958h-5.71V48.9ZM33.8,52.675V48.838h3.806a9.442,9.442,0,0,1,9.418,9.444v2.53L41,54.775,39.677,56.1l6,6.014H43.219A9.442,9.442,0,0,1,33.8,52.675Zm14.162,1.092a11.383,11.383,0,0,0-5.326-5.622,9.471,9.471,0,0,1,2.634-5.161l2.705-2.713,2.691,2.7A9.471,9.471,0,0,1,53.3,48.138a11.383,11.383,0,0,0-5.341,5.629Z" transform="translate(0 0)"/>
          <path id="Trazado_897240" data-name="Trazado 897240" d="M192.33,240.226H181.081v9.4H192.33Zm-1.876,7.521h-7.5v-5.64h7.5Z" transform="translate(-158.446 -210.198)"/>
          <path id="Trazado_897241" data-name="Trazado 897241" d="M158.544,149.942h1.876v1.881h-1.876Z" transform="translate(-138.726 -131.199)"/>
          <path id="Trazado_897242" data-name="Trazado 897242" d="M188.552,149.942h1.876v1.881h-1.876Z" transform="translate(-164.983 -131.199)"/>
          <path id="Trazado_897243" data-name="Trazado 897243" d="M128.535,149.942h1.876v1.881h-1.876Z" transform="translate(-112.468 -131.199)"/>
        </g>
      </g>
    </g>
  </g>
</svg>
