<svg xmlns="http://www.w3.org/2000/svg" width="82.497" height="82.668" viewBox="0 0 82.497 82.668">
  <g id="Grupo_1111861" data-name="Grupo 1111861" transform="translate(0)">
    <path id="Trazado_897244" data-name="Trazado 897244" d="M382.621,375.948H363.356V351.758a.563.563,0,0,1,.563-.563H381.39a1.232,1.232,0,0,1,1.232,1.232Zm0,0" transform="translate(-304.688 -294.491)" fill="#e63950"/>
    <path id="Trazado_897245" data-name="Trazado 897245" d="M460.412,352.432v23.519h-3.056V352.432a1.231,1.231,0,0,0-1.231-1.232h3.056A1.231,1.231,0,0,1,460.412,352.432Zm0,0" transform="translate(-382.479 -294.494)" fill="#cc2e43"/>
    <path id="Trazado_897246" data-name="Trazado 897246" d="M360.717,103.573a2.267,2.267,0,0,1,2.267-2.236h.086a2.268,2.268,0,0,1,2.268,2.267V98.528a2.268,2.268,0,0,1,2.268-2.268h.069a2.268,2.268,0,0,1,2.267,2.268v-1.5a2.268,2.268,0,0,1,2.268-2.268h.069a2.268,2.268,0,0,1,2.268,2.268v3.246a2.268,2.268,0,0,1,4.536,0v8.562a2.3,2.3,0,0,1,2.382-2.3,2.335,2.335,0,0,1,2.215,2.352v4.766a14.013,14.013,0,0,1-1.842,7,14.285,14.285,0,0,1-3.478,4.089,3.145,3.145,0,0,0-1.191,2.471v4.417H364.354v-5.173a3.2,3.2,0,0,0-.742-2.033c-2.028-2.458-2.7-5.937-2.87-9.029-.221-3.93-.076-7.881-.025-11.828Zm0,0" transform="translate(-302.397 -79.461)" fill="#fed2a4"/>
    <path id="Trazado_897247" data-name="Trazado 897247" d="M460.266,170.063v4.766a14.016,14.016,0,0,1-1.841,7,14.3,14.3,0,0,1-3.478,4.089,3.143,3.143,0,0,0-1.191,2.471v4.417h-1.8V187.79a3.93,3.93,0,0,1,1.191-2.841,14.3,14.3,0,0,0,3.478-4.089,14.015,14.015,0,0,0,1.842-7v-3.8a2.366,2.366,0,0,0-1.4-2.167,2.271,2.271,0,0,1,.99-.185A2.334,2.334,0,0,1,460.266,170.063Zm0,0" transform="translate(-378.981 -140.631)" fill="#ffbd86"/>
    <path id="Trazado_897248" data-name="Trazado 897248" d="M371.066,327.673h16.776v-3.721a.808.808,0,0,0-.809-.808h-15.16a.808.808,0,0,0-.808.808Zm0,0" transform="translate(-311.153 -270.969)" fill="#ffc143"/>
    <path id="Trazado_897249" data-name="Trazado 897249" d="M463,327.673h-2.3v-4.529h1.5a.808.808,0,0,1,.809.808Zm0,0" transform="translate(-386.311 -270.969)" fill="#ffb509"/>
    <path id="Trazado_897250" data-name="Trazado 897250" d="M375.38,99.038a3.516,3.516,0,0,0-1.213.168V93.984a3.478,3.478,0,0,0-4.539-3.314,3.482,3.482,0,0,0-3.476-3.412h-.069a3.482,3.482,0,0,0-3.063,1.83,3.45,3.45,0,0,0-1.473-.332h-.069a3.484,3.484,0,0,0-3.48,3.48V94a3.476,3.476,0,0,0-1.056-.165h-.086a3.492,3.492,0,0,0-3.479,3.432c-.01.8-.152,8.735.026,11.911.237,4.216,1.3,7.49,3.145,9.732a1.994,1.994,0,0,1,.465,1.262v3.961h-.025a2.022,2.022,0,0,0-2.02,2.02v2.59a1.777,1.777,0,0,0-1.245,1.693v24.189a1.212,1.212,0,0,0,1.212,1.212H374.2a1.211,1.211,0,0,0,1.212-1.212v-23.52a2.444,2.444,0,0,0-1.245-2.127v-2.826a2.021,2.021,0,0,0-1.914-2.014v-3.21a1.922,1.922,0,0,1,.73-1.52c.078-.062.159-.127.242-.2l.018-.015a15.344,15.344,0,0,0,5.521-11.83V102.6a3.525,3.525,0,0,0-3.383-3.563Zm-2.425,32.048h.013a.02.02,0,0,1,.02.02v22.307H356.146V131.086Zm-15.564-2.424v-2.105h14.352v2.105Zm18.948-21.3a13.071,13.071,0,0,1-.582,3.877,12.811,12.811,0,0,1-4.088,6.109c-.064.054-.128.1-.189.153a4.33,4.33,0,0,0-1.652,3.422v3.205H359.436v-3.961a4.422,4.422,0,0,0-1.019-2.8c-1.514-1.835-2.387-4.636-2.595-8.326-.174-3.087-.033-10.94-.023-11.744a1.059,1.059,0,0,1,1.055-1.04h.086A1.055,1.055,0,0,1,358,97.313v6.8a1.212,1.212,0,0,0,2.424,0V92.236a1.058,1.058,0,0,1,1.056-1.056h.069a1.058,1.058,0,0,1,1.056,1.056v11.881a1.212,1.212,0,0,0,2.424,0V90.737a1.057,1.057,0,0,1,1.056-1.056h.069a1.057,1.057,0,0,1,1.056,1.056v13.379a1.212,1.212,0,0,0,2.424,0V93.984a1.056,1.056,0,1,1,2.112,0V108a.518.518,0,0,1-.287.462,12.874,12.874,0,0,0-4.245,3.329,1.212,1.212,0,1,0,1.909,1.494,10.69,10.69,0,0,1,3.437-2.663A2.932,2.932,0,0,0,374.167,108v-5.458a1.086,1.086,0,0,1,1.127-1.085,1.125,1.125,0,0,1,1.046,1.141v4.766Zm0,0" transform="translate(-296.266 -73.169)"/>
    <path id="Trazado_897251" data-name="Trazado 897251" d="M30.471,160.284a2.267,2.267,0,0,0-2.267-2.236h-.086a2.268,2.268,0,0,0-2.268,2.268v-5.077a2.267,2.267,0,0,0-2.268-2.267h-.069a2.267,2.267,0,0,0-2.268,2.267v-1.5a2.268,2.268,0,0,0-2.268-2.268h-.069a2.267,2.267,0,0,0-2.267,2.268v3.246a2.268,2.268,0,1,0-4.536,0v8.562a2.3,2.3,0,0,0-2.382-2.3A2.334,2.334,0,0,0,7.507,165.6v4.766a14.011,14.011,0,0,0,1.841,7,14.3,14.3,0,0,0,3.478,4.089,3.146,3.146,0,0,1,1.191,2.471v4.417H26.835v-5.173a3.2,3.2,0,0,1,.742-2.033c2.028-2.458,2.7-5.937,2.87-9.029.221-3.929.076-7.881.025-11.828Zm0,0" transform="translate(-6.295 -127.016)" fill="#fed2a4"/>
    <path id="Trazado_897252" data-name="Trazado 897252" d="M120.279,206.26c-.175,3.092-.842,6.571-2.87,9.029a3.2,3.2,0,0,0-.742,2.033V222.5h-2.031v-5.174a3.2,3.2,0,0,1,.742-2.033c2.029-2.458,2.7-5.937,2.871-9.029.221-3.93.076-7.883.025-11.828a2.265,2.265,0,0,0-1.3-2.018,2.252,2.252,0,0,1,.973-.218h.086a2.266,2.266,0,0,1,2.267,2.236c.052,3.946.2,7.9-.024,11.828Zm0,0" transform="translate(-96.127 -161.164)" fill="#ffbd86"/>
    <path id="Trazado_897253" data-name="Trazado 897253" d="M52.752,384.384H35.977v-3.721a.808.808,0,0,1,.808-.808h15.16a.808.808,0,0,1,.808.808Zm0,0" transform="translate(-30.168 -318.524)" fill="#ffc143"/>
    <path id="Trazado_897254" data-name="Trazado 897254" d="M28.265,423.5H47.531V408.469a.562.562,0,0,0-.562-.563H29.5a1.233,1.233,0,0,0-1.232,1.232Zm0,0" transform="translate(-23.701 -342.045)" fill="#6fd6a2"/>
    <path id="Trazado_897255" data-name="Trazado 897255" d="M130.092,408.473v15.032h-2.807V408.473a.562.562,0,0,0-.563-.563h2.807A.562.562,0,0,1,130.092,408.473Zm0,0" transform="translate(-106.262 -342.049)" fill="#43cd8e"/>
    <path id="Trazado_897256" data-name="Trazado 897256" d="M127.909,384.384h-2.3v-4.529h1.5a.808.808,0,0,1,.808.808Zm0,0" transform="translate(-105.325 -318.524)" fill="#ffb509"/>
    <path id="Trazado_897257" data-name="Trazado 897257" d="M22.217,175.62c1.85-2.242,2.908-5.516,3.145-9.732.178-3.177.121-6.4.066-9.513-.015-.8-.029-1.6-.039-2.4a3.492,3.492,0,0,0-3.48-3.432h-.086a3.464,3.464,0,0,0-1.056.165v-1.762a3.483,3.483,0,0,0-3.48-3.48h-.069a3.45,3.45,0,0,0-1.473.332,3.484,3.484,0,0,0-3.063-1.83h-.069a3.482,3.482,0,0,0-3.476,3.412,3.478,3.478,0,0,0-4.54,3.314v5.222a3.516,3.516,0,0,0-4.6,3.4v4.766a15.5,15.5,0,0,0,.691,4.595,15.342,15.342,0,0,0,4.831,7.235l.018.015c.083.069.164.134.242.2a1.921,1.921,0,0,1,.73,1.52v3.21A2.021,2.021,0,0,0,4.6,182.863v2.826a2.444,2.444,0,0,0-1.245,2.127V193.3a1.212,1.212,0,0,0,2.424,0v-5.487a.02.02,0,0,1,.02-.02H22.618v13.171H5.776v-2a1.212,1.212,0,1,0-2.423,0v3.215a1.212,1.212,0,0,0,1.212,1.212H23.829a1.212,1.212,0,0,0,1.212-1.212V187.147a1.778,1.778,0,0,0-1.245-1.693v-2.59a2.022,2.022,0,0,0-2.02-2.02h-.025v-3.961a1.989,1.989,0,0,1,.465-1.262Zm-.844,9.753H7.021v-2.106H21.373Zm-1.026-11.3a4.422,4.422,0,0,0-1.019,2.8v3.961H8.935v-3.205a4.333,4.333,0,0,0-1.652-3.423c-.061-.048-.124-.1-.189-.152a12.817,12.817,0,0,1-4.088-6.11,13.063,13.063,0,0,1-.582-3.876v-4.766a1.125,1.125,0,0,1,1.046-1.141A1.086,1.086,0,0,1,4.6,159.256v5.457a2.932,2.932,0,0,0,1.611,2.622A10.691,10.691,0,0,1,9.645,170a1.212,1.212,0,1,0,1.909-1.494,12.871,12.871,0,0,0-4.245-3.329.52.52,0,0,1-.287-.463V150.695a1.056,1.056,0,0,1,2.112,0v10.132a1.212,1.212,0,1,0,2.424,0V147.448a1.057,1.057,0,0,1,1.056-1.056h.069a1.057,1.057,0,0,1,1.056,1.056v13.379a1.212,1.212,0,0,0,2.424,0V148.947a1.057,1.057,0,0,1,1.056-1.056h.069a1.057,1.057,0,0,1,1.056,1.056v11.88a1.212,1.212,0,1,0,2.424,0v-6.8a1.057,1.057,0,0,1,1.056-1.056h.086a1.058,1.058,0,0,1,1.055,1.04c.011.8.025,1.607.039,2.411.056,3.071.112,6.246-.062,9.333-.208,3.69-1.081,6.491-2.595,8.326Zm0,0" transform="translate(0 -120.723)"/>
    <path id="Trazado_897258" data-name="Trazado 897258" d="M201.059,329.035H179.441V295.88a.631.631,0,0,1,.631-.631h19.6a1.382,1.382,0,0,1,1.383,1.383Zm0,0" transform="translate(-150.468 -247.579)" fill="#60b8ff"/>
    <path id="Trazado_897259" data-name="Trazado 897259" d="M290.024,296.63v32.4h-3.106v-32.4a1.384,1.384,0,0,0-1.383-1.383h3.106A1.384,1.384,0,0,1,290.024,296.63Zm0,0" transform="translate(-239.432 -247.576)" fill="#22a7ff"/>
    <path id="Trazado_897260" data-name="Trazado 897260" d="M176.479,17.391a2.543,2.543,0,0,1,2.544-2.508h.1a2.545,2.545,0,0,1,2.545,2.544v-5.7a2.545,2.545,0,0,1,2.545-2.545h.078a2.545,2.545,0,0,1,2.545,2.545V10.049A2.545,2.545,0,0,1,189.377,7.5h.078A2.545,2.545,0,0,1,192,10.049v3.642a2.545,2.545,0,0,1,5.09,0V23.3a2.578,2.578,0,0,1,2.673-2.577,2.62,2.62,0,0,1,2.485,2.639v5.348a15.726,15.726,0,0,1-2.066,7.855,16.02,16.02,0,0,1-3.9,4.588,3.531,3.531,0,0,0-1.336,2.773v4.956H180.559v-5.8a3.59,3.59,0,0,0-.832-2.282c-2.276-2.758-3.025-6.661-3.221-10.132-.248-4.41-.085-8.844-.027-13.273Zm0,0" transform="translate(-147.895 -6.292)" fill="#fed2a4"/>
    <path id="Trazado_897261" data-name="Trazado 897261" d="M288.182,91.995v5.348a15.724,15.724,0,0,1-2.066,7.855,16.032,16.032,0,0,1-3.9,4.589,3.527,3.527,0,0,0-1.336,2.773v4.956h-2.021v-5.628a4.407,4.407,0,0,1,1.336-3.188,16.043,16.043,0,0,0,3.9-4.589,15.727,15.727,0,0,0,2.066-7.855V91.995a2.655,2.655,0,0,0-1.574-2.432,2.567,2.567,0,0,1,1.111-.208,2.62,2.62,0,0,1,2.484,2.64Zm0,0" transform="translate(-233.831 -74.927)" fill="#ffbd86"/>
    <path id="Trazado_897262" data-name="Trazado 897262" d="M188.094,268.856h18.824V264.68a.907.907,0,0,0-.907-.907H189a.907.907,0,0,0-.907.907Zm0,0" transform="translate(-157.724 -221.184)" fill="#ffc143"/>
    <path id="Trazado_897263" data-name="Trazado 897263" d="M291.254,268.856h-2.585v-5.082h1.678a.907.907,0,0,1,.907.907Zm0,0" transform="translate(-242.06 -221.184)" fill="#ffb509"/>
    <path id="Trazado_897264" data-name="Trazado 897264" d="M193.7,13.218a3.8,3.8,0,0,0-1.5.25V7.4a3.755,3.755,0,0,0-5.09-3.512V3.757A3.761,3.761,0,0,0,183.345,0h-.078a3.761,3.761,0,0,0-3.37,2.1,3.729,3.729,0,0,0-1.719-.418H178.1a3.761,3.761,0,0,0-3.756,3.756V7.623a3.746,3.746,0,0,0-1.333-.245h-.1a3.77,3.77,0,0,0-3.756,3.705c-.012.9-.171,9.8.029,13.356.264,4.7,1.441,8.344,3.5,10.835a2.386,2.386,0,0,1,.556,1.511v4.593h-.176a2.121,2.121,0,0,0-2.119,2.119v3.02a1.844,1.844,0,0,0-1.4,1.786V81.456a1.212,1.212,0,0,0,1.212,1.212h21.618a1.212,1.212,0,0,0,1.212-1.212V57.8a1.212,1.212,0,0,0-2.423,0V80.244H171.97V48.883h19.024a.171.171,0,0,1,.171.171v3.122a1.212,1.212,0,1,0,2.423,0V49.054a2.6,2.6,0,0,0-1.4-2.3V43.5a2.121,2.121,0,0,0-2.119-2.119h-.029V37.633a2.305,2.305,0,0,1,.875-1.822c.087-.068.177-.141.269-.218l.018-.015a17.066,17.066,0,0,0,6.143-13.162V17.068a3.807,3.807,0,0,0-3.653-3.85ZM173.367,46.459V43.8h16.4v2.658Zm21.559-24.042a14.805,14.805,0,0,1-.66,4.393,14.515,14.515,0,0,1-4.633,6.924q-.112.092-.216.174a4.715,4.715,0,0,0-1.8,3.724v3.744H175.662V36.784a4.818,4.818,0,0,0-1.109-3.053c-1.72-2.084-2.711-5.256-2.945-9.428-.2-3.47-.132-7.035-.07-10.484q.025-1.352.044-2.7A1.337,1.337,0,0,1,172.914,9.8h.1a1.334,1.334,0,0,1,1.333,1.333v7.634a1.212,1.212,0,1,0,2.424,0V5.438A1.334,1.334,0,0,1,178.1,4.105h.078a1.335,1.335,0,0,1,1.333,1.333V18.769a1.212,1.212,0,1,0,2.423,0V3.757a1.335,1.335,0,0,1,1.333-1.333h.078a1.335,1.335,0,0,1,1.333,1.333V18.769a1.212,1.212,0,1,0,2.424,0V7.4a1.333,1.333,0,1,1,2.666,0V23.131a.729.729,0,0,1-.4.651,14.3,14.3,0,0,0-4.714,3.7,1.212,1.212,0,1,0,1.909,1.494,12.131,12.131,0,0,1,3.905-3.029,3.143,3.143,0,0,0,1.727-2.811V17.006a1.366,1.366,0,0,1,1.418-1.366,1.411,1.411,0,0,1,1.316,1.428Zm0,0" transform="translate(-141.786)"/>
  </g>
</svg>
