<svg xmlns="http://www.w3.org/2000/svg" width="61.102" height="62.19" viewBox="0 0 61.102 62.19">
  <g id="Layer_13" transform="translate(-2.245)">
    <g id="Grupo_1111947" data-name="Grupo 1111947" transform="translate(2.245)">
      <g id="Grupo_1111863" data-name="Grupo 1111863" transform="translate(0.607 3.758)">
        <g id="Grupo_1111862" data-name="Grupo 1111862">
          <path id="Trazado_897265" data-name="Trazado 897265" d="M61.557,38.94,34.685,19.8,7.813,38.94a1.943,1.943,0,1,1-2.255-3.166l28-19.944a1.943,1.943,0,0,1,2.255,0l28,19.944a1.943,1.943,0,0,1-2.255,3.166Z" transform="translate(-4.742 -15.47)" fill="#fc657e"/>
        </g>
      </g>
      <g id="Grupo_1111864" data-name="Grupo 1111864" transform="translate(7.471 8.087)">
        <path id="Trazado_897266" data-name="Trazado 897266" d="M56.079,33.291,33,49.73V86.787H79.157V49.73Z" transform="translate(-33 -33.291)" fill="#f98fa6"/>
      </g>
      <g id="Grupo_1111866" data-name="Grupo 1111866" transform="translate(42.502 0.607)">
        <g id="Grupo_1111865" data-name="Grupo 1111865">
          <path id="Trazado_897267" data-name="Trazado 897267" d="M187.747,5.692H178.8a1.6,1.6,0,0,1,0-3.192h8.951a1.6,1.6,0,1,1,0,3.192Z" transform="translate(-177.2 -2.5)" fill="#5290db"/>
        </g>
      </g>
      <g id="Grupo_1111867" data-name="Grupo 1111867" transform="translate(44.534 3.799)">
        <path id="Trazado_897268" data-name="Trazado 897268" d="M185.564,15.638v9.477l8.079,5.755V15.638Z" transform="translate(-185.564 -15.638)" fill="#3a70bf"/>
      </g>
      <g id="Grupo_1111868" data-name="Grupo 1111868" transform="translate(48.356 33.904)">
        <path id="Trazado_897269" data-name="Trazado 897269" d="M201.663,139.56a2.3,2.3,0,0,0-.354.028v4.179c0,.125-.006.248-.014.37a2.3,2.3,0,1,0,.368-4.578Z" transform="translate(-201.295 -139.56)" fill="#f9d0b4"/>
      </g>
      <g id="Grupo_1111869" data-name="Grupo 1111869" transform="translate(37.328 31.974)">
        <path id="Trazado_897270" data-name="Trazado 897270" d="M164.062,131.742c-.841.981-3.822,3.959-8.161,2.723v3.288a5.521,5.521,0,1,0,11.041,0v-4.46a.433.433,0,0,0-.34-.421,4.573,4.573,0,0,1-2.014-1.16A.366.366,0,0,0,164.062,131.742Z" transform="translate(-155.901 -131.615)" fill="#f9d0b4"/>
      </g>
      <g id="Grupo_1111870" data-name="Grupo 1111870" transform="translate(34.669 34.34)">
        <path id="Trazado_897271" data-name="Trazado 897271" d="M147.614,141.84a9.007,9.007,0,0,1-1.168-.424.7.7,0,0,0-.764.131,2.3,2.3,0,0,0,1.577,3.983,2.33,2.33,0,0,0,.368-.032c-.008-.122-.014-.246-.014-.37V141.84Z" transform="translate(-144.955 -141.356)" fill="#f9d0b4"/>
      </g>
      <g id="Grupo_1111872" data-name="Grupo 1111872" transform="translate(35.341 25.724)">
        <g id="Grupo_1111871" data-name="Grupo 1111871">
          <path id="Trazado_897272" data-name="Trazado 897272" d="M147.778,114.695a.7.7,0,0,1,.764-.131,8.947,8.947,0,0,0,1.168.424c4.339,1.236,7.321-1.742,8.161-2.723a.366.366,0,0,1,.526-.03,4.576,4.576,0,0,0,2.014,1.16.433.433,0,0,1,.34.421v.281a2.294,2.294,0,0,1,1.986.65V113.4a7.507,7.507,0,1,0-15.015,0v1.357C147.741,114.733,147.758,114.713,147.778,114.695Z" transform="translate(-147.722 -105.888)" fill="#754e34"/>
        </g>
      </g>
      <g id="Grupo_1111873" data-name="Grupo 1111873" transform="translate(45.475 38.057)">
        <path id="Trazado_897273" data-name="Trazado 897273" d="M193.593,160.375a6.452,6.452,0,0,0,.464-3.717,2.291,2.291,0,0,1-1.373.456,2.329,2.329,0,0,1-.368-.032,5.541,5.541,0,0,1-2.881,4.482v1.674a1.535,1.535,0,0,0,.856,1.377l1.365.673a4.829,4.829,0,0,0,.955.351l2.784.7C195.641,163.762,192.853,162.225,193.593,160.375Z" transform="translate(-189.435 -156.658)" fill="#754e34"/>
      </g>
      <g id="Grupo_1111875" data-name="Grupo 1111875" transform="translate(34.595 38.057)">
        <g id="Grupo_1111874" data-name="Grupo 1111874">
          <path id="Trazado_897274" data-name="Trazado 897274" d="M147.4,157.082a2.259,2.259,0,0,1-1.741-.424c-.006.029-.01.062-.015.091a2.48,2.48,0,0,1,.848,1.863v3.269a1.812,1.812,0,0,1-1.551,3.1h0a4.339,4.339,0,0,1-.285,1.277l2.451-.619a4.813,4.813,0,0,0,.955-.351l1.365-.673a1.535,1.535,0,0,0,.856-1.377v-1.674A5.541,5.541,0,0,1,147.4,157.082Z" transform="translate(-144.652 -156.658)" fill="#754e34"/>
        </g>
      </g>
      <g id="Grupo_1111876" data-name="Grupo 1111876" transform="translate(12.924 31.364)">
        <path id="Trazado_897275" data-name="Trazado 897275" d="M62.247,129.228a6.412,6.412,0,0,1-6.419,2.109.315.315,0,0,0-.382.3V136.4a5.915,5.915,0,1,0,11.831,0v-5.269c0-.031,0-.062,0-.093a.317.317,0,0,0-.305-.311,6.16,6.16,0,0,1-4.25-1.534.318.318,0,0,0-.473.03Z" transform="translate(-55.446 -129.107)" fill="#f9d0b4"/>
      </g>
      <g id="Grupo_1111878" data-name="Grupo 1111878" transform="translate(11.004 25.854)">
        <g id="Grupo_1111877" data-name="Grupo 1111877">
          <path id="Trazado_897276" data-name="Trazado 897276" d="M49.081,114.724a2.478,2.478,0,0,1,.38.03v-.284a.316.316,0,0,1,.382-.3,6.412,6.412,0,0,0,6.419-2.109.318.318,0,0,1,.473-.03,6.157,6.157,0,0,0,4.25,1.534.317.317,0,0,1,.305.311c0,.031,0,.062,0,.093v.791a2.454,2.454,0,0,1,2.093.663v-4.442a3.389,3.389,0,0,0-3.379-3.379,3.345,3.345,0,0,0-1.726.482,3.382,3.382,0,0,0-2.9-1.654H53.646a6.124,6.124,0,0,0-6.106,6.106v2.736A2.456,2.456,0,0,1,49.081,114.724Z" transform="translate(-47.54 -106.423)" fill="#754e34"/>
        </g>
      </g>
      <g id="Grupo_1111879" data-name="Grupo 1111879" transform="translate(10.075 34.154)">
        <path id="Trazado_897277" data-name="Trazado 897277" d="M46.565,145.1v-4.478a2.471,2.471,0,1,0,.015,4.875C46.571,145.365,46.565,145.233,46.565,145.1Z" transform="translate(-43.716 -140.591)" fill="#f9d0b4"/>
      </g>
      <g id="Grupo_1111880" data-name="Grupo 1111880" transform="translate(32.544 42.963)">
        <path id="Trazado_897278" data-name="Trazado 897278" d="M157.293,182.5a2.257,2.257,0,0,0-1.03-.579l-3.947-1a4.815,4.815,0,0,1-.955-.351L150,179.9a1.535,1.535,0,0,1-.856-1.377v-1.674a5.489,5.489,0,0,1-5.252,0v1.674a1.535,1.535,0,0,1-.856,1.377l-1.362.671a4.84,4.84,0,0,1-.958.352l-2.451.619a4.39,4.39,0,0,1-2.051,2.285l0,0v.708a1.5,1.5,0,0,0,.69,1.263c.039.025.249.132.491.253a8.552,8.552,0,0,0,1.734.644l2.5.629a1.718,1.718,0,0,1,1.3,1.57l.2,6.57h14.174Z" transform="translate(-136.209 -176.851)" fill="#f5c84c"/>
      </g>
      <g id="Grupo_1111881" data-name="Grupo 1111881" transform="translate(24.74 34.154)">
        <path id="Trazado_897279" data-name="Trazado 897279" d="M104.632,145.523a4.533,4.533,0,0,1,2.285-2.086,2.464,2.464,0,0,0-2.818-2.816V145.1c0,.133-.006.266-.015.4a2.483,2.483,0,0,0,.395.034C104.53,145.531,104.581,145.526,104.632,145.523Z" transform="translate(-104.084 -140.591)" fill="#f9d0b4"/>
      </g>
      <g id="Grupo_1111883" data-name="Grupo 1111883" transform="translate(24.776 36.663)">
        <g id="Grupo_1111882" data-name="Grupo 1111882">
          <path id="Trazado_897280" data-name="Trazado 897280" d="M105.365,157.026a1.827,1.827,0,0,1,.279.022v-.209a.232.232,0,0,1,.281-.224,4.718,4.718,0,0,0,4.724-1.552.234.234,0,0,1,.348-.022,4.532,4.532,0,0,0,3.127,1.128.233.233,0,0,1,.225.229c0,.023,0,.045,0,.068v.582a1.807,1.807,0,0,1,1.54.488v-3.269a2.494,2.494,0,0,0-2.486-2.486,2.462,2.462,0,0,0-1.27.354A2.489,2.489,0,0,0,110,150.918h-1.277a4.506,4.506,0,0,0-4.493,4.493v2.013a1.81,1.81,0,0,1,1.134-.4Z" transform="translate(-104.231 -150.918)" fill="#754e34"/>
        </g>
      </g>
      <g id="Grupo_1111884" data-name="Grupo 1111884" transform="translate(34.884 42.77)">
        <path id="Trazado_897281" data-name="Trazado 897281" d="M146.129,176.059a1.827,1.827,0,0,0-.279.022v3.3c0,.1,0,.2-.011.292a1.816,1.816,0,1,0,.29-3.609Z" transform="translate(-145.839 -176.059)" fill="#f9d0b4"/>
      </g>
      <g id="Grupo_1111885" data-name="Grupo 1111885" transform="translate(24.092 42.771)">
        <path id="Trazado_897282" data-name="Trazado 897282" d="M103.515,179.377v-3.3a1.817,1.817,0,1,0-.279,3.613,1.843,1.843,0,0,0,.29-.025C103.519,179.572,103.515,179.475,103.515,179.377Z" transform="translate(-101.418 -176.06)" fill="#f9d0b4"/>
      </g>
      <g id="Grupo_1111886" data-name="Grupo 1111886" transform="translate(21.629 49.947)">
        <path id="Trazado_897283" data-name="Trazado 897283" d="M100.192,206.093a4.314,4.314,0,0,1-2.005-.494v.708a1.5,1.5,0,0,1-.783,1.319c-.02.011-.207.1-.43.214a8.53,8.53,0,0,1-1.7.626l-2.5.63a1.718,1.718,0,0,0-1.3,1.57l-.2,6.569H109.1l-.2-6.57a1.717,1.717,0,0,0-1.3-1.57l-2.5-.629a8.554,8.554,0,0,1-1.733-.643c-.243-.122-.454-.229-.493-.254a1.5,1.5,0,0,1-.69-1.263V205.6A4.313,4.313,0,0,1,100.192,206.093Z" transform="translate(-91.279 -205.599)" fill="#fca265"/>
      </g>
      <g id="Grupo_1111887" data-name="Grupo 1111887" transform="translate(26.189 40.718)">
        <path id="Trazado_897284" data-name="Trazado 897284" d="M115.054,167.7a4.718,4.718,0,0,1-4.724,1.552.232.232,0,0,0-.281.224v3.5a4.353,4.353,0,0,0,8.705,0V169.1c0-.023,0-.045,0-.068a.233.233,0,0,0-.225-.229,4.53,4.53,0,0,1-3.127-1.129A.234.234,0,0,0,115.054,167.7Z" transform="translate(-110.05 -167.609)" fill="#f9d0b4"/>
      </g>
      <g id="Grupo_1111888" data-name="Grupo 1111888" transform="translate(12.776 46.134)">
        <path id="Trazado_897285" data-name="Trazado 897285" d="M54.837,191.4l3.035,3.035a.581.581,0,0,0,.822,0l1.374-1.374a.581.581,0,0,0,0-.822L57.735,189.9a2.045,2.045,0,0,1-.625.528c-.028.015-.282.141-.585.291A11.548,11.548,0,0,1,54.837,191.4Z" transform="translate(-54.837 -189.904)" fill="#9be5f9"/>
      </g>
      <g id="Grupo_1111889" data-name="Grupo 1111889" transform="translate(19.743 46.264)">
        <path id="Trazado_897286" data-name="Trazado 897286" d="M85.883,194.839l2.981-2.981a11.585,11.585,0,0,1-1.911-.747c-.334-.167-.625-.314-.678-.349a2.043,2.043,0,0,1-.385-.322l-2.2,2.2a.581.581,0,0,0,0,.822l1.374,1.374A.582.582,0,0,0,85.883,194.839Z" transform="translate(-83.516 -190.44)" fill="#9be5f9"/>
      </g>
      <g id="Grupo_1111890" data-name="Grupo 1111890" transform="translate(7.472 43.907)">
        <path id="Trazado_897287" data-name="Trazado 897287" d="M52.217,184.926l-1.16-.292c-.146-.037-.291-.08-.435-.122l-2.981,2.981a.581.581,0,0,1-.822,0l-1.374-1.374a.581.581,0,0,1,0-.822l2.2-2.2a2.041,2.041,0,0,1-.552-1.395v-.963a5.868,5.868,0,0,1-5.45,0v.963a2.04,2.04,0,0,1-.439,1.264l2.333,2.333a.581.581,0,0,1,0,.822l-1.374,1.374a.581.581,0,0,1-.822,0l-3.035-3.035c-.205.064-.412.123-.62.175l-3.4.856a2.33,2.33,0,0,0-1.285.85v12.075H47.16l.2-6.57a1.718,1.718,0,0,1,1.3-1.57l2.5-.63a8.517,8.517,0,0,0,1.7-.626l.431-.214a1.5,1.5,0,0,0,.783-1.319v-.708l0,0A4.393,4.393,0,0,1,52.217,184.926Z" transform="translate(-33.002 -180.736)" fill="#70d6f9"/>
      </g>
      <g id="Grupo_1111891" data-name="Grupo 1111891" transform="translate(36.39 42.963)">
        <path id="Trazado_897288" data-name="Trazado 897288" d="M158.5,185.862a6.787,6.787,0,0,0,6.459-4.769l-.657-.166a4.812,4.812,0,0,1-.955-.351l-1.365-.673a1.535,1.535,0,0,1-.856-1.377v-1.674a5.489,5.489,0,0,1-5.252,0v1.674a1.535,1.535,0,0,1-.856,1.377l-1.362.671a4.841,4.841,0,0,1-.958.352l-.657.166A6.787,6.787,0,0,0,158.5,185.862Z" transform="translate(-152.039 -176.852)" fill="#f9d0b4"/>
      </g>
      <g id="Grupo_1111892" data-name="Grupo 1111892" transform="translate(26.725 49.947)">
        <path id="Trazado_897289" data-name="Trazado 897289" d="M116.071,210.952a4,4,0,0,0,3.817-2.847c-.213-.086-.423-.177-.629-.28-.243-.122-.454-.229-.493-.254a1.5,1.5,0,0,1-.69-1.263V205.6a4.318,4.318,0,0,1-4.011,0v.708a1.5,1.5,0,0,1-.783,1.319c-.02.011-.207.1-.43.214-.2.1-.4.183-.6.265A4,4,0,0,0,116.071,210.952Z" transform="translate(-112.254 -205.599)" fill="#f9d0b4"/>
      </g>
      <g id="Grupo_1111893" data-name="Grupo 1111893" transform="translate(15.675 43.907)">
        <path id="Trazado_897290" data-name="Trazado 897290" d="M69.265,185.78h1.579a.578.578,0,0,1,.163-.484l2.2-2.2a2.04,2.04,0,0,1-.552-1.395v-.963a5.868,5.868,0,0,1-5.45,0v.963a2.04,2.04,0,0,1-.439,1.264L69.1,185.3a.578.578,0,0,1,.163.484Z" transform="translate(-66.769 -180.736)" fill="#f9d0b4"/>
      </g>
      <g id="Grupo_1111896" data-name="Grupo 1111896" transform="translate(13.897 3.644)">
        <g id="Grupo_1111895" data-name="Grupo 1111895">
          <g id="Grupo_1111894" data-name="Grupo 1111894">
            <path id="Trazado_897291" data-name="Trazado 897291" d="M63.908,17.15a2.7,2.7,0,0,1-2.162-2.114c0-.049-.1-.049-.1,0a2.7,2.7,0,0,1-2.162,2.114c-.049,0-.049.073,0,.1a2.7,2.7,0,0,1,2.162,2.114c0,.049.1.049.1,0a2.7,2.7,0,0,1,2.162-2.114C63.956,17.223,63.956,17.15,63.908,17.15Z" transform="translate(-59.45 -15)" fill="#f5c84c"/>
          </g>
        </g>
      </g>
      <g id="Grupo_1111899" data-name="Grupo 1111899" transform="translate(2.062 50.53)">
        <g id="Grupo_1111898" data-name="Grupo 1111898">
          <g id="Grupo_1111897" data-name="Grupo 1111897">
            <path id="Trazado_897292" data-name="Trazado 897292" d="M13.862,209.509a1.892,1.892,0,0,1-1.517-1.483c0-.034-.068-.034-.068,0a1.891,1.891,0,0,1-1.517,1.483c-.034,0-.034.051,0,.068a1.892,1.892,0,0,1,1.517,1.483c0,.034.068.034.068,0a1.891,1.891,0,0,1,1.517-1.483C13.9,209.56,13.9,209.509,13.862,209.509Z" transform="translate(-10.734 -208.001)" fill="#87d147"/>
          </g>
        </g>
      </g>
      <g id="Grupo_1111902" data-name="Grupo 1111902" transform="translate(55.693 35.468)">
        <g id="Grupo_1111901" data-name="Grupo 1111901">
          <g id="Grupo_1111900" data-name="Grupo 1111900">
            <path id="Trazado_897293" data-name="Trazado 897293" d="M234.95,147.336h-.559v-.559a.783.783,0,0,0-.777-.777.767.767,0,0,0-.777.777v.559h-.559a.783.783,0,0,0-.777.777.767.767,0,0,0,.777.777h.559v.559a.783.783,0,0,0,.777.777.767.767,0,0,0,.777-.777v-.559h.559a.783.783,0,0,0,.777-.777A.767.767,0,0,0,234.95,147.336Z" transform="translate(-231.5 -146)" fill="#70d6f9"/>
          </g>
        </g>
      </g>
      <g id="Grupo_1111905" data-name="Grupo 1111905" transform="translate(10.484 9.717)">
        <g id="Grupo_1111904" data-name="Grupo 1111904">
          <g id="Grupo_1111903" data-name="Grupo 1111903">
            <circle id="Elipse_12114" data-name="Elipse 12114" cx="0.826" cy="0.826" r="0.826" fill="#fc657e"/>
          </g>
        </g>
      </g>
      <g id="Grupo_1111908" data-name="Grupo 1111908" transform="translate(55.912 43.242)">
        <g id="Grupo_1111907" data-name="Grupo 1111907">
          <g id="Grupo_1111906" data-name="Grupo 1111906">
            <circle id="Elipse_12115" data-name="Elipse 12115" cx="0.826" cy="0.826" r="0.826" fill="#f5c84c"/>
          </g>
        </g>
      </g>
      <g id="Grupo_1111909" data-name="Grupo 1111909" transform="translate(47.92 33.296)">
        <path id="Trazado_897294" data-name="Trazado 897294" d="M200.3,142.884c-.086,0-.172,0-.256-.013a.607.607,0,0,1,.117-1.209c.046,0,.092.007.138.007a1.7,1.7,0,0,0,0-3.4l-.094,0a.607.607,0,0,1-.073-1.213c.056,0,.111-.005.167-.005a2.912,2.912,0,0,1,0,5.825Z" transform="translate(-199.5 -137.059)"/>
      </g>
      <g id="Grupo_1111910" data-name="Grupo 1111910" transform="translate(36.72 31.366)">
        <path id="Trazado_897295" data-name="Trazado 897295" d="M159.528,141.988a6.135,6.135,0,0,1-6.128-6.128v-3.288a.607.607,0,0,1,.773-.584c4,1.14,6.778-1.651,7.534-2.534a.962.962,0,0,1,.676-.337.981.981,0,0,1,.719.253,4.051,4.051,0,0,0,1.744,1.017,1.037,1.037,0,0,1,.81,1.012v4.46A6.135,6.135,0,0,1,159.528,141.988Zm-4.914-8.649v2.521a4.914,4.914,0,0,0,9.827,0v-4.322a5.173,5.173,0,0,1-1.974-1.109A8.608,8.608,0,0,1,154.615,133.339Zm8.016-3.094Z" transform="translate(-153.4 -129.115)"/>
      </g>
      <g id="Grupo_1111911" data-name="Grupo 1111911" transform="translate(34.061 33.732)">
        <path id="Trazado_897296" data-name="Trazado 897296" d="M145.366,144.242a2.91,2.91,0,0,1-1.992-5.034,1.307,1.307,0,0,1,1.424-.244,8.4,8.4,0,0,0,1.089.4.607.607,0,1,1-.333,1.168,9.665,9.665,0,0,1-1.246-.453.1.1,0,0,0-.1.019,1.677,1.677,0,0,0-.537,1.235,1.7,1.7,0,0,0,1.7,1.7c.035,0,.069,0,.1,0a.607.607,0,1,1,.093,1.211C145.5,144.24,145.433,144.242,145.366,144.242Z" transform="translate(-142.454 -138.854)"/>
      </g>
      <g id="Grupo_1111913" data-name="Grupo 1111913" transform="translate(34.734 25.117)">
        <g id="Grupo_1111912" data-name="Grupo 1111912">
          <path id="Trazado_897297" data-name="Trazado 897297" d="M160.846,113.341a.607.607,0,0,1-.607-.607V111.5a6.9,6.9,0,0,0-13.8,0v1.223a.607.607,0,0,1-1.215,0V111.5a8.115,8.115,0,0,1,16.229,0v1.23A.607.607,0,0,1,160.846,113.341Z" transform="translate(-145.224 -103.39)"/>
        </g>
      </g>
      <g id="Grupo_1111914" data-name="Grupo 1111914" transform="translate(48.897 37.625)">
        <path id="Trazado_897298" data-name="Trazado 897298" d="M206.073,165.415h-.025a.607.607,0,0,1-.582-.632,4.917,4.917,0,0,0-1-2.711c-.619-1.011-1.258-2.057-.773-3.27a6.029,6.029,0,0,0,.461-3.217.607.607,0,0,1,1.2-.2,7.219,7.219,0,0,1-.532,3.866c-.247.617.1,1.232.681,2.185a5.934,5.934,0,0,1,1.177,3.394A.607.607,0,0,1,206.073,165.415Z" transform="translate(-203.523 -154.879)"/>
      </g>
      <g id="Grupo_1111915" data-name="Grupo 1111915" transform="translate(12.316 30.757)">
        <path id="Trazado_897299" data-name="Trazado 897299" d="M59.467,141.036a6.53,6.53,0,0,1-6.523-6.523v-4.759a.923.923,0,0,1,1.114-.9,5.766,5.766,0,0,0,5.82-1.893.926.926,0,0,1,1.374-.086,5.589,5.589,0,0,0,3.843,1.36.923.923,0,0,1,.895.906v5.374A6.529,6.529,0,0,1,59.467,141.036ZM54.159,130.1v4.409a5.308,5.308,0,0,0,10.616,0v-5.078a6.828,6.828,0,0,1-4.143-1.484A7,7,0,0,1,54.159,130.1Z" transform="translate(-52.944 -126.608)"/>
      </g>
      <g id="Grupo_1111917" data-name="Grupo 1111917" transform="translate(10.396 25.246)">
        <g id="Grupo_1111916" data-name="Grupo 1111916">
          <path id="Trazado_897300" data-name="Trazado 897300" d="M61.49,113.983a.607.607,0,0,1-.607-.607v-4.294a2.762,2.762,0,0,0-4.185-2.376.607.607,0,0,1-.833-.209,2.791,2.791,0,0,0-2.377-1.359H51.751a5.5,5.5,0,0,0-5.5,5.5v2.6a.607.607,0,1,1-1.215,0v-2.6a6.721,6.721,0,0,1,6.713-6.713h1.735a4.006,4.006,0,0,1,3.092,1.483,3.947,3.947,0,0,1,1.532-.311,3.991,3.991,0,0,1,3.986,3.986v4.294a.607.607,0,0,1-.607.608Z" transform="translate(-45.038 -103.923)"/>
        </g>
      </g>
      <g id="Grupo_1111918" data-name="Grupo 1111918" transform="translate(9.467 33.547)">
        <path id="Trazado_897301" data-name="Trazado 897301" d="M44.292,144.244a3.077,3.077,0,1,1,0-6.154c.093,0,.186,0,.276.013a.607.607,0,1,1-.113,1.21q-.081-.008-.163-.008a1.863,1.863,0,1,0,0,3.725c.034,0,.069,0,.1,0a.607.607,0,1,1,.082,1.212Q44.386,144.244,44.292,144.244Z" transform="translate(-41.215 -138.09)"/>
      </g>
      <g id="Grupo_1111919" data-name="Grupo 1111919" transform="translate(34.115 42.551)">
        <path id="Trazado_897302" data-name="Trazado 897302" d="M143.281,180.836a.607.607,0,0,1-.148-1.2l2.324-.587a4.262,4.262,0,0,0,.838-.309l1.362-.672a.922.922,0,0,0,.517-.832v-1.479a.607.607,0,0,1,1.215,0v1.479a2.129,2.129,0,0,1-1.195,1.921l-1.362.672a5.464,5.464,0,0,1-1.078.4l-2.324.587A.607.607,0,0,1,143.281,180.836Z" transform="translate(-142.674 -175.154)"/>
      </g>
      <g id="Grupo_1111920" data-name="Grupo 1111920" transform="translate(44.867 42.573)">
        <path id="Trazado_897303" data-name="Trazado 897303" d="M195.59,181.8a.6.6,0,0,1-.4-.148,1.638,1.638,0,0,0-.675-.352l-3.948-1a5.443,5.443,0,0,1-1.075-.4l-1.365-.673a2.129,2.129,0,0,1-1.195-1.921v-1.456a.607.607,0,0,1,1.215,0v1.456a.922.922,0,0,0,.517.832l1.365.673a4.21,4.21,0,0,0,.835.307l3.948,1a2.874,2.874,0,0,1,1.172.611.608.608,0,0,1-.4,1.067Z" transform="translate(-186.936 -175.248)"/>
      </g>
      <g id="Grupo_1111921" data-name="Grupo 1111921" transform="translate(24.312 33.546)">
        <path id="Trazado_897304" data-name="Trazado 897304" d="M105.6,141.984a.53.53,0,0,1-.059,0,.607.607,0,0,1-.546-.663c0-.05.008-.1.008-.152a1.865,1.865,0,0,0-1.863-1.863c-.054,0-.108,0-.16.007a.607.607,0,0,1-.109-1.21c.089-.008.179-.012.27-.012a3.081,3.081,0,0,1,3.077,3.077c0,.091,0,.18-.013.268a.608.608,0,0,1-.6.55Z" transform="translate(-102.323 -138.089)"/>
      </g>
      <g id="Grupo_1111923" data-name="Grupo 1111923" transform="translate(24.169 36.056)">
        <g id="Grupo_1111922" data-name="Grupo 1111922">
          <path id="Trazado_897305" data-name="Trazado 897305" d="M114,156.03a.607.607,0,0,1-.607-.607v-3.048a1.871,1.871,0,0,0-2.837-1.611.607.607,0,0,1-.833-.209,1.892,1.892,0,0,0-1.611-.922h-1.277a3.89,3.89,0,0,0-3.886,3.885v1.828a.607.607,0,0,1-1.215,0v-1.828a5.106,5.106,0,0,1,5.1-5.1h1.277a3.107,3.107,0,0,1,2.323,1.06,3.058,3.058,0,0,1,1.079-.2,3.1,3.1,0,0,1,3.093,3.094v3.048A.607.607,0,0,1,114,156.03Z" transform="translate(-101.733 -148.419)"/>
        </g>
      </g>
      <g id="Grupo_1111924" data-name="Grupo 1111924" transform="translate(34.407 42.163)">
        <path id="Trazado_897306" data-name="Trazado 897306" d="M144.644,178.408c-.068,0-.136,0-.2-.01a.607.607,0,1,1,.112-1.209c.03,0,.06,0,.09,0a1.21,1.21,0,1,0,0-2.42c-.035,0-.07,0-.1,0a.607.607,0,1,1-.11-1.21c.07-.006.142-.01.214-.01a2.425,2.425,0,1,1,0,4.849Z" transform="translate(-143.878 -173.559)"/>
      </g>
      <g id="Grupo_1111925" data-name="Grupo 1111925" transform="translate(23.485 42.163)">
        <path id="Trazado_897307" data-name="Trazado 897307" d="M101.343,178.409a2.425,2.425,0,0,1,0-4.849c.048,0,.1,0,.142,0a.607.607,0,0,1-.074,1.212l-.068,0a1.21,1.21,0,0,0,0,2.42c.026,0,.051,0,.076,0a.607.607,0,0,1,.1,1.211C101.458,178.407,101.4,178.409,101.343,178.409Z" transform="translate(-98.919 -173.56)"/>
      </g>
      <g id="Grupo_1111926" data-name="Grupo 1111926" transform="translate(31.94 49.518)">
        <path id="Trazado_897308" data-name="Trazado 897308" d="M141.227,216.217a.607.607,0,0,1-.607-.589l-.189-6.281a1.1,1.1,0,0,0-.837-1l-2.5-.629a9.167,9.167,0,0,1-1.855-.688c-.471-.235-.515-.263-.55-.286a2.1,2.1,0,0,1-.969-1.774v-.53a.607.607,0,1,1,1.215,0v.53a.893.893,0,0,0,.411.753c.043.024.226.116.436.221a7.952,7.952,0,0,0,1.609.6l2.5.629a2.315,2.315,0,0,1,1.754,2.125l.19,6.3a.607.607,0,0,1-.589.625h-.018Z" transform="translate(-133.721 -203.833)"/>
      </g>
      <g id="Grupo_1111927" data-name="Grupo 1111927" transform="translate(21.03 49.528)">
        <path id="Trazado_897309" data-name="Trazado 897309" d="M89.422,216.249H89.4a.608.608,0,0,1-.589-.625L89,209.343a2.319,2.319,0,0,1,1.755-2.141l2.5-.63a7.951,7.951,0,0,0,1.578-.581c.205-.1.379-.188.414-.206a.893.893,0,0,0,.461-.783v-.52a.607.607,0,1,1,1.215,0V205a2.109,2.109,0,0,1-1.1,1.852l-.452.226a9.151,9.151,0,0,1-1.82.67l-2.5.63a1.105,1.105,0,0,0-.838,1.015l-.188,6.265A.608.608,0,0,1,89.422,216.249Z" transform="translate(-88.814 -203.875)"/>
      </g>
      <g id="Grupo_1111928" data-name="Grupo 1111928" transform="translate(25.582 40.11)">
        <path id="Trazado_897310" data-name="Trazado 897310" d="M112.51,176.046a4.966,4.966,0,0,1-4.96-4.96v-3.5a.84.84,0,0,1,1.013-.822,4.088,4.088,0,0,0,4.124-1.336.842.842,0,0,1,1.249-.078,3.953,3.953,0,0,0,2.72.955.84.84,0,0,1,.814.824v3.957A4.966,4.966,0,0,1,112.51,176.046Zm-3.746-8.02v3.06a3.745,3.745,0,1,0,7.491,0V167.5a5.215,5.215,0,0,1-2.871-1.021A5.281,5.281,0,0,1,108.764,168.026Zm4.872-1.843s0,0,0,0Zm-.475-.378h0Z" transform="translate(-107.55 -165.109)"/>
      </g>
      <g id="Grupo_1111929" data-name="Grupo 1111929" transform="translate(12.169 45.526)">
        <path id="Trazado_897311" data-name="Trazado 897311" d="M56.391,193.317a1.18,1.18,0,0,1-.841-.348l-3.035-3.035a.607.607,0,0,1,.249-1.009,11.007,11.007,0,0,0,1.6-.64c.285-.141.526-.26.568-.283a1.427,1.427,0,0,0,.434-.368.607.607,0,0,1,.906-.053l2.333,2.333a1.188,1.188,0,0,1,0,1.681l-1.374,1.374A1.179,1.179,0,0,1,56.391,193.317Zm-2.338-3.563,2.338,2.338,1.337-1.338-1.893-1.893a2.683,2.683,0,0,1-.325.21c-.029.016-.292.147-.607.3C54.626,189.51,54.342,189.637,54.053,189.754Z" transform="translate(-52.338 -187.402)"/>
      </g>
      <g id="Grupo_1111930" data-name="Grupo 1111930" transform="translate(19.136 45.657)">
        <path id="Trazado_897312" data-name="Trazado 897312" d="M83.579,193.724a1.18,1.18,0,0,1-.841-.348L81.364,192a1.188,1.188,0,0,1,0-1.681l2.2-2.2a.607.607,0,0,1,.873.014,1.451,1.451,0,0,0,.271.227c.009.005.111.061.621.316a11,11,0,0,0,1.811.708A.607.607,0,0,1,87.4,190.4l-2.981,2.981A1.182,1.182,0,0,1,83.579,193.724Zm.018-1.207h0Zm-1.356-1.356,1.337,1.338,2.271-2.271c-.365-.14-.72-.3-1.062-.466-.638-.319-.694-.355-.735-.381l-.019-.012Z" transform="translate(-81.016 -187.94)"/>
      </g>
      <g id="Grupo_1111931" data-name="Grupo 1111931" transform="translate(6.961 47.021)">
        <path id="Trazado_897313" data-name="Trazado 897313" d="M31.506,196.531a.607.607,0,0,1-.458-1.006,2.925,2.925,0,0,1,1.5-.921l3.4-.856c.188-.047.386-.1.587-.166a.607.607,0,1,1,.362,1.16c-.223.07-.443.132-.653.184l-3.4.856a1.717,1.717,0,0,0-.879.541.6.6,0,0,1-.458.209Z" transform="translate(-30.899 -193.554)"/>
      </g>
      <g id="Grupo_1111932" data-name="Grupo 1111932" transform="translate(15.068 43.531)">
        <path id="Trazado_897314" data-name="Trazado 897314" d="M64.876,182.4a.607.607,0,0,1-.476-.984,1.44,1.44,0,0,0,.309-.888V179.8a.607.607,0,1,1,1.215,0v.731a2.659,2.659,0,0,1-.57,1.641A.606.606,0,0,1,64.876,182.4Z" transform="translate(-64.269 -179.188)"/>
      </g>
      <g id="Grupo_1111933" data-name="Grupo 1111933" transform="translate(20.958 43.535)">
        <path id="Trazado_897315" data-name="Trazado 897315" d="M89.673,182.543a.606.606,0,0,1-.444-.192,2.64,2.64,0,0,1-.716-1.81v-.727a.607.607,0,0,1,1.215,0v.727a1.429,1.429,0,0,0,.388.98.607.607,0,0,1-.443,1.022Z" transform="translate(-88.514 -179.207)"/>
      </g>
      <g id="Grupo_1111934" data-name="Grupo 1111934" transform="translate(24.484 47.075)">
        <path id="Trazado_897316" data-name="Trazado 897316" d="M105.138,195.383a.6.6,0,0,1-.149-.018l-1.065-.268c-.146-.037-.29-.079-.433-.121l-.025-.007a.607.607,0,1,1,.343-1.166l.025.007c.129.038.258.076.388.109l1.065.268a.607.607,0,0,1-.148,1.2Z" transform="translate(-103.03 -193.777)"/>
      </g>
      <g id="Grupo_1111935" data-name="Grupo 1111935" transform="translate(35.847 46.792)">
        <path id="Trazado_897317" data-name="Trazado 897317" d="M156.806,198.4a7.381,7.381,0,0,1-6.969-4.982.607.607,0,0,1,1.148-.4,6.15,6.15,0,0,0,11.619.062.607.607,0,1,1,1.144.408A7.393,7.393,0,0,1,156.806,198.4Z" transform="translate(-149.804 -192.615)"/>
      </g>
      <g id="Grupo_1111936" data-name="Grupo 1111936" transform="translate(26.218 52.015)">
        <path id="Trazado_897318" data-name="Trazado 897318" d="M114.493,218a4.628,4.628,0,0,1-4.282-2.942.607.607,0,0,1,1.132-.439,3.374,3.374,0,0,0,6.338-.1.607.607,0,0,1,1.146.4A4.6,4.6,0,0,1,114.493,218Z" transform="translate(-110.169 -214.113)"/>
      </g>
      <g id="Grupo_1111937" data-name="Grupo 1111937" transform="translate(17.72 48.344)">
        <path id="Trazado_897319" data-name="Trazado 897319" d="M77.033,200.215H75.8a.607.607,0,1,1,0-1.215h1.237a.607.607,0,0,1,0,1.215Z" transform="translate(-75.188 -199)"/>
      </g>
      <g id="Grupo_1111939" data-name="Grupo 1111939" transform="translate(0 3.151)">
        <g id="Grupo_1111938" data-name="Grupo 1111938">
          <path id="Trazado_897320" data-name="Trazado 897320" d="M60.789,38.017a2.532,2.532,0,0,1-1.474-.474l-26.52-18.89L6.275,37.544a2.551,2.551,0,1,1-2.96-4.155l28-19.944a2.551,2.551,0,0,1,2.959,0l28,19.944a2.551,2.551,0,0,1-1.057,4.593,2.611,2.611,0,0,1-.429.036Zm-.77-1.463a1.336,1.336,0,1,0,1.55-2.177l-28-19.944a1.336,1.336,0,0,0-1.55,0l-28,19.944a1.336,1.336,0,0,0,1.55,2.177L32.443,17.413a.607.607,0,0,1,.7,0Z" transform="translate(-2.245 -12.971)"/>
        </g>
      </g>
      <g id="Grupo_1111940" data-name="Grupo 1111940" transform="translate(53.021 24.091)">
        <path id="Trazado_897321" data-name="Trazado 897321" d="M221.107,137.039a.607.607,0,0,1-.607-.607V99.774a.607.607,0,0,1,1.215,0v36.658A.607.607,0,0,1,221.107,137.039Z" transform="translate(-220.5 -99.167)"/>
      </g>
      <g id="Grupo_1111941" data-name="Grupo 1111941" transform="translate(6.864 24.111)">
        <path id="Trazado_897322" data-name="Trazado 897322" d="M31.107,137.127a.607.607,0,0,1-.607-.607V99.857a.607.607,0,0,1,1.215,0V136.52A.607.607,0,0,1,31.107,137.127Z" transform="translate(-30.5 -99.25)"/>
      </g>
      <g id="Grupo_1111943" data-name="Grupo 1111943" transform="translate(41.895)">
        <g id="Grupo_1111942" data-name="Grupo 1111942">
          <path id="Trazado_897323" data-name="Trazado 897323" d="M185.855,4.406H176.9A2.2,2.2,0,1,1,176.9,0h8.951a2.2,2.2,0,0,1,0,4.406ZM176.9,1.215a.988.988,0,1,0,0,1.977h8.951a.988.988,0,0,0,0-1.977Z" transform="translate(-174.701)"/>
        </g>
      </g>
      <g id="Grupo_1111944" data-name="Grupo 1111944" transform="translate(52.006 3.401)">
        <path id="Trazado_897324" data-name="Trazado 897324" d="M216.927,29.988a.607.607,0,0,1-.607-.607V14.607a.607.607,0,1,1,1.215,0V29.381A.607.607,0,0,1,216.927,29.988Z" transform="translate(-216.32 -14)"/>
      </g>
      <g id="Grupo_1111945" data-name="Grupo 1111945" transform="translate(43.927 3.416)">
        <path id="Trazado_897325" data-name="Trazado 897325" d="M183.671,24.352a.607.607,0,0,1-.607-.607V14.67a.607.607,0,1,1,1.215,0v9.074A.607.607,0,0,1,183.671,24.352Z" transform="translate(-183.064 -14.063)"/>
      </g>
      <g id="Grupo_1111946" data-name="Grupo 1111946" transform="translate(3.827 60.976)">
        <path id="Trazado_897326" data-name="Trazado 897326" d="M70.838,252.215H18.607a.607.607,0,1,1,0-1.215h52.23a.607.607,0,0,1,0,1.215Z" transform="translate(-18 -251)"/>
      </g>
    </g>
  </g>
</svg>
