<svg xmlns="http://www.w3.org/2000/svg" width="61.101" height="65.446" viewBox="0 0 61.101 65.446">
  <g id="Grupo_1111949" data-name="Grupo 1111949" transform="translate(-22.6 -5.999)">
    <path id="Trazado_897327" data-name="Trazado 897327" d="M224.07,18.609,236.8,25.961v14.7L224.07,48.017l-12.734-7.352v-14.7Z" transform="translate(-164.032 -10.96)" fill="#dba977" fill-rule="evenodd"/>
    <path id="Trazado_897328" data-name="Trazado 897328" d="M112.045,290.171c-.091-1.609-1.365-3.168-4.217-3.244a88.482,88.482,0,0,1-10.714-.817c-2.915-.357-5.321,1.453-7.533,3.385a57.568,57.568,0,0,1-10.2,7.2l9.555,10.935c4.713-4.937,7.548-5.379,12.32-5.287,4.485.086,5.022.417,9.395-1.46l19.323-9.053c4.888-2.29,1.548-7.061-2.414-5.3a89.457,89.457,0,0,1-15.752,5.08,3.137,3.137,0,0,0,.233-1.44Z" transform="translate(-49.353 -243.408)" fill="#f1d0a5" fill-rule="evenodd"/>
    <path id="Trazado_897329" data-name="Trazado 897329" d="M159.673,291.722a3.33,3.33,0,0,0-2.656-3.022,3.622,3.622,0,0,1,.822,2.085,1.818,1.818,0,0,1-.531,1.494c-1.871,1.865-7.754,1.511-10.58,1.339-.479-.029-.892-.053-1.237-.068a1.114,1.114,0,0,0-.084,2.226c.319.013.722.037,1.187.065,4.7.284,9.906.388,12.287-1.985a4.018,4.018,0,0,0,.56-.694,3.138,3.138,0,0,0,.233-1.44Zm-25.486,14.853,1.364-1.355c4.4-4.1,8.293-3.982,12.514-3.9,3.683.065,5.346.678,9.041-.905l20-9.231c1.43-.67,2.074-1.625,1.678-2.491a2.122,2.122,0,0,0-.839-.844c2.367.716,3.314,3.817-.342,5.529l-19.323,9.053c-4.373,1.877-4.91,1.546-9.395,1.46-4.772-.092-7.608.35-12.32,5.287l-2.382-2.6Z" transform="translate(-96.981 -244.959)" fill="#e8c290" fill-rule="evenodd"/>
    <path id="Trazado_897330" data-name="Trazado 897330" d="M0,0H7.4V20.028H0Z" transform="matrix(0.753, -0.658, 0.658, 0.753, 23.243, 55.716)" fill="#57a4ff"/>
    <path id="Trazado_897331" data-name="Trazado 897331" d="M0,0H7.4V2.357H0Z" transform="matrix(0.753, -0.658, 0.658, 0.753, 34.87, 69.022)" fill="#268bff"/>
    <g id="Grupo_1111948" data-name="Grupo 1111948" transform="translate(22.6 5.999)">
      <path id="Trazado_897332" data-name="Trazado 897332" d="M224.07,96.833,236.8,89.481v-14.7L224.07,82.129l-12.734-7.352v14.7Z" transform="translate(-186.632 -65.774)" fill="#f1d0a5" fill-rule="evenodd"/>
      <path id="Trazado_897333" data-name="Trazado 897333" d="M308.624,82.129l12.734-7.352v14.7l-12.734,7.352Z" transform="translate(-271.186 -65.774)" fill="#e0b884" fill-rule="evenodd"/>
      <path id="Trazado_897334" data-name="Trazado 897334" d="M258.491,38.482l-12.734,7.352,3.723,2.15,12.734-7.352Z" transform="translate(-216.547 -34.23)" fill="#b06b27" fill-rule="evenodd"/>
      <path id="Trazado_897335" data-name="Trazado 897335" d="M245.757,99.728V94.651l3.723,2.15v5.077Z" transform="translate(-216.547 -83.047)" fill="#bd7d3d" fill-rule="evenodd"/>
      <path id="Trazado_897336" data-name="Trazado 897336" d="M70.889,7.321a.667.667,0,0,1,.038-.579.646.646,0,0,1,.486-.322L74.628,6a.654.654,0,1,1,.164,1.3l-1.375.178,5.864,3.385a.651.651,0,0,1,.322.567V33.276a.653.653,0,0,1-.322.567l-6.35,3.663a.633.633,0,0,1-.328.088.655.655,0,0,1-.328-1.221L78.3,32.9V11.809L72.875,8.679l.473,1.133a.656.656,0,0,1-.353.856.666.666,0,0,1-.252.05.655.655,0,0,1-.605-.4l-1.248-3ZM60.037,8.4l3.2,1.846-11.426,6.6L48.611,15,60.037,8.4Zm0,13.192L71.462,15l-3.2-1.846-11.426,6.6Zm.649,14.326,11.426-6.6V16.135l-11.426,6.6ZM54.873,20.13V23.7L52.458,22.3V18.736ZM53.114,17.6,55.529,19l11.426-6.6-2.415-1.394Zm-5.158-1.467V29.328l11.426,6.6V22.731l-3.2-1.846v3.944a.656.656,0,0,1-.984.567l-3.72-2.15a.657.657,0,0,1-.328-.567v-4.7ZM46.644,15v14.7a.659.659,0,0,0,.328.567l12.737,7.352a.657.657,0,0,0,.656,0L73.1,30.273a.659.659,0,0,0,.328-.567V15a.656.656,0,0,0-.328-.567L60.365,7.083a.658.658,0,0,0-.656,0L46.972,14.435a.656.656,0,0,0-.328.567ZM40.465,33.276a.659.659,0,0,0,.328.567l5.864,3.385-1.381.178a.654.654,0,0,0,.082,1.3.608.608,0,0,0,.088-.006l3.216-.415a.668.668,0,0,0,.485-.322.648.648,0,0,0,.032-.58L47.93,34.392a.648.648,0,0,0-.851-.352.655.655,0,0,0-.353.856L47.2,36.03,41.77,32.9V11.809l6.022-3.475A.655.655,0,1,0,47.136,7.2l-6.343,3.665a.656.656,0,0,0-.328.567V33.276ZM80.328,47.84l-19.3,9.04c-3.638,1.56-4.452,1.535-7.478,1.443-.479-.015-1.021-.032-1.633-.043-4.344-.085-7.352.185-11.81,4.485l-8.449-9.68a54.535,54.535,0,0,0,9.011-6.5c2.075-1.813,4.326-3.555,7.018-3.225a89.028,89.028,0,0,0,10.77.823c2.529.068,3.506,1.4,3.575,2.626a2.283,2.283,0,0,1-.662,1.843c-2.018,2.01-8.04,1.646-10.927,1.47-.479-.028-.889-.054-1.223-.066a.655.655,0,0,0-.057,1.308c.328.012.731.037,1.2.064,3.323.2,9.5.576,11.93-1.848a3.456,3.456,0,0,0,.6-.781,92.414,92.414,0,0,0,15.575-5.065,2.769,2.769,0,0,1,3.771,1.01c.511,1.12-.221,2.307-1.9,3.1ZM36.486,69.867,41.07,65.86l-12.3-14.09-4.59,4.008L36.486,69.867ZM83.424,44.2a4.052,4.052,0,0,0-5.492-1.66,94.538,94.538,0,0,1-14.6,4.835,4.3,4.3,0,0,0,.006-.64c-.095-1.724-1.425-3.768-4.849-3.86a87.936,87.936,0,0,1-10.644-.814C44.614,41.666,42,43.68,39.8,45.6a53.924,53.924,0,0,1-9.023,6.483l-1.457-1.669a.656.656,0,0,0-.927-.061l-5.574,4.868a.66.66,0,0,0-.063.924L35.931,71.222a.646.646,0,0,0,.492.224.656.656,0,0,0,.429-.163l5.574-4.868a.656.656,0,0,0,.227-.449.686.686,0,0,0-.164-.475l-1.52-1.74C44.935,59.9,47.508,59.5,51.89,59.589c.605.011,1.141.027,1.621.042,3.09.095,4.13.126,8.04-1.552l.019-.009,19.314-9.045c2.882-1.349,3.172-3.442,2.541-4.825Z" transform="translate(-22.6 -5.999)" fill-rule="evenodd"/>
    </g>
  </g>
</svg>
