<svg xmlns="http://www.w3.org/2000/svg" width="59.999" height="60.003" viewBox="0 0 59.999 60.003">
  <g id="Global" transform="translate(-2 -1.998)">
    <path id="Trazado_897356" data-name="Trazado 897356" d="M51.3,37.22A12,12,0,1,1,37.22,51.31,12.563,12.563,0,0,1,37,49a12.358,12.358,0,0,1,.11-1.62,11.85,11.85,0,0,1,1.44-4.28l.18-.3c0-.01,0-.01.01-.02A12.018,12.018,0,0,1,49,37a12.455,12.455,0,0,1,2.3.22Z" fill="#ffcd00"/>
    <path id="Trazado_897357" data-name="Trazado 897357" d="M52,32H40a43.439,43.439,0,0,0-1.36-11.14A19.9,19.9,0,0,0,45.22,17,19.914,19.914,0,0,1,52,32Z" fill="#2488ff"/>
    <path id="Trazado_897358" data-name="Trazado 897358" d="M40,32H52a19.517,19.517,0,0,1-.7,5.22A12.455,12.455,0,0,0,49,37a12.018,12.018,0,0,0-10.26,5.78A44.436,44.436,0,0,0,40,32Z" fill="#57a4ff"/>
    <path id="Trazado_897359" data-name="Trazado 897359" d="M32,12a19.922,19.922,0,0,1,13.22,5,19.9,19.9,0,0,1-6.58,3.86C37.21,15.51,34.77,12,32,12Z" fill="#57a4ff"/>
    <path id="Trazado_897360" data-name="Trazado 897360" d="M32,12a19.922,19.922,0,0,0-13.22,5,19.9,19.9,0,0,0,6.58,3.86C26.79,15.51,29.23,12,32,12Z" fill="#57a4ff"/>
    <path id="Trazado_897361" data-name="Trazado 897361" d="M40,32H24a43.7,43.7,0,0,1,1.28-10.82c.05-.1.1-.2.14-.29A19.886,19.886,0,0,0,32,22a19.749,19.749,0,0,0,6.64-1.14A43.439,43.439,0,0,1,40,32Z" fill="#57a4ff"/>
    <path id="Trazado_897362" data-name="Trazado 897362" d="M24,32H40a44.436,44.436,0,0,1-1.26,10.78c-.01.01-.01.01-.01.02l-.18.3A19.963,19.963,0,0,0,32,42a19.749,19.749,0,0,0-6.64,1.14A43.439,43.439,0,0,1,24,32Z" fill="#2488ff"/>
    <path id="Trazado_897363" data-name="Trazado 897363" d="M32,12c2.77,0,5.21,3.51,6.64,8.86A19.749,19.749,0,0,1,32,22a19.886,19.886,0,0,1-6.58-1.11,17.084,17.084,0,0,0,1.4-4.13l.01-.01C28.21,13.79,30.02,12,32,12Z" fill="#2488ff"/>
    <path id="Trazado_897364" data-name="Trazado 897364" d="M38.55,43.1a11.85,11.85,0,0,0-1.44,4.28C35.73,50.27,33.94,52,32,52c-2.77,0-5.21-3.51-6.64-8.86A19.749,19.749,0,0,1,32,42a19.963,19.963,0,0,1,6.55,1.1Z" fill="#57a4ff"/>
    <path id="Trazado_897365" data-name="Trazado 897365" d="M37.11,47.38A12.358,12.358,0,0,0,37,49a12.564,12.564,0,0,0,.22,2.31A19.925,19.925,0,0,1,32,52C33.94,52,35.73,50.27,37.11,47.38Z" fill="#2488ff"/>
    <path id="Trazado_897366" data-name="Trazado 897366" d="M27,15a9.685,9.685,0,0,1-.17,1.75l-.01.01a17.084,17.084,0,0,1-1.4,4.13c-.04.09-.09.19-.14.29a52.877,52.877,0,0,1-7.42,10.7C16.21,33.79,15,35,15,35s-1.27-1.27-2.99-3.27C8.46,27.61,3,20.39,3,15a12,12,0,0,1,23.78-2.31A12.563,12.563,0,0,1,27,15Z" fill="#ffde55"/>
    <path id="Trazado_897367" data-name="Trazado 897367" d="M25.36,43.14C26.79,48.49,29.23,52,32,52a19.922,19.922,0,0,1-13.22-5,19.9,19.9,0,0,1,6.58-3.86Z" fill="#2488ff"/>
    <path id="Trazado_897368" data-name="Trazado 897368" d="M25.36,43.14A19.9,19.9,0,0,0,18.78,47,19.914,19.914,0,0,1,12,32a2.437,2.437,0,0,1,.01-.27C13.73,33.73,15,35,15,35s1.21-1.21,2.86-3.12L18,32h6a43.439,43.439,0,0,0,1.36,11.14Z" fill="#57a4ff"/>
    <path id="Trazado_897369" data-name="Trazado 897369" d="M25.28,21.18A43.7,43.7,0,0,0,24,32H18l-.14-.12a52.877,52.877,0,0,0,7.42-10.7Z" fill="#2488ff"/>
    <circle id="Elipse_12117" data-name="Elipse 12117" cx="8" cy="8" r="8" transform="translate(7 7)" fill="#ff3051"/>
    <path id="Trazado_897370" data-name="Trazado 897370" d="M24,15a9,9,0,1,0-9,9,9,9,0,0,0,9-9ZM8,15a7,7,0,1,1,7,7,7,7,0,0,1-7-7Z"/>
    <path id="Trazado_897371" data-name="Trazado 897371" d="M52.5,36.493A20.671,20.671,0,0,0,53,32,20.973,20.973,0,0,0,27.506,11.493,12.993,12.993,0,0,0,2,15c0,5.608,5.357,12.834,9,17.1A20.971,20.971,0,0,0,36.491,52.5,12.993,12.993,0,1,0,52.5,36.493ZM49,36a12.931,12.931,0,0,0-8.552,3.233A47.907,47.907,0,0,0,40.971,33h10a18.565,18.565,0,0,1-.426,3.1A13.059,13.059,0,0,0,49,36ZM36.166,47.03C34.943,49.552,33.428,51,32,51c-1.946,0-4.016-2.709-5.4-7.2a18.692,18.692,0,0,1,10.531-.079,12.82,12.82,0,0,0-.965,3.309Zm-8.507,3.447A18.975,18.975,0,0,1,20.375,47a19.024,19.024,0,0,1,4.349-2.53,18.762,18.762,0,0,0,2.935,6.007ZM19.921,31c1.094-1.331,2.275-2.867,3.39-4.506-.165,1.463-.252,2.975-.282,4.506Zm7.851-13.907C29.009,14.494,30.546,13,32,13c1.946,0,4.016,2.709,5.4,7.2A18.943,18.943,0,0,1,32,21a18.9,18.9,0,0,1-5.218-.742,17.269,17.269,0,0,0,.99-3.165Zm8.569-3.57A18.975,18.975,0,0,1,43.625,17a19.024,19.024,0,0,1-4.349,2.53,18.762,18.762,0,0,0-2.935-6.007ZM26.092,22.137A20.887,20.887,0,0,0,32,23a20.923,20.923,0,0,0,5.921-.866A42.444,42.444,0,0,1,38.979,31H25.029a42.817,42.817,0,0,1,1.063-8.863ZM38.972,33a43.47,43.47,0,0,1-1.057,8.866,20.654,20.654,0,0,0-11.836,0A42.444,42.444,0,0,1,25.021,33Zm11.974-2H40.979a44.172,44.172,0,0,0-1.163-9.528,20.985,20.985,0,0,0,5.339-3.138A18.945,18.945,0,0,1,50.946,31ZM15,4A11.013,11.013,0,0,1,26,15c0,6.4-8.466,15.868-11,18.558C12.466,30.868,4,21.4,4,15A11.013,11.013,0,0,1,15,4ZM13.2,34.562c.609.652,1.014,1.061,1.1,1.145a1,1,0,0,0,1.414,0c.139-.139,1.14-1.148,2.513-2.707h4.8a44.172,44.172,0,0,0,1.163,9.528,20.985,20.985,0,0,0-5.339,3.138,18.956,18.956,0,0,1-5.651-11.1ZM49,60A11,11,0,1,1,60,49,11,11,0,0,1,49,60Z"/>
    <path id="Trazado_897372" data-name="Trazado 897372" d="M49,44a2,2,0,0,1,2,2h2a4,4,0,0,0-3-3.858V40H48v2.142A3.992,3.992,0,0,0,49,50a2,2,0,1,1-2,2H45a4,4,0,0,0,3,3.858V58h2V55.858A3.992,3.992,0,0,0,49,48a2,2,0,1,1,0-4Z"/>
    <path id="Trazado_897373" data-name="Trazado 897373" d="M6,32H4A28.032,28.032,0,0,0,32,60V58A26.029,26.029,0,0,1,6,32Z"/>
    <path id="Trazado_897374" data-name="Trazado 897374" d="M58,32h2A28.032,28.032,0,0,0,32,4V6A26.029,26.029,0,0,1,58,32Z"/>
  </g>
</svg>
