<svg id="Layer_32" data-name="Layer 32" xmlns="http://www.w3.org/2000/svg" width="68.874" height="72.842" viewBox="0 0 68.874 72.842">
  <path id="Trazado_897425" data-name="Trazado 897425" d="M398.556,68.64V96.611a2.611,2.611,0,0,1-2.611,2.613H385.754a2.613,2.613,0,0,1-2.613-2.613V68.64a2.614,2.614,0,0,1,2.613-2.614h10.19A2.612,2.612,0,0,1,398.556,68.64Z" transform="translate(-330.234 -56.909)" fill="#c63434"/>
  <path id="Trazado_897426" data-name="Trazado 897426" d="M392.5,96.328H382.308a3.169,3.169,0,0,1-3.165-3.165V65.192a3.169,3.169,0,0,1,3.165-3.166H392.5a3.169,3.169,0,0,1,3.164,3.166V93.163A3.168,3.168,0,0,1,392.5,96.328Zm-10.191-33.2a2.063,2.063,0,0,0-2.06,2.062V93.163a2.063,2.063,0,0,0,2.06,2.06H392.5a2.062,2.062,0,0,0,2.059-2.06V65.192a2.063,2.063,0,0,0-2.059-2.062Z" transform="translate(-326.789 -53.461)"/>
  <path id="Trazado_897427" data-name="Trazado 897427" d="M460.615,147.145h-1.687a3.789,3.789,0,0,1-3.785-3.785v-8.509a3.789,3.789,0,0,1,3.785-3.785h1.687a.552.552,0,0,1,.552.552v14.974A.552.552,0,0,1,460.615,147.145Zm-1.687-14.974a2.683,2.683,0,0,0-2.68,2.68v8.509a2.683,2.683,0,0,0,2.68,2.68h1.135v-13.87Z" transform="translate(-392.294 -112.968)"/>
  <path id="Trazado_897428" data-name="Trazado 897428" d="M398.558,68.643v4.482H383.143V68.643a2.613,2.613,0,0,1,2.613-2.613h10.19a2.612,2.612,0,0,1,2.612,2.613Z" transform="translate(-330.236 -56.912)" fill="#c63434"/>
  <path id="Trazado_897429" data-name="Trazado 897429" d="M395.11,70.229H379.7a.552.552,0,0,1-.552-.552V65.2a3.169,3.169,0,0,1,3.166-3.165H392.5a3.168,3.168,0,0,1,3.164,3.165v4.482A.552.552,0,0,1,395.11,70.229Zm-14.862-1.1h14.31V65.2a2.062,2.062,0,0,0-2.059-2.061h-10.19a2.063,2.063,0,0,0-2.061,2.061Z" transform="translate(-326.789 -53.465)"/>
  <path id="Trazado_897430" data-name="Trazado 897430" d="M298.921,53.459H278.663a3.967,3.967,0,0,1,0-7.933h20.257c-1.57,0-2.843,1.776-2.843,3.966S297.351,53.459,298.921,53.459Z" transform="translate(-236.765 -39.24)" fill="#0078ad"/>
  <path id="Trazado_897431" data-name="Trazado 897431" d="M295.473,50.564H275.216a4.519,4.519,0,0,1,0-9.038h20.257a.552.552,0,1,1,0,1.1c-1.242,0-2.291,1.563-2.291,3.413s1.049,3.415,2.291,3.415a.552.552,0,1,1,0,1.1Zm-20.257-7.933a3.414,3.414,0,0,0,0,6.828h18.035a5.553,5.553,0,0,1,0-6.828Z" transform="translate(-233.317 -35.792)"/>
  <path id="Trazado_897432" data-name="Trazado 897432" d="M435.219,49.492c0,2.138-1.211,3.879-2.727,3.963q-.058,0-.116,0c-1.57,0-2.843-1.776-2.843-3.967s1.273-3.966,2.843-3.966q.058,0,.116,0C434.008,45.614,435.219,47.356,435.219,49.492Z" transform="translate(-370.22 -39.24)" fill="#0078ad"/>
  <path id="Trazado_897433" data-name="Trazado 897433" d="M428.927,50.564c-1.872,0-3.4-2.027-3.4-4.52s1.523-4.518,3.4-4.518q.078,0,.156.006c1.813.1,3.24,2.083,3.24,4.513s-1.427,4.413-3.249,4.515C429.031,50.562,428.98,50.564,428.927,50.564Zm0-7.933c-1.242,0-2.291,1.563-2.291,3.413s1.049,3.415,2.291,3.415l.077,0c1.225-.068,2.214-1.6,2.214-3.412s-.989-3.343-2.206-3.411Z" transform="translate(-366.772 -35.792)"/>
  <path id="Trazado_897434" data-name="Trazado 897434" d="M397.691,51.551a7.446,7.446,0,0,1,0-8.664l.83.729a5.612,5.612,0,0,0-1.114,3.6,5.612,5.612,0,0,0,1.116,3.6Z" transform="translate(-341.576 -36.965)"/>
  <path id="Trazado_897435" data-name="Trazado 897435" d="M438.9,61.156c-1.008,0-1.8-1.1-1.8-2.5s.79-2.5,1.8-2.5c.031,0,.063,0,.095,0,.967.06,1.7,1.132,1.7,2.494s-.736,2.435-1.712,2.5C438.966,61.155,438.934,61.156,438.9,61.156Zm0-3.892c-.282,0-.693.543-.693,1.393s.411,1.394.693,1.394h.016c.282-.018.677-.556.677-1.393s-.394-1.375-.677-1.392Z" transform="translate(-376.746 -48.405)"/>
  <path id="Trazado_897436" data-name="Trazado 897436" d="M28.456,68.643v5.574H4V68.643A2.533,2.533,0,0,1,6.445,66.03H26.012a2.532,2.532,0,0,1,2.444,2.613Z" transform="translate(-3.448 -56.912)" fill="#c63434"/>
  <path id="Trazado_897437" data-name="Trazado 897437" d="M25.008,71.322H.552A.552.552,0,0,1,0,70.77V65.2A3.088,3.088,0,0,1,3,62.03H22.564a3.088,3.088,0,0,1,3,3.165V70.77a.552.552,0,0,1-.553.552Zm-23.9-1.1h23.35V65.2a1.984,1.984,0,0,0-1.892-2.061H3A1.984,1.984,0,0,0,1.1,65.2Z" transform="translate(0 -53.465)"/>
  <path id="Trazado_897438" data-name="Trazado 897438" d="M282.107,106.062v23.5H257.65v-23.5a3.086,3.086,0,0,1,3.087-3.086h6.876a3.232,3.232,0,1,0,5.894,0h5.515a3.086,3.086,0,0,1,3.086,3.085Z" transform="translate(-222.072 -88.756)" fill="#cccdce"/>
  <path id="Trazado_897439" data-name="Trazado 897439" d="M278.658,126.664H254.2a.552.552,0,0,1-.552-.552v-23.5a3.643,3.643,0,0,1,3.639-3.638h6.876a.552.552,0,0,1,.5.78,2.649,2.649,0,0,0-.235,1.1,2.679,2.679,0,1,0,5.358,0,2.628,2.628,0,0,0-.236-1.1.552.552,0,0,1,.5-.781h5.515a3.642,3.642,0,0,1,3.638,3.638v23.5A.552.552,0,0,1,278.658,126.664Zm-23.9-1.1h23.352V102.614a2.536,2.536,0,0,0-2.533-2.533h-4.756a3.784,3.784,0,1,1-7.41,0h-6.118a2.537,2.537,0,0,0-2.535,2.533Z" transform="translate(-218.624 -85.309)"/>
  <path id="Trazado_897440" data-name="Trazado 897440" d="M334.207,104.3a3.231,3.231,0,1,1-6.179-1.325h5.894A3.192,3.192,0,0,1,334.207,104.3Z" transform="translate(-282.487 -88.756)" fill="#ffc9a3"/>
  <path id="Trazado_897441" data-name="Trazado 897441" d="M327.523,104.637a3.788,3.788,0,0,1-3.784-3.784,3.746,3.746,0,0,1,.333-1.552l.147-.325h6.606l.147.324a3.726,3.726,0,0,1,.335,1.553A3.789,3.789,0,0,1,327.523,104.637Zm-2.565-4.557a2.679,2.679,0,1,0,5.132,0Z" transform="translate(-279.036 -85.309)"/>
  <path id="Trazado_897442" data-name="Trazado 897442" d="M312.859,20.035v2.648a1.6,1.6,0,0,0-1.6-1.6h-.007a1.594,1.594,0,0,0-1.317.7L308,21.073h-2.542a2.637,2.637,0,0,1-.719-.16,1.7,1.7,0,0,1-.96-1.284l-.35-2.33,1.928.511,4.725-.031A2.549,2.549,0,0,1,312.859,20.035Z" transform="translate(-261.526 -14.911)" fill="#995023"/>
  <path id="Trazado_897443" data-name="Trazado 897443" d="M309.411,19.793a.552.552,0,0,1-.552-.552,1.044,1.044,0,0,0-1.91-.585.552.552,0,0,1-.649.209l-1.85-.682h-2.468a3.153,3.153,0,0,1-.9-.2l-.033-.014a2.247,2.247,0,0,1-1.272-1.7l-.35-2.329a.552.552,0,0,1,.688-.616l1.857.492,4.651-.03a3.582,3.582,0,0,1,2.545.983,2.571,2.571,0,0,1,.791,1.824V19.24a.552.552,0,0,1-.552.552Zm-7.391-2.715h2.529a.554.554,0,0,1,.191.034l1.581.584a2.143,2.143,0,0,1,2.538-.332v-.771a1.472,1.472,0,0,0-.465-1.041,2.463,2.463,0,0,0-1.76-.662l-4.725.031a.556.556,0,0,1-.145-.019l-1.116-.3.225,1.5a1.144,1.144,0,0,0,.63.858,2.072,2.072,0,0,0,.516.116Z" transform="translate(-258.078 -11.468)"/>
  <path id="Trazado_897444" data-name="Trazado 897444" d="M316.8,53.139V49.782H315.22a2.306,2.306,0,0,1-2.307-2.306V43.461a1.689,1.689,0,0,0,.719.161h2.542l1.943.717a1.594,1.594,0,0,1,1.317-.7h.007a1.6,1.6,0,0,1,0,3.194v6.311" transform="translate(-269.704 -37.46)" fill="#ffc9a3"/>
  <path id="Trazado_897445" data-name="Trazado 897445" d="M316.544,47.671h-1.1V40.808h.552a1.045,1.045,0,1,0-.867-1.629l-.242.359-2.257-.833h-2.458c-.053,0-.1,0-.153-.008v3.31a1.756,1.756,0,0,0,1.755,1.754H313.9v3.909h-1.1v-2.8h-1.028a2.862,2.862,0,0,1-2.859-2.858V37.117l.791.378a1.135,1.135,0,0,0,.488.107h2.633l1.673.617a2.149,2.149,0,1,1,2.048,3.622Z" transform="translate(-266.254 -31.992)"/>
  <path id="Trazado_897446" data-name="Trazado 897446" d="M324.3,52.285h1.088v1.1H324.3Z" transform="translate(-279.519 -45.065)"/>
  <path id="Trazado_897447" data-name="Trazado 897447" d="M282.111,295.489v31.486H271.4V306.36a1.425,1.425,0,0,0-2.851,0v20.615H257.655V295.489Z" transform="translate(-222.076 -254.686)" fill="#995023"/>
  <path id="Trazado_897448" data-name="Trazado 897448" d="M278.663,324.08H267.949a.552.552,0,0,1-.552-.552V302.912a.873.873,0,1,0-1.746,0v20.615a.552.552,0,0,1-.552.552H254.207a.552.552,0,0,1-.552-.552V292.041a.552.552,0,0,1,.552-.552h24.456a.552.552,0,0,1,.552.552v31.486A.552.552,0,0,1,278.663,324.08Zm-10.162-1.1h9.609V292.594H254.76v30.381h9.787V302.912a1.978,1.978,0,1,1,3.955,0Z" transform="translate(-218.629 -251.238)"/>
  <path id="Trazado_897449" data-name="Trazado 897449" d="M28.456,117.035v12.524H4V116.881a2.744,2.744,0,0,0,.91.154H8.377a2.769,2.769,0,0,0,2.769-2.769v-11.29H23.953v11.29a2.769,2.769,0,0,0,2.769,2.769Z" transform="translate(-3.448 -88.756)" fill="#08b7c4"/>
  <path id="Trazado_897450" data-name="Trazado 897450" d="M25.008,126.663H.552A.552.552,0,0,1,0,126.111V113.433a.552.552,0,0,1,.735-.521,2.2,2.2,0,0,0,.728.122H4.93a2.219,2.219,0,0,0,2.217-2.217V99.527a.552.552,0,0,1,.552-.552H20.506a.552.552,0,0,1,.552.552v11.29a2.219,2.219,0,0,0,2.217,2.217h1.733a.552.552,0,0,1,.552.552v12.524A.552.552,0,0,1,25.008,126.663Zm-23.9-1.1h23.35v-11.42h-1.18a3.325,3.325,0,0,1-3.322-3.321V100.08H8.251v10.738a3.325,3.325,0,0,1-3.322,3.321H1.464a3.351,3.351,0,0,1-.359-.019Z" transform="translate(0 -85.308)"/>
  <path id="Trazado_897451" data-name="Trazado 897451" d="M153,106.062v10.973h-1.733a2.769,2.769,0,0,1-2.769-2.769v-11.29h1.416A3.086,3.086,0,0,1,153,106.062Z" transform="translate(-127.994 -88.756)" fill="#ffc9a3"/>
  <path id="Trazado_897452" data-name="Trazado 897452" d="M150.107,114.14h-2.285a3.325,3.325,0,0,1-3.322-3.321V98.976h1.968a3.642,3.642,0,0,1,3.638,3.638Zm-4.5-14.059v10.738a2.219,2.219,0,0,0,2.217,2.217H149V102.614a2.536,2.536,0,0,0-2.533-2.533Z" transform="translate(-124.547 -85.309)"/>
  <path id="Trazado_897453" data-name="Trazado 897453" d="M11.147,102.976v11.29a2.769,2.769,0,0,1-2.77,2.769H4.911A2.744,2.744,0,0,1,4,116.881v-10.82a3.086,3.086,0,0,1,3.086-3.086Z" transform="translate(-3.448 -88.756)" fill="#ffc9a3"/>
  <path id="Trazado_897454" data-name="Trazado 897454" d="M4.93,114.14H1.464a3.3,3.3,0,0,1-1.093-.185A.552.552,0,0,1,0,113.434v-10.82a3.642,3.642,0,0,1,3.638-3.638H7.7a.552.552,0,0,1,.552.552v11.29A3.325,3.325,0,0,1,4.93,114.14ZM1.1,113.006a2.251,2.251,0,0,0,.358.029H4.93a2.219,2.219,0,0,0,2.217-2.217V100.081H3.638A2.536,2.536,0,0,0,1.1,102.614Z" transform="translate(0 -85.309)"/>
  <path id="Trazado_897455" data-name="Trazado 897455" d="M80.644,102.976v3.853a2.768,2.768,0,0,1-2.767,2.768H75.16a2.768,2.768,0,0,1-2.769-2.768v-3.853Z" transform="translate(-62.395 -88.756)" fill="#ffc9a3"/>
  <path id="Trazado_897456" data-name="Trazado 897456" d="M74.43,106.7H71.713a3.324,3.324,0,0,1-3.321-3.32V98.976H77.75v4.406A3.324,3.324,0,0,1,74.43,106.7ZM69.5,100.081v3.3a2.218,2.218,0,0,0,2.216,2.215H74.43a2.218,2.218,0,0,0,2.215-2.215v-3.3Z" transform="translate(-58.948 -85.309)"/>
  <path id="Trazado_897457" data-name="Trazado 897457" d="M16.118,140.5l7.736,6.692,11.4,2.032,1.973-5.011-11.676-2.979-6.769-6.167" transform="translate(-13.892 -116.417)" fill="#ffc9a3"/>
  <path id="Trazado_897458" data-name="Trazado 897458" d="M33.347,147.3,21.352,145.16,13.5,138.369l.723-.836,7.621,6.592,10.805,1.926,1.578-4.007-11.2-2.858-6.871-6.26.744-.817,6.668,6.074,12.15,3.1Z" transform="translate(-11.637 -113.867)"/>
  <path id="Trazado_897459" data-name="Trazado 897459" d="M102.233,382.956h10.891v19.408H102.233Z" transform="translate(-88.116 -330.075)" fill="#ffc9a3"/>
  <path id="Trazado_897460" data-name="Trazado 897460" d="M110.227,399.469h-12V378.956h12Zm-10.891-1.1h9.786v-18.3H99.336Z" transform="translate(-84.668 -326.627)"/>
  <path id="Trazado_897461" data-name="Trazado 897461" d="M4,382.956H14.717v19.408H4Z" transform="translate(-3.45 -330.075)" fill="#ffc9a3"/>
  <path id="Trazado_897462" data-name="Trazado 897462" d="M11.819,399.469H0V378.956H11.819Zm-10.714-1.1h9.609v-18.3H1.1Z" transform="translate(0 -326.627)"/>
  <path id="Trazado_897463" data-name="Trazado 897463" d="M28.455,295.486v12.078H17.564v-1.207a1.425,1.425,0,0,0-2.85,0v1.207H4V295.486Z" transform="translate(-3.448 -254.683)" fill="#0078ad"/>
  <path id="Trazado_897464" data-name="Trazado 897464" d="M25.007,304.669H14.117a.552.552,0,0,1-.552-.552V302.91a.873.873,0,1,0-1.745,0v1.207a.552.552,0,0,1-.552.552H.552A.552.552,0,0,1,0,304.117V292.038a.552.552,0,0,1,.552-.552H25.007a.552.552,0,0,1,.552.552v12.078A.552.552,0,0,1,25.007,304.669Zm-10.339-1.1h9.786V292.591H1.1v10.974h9.609v-.654a1.977,1.977,0,1,1,3.955,0Z" transform="translate(0 -251.236)"/>
  <path id="Trazado_897465" data-name="Trazado 897465" d="M97.152,45.526a22,22,0,0,0,1.419,4.689c1.185,1.844-.709,3.244-.709,3.244H90.4" transform="translate(-77.917 -39.24)" fill="#995023"/>
  <path id="Trazado_897466" data-name="Trazado 897466" d="M94.414,50.562H86.952a.552.552,0,1,1,0-1.1h7.263a1.791,1.791,0,0,0,.443-2.393,21.211,21.211,0,0,1-1.5-4.879.552.552,0,1,1,1.083-.217,20.483,20.483,0,0,0,1.342,4.5,2.924,2.924,0,0,1-.846,3.987.553.553,0,0,1-.328.108Z" transform="translate(-74.469 -35.791)"/>
  <path id="Trazado_897467" data-name="Trazado 897467" d="M36.89,48.986c1.151-2.835,2.317-1.881,3.67-4.012,1.321-2.084.366-3.289,1.995-4.637l1.455.626a1.6,1.6,0,0,0,.263,3.171l.006,4.852Z" transform="translate(-31.796 -34.767)" fill="#995023"/>
  <path id="Trazado_897468" data-name="Trazado 897468" d="M33.444,46.1a.552.552,0,0,1-.512-.759,4.662,4.662,0,0,1,2.206-2.671,3.97,3.97,0,0,0,1.51-1.43,5.29,5.29,0,0,0,.768-2.186,3.673,3.673,0,0,1,1.341-2.581.552.552,0,0,1,.571-.082l1.455.626a.552.552,0,0,1-.128,1.052,1.044,1.044,0,0,0,.173,2.074.552.552,0,0,1,.552.552l.006,4.851a.552.552,0,0,1-.552.552Zm5.773-8.554a2.7,2.7,0,0,0-.713,1.693,6.4,6.4,0,0,1-.924,2.592,5.017,5.017,0,0,1-1.867,1.78,3.3,3.3,0,0,0-1.4,1.384h5.967l0-3.819a2.152,2.152,0,0,1-.974-3.594Z" transform="translate(-28.35 -31.323)"/>
  <path id="Trazado_897469" data-name="Trazado 897469" d="M80.394,51.9V45.587a1.6,1.6,0,0,1-.263-3.171,1.555,1.555,0,0,1,.263-.022,1.6,1.6,0,0,1,1.324.7V42.022h5.2v4.066a2.454,2.454,0,0,1-2.453,2.454H83.034V51.9" transform="translate(-67.916 -36.219)" fill="#ffc9a3"/>
  <path id="Trazado_897470" data-name="Trazado 897470" d="M79.588,49a.552.552,0,0,1-.552-.552V45.1a.552.552,0,0,1,.552-.552h1.433a1.9,1.9,0,0,0,1.9-1.9V39.128h-4.1v.524a.552.552,0,0,1-1.01.309,1.044,1.044,0,0,0-.866-.461,1.009,1.009,0,0,0-.17.014,1.044,1.044,0,0,0,.17,2.074.552.552,0,0,1,.552.552v6.312a.552.552,0,1,1-1.1,0V42.62a2.149,2.149,0,0,1,.2-4.2,2.1,2.1,0,0,1,.354-.029,2.147,2.147,0,0,1,.773.144.552.552,0,0,1,.551-.515h5.2a.552.552,0,0,1,.552.552v4.065a3.01,3.01,0,0,1-3.006,3.007H80.14v2.8A.552.552,0,0,1,79.588,49Z" transform="translate(-64.471 -32.773)"/>
  <path id="Trazado_897471" data-name="Trazado 897471" d="M117.462,52.285h1.088v1.1h-1.088Z" transform="translate(-101.242 -45.065)"/>
  <path id="Trazado_897472" data-name="Trazado 897472" d="M86.392,9.25H77.916l.616-3.686A1.873,1.873,0,0,1,80.379,4a9.4,9.4,0,0,0,1.775.483A10.685,10.685,0,0,0,84.06,4a1.873,1.873,0,0,1,1.856,1.628Z" transform="translate(-67.157 -3.448)" fill="#c63434"/>
  <path id="Trazado_897473" data-name="Trazado 897473" d="M82.945,6.355H74.468a.552.552,0,0,1-.545-.643l.616-3.686A2.418,2.418,0,0,1,76.932,0a.555.555,0,0,1,.188.033,8.545,8.545,0,0,0,1.587.45A9.564,9.564,0,0,0,80.434.029.552.552,0,0,1,80.611,0a2.432,2.432,0,0,1,2.4,2.109l.477,3.622a.552.552,0,0,1-.548.624Zm-7.824-1.1h7.194l-.394-3a1.325,1.325,0,0,0-1.227-1.146,9.146,9.146,0,0,1-1.987.481,8.007,8.007,0,0,1-1.863-.481,1.316,1.316,0,0,0-1.214,1.1Z" transform="translate(-63.709)"/>
  <path id="Trazado_897474" data-name="Trazado 897474" d="M55.751,38.023H71.088v1.1H55.751Z" transform="translate(-48.053 -32.773)"/>
  <path id="Trazado_897475" data-name="Trazado 897475" d="M146.184,129.277v18.768l-6.1-1.508-6.288,1.508-1.37-.306-.387-.087-.712-.159-3.726-.832-6.2,1.384V129.606l6.2-2.078,6.2,2.078,6.288-2.078Z" transform="translate(-104.638 -109.918)" fill="#b7b7b7"/>
  <path id="Trazado_897476" data-name="Trazado 897476" d="M142.736,145.148a.548.548,0,0,1-.133-.016l-5.972-1.475-6.157,1.478a.555.555,0,0,1-.249,0l-6.075-1.357-6.075,1.357a.552.552,0,0,1-.673-.539V126.159a.552.552,0,0,1,.377-.524l6.2-2.078a.554.554,0,0,1,.351,0l6.021,2.02,6.113-2.02a.551.551,0,0,1,.325-.006l6.1,1.749a.552.552,0,0,1,.4.531V144.6a.552.552,0,0,1-.552.552Zm-18.586-2.489a.557.557,0,0,1,.121.014l6.07,1.357,6.164-1.478a.552.552,0,0,1,.261,0l5.418,1.339V126.245l-5.539-1.587-6.126,2.025a.552.552,0,0,1-.349,0l-6.02-2.019-5.643,1.893v17.352l5.523-1.234a.556.556,0,0,1,.121-.013Z" transform="translate(-101.19 -106.471)"/>
  <path id="Trazado_897477" data-name="Trazado 897477" d="M253.224,143.641a.552.552,0,0,1-.552-.552V124.08a.552.552,0,0,1,1.1,0v19.008A.552.552,0,0,1,253.224,143.641Z" transform="translate(-217.781 -106.471)"/>
  <path id="Trazado_897478" data-name="Trazado 897478" d="M207.688,159a.552.552,0,0,1-.552-.552v-18.3a.552.552,0,1,1,1.1,0v18.3A.552.552,0,0,1,207.688,159Z" transform="translate(-178.533 -120.323)"/>
  <path id="Trazado_897479" data-name="Trazado 897479" d="M162.373,143.641a.552.552,0,0,1-.552-.552V124.08a.552.552,0,0,1,1.1,0v19.008A.552.552,0,0,1,162.373,143.641Z" transform="translate(-139.476 -106.471)"/>
  <path id="Trazado_897480" data-name="Trazado 897480" d="M380.026,124.677H368.3a.552.552,0,0,1-.552-.552V106.377c0-3.748,2.144-6.336,6.038-7.287l.262,1.073c-2.37.579-5.195,2.127-5.195,6.214v17.2h11.177Z" transform="translate(-316.964 -85.407)"/>
  <circle id="Elipse_12120" data-name="Elipse 12120" cx="1.444" cy="1.444" r="1.444" transform="translate(63.063 37.274)" fill="#cccdce"/>
  <path id="Trazado_897481" data-name="Trazado 897481" d="M454.681,269.922a2,2,0,1,1,2-2,2,2,0,0,1-2,2Zm0-2.888a.892.892,0,1,0,.892.892A.892.892,0,0,0,454.681,267.034Z" transform="translate(-390.174 -229.208)"/>
  <path id="Trazado_897482" data-name="Trazado 897482" d="M264.866,173.309l-3.1,6.853a4.64,4.64,0,0,1-6.873,1.9l-7.985-6.42s-2.829-1.1-3.928-1.717a1.547,1.547,0,0,1-.557-2.165l1.39-2.239a1.547,1.547,0,0,1,2.159-.481l2.95,1.919.512-1.6a.457.457,0,0,1,.89.084l.173,2.753,6.529,3.54,2.442-5.032Z" transform="translate(-208.747 -145.48)" fill="#ffc9a3"/>
  <path id="Trazado_897483" data-name="Trazado 897483" d="M254.088,180a5.178,5.178,0,0,1-2.955-.927l-.031-.023-7.918-6.367c-.479-.188-2.89-1.143-3.918-1.719a2.1,2.1,0,0,1-.756-2.939l1.39-2.239a2.1,2.1,0,0,1,2.93-.653l2.343,1.525.292-.911a1.01,1.01,0,0,1,1.964.186l0,.032.153,2.447,5.752,3.119,2.43-5.008,6.38,3.079-3.324,7.344A5.2,5.2,0,0,1,254.088,180Zm-2.31-1.825a4.087,4.087,0,0,0,6.038-1.684l2.879-6.362-4.416-2.132-2.454,5.056-7.306-3.961-.159-2.527-.579,1.809-3.556-2.316a1,1,0,0,0-1.388.309l-1.39,2.239a.994.994,0,0,0,.358,1.392c1.053.59,3.83,1.673,3.858,1.685l.079.031Z" transform="translate(-205.302 -142.034)"/>
  <path id="Trazado_897484" data-name="Trazado 897484" d="M375.234,152.072l-2.518,5.133-5.4-2.606,1.706-4.5" transform="translate(-316.596 -129.376)" fill="#cccdce"/>
  <path id="Trazado_897485" data-name="Trazado 897485" d="M369.267,156.533a.548.548,0,0,1-.24-.055l-5.4-2.605a.552.552,0,0,1-.276-.693l1.706-4.5,1.033.392-1.527,4.022,4.448,2.147,2.277-4.64.992.487-2.518,5.132A.552.552,0,0,1,369.267,156.533Z" transform="translate(-313.148 -128.152)"/>
  <rect id="Rectángulo_405184" data-name="Rectángulo 405184" width="2.882" height="5.649" rx="1.441" transform="translate(15.367 25.372)" fill="#ffc9a3"/>
  <path id="Trazado_897486" data-name="Trazado 897486" d="M109.784,186.491h-1.012A1.489,1.489,0,0,1,107.284,185v-3.779a1.489,1.489,0,0,1,1.488-1.488h1.012a1.489,1.489,0,0,1,1.487,1.488V185A1.489,1.489,0,0,1,109.784,186.491Zm-1.012-5.649a.383.383,0,0,0-.383.383V185a.383.383,0,0,0,.383.383h1.012a.383.383,0,0,0,.383-.383v-3.779a.383.383,0,0,0-.383-.383Z" transform="translate(-92.47 -154.918)"/>
</svg>
