<svg xmlns="http://www.w3.org/2000/svg" width="59.778" height="59.755" viewBox="0 0 59.778 59.755">
  <g id="Grupo_1111974" data-name="Grupo 1111974" transform="translate(-2 -2.1)">
    <g id="Grupo_1111953" data-name="Grupo 1111953" transform="translate(2.624 2.724)">
      <path id="Trazado_897487" data-name="Trazado 897487" d="M48.221,6.531V58.176a3.421,3.421,0,0,1-3.431,3.431H13.853a3.424,3.424,0,0,1-2.308-.873l-7.422-6.8A3.592,3.592,0,0,1,3,51.377V6.531A3.421,3.421,0,0,1,6.431,3.1H44.79a3.461,3.461,0,0,1,3.431,3.431Z" transform="translate(-3 -3.1)" fill="#fff"/>
    </g>
    <g id="Grupo_1111954" data-name="Grupo 1111954" transform="translate(5.68 2.724)">
      <path id="Trazado_897488" data-name="Trazado 897488" d="M50.065,6.531V58.176a3.421,3.421,0,0,1-3.431,3.431H15.7a3.424,3.424,0,0,1-2.308-.873L7.9,55.681a4.033,4.033,0,0,0,1.247.249h18.4A16,16,0,0,0,43.515,39.963V3.1h3.119a3.461,3.461,0,0,1,3.431,3.431Z" transform="translate(-7.9 -3.1)" fill="#e4e3ff"/>
    </g>
    <g id="Grupo_1111955" data-name="Grupo 1111955" transform="translate(11.668 7.651)">
      <path id="Trazado_897489" data-name="Trazado 897489" d="M44.633,12.31v4.054a1.279,1.279,0,0,1-1.31,1.31H18.81a1.279,1.279,0,0,1-1.31-1.31V12.31A1.279,1.279,0,0,1,18.81,11H43.323A1.361,1.361,0,0,1,44.633,12.31Z" transform="translate(-17.5 -11)" fill="#a2a2f9"/>
    </g>
    <g id="Grupo_1111956" data-name="Grupo 1111956" transform="translate(11.668 7.651)">
      <path id="Trazado_897490" data-name="Trazado 897490" d="M44.633,12.31v4.054a1.279,1.279,0,0,1-1.31,1.31H18.81a1.279,1.279,0,0,1-1.31-1.31v-1H39.206a3.088,3.088,0,0,0,3.119-3.119V11h.936a1.373,1.373,0,0,1,1.372,1.31Z" transform="translate(-17.5 -11)" fill="#7979f7"/>
    </g>
    <g id="Grupo_1111957" data-name="Grupo 1111957" transform="translate(2.624 50.939)">
      <path id="Trazado_897491" data-name="Trazado 897491" d="M14.227,82.458v8.233h-.374a3.424,3.424,0,0,1-2.308-.873l-7.422-6.8A3.592,3.592,0,0,1,3,80.462V80.4h9.169a2.077,2.077,0,0,1,2.058,2.058Z" transform="translate(-3 -80.4)" fill="#474646"/>
    </g>
    <g id="Grupo_1111958" data-name="Grupo 1111958" transform="translate(2.624 50.939)">
      <path id="Trazado_897492" data-name="Trazado 897492" d="M14.227,82.458v8.233h-.374a3.424,3.424,0,0,1-2.308-.873l-7.422-6.8A3.592,3.592,0,0,1,3,80.462V80.4h.437L9.3,85.328a1.553,1.553,0,0,0,2.557-1.185V80.4h.312a2.077,2.077,0,0,1,2.058,2.058Z" transform="translate(-3 -80.4)" fill="#2d2c2c"/>
    </g>
    <g id="Grupo_1111964" data-name="Grupo 1111964" transform="translate(34.372 28.609)">
      <g id="Grupo_1111961" data-name="Grupo 1111961">
        <g id="Grupo_1111959" data-name="Grupo 1111959">
          <path id="Trazado_897493" data-name="Trazado 897493" d="M80.284,56.2l-2-.5a10.344,10.344,0,0,0-1.622-3.8l1.06-1.746a.591.591,0,0,0-.125-.811l-1.559-1.559a.675.675,0,0,0-.811-.125l-1.746,1.06a11.3,11.3,0,0,0-3.867-1.622l-.5-2a.631.631,0,0,0-.686-.5H66.188a.828.828,0,0,0-.686.5l-.5,2a10.344,10.344,0,0,0-3.8,1.622l-1.746-1.06a.591.591,0,0,0-.811.125l-1.559,1.435a.675.675,0,0,0-.125.811l1.06,1.746a11.509,11.509,0,0,0-1.622,3.8l-2,.5a.631.631,0,0,0-.5.686v2.245a.73.73,0,0,0,.5.686l2,.5a11.107,11.107,0,0,0,1.622,3.867l-1.06,1.746a.591.591,0,0,0,.125.811l1.559,1.559a.675.675,0,0,0,.811.125l1.746-1.06A11.509,11.509,0,0,0,65,68.863l.5,2a.631.631,0,0,0,.686.5h2.245a.828.828,0,0,0,.686-.5l.5-2a11.107,11.107,0,0,0,3.867-1.622l1.746,1.06a.591.591,0,0,0,.811-.125L77.6,66.618a.675.675,0,0,0,.125-.811l-1.06-1.746a11.508,11.508,0,0,0,1.622-3.8l2-.5a.631.631,0,0,0,.5-.686V56.825a.607.607,0,0,0-.5-.624ZM67.373,63.936a5.988,5.988,0,1,1,5.988-5.988A5.989,5.989,0,0,1,67.373,63.936Z" transform="translate(-53.9 -44.6)" fill="#f7f363"/>
        </g>
        <g id="Grupo_1111960" data-name="Grupo 1111960" transform="translate(11.539 11.352)">
          <path id="Trazado_897494" data-name="Trazado 897494" d="M87.245,63.049l-1-.249v1.622a.73.73,0,0,1-.5.686l-1.622.437a.616.616,0,0,0-.437.437A10.661,10.661,0,0,1,82.38,69.1a.567.567,0,0,0,0,.624l.873,1.435a.591.591,0,0,1-.125.811l-1.559,1.559a.675.675,0,0,1-.811.125l-1.435-.873a.567.567,0,0,0-.624,0,10.356,10.356,0,0,1-3.181,1.31.616.616,0,0,0-.437.437l-.374,1.622a.676.676,0,0,1-.686.5H72.4l.249.936a.676.676,0,0,0,.686.5h2.245a.73.73,0,0,0,.686-.5l.5-2a11.107,11.107,0,0,0,3.867-1.622l1.746,1.06a.591.591,0,0,0,.811-.125l1.435-1.372a.662.662,0,0,0,.125-.811l-1.06-1.746a11.509,11.509,0,0,0,1.622-3.8l2-.5a.631.631,0,0,0,.5-.686V63.736a.741.741,0,0,0-.561-.686Z" transform="translate(-72.4 -62.8)" fill="#f7e839"/>
        </g>
      </g>
      <g id="Grupo_1111962" data-name="Grupo 1111962" transform="translate(7.485 7.36)">
        <path id="Trazado_897495" data-name="Trazado 897495" d="M71.888,68.376a5.988,5.988,0,1,1,5.988-5.988A5.989,5.989,0,0,1,71.888,68.376Z" transform="translate(-65.9 -56.4)" fill="#00d67f"/>
      </g>
      <g id="Grupo_1111963" data-name="Grupo 1111963" transform="translate(8.358 8.233)">
        <path id="Trazado_897496" data-name="Trazado 897496" d="M78.4,62.915A5.989,5.989,0,0,1,72.415,68.9,5.919,5.919,0,0,1,67.3,66.033a5.863,5.863,0,0,0,3.119.873A5.992,5.992,0,0,0,75.533,57.8,6.057,6.057,0,0,1,78.4,62.915Z" transform="translate(-67.3 -57.8)" fill="#00c179"/>
      </g>
    </g>
    <g id="Grupo_1111965" data-name="Grupo 1111965" transform="translate(11.668 19.253)">
      <path id="Trazado_897497" data-name="Trazado 897497" d="M24.361,30.411l-1.435,1.871a.567.567,0,0,0,0,.624l1.435,1.871a.512.512,0,0,1-.374.811H17.5V29.6h6.424A.517.517,0,0,1,24.361,30.411Z" transform="translate(-17.5 -29.6)" fill="#fc6559"/>
    </g>
    <g id="Grupo_1111966" data-name="Grupo 1111966" transform="translate(9.235 37.778)">
      <path id="Trazado_897498" data-name="Trazado 897498" d="M18.59,61.857A2.47,2.47,0,0,1,14.348,63.6a2.537,2.537,0,0,1-.748-1.809A2.558,2.558,0,0,1,16.095,59.3a2.778,2.778,0,0,1,1.809.748,3.074,3.074,0,0,1,.686,1.809Z" transform="translate(-13.6 -59.3)" fill="#a2a2f9"/>
    </g>
    <g id="Grupo_1111967" data-name="Grupo 1111967" transform="translate(9.547 38.027)">
      <path id="Trazado_897499" data-name="Trazado 897499" d="M18.778,62.008a2.47,2.47,0,0,1-4.241,1.746,1.426,1.426,0,0,1-.437-.624,2.485,2.485,0,0,0,3.431-2.308,2.979,2.979,0,0,0-.249-1.123,1.9,1.9,0,0,1,.811.561A2.749,2.749,0,0,1,18.778,62.008Z" transform="translate(-14.1 -59.7)" fill="#7979f7"/>
    </g>
    <g id="Grupo_1111970" data-name="Grupo 1111970" transform="translate(28.821 28.671)">
      <g id="Grupo_1111968" data-name="Grupo 1111968">
        <path id="Trazado_897500" data-name="Trazado 897500" d="M49.99,47.257A2.47,2.47,0,0,1,45.748,49,2.537,2.537,0,0,1,45,47.195,2.558,2.558,0,0,1,47.495,44.7a2.778,2.778,0,0,1,1.809.748A3.074,3.074,0,0,1,49.99,47.257Z" transform="translate(-45 -44.7)" fill="#00d67f"/>
      </g>
      <g id="Grupo_1111969" data-name="Grupo 1111969" transform="translate(0.312 0.249)">
        <path id="Trazado_897501" data-name="Trazado 897501" d="M50.178,47.408a2.47,2.47,0,0,1-4.241,1.746,1.426,1.426,0,0,1-.437-.624,2.485,2.485,0,0,0,3.431-2.308,2.979,2.979,0,0,0-.249-1.123,1.9,1.9,0,0,1,.811.561,2.749,2.749,0,0,1,.686,1.746Z" transform="translate(-45.5 -45.1)" fill="#00c179"/>
      </g>
    </g>
    <g id="Grupo_1111971" data-name="Grupo 1111971" transform="translate(2 2.1)">
      <path id="Trazado_897502" data-name="Trazado 897502" d="M60.881,39.587l-1.622-.437a11.936,11.936,0,0,0-1.372-3.306l.873-1.435a1.227,1.227,0,0,0-.187-1.559l-1.559-1.559a1.236,1.236,0,0,0-1.559-.187l-1.435.873A11.621,11.621,0,0,0,50.714,30.6l-.374-1.622a1.33,1.33,0,0,0-1.247-1h-.5V6.154A4.046,4.046,0,0,0,44.539,2.1H6.054A4.046,4.046,0,0,0,2,6.154V51a4.154,4.154,0,0,0,1.31,2.994l7.422,6.861a3.986,3.986,0,0,0,2.682,1H44.352A4.046,4.046,0,0,0,48.406,57.8V55.991h.5a1.275,1.275,0,0,0,1.247-1l.374-1.622A13.19,13.19,0,0,0,53.895,52l1.435.873a1.227,1.227,0,0,0,1.559-.187l1.559-1.559a1.314,1.314,0,0,0,.187-1.622l-.873-1.435a11.621,11.621,0,0,0,1.372-3.306l1.622-.437a1.275,1.275,0,0,0,1-1.247V40.834a1.056,1.056,0,0,0-.873-1.247ZM11.606,59.92l-7.422-6.8a3.57,3.57,0,0,1-.873-1.559h8.483A1.411,1.411,0,0,1,13.227,53v7.61A2.936,2.936,0,0,1,11.606,59.92ZM47.221,57.8a2.8,2.8,0,0,1-2.807,2.807H14.475V53.059a2.662,2.662,0,0,0-2.682-2.682H3.247V6.154A2.8,2.8,0,0,1,6.054,3.347h38.36a2.8,2.8,0,0,1,2.807,2.807V27.923h-.5a1.275,1.275,0,0,0-1.247,1l-.437,1.622a13.19,13.19,0,0,0-3.368,1.372l-1.435-.873a1.333,1.333,0,0,0-1.622.187l-1.559,1.559a1.4,1.4,0,0,0-.125,1.622l.873,1.435A11.621,11.621,0,0,0,36.43,39.15l-1.622.437a1.275,1.275,0,0,0-1,1.247V43.08a1.215,1.215,0,0,0,1,1.247l1.622.437A11.936,11.936,0,0,0,37.8,48.069L36.929,49.5a1.227,1.227,0,0,0,.187,1.559l1.559,1.559a1.314,1.314,0,0,0,1.622.187l1.435-.873A11.274,11.274,0,0,0,45.1,53.309l.374,1.622a1.33,1.33,0,0,0,1.247,1h.5Zm13.41-14.72-2.058.561a.529.529,0,0,0-.437.5,10.136,10.136,0,0,1-1.5,3.618.673.673,0,0,0,0,.686L57.7,50.19v.062L56.14,51.812h-.062l-1.746-1.06a.673.673,0,0,0-.686,0,9.693,9.693,0,0,1-3.618,1.5.713.713,0,0,0-.5.437l-.5,2a.061.061,0,0,1-.062.062H46.722l-.062-.062-.5-2a.529.529,0,0,0-.5-.437,9.693,9.693,0,0,1-3.618-1.5,1.054,1.054,0,0,0-.312-.125.467.467,0,0,0-.312.062l-1.746,1.06h-.062L38.052,50.19v-.062l1.06-1.746a.676.676,0,0,0,0-.686,9.693,9.693,0,0,1-1.5-3.618.713.713,0,0,0-.437-.5l-2.121-.437L35,43.08V40.834l.062-.062,2-.5a.529.529,0,0,0,.437-.5,10.846,10.846,0,0,1,1.5-3.618.673.673,0,0,0,0-.686l-1.06-1.746v-.062L39.487,32.1h.062l1.746,1.06a.676.676,0,0,0,.686,0,9.693,9.693,0,0,1,3.618-1.5.713.713,0,0,0,.5-.437l.5-2,.062-.062h2.245a.061.061,0,0,1,.062.062l.5,2a.529.529,0,0,0,.5.437,9.693,9.693,0,0,1,3.618,1.5.673.673,0,0,0,.686,0l1.746-1.06h.062l1.559,1.559v.062l-1.06,1.746a.676.676,0,0,0,0,.686,9.693,9.693,0,0,1,1.5,3.618.713.713,0,0,0,.437.5l2,.5.062.062c.062,0,.062,2.245.062,2.245Z" transform="translate(-2 -2.1)" fill="#1b1b1b"/>
      <path id="Trazado_897503" data-name="Trazado 897503" d="M71.512,55.4a6.612,6.612,0,1,0,6.612,6.612A6.655,6.655,0,0,0,71.512,55.4Zm0,11.976a5.364,5.364,0,1,1,5.364-5.364A5.364,5.364,0,0,1,71.512,67.376Z" transform="translate(-25.667 -22.155)" fill="#1b1b1b"/>
      <path id="Trazado_897504" data-name="Trazado 897504" d="M75.359,63.491l-2,1.684-.624-.686a.619.619,0,0,0-.936.811l1,1.185a.606.606,0,0,0,.873.062l2.495-2.121a.606.606,0,0,0,.062-.873A.558.558,0,0,0,75.359,63.491Z" transform="translate(-28.205 -25.132)" fill="#1b1b1b"/>
      <path id="Trazado_897505" data-name="Trazado 897505" d="M24.646,28.622a1.111,1.111,0,0,0-1-.624h-5.8v-.374a.624.624,0,0,0-1.247,0V40.161a.624.624,0,1,0,1.247,0V35.233h5.8a1.111,1.111,0,0,0,1-.624,1.171,1.171,0,0,0-.125-1.185l-1.372-1.809,1.372-1.809A1.156,1.156,0,0,0,24.646,28.622ZM22.089,30.93a1.122,1.122,0,0,0,0,1.372l1.247,1.684H17.785v-4.74h5.551Z" transform="translate(-7.493 -11.469)" fill="#1b1b1b"/>
      <path id="Trazado_897506" data-name="Trazado 897506" d="M35.3,43.8a3.119,3.119,0,0,0-2.932,2.058H20.584a.624.624,0,1,0,0,1.247H32.123a3.182,3.182,0,0,0,2.62,2.932v4.616a.559.559,0,0,1-.561.561H18.713a3.119,3.119,0,1,0-3.618,3.93V61.7A1.81,1.81,0,0,0,16.9,63.51H29.379a.624.624,0,0,0,0-1.247H16.9a.559.559,0,0,1-.561-.561V59.144A3.115,3.115,0,0,0,18.837,56.4H34.244a1.81,1.81,0,0,0,1.809-1.809V49.975a3.147,3.147,0,0,0,2.433-3.056A3.224,3.224,0,0,0,35.3,43.8ZM15.656,57.959a1.871,1.871,0,1,1,1.871-1.871A1.838,1.838,0,0,1,15.656,57.959ZM35.3,48.852a1.871,1.871,0,1,1,1.871-1.871A1.919,1.919,0,0,1,35.3,48.852Z" transform="translate(-5.988 -17.79)" fill="#1b1b1b"/>
      <path id="Trazado_897507" data-name="Trazado 897507" d="M18.434,18.021H42.946a1.943,1.943,0,0,0,1.934-1.934V12.034A1.943,1.943,0,0,0,42.946,10.1H18.434A1.943,1.943,0,0,0,16.5,12.034v4.054a1.943,1.943,0,0,0,1.934,1.934Zm-.686-6.05a.692.692,0,0,1,.686-.686H42.946a.692.692,0,0,1,.686.686v4.054a.692.692,0,0,1-.686.686H18.434a.692.692,0,0,1-.686-.686Z" transform="translate(-7.456 -5.11)" fill="#1b1b1b"/>
    </g>
    <g id="Grupo_1111972" data-name="Grupo 1111972" transform="translate(18.903 9.273)">
      <path id="Trazado_897508" data-name="Trazado 897508" d="M34.09,14.847H29.724a.624.624,0,1,1,0-1.247H34.09a.589.589,0,0,1,.624.624A.625.625,0,0,1,34.09,14.847Z" transform="translate(-29.1 -13.6)" fill="#fff"/>
    </g>
    <g id="Grupo_1111973" data-name="Grupo 1111973" transform="translate(16.096 9.273)">
      <path id="Trazado_897509" data-name="Trazado 897509" d="M25.6,14.847h-.374a.624.624,0,0,1,0-1.247H25.6a.589.589,0,0,1,.624.624A.625.625,0,0,1,25.6,14.847Z" transform="translate(-24.6 -13.6)" fill="#fff"/>
    </g>
  </g>
</svg>
