<svg xmlns="http://www.w3.org/2000/svg" width="47" height="47" viewBox="0 0 47 47">
  <g id="Grupo_1112477" data-name="Grupo 1112477" transform="translate(-201.051 -14333)">
    <rect id="Rectángulo_400898" data-name="Rectángulo 400898" width="47" height="47" rx="23.5" transform="translate(201.051 14333)" fill="#769671"/>
    <g id="Grupo_1111983" data-name="Grupo 1111983" transform="translate(207.007 14323.164)">
      <g id="Grupo_1111982" data-name="Grupo 1111982" transform="translate(0.669 17.171)">
        <path id="Trazado_897510" data-name="Trazado 897510" d="M117.973,340.756a.645.645,0,0,0-.606-.674h-2.531a.645.645,0,0,0-.606.674V346.1h3.742v-5.341Z" transform="translate(-107.272 -319.144)" fill="#fff3da" fill-rule="evenodd"/>
        <path id="Trazado_897511" data-name="Trazado 897511" d="M64.728,254.846l-5.973-5.981-5.975,5.981v6.125h4.1V255.63a.645.645,0,0,1,.606-.674h2.53a.645.645,0,0,1,.606.674v5.341h4.1v-6.125Z" transform="translate(-49.923 -234.018)" fill="#ffda8f" fill-rule="evenodd"/>
        <path id="Trazado_897512" data-name="Trazado 897512" d="M63.7,192.828h-3.18v5.081l3.18-3.183Z" transform="translate(-57.145 -181.722)" fill="#ffda8f" fill-rule="evenodd"/>
        <path id="Trazado_897513" data-name="Trazado 897513" d="M18.837,187.125l-2.061,2.061-.218.218-3.18,3.183-2.926,2.929a1.419,1.419,0,0,0-.447.987v.04a1.473,1.473,0,0,0,2.506,1.034l.35-.349,5.975-5.981,5.973,5.981.35.349a1.457,1.457,0,0,0,2.059-2.061l-2.544-2.546-3.78-3.783Z" transform="translate(-10.006 -176.4)" fill="#ffa96b" fill-rule="evenodd"/>
        <path id="Trazado_897514" data-name="Trazado 897514" d="M331.084,286.12l-1.45-1.336-1.452,1.336v5.634h2.9Z" transform="translate(-306.938 -267.538)" fill="#ffa96b" fill-rule="evenodd"/>
        <path id="Trazado_897515" data-name="Trazado 897515" d="M374.537,286.12l-1.45-1.336-1.452,1.336v5.634h2.9Z" transform="translate(-347.489 -267.538)" fill="#ffa96b" fill-rule="evenodd"/>
        <path id="Trazado_897516" data-name="Trazado 897516" d="M417.99,291.754V286.12l-1.452-1.336-1.45,1.336v5.634Z" transform="translate(-388.041 -267.538)" fill="#ffa96b" fill-rule="evenodd"/>
        <path id="Trazado_897517" data-name="Trazado 897517" d="M461.444,286.12l-1.452-1.336-1.45,1.336v5.634h2.9Z" transform="translate(-428.593 -267.538)" fill="#ffa96b" fill-rule="evenodd"/>
        <path id="Trazado_897518" data-name="Trazado 897518" d="M243.959,167.343c-1.066.279-2.133.606-3.2.976a52.328,52.328,0,0,0-11.048,5.428l2.544,2.546a1.457,1.457,0,0,1-2.059,2.061l-.35-.349v3.387h6.441v-5.634l1.452-1.336,1.45,1.336,1.452-1.336,1.45,1.336,1.45-1.336,1.452,1.336,1.45-1.336,1.452,1.336v-9.232a36.871,36.871,0,0,0-3.933.817Z" transform="translate(-215.041 -157.177)" fill="#a0e5a5" fill-rule="evenodd"/>
        <path id="Trazado_897519" data-name="Trazado 897519" d="M34.153,389.167H24.811V391.9H12.862v-2.738H10.006V395.6H42.857v-6.432h-8.7Z" transform="translate(-10.006 -364.951)" fill="#ffd4b5" fill-rule="evenodd"/>
        <path id="Trazado_897520" data-name="Trazado 897520" d="M12.862,328.853l-.35.349a1.473,1.473,0,0,1-2.506-1.034v4.073h2.856Z" transform="translate(-10.006 -308.025)" fill="#d0f2d2" fill-rule="evenodd"/>
        <path id="Trazado_897521" data-name="Trazado 897521" d="M13.381,130.594v-5.081h3.18v1.9l.218-.218,2.061-2.061,2.059,2.061,3.78,3.783a52.329,52.329,0,0,1,11.048-5.428,37.52,37.52,0,0,1-7.484-1.686c-5.487-1.811-9.049-4.011-18.234-2.836V134.51a1.419,1.419,0,0,1,.447-.987Z" transform="translate(-10.008 -114.408)" fill="#d0f2d2" fill-rule="evenodd"/>
        <path id="Trazado_897522" data-name="Trazado 897522" d="M396.7,28.872a2.252,2.252,0,1,0-4.5,0,1.862,1.862,0,0,0,.63,3.613h3.238a1.862,1.862,0,0,0,.63-3.613Z" transform="translate(-365.53 -26.508)" fill="#a0e5a5" fill-rule="evenodd"/>
      </g>
      <path id="Trazado_897523" data-name="Trazado 897523" d="M33.956,26.014a.666.666,0,0,0-.535-.154c-1.039.156-2.1.365-3.166.623V23.816h.951a2.529,2.529,0,0,0,1.284-4.708,2.92,2.92,0,0,0-5.806,0,2.529,2.529,0,0,0,1.284,4.708h.952v3.012q-1.288.356-2.591.8a36.382,36.382,0,0,1-6.758-1.491l-1.335-.447c-.587-.2-1.158-.411-1.726-.617-.784-.284-1.524-.553-2.294-.81a.668.668,0,0,0-.422,1.267c.753.251,1.485.517,2.26.8.822.3,1.678.609,2.6.912a.657.657,0,0,0,.081.027,39.127,39.127,0,0,0,5.055,1.316,53.874,53.874,0,0,0-8.353,4.3L9.972,27.424a.668.668,0,0,0-.472-.2h0a.668.668,0,0,0-.472.2L7.889,28.562v-.286a.668.668,0,0,0-.668-.668H4.041a.668.668,0,0,0-.668.668v4.8L1.336,35.121V24.382a31.5,31.5,0,0,1,6.736-.128.668.668,0,0,0,.133-1.329,33.663,33.663,0,0,0-7.621.2A.668.668,0,0,0,0,23.79V37.263c0,.015,0,.03,0,.045v10.51a.668.668,0,0,0,.668.668H33.52a.668.668,0,0,0,.668-.668V26.52a.668.668,0,0,0-.232-.506Zm-7.182-4.729a1.2,1.2,0,0,1,.788-1.122A.668.668,0,0,0,28,19.5a1.585,1.585,0,1,1,3.165,0,.668.668,0,0,0,.441.661,1.194,1.194,0,0,1-.4,2.317H27.967A1.2,1.2,0,0,1,26.774,21.286Zm1.611,19.433V36.045l.782-.721.784.721v4.674Zm-2.9,0V36.045l.784-.721.782.721v4.674Zm-2.9,0V36.045l.784-.721.782.721v4.674Zm8.7-4.674.782-.721.784.721v4.674H31.287V36.045Zm1.566-8.74v6.926l-.332-.305a.668.668,0,0,0-.9,0l-1,.919-1-.919a.668.668,0,0,0-.9,0l-1,.919-1-.919a.668.668,0,0,0-.9,0l-1,.919-1-.919a.668.668,0,0,0-.9,0l-1.452,1.336a.668.668,0,0,0-.216.491v4.967H16.141V39.337a1.965,1.965,0,0,0,1.21.057,2.266,2.266,0,0,0,1.577-1.576,2.038,2.038,0,0,0-.573-2L16.4,33.859A47.422,47.422,0,0,1,32.853,27.3ZM8.3,43.457V38.784s0,0,0-.007H10.7s0,0,0,.007v4.673Zm2.469-6.015H8.234A1.311,1.311,0,0,0,6.96,38.784v4.673H4.192V38.274L9.5,32.963l5.306,5.311v5.183H12.038V38.784a1.311,1.311,0,0,0-1.273-1.342ZM1.336,39.284a2.143,2.143,0,0,0,.311.111,2.012,2.012,0,0,0,.52.069,1.959,1.959,0,0,0,.69-.126v1.381H1.336ZM4.709,28.944H6.553V29.9L4.709,31.745ZM1.588,36.759l6.323-6.329L9.5,28.84l5.361,5.366,0,0,2.547,2.55a.709.709,0,0,1,.228.713.934.934,0,0,1-.632.632.707.707,0,0,1-.71-.228l-6.324-6.33a.667.667,0,0,0-.472-.2h0a.668.668,0,0,0-.472.2L2.7,37.876a.706.706,0,0,1-.71.228.934.934,0,0,1-.632-.632.678.678,0,0,1-.024-.179v-.015a.762.762,0,0,1,.251-.52ZM32.853,47.151H1.336v-5.1H2.857v2.07a.668.668,0,0,0,.668.668H15.473a.668.668,0,0,0,.668-.668v-2.07H32.853Z"/>
      <path id="Trazado_897524" data-name="Trazado 897524" d="M271.608,427.346h-2.786a.668.668,0,0,0,0,1.335h2.786a.668.668,0,0,0,0-1.335Z" transform="translate(-250.248 -383.41)"/>
      <path id="Trazado_897525" data-name="Trazado 897525" d="M381.789,420.139H379a.668.668,0,1,0,0,1.335h2.788a.668.668,0,1,0,0-1.335Z" transform="translate(-353.07 -376.684)"/>
      <path id="Trazado_897526" data-name="Trazado 897526" d="M157.009,121.215l0,0a.665.665,0,0,0,.894-.3.669.669,0,1,0-.9.3Z" transform="translate(-146.18 -96.539)"/>
    </g>
  </g>
</svg>
