<svg xmlns="http://www.w3.org/2000/svg" width="47" height="47" viewBox="0 0 47 47">
  <g id="Grupo_1112479" data-name="Grupo 1112479" transform="translate(-201.051 -14457)">
    <rect id="Rectángulo_400898" data-name="Rectángulo 400898" width="47" height="47" rx="23.5" transform="translate(201.051 14457)" fill="#769671"/>
    <g id="Grupo_1111998" data-name="Grupo 1111998" transform="translate(178.65 14458.317)">
      <g id="Grupo_1111988" data-name="Grupo 1111988" transform="translate(30.912 9.362)">
        <path id="Trazado_897550" data-name="Trazado 897550" d="M107.182,117.913a3.373,3.373,0,1,1-6.28-2l1.768-3.062a14.918,14.918,0,0,0-5.082-2.316,3.623,3.623,0,1,1-7.124,0,14.986,14.986,0,1,0,16.718,7.375Z" transform="translate(-79.038 -110.538)" fill="#8ac9fe"/>
        <path id="Trazado_897551" data-name="Trazado 897551" d="M161.42,123.817l.289-.5a11.267,11.267,0,0,0-3.541-4.146,3.625,3.625,0,0,1-7.248,0c-3.386,2.264-5.764,7.6-5.764,13.83,0,8.278,4.2,14.988,9.388,14.988s9.388-6.711,9.388-14.988a23.417,23.417,0,0,0-.378-4.218A3.373,3.373,0,0,1,161.42,123.817Z" transform="translate(-139.556 -118.439)" fill="#b3dafe"/>
        <path id="Trazado_897552" data-name="Trazado 897552" d="M217.732,151.668a3.568,3.568,0,0,1-2.366-.878,46.512,46.512,0,0,0-1.175,11.152c0,8.278,1.585,14.988,3.541,14.988s3.541-6.711,3.541-14.988A46.512,46.512,0,0,0,220.1,150.79,3.568,3.568,0,0,1,217.732,151.668Z" transform="translate(-202.744 -147.381)" fill="#8ac9fe"/>
      </g>
      <g id="Grupo_1111991" data-name="Grupo 1111991" transform="translate(36.671 15.88)">
        <path id="Trazado_897553" data-name="Trazado 897553" d="M153.443,246.2c0-.331.017-.659.048-.982a9.39,9.39,0,0,0-6.441-1.967,9.407,9.407,0,0,0,9.283,10.061,10.162,10.162,0,0,1-2.89-7.111Z" transform="translate(-147.027 -238.511)" fill="#97d729"/>
        <path id="Trazado_897554" data-name="Trazado 897554" d="M272.9,268.353a7.959,7.959,0,0,0-5.029,1.355,10.171,10.171,0,0,1-3.47,7.146,7.966,7.966,0,0,0,8.5-8.5Z" transform="translate(-254.463 -261.487)" fill="#8bc727"/>
        <g id="Grupo_1111989" data-name="Grupo 1111989" transform="translate(6.416 0)">
          <ellipse id="Elipse_12121" data-name="Elipse 12121" cx="3.505" cy="7.693" rx="3.505" ry="7.693" fill="#97d729"/>
        </g>
        <g id="Grupo_1111990" data-name="Grupo 1111990" transform="translate(6.415)">
          <path id="Trazado_897555" data-name="Trazado 897555" d="M225.417,195.183a10.152,10.152,0,0,1,2.182-6.3,10.257,10.257,0,0,0-1.322-1.39,10.2,10.2,0,0,0,0,15.387,10.263,10.263,0,0,0,1.322-1.39,10.152,10.152,0,0,1-2.182-6.3Z" transform="translate(-222.772 -187.49)" fill="#8bc727"/>
        </g>
      </g>
      <g id="Grupo_1111992" data-name="Grupo 1111992" transform="translate(42.276 3.074)">
        <path id="Trazado_897556" data-name="Trazado 897556" d="M216.582,36.435l-2.889,5a3.62,3.62,0,1,0,6.269,0l-2.889-5A.283.283,0,0,0,216.582,36.435Z" transform="translate(-213.202 -36.293)" fill="#0593fc"/>
      </g>
      <g id="Grupo_1111993" data-name="Grupo 1111993" transform="translate(42.276 3.074)">
        <path id="Trazado_897557" data-name="Trazado 897557" d="M216.335,41.439l1.813-3.141-1.076-1.864a.283.283,0,0,0-.49,0l-2.889,5a3.624,3.624,0,0,0,4.456,5.183A3.624,3.624,0,0,1,216.335,41.439Z" transform="translate(-213.202 -36.293)" fill="#0182fc"/>
      </g>
      <g id="Grupo_1111994" data-name="Grupo 1111994" transform="translate(52.32 9.947)">
        <path id="Trazado_897558" data-name="Trazado 897558" d="M334.938,117.569l-2.691,4.662a3.371,3.371,0,1,0,5.839,0l-2.691-4.662A.264.264,0,0,0,334.938,117.569Z" transform="translate(-331.79 -117.437)" fill="#0593fc"/>
      </g>
      <g id="Grupo_1111995" data-name="Grupo 1111995" transform="translate(52.32 9.947)">
        <path id="Trazado_897559" data-name="Trazado 897559" d="M334.89,122.23l1.6-2.768-1.093-1.894a.264.264,0,0,0-.457,0l-2.691,4.662a3.377,3.377,0,0,0,4.241,4.792A3.376,3.376,0,0,1,334.89,122.23Z" transform="translate(-331.79 -117.437)" fill="#0182fc"/>
      </g>
      <g id="Grupo_1111996" data-name="Grupo 1111996" transform="translate(50.803 0.635)">
        <path id="Trazado_897560" data-name="Trazado 897560" d="M316.306,7.6l-2.074,3.592a2.6,2.6,0,1,0,4.5,0L316.658,7.6A.2.2,0,0,0,316.306,7.6Z" transform="translate(-313.88 -7.5)" fill="#0593fc"/>
      </g>
      <g id="Grupo_1111997" data-name="Grupo 1111997" transform="translate(50.803 0.635)">
        <path id="Trazado_897561" data-name="Trazado 897561" d="M316.274,11.194,317.5,9.066,316.657,7.6a.2.2,0,0,0-.352,0l-2.074,3.592a2.6,2.6,0,0,0,3.272,3.692A2.6,2.6,0,0,1,316.274,11.194Z" transform="translate(-313.879 -7.5)" fill="#0182fc"/>
      </g>
      <path id="Trazado_897562" data-name="Trazado 897562" d="M59.648,10.176a19.58,19.58,0,0,0-3.526-2.8c.028-.044.057-.088.083-.133a3.2,3.2,0,0,0,0-3.233L54.131.419a.838.838,0,0,0-1.452,0L50.6,4.012a3.269,3.269,0,0,0-.368.956,19.48,19.48,0,0,0-2.581-.406L46.7,2.9a.918.918,0,0,0-1.591,0l-.96,1.663a19.442,19.442,0,0,0-11.992,33.11A19.441,19.441,0,0,0,57.672,39.4a.635.635,0,0,0-.77-1.011,18.171,18.171,0,0,1-23.85-27.312,18.034,18.034,0,0,1,10.3-5.146L42.216,7.9a4.331,4.331,0,0,0-.4.937A15.652,15.652,0,0,0,31.35,18.224a.635.635,0,1,0,1.183.464A14.412,14.412,0,0,1,33.2,17.23h3.632a22.224,22.224,0,0,0-.791,3.86h0c0,.009,0,.018,0,.027-.082.712-.133,1.438-.152,2.172H31.562a14.468,14.468,0,0,1,.2-1.861.635.635,0,0,0-1.251-.219A15.624,15.624,0,1,0,59.7,16.6a3.949,3.949,0,0,0-.006-.469.635.635,0,1,0-1.267.094,2.763,2.763,0,0,1-.736,2.075,2.737,2.737,0,0,1-4.366-3.241l2.37-4.1,1.624,2.813a.635.635,0,1,0,1.1-.635l-1.946-3.37a.9.9,0,0,0-1.557,0l-.583,1.01a15.44,15.44,0,0,0-4.348-1.934,4.331,4.331,0,0,0-.4-.935L48.446,5.929a18.144,18.144,0,0,1,1.787.342,3.269,3.269,0,0,0,.372.974,3.243,3.243,0,0,0,4.609,1.069,18.275,18.275,0,0,1,3.536,2.761,18.171,18.171,0,0,1,.291,25.4.635.635,0,1,0,.919.878,19.441,19.441,0,0,0-.312-27.175ZM46.206,3.533h0Zm3.38,8.624a4.333,4.333,0,0,0,.395-.916A10.794,10.794,0,0,1,52,13.663q.174.277.336.568l-.111.192a4.025,4.025,0,0,0-.514,1.537H49.544c-.146-1-.32-1.929-.521-2.78-.016-.069-.033-.137-.049-.2A4.327,4.327,0,0,0,49.585,12.157Zm2.5,13.611a.635.635,0,0,0-.9,0l-.917.917a10.821,10.821,0,0,0,.42-2.219,7.326,7.326,0,0,1,3.8-1.1A7.324,7.324,0,0,1,48.2,30.555l3.888-3.888A.635.635,0,0,0,52.09,25.769Zm8.15-1.21a14.251,14.251,0,0,1-1.645,6.059H54.969a23.029,23.029,0,0,0,.946-6.059Zm-28.677,0h4.324a23.029,23.029,0,0,0,.946,6.059H33.207A14.251,14.251,0,0,1,31.562,24.559Zm5.682,1.494a10.022,10.022,0,0,0,4.832,4.435c0,.044.011.087.016.131H38.164a20.94,20.94,0,0,1-.92-4.566Zm5.229-3.162c-.014.227-.022.454-.022.683a10.83,10.83,0,0,0,.21,2.12l-1.1-1.1a.635.635,0,1,0-.9.9L43.6,28.432A10.852,10.852,0,0,0,44.5,29.9a8.766,8.766,0,0,1-7.189-8.667,8.78,8.78,0,0,1,5.167,1.654Zm-4.986-2.923a20.081,20.081,0,0,1,.675-2.738h3.929c-.139,1.193-.24,2.461-.3,3.774a10.043,10.043,0,0,0-4.3-1.036Zm9.739,9.748V21.724a.635.635,0,0,0-1.27,0v7.991a9.559,9.559,0,0,1,.635-12.971,9.559,9.559,0,0,1,.635,12.971Zm-4.1-9.918c.06-.887.14-1.747.238-2.568h1.135A10.836,10.836,0,0,0,43.132,19.8Zm10.507,10.82H51.683a8.569,8.569,0,0,0,2.58-2.461,20.032,20.032,0,0,1-.625,2.461ZM47.864,13.81c.149.67.281,1.389.4,2.149H47.6q-.285-.289-.594-.558a.635.635,0,0,0-.834,0q-.309.269-.594.558H43.542c.115-.76.247-1.479.4-2.149a4.3,4.3,0,0,0,3.926,0Zm-5.085-.631c-.2.85-.375,1.783-.521,2.78H38.629a15.292,15.292,0,0,1,1.172-2.3,10.8,10.8,0,0,1,2.02-2.421,4.3,4.3,0,0,0,1.007,1.733c-.017.068-.033.136-.049.2Zm-8.821,2.78A14.4,14.4,0,0,1,40.7,10.543a12.4,12.4,0,0,0-1.975,2.446,16.828,16.828,0,0,0-1.46,2.971Zm.008,15.929h3.3a16.828,16.828,0,0,0,1.46,2.971A12.4,12.4,0,0,0,40.692,37.3a14.436,14.436,0,0,1-6.726-5.41Zm5.835,2.3a15.279,15.279,0,0,1-1.172-2.3h3.63c.146,1,.319,1.93.52,2.78a13.93,13.93,0,0,0,1.108,3.221A8.813,8.813,0,0,1,39.8,34.185Zm6.1,4.092c-.388,0-1.21-1.039-1.886-3.9-.18-.763-.338-1.6-.472-2.488h4.716c-.135.889-.292,1.724-.472,2.488C47.11,37.238,46.288,38.277,45.9,38.277Zm2.014-.387a13.93,13.93,0,0,0,1.108-3.221c.2-.85.374-1.784.52-2.78h3.629a15.259,15.259,0,0,1-1.17,2.3A8.814,8.814,0,0,1,47.915,37.89Zm3.2-.591a12.4,12.4,0,0,0,1.968-2.439,16.827,16.827,0,0,0,1.46-2.971h3.3A14.436,14.436,0,0,1,51.11,37.3ZM55.7,20.433a3.95,3.95,0,0,0,2.927-1.269,4.058,4.058,0,0,0,.539-.731,14.356,14.356,0,0,1,1.077,4.857H55.915a24.314,24.314,0,0,0-.24-2.857ZM54.354,20.2q.152.926.227,1.889A8.609,8.609,0,0,0,50.716,23a10.822,10.822,0,0,0-.8-3.54c-.056-.765-.125-1.511-.208-2.229h2.057a4.054,4.054,0,0,0,.459,1.2A3.968,3.968,0,0,0,54.354,20.2Zm-1.289-7.235A12.38,12.38,0,0,0,51.1,10.538a14.241,14.241,0,0,1,2.6,1.334Zm-4.58-1.447a2.984,2.984,0,0,1-5.169-2.984L45.9,4.061l2.584,4.476A2.954,2.954,0,0,1,48.485,11.522ZM53.779,1.054h0ZM51.705,6.61a1.943,1.943,0,0,1,0-1.963l1.7-2.944,1.7,2.944a1.963,1.963,0,1,1-3.4,1.963Z"/>
    </g>
  </g>
</svg>
