<svg xmlns="http://www.w3.org/2000/svg" width="47" height="47" viewBox="0 0 47 47">
  <g id="Grupo_1112480" data-name="Grupo 1112480" transform="translate(-201.051 -14518)">
    <rect id="Rectángulo_400898" data-name="Rectángulo 400898" width="47" height="47" rx="23.5" transform="translate(201.051 14518)" fill="#769671"/>
    <g id="Grupo_1112008" data-name="Grupo 1112008" transform="translate(144.244 14524.333)">
      <path id="Trazado_897563" data-name="Trazado 897563" d="M97.6,383.93H74.535a.677.677,0,0,1-.646-.879l2.136-6.835a1.354,1.354,0,0,1,1.292-.95h17.5a1.354,1.354,0,0,1,1.292.95l2.136,6.835A.677.677,0,0,1,97.6,383.93Z" transform="translate(-7.006 -350.11)" fill="#bbec6c"/>
      <path id="Trazado_897564" data-name="Trazado 897564" d="M163.653,380.1c.965-1,2.565-2.734,4.224-4.834H154.361c1.658,2.1,3.259,3.833,4.224,4.834a3.519,3.519,0,0,0,5.068,0Z" transform="translate(-82.112 -350.111)" fill="#a2e62e"/>
      <path id="Trazado_897565" data-name="Trazado 897565" d="M359.828,383.052l-2.136-6.835a1.354,1.354,0,0,0-1.292-.95h-2.166a1.354,1.354,0,0,1,1.292.95l2.136,6.835a.677.677,0,0,1-.646.879h2.166A.677.677,0,0,0,359.828,383.052Z" transform="translate(-268.587 -350.11)" fill="#a2e62e"/>
      <path id="Trazado_897566" data-name="Trazado 897566" d="M102.449,7.5a10.973,10.973,0,0,1,10.973,10.973c0,6.078-7.313,14.224-10,17.012a1.353,1.353,0,0,1-1.949,0c-2.686-2.787-10-10.934-10-17.012A10.973,10.973,0,0,1,102.449,7.5Z" transform="translate(-23.443 -6.997)" fill="#fd8087"/>
      <path id="Trazado_897567" data-name="Trazado 897567" d="M192.165,7.5a10.973,10.973,0,0,1,6.217,14.219c-1.516,3.872-6.574,7.4-10.743,9.756,1.395,1.715,2.7,3.129,3.552,4.009a1.353,1.353,0,0,0,1.949,0c2.686-2.787,10-10.934,10-17.012A10.973,10.973,0,0,0,192.165,7.5Z" transform="translate(-113.159 -6.997)" fill="#fe646f"/>
      <circle id="Elipse_12122" data-name="Elipse 12122" cx="7.445" cy="7.445" r="7.445" transform="translate(71.561 4.031)" fill="#dff6fd"/>
      <g id="Grupo_1112006" data-name="Grupo 1112006" transform="translate(72.559 6.197)">
        <g id="Grupo_1112000" data-name="Grupo 1112000" transform="translate(3.199)">
          <g id="Grupo_1111999" data-name="Grupo 1111999" transform="translate(1.421)">
            <circle id="Elipse_12123" data-name="Elipse 12123" cx="1.827" cy="1.827" r="1.827" fill="#fed2a4"/>
            <path id="Trazado_897568" data-name="Trazado 897568" d="M231.919,94.107a1.829,1.829,0,0,1-2.346,2.346,1.828,1.828,0,1,0,2.346-2.346Z" transform="translate(-229.461 -93.995)" fill="#ffbd86"/>
          </g>
          <path id="Trazado_897569" data-name="Trazado 897569" d="M213.2,153.237h-6.5v-4.2a2.166,2.166,0,0,1,2.166-2.166h2.166a2.166,2.166,0,0,1,2.166,2.166Z" transform="translate(-206.705 -143.224)" fill="#a2e62e"/>
        </g>
        <g id="Grupo_1112005" data-name="Grupo 1112005" transform="translate(0 3.652)">
          <g id="Grupo_1112002" data-name="Grupo 1112002">
            <g id="Grupo_1112001" data-name="Grupo 1112001" transform="translate(1.371)">
              <circle id="Elipse_12124" data-name="Elipse 12124" cx="1.827" cy="1.827" r="1.827" fill="#fed2a4"/>
              <path id="Trazado_897570" data-name="Trazado 897570" d="M183.457,148.583a1.829,1.829,0,0,1-2.346,2.346,1.828,1.828,0,1,0,2.346-2.346Z" transform="translate(-180.999 -148.471)" fill="#ffbd86"/>
            </g>
            <path id="Trazado_897571" data-name="Trazado 897571" d="M165.437,203.515v3.258a7.442,7.442,0,0,1-6.447-3.72,2.167,2.167,0,0,1,2.116-1.7h2.166A2.166,2.166,0,0,1,165.437,203.515Z" transform="translate(-158.99 -197.7)" fill="#528fd8"/>
            <path id="Trazado_897572" data-name="Trazado 897572" d="M196.766,203.515v3.258a7.42,7.42,0,0,1-2.03-.281v-2.977a2.166,2.166,0,0,0-2.166-2.166h2.03A2.166,2.166,0,0,1,196.766,203.515Z" transform="translate(-190.319 -197.7)" fill="#0573ce"/>
          </g>
          <g id="Grupo_1112004" data-name="Grupo 1112004" transform="translate(6.447)">
            <g id="Grupo_1112003" data-name="Grupo 1112003" transform="translate(1.421)">
              <circle id="Elipse_12125" data-name="Elipse 12125" cx="1.827" cy="1.827" r="1.827" fill="#fed2a4"/>
              <path id="Trazado_897573" data-name="Trazado 897573" d="M280.381,148.583a1.829,1.829,0,0,1-2.346,2.346,1.828,1.828,0,1,0,2.346-2.346Z" transform="translate(-277.923 -148.471)" fill="#ffbd86"/>
            </g>
            <path id="Trazado_897574" data-name="Trazado 897574" d="M261.614,203.052a7.442,7.442,0,0,1-6.447,3.72v-3.258a2.166,2.166,0,0,1,2.166-2.166H259.5A2.167,2.167,0,0,1,261.614,203.052Z" transform="translate(-255.167 -197.7)" fill="#ffe177"/>
            <path id="Trazado_897575" data-name="Trazado 897575" d="M293.64,203.051h0a7.486,7.486,0,0,1-1.98,2.232v-1.769a2.166,2.166,0,0,0-2.166-2.166h2.03A2.166,2.166,0,0,1,293.64,203.051Z" transform="translate(-287.193 -197.7)" fill="#ffd15b"/>
          </g>
        </g>
      </g>
      <g id="Grupo_1112007" data-name="Grupo 1112007" transform="translate(66.348 0)">
        <path id="Trazado_897576" data-name="Trazado 897576" d="M91.721,88.573l-2.136-6.834a1.848,1.848,0,0,0-1.772-1.3H84.037c.786-.972,1.6-2.037,2.364-3.153,2.708-3.935,4.081-7.308,4.081-10.025a11.492,11.492,0,0,0-2.608-7.285.5.5,0,0,0-.777.639,10.484,10.484,0,0,1,2.379,6.646c0,2.509-1.313,5.69-3.9,9.455a59.831,59.831,0,0,1-5.954,7.208.85.85,0,0,1-1.225,0,59.482,59.482,0,0,1-6.048-7.343.5.5,0,1,0-.831.567c.8,1.167,1.641,2.28,2.459,3.292H70.311a1.848,1.848,0,0,0-1.772,1.3L66.4,88.573A1.18,1.18,0,0,0,67.529,90.1H85.647a.5.5,0,0,0,0-1.006H67.529a.174.174,0,0,1-.166-.226L69.5,82.038a.846.846,0,0,1,.812-.6h4.5c1.138,1.348,2.168,2.455,2.864,3.177a1.856,1.856,0,0,0,2.673,0c.693-.719,1.724-1.826,2.864-3.177h4.607a.847.847,0,0,1,.812.6l2.136,6.834a.174.174,0,0,1-.166.226h-2.6a.5.5,0,0,0,0,1.006h2.6a1.18,1.18,0,0,0,1.126-1.532Z" transform="translate(-66.348 -55.782)"/>
        <path id="Trazado_897577" data-name="Trazado 897577" d="M87.114,19.6a.5.5,0,0,0,.432-.759c-1.7-2.87-2.566-5.349-2.566-7.37a10.482,10.482,0,0,1,10.47-10.47,10.363,10.363,0,0,1,6.5,2.258.5.5,0,1,0,.624-.788A11.36,11.36,0,0,0,95.451,0,11.489,11.489,0,0,0,83.975,11.476c0,2.2.91,4.856,2.706,7.883A.5.5,0,0,0,87.114,19.6Z" transform="translate(-82.793 0)"/>
        <path id="Trazado_897578" data-name="Trazado 897578" d="M144.555,52.632A7.948,7.948,0,1,0,152.5,60.58,7.957,7.957,0,0,0,144.555,52.632Zm-5.9,11.6a1.672,1.672,0,0,1,1.572-1.124h2.166a1.665,1.665,0,0,1,1.663,1.663V67.5A6.948,6.948,0,0,1,138.651,64.228Zm5.9-1.017a2.677,2.677,0,0,0-1.41-1,2.323,2.323,0,0,0,.087-2.738,1.679,1.679,0,0,1,.24-.017h2.166a1.681,1.681,0,0,1,.24.017,2.322,2.322,0,0,0,.088,2.738,2.677,2.677,0,0,0-1.411,1ZM147.8,62.1a1.325,1.325,0,1,1,1.325-1.325A1.326,1.326,0,0,1,147.8,62.1Zm-3.249-3.652a1.325,1.325,0,1,1,1.325-1.325A1.326,1.326,0,0,1,144.555,58.453Zm-1.924,2.327a1.325,1.325,0,1,1-1.325-1.325A1.326,1.326,0,0,1,142.631,60.78Zm2.427,6.724V64.767a1.665,1.665,0,0,1,1.663-1.663h2.166a1.672,1.672,0,0,1,1.572,1.124A6.948,6.948,0,0,1,145.058,67.5ZM151,63.149a2.7,2.7,0,0,0-1.363-.939,2.328,2.328,0,0,0-2.879-3.514,2.662,2.662,0,0,0-.369-.14,2.33,2.33,0,1,0-3.677,0,2.662,2.662,0,0,0-.369.14,2.328,2.328,0,0,0-2.879,3.514,2.7,2.7,0,0,0-1.363.939,6.942,6.942,0,1,1,12.9,0Z" transform="translate(-131.897 -49.104)"/>
      </g>
    </g>
  </g>
</svg>
