<svg xmlns="http://www.w3.org/2000/svg" width="47" height="47" viewBox="0 0 47 47">
  <g id="Grupo_1112481" data-name="Grupo 1112481" transform="translate(-201.051 -14581)">
    <rect id="Rectángulo_400898" data-name="Rectángulo 400898" width="47" height="47" rx="23.5" transform="translate(201.051 14581)" fill="#769671"/>
    <g id="Grupo_1112021" data-name="Grupo 1112021" transform="translate(208.773 14588.303)">
      <g id="Grupo_1112010" data-name="Grupo 1112010" transform="translate(15.009 1.905)">
        <g id="Grupo_1112009" data-name="Grupo 1112009">
          <path id="Trazado_897579" data-name="Trazado 897579" d="M246.575,34.005l-3.356-3.356a1.83,1.83,0,0,0-2.589,0l-3.4,3.4a1.625,1.625,0,0,0,1.159,2.774l1.058-.005c0,1.385,1.123,3.774,2.508,3.774,1.309,0,2.383-2.268,2.5-3.547-.034.632-.008.46.011-.259l.973-.008A1.625,1.625,0,0,0,246.575,34.005Z" transform="translate(-236.75 -30.114)" fill="#c3dc4b"/>
        </g>
      </g>
      <g id="Grupo_1112011" data-name="Grupo 1112011" transform="translate(8.816 8.611)">
        <path id="Trazado_897580" data-name="Trazado 897580" d="M142.086,140.167a2.465,2.465,0,0,0-2.389.618l-.121.121a2.434,2.434,0,0,0,1.07,4.063,9.514,9.514,0,0,0,12.113-8.646,2.508,2.508,0,0,1-5.006-.227,4.5,4.5,0,0,1-5.667,4.07Z" transform="translate(-138.863 -136.097)" fill="#b4d241"/>
      </g>
      <g id="Grupo_1112013" data-name="Grupo 1112013" transform="translate(25.743 12.103)">
        <g id="Grupo_1112012" data-name="Grupo 1112012">
          <path id="Trazado_897581" data-name="Trazado 897581" d="M408.889,191.284c-.915,0-2.483,1.229-2.483,2.133l1.265,14.741h2.434V193.417A2.487,2.487,0,0,0,408.889,191.284Z" transform="translate(-406.406 -191.284)" fill="#87c7ff"/>
        </g>
      </g>
      <g id="Grupo_1112014" data-name="Grupo 1112014" transform="translate(24.478 11.753)">
        <path id="Trazado_897582" data-name="Trazado 897582" d="M388.938,202.983V188.242a2.487,2.487,0,0,1,1.217-2.133,2.461,2.461,0,0,0-1.265-.35,2.49,2.49,0,0,0-2.483,2.483v14.741Z" transform="translate(-386.407 -185.759)" fill="#65b1fc"/>
      </g>
      <g id="Grupo_1112015" data-name="Grupo 1112015" transform="translate(17.627 15.947)">
        <path id="Trazado_897583" data-name="Trazado 897583" d="M280.617,252.046c-.969,0-2.482,1.229-2.482,2.133l1.265,10.9h2.434v-10.9A2.486,2.486,0,0,0,280.617,252.046Z" transform="translate(-278.135 -252.046)" fill="#fff04a"/>
      </g>
      <g id="Grupo_1112016" data-name="Grupo 1112016" transform="translate(16.362 15.597)">
        <path id="Trazado_897584" data-name="Trazado 897584" d="M260.666,259.893V249a2.487,2.487,0,0,1,1.217-2.133,2.461,2.461,0,0,0-1.265-.35A2.49,2.49,0,0,0,258.135,249v10.9Z" transform="translate(-258.135 -246.513)" fill="#ffda45"/>
      </g>
      <g id="Grupo_1112017" data-name="Grupo 1112017" transform="translate(9.512 20.412)">
        <path id="Trazado_897585" data-name="Trazado 897585" d="M152.345,322.625c-.857,0-2.482,1.229-2.482,2.133l1.265,6.432h2.434v-6.432A2.486,2.486,0,0,0,152.345,322.625Z" transform="translate(-149.863 -322.625)" fill="#ff9b87"/>
      </g>
      <g id="Grupo_1112018" data-name="Grupo 1112018" transform="translate(8.246 20.062)">
        <path id="Trazado_897586" data-name="Trazado 897586" d="M133.61,317.442a2.461,2.461,0,0,0-1.265-.35,2.49,2.49,0,0,0-2.483,2.483v6.432h2.531v-6.432A2.488,2.488,0,0,1,133.61,317.442Z" transform="translate(-129.862 -317.092)" fill="#ff8870"/>
      </g>
      <g id="Grupo_1112019" data-name="Grupo 1112019" transform="translate(7.151 27.392)">
        <path id="Trazado_897587" data-name="Trazado 897587" d="M135.088,432.933h-19c-1.25,0-3.529,1.014-3.529,2.264s2.279,2.264,3.529,2.264h19a2.264,2.264,0,1,0,0-4.528Z" transform="translate(-112.556 -432.933)" fill="#f2f6fc"/>
      </g>
      <g id="Grupo_1112020" data-name="Grupo 1112020" transform="translate(0.507 0.475)">
        <path id="Trazado_897588" data-name="Trazado 897588" d="M15.442,36.681a2.264,2.264,0,0,1,2.264-2.264H13.327a1.265,1.265,0,0,1-1.265-1.265V9.764A2.264,2.264,0,0,0,9.8,7.5h0A2.264,2.264,0,0,0,7.534,9.764l0,23.487a5.694,5.694,0,0,0,5.694,5.695h4.48A2.264,2.264,0,0,1,15.442,36.681Z" transform="translate(-7.532 -7.5)" fill="#dce1eb"/>
      </g>
      <path id="Trazado_897589" data-name="Trazado 897589" d="M29.918,26.928V14.236a2.957,2.957,0,0,0-5.914,0v4.348a.475.475,0,0,0,.949,0V14.236a2.008,2.008,0,0,1,4.016,0V26.917H24.952V20.8a.475.475,0,0,0-.949,0v6.119H21.8V18.08a2.959,2.959,0,0,0-1.59-2.621l.065-.063a9.947,9.947,0,0,0,2.9-6.346l.524,0a2.1,2.1,0,0,0,1.471-3.584L21.813,2.106a2.307,2.307,0,0,0-3.26,0l-3.4,3.4a2.1,2.1,0,0,0,1.483,3.584h.015l.518,0a4.03,4.03,0,0,1-5.007,3.134,2.954,2.954,0,0,0-2.847.741l-.121.121a2.908,2.908,0,0,0,1.276,4.855,10.047,10.047,0,0,0,2.733.376,10.136,10.136,0,0,0,2.689-.362c0,.042,0,.084,0,.126v8.838h-2.2V22.545a2.957,2.957,0,0,0-5.914,0v4.372H6.3a.792.792,0,0,1-.791-.791V8.821a.475.475,0,0,0-.949,0V26.126a1.742,1.742,0,0,0,1.74,1.74H29.684a1.79,1.79,0,0,1,0,3.579H6.2a5.22,5.22,0,0,1-5.22-5.22l0-23.486a1.79,1.79,0,0,1,3.579,0V6.6a.475.475,0,0,0,.949,0V2.739a2.739,2.739,0,0,0-5.477,0l0,23.486A6.169,6.169,0,0,0,6.2,32.394H29.684a2.738,2.738,0,0,0,.234-5.466Zm-19.19-9.9a1.954,1.954,0,0,1-1.373-1.4,1.934,1.934,0,0,1,.51-1.872l.121-.121a2,2,0,0,1,1.931-.5,4.979,4.979,0,0,0,6.263-4.5.475.475,0,0,0-.476-.5l-1.059.005h-.008a1.15,1.15,0,0,1-.812-1.964l3.4-3.4a1.357,1.357,0,0,1,1.918,0L24.5,6.133A1.15,1.15,0,0,1,23.691,8.1l-.973.008a.475.475,0,0,0-.471.462,9.008,9.008,0,0,1-2.643,6.158c-.143.143-.292.282-.444.415a2.954,2.954,0,0,0-3.02,1.743,9.173,9.173,0,0,1-5.414.144Zm6.109,1.053a2.008,2.008,0,0,1,4.016,0v8.838H16.837ZM8.721,22.545a2.008,2.008,0,1,1,4.016,0v4.372H8.721Z"/>
    </g>
  </g>
</svg>
