<svg xmlns="http://www.w3.org/2000/svg" width="89" height="89" viewBox="0 0 89 89">
  <g id="Grupo_1112379" data-name="Grupo 1112379" transform="translate(-766.051 -1016)">
    <rect id="Rect치ngulo_400898" data-name="Rect치ngulo 400898" width="89" height="89" rx="44.5" transform="translate(766.051 1016)" fill="#769671"/>
    <g id="Grupo_1111651" data-name="Grupo 1111651">
      <rect id="Rect치ngulo_400907" data-name="Rect치ngulo 400907" width="89" height="89" rx="44.5" transform="translate(766.051 1016)" fill="none"/>
      <g id="_x32_6_Earth" transform="translate(735.051 1018.004)">
        <g id="Earth_9_" transform="translate(41 5.996)">
          <g id="Earth_8_" transform="translate(1.106 1.114)">
            <path id="Trazado_896590" data-name="Trazado 896590" d="M381.171,125.813q-1.062-.951-2.212-1.813l-.059,2.978Z" transform="translate(-330.187 -107.716)" fill="#f19d71"/>
            <path id="Trazado_896591" data-name="Trazado 896591" d="M377.2,158.548l8.242,1.474,3.612-8.153a30.567,30.567,0,0,0-9.348-15.569h-1.592Z" transform="translate(-328.737 -118.203)" fill="#75eeff"/>
            <path id="Trazado_896592" data-name="Trazado 896592" d="M117.7,394.2l-29.3,2.816a30.932,30.932,0,0,0,4.32,4.777l11.382,3.185,16.749-.649V394.215H117.7Z" transform="translate(-82.517 -338.078)" fill="#75eeff"/>
            <path id="Trazado_896593" data-name="Trazado 896593" d="M48.5,113.533l33.1,4.63L97.892,91.285q-.287-.907-.619-1.813A30.614,30.614,0,0,0,48.5,113.533Z" transform="translate(-48.5 -73.187)" fill="#f6c4a9"/>
            <path id="Trazado_896594" data-name="Trazado 896594" d="M68.2,174.763v4.571a33.065,33.065,0,0,0,15.481-4.91c-.383-.133,7.519-7.018,7.519-7.018l5.765-8.758a33.383,33.383,0,0,0,.929-22.248H77.206a3.892,3.892,0,0,0,0,7.785h.56a3.892,3.892,0,1,1,0,7.785H62.521a3.889,3.889,0,0,0-3.892,3.892,2.784,2.784,0,0,1-2.787,2.787H48.5v.56a30.669,30.669,0,0,0,.855,7.224l4.526,3.892-1.445,3.892a29.11,29.11,0,0,0,1.946,3.008,33.356,33.356,0,0,0,8.61,2.02Z" transform="translate(-48.5 -118.288)" fill="#c0f6ff"/>
            <path id="Trazado_896595" data-name="Trazado 896595" d="M149.1,420l-2.4,1.017v3.406h5.219v-3.3Z" transform="translate(-132.222 -360.074)" fill="#ed844d"/>
            <path id="Trazado_896596" data-name="Trazado 896596" d="M152,401.171V396.6h-5.2v4.482c1.062.1,2.123.162,3.214.162C150.678,401.23,151.341,401.2,152,401.171Z" transform="translate(-132.307 -340.125)" fill="#f19d71"/>
            <path id="Trazado_896597" data-name="Trazado 896597" d="M333.7,179.2l-6.5,7.121a5.106,5.106,0,0,0,3.509,2.713h2.212a5.154,5.154,0,0,0,.781-9.834Z" transform="translate(-286.109 -154.777)" fill="#38c714"/>
            <path id="Trazado_896598" data-name="Trazado 896598" d="M327.555,184.378l2.212-1.445a5.137,5.137,0,0,0,1.327-3.465,5.247,5.247,0,0,0-.546-2.315,5.053,5.053,0,0,0-1.887-.354,5.166,5.166,0,0,0-5.16,5.16,5.246,5.246,0,0,0,.546,2.315,5.052,5.052,0,0,0,1.887.354A5.263,5.263,0,0,0,327.555,184.378Z" transform="translate(-282.955 -152.731)" fill="#60d243"/>
            <path id="Trazado_896599" data-name="Trazado 896599" d="M163.553,246.19a2.388,2.388,0,0,1-2.388,2.388h-5.2l-13.284,15.776a3.89,3.89,0,0,1-1.238,7.578H117.7A30.612,30.612,0,0,0,167.829,241.9,4.291,4.291,0,0,0,163.553,246.19Z" transform="translate(-107.497 -208.233)" fill="#2a950f"/>
            <path id="Trazado_896600" data-name="Trazado 896600" d="M264.437,291.092a3.889,3.889,0,0,1-3.892,3.892h-4.453a3.892,3.892,0,0,0,0,7.785,3.828,3.828,0,0,1,1.238.206A33.356,33.356,0,0,0,270.615,287.2h-2.3A3.9,3.9,0,0,0,264.437,291.092Z" transform="translate(-222.167 -246.854)" fill="#60d243"/>
            <path id="Trazado_896601" data-name="Trazado 896601" d="M65.122,347.8a3.9,3.9,0,0,0,0-7.8H54.3a29.788,29.788,0,0,0,3.081,7.785h7.74Z" transform="translate(-53.445 -291.869)" fill="#f4b594"/>
            <path id="Trazado_896602" data-name="Trazado 896602" d="M125.423,291.848l-4.91-8.714a1.111,1.111,0,0,0-1.533-.413l-7.048,14.213a14.389,14.389,0,0,0-.133,1.946,2.584,2.584,0,0,0,4.762,1.386.469.469,0,0,1,.8,0,2.591,2.591,0,0,0,4.364,0,.469.469,0,0,1,.8,0,2.584,2.584,0,0,0,4.762-1.386,14.527,14.527,0,0,0-1.858-7.033Z" transform="translate(-102.467 -242.906)" fill="#2a950f"/>
            <path id="Trazado_896603" data-name="Trazado 896603" d="M122.2,289.792l-2.536-6.192a.981.981,0,0,0-.4.413l-4.939,8.728a14.256,14.256,0,0,0-1.725,5.087h4.2A5.828,5.828,0,0,0,122.2,289.792Z" transform="translate(-103.149 -243.785)" fill="#38c714"/>
            <path id="Trazado_896604" data-name="Trazado 896604" d="M428.72,340.12a4.945,4.945,0,0,1,2.58-2.02l5.249,5.9a4.971,4.971,0,0,1-6.708,1.268l-3.14-2.02Z" transform="translate(-370.939 -290.25)" fill="#60d243"/>
            <path id="Trazado_896605" data-name="Trazado 896605" d="M454.524,341.931a3.733,3.733,0,0,1-1.12-5.146c.044-.074.1-.147.147-.221a4.959,4.959,0,0,1,4.276.516,3.733,3.733,0,0,1,1.121,5.146c-.044.074-.1.147-.147.221A4.921,4.921,0,0,1,454.524,341.931Z" transform="translate(-393.205 -288.713)" fill="#80db69"/>
            <path id="Trazado_896606" data-name="Trazado 896606" d="M378.681,336l6.369,6.62a5.867,5.867,0,0,1-3.642,3.214l-2.728.84-1.961-1.032-.84-2.728A5.907,5.907,0,0,1,378.681,336Z" transform="translate(-327.387 -288.459)" fill="#38c714"/>
            <path id="Trazado_896607" data-name="Trazado 896607" d="M398.621,339.286a4.455,4.455,0,0,1-3.244-.251l-1.725-1.489a4.611,4.611,0,0,1-.575-1.18,5.827,5.827,0,0,1,.265-4.158,5.5,5.5,0,0,1,1.091-.457,4.425,4.425,0,0,1,5.529,2.919,5.827,5.827,0,0,1-.265,4.158A5.031,5.031,0,0,1,398.621,339.286Z" transform="translate(-342.049 -284.668)" fill="#80db69"/>
            <path id="Trazado_896608" data-name="Trazado 896608" d="M295.272,394.646a4.444,4.444,0,0,1,1.356-2.846l8.773,5.5-.206,2.521-1.7,1.43-2.846-.236A5.9,5.9,0,0,1,295.272,394.646Z" transform="translate(-258.87 -336.032)" fill="#38c714"/>
            <path id="Trazado_896609" data-name="Trazado 896609" d="M308.757,391.366a5.88,5.88,0,0,1-4.482-6.222l.044-.354a4.379,4.379,0,0,1,3.421-1.194,5.888,5.888,0,0,1,5.381,6.369l-.029.339a4.488,4.488,0,0,1-1.533.958Z" transform="translate(-266.545 -329.023)" fill="#80db69"/>
            <path id="Trazado_896610" data-name="Trazado 896610" d="M361.9,415.939l1.342-2.521A5.811,5.811,0,0,1,365.63,411l7.652,5.411a4.172,4.172,0,0,1-.236.531,5.9,5.9,0,0,1-7.962,2.462l-2.521-1.342Z" transform="translate(-315.693 -352.401)" fill="#60d243"/>
            <path id="Trazado_896611" data-name="Trazado 896611" d="M387.636,412.21l-1.814-1.754a4.472,4.472,0,0,1-.295-3.715,5.918,5.918,0,0,1,5.573-.044,4.423,4.423,0,0,1,2.079,5.455A5.9,5.9,0,0,1,387.636,412.21Z" transform="translate(-335.605 -348.156)" fill="#80db69"/>
            <path id="Trazado_896612" data-name="Trazado 896612" d="M117.329,22.12a4.945,4.945,0,0,0-2.58-2.02L109.5,26a4.971,4.971,0,0,0,6.708,1.268l3.14-2.02Z" transform="translate(-100.506 -19.135)" fill="#60d243"/>
            <path id="Trazado_896613" data-name="Trazado 896613" d="M109.627,23.931a3.733,3.733,0,0,0,1.121-5.146c-.044-.074-.1-.147-.147-.221a4.959,4.959,0,0,0-4.276.516,3.733,3.733,0,0,0-1.121,5.146c.044.074.1.147.147.221A4.921,4.921,0,0,0,109.627,23.931Z" transform="translate(-96.343 -17.599)" fill="#88dd72"/>
            <path id="Trazado_896614" data-name="Trazado 896614" d="M169.769,18,163.4,24.62a5.868,5.868,0,0,0,3.642,3.214l2.728.84,1.961-1.032.84-2.728A5.908,5.908,0,0,0,169.769,18Z" transform="translate(-146.459 -17.344)" fill="#2a950f"/>
            <path id="Trazado_896615" data-name="Trazado 896615" d="M161.519,21.286a4.455,4.455,0,0,0,3.244-.251l1.725-1.489a4.612,4.612,0,0,0,.575-1.18,5.827,5.827,0,0,0-.265-4.158,5.5,5.5,0,0,0-1.091-.457,4.425,4.425,0,0,0-5.529,2.919,5.827,5.827,0,0,0,.265,4.158,5.029,5.029,0,0,0,1.076.457Z" transform="translate(-143.488 -13.554)" fill="#38c714"/>
            <path id="Trazado_896616" data-name="Trazado 896616" d="M249.029,76.646a4.444,4.444,0,0,0-1.356-2.846L238.9,79.3l.206,2.521,1.7,1.43,2.846-.236A5.9,5.9,0,0,0,249.029,76.646Z" transform="translate(-210.828 -64.917)" fill="#38c714"/>
            <path id="Trazado_896617" data-name="Trazado 896617" d="M242.836,73.366a5.88,5.88,0,0,0,4.482-6.222l-.044-.354a4.379,4.379,0,0,0-3.421-1.194,5.888,5.888,0,0,0-5.382,6.369l.03.339a4.488,4.488,0,0,0,1.533.958Z" transform="translate(-210.444 -57.908)" fill="#80db69"/>
            <path id="Trazado_896618" data-name="Trazado 896618" d="M175.282,97.939l-1.342-2.521A5.812,5.812,0,0,0,171.552,93L163.9,98.411a4.179,4.179,0,0,0,.236.531A5.9,5.9,0,0,0,172.1,101.4l2.521-1.342Z" transform="translate(-146.886 -81.287)" fill="#2a950f"/>
            <path id="Trazado_896619" data-name="Trazado 896619" d="M167.933,94.21l1.813-1.755a4.472,4.472,0,0,0,.295-3.715,5.918,5.918,0,0,0-5.573-.044,4.423,4.423,0,0,0-2.079,5.455A5.9,5.9,0,0,0,167.933,94.21Z" transform="translate(-145.36 -77.041)" fill="#38c714"/>
            <path id="Trazado_896620" data-name="Trazado 896620" d="M64.451,105a1.815,1.815,0,0,0-.295.029L59.6,117.8a5.172,5.172,0,0,0,3.76,3.3h2.212a5.157,5.157,0,0,0,4.055-5.042C69.611,113.212,67.3,105,64.451,105Z" transform="translate(-57.963 -91.517)" fill="#2a950f"/>
            <path id="Trazado_896621" data-name="Trazado 896621" d="M61.469,117.529l.9-1.3,1.312-.855a5.17,5.17,0,0,0,.619-2.462,22.592,22.592,0,0,0-2.035-7.814c-2.713.546-4.865,8.271-4.865,11.028a5.257,5.257,0,0,0,.295,1.74,5.081,5.081,0,0,0,1.43.206A4.951,4.951,0,0,0,61.469,117.529Z" transform="translate(-56.088 -91.603)" fill="#38c714"/>
          </g>
          <path id="Earth_2_" d="M107.347,54.548a5.947,5.947,0,0,0-3.435-.944,32.258,32.258,0,0,0,.487-5.588A31.71,31.71,0,0,0,81.457,17.541,5.534,5.534,0,0,0,75.692,13.6a7.023,7.023,0,0,0-6.34,5.927,6.807,6.807,0,0,0-1.15-1.106l1.062-3.421a7.006,7.006,0,0,0-4.63-8.758,5.559,5.559,0,0,0-6,1.887,6.111,6.111,0,0,0-7.18-.457,4.835,4.835,0,0,0-1.445,6.679A6.082,6.082,0,0,0,58.4,16.185l.28-.177a6.977,6.977,0,0,0,1.917,1.858,5.44,5.44,0,0,0-1.917,1.74,31.972,31.972,0,0,0-5.956,3.819c-1.209-2.595-2.595-3.907-4.143-3.907-1.268,0-2.447.9-3.494,2.669a1.108,1.108,0,1,0,1.9,1.135c.693-1.165,1.283-1.592,1.592-1.592.4,0,1.46.781,2.624,3.76a20.73,20.73,0,0,1,1.43,6.192,4.073,4.073,0,0,1-2.949,3.907V28.7A1.114,1.114,0,0,0,48.578,27.6,1.092,1.092,0,0,0,47.487,28.7v6.856a4.073,4.073,0,0,1-2.949-3.907,17.107,17.107,0,0,1,.649-3.8,1.107,1.107,0,1,0-2.138-.575,18.93,18.93,0,0,0-.737,4.394A6.221,6.221,0,0,0,43.58,35.44,31.717,31.717,0,0,0,90.023,74.57l.958.5a7.007,7.007,0,0,0,9.466-2.919,5.521,5.521,0,0,0-2.226-7.431,6.972,6.972,0,0,0,1.917-1.858l.28.177a6.082,6.082,0,0,0,8.389-1.828,4.85,4.85,0,0,0-1.46-6.664ZM81.663,19.915a29.111,29.111,0,0,1,8.3,4.187H79.717c.1-.118.206-.221.31-.339A6.882,6.882,0,0,0,81.663,19.915Zm-5.78-4.1a1.784,1.784,0,0,1,.28-.015,3.319,3.319,0,0,1,3.3,3.037,4.8,4.8,0,0,1-4.379,5.175l-1.755.147,2.993-3.539a1.109,1.109,0,0,0-1.7-1.43l-2.993,3.539-.147-1.755a4.8,4.8,0,0,1,4.394-5.16ZM64,8.356a4.8,4.8,0,0,1,3.155,6l-.516,1.666-2.167-4.1a1.1,1.1,0,1,0-1.946,1.032l2.138,4.055c-.044,0-1.651-.487-1.651-.487a4.809,4.809,0,0,1-3.17-5.986A3.327,3.327,0,0,1,64,8.356ZM57.218,14.3a3.864,3.864,0,0,1-5.337-1.165,2.618,2.618,0,0,1,.781-3.612,3.871,3.871,0,0,1,4.969.693,7.059,7.059,0,0,0,.074,3.76Zm2.875,7.4a3.347,3.347,0,0,1,1.622-1.961,4.778,4.778,0,0,1,6.473,1.99l.826,1.548L64.59,21.905a1.11,1.11,0,1,0-.649,2.123L68.364,25.4l-1.548.826a4.789,4.789,0,0,1-6.473-2.005,3.258,3.258,0,0,1-.251-2.521Zm-11.5,19.019A1.114,1.114,0,0,0,49.7,39.613V37.829a6.269,6.269,0,0,0,5.16-6.163,22.013,22.013,0,0,0-1.253-6.089,28.958,28.958,0,0,1,4.143-2.949,5.59,5.59,0,0,0,.634,2.654,7.007,7.007,0,0,0,6.207,3.73,6.744,6.744,0,0,0,1.224-.1v.221a5,5,0,0,0,5,5h.56a2.787,2.787,0,1,1,0,5.573h-3.45a1.106,1.106,0,0,0,0,2.212h3.45a5,5,0,0,0,0-10h-.56a2.794,2.794,0,0,1-2.787-2.787,2.715,2.715,0,0,1,.251-1.135l3.155-1.651H92.677a29.6,29.6,0,0,1,8.374,13.55,5.383,5.383,0,0,0-3.981,5.2,1.284,1.284,0,0,1-1.283,1.283,1.106,1.106,0,1,0,0,2.212A3.492,3.492,0,0,0,99.282,45.1a3.184,3.184,0,0,1,2.3-3.052,29.911,29.911,0,0,1,.619,6,30.493,30.493,0,0,1-.634,6.133,5.916,5.916,0,0,0-1.386.87,5.559,5.559,0,0,0-6-1.887,7.006,7.006,0,0,0-4.63,8.758l1.062,3.421a7.38,7.38,0,0,0-1.15,1.106,7.024,7.024,0,0,0-6.34-5.927,5.505,5.505,0,0,0-4.748,2.02,4.91,4.91,0,0,0-2.33-.575,2.787,2.787,0,0,1,0-5.573H80.5a5,5,0,0,0,5-5,2.794,2.794,0,0,1,2.787-2.787H90.6a1.106,1.106,0,1,0,0-2.212H88.917V42.547a6.393,6.393,0,1,0-2.212-.044v4.114a5.014,5.014,0,0,0-3.435,4.747,2.794,2.794,0,0,1-2.787,2.787H76.031a5,5,0,1,0,0,10,2.819,2.819,0,0,1,1.3.324,5.138,5.138,0,0,0-.192,1.076,6.952,6.952,0,0,0,.634,3.553,2.768,2.768,0,0,1-1.754.619H62.894V66.491a3.537,3.537,0,0,0,1.43.28,3.687,3.687,0,0,0,3.686-3.686,15.511,15.511,0,0,0-1.99-7.578l-4.91-8.714a2.212,2.212,0,0,0-3.848,0L53.09,54.15H43.86a28.937,28.937,0,0,1-.634-5.573h6.237a3.9,3.9,0,0,0,3.892-3.892A2.794,2.794,0,0,1,56.142,41.9h6.62a1.106,1.106,0,0,0,0-2.212h-6.62a5,5,0,0,0-5,5,1.68,1.68,0,0,1-1.681,1.681H43.271a28.985,28.985,0,0,1,2.079-9.348,6.031,6.031,0,0,0,2.153.811v1.784a1.092,1.092,0,0,0,1.091,1.106ZM95.8,63.424l-1.519.472a.408.408,0,0,0-.133.015l2.138-4.055a1.1,1.1,0,0,0-1.946-1.032l-2.167,4.084-.516-1.681a4.8,4.8,0,0,1,3.155-6,3.3,3.3,0,0,1,4.143,2.2,4.786,4.786,0,0,1-3.155,6Zm-16.454,2.3A3.3,3.3,0,0,1,82.931,62.7a4.792,4.792,0,0,1,4.379,5.175l-.147,1.755L84.17,66.093a1.109,1.109,0,1,0-1.7,1.43l2.993,3.539-1.755-.147a4.744,4.744,0,0,1-3.258-1.681,4.878,4.878,0,0,1-1.106-3.509Zm8.463-30.49a1.114,1.114,0,0,0-1.106,1.106v3.907a4.055,4.055,0,1,1,2.212,0V36.34A1.1,1.1,0,0,0,87.811,35.234Zm-37.434,26.7H46.706a30.35,30.35,0,0,1-2.3-5.573h7.46A15.483,15.483,0,0,0,50.377,61.935ZM54.24,56.6l4.939-8.728,4.91,8.714A13.166,13.166,0,0,1,65.8,63.07a1.474,1.474,0,0,1-2.949,0,1.106,1.106,0,1,0-2.212,0,1.474,1.474,0,0,1-2.949,0,1.106,1.106,0,0,0-2.212,0,1.474,1.474,0,1,1-2.949,0A13.311,13.311,0,0,1,54.24,56.6Zm3.45,9.864a3.769,3.769,0,0,0,1.474.31,3.688,3.688,0,0,0,1.519-.324v3.273H57.69Zm-9.672-2.315H50.48a3.711,3.711,0,0,0,3.539,2.639,3.769,3.769,0,0,0,1.474-.31v3.258H52.765A29.6,29.6,0,0,1,48.018,64.146ZM72.7,77.5a29.309,29.309,0,0,1-17.235-5.573H76.031a4.953,4.953,0,0,0,3.008-1A6.97,6.97,0,0,0,83.55,73.1l3.3.28h.914A29.456,29.456,0,0,1,72.7,77.5ZM98.486,71.12a4.814,4.814,0,0,1-6.473,2.005L90.465,72.3l4.423-1.371a1.11,1.11,0,0,0-.649-2.123l-4.423,1.371.826-1.548a4.814,4.814,0,0,1,6.473-2.005,3.3,3.3,0,0,1,1.622,1.961A3.438,3.438,0,0,1,98.486,71.12Zm8.448-11.087A3.874,3.874,0,0,1,101.6,61.2l-.5-.324a6.915,6.915,0,0,0,.074-3.76,3.871,3.871,0,0,1,4.969-.693,2.6,2.6,0,0,1,.8,3.612Z" transform="translate(-41 -5.996)"/>
        </g>
      </g>
    </g>
  </g>
</svg>
