<svg xmlns="http://www.w3.org/2000/svg" width="47" height="47" viewBox="0 0 47 47">
  <g id="Grupo_1112482" data-name="Grupo 1112482" transform="translate(-201.051 -14642)">
    <rect id="Rectángulo_400898" data-name="Rectángulo 400898" width="47" height="47" rx="23.5" transform="translate(201.051 14642)" fill="#769671"/>
    <g id="Grupo_1112024" data-name="Grupo 1112024" transform="translate(204.716 14650.009)">
      <g id="Grupo_1112023" data-name="Grupo 1112023" transform="translate(2.475 0.56)">
        <g id="Grupo_1112022" data-name="Grupo 1112022" transform="translate(2.437)">
          <path id="Trazado_897590" data-name="Trazado 897590" d="M74.441,295.018a13.938,13.938,0,0,1-27.844,0,.646.646,0,0,1,.646-.678H73.794a.646.646,0,0,1,.646.678Z" transform="translate(-46.596 -275.302)" fill="#0593fc" fill-rule="evenodd"/>
          <path id="Trazado_897591" data-name="Trazado 897591" d="M69.668,333.659a14,14,0,0,1-6.308-6.826c.4-.858,1.576-2.993,2.4-3.445,1.2-.659,2.6,1.216,5.331,1.39,6.308.559,4.283,4.217.406,6.7A4.508,4.508,0,0,0,69.668,333.659Z" transform="translate(-62.245 -302.288)" fill="#70da40" fill-rule="evenodd"/>
          <path id="Trazado_897592" data-name="Trazado 897592" d="M132.661,90.71h16.4v10.165a.958.958,0,0,1-.957.955H133.617a.957.957,0,0,1-.957-.955V90.71Z" transform="translate(-126.938 -85.211)" fill="#d7e6f0" fill-rule="evenodd"/>
          <path id="Trazado_897593" data-name="Trazado 897593" d="M282.909,295.027a13.906,13.906,0,0,1-4.606,9.689c-1.415-4.155-8.65-7.785-8.383-10.366h12.343a.645.645,0,0,1,.646.677Z" transform="translate(-255.064 -275.311)" fill="#70da40" fill-rule="evenodd"/>
          <path id="Trazado_897594" data-name="Trazado 897594" d="M102.857,8h3.46l-.358,5.5h-4.1l.681-5.221A.316.316,0,0,1,102.857,8Z" transform="translate(-98.186 -8)" fill="#ff4646" fill-rule="evenodd"/>
          <path id="Trazado_897595" data-name="Trazado 897595" d="M167.6,8h-3.743l-.358,5.5h4.1Z" transform="translate(-155.727 -8)" fill="#ffd400" fill-rule="evenodd"/>
          <path id="Trazado_897596" data-name="Trazado 897596" d="M225.18,8h4.1v5.5h-4.1Z" transform="translate(-213.306 -8)" fill="#ff4646" fill-rule="evenodd"/>
          <path id="Trazado_897597" data-name="Trazado 897597" d="M105.949,90.71a2.049,2.049,0,1,1-4.1,0Z" transform="translate(-98.176 -85.211)" fill="#cf3939" fill-rule="evenodd"/>
          <path id="Trazado_897598" data-name="Trazado 897598" d="M163.5,90.71a2.05,2.05,0,0,0,4.1,0Z" transform="translate(-155.727 -85.211)" fill="#cfac00" fill-rule="evenodd"/>
          <path id="Trazado_897599" data-name="Trazado 897599" d="M229.269,90.71a2.049,2.049,0,1,1-4.1,0Z" transform="translate(-213.297 -85.211)" fill="#cf3939" fill-rule="evenodd"/>
          <path id="Trazado_897600" data-name="Trazado 897600" d="M286.82,90.71a2.05,2.05,0,0,0,4.1,0Z" transform="translate(-270.848 -85.211)" fill="#cfac00" fill-rule="evenodd"/>
          <path id="Trazado_897601" data-name="Trazado 897601" d="M352.589,90.71a2.049,2.049,0,1,1-4.1,0Z" transform="translate(-328.418 -85.211)" fill="#cf3939" fill-rule="evenodd"/>
          <path id="Trazado_897602" data-name="Trazado 897602" d="M224.71,185.93h4.161v-4.812a.318.318,0,0,0-.318-.318h-3.525a.318.318,0,0,0-.318.318Z" transform="translate(-212.868 -169.311)" fill="#0cf" fill-rule="evenodd"/>
          <path id="Trazado_897603" data-name="Trazado 897603" d="M346.551,8H343.09l.36,5.5h4.1l-.681-5.222A.316.316,0,0,0,346.551,8Z" transform="translate(-323.377 -8)" fill="#ff4646" fill-rule="evenodd"/>
          <path id="Trazado_897604" data-name="Trazado 897604" d="M286.82,8h3.741l.36,5.5h-4.1Z" transform="translate(-270.848 -8)" fill="#ffd400" fill-rule="evenodd"/>
        </g>
        <path id="Trazado_897605" data-name="Trazado 897605" d="M414.75,129.749v-5.042a.35.35,0,0,1,.35-.35h1.229a.352.352,0,0,0,.249-.6l-2.687-2.687a.352.352,0,0,0-.5,0l-2.687,2.687a.341.341,0,0,0-.076.384.346.346,0,0,0,.325.217h1.229a.35.35,0,0,1,.35.35v5.042a.326.326,0,0,0,.326.325h1.563A.328.328,0,0,0,414.75,129.749Z" transform="translate(-383.963 -113.454)" fill="#70da40"/>
        <path id="Trazado_897606" data-name="Trazado 897606" d="M14.1,129.749v-5.042a.35.35,0,0,1,.35-.35h1.229a.352.352,0,0,0,.249-.6l-2.688-2.687a.352.352,0,0,0-.5,0l-2.687,2.687a.352.352,0,0,0,.249.6h1.229a.35.35,0,0,1,.35.35v5.042a.327.327,0,0,0,.326.325h1.563A.327.327,0,0,0,14.1,129.749Z" transform="translate(-9.947 -113.454)" fill="#70da40"/>
        <path id="Trazado_897607" data-name="Trazado 897607" d="M13.33,121.153l-.1-.1a.352.352,0,0,0-.5,0l-2.687,2.687a.352.352,0,0,0,.249.6h.688a.352.352,0,0,1-.249-.6Zm-1.8,3.193a.35.35,0,0,1,.35.35v5.042a.327.327,0,0,0,.326.325h.688a.326.326,0,0,1-.326-.325V124.7a.35.35,0,0,0-.35-.35Z" transform="translate(-9.947 -113.445)" fill="#65c43a"/>
        <path id="Trazado_897608" data-name="Trazado 897608" d="M413.975,121.153l-.1-.1a.352.352,0,0,0-.5,0l-2.687,2.687a.341.341,0,0,0-.076.384.346.346,0,0,0,.325.217h.687a.353.353,0,0,1-.248-.6Zm-1.8,3.193a.35.35,0,0,1,.35.35v5.042a.326.326,0,0,0,.326.325h.688a.326.326,0,0,1-.327-.325V124.7a.352.352,0,0,0-.352-.35Z" transform="translate(-383.953 -113.445)" fill="#65c43a"/>
        <path id="Trazado_897609" data-name="Trazado 897609" d="M133.683,125.893V117.51a2.045,2.045,0,0,1-1.013.269v8.115a.957.957,0,0,0,.957.955h1.013A.958.958,0,0,1,133.683,125.893Z" transform="translate(-124.51 -110.229)" fill="#c2cfd8" fill-rule="evenodd"/>
        <path id="Trazado_897610" data-name="Trazado 897610" d="M48.377,298.6a13.84,13.84,0,0,1-.643-3.571.646.646,0,0,1,.644-.678H47.243a.646.646,0,0,0-.646.678,13.878,13.878,0,0,0,1.114,4.829c.142-.3.382-.767.666-1.258Zm5.641,8.084a13.894,13.894,0,0,0,6.5,1.606c.191,0,.382-.005.57-.013a13.85,13.85,0,0,1-6.81-2.1C54.188,306.341,54.1,306.509,54.018,306.683Z" transform="translate(-44.159 -275.311)" fill="#0584e3" fill-rule="evenodd"/>
        <path id="Trazado_897611" data-name="Trazado 897611" d="M63.36,359.5a14,14,0,0,0,6.308,6.826c.084-.174.17-.341.259-.5a13.969,13.969,0,0,1-5.9-7.58C63.742,358.731,63.5,359.2,63.36,359.5Z" transform="translate(-59.809 -334.953)" fill="#65c43a" fill-rule="evenodd"/>
      </g>
      <path id="Trazado_897612" data-name="Trazado 897612" d="M32.112,19.068H5.559A1.179,1.179,0,0,0,4.381,20.3,14.47,14.47,0,0,0,28.5,30.364l.005,0c.109-.1.218-.2.324-.3A14.4,14.4,0,0,0,33.289,20.3v0a1.179,1.179,0,0,0-1.177-1.23Zm-25.5,6.054a9.5,9.5,0,0,1,2.075-3c.356-.195.836.021,1.654.418a8.675,8.675,0,0,0,3.382,1.037c2.074.184,3.326.73,3.525,1.539.257,1.045-1.088,2.72-3.348,4.17a4.587,4.587,0,0,0-1.788,1.916,13.411,13.411,0,0,1-5.5-6.083ZM13.051,31.7a3.466,3.466,0,0,1,1.363-1.483c.013-.007.026-.015.039-.023a11.957,11.957,0,0,0,2.918-2.519,3.368,3.368,0,0,0,.907-2.81c-.324-1.323-1.828-2.112-4.47-2.345h-.013a7.655,7.655,0,0,1-2.991-.932c-.913-.443-1.775-.862-2.63-.394A7.556,7.556,0,0,0,6.1,23.815a13.405,13.405,0,0,1-.657-3.56.106.106,0,0,1,.035-.09.094.094,0,0,1,.081-.033H19.267c.265,1.371,1.86,2.8,3.672,4.425,1.791,1.605,3.808,3.413,4.587,5.26A13.451,13.451,0,0,1,13.051,31.7Zm15.3-2.644c-.951-1.934-2.929-3.708-4.7-5.294-1.451-1.3-2.945-2.639-3.284-3.633H32.112a.1.1,0,0,1,.084.036.1.1,0,0,1,.032.086,13.353,13.353,0,0,1-3.88,8.8ZM10.1,8.585v7.639a1.489,1.489,0,0,0,1.487,1.487H26.079a1.489,1.489,0,0,0,1.487-1.487V8.585a2.586,2.586,0,0,0,2.05-2.527.468.468,0,0,0,0-.068L28.932.77a.852.852,0,0,0-.844-.74H9.583a.852.852,0,0,0-.844.74l-.68,5.219a.592.592,0,0,0,0,.068A2.587,2.587,0,0,0,10.1,8.585Zm-.892-2h2.844a1.517,1.517,0,0,1-2.844,0Zm14.915-5.5.291,4.435h-3V1.092Zm.231,5.5a1.519,1.519,0,0,1-2.846,0ZM17.285,16.649V12.58h3.1v4.069Zm8.794,0H21.448V12.367a.851.851,0,0,0-.85-.85H17.072a.851.851,0,0,0-.85.85v4.282H11.59a.424.424,0,0,1-.424-.424V8.585a2.584,2.584,0,0,0,1.517-.959,2.578,2.578,0,0,0,4.1,0,2.577,2.577,0,0,0,4.1,0,2.578,2.578,0,0,0,4.1,0,2.581,2.581,0,0,0,1.517.959v7.639A.424.424,0,0,1,26.079,16.649ZM13.312,6.59h2.846a1.519,1.519,0,0,1-2.846,0Zm4.1,0h2.844a1.518,1.518,0,0,1-2.844,0Zm9.621.988a1.52,1.52,0,0,1-1.421-.987h2.844A1.522,1.522,0,0,1,27.035,7.578ZM27.9,1.092l.578,4.435h-3l-.291-4.435ZM20.354,5.527H17.317V1.092h3.036Zm-4.1,0h-3l.291-4.435h2.712V5.527ZM9.769,1.092h2.709l-.291,4.435h-3Zm25.7,9.393L32.78,7.8a.884.884,0,0,0-1.249,0l-2.684,2.684a.882.882,0,0,0,.622,1.51h1.048v4.862a.859.859,0,0,0,.858.858h1.564a.859.859,0,0,0,.858-.858V11.991h1.048a.882.882,0,0,0,.624-1.507Zm-1.853.444a.884.884,0,0,0-.882.884v4.836H31.579V11.812a.884.884,0,0,0-.882-.884H29.9l2.253-2.253,2.253,2.253ZM6.3,17.711a.859.859,0,0,0,.858-.858V11.991H8.2a.886.886,0,0,0,.818-.547.876.876,0,0,0-.193-.959L6.14,7.8a.884.884,0,0,0-1.249,0L2.2,10.484a.883.883,0,0,0,.625,1.507H3.876v4.862a.859.859,0,0,0,.858.858ZM4.057,10.929H3.263L5.515,8.676l2.253,2.253H6.974a.884.884,0,0,0-.882.884v4.836H4.938V11.812a.884.884,0,0,0-.882-.884Z" transform="translate(0)"/>
    </g>
  </g>
</svg>
