<svg xmlns="http://www.w3.org/2000/svg" xmlns:xlink="http://www.w3.org/1999/xlink" width="120" height="120" viewBox="0 0 120 120">
  <defs>
    <filter id="Trazado_900495" x="0" y="0" width="120" height="120" filterUnits="userSpaceOnUse">
      <feOffset input="SourceAlpha"/>
      <feGaussianBlur stdDeviation="3" result="blur"/>
      <feFlood flood-color="#fff" flood-opacity="0.659"/>
      <feComposite operator="in" in2="blur"/>
      <feComposite in="SourceGraphic"/>
    </filter>
  </defs>
  <g id="Grupo_1112478" data-name="Grupo 1112478" transform="translate(-1263.051 -14899)">
    <g transform="matrix(1, 0, 0, 1, 1263.05, 14899)" filter="url(#Trazado_900495)">
      <path id="Trazado_900495-2" data-name="Trazado 900495" d="M51,0A51,51,0,1,1,0,51,51,51,0,0,1,51,0Z" transform="translate(9 9)" fill="#769671"/>
    </g>
    <g id="Grupo_1112441" data-name="Grupo 1112441" transform="translate(1290.086 14925.449)">
      <g id="Grupo_1112439" data-name="Grupo 1112439" transform="translate(1.066 1.066)">
        <g id="Grupo_1112421" data-name="Grupo 1112421" transform="translate(35.183)">
          <path id="Trazado_900549" data-name="Trazado 900549" d="M297.588,11.2V21.86a3.2,3.2,0,0,1-3.2,3.2H282.662l-3.824,3.823a1.509,1.509,0,0,1-2.573-1.066V25.058H275.2a3.2,3.2,0,0,1-3.2-3.2V11.2A3.2,3.2,0,0,1,275.2,8h19.191a3.2,3.2,0,0,1,3.2,3.2Z" transform="translate(-272 -8)" fill="#e6e9ed"/>
        </g>
        <g id="Grupo_1112422" data-name="Grupo 1112422" transform="translate(3.198 4.265)">
          <path id="Trazado_900550" data-name="Trazado 900550" d="M57.588,43.2v6.4a3.2,3.2,0,0,1-3.2,3.2H53.323v2.757a1.508,1.508,0,0,1-2.573,1.066l-3.823-3.823H35.2A3.2,3.2,0,0,1,32,49.6V43.2A3.2,3.2,0,0,1,35.2,40H54.389a3.2,3.2,0,0,1,3.2,3.2Z" transform="translate(-32 -40)" fill="#e6e9ed"/>
        </g>
        <g id="Grupo_1112423" data-name="Grupo 1112423" transform="translate(52.242 4.265)">
          <path id="Trazado_900551" data-name="Trazado 900551" d="M400,40h4.265v4.265H400Z" transform="translate(-400 -40)" fill="#ff826e"/>
        </g>
        <g id="Grupo_1112424" data-name="Grupo 1112424" transform="translate(7.463 8.529)">
          <path id="Trazado_900552" data-name="Trazado 900552" d="M64,72h4.265v4.265H64Z" transform="translate(-64 -72)" fill="#ff826e"/>
        </g>
        <g id="Grupo_1112425" data-name="Grupo 1112425" transform="translate(2.132 23.455)">
          <path id="Trazado_900553" data-name="Trazado 900553" d="M45.323,194.662H40.076a2.906,2.906,0,0,0-.236-.207,2.1,2.1,0,0,1-.914.207h-.562a2.133,2.133,0,0,1-.954-.225L34.142,192.8a2.588,2.588,0,0,0-3.745,2.315v1.677a2.132,2.132,0,1,0,0,4.265v5.331l-.205-.1A11.2,11.2,0,0,1,24,196.267V193.6a9.6,9.6,0,0,1,9.6-9.6h2.132a9.6,9.6,0,0,1,9.6,9.6Z" transform="translate(-24 -184)" fill="#b27946"/>
        </g>
        <g id="Grupo_1112426" data-name="Grupo 1112426" transform="translate(0 41.58)">
          <path id="Trazado_900554" data-name="Trazado 900554" d="M31.455,326.4V320h5.331v6.4a5.331,5.331,0,0,1-5.331,5.331h-3.2v-1.066H19.728v6.4H21.86v5.331H13.331A5.331,5.331,0,0,1,8,337.058V333.11a6.4,6.4,0,0,1,5.6-6.348l2.925-.365,3.2,3.2,3.2-3.185Z" transform="translate(-8 -320)" fill="#75b1f2"/>
        </g>
        <g id="Grupo_1112427" data-name="Grupo 1112427" transform="translate(11.728 52.242)">
          <path id="Trazado_900555" data-name="Trazado 900555" d="M104.529,401.066v7.463H102.4l-.052.009a2.667,2.667,0,0,0-2.613-2.142H96V400h8.529Z" transform="translate(-96 -400)" fill="#e6e9ed"/>
        </g>
        <g id="Grupo_1112428" data-name="Grupo 1112428" transform="translate(38.382 23.455)">
          <path id="Trazado_900556" data-name="Trazado 900556" d="M315.191,193.6v15.992h-6.4v-8.529a2.132,2.132,0,1,0,0-4.265v-1.066a2.132,2.132,0,0,0-2.132-2.132H296a9.6,9.6,0,1,1,19.191,0Z" transform="translate(-296 -184)" fill="#fcd770"/>
        </g>
        <g id="Grupo_1112429" data-name="Grupo 1112429" transform="translate(36.249 49.056)">
          <path id="Trazado_900557" data-name="Trazado 900557" d="M286.4,382.484v4.265h-2.132v2.132H283.2a3.2,3.2,0,0,1-3.2-3.2v-2.873a6.4,6.4,0,0,1,5.613-6.349l2.916-.36a2.119,2.119,0,0,0,2.119,2.119h2.146v8.529a4.265,4.265,0,0,0-4.265-4.265Z" transform="translate(-280 -376.1)" fill="#ff826e"/>
        </g>
        <g id="Grupo_1112430" data-name="Grupo 1112430" transform="translate(40.514 59.705)">
          <path id="Trazado_900558" data-name="Trazado 900558" d="M322.662,456a2.132,2.132,0,1,1,0,4.265h-8.529A2.132,2.132,0,0,1,312,458.132V456h10.662Z" transform="translate(-312 -456)" fill="#969faa"/>
        </g>
        <g id="Grupo_1112431" data-name="Grupo 1112431" transform="translate(51.175 59.705)">
          <path id="Trazado_900559" data-name="Trazado 900559" d="M404.794,456v2.132a2.132,2.132,0,0,1-2.132,2.132H392A2.132,2.132,0,1,0,392,456h12.794Z" transform="translate(-392 -456)" fill="#aab2bd"/>
        </g>
        <g id="Grupo_1112432" data-name="Grupo 1112432" transform="translate(53.308 49.043)">
          <path id="Trazado_900560" data-name="Trazado 900560" d="M418.662,378.132v8.529H408V376h8.529A2.132,2.132,0,0,1,418.662,378.132Z" transform="translate(-408 -376)" fill="#ccd1d9"/>
        </g>
        <g id="Grupo_1112433" data-name="Grupo 1112433" transform="translate(49.043 49.043)">
          <path id="Trazado_900561" data-name="Trazado 900561" d="M380.265,376v10.662H376v-8.529A2.132,2.132,0,0,1,378.132,376Z" transform="translate(-376 -376)" fill="#aab2bd"/>
        </g>
        <g id="Grupo_1112434" data-name="Grupo 1112434" transform="translate(42.646 55.44)">
          <path id="Trazado_900562" data-name="Trazado 900562" d="M334.4,428.265H328V424h2.132A4.265,4.265,0,0,1,334.4,428.265Z" transform="translate(-328 -424)" fill="#f0d0b4"/>
        </g>
        <g id="Grupo_1112435" data-name="Grupo 1112435" transform="translate(40.514 33.051)">
          <path id="Trazado_900563" data-name="Trazado 900563" d="M316.265,267.72c-.083.005-.168.008-.252.008h-.156A3.857,3.857,0,0,1,312,263.871v-5.739A2.132,2.132,0,0,1,314.132,256h6.4a2.132,2.132,0,0,1,2.132,2.132V259.2a2.132,2.132,0,1,1,0,4.265v8.529a2.132,2.132,0,0,0-2.132,2.132h-2.146a2.119,2.119,0,0,1-2.119-2.119v-4.278Z" transform="translate(-312 -256)" fill="#f0d0b4"/>
        </g>
        <g id="Grupo_1112436" data-name="Grupo 1112436" transform="translate(23.455 37.315)">
          <path id="Trazado_900564" data-name="Trazado 900564" d="M189.331,290.665v1.6H184v-1.6a2.665,2.665,0,1,1,5.331,0Z" transform="translate(-184 -288)" fill="#f0d0b4"/>
        </g>
        <g id="Grupo_1112437" data-name="Grupo 1112437" transform="translate(13.86 58.638)">
          <path id="Trazado_900565" data-name="Trazado 900565" d="M116.213,450.142a2.605,2.605,0,0,1,.052.524,2.665,2.665,0,0,1-2.665,2.665H112V448h1.6a2.667,2.667,0,0,1,2.613,2.142Z" transform="translate(-112 -448)" fill="#f0d0b4"/>
        </g>
        <g id="Grupo_1112438" data-name="Grupo 1112438" transform="translate(6.397 31.985)">
          <path id="Trazado_900566" data-name="Trazado 900566" d="M64.529,260.786v3.22l-3.2,3.185-3.2-3.2v-7.463a2.132,2.132,0,1,1,0-4.265v-1.677a2.588,2.588,0,0,1,3.745-2.315l3.268,1.634a2.133,2.133,0,0,0,.954.225h.562a2.1,2.1,0,0,0,.914-.207,2.906,2.906,0,0,1,.236.207h0a3.2,3.2,0,0,1,.981,2.306v4.5a3.857,3.857,0,0,1-3.857,3.857h-.156c-.084,0-.169,0-.252-.008Z" transform="translate(-56 -248)" fill="#f0d0b4"/>
        </g>
      </g>
      <g id="Grupo_1112440" data-name="Grupo 1112440">
        <path id="Trazado_900567" data-name="Trazado 900567" d="M27.187,189.859a3.736,3.736,0,0,0-3.732,3.732v6.932l-6.4.01v-1.123a4.93,4.93,0,0,0,4.265-4.878v-4.5a4.285,4.285,0,0,0-.183-1.239h4.448v-2.132A10.674,10.674,0,0,0,14.926,176H12.794A10.674,10.674,0,0,0,2.132,186.661v2.672a12.2,12.2,0,0,0,6.4,10.772v.541l-1.992.249A7.475,7.475,0,0,0,0,208.3v3.948a6.4,6.4,0,0,0,6.4,6.4H16.525a3.737,3.737,0,0,0,3.693-3.2h2.171v-7.463h2.132a6.4,6.4,0,0,0,6.4-6.4v-8A3.736,3.736,0,0,0,27.187,189.859Zm0,2.132a1.6,1.6,0,0,1,1.6,1.6v.533h-3.2v-.533A1.6,1.6,0,0,1,27.187,191.991Zm-8,2.54a2.794,2.794,0,0,1-2.791,2.791h-.156a2.776,2.776,0,0,1-2.5-1.543l-1.907.954a4.893,4.893,0,0,0,3.086,2.543v1.881L12.8,203.279l-2.134-2.134v-8.088H9.6a1.066,1.066,0,1,1,0-2.132h1.066v-2.743a1.522,1.522,0,0,1,2.2-1.361l3.268,1.634a3.214,3.214,0,0,0,1.431.338h.563a3.2,3.2,0,0,0,.623-.061,2.119,2.119,0,0,1,.444,1.3Zm-14.926-5.2v-2.672a8.539,8.539,0,0,1,8.529-8.529h2.132a8.539,8.539,0,0,1,8.529,8.529H21.14a3.2,3.2,0,0,0-3.015-4.265H17.058v2.132h1.066a1.066,1.066,0,0,1,0,2.132h-.563a1.072,1.072,0,0,1-.477-.113l-3.268-1.634a3.654,3.654,0,0,0-5.288,3.268v.794a3.2,3.2,0,0,0,0,6.031V197.6a10.07,10.07,0,0,1-4.265-8.263ZM2.132,212.248V208.3a5.339,5.339,0,0,1,4.67-5.29l2.408-.3,2.517,2.517v5.955H7.463v-4.265H5.331V212L4.377,213.9l1.907.954.771-1.543h6.8v3.2H6.4A4.269,4.269,0,0,1,2.132,212.248Zm14.393,4.265h-.533v-3.2h.533a1.6,1.6,0,0,1,0,3.2Zm3.732-3.2H19.9a3.736,3.736,0,0,0-3.371-2.132H13.86v-4.265h6.4Zm4.265-7.463H22.389v-1.066H14.3l2.129-2.12,7.43-.012.771,1.542,1.907-.954-.954-1.907v-5.079h3.2v5.331a4.269,4.269,0,0,1-4.265,4.265Z" transform="translate(0 -152.544)"/>
        <path id="Trazado_900568" data-name="Trazado 900568" d="M298.654,201.588h-3.2V186.662a10.662,10.662,0,1,0-21.323,0v1.066h2.316a3.183,3.183,0,0,0-.183,1.066v5.738a4.93,4.93,0,0,0,4.265,4.878v2.314l-1.98.245A7.472,7.472,0,0,0,272,209.376v2.874a4.269,4.269,0,0,0,4.265,4.265h.183a3.2,3.2,0,0,0,3.015,2.132h19.191a3.2,3.2,0,0,0,3.2-3.2V204.786A3.2,3.2,0,0,0,298.654,201.588Zm-13.86-23.455a8.539,8.539,0,0,1,8.529,8.529v14.926h-4.265v-6.58a3.2,3.2,0,0,0,0-6.031v-.183a3.2,3.2,0,0,0-3.2-3.2h-9.529A8.542,8.542,0,0,1,284.794,178.132Zm3.2,34.117h-1.066v-7.463a1.067,1.067,0,0,1,1.066-1.066h1.066v8.529Zm-9.6-17.717v-5.738a1.067,1.067,0,0,1,1.066-1.066h6.4a1.067,1.067,0,0,1,1.066,1.066v2.132h1.066a1.066,1.066,0,0,1,0,2.132h-1.066v8.713a3.214,3.214,0,0,0-1.949,1.949h-1.263a1.054,1.054,0,0,1-1.053-1.053v-3.39a4.893,4.893,0,0,0,3.086-2.543l-1.907-.954a2.776,2.776,0,0,1-2.5,1.543h-.156A2.794,2.794,0,0,1,278.4,194.532Zm-4.265,17.717v-2.874a5.337,5.337,0,0,1,4.678-5.291l1.946-.24a3.19,3.19,0,0,0,2.958,2.007h1.079v3.2a5.3,5.3,0,0,0-3.2-1.069h-1.066v-2.132H278.4v2.132h-2.132v2.132H278.4v2.132h-2.132v2.132A2.135,2.135,0,0,1,274.132,212.249Zm10.478,0h-4.081v-2.132H281.6A3.2,3.2,0,0,1,284.61,212.249Zm2.316,4.265h-7.463a1.067,1.067,0,0,1-1.066-1.066v-1.066h9.6a1.066,1.066,0,1,1,0,2.132Zm12.794-1.066a1.067,1.067,0,0,1-1.066,1.066h-7.646a3.191,3.191,0,0,0,0-2.132h8.713Zm-8.529-3.2V203.72h7.463a1.067,1.067,0,0,1,1.066,1.066v7.463Z" transform="translate(-235.751 -152.545)"/>
        <path id="Trazado_900569" data-name="Trazado 900569" d="M47.455,32H28.265A4.269,4.269,0,0,0,24,36.265v6.4a4.269,4.269,0,0,0,4.265,4.265H39.551l3.511,3.511a2.574,2.574,0,0,0,4.394-1.82V46.926a4.269,4.269,0,0,0,4.265-4.265v-6.4A4.269,4.269,0,0,0,47.455,32Zm2.132,10.662a2.135,2.135,0,0,1-2.132,2.132H45.323v3.823a.441.441,0,0,1-.754.312l-4.135-4.135H28.265a2.135,2.135,0,0,1-2.132-2.132v-6.4a2.135,2.135,0,0,1,2.132-2.132H47.455a2.135,2.135,0,0,1,2.132,2.132Z" transform="translate(-20.802 -27.735)"/>
        <path id="Trazado_900570" data-name="Trazado 900570" d="M268.265,19.191v1.691a2.574,2.574,0,0,0,4.394,1.82l3.511-3.511h11.286a4.269,4.269,0,0,0,4.265-4.265V4.265A4.269,4.269,0,0,0,287.455,0H268.265A4.269,4.269,0,0,0,264,4.265V14.926A4.269,4.269,0,0,0,268.265,19.191ZM266.132,4.265a2.135,2.135,0,0,1,2.132-2.132h19.191a2.135,2.135,0,0,1,2.132,2.132V14.926a2.135,2.135,0,0,1-2.132,2.132H275.286l-4.135,4.135a.442.442,0,0,1-.754-.312V17.058h-2.132a2.135,2.135,0,0,1-2.132-2.132Z" transform="translate(-228.817)"/>
        <path id="Trazado_900571" data-name="Trazado 900571" d="M296,32h10.662v2.132H296Z" transform="translate(-256.552 -27.735)"/>
        <path id="Trazado_900572" data-name="Trazado 900572" d="M398.4,32H392v6.4h6.4Zm-2.132,4.265h-2.132V34.132h2.132Z" transform="translate(-339.758 -27.735)"/>
        <path id="Trazado_900573" data-name="Trazado 900573" d="M296,64h10.662v2.132H296Z" transform="translate(-256.552 -55.471)"/>
        <path id="Trazado_900574" data-name="Trazado 900574" d="M120,64h10.662v2.132H120Z" transform="translate(-104.008 -55.471)"/>
        <path id="Trazado_900575" data-name="Trazado 900575" d="M56,70.4h6.4V64H56Zm2.132-4.265h2.132v2.132H58.132Z" transform="translate(-48.537 -55.471)"/>
        <path id="Trazado_900576" data-name="Trazado 900576" d="M120,96h10.662v2.132H120Z" transform="translate(-104.008 -83.206)"/>
        <path id="Trazado_900577" data-name="Trazado 900577" d="M296,96h19.191v2.132H296Z" transform="translate(-256.552 -83.206)"/>
      </g>
    </g>
  </g>
</svg>
