<svg xmlns="http://www.w3.org/2000/svg" xmlns:xlink="http://www.w3.org/1999/xlink" width="120" height="120" viewBox="0 0 120 120">
  <defs>
    <filter id="Trazado_900494" x="0" y="0" width="120" height="120" filterUnits="userSpaceOnUse">
      <feOffset input="SourceAlpha"/>
      <feGaussianBlur stdDeviation="3" result="blur"/>
      <feFlood flood-color="#fff" flood-opacity="0.659"/>
      <feComposite operator="in" in2="blur"/>
      <feComposite in="SourceGraphic"/>
    </filter>
  </defs>
  <g id="Grupo_1112479" data-name="Grupo 1112479" transform="translate(-1263.051 -15042)">
    <g transform="matrix(1, 0, 0, 1, 1263.05, 15042)" filter="url(#Trazado_900494)">
      <path id="Trazado_900494-2" data-name="Trazado 900494" d="M51,0A51,51,0,1,1,0,51,51,51,0,0,1,51,0Z" transform="translate(9 9)" fill="#769671"/>
    </g>
    <g id="Grupo_1112442" data-name="Grupo 1112442" transform="translate(1290.086 15068.949)">
      <path id="Trazado_900578" data-name="Trazado 900578" d="M65.562,270.669h49.173L92.747,247.426a3.577,3.577,0,0,0-5.2,0Z" transform="translate(-57.098 -214.508)" fill="#7dafc9"/>
      <path id="Trazado_900579" data-name="Trazado 900579" d="M245.535,247.431a3.578,3.578,0,0,0-4.535-.549,3.588,3.588,0,0,1,.662.549l21.988,23.243h3.873Z" transform="translate(-209.886 -214.512)" fill="#6297b3"/>
      <path id="Trazado_900580" data-name="Trazado 900580" d="M7.5,296.813H32.087L10.1,277.268a6.943,6.943,0,0,0-2.6-.941Z" transform="translate(-6.532 -240.652)" fill="#4caf50"/>
      <path id="Trazado_900581" data-name="Trazado 900581" d="M10.1,277.269a6.943,6.943,0,0,0-2.6-.941V278.4l20.713,18.411h3.873Z" transform="translate(-6.532 -240.653)" fill="#43a047"/>
      <path id="Trazado_900582" data-name="Trazado 900582" d="M338.612,270.668H314.026l21.988-23.243a6.247,6.247,0,0,1,2.6-1.119v24.361Z" transform="translate(-273.484 -214.507)" fill="#4caf50"/>
      <path id="Trazado_900583" data-name="Trazado 900583" d="M475.738,247.426l-1.275,1.348v21.895h3.873V246.307A6.245,6.245,0,0,0,475.738,247.426Z" transform="translate(-413.207 -214.507)" fill="#43a047"/>
      <path id="Trazado_900584" data-name="Trazado 900584" d="M68.438,443.973H11.373A3.873,3.873,0,0,1,7.5,440.1V435H71.665v5.745A3.228,3.228,0,0,1,68.438,443.973Z" transform="translate(-6.532 -378.839)" fill="#bf6724"/>
      <path id="Trazado_900585" data-name="Trazado 900585" d="M452.728,435v5.745a3.228,3.228,0,0,1-3.228,3.228h3.873a3.228,3.228,0,0,0,3.228-3.228V435Z" transform="translate(-391.467 -378.839)" fill="#a35418"/>
      <path id="Trazado_900586" data-name="Trazado 900586" d="M158.4,259.861l20.27-25.963,20.27,25.963Z" transform="translate(-137.952 -203.701)" fill="#e6e6e6"/>
      <path id="Trazado_900587" data-name="Trazado 900587" d="M302.34,233.9l-1.937,2.481,18.333,23.483h3.873Z" transform="translate(-261.619 -203.701)" fill="#d4d4d4"/>
      <path id="Trazado_900588" data-name="Trazado 900588" d="M270.371,322.313l5.814-16.705L282,322.313Z" transform="translate(-235.465 -266.152)" fill="#3b7191"/>
      <path id="Trazado_900589" data-name="Trazado 900589" d="M35.387,192.476H7.5v-3.615A11.361,11.361,0,0,1,18.861,177.5h5.164a11.361,11.361,0,0,1,11.361,11.361Z" transform="translate(-6.532 -154.584)" fill="#9ccc65"/>
      <path id="Trazado_900590" data-name="Trazado 900590" d="M109.373,177.5H105.5a11.361,11.361,0,0,1,11.361,11.361v3.615h3.873v-3.615A11.361,11.361,0,0,0,109.373,177.5Z" transform="translate(-91.879 -154.584)" fill="#8bc34a"/>
      <path id="Trazado_900591" data-name="Trazado 900591" d="M50.223,93.894H27.5V91.828A10.328,10.328,0,0,1,37.828,81.5h2.066A10.328,10.328,0,0,1,50.223,91.828Z" transform="translate(-23.95 -70.978)" fill="#8bc34a"/>
      <path id="Trazado_900592" data-name="Trazado 900592" d="M103.469,81.5H101.4q-.457,0-.9.039a10.329,10.329,0,0,1,9.425,10.289v2.066H113.8V91.828A10.328,10.328,0,0,0,103.469,81.5Z" transform="translate(-87.525 -70.978)" fill="#7cb342"/>
      <path id="Trazado_900593" data-name="Trazado 900593" d="M65.8,17.054H48.5V15.246A7.746,7.746,0,0,1,56.246,7.5h1.807A7.746,7.746,0,0,1,65.8,15.246Z" transform="translate(-42.238 -6.532)" fill="#9ccc65"/>
      <path id="Trazado_900594" data-name="Trazado 900594" d="M103.34,7.5h-1.807a7.811,7.811,0,0,0-1.033.068,7.748,7.748,0,0,1,6.713,7.678v1.807h3.873V15.246A7.746,7.746,0,0,0,103.34,7.5Z" transform="translate(-87.525 -6.532)" fill="#8bc34a"/>
      <path id="Trazado_900595" data-name="Trazado 900595" d="M95.5,293.5h5.164v18.268H95.5Z" transform="translate(-83.17 -255.608)" fill="#a35418"/>
      <circle id="Elipse_12153" data-name="Elipse 12153" cx="6.455" cy="6.455" r="6.455" transform="translate(47.317 5.874)" fill="#ffca28"/>
      <path id="Trazado_900596" data-name="Trazado 900596" d="M403.437,45.5a6.45,6.45,0,0,0-1.937.3,6.458,6.458,0,0,1,0,12.319A6.456,6.456,0,1,0,403.437,45.5Z" transform="translate(-349.664 -39.626)" fill="#ffb300"/>
      <path id="Trazado_900597" data-name="Trazado 900597" d="M66.1,31.8a.968.968,0,0,0-1.156-.95,6.744,6.744,0,0,0-3.114,1.4L51.815,42.836,49.834,40.3a.968.968,0,0,0-1.527,1.192l2.668,3.418.011.013,8.019,10.272H47.222L41.635,39.138a.969.969,0,0,0-1.829,0L34.218,55.193H22.435L40.72,31.771l5.045,6.462a.968.968,0,0,0,1.527-1.192L41.484,29.6a.969.969,0,0,0-1.527,0l-2.764,3.54c-.506-.406-1.592-2.31-4.142-2.31a4.5,4.5,0,0,0-3.3,1.421l-.079.084a12.355,12.355,0,0,0-5.55-8.452h2.152a.968.968,0,0,0,.968-.968V20.851a11.294,11.294,0,0,0-4.978-9.36h1.3a.968.968,0,0,0,.968-.968V8.715A8.724,8.724,0,0,0,15.815,0H14.008A8.656,8.656,0,0,0,8.952,1.616a.968.968,0,1,0,1.125,1.577,6.73,6.73,0,0,1,3.931-1.256h1.807a6.786,6.786,0,0,1,6.778,6.778v.839H7.23V8.715a6.726,6.726,0,0,1,.58-2.749A.968.968,0,1,0,6.04,5.18a8.651,8.651,0,0,0-.747,3.535v1.807a.968.968,0,0,0,.968.968h1.3a11.294,11.294,0,0,0-4.978,9.36v2.066a.968.968,0,0,0,.968.968H5.7A12.331,12.331,0,0,0,0,34.278V61.261A4.847,4.847,0,0,0,4.841,66.1H8.233a.968.968,0,0,0,0-1.937H4.841a2.908,2.908,0,0,1-2.9-2.9V57.129H64.165v4.777a2.262,2.262,0,0,1-2.259,2.259H12.33a.968.968,0,0,0,0,1.937H61.906a4.2,4.2,0,0,0,4.2-4.2V56.161c0-.033,0-.065,0-.1ZM18.462,55.193V51.151L21.22,53.6l-1.241,1.59H18.462ZM23.5,38.861l-5.036,5.323V38.861Zm7.659-5.278a2.582,2.582,0,0,1,1.894-.815c1.6,0,2.166,1.249,2.937,1.918L22.414,52.073l-3.952-3.512V47l7.7-8.141h2.691a.968.968,0,0,0,.968-.968v-2.9ZM4.519,21.948v-1.1a9.371,9.371,0,0,1,9.36-9.36h2.066a9.371,9.371,0,0,1,9.36,9.36v1.1ZM1.937,34.278A10.4,10.4,0,0,1,12.33,23.885h5.164A10.4,10.4,0,0,1,27.887,34.278v2.647H1.937Zm9.425,7.971L7.55,38.861h3.812ZM1.937,38.861h2.7l6.727,5.979V55.193H1.937ZM13.3,55.193V38.861h3.228V55.193Zm22.971,0L40.72,42.4l4.451,12.791ZM53.021,44.38l10.213-10.8a2.718,2.718,0,0,1,.926-.5V55.193h-2.7Z" transform="translate(0 0)"/>
      <path id="Trazado_900598" data-name="Trazado 900598" d="M366.424,52.847A7.424,7.424,0,1,0,359,45.424,7.432,7.432,0,0,0,366.424,52.847Zm0-12.911a5.487,5.487,0,1,1-5.487,5.487A5.493,5.493,0,0,1,366.424,39.937Z" transform="translate(-312.651 -33.094)"/>
      <path id="Trazado_900599" data-name="Trazado 900599" d="M409.968,4a.968.968,0,0,0,.968-.968V.968a.968.968,0,0,0-1.937,0V3.034A.968.968,0,0,0,409.968,4Z" transform="translate(-356.196)"/>
      <path id="Trazado_900600" data-name="Trazado 900600" d="M409,160.968v2.066a.968.968,0,1,0,1.937,0v-2.066a.968.968,0,1,0-1.937,0Z" transform="translate(-356.196 -139.343)"/>
      <path id="Trazado_900601" data-name="Trazado 900601" d="M461.565,28.89l1.461-1.461a.968.968,0,0,0-1.369-1.369L460.2,27.52a.968.968,0,0,0,1.369,1.369Z" transform="translate(-400.535 -22.448)"/>
      <path id="Trazado_900602" data-name="Trazado 900602" d="M348.518,139.2l-1.461,1.461a.968.968,0,1,0,1.369,1.369l1.461-1.461a.968.968,0,0,0-1.369-1.369Z" transform="translate(-302.004 -120.978)"/>
      <path id="Trazado_900603" data-name="Trazado 900603" d="M481,88.968a.968.968,0,0,0,.968.968h2.066a.968.968,0,0,0,0-1.937h-2.066A.968.968,0,0,0,481,88.968Z" transform="translate(-418.9 -76.639)"/>
      <path id="Trazado_900604" data-name="Trazado 900604" d="M321.968,89.937h2.066a.968.968,0,0,0,0-1.937h-2.066a.968.968,0,0,0,0,1.937Z" transform="translate(-279.557 -76.639)"/>
      <path id="Trazado_900605" data-name="Trazado 900605" d="M460.195,139.2a.968.968,0,0,0,0,1.369l1.461,1.461a.968.968,0,1,0,1.369-1.369l-1.461-1.461A.969.969,0,0,0,460.195,139.2Z" transform="translate(-400.534 -120.978)"/>
      <path id="Trazado_900606" data-name="Trazado 900606" d="M348.518,28.89a.968.968,0,1,0,1.369-1.369l-1.461-1.461a.968.968,0,1,0-1.369,1.369Z" transform="translate(-302.004 -22.448)"/>
    </g>
  </g>
</svg>
