<svg xmlns="http://www.w3.org/2000/svg" xmlns:xlink="http://www.w3.org/1999/xlink" width="120" height="120" viewBox="0 0 120 120">
  <defs>
    <filter id="Trazado_876318" x="0" y="0" width="120" height="120" filterUnits="userSpaceOnUse">
      <feOffset input="SourceAlpha"/>
      <feGaussianBlur stdDeviation="3" result="blur"/>
      <feFlood flood-color="#fff" flood-opacity="0.659"/>
      <feComposite operator="in" in2="blur"/>
      <feComposite in="SourceGraphic"/>
    </filter>
  </defs>
  <g id="Grupo_1112480" data-name="Grupo 1112480" transform="translate(-1263.051 -15182)">
    <g transform="matrix(1, 0, 0, 1, 1263.05, 15182)" filter="url(#Trazado_876318)">
      <path id="Trazado_876318-2" data-name="Trazado 876318" d="M51,0A51,51,0,1,1,0,51,51,51,0,0,1,51,0Z" transform="translate(9 9)" fill="#769671"/>
    </g>
    <g id="Grupo_1112443" data-name="Grupo 1112443" transform="translate(1288.914 15207.863)">
      <path id="Trazado_900607" data-name="Trazado 900607" d="M66.137,44v2.138l-9.62,4.276-2.138,4.276H47.965l-3.207,5.345L34.068,63.241l-9.62-4.276L19.1,53.62H12.689L2,46.138V44Z" transform="translate(0.069 2.965)" fill="#a67763"/>
      <path id="Trazado_900608" data-name="Trazado 900608" d="M66.137,44v2.138l-9.62,4.276-2.138,4.276H47.965l-3.207,5.345L34.068,63.241l-9.62-4.276L19.1,53.62H12.689L2,46.138V44h9.674l2.8,2.138h5.879l4.9,5.345,8.819,4.276,9.8-3.207,2.94-5.345h5.879L54.154,44Z" transform="translate(0.069 2.965)" fill="#b3806a"/>
      <path id="Trazado_900609" data-name="Trazado 900609" d="M66.137,44v2.138l-9.62,4.276-2.138,4.276H47.965l-3.207,5.345L34.068,63.241l-9.62-4.276L19.1,53.62H12.689L2,46.138V44H8.98l4.425,3.207h6.2l5.163,5.345,9.3,4.276L44.4,53.62l3.1-5.345h6.2L55.768,44Z" transform="translate(0.069 2.965)" fill="#bf8971"/>
      <path id="Trazado_900610" data-name="Trazado 900610" d="M66.137,44v2.138l-9.62,4.276-2.138,4.265v.011H47.965l-3.207,5.334v.011L34.068,63.241l-9.62-4.276L19.1,53.62H12.689L2,46.138V44H5.046l7.643,5.345H19.1l5.345,5.345,9.62,4.276,10.689-3.207,3.207-5.345h6.414l2.138-4.276L61.326,44Z" transform="translate(0.069 2.965)" fill="#a67763"/>
      <path id="Trazado_900611" data-name="Trazado 900611" d="M66.137,43.99v2.138L56.516,50.4v.011l-2.138,4.265H47.965v.011l-3.207,5.334L34.068,63.231l-9.62-4.276L19.1,53.621V53.61H12.689L2,46.128V43.99H5.036L5.046,44l7.643,5.345H19.1l5.345,5.345,9.62,4.276,10.689-3.207,3.207-5.345h6.414l2.138-4.276L61.326,44l.021-.011Z" transform="translate(0.069 2.964)" fill="#cc927a"/>
      <path id="Trazado_900612" data-name="Trazado 900612" d="M57.241,42.92V31.172a4.286,4.286,0,0,0,4.276-4.3v-8.53A5.765,5.765,0,0,0,56.172,13H49.758a5.34,5.34,0,0,0-5.345,5.345v5.345H40.138a2.138,2.138,0,1,0,0,4.276h8.552V42.909h8.552Z" transform="translate(2.551 0.827)" fill="#7390bf"/>
      <ellipse id="Elipse_12154" data-name="Elipse 12154" cx="4.5" cy="4" rx="4.5" ry="4" transform="translate(51.137 2.137)" fill="#ffc9b9"/>
      <path id="Trazado_900613" data-name="Trazado 900613" d="M2,40.99H66.137V44.2H2Z" transform="translate(0.069 2.757)" fill="#36b385"/>
      <path id="Trazado_900614" data-name="Trazado 900614" d="M36.347,19.679,34,17.627A9.4,9.4,0,0,1,31,11.662c-.289-2.394,1.229-.417,1.229-.417a13.715,13.715,0,0,0,3.57-1.86l.545-.4.545.4a13.885,13.885,0,0,0,3.57,1.86l1.229.417A9.4,9.4,0,0,1,38.7,17.627Z" transform="translate(2.066 0.551)" fill="#ffda73"/>
      <path id="Trazado_900615" data-name="Trazado 900615" d="M30.181,31.136a22.2,22.2,0,0,0-2.875-6.04l-.064-.1-.064.1a22.2,22.2,0,0,0-2.875,6.04,21.169,21.169,0,0,0-.78,3.634,2.541,2.541,0,0,0,.78,2.149,3.252,3.252,0,0,0,2.277.9H27.9a3.252,3.252,0,0,0,2.277-.9V31.125Z" transform="translate(1.551 1.655)" fill="#ffda73"/>
      <path id="Trazado_900616" data-name="Trazado 900616" d="M33.4,37.827H32.078a2.88,2.88,0,0,1-3.057-3.057A22.226,22.226,0,0,1,32.677,25.1l.064-.1.064.1a22.226,22.226,0,0,1,3.656,9.674A2.891,2.891,0,0,1,33.4,37.827Z" transform="translate(1.931 1.655)" fill="#36b385"/>
      <path id="Trazado_900617" data-name="Trazado 900617" d="M22.586,24.827a4.046,4.046,0,0,0,.673-8.038v-.064a4.735,4.735,0,0,0-9.471,0v.064a4.046,4.046,0,0,0,.673,8.038Z" transform="translate(0.648 0.758)" fill="#36b385"/>
      <ellipse id="Elipse_12155" data-name="Elipse 12155" cx="3.5" cy="5" rx="3.5" ry="5" transform="translate(8.137 29.137)" fill="#ffda73"/>
      <path id="Trazado_900618" data-name="Trazado 900618" d="M8.879,35.306c-.577,1.432-1.561,2.384-2.672,2.384C4.432,37.689,3,35.295,3,32.345S4.432,27,6.207,27c1.112,0,2.1.951,2.672,2.384Z" transform="translate(0.138 1.792)" fill="#e66d67"/>
      <path id="Trazado_900619" data-name="Trazado 900619" d="M52.345,1a5.345,5.345,0,1,0,5.345,5.345A5.347,5.347,0,0,0,52.345,1Zm0,8.552a3.207,3.207,0,1,1,3.207-3.207A3.216,3.216,0,0,1,52.345,9.552Z" transform="translate(3.171)"/>
      <path id="Trazado_900620" data-name="Trazado 900620" d="M66.205,41.989H60.861V32.262a5.375,5.375,0,0,0,4.276-5.249v-8.53a6.846,6.846,0,0,0-6.414-6.414H52.309A6.419,6.419,0,0,0,45.9,18.483v4.276H42.689a3.207,3.207,0,1,0,0,6.414h7.483V41.989H35.741V39.809a4.187,4.187,0,0,0,2.811-1.368,3.6,3.6,0,0,0,.9-2.843,23.5,23.5,0,0,0-3.827-10.144l-.064-.1a1.113,1.113,0,0,0-1.774,0l-.064.1a24.157,24.157,0,0,0-2,3.581,23.326,23.326,0,0,0-1.967-3.57l-.064-.1a1.111,1.111,0,0,0-1.8,0l-.053.075a23.376,23.376,0,0,0-3.014,6.328A23.922,23.922,0,0,0,24,35.586a3.634,3.634,0,0,0,1.09,3.057,4.254,4.254,0,0,0,2.619,1.165v2.181H20.23V25.955h2.993A5.117,5.117,0,0,0,24.912,16a5.805,5.805,0,0,0-11.5,0A5.117,5.117,0,0,0,15.1,25.955h2.993V41.989H12.748V39.648c1.86-.695,3.207-3.175,3.207-6.211,0-3.592-1.881-6.414-4.276-6.414A3.491,3.491,0,0,0,9.006,28.4a3.508,3.508,0,0,0-2.672-1.379c-2.394,0-4.276,2.822-4.276,6.414,0,3.036,1.347,5.516,3.207,6.211v2.341h-3.2A1.072,1.072,0,0,0,1,43.058V48.4a1.065,1.065,0,0,0,.46.877l10.689,7.483a1.056,1.056,0,0,0,.609.192h5.975l5.035,5.035a1.089,1.089,0,0,0,.321.224l9.62,4.276a1.046,1.046,0,0,0,.438.1,1.033,1.033,0,0,0,.31-.043l10.689-3.207a1.073,1.073,0,0,0,.609-.47l2.9-4.821h5.8a1.044,1.044,0,0,0,.951-.588l1.967-3.934,9.268-4.115a1.067,1.067,0,0,0,.631-.973V43.09a1.072,1.072,0,0,0-1.069-1.069ZM42.689,27.035a1.069,1.069,0,1,1,0-2.138h4.276a1.072,1.072,0,0,0,1.069-1.069V18.483a4.275,4.275,0,0,1,4.276-4.276h6.414A4.706,4.706,0,0,1,63,18.483v8.53a3.232,3.232,0,0,1-2.138,3.025V23.828a1.069,1.069,0,1,0-2.138,0V41.989H56.585v-9.62a1.069,1.069,0,1,0-2.138,0v9.62H52.309V22.748a1.069,1.069,0,1,0-2.138,0v4.286ZM32.01,35.864a20.852,20.852,0,0,1,2.662-7.9,20.852,20.852,0,0,1,2.662,7.9,1.455,1.455,0,0,1-.385,1.165,2.127,2.127,0,0,1-1.614.684H34.009a2.127,2.127,0,0,1-1.614-.684A1.467,1.467,0,0,1,32.01,35.864Zm-.267,3.346a4.29,4.29,0,0,0,1.86.6v2.181H29.861V39.809a4.392,4.392,0,0,0,1.881-.609ZM26.6,37.126a1.51,1.51,0,0,1-.47-1.261,19.715,19.715,0,0,1,.748-3.463,20.376,20.376,0,0,1,1.913-4.425,20.54,20.54,0,0,1,1.817,4.137,22.8,22.8,0,0,0-.727,3.5,3.483,3.483,0,0,0,.342,1.978,2.348,2.348,0,0,1-.78.139H28.119a2.2,2.2,0,0,1-1.529-.588ZM15.11,23.817a2.981,2.981,0,0,1-.5-5.922,1.126,1.126,0,0,0,.887-1.112,3.667,3.667,0,1,1,7.333.064,1.068,1.068,0,0,0,.9,1.058,2.981,2.981,0,0,1-.5,5.922H20.23V21.872L21.909,21a1.071,1.071,0,1,0-.983-1.9l-.695.363v-.973a1.069,1.069,0,1,0-2.138,0v.973l-.695-.363a1.071,1.071,0,1,0-.983,1.9l1.678.877v1.956H15.1Zm-3.421,5.345c1,0,2.138,1.828,2.138,4.276s-1.133,4.276-2.138,4.276-2.138-1.828-2.138-4.276S10.685,29.162,11.689,29.162Zm-2.672,9.31a3.928,3.928,0,0,0,1.6,1.176v2.341H7.414v-2.33a4.073,4.073,0,0,0,1.6-1.176Zm-4.81-5.035c0-2.448,1.133-4.276,2.138-4.276.534,0,1.112.524,1.529,1.368a9.263,9.263,0,0,0-.46,2.908,8.965,8.965,0,0,0,.46,2.908c-.417.844-.994,1.368-1.529,1.368C5.34,37.714,4.207,35.886,4.207,33.438Zm60.93,14.27-8.99,4a1.085,1.085,0,0,0-.524.5L53.784,55.9H48.033a1.058,1.058,0,0,0-.919.524l-2.993,4.992-9.909,2.972-9.075-4.03-5.206-5.206a1.058,1.058,0,0,0-.759-.31H13.1l-9.963-6.97v-.513h62v.374Zm0-2.512h-62V44.127h62Z" transform="translate(0 0.689)"/>
      <path id="Trazado_900621" data-name="Trazado 900621" d="M15.069,49.128h2.138a1.069,1.069,0,0,0,0-2.138H15.069a1.069,1.069,0,0,0,0,2.138Z" transform="translate(0.896 3.171)"/>
      <path id="Trazado_900622" data-name="Trazado 900622" d="M35.069,57.128h3.207a1.069,1.069,0,1,0,0-2.138H35.069a1.069,1.069,0,1,0,0,2.138Z" transform="translate(2.275 3.722)"/>
      <path id="Trazado_900623" data-name="Trazado 900623" d="M48.069,49.128h2.138a1.069,1.069,0,0,0,0-2.138H48.069a1.069,1.069,0,0,0,0,2.138Z" transform="translate(3.171 3.171)"/>
      <path id="Trazado_900624" data-name="Trazado 900624" d="M25.069,54.128h2.138a1.069,1.069,0,1,0,0-2.138H25.069a1.069,1.069,0,1,0,0,2.138Z" transform="translate(1.586 3.515)"/>
      <path id="Trazado_900625" data-name="Trazado 900625" d="M36.069,50.128h3.207a1.069,1.069,0,1,0,0-2.138H36.069a1.069,1.069,0,1,0,0,2.138Z" transform="translate(2.344 3.24)"/>
      <path id="Trazado_900626" data-name="Trazado 900626" d="M40.872,10.3a12.434,12.434,0,0,1-3.292-1.721l-.545-.4a1.076,1.076,0,0,0-1.251,0l-.545.4A12.6,12.6,0,0,1,31.946,10.3l-1.229.417A1.07,1.07,0,0,0,30,11.849a10.494,10.494,0,0,0,3.346,6.638L35.7,20.54a1.065,1.065,0,0,0,1.411,0l2.352-2.052a10.47,10.47,0,0,0,3.346-6.638,1.051,1.051,0,0,0-.716-1.133L40.861,10.3Zm-2.811,6.6-1.646,1.443-1.646-1.443a8.106,8.106,0,0,1-2.491-4.436l.374-.128a14.883,14.883,0,0,0,3.773-1.945A14.707,14.707,0,0,0,40.2,12.33l.374.128a8.068,8.068,0,0,1-2.491,4.436Z" transform="translate(1.999 0.481)"/>
    </g>
  </g>
</svg>
