<svg xmlns="http://www.w3.org/2000/svg" xmlns:xlink="http://www.w3.org/1999/xlink" width="120" height="120" viewBox="0 0 120 120">
  <defs>
    <filter id="Trazado_900493" x="0" y="0" width="120" height="120" filterUnits="userSpaceOnUse">
      <feOffset input="SourceAlpha"/>
      <feGaussianBlur stdDeviation="3" result="blur"/>
      <feFlood flood-color="#fff" flood-opacity="0.659"/>
      <feComposite operator="in" in2="blur"/>
      <feComposite in="SourceGraphic"/>
    </filter>
  </defs>
  <g id="Grupo_1112481" data-name="Grupo 1112481" transform="translate(-1263.051 -15330)">
    <g transform="matrix(1, 0, 0, 1, 1263.05, 15330)" filter="url(#Trazado_900493)">
      <path id="Trazado_900493-2" data-name="Trazado 900493" d="M51,0A51,51,0,1,1,0,51,51,51,0,0,1,51,0Z" transform="translate(9 9)" fill="#769671"/>
    </g>
    <g id="Grupo_1112472" data-name="Grupo 1112472" transform="translate(1289.914 15356.863)">
      <g id="Grupo_1112470" data-name="Grupo 1112470" transform="translate(1.069 1.069)">
        <g id="Grupo_1112444" data-name="Grupo 1112444" transform="translate(51.309 24.585)">
          <path id="Trazado_900627" data-name="Trazado 900627" d="M397.345,192a5.347,5.347,0,0,1,5.345,5.345v1.069H392v-1.069A5.345,5.345,0,0,1,397.345,192Z" transform="translate(-392 -192)" fill="#ff826e"/>
        </g>
        <g id="Grupo_1112445" data-name="Grupo 1112445" transform="translate(51.309 13.896)">
          <path id="Trazado_900628" data-name="Trazado 900628" d="M396.206,112.122A5.347,5.347,0,1,1,392,117.345,5.335,5.335,0,0,1,396.206,112.122Z" transform="translate(-392 -112)" fill="#f0d0b4"/>
        </g>
        <g id="Grupo_1112446" data-name="Grupo 1112446" transform="translate(51.346 3.207)">
          <path id="Trazado_900629" data-name="Trazado 900629" d="M405.07,38.414a6.412,6.412,0,0,1-3.724,5.822,5.352,5.352,0,0,0-4.9-1.424,6.423,6.423,0,0,0-4.169-5.087,6.413,6.413,0,0,1,12.79.689Z" transform="translate(-392.28 -32)" fill="#b27946"/>
        </g>
        <g id="Grupo_1112447" data-name="Grupo 1112447" transform="translate(42.757 8.551)">
          <path id="Trazado_900630" data-name="Trazado 900630" d="M332.913,72.178a6.414,6.414,0,0,1,7.845,5.289,5.347,5.347,0,0,0-3.939,6.893,6.412,6.412,0,0,1-6.875-1.348,8.532,8.532,0,0,0-1.889-3.78,0,0,0,0,1,0,0,6.577,6.577,0,0,1-.053-.816A6.415,6.415,0,0,1,332.913,72.178Z" transform="translate(-328 -72)" fill="#656d78"/>
        </g>
        <g id="Grupo_1112448" data-name="Grupo 1112448" transform="translate(35.636)">
          <path id="Trazado_900631" data-name="Trazado 900631" d="M287.166,14.414a6.43,6.43,0,0,1-.432,2.316,6.415,6.415,0,0,0-4.913,6.236,6.583,6.583,0,0,0,.053.816,8.547,8.547,0,0,0-5.239-2.866A6.416,6.416,0,0,0,274.7,12.29a6.414,6.414,0,0,1,12.466,2.123Z" transform="translate(-274.7 -8)" fill="#fcd770"/>
        </g>
        <g id="Grupo_1112449" data-name="Grupo 1112449" transform="translate(25.654 3.207)">
          <path id="Trazado_900632" data-name="Trazado 900632" d="M212.827,38.414a6.389,6.389,0,0,1-.91,3.295,8.461,8.461,0,0,0-1.228-.088h-8.551a8.461,8.461,0,0,0-1.228.088,6.414,6.414,0,1,1,11.917-3.295Z" transform="translate(-200 -32)" fill="#656d78"/>
        </g>
        <g id="Grupo_1112450" data-name="Grupo 1112450" transform="translate(16.034 0)">
          <path id="Trazado_900633" data-name="Trazado 900633" d="M140.466,12.289a6.418,6.418,0,0,0-1.936,8.626,8.523,8.523,0,0,0-4.82,2.416c-.146.146-.285.3-.42.45a6.58,6.58,0,0,0,.053-.816,6.415,6.415,0,0,0-4.914-6.237,6.415,6.415,0,1,1,12.036-4.439Z" transform="translate(-128 -8)" fill="#fcd770"/>
        </g>
        <g id="Grupo_1112451" data-name="Grupo 1112451" transform="translate(8.621 8.551)">
          <path id="Trazado_900634" data-name="Trazado 900634" d="M85.278,78.414a6.58,6.58,0,0,1-.053.816h0a8.532,8.532,0,0,0-1.889,3.78,6.412,6.412,0,0,1-6.875,1.348,5.347,5.347,0,0,0-3.939-6.893,6.414,6.414,0,0,1,12.758.947Z" transform="translate(-72.52 -72)" fill="#656d78"/>
        </g>
        <g id="Grupo_1112452" data-name="Grupo 1112452" transform="translate(0 3.207)">
          <path id="Trazado_900635" data-name="Trazado 900635" d="M20.79,37.723a6.427,6.427,0,0,0-4.169,5.088,5.352,5.352,0,0,0-4.9,1.424,6.413,6.413,0,1,1,9.066-6.512Z" transform="translate(-8 -32)" fill="#b27946"/>
        </g>
        <g id="Grupo_1112453" data-name="Grupo 1112453" transform="translate(2.138 24.585)">
          <path id="Trazado_900636" data-name="Trazado 900636" d="M29.345,192a5.345,5.345,0,0,1,5.345,5.345v1.069H24v-1.069A5.347,5.347,0,0,1,29.345,192Z" transform="translate(-24 -192)" fill="#b4dd7f"/>
        </g>
        <g id="Grupo_1112454" data-name="Grupo 1112454" transform="translate(2.138 13.896)">
          <path id="Trazado_900637" data-name="Trazado 900637" d="M30.483,112.122A5.352,5.352,0,1,1,29.345,112,5.347,5.347,0,0,1,30.483,112.122Z" transform="translate(-24 -112)" fill="#f0d0b4"/>
        </g>
        <g id="Grupo_1112455" data-name="Grupo 1112455" transform="translate(19.241 12.827)">
          <path id="Trazado_900638" data-name="Trazado 900638" d="M159.324,104.088a8.46,8.46,0,0,1,1.228-.088H169.1a8.459,8.459,0,0,1,1.228.088,8.547,8.547,0,0,1,5.239,2.866,0,0,0,0,0,0,0,8.538,8.538,0,0,1,2.083,5.6v.734a8.548,8.548,0,0,1-.784,3.577h0a3.2,3.2,0,0,0-2.421-1.105h-1.069v-3.207a2.135,2.135,0,0,1-2.138,2.138A20.821,20.821,0,0,1,163.035,113l-3.05-1.307a2.661,2.661,0,0,0-3.709,2.445v1.615h-1.069a3.194,3.194,0,0,0-2.179.856h0a8.551,8.551,0,0,1,1.057-9.658h0c.135-.155.274-.3.42-.45a8.523,8.523,0,0,1,4.82-2.416Z" transform="translate(-152 -104)" fill="#b27946"/>
        </g>
        <g id="Grupo_1112456" data-name="Grupo 1112456" transform="translate(18.919 42.757)">
          <path id="Trazado_900639" data-name="Trazado 900639" d="M155.257,336.551l-2.916,3.5-2.75-2.75h0a8.561,8.561,0,0,0,1.109-6.466,11.217,11.217,0,0,1,5.7-2.441l3.131-.392v1.069a3.207,3.207,0,1,0,6.414,0V328l3.131.392a11.217,11.217,0,0,1,5.7,2.441,8.561,8.561,0,0,0,1.109,6.466h0l-2.75,2.75-2.915-3.5v12.827H155.257Z" transform="translate(-149.59 -328)" fill="#fcd770"/>
        </g>
        <g id="Grupo_1112457" data-name="Grupo 1112457" transform="translate(42.466 52.056)">
          <path id="Trazado_900640" data-name="Trazado 900640" d="M334.359,401.456a4.921,4.921,0,0,1-7.585.031l-.954-1.145,2.75-2.75h0a8.572,8.572,0,0,0,5.788,3.866Z" transform="translate(-325.82 -397.59)" fill="#f0d0b4"/>
        </g>
        <g id="Grupo_1112458" data-name="Grupo 1112458" transform="translate(57.956 40.549)">
          <path id="Trazado_900641" data-name="Trazado 900641" d="M447.927,313.61a2.128,2.128,0,0,1-.224.951l-1.427,2.871-.476.957a2.138,2.138,0,1,1-3.829-1.9l.465-.934.021-.045.466-.935.951-1.915a2.138,2.138,0,0,1,4.053.953Z" transform="translate(-441.747 -311.47)" fill="#f0d0b4"/>
        </g>
        <g id="Grupo_1112459" data-name="Grupo 1112459" transform="translate(43.895 39.395)">
          <path id="Trazado_900642" data-name="Trazado 900642" d="M343.623,319.362a8.545,8.545,0,0,1-6.215-12.238l.951-1.915a4.275,4.275,0,0,1,5.732-1.925l3.828,1.9,2.871,1.427a1.068,1.068,0,0,1,.593.958,1.05,1.05,0,0,1-.1.453l-.021.045-.465.934a2.138,2.138,0,1,0,3.829,1.9l-1.9,3.829a8.558,8.558,0,0,1-9.1,4.624Z" transform="translate(-336.512 -302.836)" fill="#f0d0b4"/>
        </g>
        <g id="Grupo_1112460" data-name="Grupo 1112460" transform="translate(55.303 38.645)">
          <path id="Trazado_900643" data-name="Trazado 900643" d="M426.894,299.365a2.125,2.125,0,0,1-.223.95l-.951,1.915-.466.935a1.05,1.05,0,0,0,.1-.453,1.068,1.068,0,0,0-.593-.958l-2.871-1.427.951-1.915s0-.007.005-.011a2.138,2.138,0,0,1,4.047.963Z" transform="translate(-421.89 -297.226)" fill="#f0d0b4"/>
        </g>
        <g id="Grupo_1112461" data-name="Grupo 1112461" transform="translate(51.475 30.999)">
          <path id="Trazado_900644" data-name="Trazado 900644" d="M401.1,242.139a2.128,2.128,0,0,1-.224.951l-2.85,5.732s0,.007-.005.011l-.951,1.915-3.828-1.9,3.807-7.658a2.138,2.138,0,0,1,4.053.953Z" transform="translate(-393.24 -240)" fill="#f0d0b4"/>
        </g>
        <g id="Grupo_1112462" data-name="Grupo 1112462" transform="translate(40.619 24.585)">
          <path id="Trazado_900645" data-name="Trazado 900645" d="M315.49,193.105a3.206,3.206,0,0,1-2.421,5.309H312V192h1.069A3.2,3.2,0,0,1,315.49,193.105Z" transform="translate(-312 -192)" fill="#f0d0b4"/>
        </g>
        <g id="Grupo_1112463" data-name="Grupo 1112463" transform="translate(23.517 20.31)">
          <path id="Trazado_900646" data-name="Trazado 900646" d="M201.1,170.689v.966a9.618,9.618,0,0,1-4.671,8.25l-.155.094a1.069,1.069,0,0,0-.518.917v2.6a3.207,3.207,0,0,1-6.414,0v-2.6a1.069,1.069,0,0,0-.518-.917l-.155-.094a9.618,9.618,0,0,1-4.671-8.25v-9a2.661,2.661,0,0,1,3.709-2.445l3.05,1.307a20.822,20.822,0,0,0,8.205,1.685,2.135,2.135,0,0,0,2.138-2.138v9.62Z" transform="translate(-184 -160)" fill="#f0d0b4"/>
        </g>
        <g id="Grupo_1112464" data-name="Grupo 1112464" transform="translate(19.241 24.585)">
          <path id="Trazado_900647" data-name="Trazado 900647" d="M156.276,192v6.414h-1.069a3.207,3.207,0,0,1-2.267-5.474c.029-.029.059-.057.088-.083a3.194,3.194,0,0,1,2.179-.857Z" transform="translate(-152 -192)" fill="#f0d0b4"/>
        </g>
        <g id="Grupo_1112465" data-name="Grupo 1112465" transform="translate(13.131 52.056)">
          <path id="Trazado_900648" data-name="Trazado 900648" d="M114.809,400.341l-.954,1.145a4.92,4.92,0,0,1-7.585-.031,8.572,8.572,0,0,0,5.788-3.866h0Z" transform="translate(-106.27 -397.59)" fill="#f0d0b4"/>
        </g>
        <g id="Grupo_1112466" data-name="Grupo 1112466" transform="translate(4.802 30.999)">
          <path id="Trazado_900649" data-name="Trazado 900649" d="M47.993,241.187l3.807,7.658-3.828,1.9-.951-1.915s0-.007-.005-.011l-2.85-5.732a2.138,2.138,0,1,1,3.828-1.9Z" transform="translate(-43.94 -240)" fill="#f0d0b4"/>
        </g>
        <g id="Grupo_1112467" data-name="Grupo 1112467" transform="translate(2.127 39.395)">
          <path id="Trazado_900650" data-name="Trazado 900650" d="M27.284,308.071l-.021-.045a1.05,1.05,0,0,1-.1-.453,1.068,1.068,0,0,1,.593-.958l2.871-1.427,3.828-1.9a4.275,4.275,0,0,1,5.732,1.925l.951,1.915a8.551,8.551,0,1,1-15.314,7.613l-1.9-3.829a2.138,2.138,0,1,0,3.829-1.9Z" transform="translate(-23.92 -302.836)" fill="#f0d0b4"/>
        </g>
        <g id="Grupo_1112468" data-name="Grupo 1112468" transform="translate(3.829 38.645)">
          <path id="Trazado_900651" data-name="Trazado 900651" d="M40.713,298.413l.951,1.915-2.871,1.427a1.067,1.067,0,0,0-.593.958,1.05,1.05,0,0,0,.1.453l-.466-.935-.951-1.915a2.138,2.138,0,0,1,3.824-1.913s0,.007.005.011Z" transform="translate(-36.66 -297.226)" fill="#f0d0b4"/>
        </g>
        <g id="Grupo_1112469" data-name="Grupo 1112469" transform="translate(0 40.549)">
          <path id="Trazado_900652" data-name="Trazado 900652" d="M13.957,316.486a2.138,2.138,0,1,1-3.829,1.9l-.476-.957-1.427-2.871a2.138,2.138,0,0,1,3.828-1.9L13,314.572l.466.935.021.045Z" transform="translate(-8 -311.471)" fill="#f0d0b4"/>
        </g>
      </g>
      <g id="Grupo_1112471" data-name="Grupo 1112471" transform="translate(0 0)">
        <path id="Trazado_900653" data-name="Trazado 900653" d="M66.107,42.735a3.2,3.2,0,0,0-3.893-2.068,3.194,3.194,0,0,0-2.587-2l1.509-3.036a3.207,3.207,0,1,0-5.743-2.855l-3.379,6.8a5.354,5.354,0,0,0-6.16,2.786L44.9,44.276c-.109.218-.205.44-.3.662a12.279,12.279,0,0,0-5-1.782l-2.193-.274v-.589l.155-.093a10.744,10.744,0,0,0,5.188-9.064h0A4.273,4.273,0,0,0,46.4,26.619a9.543,9.543,0,0,0,.637-3.438V22.8a7.49,7.49,0,0,0,5.015.5,6.458,6.458,0,0,0,2.134,2.36A6.412,6.412,0,0,0,51.309,31v1.069h2.138V31A4.276,4.276,0,0,1,62,31v1.069h2.138V31a6.412,6.412,0,0,0-2.874-5.345,6.4,6.4,0,0,0,1.83-8.845A7.482,7.482,0,1,0,51.585,8.675a7.38,7.38,0,0,0-1.345-.124l-.077,0A7.482,7.482,0,0,0,36.207,3.868a7.455,7.455,0,0,0-6.138,0A7.483,7.483,0,0,0,16.111,8.554l-.077,0a7.383,7.383,0,0,0-1.344.123A7.483,7.483,0,1,0,3.181,16.81a6.4,6.4,0,0,0,1.83,8.845A6.412,6.412,0,0,0,2.138,31v1.069H4.276V31a4.276,4.276,0,0,1,8.551,0v1.069h2.138V31a6.412,6.412,0,0,0-2.874-5.345,6.46,6.46,0,0,0,2.134-2.36,7.489,7.489,0,0,0,5.022-.5,9.663,9.663,0,0,0,.818,3.549,4.273,4.273,0,0,0,3.451,6.8h0A10.742,10.742,0,0,0,28.706,42.2l.155.093v.589l-2.194.274a12.277,12.277,0,0,0-5,1.781c-.091-.223-.188-.444-.3-.662l-.952-1.914a5.354,5.354,0,0,0-6.16-2.786l-3.379-6.8a3.207,3.207,0,1,0-5.743,2.855L6.648,38.67a3.194,3.194,0,0,0-2.587,2A3.2,3.2,0,0,0,.336,45.184l1.428,2.872L2.235,49l0,.009,1.9,3.829a9.608,9.608,0,0,0,9.65,5.286,5.988,5.988,0,0,0,8.813-.422l1.979-2.375V66.274h17.1V55.33l1.979,2.375a5.987,5.987,0,0,0,8.813.422,9.483,9.483,0,0,0,1.027.057,9.647,9.647,0,0,0,8.624-5.343l1.9-3.829,0-.009.471-.948,1.428-2.872a3.187,3.187,0,0,0,.168-2.449Zm-2.564.064a1.07,1.07,0,0,1,.481,1.433l-1.9,3.82,0,.009a1.069,1.069,0,1,1-1.914-.952l.476-.957h0l.476-.957.952-1.914a1.07,1.07,0,0,1,.959-.593,1.057,1.057,0,0,1,.474.111Zm-3.829-1.9a1.069,1.069,0,0,1,.481,1.433l-.476.957L57.8,42.334l.476-.958a1.07,1.07,0,0,1,1.433-.481Zm-2.407-7.165a1.069,1.069,0,1,1,1.914.952l-2.854,5.742h0l-.476.957-1.914-.952ZM42.757,31V26.723a2.138,2.138,0,0,1,0,4.276Zm14.965-6.414A4.276,4.276,0,1,1,62,20.31,4.281,4.281,0,0,1,57.722,24.586ZM58.791,5.345a5.342,5.342,0,0,1,2.828,9.876,6.38,6.38,0,0,0-3.9-1.324c-.1,0-.207,0-.31.008a7.54,7.54,0,0,0-3.8-4.538,5.331,5.331,0,0,1,5.18-4.022Zm-3.475,9.021a6.41,6.41,0,0,0-3.938,6.889,5.329,5.329,0,0,1-4.645-1.189,9.6,9.6,0,0,0-1.822-3.633c-.011-.135-.017-.268-.017-.4a5.344,5.344,0,0,1,10.421-1.668ZM42.757,2.138A5.344,5.344,0,0,1,47.9,8.927a7.507,7.507,0,0,0-5,5.628,9.584,9.584,0,0,0-2.731-1.323,7.47,7.47,0,0,0-2.16-8.211A5.353,5.353,0,0,1,42.757,2.138Zm-4.276,8.551a5.342,5.342,0,0,1-.457,2.159c-.2-.013-.406-.022-.612-.022H28.861c-.206,0-.41.009-.612.022a5.344,5.344,0,1,1,10.233-2.159ZM18.172,7.483A5.345,5.345,0,0,1,28.261,5.021,7.47,7.47,0,0,0,26.1,13.233a9.587,9.587,0,0,0-2.731,1.323,7.508,7.508,0,0,0-5-5.629A5.344,5.344,0,0,1,18.172,7.483ZM2.138,10.689A5.346,5.346,0,0,1,12.663,9.366a7.541,7.541,0,0,0-3.8,4.538c-.1,0-.206-.008-.31-.008a6.38,6.38,0,0,0-3.9,1.324,5.364,5.364,0,0,1-2.517-4.531Zm6.414,13.9a4.276,4.276,0,1,1,4.276-4.276A4.281,4.281,0,0,1,8.551,24.586Zm6.343-3.331a6.41,6.41,0,0,0-3.938-6.889,5.344,5.344,0,0,1,10.421,1.668c0,.131-.007.263-.017.4a9.6,9.6,0,0,0-1.822,3.633,5.329,5.329,0,0,1-4.645,1.189Zm6.484,7.606a2.14,2.14,0,0,1,2.138-2.138V31A2.14,2.14,0,0,1,21.379,28.861Zm2.138-4.822v.546a4.251,4.251,0,0,0-1.706.356,7.472,7.472,0,0,1,7.05-9.976h8.551A7.491,7.491,0,0,1,44.9,22.448v.734a7.45,7.45,0,0,1-.234,1.853,4.251,4.251,0,0,0-1.9-.449V22.448h0a3.21,3.21,0,0,0-3.207-3.207H38.482v2.138h1.069a1.069,1.069,0,0,1,0,2.138,19.649,19.649,0,0,1-7.785-1.6l-3.05-1.307a3.729,3.729,0,0,0-5.2,3.428Zm2.138,9v-9a1.592,1.592,0,0,1,2.219-1.463l3.051,1.307a21.778,21.778,0,0,0,8.627,1.771,3.191,3.191,0,0,0,1.069-.184v7.564a8.6,8.6,0,0,1-4.152,7.333l-.154.093a2.149,2.149,0,0,0-1.038,1.833v2.6A2.138,2.138,0,0,1,31,44.9v-2.6a2.148,2.148,0,0,0-1.038-1.833l-.155-.093A8.594,8.594,0,0,1,25.654,33.035Zm-18.121.215a1.07,1.07,0,0,1,1.433.481l3.331,6.7-1.914.951-.476-.957h0L7.052,34.682a1.07,1.07,0,0,1,.481-1.433ZM6.023,41.513a1.069,1.069,0,0,1,1.97-.136l.476.958-1.914.952-.476-.957a1.063,1.063,0,0,1-.056-.816Zm-3.829,1.9a1.069,1.069,0,0,1,1.97-.135l.952,1.914.476.957h0l.476.957a1.069,1.069,0,0,1-1.914.952l0-.009-1.9-3.82a1.062,1.062,0,0,1-.056-.816Zm8.181,12.236a7.434,7.434,0,0,1-4.318-3.762L5.5,50.769A3.207,3.207,0,0,0,8.223,48.35a4.259,4.259,0,0,0,3.1-.273L14.5,46.5a4.91,4.91,0,0,0,.277,3.725l.363.731L17.056,50l-.364-.731a2.783,2.783,0,0,1,.271-2.93l.4-.528-.294-.592A2.138,2.138,0,0,0,14.2,44.26l-3.829,1.9a2.14,2.14,0,0,1-2.865-.96v0l6.7-3.331a3.21,3.21,0,0,1,4.3,1.444l.952,1.914a7.482,7.482,0,0,1-9.083,10.424Zm7.631,2.071a3.849,3.849,0,0,1-1.5-.3q.27-.114.534-.246a9.6,9.6,0,0,0,3.074-2.411l1.18,1.18-.329.4A3.841,3.841,0,0,1,18.006,57.722Zm21.545-8.551V64.136H26.723V49.171H24.586v2.82l-1.918,2.3-1.347-1.347a9.765,9.765,0,0,0,.556-1.324,9.576,9.576,0,0,0,.393-4.515,10.14,10.14,0,0,1,4.663-1.829l1.932-.241a4.274,4.274,0,0,0,8.544,0l1.932.241a10.142,10.142,0,0,1,4.666,1.831,9.657,9.657,0,0,0,.951,5.832l-1.351,1.351-1.918-2.3v-2.82Zm8.718,8.551a3.84,3.84,0,0,1-2.958-1.385l-.329-.4,1.183-1.183a9.565,9.565,0,0,0,3.071,2.414q.264.131.534.245a3.85,3.85,0,0,1-1.5.3ZM55.9,55.652a7.482,7.482,0,0,1-9.083-10.424l.952-1.914a3.211,3.211,0,0,1,4.3-1.444l6.7,3.331h0a2.14,2.14,0,0,1-2.866.962l-3.829-1.9a2.138,2.138,0,0,0-2.866.963l-.294.592.4.528a2.783,2.783,0,0,1,.271,2.93L49.218,50l1.914.951.363-.731a4.909,4.909,0,0,0,.277-3.725l3.177,1.579a4.258,4.258,0,0,0,3.1.273,3.208,3.208,0,0,0,2.723,2.419l-.557,1.12A7.435,7.435,0,0,1,55.9,55.652Z" transform="translate(0 0)"/>
        <circle id="Elipse_12156" data-name="Elipse 12156" cx="1" cy="1" r="1" transform="translate(27.137 27.137)"/>
        <circle id="Elipse_12157" data-name="Elipse 12157" cx="1" cy="1" r="1" transform="translate(37.137 27.137)"/>
        <path id="Trazado_900654" data-name="Trazado 900654" d="M237.378,221.232l2.138-1.069a1.069,1.069,0,0,0,.278-1.712,2.563,2.563,0,0,1-.756-1.825V216H236.9v.626a4.7,4.7,0,0,0,.535,2.187l-1.013.506Z" transform="translate(-204.832 -187.139)"/>
        <path id="Trazado_900655" data-name="Trazado 900655" d="M221.007,264.107a4.5,4.5,0,0,0,4.05-2.5l.113-.226-1.912-.956-.113.226a2.39,2.39,0,0,1-4.276,0l-.113-.226-1.912.956.113.226A4.5,4.5,0,0,0,221.007,264.107Z" transform="translate(-187.87 -225.625)"/>
      </g>
    </g>
  </g>
</svg>
