<svg xmlns="http://www.w3.org/2000/svg" width="129" height="129" viewBox="0 0 129 129">
  <g id="Grupo_1112194" data-name="Grupo 1112194" transform="translate(-1 -1)">
    <path id="Trazado_900173" data-name="Trazado 900173" d="M2,34H126.839V92.258H2Z" transform="translate(1.081 35.661)" fill="#e6e9ed"/>
    <path id="Trazado_900174" data-name="Trazado 900174" d="M87.936,67.29V79.774H50.484V92.258H38V58.968a66.717,66.717,0,0,0,12.484-1.124V67.29H62.968V34H75.452V67.29Z" transform="translate(39.984 35.661)" fill="#b4dd7f"/>
    <circle id="Elipse_12129" data-name="Elipse 12129" cx="8.5" cy="8.5" r="8.5" transform="translate(11 86)" fill="#fcd770"/>
    <path id="Trazado_900175" data-name="Trazado 900175" d="M59.561,38.24c9.55,1.165,16.375,4.224,16.375,7.823,0,3.079-5.014,5.763-12.484,7.2a66.717,66.717,0,0,1-12.484,1.124C37.173,54.386,26,50.661,26,46.063c0-3.6,6.825-6.658,16.375-7.823l5.181,6.221a4.435,4.435,0,0,0,6.825,0Z" transform="translate(27.016 40.243)" fill="#fcd770"/>
    <path id="Trazado_900176" data-name="Trazado 900176" d="M88.581,35.29v.437a33.265,33.265,0,0,1-7.719,21.306L71.249,68.581,63.883,77.4,58.7,83.624a4.435,4.435,0,0,1-6.825,0L46.7,77.4l-7.365-8.822L29.719,57.033A33.265,33.265,0,0,1,22,35.727V35.29a33.29,33.29,0,0,1,66.581,0Z" transform="translate(22.694 1.081)" fill="#ff826e"/>
    <path id="Trazado_900177" data-name="Trazado 900177" d="M65.452,16.323H61.29L58.273,10.31A4.161,4.161,0,0,0,54.549,8H43.064a4.161,4.161,0,0,0-3.724,2.31l-3.017,6.013H32.161A4.174,4.174,0,0,0,28,20.484V41.29a4.174,4.174,0,0,0,4.161,4.161h33.29a4.174,4.174,0,0,0,4.161-4.161V20.484a4.174,4.174,0,0,0-4.161-4.161Z" transform="translate(29.177 7.565)" fill="#ccd1d9"/>
    <path id="Trazado_900178" data-name="Trazado 900178" d="M44.484,14A12.484,12.484,0,1,1,32,26.484,12.494,12.494,0,0,1,44.484,14Z" transform="translate(33.5 14.048)" fill="#69d6f4"/>
    <ellipse id="Elipse_12130" data-name="Elipse 12130" cx="4" cy="4.5" rx="4" ry="4.5" transform="translate(74 36)" fill="#4fc1e9"/>
    <path id="Trazado_900179" data-name="Trazado 900179" d="M66.532,48.613a6.25,6.25,0,0,0,6.242-6.242V21.565a6.25,6.25,0,0,0-6.242-6.242H63.657L61.22,10.45A6.208,6.208,0,0,0,55.638,7h-11.5a6.21,6.21,0,0,0-5.582,3.45l-2.436,4.873H33.242A6.25,6.25,0,0,0,27,21.565V42.371a6.25,6.25,0,0,0,6.242,6.242ZM39.484,34.048a10.4,10.4,0,1,1,10.4,10.4A10.415,10.415,0,0,1,39.484,34.048Zm-6.242,10.4a2.083,2.083,0,0,1-2.081-2.081V21.565a2.083,2.083,0,0,1,2.081-2.081h5.447l3.587-7.172a2.068,2.068,0,0,1,1.86-1.151h11.5a2.068,2.068,0,0,1,1.86,1.151l3.587,7.172h5.447a2.083,2.083,0,0,1,2.081,2.081V42.371a2.083,2.083,0,0,1-2.081,2.081H60.059a14.565,14.565,0,1,0-20.345,0Z" transform="translate(28.097 6.484)"/>
    <path id="Trazado_900180" data-name="Trazado 900180" d="M36,10h8.323v4.161H36Z" transform="translate(37.823 9.726)"/>
    <path id="Trazado_900181" data-name="Trazado 900181" d="M41.242,17a6.242,6.242,0,1,0,6.242,6.242A6.25,6.25,0,0,0,41.242,17Zm0,8.323a2.081,2.081,0,1,1,2.081-2.081A2.083,2.083,0,0,1,41.242,25.323Z" transform="translate(36.742 17.29)"/>
    <path id="Trazado_900182" data-name="Trazado 900182" d="M33,29h4.161v4.161H33Z" transform="translate(34.581 30.258)"/>
    <path id="Trazado_900183" data-name="Trazado 900183" d="M37,29h4.161v4.161H37Z" transform="translate(38.903 30.258)"/>
    <path id="Trazado_900184" data-name="Trazado 900184" d="M41,29h4.161v4.161H41Z" transform="translate(43.226 30.258)"/>
    <path id="Trazado_900185" data-name="Trazado 900185" d="M98.378,67.581l6.779-8.133a35.44,35.44,0,0,0,8.2-22.646v-.431a35.371,35.371,0,0,0-70.742,0V36.8a35.44,35.44,0,0,0,8.2,22.646l6.779,8.133H1V130H130V67.581Zm27.46,33.29h-8.323V71.742h8.323ZM72.972,86.038a6.522,6.522,0,0,0,10.022,0l4.444-5.333c9.463,1.34,13.433,4.265,13.433,5.6,0,2.12-8.079,6.242-22.887,6.242S55.1,88.427,55.1,86.306c0-1.334,3.97-4.259,13.433-5.6Zm19.577,9.155a28.9,28.9,0,0,0,8.323-3.1v8.776H92.548Zm8.323-23.451v8.743a31.329,31.329,0,0,0-10.337-3.493l4.376-5.249ZM46.774,36.8v-.431a31.21,31.21,0,0,1,62.419,0V36.8a31.269,31.269,0,0,1-7.234,19.98L79.8,83.377a2.431,2.431,0,0,1-3.629,0L54.009,56.782A31.269,31.269,0,0,1,46.774,36.8ZM5.161,71.742h55.9l4.376,5.252c-9.147,1.683-14.5,5.066-14.5,9.313,0,6.829,13.607,10.4,27.048,10.4a71.721,71.721,0,0,0,10.4-.747v9.07h16.645V71.742h8.323v33.29h12.484v8.323H88.387v12.484H5.161Zm87.387,54.1v-8.323h33.29v8.323Z" transform="translate(0 0)"/>
    <path id="Trazado_900186" data-name="Trazado 900186" d="M15.4,41a10.4,10.4,0,0,0-2.081,20.6V78.452h4.161V61.6A10.4,10.4,0,0,0,15.4,41Zm0,16.645A6.242,6.242,0,1,1,21.645,51.4,6.25,6.25,0,0,1,15.4,57.645Z" transform="translate(4.323 43.226)"/>
    <path id="Trazado_900187" data-name="Trazado 900187" d="M13,57h4.161v4.161H13Z" transform="translate(12.968 60.516)"/>
    <path id="Trazado_900188" data-name="Trazado 900188" d="M17,57h4.161v4.161H17Z" transform="translate(17.29 60.516)"/>
    <path id="Trazado_900189" data-name="Trazado 900189" d="M21,57h4.161v4.161H21Z" transform="translate(21.613 60.516)"/>
    <path id="Trazado_900190" data-name="Trazado 900190" d="M25,57h4.161v4.161H25Z" transform="translate(25.935 60.516)"/>
    <path id="Trazado_900191" data-name="Trazado 900191" d="M37,49h4.161v4.161H37Z" transform="translate(38.903 51.871)"/>
    <path id="Trazado_900192" data-name="Trazado 900192" d="M37,53h4.161v4.161H37Z" transform="translate(38.903 56.194)"/>
    <path id="Trazado_900193" data-name="Trazado 900193" d="M37,57h4.161v4.161H37Z" transform="translate(38.903 60.516)"/>
    <path id="Trazado_900194" data-name="Trazado 900194" d="M29,57h4.161v4.161H29Z" transform="translate(30.258 60.516)"/>
    <path id="Trazado_900195" data-name="Trazado 900195" d="M33,57h4.161v4.161H33Z" transform="translate(34.581 60.516)"/>
    <path id="Trazado_900196" data-name="Trazado 900196" d="M5,37H9.161v4.161H5Z" transform="translate(4.323 38.903)"/>
    <path id="Trazado_900197" data-name="Trazado 900197" d="M9,37h4.161v4.161H9Z" transform="translate(8.645 38.903)"/>
    <path id="Trazado_900198" data-name="Trazado 900198" d="M13,37h4.161v4.161H13Z" transform="translate(12.968 38.903)"/>
  </g>
</svg>
