<svg xmlns="http://www.w3.org/2000/svg" width="89" height="89.178" viewBox="0 0 89 89.178">
  <g id="Grupo_1112380" data-name="Grupo 1112380" transform="translate(-1082.051 -1016)">
    <rect id="Rectángulo_400907" data-name="Rectángulo 400907" width="89" height="89" rx="44.5" transform="translate(1082.051 1016.178)" fill="none"/>
    <rect id="Rectángulo_400898" data-name="Rectángulo 400898" width="89" height="89" rx="44.5" transform="translate(1082.051 1016.178)" fill="#769671"/>
    <rect id="Rectángulo_400907-2" data-name="Rectángulo 400907" width="89" height="89" rx="44.5" transform="translate(1082.051 1016)" fill="none"/>
    <g id="Grupo_1111654" data-name="Grupo 1111654" transform="translate(1087.051 1021)">
      <path id="Trazado_896643" data-name="Trazado 896643" d="M39.66,32a.9.9,0,0,1,.9-.9h1.094A9.719,9.719,0,0,0,32.9,22.337v1.094a.9.9,0,1,1-1.806,0V22.337a9.719,9.719,0,0,0-8.757,8.757h1.094a.9.9,0,1,1,0,1.806H22.337a9.719,9.719,0,0,0,8.757,8.757V40.563a.9.9,0,1,1,1.806,0v1.094A9.719,9.719,0,0,0,41.658,32.9H40.563a.9.9,0,0,1-.9-.9Z" transform="translate(-12.487 -12.487)" fill="#f1e8dc"/>
      <circle id="Elipse_12092" data-name="Elipse 12092" cx="9.704" cy="9.704" r="9.704" transform="translate(9.806 50.786)" fill="#f4644d"/>
      <path id="Trazado_896644" data-name="Trazado 896644" d="M349.268,339.592a9.7,9.7,0,1,0,9.707,9.7A9.715,9.715,0,0,0,349.268,339.592Z" transform="translate(-288.782 -288.806)" fill="#ffd422"/>
      <path id="Trazado_896645" data-name="Trazado 896645" d="M19.51,21.869a2.358,2.358,0,0,0,2.043-1.185h2.5a.9.9,0,1,0,0-1.806H21.78a2.367,2.367,0,0,0-1.367-1.546V13.717a.9.9,0,0,0-1.806,0v3.615a2.358,2.358,0,0,0,.9,4.537Zm0-1.806a.552.552,0,1,1,.553-.552A.553.553,0,0,1,19.51,20.063ZM26.1,42.5l1.628,1,1.122,2.708-.441,1.859a.9.9,0,0,0,.24.847l2.439,2.439a.9.9,0,0,0,.847.24l1.859-.441L36.5,52.273l1,1.625a.9.9,0,0,0,.769.429h3.453a.9.9,0,0,0,.769-.43l1-1.623,2.711-1.122,1.855.441a.9.9,0,0,0,.847-.24l2.443-2.439a.9.9,0,0,0,.24-.849l-.444-1.858L52.269,43.5l1.628-1a.9.9,0,0,0,.429-.769V38.274A.9.9,0,0,0,53.9,37.5l-1.628-1-1.122-2.707.444-1.858a.9.9,0,0,0-.24-.849l-2.443-2.439a.9.9,0,0,0-.847-.24l-1.855.441-2.711-1.122-1-1.623a.9.9,0,0,0-.769-.43H38.274a.9.9,0,0,0-.769.429l-1,1.625-2.708,1.122-1.859-.441a.905.905,0,0,0-.847.24l-2.439,2.439a.9.9,0,0,0-.24.847l.441,1.859L27.727,36.5l-1.628,1a.9.9,0,0,0-.429.769v3.453a.9.9,0,0,0,.429.769Zm1.377-3.717,1.447-.891a.9.9,0,0,0,.361-.423l1.346-3.248a.9.9,0,0,0,.044-.554l-.392-1.653,1.726-1.726,1.653.392a.9.9,0,0,0,.554-.045l3.248-1.346a.9.9,0,0,0,.423-.36l.891-1.444h2.444l.888,1.443a.9.9,0,0,0,.424.361l3.251,1.346a.9.9,0,0,0,.554.044l1.649-.392,1.729,1.726-.395,1.652a.9.9,0,0,0,.044.556l1.346,3.248a.9.9,0,0,0,.361.423l1.447.891v2.444l-1.447.891a.9.9,0,0,0-.361.423l-1.346,3.248a.9.9,0,0,0-.044.556l.395,1.652-1.729,1.726-1.649-.392a.9.9,0,0,0-.554.044l-3.251,1.346a.9.9,0,0,0-.424.361l-.888,1.443H38.778l-.891-1.444a.9.9,0,0,0-.423-.36l-3.248-1.346a.905.905,0,0,0-.554-.045l-1.653.392-1.726-1.726.392-1.653a.9.9,0,0,0-.044-.554l-1.346-3.248a.9.9,0,0,0-.361-.423l-1.447-.891ZM40,48.665A8.665,8.665,0,1,0,31.335,40,8.674,8.674,0,0,0,40,48.665Zm0-15.523A6.858,6.858,0,1,1,33.142,40,6.866,6.866,0,0,1,40,33.142Zm0,11.51A4.652,4.652,0,1,0,35.344,40,4.658,4.658,0,0,0,40,44.652Zm0-7.5A2.846,2.846,0,1,1,37.151,40,2.849,2.849,0,0,1,40,37.154Zm18.291,20.6c0,1.243.618,1.484,2.383,1.856,1.52.32,3.817.8,3.817,3.623a3.739,3.739,0,0,1-3.1,3.545v.877a.9.9,0,1,1-1.806,0v-.878a3.738,3.738,0,0,1-3.1-3.545.9.9,0,0,1,1.806,0,2.233,2.233,0,0,0,4.393,0c0-1.243-.618-1.484-2.383-1.856-1.52-.32-3.817-.8-3.817-3.623a3.74,3.74,0,0,1,3.1-3.548v-.878a.9.9,0,1,1,1.806,0V54.2a3.742,3.742,0,0,1,3.1,3.548.9.9,0,1,1-1.806,0,2.232,2.232,0,0,0-4.393,0Zm-33.247-3.7H21.354a.9.9,0,0,0-.9.9v2.206H17.667a.9.9,0,0,0-.9.9V60.5H13.976a.9.9,0,0,0-.9.9v4.616a.9.9,0,0,0,.9.9H25.044a.9.9,0,0,0,.9-.9V54.956a.9.9,0,0,0-.9-.9ZM14.879,62.311h1.884v2.809H14.879Zm3.691-.9v-2.44h1.88v6.153H18.57Zm5.571,3.713H22.257V55.859h1.884ZM71.894,40a31.553,31.553,0,0,0-2.735-12.927A11.505,11.505,0,0,0,52.926,10.838a31.944,31.944,0,0,0-25.855,0A11.5,11.5,0,0,0,10.839,27.072a31.942,31.942,0,0,0,0,25.857A11.5,11.5,0,0,0,27.071,69.161a31.944,31.944,0,0,0,25.855,0A11.5,11.5,0,0,0,69.158,52.927,31.554,31.554,0,0,0,71.894,40ZM67.773,51.585a11.562,11.562,0,0,0-1.888-1.259,27.938,27.938,0,0,0,0-20.652,11.546,11.546,0,0,0,1.888-1.259,30.148,30.148,0,0,1,0,23.169ZM15.768,49.6a26.143,26.143,0,0,1,0-19.209A11.511,11.511,0,0,0,30.4,15.769a26.169,26.169,0,0,1,19.205,0A11.512,11.512,0,0,0,64.229,30.4a26.142,26.142,0,0,1,0,19.208A11.511,11.511,0,0,0,49.6,64.23a26.136,26.136,0,0,1-19.2,0A11.511,11.511,0,0,0,15.768,49.6ZM58.079,16.56a5.32,5.32,0,0,1,2.513-.414,7.683,7.683,0,0,0,2.3-.262v.835c0,1.454-.748,3.5-2.411,3.5-1.819,0-2.407-2.358-2.407-3.5Zm.388-2.049a2.4,2.4,0,0,1,3.792-.319,6.692,6.692,0,0,1-1.686.148A10.342,10.342,0,0,0,58.468,14.511Zm8.573,12.149a9.758,9.758,0,0,1-1.237.962v-.179a.9.9,0,1,0-1.806,0v1.111a9.671,9.671,0,0,1-7.019,0V27.443a.9.9,0,1,0-1.806,0v.18a9.758,9.758,0,0,1-1.237-.962V25.97a2.7,2.7,0,0,1,2.824-2.557h7.458a2.7,2.7,0,0,1,2.824,2.557Zm3.153-7.15a9.64,9.64,0,0,1-1.535,5.227,4.609,4.609,0,0,0-4.441-3.132H62.211A5.5,5.5,0,0,0,64.7,16.719v-.9a4.215,4.215,0,1,0-8.43,0v.9a5.5,5.5,0,0,0,2.49,4.887h-2a4.609,4.609,0,0,0-4.441,3.132A9.7,9.7,0,1,1,70.194,19.51ZM51.583,12.224a11.556,11.556,0,0,0-1.26,1.888,27.964,27.964,0,0,0-20.649,0,11.553,11.553,0,0,0-1.259-1.888,30.179,30.179,0,0,1,23.168,0ZM18.607,9.85v1.094a.9.9,0,1,0,1.806,0V9.85a9.719,9.719,0,0,1,8.757,8.757H28.076a.9.9,0,1,0,0,1.806H29.17a9.719,9.719,0,0,1-8.757,8.757V28.076a.9.9,0,1,0-1.806,0v1.094A9.719,9.719,0,0,1,9.85,20.414h1.094a.9.9,0,0,0,0-1.806H9.85A9.719,9.719,0,0,1,18.607,9.85ZM12.225,28.415a11.543,11.543,0,0,0,1.887,1.258,27.939,27.939,0,0,0,0,20.654,11.549,11.549,0,0,0-1.887,1.258,30.175,30.175,0,0,1,0-23.17ZM9.806,60.49a9.7,9.7,0,1,1,9.7,9.7A9.715,9.715,0,0,1,9.806,60.49Zm18.608,7.286a11.555,11.555,0,0,0,1.26-1.89,27.933,27.933,0,0,0,20.647,0,11.552,11.552,0,0,0,1.261,1.89,30.178,30.178,0,0,1-23.168,0Zm32.072,2.418a9.7,9.7,0,1,1,9.707-9.7A9.715,9.715,0,0,1,60.486,70.194Z"/>
      <path id="Trazado_896646" data-name="Trazado 896646" d="M93.475,94.028a.552.552,0,1,0-.553-.552A.553.553,0,0,0,93.475,94.028Z" transform="translate(-73.964 -73.965)" fill="#ff9811"/>
      <path id="Trazado_896647" data-name="Trazado 896647" d="M27.02,188.127a27.939,27.939,0,0,1,0-20.654,11.548,11.548,0,0,1-1.887-1.258,30.175,30.175,0,0,0,0,23.17A11.548,11.548,0,0,1,27.02,188.127Z" transform="translate(-12.909 -137.8)" fill="#ffc443"/>
      <path id="Trazado_896648" data-name="Trazado 896648" d="M61.315,428.911H63.2v2.809H61.315Z" transform="translate(-46.436 -366.6)" fill="#9fd479"/>
      <path id="Trazado_896649" data-name="Trazado 896649" d="M364,130.007v.692a9.766,9.766,0,0,0,1.237.962v-.18a.9.9,0,1,1,1.806,0v1.112a9.672,9.672,0,0,0,7.019,0v-1.111a.9.9,0,1,1,1.806,0v.179a9.76,9.76,0,0,0,1.237-.962v-.691a2.7,2.7,0,0,0-2.824-2.557h-7.458A2.7,2.7,0,0,0,364,130.007Z" transform="translate(-310.063 -104.037)" fill="#3caadc"/>
      <path id="Trazado_896650" data-name="Trazado 896650" d="M182.176,168.952,180.83,165.7a.9.9,0,0,1-.044-.556l.395-1.652-1.729-1.726-1.649.392a.9.9,0,0,1-.554-.044L174,160.772a.9.9,0,0,1-.424-.361l-.888-1.443h-2.444l-.891,1.444a.9.9,0,0,1-.423.36l-3.248,1.346a.9.9,0,0,1-.554.045l-1.653-.392-1.726,1.726.392,1.653a.9.9,0,0,1-.044.554l-1.346,3.248a.9.9,0,0,1-.361.423l-1.447.891v2.444l1.447.891a.9.9,0,0,1,.361.423l1.346,3.248a.9.9,0,0,1,.044.554l-.392,1.653,1.726,1.726,1.653-.392a.9.9,0,0,1,.554.045l3.248,1.346a.9.9,0,0,1,.423.36l.891,1.444h2.444l.888-1.443A.9.9,0,0,1,174,182.2l3.251-1.346a.9.9,0,0,1,.554-.044l1.649.392,1.729-1.726-.395-1.652a.9.9,0,0,1,.044-.556l1.346-3.248a.9.9,0,0,1,.361-.423l1.447-.891v-2.444l-1.447-.891A.9.9,0,0,1,182.176,168.952Zm-10.712,11.2a8.665,8.665,0,1,1,8.665-8.665A8.674,8.674,0,0,1,171.464,180.153Z" transform="translate(-131.464 -131.488)" fill="#ff9811"/>
      <path id="Trazado_896651" data-name="Trazado 896651" d="M401.143,49.922a2.4,2.4,0,0,0-2.019,1.1,10.333,10.333,0,0,1,2.106-.171,6.686,6.686,0,0,0,1.686-.148A2.4,2.4,0,0,0,401.143,49.922Z" transform="translate(-340.656 -36.513)" fill="#57565c"/>
      <path id="Trazado_896652" data-name="Trazado 896652" d="M209.707,202.85a6.858,6.858,0,1,0,6.858,6.858A6.866,6.866,0,0,0,209.707,202.85Zm0,11.51a4.652,4.652,0,1,1,4.652-4.652A4.659,4.659,0,0,1,209.707,214.36Z" transform="translate(-169.707 -169.708)" fill="#ffc443"/>
      <path id="Trazado_896653" data-name="Trazado 896653" d="M177.8,458.589a27.644,27.644,0,0,1-10.325-1.978,11.556,11.556,0,0,1-1.26,1.89,30.178,30.178,0,0,0,23.168,0,11.552,11.552,0,0,1-1.261-1.89A27.613,27.613,0,0,1,177.8,458.589Z" transform="translate(-137.797 -390.726)" fill="#ffc443"/>
      <path id="Trazado_896654" data-name="Trazado 896654" d="M349.268,22A9.7,9.7,0,0,0,341.1,36.932a4.609,4.609,0,0,1,4.441-3.132h2a5.5,5.5,0,0,1-2.49-4.887v-.9a4.215,4.215,0,1,1,8.43,0v.9a5.5,5.5,0,0,1-2.492,4.887H353a4.609,4.609,0,0,1,4.441,3.132A9.7,9.7,0,0,0,349.268,22Z" transform="translate(-288.782 -12.194)" fill="#f4644d"/>
      <path id="Trazado_896655" data-name="Trazado 896655" d="M456.608,167.479a27.938,27.938,0,0,1,0,20.652,11.548,11.548,0,0,1,1.888,1.259,30.148,30.148,0,0,0,0-23.169A11.548,11.548,0,0,1,456.608,167.479Z" transform="translate(-390.723 -137.805)" fill="#ffc443"/>
      <path id="Trazado_896656" data-name="Trazado 896656" d="M89.917,405.443v3.713H91.8V403h-1.88Z" transform="translate(-71.347 -344.035)" fill="#ffd422"/>
      <path id="Trazado_896657" data-name="Trazado 896657" d="M118.49,381.114v7.056h1.884v-9.262H118.49Z" transform="translate(-96.233 -323.049)" fill="#3caadc"/>
      <path id="Trazado_896658" data-name="Trazado 896658" d="M177.8,25.046a27.664,27.664,0,0,1,10.323,1.976,11.556,11.556,0,0,1,1.26-1.888,30.177,30.177,0,0,0-23.168,0,11.558,11.558,0,0,1,1.259,1.888A27.7,27.7,0,0,1,177.8,25.046Z" transform="translate(-137.798 -12.909)" fill="#ffc443"/>
      <path id="Trazado_896659" data-name="Trazado 896659" d="M396.114,69.937c0,1.142.588,3.5,2.407,3.5,1.663,0,2.411-2.047,2.411-3.5V69.1a7.685,7.685,0,0,1-2.3.262,5.32,5.32,0,0,0-2.513.414Z" transform="translate(-338.035 -53.218)" fill="#ffc477"/>
    </g>
  </g>
</svg>
