<svg xmlns="http://www.w3.org/2000/svg" width="89.943" height="89.943" viewBox="0 0 89.943 89.943">
  <g id="Grupo_1112377" data-name="Grupo 1112377" transform="translate(-859.885 -16026.028)">
    <rect id="Rectángulo_400898" data-name="Rectángulo 400898" width="89.943" height="89.943" rx="44.971" transform="translate(859.885 16026.028)" fill="#d59cff"/>
    <g id="Grupo_1112230" data-name="Grupo 1112230" transform="translate(867.907 16034.051)">
      <g id="Grupo_1112229" data-name="Grupo 1112229" transform="translate(1.192 1.192)">
        <g id="Grupo_1112199" data-name="Grupo 1112199" transform="translate(50.662 50.06)">
          <path id="Trazado_900212" data-name="Trazado 900212" d="M348.04,344h18.789a17.873,17.873,0,0,1-15.815,9.535h-1.348a15.551,15.551,0,0,0,.143-1.585c.009-.212.013-.425.013-.638a15.892,15.892,0,0,0-1.454-6.643Q348.211,344.331,348.04,344Z" transform="translate(-348.04 -344)" fill="#dfb28b"/>
        </g>
        <g id="Grupo_1112200" data-name="Grupo 1112200" transform="translate(40.783 6.079)">
          <path id="Trazado_900213" data-name="Trazado 900213" d="M307.437,68.943H281.73q.447-.608.934-1.192a25.707,25.707,0,0,0,5.96-16.46V48.8a17.091,17.091,0,0,0,11.919,0v2.491a25.707,25.707,0,0,0,5.96,16.46q.487.583.934,1.192Z" transform="translate(-281.73 -48.8)" fill="#dfb28b"/>
        </g>
        <g id="Grupo_1112201" data-name="Grupo 1112201" transform="translate(44.619 40.525)">
          <path id="Trazado_900214" data-name="Trazado 900214" d="M334.375,280.965v.226a18.011,18.011,0,0,1-.358,3.576H309.752l0,0A6.518,6.518,0,0,1,307.48,280h26.878Q334.375,280.483,334.375,280.965Z" transform="translate(-307.48 -280)" fill="#ffeaa7"/>
        </g>
        <g id="Grupo_1112202" data-name="Grupo 1112202" transform="translate(37.48 30.99)">
          <path id="Trazado_900215" data-name="Trazado 900215" d="M292.947,220.768H267.373c0-1.754-3.369-3.214-7.813-3.516h0c.162-.422.335-.839.521-1.25h31.27q.387.86.708,1.748A25.517,25.517,0,0,1,292.947,220.768Z" transform="translate(-259.56 -216)" fill="#ffeaa7"/>
        </g>
        <g id="Grupo_1112203" data-name="Grupo 1112203" transform="translate(46.887 45.293)">
          <path id="Trazado_900216" data-name="Trazado 900216" d="M322.7,312H346.97a17.676,17.676,0,0,1-1.706,4.768H326.475a15.862,15.862,0,0,0-2.233-3.249h0a15.64,15.64,0,0,0-1.536-1.509l0,0Z" transform="translate(-322.7 -312)" fill="#fcd770"/>
        </g>
        <g id="Grupo_1112204" data-name="Grupo 1112204" transform="translate(44.616 35.757)">
          <path id="Trazado_900217" data-name="Trazado 900217" d="M334.341,252.768H307.463c0-.057,0-.113,0-.17a6.531,6.531,0,0,1,.089-1.073l.511-3.071v0a1.381,1.381,0,0,0,.076-.451H333.71A25.653,25.653,0,0,1,334.341,252.768Z" transform="translate(-307.46 -248)" fill="#fcd770"/>
        </g>
        <g id="Grupo_1112205" data-name="Grupo 1112205" transform="translate(38.001 26.222)">
          <path id="Trazado_900218" data-name="Trazado 900218" d="M294.33,188.768H263.06a25.354,25.354,0,0,1,1.293-2.515q.21-.358.432-.708.5-.789,1.056-1.545h25.707A25.539,25.539,0,0,1,294.33,188.768Z" transform="translate(-263.06 -184)" fill="#fcd770"/>
        </g>
        <g id="Grupo_1112206" data-name="Grupo 1112206" transform="translate(45.293)">
          <path id="Trazado_900219" data-name="Trazado 900219" d="M320.343,8c4.608,0,8.343,1.6,8.343,3.576,0,.973-.909,1.856-2.384,2.5h0a15.385,15.385,0,0,1-5.96,1.073,15.385,15.385,0,0,1-5.96-1.073h0c-1.475-.645-2.384-1.529-2.384-2.5C312,9.6,315.735,8,320.343,8Z" transform="translate(-312 -8)" fill="#cf9e76"/>
        </g>
        <g id="Grupo_1112207" data-name="Grupo 1112207" transform="translate(13.111 3.576)">
          <path id="Trazado_900220" data-name="Trazado 900220" d="M115.071,32v4.768c0,.861-.94,1.654-2.384,2.271a20.246,20.246,0,0,1-14.3,0C96.94,38.421,96,37.629,96,36.768V32c0,1.974,4.927,3.576,9.535,3.576S115.071,33.974,115.071,32Z" transform="translate(-96 -32)" fill="#aab2bd"/>
        </g>
        <g id="Grupo_1112208" data-name="Grupo 1112208" transform="translate(13.111)">
          <ellipse id="Elipse_12131" data-name="Elipse 12131" cx="9.5" cy="3.5" rx="9.5" ry="3.5" transform="translate(-0.354 -0.243)" fill="#ccd1d9"/>
        </g>
        <g id="Grupo_1112209" data-name="Grupo 1112209" transform="translate(0 10.614)">
          <path id="Trazado_900221" data-name="Trazado 900221" d="M37.8,81.107a14.845,14.845,0,0,0,.919,5.145,8.346,8.346,0,0,0,.405,15.006c-2.923.611-4.9,1.782-4.9,3.126a1.381,1.381,0,0,0,.076.451v0l.511,3.071a6.518,6.518,0,0,1-2.186,6.019,15.64,15.64,0,0,0-1.536,1.509h0A15.893,15.893,0,0,0,27.071,126c0,.213,0,.426.013.638a15.858,15.858,0,0,0,1.073,5.14,21.013,21.013,0,0,1-11.877-4.328h0a8.344,8.344,0,1,0-8.157-14.5h0a21.16,21.16,0,0,1,2.291-12.068c.018-.036.037-.07.057-.106h0A8.343,8.343,0,1,0,21.6,88.369a14.844,14.844,0,0,0,1.9-7.262V79.241h0a19.335,19.335,0,0,0,7.151,1.305A19.335,19.335,0,0,0,37.8,79.24h0Z" transform="translate(-8 -79.24)" fill="#e6e9ed"/>
        </g>
        <g id="Grupo_1112210" data-name="Grupo 1112210" transform="translate(26.222 17.625)">
          <path id="Trazado_900222" data-name="Trazado 900222" d="M197.5,136.442q-.221.351-.432.708a25.351,25.351,0,0,0-1.293,2.515c-.186.411-.359.828-.521,1.25h0c-.559-.04-1.134-.06-1.722-.06a22.962,22.962,0,0,0-4.635.45A8.346,8.346,0,0,1,188.5,126.3a14.885,14.885,0,0,0,5.478,7.067A21.1,21.1,0,0,1,197.5,136.442Z" transform="translate(-184 -126.3)" fill="#ff826e"/>
        </g>
        <g id="Grupo_1112211" data-name="Grupo 1112211" transform="translate(0.121 42.909)">
          <path id="Trazado_900223" data-name="Trazado 900223" d="M21.8,304.343a8.342,8.342,0,0,1-4.832,7.569h0a21.2,21.2,0,0,1-4-4.029,3.576,3.576,0,1,0-2.792-4.955h0a20.976,20.976,0,0,1-1.36-5.517h0A8.344,8.344,0,0,1,21.8,304.343Z" transform="translate(-8.81 -296)" fill="#ff826e"/>
        </g>
        <g id="Grupo_1112212" data-name="Grupo 1112212" transform="translate(2.469 19.742)">
          <path id="Trazado_900224" data-name="Trazado 900224" d="M35.7,140.51a8.343,8.343,0,1,1-11.128,12.4h0a21.078,21.078,0,0,1,2.817-4.069,3.576,3.576,0,1,0,5.343-4.605A14.793,14.793,0,0,0,35.7,140.51Z" transform="translate(-24.57 -140.51)" fill="#ff826e"/>
        </g>
        <g id="Grupo_1112213" data-name="Grupo 1112213" transform="translate(1.481 47.676)">
          <path id="Trazado_900225" data-name="Trazado 900225" d="M21.227,328a3.576,3.576,0,1,1-.493,7.117h0a21.086,21.086,0,0,1-2.792-4.955h0A3.579,3.579,0,0,1,21.227,328Z" transform="translate(-17.94 -328)" fill="#fc6e51"/>
        </g>
        <g id="Grupo_1112214" data-name="Grupo 1112214" transform="translate(5.286 23.473)">
          <path id="Trazado_900226" data-name="Trazado 900226" d="M48.823,165.55a3.576,3.576,0,1,1-5.343,4.605,21.081,21.081,0,0,1,3.811-3.387A14.5,14.5,0,0,0,48.823,165.55Z" transform="translate(-43.48 -165.55)" fill="#fc6e51"/>
        </g>
        <g id="Grupo_1112215" data-name="Grupo 1112215" transform="translate(23.087 36.212)">
          <path id="Trazado_900227" data-name="Trazado 900227" d="M186.764,260.14a15.642,15.642,0,0,1,1.536,1.509,5.958,5.958,0,0,0-6.806,2.187,5.96,5.96,0,0,0-11.728,0,5.958,5.958,0,0,0-6.806-2.187,15.64,15.64,0,0,1,1.536-1.509,6.518,6.518,0,0,0,2.186-6.019l-.511-3.071c.6,1.76,4.6,3.121,9.459,3.121s8.862-1.362,9.459-3.121l-.511,3.071a6.527,6.527,0,0,0-.089,1.073c0,.057,0,.113,0,.17a6.518,6.518,0,0,0,2.268,4.772l0,0Z" transform="translate(-162.96 -251.05)" fill="#ecc19c"/>
        </g>
        <g id="Grupo_1112216" data-name="Grupo 1112216" transform="translate(26.222 32.182)">
          <path id="Trazado_900228" data-name="Trazado 900228" d="M203.071,227.576l-.076.451v0c-.6,1.76-4.6,3.121-9.459,3.121s-8.862-1.362-9.459-3.121v0l-.076-.451c0-1.344,1.977-2.515,4.9-3.126a22.963,22.963,0,0,1,4.635-.45q.883,0,1.722.06C199.7,224.362,203.071,225.822,203.071,227.576Z" transform="translate(-184 -224)" fill="#f0d0b4"/>
        </g>
        <g id="Grupo_1112217" data-name="Grupo 1112217" transform="translate(29.798 64.363)">
          <path id="Trazado_900229" data-name="Trazado 900229" d="M219.919,445.96a6.035,6.035,0,0,1-.119,1.192H208.119A6.033,6.033,0,0,1,208,445.96a5.96,5.96,0,1,1,11.919,0Z" transform="translate(-208 -440)" fill="#a0d468"/>
        </g>
        <g id="Grupo_1112218" data-name="Grupo 1112218" transform="translate(20.318 58.404)">
          <path id="Trazado_900230" data-name="Trazado 900230" d="M153.85,404.768a5.935,5.935,0,0,0,1.192,3.576,5.96,5.96,0,0,0-8.132.925,15.826,15.826,0,0,1-2.025-3.023q-.279-.541-.516-1.1a5.96,5.96,0,0,1,10.234-3.278A5.937,5.937,0,0,0,153.85,404.768Z" transform="translate(-144.37 -400)" fill="#a0d468"/>
        </g>
        <g id="Grupo_1112219" data-name="Grupo 1112219" transform="translate(40.525 58.404)">
          <path id="Trazado_900231" data-name="Trazado 900231" d="M290.672,405.143a15.863,15.863,0,0,1-2.54,4.126,5.96,5.96,0,0,0-8.132-.925,5.961,5.961,0,0,0,.438-6.478,5.96,5.96,0,0,1,10.234,3.278Z" transform="translate(-280 -400)" fill="#a0d468"/>
        </g>
        <g id="Grupo_1112220" data-name="Grupo 1112220" transform="translate(40.918 46.484)">
          <path id="Trazado_900232" data-name="Trazado 900232" d="M294.166,330.888c0,.213,0,.426-.013.638a5.96,5.96,0,0,0-10.809-3.053,5.881,5.881,0,0,0-.7-1.917h0a5.956,5.956,0,0,0,.7-4.041,5.958,5.958,0,0,1,6.806-2.187h0a15.865,15.865,0,0,1,2.233,3.249q.172.331.328.669A15.892,15.892,0,0,1,294.166,330.888Z" transform="translate(-282.64 -320)" fill="#a0d468"/>
        </g>
        <g id="Grupo_1112221" data-name="Grupo 1112221" transform="translate(29.798 50.06)">
          <path id="Trazado_900233" data-name="Trazado 900233" d="M219.824,348.9a5.961,5.961,0,0,1-1.1,4.638,5.96,5.96,0,0,0-9.535,0,5.958,5.958,0,0,1-.393-6.556h0a5.961,5.961,0,0,1,10.322,0h0A5.881,5.881,0,0,1,219.824,348.9Z" transform="translate(-208 -344)" fill="#a0d468"/>
        </g>
        <g id="Grupo_1112222" data-name="Grupo 1112222" transform="translate(19.071 46.484)">
          <path id="Trazado_900234" data-name="Trazado 900234" d="M147.526,326.554h0a5.881,5.881,0,0,0-.7,1.917,5.96,5.96,0,0,0-10.809,3.053c-.009-.212-.013-.425-.013-.638a15.893,15.893,0,0,1,4.015-10.562h0a5.958,5.958,0,0,1,6.806,2.187,5.956,5.956,0,0,0,.7,4.041Z" transform="translate(-136 -320)" fill="#a0d468"/>
        </g>
        <g id="Grupo_1112223" data-name="Grupo 1112223" transform="translate(29.798 44.101)">
          <path id="Trazado_900235" data-name="Trazado 900235" d="M219.824,308.9a5.956,5.956,0,0,1-.7,4.041,5.961,5.961,0,0,0-10.322,0,5.959,5.959,0,1,1,11.025-4.041Z" transform="translate(-208 -304)" fill="#b4dd7f"/>
        </g>
        <g id="Grupo_1112224" data-name="Grupo 1112224" transform="translate(40.525 52.444)">
          <path id="Trazado_900236" data-name="Trazado 900236" d="M291.906,365.566a15.551,15.551,0,0,1-.143,1.585,15.874,15.874,0,0,1-1.091,3.951,5.96,5.96,0,0,0-10.234-3.278,6.277,6.277,0,0,0-.438-.673,5.961,5.961,0,0,0,1.1-4.638,5.96,5.96,0,0,1,10.809,3.053Z" transform="translate(-280 -360)" fill="#b4dd7f"/>
        </g>
        <g id="Grupo_1112225" data-name="Grupo 1112225" transform="translate(19.084 52.444)">
          <path id="Trazado_900237" data-name="Trazado 900237" d="M148,367.151a6.277,6.277,0,0,0-.438.673,5.96,5.96,0,0,0-10.234,3.278c-.055-.131-.109-.264-.161-.4a15.858,15.858,0,0,1-1.073-5.14,5.96,5.96,0,0,1,10.809-3.053,5.96,5.96,0,0,0,1.1,4.638Z" transform="translate(-136.09 -360)" fill="#b4dd7f"/>
        </g>
        <g id="Grupo_1112226" data-name="Grupo 1112226" transform="translate(29.798 57.212)">
          <path id="Trazado_900238" data-name="Trazado 900238" d="M219.919,397.96a5.935,5.935,0,0,1-1.192,3.576,5.96,5.96,0,0,0-9.535,0,5.961,5.961,0,0,1-.438-6.478,6.277,6.277,0,0,1,.438-.673,5.96,5.96,0,0,1,9.535,0,6.279,6.279,0,0,1,.438.673A5.937,5.937,0,0,1,219.919,397.96Z" transform="translate(-208 -392)" fill="#b4dd7f"/>
        </g>
        <g id="Grupo_1112227" data-name="Grupo 1112227" transform="translate(40.525 65.555)">
          <path id="Trazado_900239" data-name="Trazado 900239" d="M283.576,448a5.947,5.947,0,0,1,4.556,2.117,15.832,15.832,0,0,1-2.871,2.639l-1.685,1.2h-2.5a6.035,6.035,0,0,0,.119-1.192A5.938,5.938,0,0,0,280,449.192,5.932,5.932,0,0,1,283.576,448Z" transform="translate(-280 -448)" fill="#b4dd7f"/>
        </g>
        <g id="Grupo_1112228" data-name="Grupo 1112228" transform="translate(22.858 65.555)">
          <path id="Trazado_900240" data-name="Trazado 900240" d="M168.479,453.96h-2.5l-1.685-1.2a15.831,15.831,0,0,1-2.871-2.639,5.96,5.96,0,0,1,8.132-.925,5.938,5.938,0,0,0-1.192,3.576A6.032,6.032,0,0,0,168.479,453.96Z" transform="translate(-161.42 -448)" fill="#b4dd7f"/>
        </g>
      </g>
      <path id="Trazado_900241" data-name="Trazado 900241" d="M67.663,25.459a24.566,24.566,0,0,1-5.683-15.7V8.012c2.052-1.124,2.384-2.485,2.384-3.244,0-.847-.411-2.443-3.166-3.624A16.646,16.646,0,0,0,54.828,0a16.646,16.646,0,0,0-6.369,1.144C45.7,2.324,45.293,3.921,45.293,4.768c0,.759.332,2.12,2.384,3.244v1.75a24.566,24.566,0,0,1-5.683,15.7q-.658.79-1.251,1.625a22.342,22.342,0,0,0-2.676-2.18,13.662,13.662,0,0,1-5.884-11.231V12.56c1.931-1.014,2.384-2.168,2.384-3.025V4.768c0-1.04-.664-2.518-3.83-3.651a21.851,21.851,0,0,0-13.795,0c-3.165,1.133-3.83,2.611-3.83,3.651V9.535c0,.857.453,2.011,2.384,3.025v1.113A13.662,13.662,0,0,1,9.611,24.9,22.309,22.309,0,0,0,20.539,65.484a17.1,17.1,0,0,0,5.689,6.988l2,1.426H45.675l2-1.426a17.13,17.13,0,0,0,6.81-10.493h.348A19.092,19.092,0,0,0,73.9,42.909v-.226a26.955,26.955,0,0,0-6.236-17.224Zm3.681,19.834h-22.8a5.351,5.351,0,0,1-1.361-2.384h24.33A16.754,16.754,0,0,1,71.344,45.293ZM49.717,67.09a7.135,7.135,0,0,0-4.424-1.535,7.231,7.231,0,0,0-1.313.121,7.217,7.217,0,0,0,.121-1.313,7.111,7.111,0,0,0-.495-2.609,4.717,4.717,0,0,1,2.879-.967,4.784,4.784,0,0,1,4.667,3.8,14.78,14.78,0,0,1-1.435,2.507Zm-26.97-2.507a4.784,4.784,0,0,1,4.667-3.8,4.717,4.717,0,0,1,2.879.967,7.111,7.111,0,0,0-.495,2.609,7.216,7.216,0,0,0,.121,1.313,7.23,7.23,0,0,0-1.313-.121,7.135,7.135,0,0,0-4.424,1.535,14.77,14.77,0,0,1-1.435-2.507Zm14.2-30.017c5.278,0,8.187,1.6,8.336,2.327l-.036.213c-.373.76-3.254,2.227-8.3,2.227s-7.929-1.468-8.3-2.228l-.035-.212c.147-.723,3.057-2.328,8.336-2.328Zm30.12-5.96a24.5,24.5,0,0,1,1.475,2.384H41.109a24.435,24.435,0,0,1,1.475-2.384ZM47.388,35.757a5.65,5.65,0,0,0-3.124-2.384H69.675a24.585,24.585,0,0,1,.837,2.384Zm-18.2,4.58a20.115,20.115,0,0,0,7.764,1.379,20.113,20.113,0,0,0,7.764-1.379A7.755,7.755,0,0,0,46.5,46.585,7.176,7.176,0,0,0,43.3,47.979a7.146,7.146,0,0,0-12.71,0A7.175,7.175,0,0,0,27.4,46.585,7.754,7.754,0,0,0,29.185,40.337Zm3,10.915a4.768,4.768,0,1,1,9.5.6,7.131,7.131,0,0,0-9.458,0A4.761,4.761,0,0,1,32.182,51.252Zm.275,7.553a4.768,4.768,0,1,1,8.986,0,7.132,7.132,0,0,0-8.986,0Zm0,7.151a4.768,4.768,0,1,1,8.986,0,7.132,7.132,0,0,0-8.986,0ZM44.1,51.252a7.23,7.23,0,0,0-.036-.724,4.743,4.743,0,0,1,4.882-1.484,14.679,14.679,0,0,1,2.64,4.57,7.129,7.129,0,0,0-7.91.056,7.153,7.153,0,0,0,.425-2.418ZM24.952,49.044a4.743,4.743,0,0,1,4.882,1.484,7.23,7.23,0,0,0-.037.724,7.153,7.153,0,0,0,.425,2.418,7.13,7.13,0,0,0-7.91-.056A14.679,14.679,0,0,1,24.952,49.044ZM21.47,59.214a4.765,4.765,0,0,1,8.364-2.727A7.22,7.22,0,0,0,30,58.89a7.123,7.123,0,0,0-8.29,2.367A14.644,14.644,0,0,1,21.47,59.214Zm15.479,7.533a4.773,4.773,0,0,1,4.768,4.768H32.182A4.773,4.773,0,0,1,36.949,66.747ZM46.484,58.4a7.146,7.146,0,0,0-2.582.487,7.221,7.221,0,0,0,.161-2.4,4.765,4.765,0,0,1,8.364,2.727,14.644,14.644,0,0,1-.235,2.044A7.171,7.171,0,0,0,46.484,58.4ZM50.91,47.676H70.819A16.541,16.541,0,0,1,69.9,50.06H52.562A17.061,17.061,0,0,0,50.91,47.676ZM47.1,40.525l.4-2.384H71.087q.223,1.181.332,2.384ZM54.828,2.384c4.436,0,7.151,1.543,7.151,2.384s-2.715,2.384-7.151,2.384-7.151-1.543-7.151-2.384S50.392,2.384,54.828,2.384ZM50.06,9.761V8.941a18.453,18.453,0,0,0,4.768.595A18.453,18.453,0,0,0,59.6,8.941v.821a26.958,26.958,0,0,0,5.625,16.461H44.435A26.958,26.958,0,0,0,50.06,9.761Zm-13.351,17.1a19.957,19.957,0,0,1,2.714,2.262A26.849,26.849,0,0,0,37.885,32.2q-.467-.017-.936-.017a24.464,24.464,0,0,0-4.465.4,7.154,7.154,0,0,1-1.122-12,16.037,16.037,0,0,0,5.347,6.284Zm-6.835-15.9a19.233,19.233,0,0,1-6.036.957,19.233,19.233,0,0,1-6.036-.957c-1.876-.661-2.3-1.324-2.307-1.427V7.793a11.314,11.314,0,0,0,1.446.625,21.332,21.332,0,0,0,6.9,1.117,21.328,21.328,0,0,0,6.9-1.117,11.284,11.284,0,0,0,1.446-.625V9.535C32.175,9.638,31.75,10.3,29.874,10.962ZM17.8,3.341a19.514,19.514,0,0,1,12.072,0c1.875.66,2.3,1.323,2.307,1.427s-.433.767-2.307,1.427a19.233,19.233,0,0,1-6.036.957A19.233,19.233,0,0,1,17.8,6.195c-1.876-.661-2.3-1.324-2.307-1.427S15.926,4,17.8,3.341ZM6.513,31.1a4.769,4.769,0,0,0,6.956-6.385,16.04,16.04,0,0,0,1.545-1.9A7.149,7.149,0,0,1,5.175,33.08,19.934,19.934,0,0,1,6.513,31.1Zm4.454-4.24c.239-.165.471-.337.7-.514A2.383,2.383,0,0,1,8.078,29.3,19.91,19.91,0,0,1,10.967,26.864ZM6.072,54.822a19.868,19.868,0,0,1-2.086-3.714,2.383,2.383,0,1,1,2.086,3.714Zm1.67,2.042a4.767,4.767,0,1,0-4.629-8.244,19.908,19.908,0,0,1-.522-2.485,7.151,7.151,0,0,1,7,12.469A19.914,19.914,0,0,1,7.743,56.864Zm3.9,3.231A9.534,9.534,0,0,0,2.388,43.6c0-.119,0-.237,0-.356a19.91,19.91,0,0,1,1.687-8.019,9.533,9.533,0,0,0,12.2-14.557,16.035,16.035,0,0,0,1.607-7v-.186a22.076,22.076,0,0,0,5.96.816,22.076,22.076,0,0,0,5.96-.816v.186a16.025,16.025,0,0,0,.678,4.608,9.536,9.536,0,0,0-.966,15.143c-1.972.8-3.287,1.981-3.287,3.525a2.6,2.6,0,0,0,.1.716l.5,3.005a5.353,5.353,0,0,1-1.787,4.918A17.067,17.067,0,0,0,19.659,63,19.811,19.811,0,0,1,11.643,60.1ZM28.988,71.515l-1.375-.982a14.63,14.63,0,0,1-1.9-1.618,4.768,4.768,0,0,1,4.824-.566,7.106,7.106,0,0,0-.741,3.166Zm17.3-.982-1.375.982H44.1a7.106,7.106,0,0,0-.741-3.166,4.768,4.768,0,0,1,4.824.566,14.64,14.64,0,0,1-1.9,1.618ZM54.828,59.6H54.8q.031-.513.031-1.031a17.087,17.087,0,0,0-1.133-6.121H68.514A16.679,16.679,0,0,1,54.828,59.6Z" transform="translate(0)"/>
    </g>
  </g>
</svg>
