<svg xmlns="http://www.w3.org/2000/svg" width="67.899" height="65.871" viewBox="0 0 67.899 65.871">
  <g id="Layer_x0020_1" transform="translate(0 -26)">
    <path id="Trazado_900242" data-name="Trazado 900242" d="M1008.442,1097.125H987.467c-3.781,0-4.975-2.468-2.786-5.691,1.353-1.99,10.508-16.956,10.906-17.314a3.235,3.235,0,0,1,4.856.12l10.826,17.234C1013.417,1094.657,1012.263,1097.125,1008.442,1097.125Zm-11.7-21.931-10.746,17.155c-1.393,2.03-1.115,3.184,1.473,3.184h20.975c2.547,0,2.905-1.154,1.512-3.144l-10.786-17.194A1.641,1.641,0,0,0,996.74,1075.194Z" transform="translate(-944.441 -1005.412)" fill-rule="evenodd"/>
    <path id="Trazado_900243" data-name="Trazado 900243" d="M1325.8,1213.192a.8.8,0,0,1-.8-.8v-8.12a.8.8,0,0,1,1.592,0v8.12A.774.774,0,0,1,1325.8,1213.192Z" transform="translate(-1272.263 -1130.634)" fill-rule="evenodd"/>
    <path id="Trazado_900244" data-name="Trazado 900244" d="M1325.8,1484.779a.8.8,0,0,1-.8-.8v-2.706a.8.8,0,0,1,1.592,0v2.706A.8.8,0,0,1,1325.8,1484.779Z" transform="translate(-1272.263 -1396.609)" fill-rule="evenodd"/>
    <path id="Trazado_900245" data-name="Trazado 900245" d="M592.614,904.957a.734.734,0,0,1-.518-.159c-18.308-14.926-11.741-12.3,1.99-31.6a.8.8,0,0,1,1.433.318l3.383,17.274,3.423,3.224a.789.789,0,1,1-1.075,1.154c-.6-.517-3.781-3.3-3.861-3.821l-3.065-15.722c-2.229,3.025-4.776,6.129-6.926,8.677-3.264,3.9-5.095,6.05-4.9,8.08.239,2.468,3.7,5.493,10.349,10.985a31.861,31.861,0,0,0,5.174-.8.8.8,0,1,1,.358,1.552A36.037,36.037,0,0,1,592.614,904.957Z" transform="translate(-557.748 -813.165)" fill-rule="evenodd"/>
    <path id="Trazado_900246" data-name="Trazado 900246" d="M182.16,373.335a.8.8,0,0,1-.557-1.393c4.179-3.781,8.358-11.622,4.06-14.846-8.08-6.289-6.448-12.7-5.134-17.871,1.075-4.378,1.871-7.522-2.309-9.99a.785.785,0,1,1,.8-1.353c11.025,6.408-6.01,17.712,7.6,27.941,5.373,4.02.876,13.174-3.94,17.314A.937.937,0,0,1,182.16,373.335Z" transform="translate(-170.737 -289.742)" fill-rule="evenodd"/>
    <path id="Trazado_900247" data-name="Trazado 900247" d="M509.686,123.7c-4.7,0-9.791-1.672-10.348-6.328-2.109-17.274-21.453-7.324-20.378-21.732a.8.8,0,0,1,.875-.716.781.781,0,0,1,.716.876c-.438,5.771,2.866,6.726,7.483,8,5.095,1.473,11.5,3.264,12.9,13.373.876,7.324,18.07,6.09,22.09-1.234a.793.793,0,0,1,1.393.756C521.905,121.268,515.458,123.7,509.686,123.7Z" transform="translate(-459.855 -66.173)" fill-rule="evenodd"/>
    <path id="Trazado_900248" data-name="Trazado 900248" d="M32.956,91.872A32.933,32.933,0,1,1,60.538,76.906a.789.789,0,0,1-1.313-.876c13.453-20.657-1.353-48.439-26.269-48.439A31.342,31.342,0,1,0,40.279,89.4a.8.8,0,1,1,.358,1.552A33.237,33.237,0,0,1,32.956,91.872Z" transform="translate(0)" fill-rule="evenodd"/>
    <path id="Trazado_900249" data-name="Trazado 900249" d="M234.806,182.264c5.134,3.821,1.274,12.3-3.264,16.677a31.214,31.214,0,0,0,20.1,7.522c-16.239-13.453-9.672-11.542,3.622-30.249a.8.8,0,0,1,1.433.318l3.383,17.274,2.746,2.587c3.1-4.975,7.005-11.264,7.244-11.5a3.235,3.235,0,0,1,4.856.119l3.861,6.169a30.714,30.714,0,0,0,3.622-22.926c-2.985,3.582-8.557,5.453-13.652,5.453-4.7,0-9.791-1.672-10.348-6.328-2.03-16.717-20.219-7.96-20.418-20.378a31.883,31.883,0,0,0-9.99,7.8C237.353,161.289,221.552,172.314,234.806,182.264Z" transform="translate(-218.925 -116.184)" fill="#91d7e9" fill-rule="evenodd"/>
    <path id="Trazado_900250" data-name="Trazado 900250" d="M626.541,950.677c-3.264,3.9-5.095,6.05-4.9,8.08.239,2.468,3.7,5.493,10.348,10.985a34.962,34.962,0,0,0,4.1-.557,4.665,4.665,0,0,1,1.035-3.622c.4-.6,1.473-2.308,2.786-4.418-1.075-.995-3.3-2.985-3.383-3.423L633.467,942C631.238,945.025,628.69,948.129,626.541,950.677Z" transform="translate(-596.889 -879.542)" fill="#1e8744" fill-rule="evenodd"/>
    <path id="Trazado_900251" data-name="Trazado 900251" d="M540.082,89.4c.876,7.2,17.553,6.129,21.891-.915A31.181,31.181,0,0,0,531.962,66,30.544,30.544,0,0,0,519.7,68.507c-.239,5.333,3.025,6.249,7.483,7.523C532.281,77.5,538.689,79.294,540.082,89.4Z" transform="translate(-499.006 -38.408)" fill="#1e8744" fill-rule="evenodd"/>
    <path id="Trazado_900252" data-name="Trazado 900252" d="M1034.822,1113.037l-10.747,17.155c-.8,1.154-1.035,2.03-.637,2.587a.31.31,0,0,1,.159.159,3.264,3.264,0,0,0,1.95.438h20.976c2.547,0,2.906-1.154,1.512-3.145l-6.328-10.07c0-.04,0-.04-.04-.08l-4.418-7.045A1.64,1.64,0,0,0,1034.822,1113.037Zm1.234,12.776a.8.8,0,0,1-.8-.8V1116.9a.8.8,0,0,1,1.592,0v8.119A.774.774,0,0,1,1036.056,1125.814Zm0,5.612a.8.8,0,0,1-.8-.8v-2.707a.8.8,0,0,1,1.592,0v2.707A.8.8,0,0,1,1036.056,1131.426Z" transform="translate(-982.523 -1043.255)" fill="#fa3c48" fill-rule="evenodd"/>
    <path id="Trazado_900253" data-name="Trazado 900253" d="M49.831,416.792c3.98-3.94,7.6-11.224,3.5-14.329-8.08-6.289-6.448-12.7-5.134-17.871,1.035-4.139,1.791-7.2-1.711-9.592a31.216,31.216,0,0,0,3.343,41.792Z" transform="translate(-38.408 -335.109)" fill="#1e8744" fill-rule="evenodd"/>
  </g>
</svg>
