<svg xmlns="http://www.w3.org/2000/svg" width="89" height="89" viewBox="0 0 89 89">
  <g id="Grupo_1112233" data-name="Grupo 1112233" transform="translate(-345 -18703.247)">
    <rect id="Rectángulo_400898" data-name="Rectángulo 400898" width="89" height="89" rx="44.5" transform="translate(345 18703.246)" fill="#769671"/>
    <g id="Grupo_1112232" data-name="Grupo 1112232" transform="translate(358.494 18717.303)">
      <path id="Trazado_900254" data-name="Trazado 900254" d="M80.466,74.069a5.794,5.794,0,1,0-9.661-5,3.9,3.9,0,0,0-5.993,5Z" transform="translate(-56.39 -56.39)" fill="#c9f3ff"/>
      <path id="Trazado_900255" data-name="Trazado 900255" d="M90.65,280.476h6.608l-1.438-3.663H90.65a1.832,1.832,0,0,0-1.705,2.5h0A1.832,1.832,0,0,0,90.65,280.476Z" transform="translate(-78.255 -243.896)" fill="#7d9bff"/>
      <g id="Grupo_1112231" data-name="Grupo 1112231" transform="translate(1.189 41.422)">
        <circle id="Elipse_12132" data-name="Elipse 12132" cx="9.136" cy="9.136" r="9.136" fill="#72d8ff"/>
        <circle id="Elipse_12133" data-name="Elipse 12133" cx="9.136" cy="9.136" r="9.136" transform="translate(26.677)" fill="#72d8ff"/>
      </g>
      <path id="Trazado_900256" data-name="Trazado 900256" d="M362.8,41.869h0a8.8,8.8,0,0,1-8.8-8.8V18.8a8.8,8.8,0,0,1,8.8-8.8h0a8.8,8.8,0,0,1,8.8,8.8v14.27A8.8,8.8,0,0,1,362.8,41.869Z" transform="translate(-311.905 -8.811)" fill="#baea83"/>
      <path id="Trazado_900257" data-name="Trazado 900257" d="M169.508,492a1.19,1.19,0,1,0,.841.348A1.2,1.2,0,0,0,169.508,492Z" transform="translate(-148.304 -433.494)"/>
      <path id="Trazado_900258" data-name="Trazado 900258" d="M306.377,416.359a4.018,4.018,0,0,1-4.013,4.013,1.189,1.189,0,1,0,0,2.378,6.4,6.4,0,0,0,6.391-6.391,1.189,1.189,0,1,0-2.378,0Z" transform="translate(-265.361 -365.801)"/>
      <path id="Trazado_900259" data-name="Trazado 900259" d="M50.9,0a10,10,0,0,0-9.989,9.989v14.27a10,10,0,0,0,8.8,9.915V44.593h-4.28a10.323,10.323,0,0,0-11.055-4.019L30.4,30.442h4.836a.641.641,0,0,1,.611.444.643.643,0,0,1-.611.842H34.025a1.189,1.189,0,0,0,0,2.378h1.216a3.021,3.021,0,1,0,0-6.042H28.662a1.189,1.189,0,0,0-1.107,1.623l2.233,5.7H19.906l-.895-2.047-.338-.862a1.189,1.189,0,0,0-1.107-.755H12.395a3.021,3.021,0,0,0,0,6.042h3.941l-1.913,3.313A10.322,10.322,0,0,0,3.741,58.506H1.189a1.189,1.189,0,0,0,0,2.378h9.136a10.34,10.34,0,0,0,10.256-9.136h4.657a1.189,1.189,0,0,0,1.09-1.665L20.945,37.769h9.774l1.438,3.674a10.317,10.317,0,0,0-1.739,17.062H26.2a1.189,1.189,0,0,0,0,2.378H37a10.325,10.325,0,0,0,9.682-13.913h8.531a1.189,1.189,0,1,0,0-2.378H52.084V34.174a10,10,0,0,0,8.8-9.915V9.989A10,10,0,0,0,50.9,0ZM11.8,34.983a.643.643,0,0,1,.6-.877h4.36l.5,1.285H12.395A.639.639,0,0,1,11.8,34.983ZM10.325,58.506a7.947,7.947,0,1,1,2.9-15.344L9.3,49.964a1.189,1.189,0,0,0,1.03,1.784h3.833a4.02,4.02,0,0,1-3.833,2.824,1.189,1.189,0,1,0,0,2.378,6.4,6.4,0,0,0,6.279-5.2h1.579A7.959,7.959,0,0,1,10.325,58.506Zm7.858-9.136h-5.8l2.9-5.016A7.948,7.948,0,0,1,18.183,49.369Zm2.4,0a10.329,10.329,0,0,0-4.1-7.1l2.184-3.783,4.756,10.878ZM37,58.506a7.944,7.944,0,0,1-3.97-14.827L35.9,50.992a1.189,1.189,0,1,0,2.215-.867L35.246,42.81A7.946,7.946,0,1,1,37,58.506Zm21.5-34.247a7.622,7.622,0,0,1-6.421,7.517V26.83l3.169-3.383a1.189,1.189,0,0,0-1.736-1.626l-1.433,1.53V19.526l3.169-3.383a1.189,1.189,0,0,0-1.736-1.626l-1.433,1.53V13.972a1.189,1.189,0,0,0-2.378,0v5.354L48.482,18.02a1.189,1.189,0,0,0-1.736,1.626l2.96,3.16v8.969a7.622,7.622,0,0,1-6.421-7.517V9.989a7.61,7.61,0,0,1,15.221,0Z"/>
      <path id="Trazado_900260" data-name="Trazado 900260" d="M493.074,375h-.016a1.189,1.189,0,0,0,0,2.378h.016a1.189,1.189,0,1,0,0-2.378Z" transform="translate(-433.379 -330.407)"/>
      <path id="Trazado_900261" data-name="Trazado 900261" d="M56,66.447H75.979a1.189,1.189,0,1,0,0-2.378H74.006A6.983,6.983,0,1,0,61.3,58.286a5.092,5.092,0,0,0-6.241,7.7A1.189,1.189,0,0,0,56,66.447Zm3.092-6.287a2.721,2.721,0,0,1,2.017.9,1.189,1.189,0,0,0,2.063-.649,4.6,4.6,0,1,1,7.988,3.66H56.654a2.69,2.69,0,0,1-.276-1.194A2.718,2.718,0,0,1,59.093,60.16Z" transform="translate(-47.579 -47.58)"/>
    </g>
  </g>
</svg>
