<svg xmlns="http://www.w3.org/2000/svg" width="89" height="89" viewBox="0 0 89 89">
  <g id="Grupo_1112235" data-name="Grupo 1112235" transform="translate(-755.378 -18703.247)">
    <rect id="Rectángulo_400898" data-name="Rectángulo 400898" width="89" height="89" rx="44.5" transform="translate(755.378 18703.246)" fill="#769671"/>
    <g id="Grupo_1112234" data-name="Grupo 1112234" transform="translate(757.876 18705.816)">
      <path id="Trazado_900262" data-name="Trazado 900262" d="M62.566,38.283A24.274,24.274,0,0,1,16.266,48.5,24.025,24.025,0,0,1,14,38.283a24.283,24.283,0,0,1,48.566,0Z" transform="translate(3.84 3.84)" fill="#b6e2eb"/>
      <path id="Trazado_900263" data-name="Trazado 900263" d="M56.283,38.283A24.274,24.274,0,0,1,32,62.566V14A24.31,24.31,0,0,1,56.283,38.283Z" transform="translate(10.123 3.84)" fill="#89d3e2"/>
      <path id="Trazado_900264" data-name="Trazado 900264" d="M44.354,51.935,26.141,45.865,16.266,48.5A24.025,24.025,0,0,1,14,38.283,24.268,24.268,0,0,1,38.283,14V26.141L30.7,32.212l7.582,5.41,3.035,2.172Z" transform="translate(3.84 3.84)" fill="#7cb342"/>
      <path id="Trazado_900265" data-name="Trazado 900265" d="M38.071,45.823,32,43.8V31.51l3.035,2.172Z" transform="translate(10.123 9.951)" fill="#679f42"/>
      <path id="Trazado_900266" data-name="Trazado 900266" d="M42.571,46.5,40.7,56.363A24.285,24.285,0,0,0,54.712,34.356a24.739,24.739,0,0,0-.3-3.84l-7.285-3.749-2.049,6.071L36.5,25.25Z" transform="translate(11.693 7.766)" fill="#679f42"/>
      <path id="Trazado_900267" data-name="Trazado 900267" d="M9.906,37.713,11.5,36.161a1.345,1.345,0,1,1,1.889,1.916L9.758,41.665l-.364.364a1.352,1.352,0,0,1-1.9,0L7.06,41.6,3.4,37.983a1.345,1.345,0,1,1,1.889-1.916l1.889,1.862A35.113,35.113,0,0,1,41.5,6.01l-.337.337a1.344,1.344,0,0,0,0,1.9l.459.459a32.449,32.449,0,0,0-31.716,29Z" transform="translate(0.001 1.051)" fill="#378e43"/>
      <path id="Trazado_900268" data-name="Trazado 900268" d="M67.412,41.5l-.337-.337a1.344,1.344,0,0,0-1.9,0l-.459.459A32.437,32.437,0,0,0,35.8,9.92L37.355,11.5a1.332,1.332,0,0,1-.013,1.9,1.35,1.35,0,0,1-.944.391,1.317,1.317,0,0,1-.958-.4L31.851,9.758,31.392,9.3a1.344,1.344,0,0,1,0-1.9l.337-.337L35.345,3.4A1.345,1.345,0,1,1,37.26,5.292L35.4,7.181A35.1,35.1,0,0,1,67.412,41.5Z" transform="translate(9.773 0.001)" fill="#42a047"/>
      <path id="Trazado_900269" data-name="Trazado 900269" d="M42.03,66.494l-.432.432-3.615,3.656a1.317,1.317,0,0,1-.958.4,1.35,1.35,0,0,1-.944-.391,1.332,1.332,0,0,1-.013-1.9L37.929,66.8A35.109,35.109,0,0,1,6.01,32.39l.432.432a1.352,1.352,0,0,0,1.9,0l.364-.364a32.445,32.445,0,0,0,29,31.622l-1.551-1.592A1.345,1.345,0,1,1,38.077,60.6l3.588,3.629.364.364a1.344,1.344,0,0,1,0,1.9Z" transform="translate(1.051 10.259)" fill="#42a047"/>
      <path id="Trazado_900270" data-name="Trazado 900270" d="M70.6,37.247a1.332,1.332,0,0,1-1.9.013L66.8,35.4A35.09,35.09,0,0,1,32.39,67.412l.432-.432a1.344,1.344,0,0,0,0-1.9l-.364-.364A32.431,32.431,0,0,0,64.066,35.8l-1.578,1.551a1.35,1.35,0,0,1-.944.391,1.317,1.317,0,0,1-.958-.4,1.331,1.331,0,0,1,.013-1.9l3.629-3.588.459-.459a1.344,1.344,0,0,1,1.9,0l.337.337,3.656,3.615a1.332,1.332,0,0,1,.013,1.9Z" transform="translate(10.259 9.773)" fill="#378e43"/>
      <path id="Trazado_900271" data-name="Trazado 900271" d="M63.956,34.581A25.49,25.49,0,0,0,38.644,13C20.261,12.7,7.365,32.908,15.4,49.422,28.63,76.088,67.868,64.058,63.957,34.584ZM15.827,36.332A23.075,23.075,0,0,1,37.295,15.767V25.844l-7.083,5.665a1.358,1.358,0,0,0,.059,2.151l10.219,7.3,2.319,9.276-15.88-5.294a1.349,1.349,0,0,0-.773-.025l-8.73,2.32a22.572,22.572,0,0,1-1.6-10.906Zm2.752,13.392,7.881-2.095,17.829,5.943a1.348,1.348,0,0,0,1.735-1.605L42.988,39.824a1.347,1.347,0,0,0-.524-.771L33.292,32.5l6.2-4.956a1.351,1.351,0,0,0,.506-1.054V15.759A22.756,22.756,0,0,1,60.667,32.269l-4.712-2.424a1.357,1.357,0,0,0-1.894.769l-1.4,4.145-7.052-6.242A1.357,1.357,0,0,0,43.417,29.9L49.4,50.838l-1.67,8.828a23.01,23.01,0,0,1-29.152-9.942ZM61.521,40.2A23.117,23.117,0,0,1,50.776,58.08l1.336-7.056a1.354,1.354,0,0,0-.027-.621L47.282,33.6,52.4,38.125a1.357,1.357,0,0,0,2.172-.58l1.548-4.585,5.253,2.7a21.588,21.588,0,0,1,.151,4.542Z" transform="translate(3.478 3.49)"/>
      <path id="Trazado_900272" data-name="Trazado 900272" d="M80.845,45.118,77.182,41.5A35.111,35.111,0,0,0,45.169,7.188L47.037,5.3a1.349,1.349,0,1,0-1.918-1.9L41.5,7.063a35.113,35.113,0,0,0-34.3,31.928L5.3,37.116a1.349,1.349,0,0,0-1.9,1.919l3.66,3.618a35.113,35.113,0,0,0,31.931,34.4l-1.875,1.9a1.349,1.349,0,1,0,1.918,1.9l3.619-3.66a35.112,35.112,0,0,0,34.4-32.016l1.89,1.868a1.349,1.349,0,1,0,1.9-1.918ZM42.717,74.485l-3.589-3.632a1.349,1.349,0,1,0-1.919,1.9l1.557,1.575a32.419,32.419,0,0,1-29-31.608l3.632-3.59a1.349,1.349,0,1,0-1.9-1.918L9.919,38.766a32.419,32.419,0,0,1,31.7-29.008l3.593,3.634a1.341,1.341,0,0,0,.959.4,1.358,1.358,0,0,0,.959-2.3L45.584,9.933a32.418,32.418,0,0,1,28.9,31.685l-3.634,3.593a1.349,1.349,0,1,0,1.9,1.918l1.562-1.545A32.418,32.418,0,0,1,42.717,74.485Z" transform="translate(0)"/>
    </g>
  </g>
</svg>
