<svg xmlns="http://www.w3.org/2000/svg" width="89" height="89" viewBox="0 0 89 89">
  <g id="Grupo_1112378" data-name="Grupo 1112378" transform="translate(-1176.378 -18703.247)">
    <rect id="Rectángulo_400898" data-name="Rectángulo 400898" width="89" height="89" rx="44.5" transform="translate(1176.378 18703.246)" fill="#769671"/>
    <g id="_x37_82-Dollar_x2C__Growth_x2C__Investment" transform="translate(1135.256 18682.059)">
      <path id="Trazado_900273" data-name="Trazado 900273" d="M192.772,280A12.772,12.772,0,1,1,180,292.772,12.772,12.772,0,0,1,192.772,280Z" transform="translate(-109.246 -210.089)" fill="#ffd400"/>
      <path id="Trazado_900274" data-name="Trazado 900274" d="M63.193,280A3.193,3.193,0,1,1,60,283.193,3.192,3.192,0,0,1,63.193,280Z" transform="translate(-8.404 -210.089)" fill="#5cbeff"/>
      <circle id="Elipse_12134" data-name="Elipse 12134" cx="4.741" cy="4.741" r="4.741" transform="translate(108.827 61.97)" fill="#5cbeff"/>
      <path id="Trazado_900275" data-name="Trazado 900275" d="M260.07,96.095c-.026-.155-.048-.31-.07-.463v-7.1a17.981,17.981,0,0,1,5.477-10.6c4.809-4.44,11.661-5.647,18.543-3.95,1.146,7-.6,13.73-5.407,18.171s-11.659,5.647-18.541,3.95C260.072,96.1,260.07,96.1,260.07,96.095Z" transform="translate(-176.474 -36.346)" fill="#19ab5c"/>
      <path id="Trazado_900276" data-name="Trazado 900276" d="M131.773,88.532v7.1c-.022.153-.045.308-.07.463,0,0,0,.008,0,.013-6.882,1.7-13.734.49-18.543-3.95s-6.552-11.175-5.406-18.171c6.882-1.7,13.734-.49,18.543,3.95A17.981,17.981,0,0,1,131.773,88.532Z" transform="translate(-48.247 -36.346)" fill="#07cc66"/>
      <path id="Trazado_900277" data-name="Trazado 900277" d="M451.6,150a1.6,1.6,0,1,1-1.6,1.6A1.6,1.6,0,0,1,451.6,150Z" transform="translate(-336.142 -100.842)"/>
      <path id="Trazado_900278" data-name="Trazado 900278" d="M411.6,330a1.6,1.6,0,1,1-1.6,1.6A1.6,1.6,0,0,1,411.6,330Z" transform="translate(-302.527 -252.106)"/>
      <path id="Trazado_900279" data-name="Trazado 900279" d="M401.6,430a1.6,1.6,0,1,1-1.6,1.6A1.6,1.6,0,0,1,401.6,430Z" transform="translate(-294.124 -336.142)"/>
      <path id="Trazado_900280" data-name="Trazado 900280" d="M351.6,118.17a1.6,1.6,0,1,1-1.6,1.6A1.6,1.6,0,0,1,351.6,118.17Z" transform="translate(-252.106 -74.094)"/>
      <path id="Trazado_900281" data-name="Trazado 900281" d="M229.271,307.842v-2.5q-1.422.122-1.421,1.178a.983.983,0,0,0,.356.8A3.191,3.191,0,0,0,229.271,307.842Zm.955,3.777v2.436q1.564-.062,1.563-1.076a.942.942,0,0,0-.426-.822A4.645,4.645,0,0,0,230.226,311.619Zm0-6.255v2.762l.65.163a17.344,17.344,0,0,1,1.868.619,5.012,5.012,0,0,1,1.411.832,3.357,3.357,0,0,1,.892,1.209,4.178,4.178,0,0,1,.316,1.705,4.356,4.356,0,0,1-.407,1.97,3.721,3.721,0,0,1-1.086,1.33,4.815,4.815,0,0,1-1.565.782,7.589,7.589,0,0,1-1.858.3V319.4h-1.4V317.02a12.334,12.334,0,0,1-2.771-.568,9.994,9.994,0,0,1-2.468-1.178l1.462-2.9a2.178,2.178,0,0,0,.437.335,6.973,6.973,0,0,0,.9.489,12.653,12.653,0,0,0,1.237.487,7.823,7.823,0,0,0,1.422.335v-2.7l-.975-.284a12.073,12.073,0,0,1-1.726-.659,4.586,4.586,0,0,1-1.209-.822,2.979,2.979,0,0,1-.71-1.078,3.939,3.939,0,0,1-.233-1.421,4.566,4.566,0,0,1,.366-1.878,4.327,4.327,0,0,1,.985-1.411,4.52,4.52,0,0,1,1.461-.924,6.845,6.845,0,0,1,1.818-.437v-2.05h1.4v2.05a8.725,8.725,0,0,1,2.478.589,16.361,16.361,0,0,1,2.01.955l-1.461,2.76a1.592,1.592,0,0,0-.356-.263,7.352,7.352,0,0,0-.75-.4,10.423,10.423,0,0,0-1.015-.405,6.07,6.07,0,0,0-1.127-.275Z" transform="translate(-146.06 -227.19)"/>
      <path id="Trazado_900282" data-name="Trazado 900282" d="M201.6,30a1.6,1.6,0,1,1-1.6,1.6A1.6,1.6,0,0,1,201.6,30Z" transform="translate(-126.053)"/>
      <path id="Trazado_900283" data-name="Trazado 900283" d="M121.6,260a1.6,1.6,0,1,1-1.6,1.6A1.6,1.6,0,0,1,121.6,260Z" transform="translate(-58.825 -193.281)"/>
      <path id="Trazado_900284" data-name="Trazado 900284" d="M81.6,430a1.6,1.6,0,1,1-1.6,1.6A1.6,1.6,0,0,1,81.6,430Z" transform="translate(-25.211 -336.142)"/>
      <path id="Trazado_900285" data-name="Trazado 900285" d="M61.6,160a1.6,1.6,0,1,1-1.6,1.6A1.6,1.6,0,0,1,61.6,160Z" transform="translate(-8.404 -109.246)"/>
      <path id="Trazado_900286" data-name="Trazado 900286" d="M251.6,73.388a1.6,1.6,0,0,1-1.6-1.6V54.926a1.6,1.6,0,1,1,3.193,0V71.791A1.6,1.6,0,0,1,251.6,73.388Z" transform="translate(-168.071 -19.605)"/>
      <path id="Trazado_900287" data-name="Trazado 900287" d="M251.6,216.967a1.6,1.6,0,0,1-1.6-1.6V205.036a1.6,1.6,0,1,1,3.193,0V215.37A1.6,1.6,0,0,1,251.6,216.967Z" transform="translate(-168.071 -145.751)"/>
      <path id="Trazado_900288" data-name="Trazado 900288" d="M251.948,154.326a1.6,1.6,0,0,1-1.056-2.794l0,0L262.4,141.046a1.6,1.6,0,0,1,2.15,2.361L253.037,153.9l-.019.017-.015.013A1.591,1.591,0,0,1,251.948,154.326Z" transform="translate(-168.365 -92.969)"/>
      <path id="Trazado_900289" data-name="Trazado 900289" d="M257.551,90.029a26.182,26.182,0,0,1-6.265-.784,1.6,1.6,0,0,1-1.2-1.336c-.024-.15-.046-.3-.068-.448a1.6,1.6,0,0,1,2.914-1.115c6.294,1.312,12.155-.043,16.194-3.773,4-3.7,5.823-9.369,5.065-15.682-6.232-1.255-12.029.108-16.035,3.806a16.427,16.427,0,0,0-4.983,9.67,1.6,1.6,0,1,1-3.154-.495,19.586,19.586,0,0,1,5.971-11.521c5.031-4.645,12.324-6.222,20.008-4.327a1.6,1.6,0,0,1,1.193,1.292c1.28,7.812-.87,14.957-5.9,19.6A19.937,19.937,0,0,1,257.551,90.029Z" transform="translate(-168.071 -27.933)"/>
      <path id="Trazado_900290" data-name="Trazado 900290" d="M190.538,154.327a1.591,1.591,0,0,1-1.055-.4l-.015-.013-.019-.017-11.518-10.49a1.6,1.6,0,0,1,2.15-2.361l11.514,10.486a1.6,1.6,0,0,1-1.056,2.794Z" transform="translate(-107.069 -92.969)"/>
      <path id="Trazado_900291" data-name="Trazado 900291" d="M117.409,90.036a19.839,19.839,0,0,1-13.745-5.109c-5.028-4.646-7.178-11.79-5.9-19.6a1.6,1.6,0,0,1,1.193-1.292,26.214,26.214,0,0,1,6.263-.782,19.839,19.839,0,0,1,13.745,5.109,19.584,19.584,0,0,1,5.972,11.521,1.587,1.587,0,0,1,.019.247v7.1a1.6,1.6,0,0,1-.017.23c-.023.159-.045.31-.07.46a1.6,1.6,0,0,1-1.2,1.336A26.216,26.216,0,0,1,117.409,90.036ZM100.767,66.9c-.758,6.312,1.061,11.983,5.064,15.682a16.7,16.7,0,0,0,11.578,4.261,22.578,22.578,0,0,0,4.356-.436V80.255a16.4,16.4,0,0,0-4.964-9.55,16.7,16.7,0,0,0-11.579-4.262A22.63,22.63,0,0,0,100.767,66.9Z" transform="translate(-39.837 -27.943)"/>
      <path id="Trazado_900292" data-name="Trazado 900292" d="M184.368,298.736a14.368,14.368,0,1,1,14.368-14.368A14.384,14.384,0,0,1,184.368,298.736Zm0-25.543a11.175,11.175,0,1,0,11.175,11.175A11.188,11.188,0,0,0,184.368,273.193Z" transform="translate(-100.842 -201.685)"/>
      <path id="Trazado_900293" data-name="Trazado 900293" d="M269.158,260.754a1.6,1.6,0,0,1-1.6-1.6A15.983,15.983,0,0,0,251.6,243.193a1.6,1.6,0,0,1,0-3.193,19.179,19.179,0,0,1,19.158,19.158A1.6,1.6,0,0,1,269.158,260.754Z" transform="translate(-168.071 -176.474)"/>
      <path id="Trazado_900294" data-name="Trazado 900294" d="M159.158,370.754A19.179,19.179,0,0,1,140,351.6a1.6,1.6,0,0,1,3.193,0,15.983,15.983,0,0,0,15.965,15.965,1.6,1.6,0,1,1,0,3.193Z" transform="translate(-75.632 -268.913)"/>
      <path id="Trazado_900295" data-name="Trazado 900295" d="M331.6,367.029a1.6,1.6,0,0,1-1.6-1.6V351.6a1.6,1.6,0,0,1,3.193,0v13.837A1.6,1.6,0,0,1,331.6,367.029Z" transform="translate(-235.299 -268.913)"/>
      <path id="Trazado_900296" data-name="Trazado 900296" d="M171.6,280.359a1.6,1.6,0,0,1-1.6-1.6V264.926a1.6,1.6,0,1,1,3.193,0v13.836A1.6,1.6,0,0,1,171.6,280.359Z" transform="translate(-100.842 -196.08)"/>
      <path id="Trazado_900297" data-name="Trazado 900297" d="M54.789,279.579a4.789,4.789,0,1,1,4.789-4.789A4.795,4.795,0,0,1,54.789,279.579Zm0-6.386a1.6,1.6,0,1,0,1.6,1.6A1.6,1.6,0,0,0,54.789,273.193Z" transform="translate(0 -201.685)"/>
      <path id="Trazado_900298" data-name="Trazado 900298" d="M416.386,232.772a6.386,6.386,0,1,1,6.386-6.386A6.393,6.393,0,0,1,416.386,232.772Zm0-9.579a3.193,3.193,0,1,0,3.193,3.193A3.2,3.2,0,0,0,416.386,223.193Z" transform="translate(-302.527 -159.667)"/>
    </g>
  </g>
</svg>
