<svg xmlns="http://www.w3.org/2000/svg" width="89" height="89.178" viewBox="0 0 89 89.178">
  <g id="Grupo_1112381" data-name="Grupo 1112381" transform="translate(6888 10592)">
    <rect id="Rect치ngulo_400898" data-name="Rect치ngulo 400898" width="89" height="89" rx="44.5" transform="translate(-6888 -10591.822)" fill="#769671"/>
    <rect id="Rect치ngulo_400907" data-name="Rect치ngulo 400907" width="89" height="89" rx="44.5" transform="translate(-6888 -10592)" fill="none"/>
    <g id="Grupo_1111657" data-name="Grupo 1111657" transform="translate(-6934.511 -10583.347)">
      <g id="Grupo_1111656" data-name="Grupo 1111656" transform="translate(65.052 1.045)">
        <path id="Trazado_896660" data-name="Trazado 896660" d="M74.991,242.608a3.484,3.484,0,0,1-3.484-3.484v-7.015a3.484,3.484,0,0,1,3.484-3.484h44.451a3.484,3.484,0,0,1,3.484,3.484v7.015a3.484,3.484,0,0,1-3.484,3.484Z" transform="translate(-71.507 -197.811)" fill="#8ac9fe"/>
        <path id="Trazado_896661" data-name="Trazado 896661" d="M122.857,231.417h-40.9a3.483,3.483,0,0,0-3.484,3.484v7.015a3.476,3.476,0,0,0,.07.7H74.994a3.483,3.483,0,0,1-3.484-3.484v-7.015a3.483,3.483,0,0,1,3.484-3.484h44.45A3.485,3.485,0,0,1,122.857,231.417Z" transform="translate(-71.51 -197.816)" fill="#60b7ff"/>
        <path id="Trazado_896662" data-name="Trazado 896662" d="M131.072,234.135V219.756a.975.975,0,0,1,.975-.975h2.137a.975.975,0,0,1,.975.975v14.379Z" transform="translate(-122.772 -189.339)" fill="#d8ecfe"/>
        <path id="Trazado_896663" data-name="Trazado 896663" d="M355.635,234.136V219.756a.975.975,0,0,0-.975-.975h-2.137a.975.975,0,0,0-.975.975v14.379Z" transform="translate(-312.524 -189.339)" fill="#d8ecfe"/>
        <path id="Trazado_896664" data-name="Trazado 896664" d="M140.866,298.933V318.1H96.38V298.933a11.012,11.012,0,0,1,11.013-11.013h22.46c.234,0,.467.007.7.022a10.606,10.606,0,0,1,1.161.134,10.95,10.95,0,0,1,4.18,1.646A11,11,0,0,1,140.866,298.933Z" transform="translate(-92.914 -248.844)" fill="#b0ef9a"/>
        <path id="Trazado_896665" data-name="Trazado 896665" d="M351.906,313.212v5.025h-.489l-6.386-5.294a9.485,9.485,0,0,1-3.441-7.326V288.079a10.6,10.6,0,0,1,1.161.134,10.886,10.886,0,0,1,3.018.98v16.425a5.318,5.318,0,0,0,1.93,4.107Z" transform="translate(-303.954 -248.98)" fill="#9be27d"/>
        <path id="Trazado_896666" data-name="Trazado 896666" d="M137.181,290.714c-.12-.006-.24-.007-.361-.007H114.36a11.012,11.012,0,0,0-11.013,11.013V318.1H96.38V298.933a11.012,11.012,0,0,1,11.013-11.013h22.46a11.028,11.028,0,0,1,1.858.156,10.974,10.974,0,0,1,5.471,2.638Z" transform="translate(-92.914 -248.844)" fill="#9be27d"/>
        <path id="Trazado_896667" data-name="Trazado 896667" d="M230.862,236.459v7.248a4.856,4.856,0,0,1-9.713,0v-7.248Z" transform="translate(-200.297 -204.554)" fill="#fed2a4"/>
        <path id="Trazado_896668" data-name="Trazado 896668" d="M226.067,243.417a2.048,2.048,0,0,1,.684-.19c.305-.037.614-.035.92-.066a9.269,9.269,0,0,0,1.192-.221q.52-.124,1.029-.293.252-.084.5-.179a2.526,2.526,0,0,0,.47-.191v-5.819h-9.713v7.248a4.857,4.857,0,0,0,6.947,4.384,5.185,5.185,0,0,1-2.522-2.723,2.056,2.056,0,0,1-.045-1.348A1.064,1.064,0,0,1,226.067,243.417Z" transform="translate(-200.297 -204.554)" fill="#ffbd86"/>
        <path id="Trazado_896669" data-name="Trazado 896669" d="M167.628,132.243v6.235a12.314,12.314,0,1,0,24.629,0v-6.235Z" transform="translate(-154.234 -114.86)" fill="#fed2a4"/>
        <path id="Trazado_896670" data-name="Trazado 896670" d="M180.832,135.027a6.236,6.236,0,0,0-6.236,6.236,12.29,12.29,0,0,0,4.474,9.5,12.314,12.314,0,0,1-11.442-12.284V132.24h24.629v2.787Z" transform="translate(-154.234 -114.857)" fill="#ffbd86"/>
        <path id="Trazado_896671" data-name="Trazado 896671" d="M151.252,101.723v.132a2.215,2.215,0,0,1-2.216,2.214H113a2.215,2.215,0,0,1-2.216-2.214v-.132A2.215,2.215,0,0,1,113,99.509h36.041A2.215,2.215,0,0,1,151.252,101.723Z" transform="translate(-105.307 -86.687)" fill="#e19974"/>
        <path id="Trazado_896672" data-name="Trazado 896672" d="M119.963,104.071H113a2.215,2.215,0,0,1-2.216-2.214v-.132A2.215,2.215,0,0,1,113,99.51h6.967a2.215,2.215,0,0,0-2.216,2.214v.132A2.215,2.215,0,0,0,119.963,104.071Z" transform="translate(-105.307 -86.688)" fill="#dc8758"/>
        <path id="Trazado_896673" data-name="Trazado 896673" d="M181.154,20.322H151.58l3.877-8.215A7.75,7.75,0,0,1,162.4,7.5h7.941c.194,0,.385.008.576.024a7.8,7.8,0,0,1,6.363,4.583Z" transform="translate(-140.422 -7.5)" fill="#e19974"/>
        <path id="Trazado_896674" data-name="Trazado 896674" d="M179.849,17.555h-13.97a3.819,3.819,0,0,1-3.454-5.45,7.751,7.751,0,0,1,6.94-4.607H162.4a7.75,7.75,0,0,0-6.94,4.607l-3.877,8.215h29.574Z" transform="translate(-140.422 -7.499)" fill="#dc8758"/>
        <path id="Trazado_896675" data-name="Trazado 896675" d="M139.981,139.239h-2.647a1.829,1.829,0,0,1-1.829-1.829v-3.338a1.829,1.829,0,0,1,1.829-1.829h2.647" transform="translate(-126.587 -114.86)" fill="#ffbd86"/>
        <path id="Trazado_896676" data-name="Trazado 896676" d="M344.371,139.239h2.647a1.829,1.829,0,0,0,1.829-1.829v-3.338a1.829,1.829,0,0,0-1.829-1.829h-2.647" transform="translate(-306.348 -114.86)" fill="#fed2a4"/>
        <g id="Grupo_1111655" data-name="Grupo 1111655" transform="translate(3.459 36.212)">
          <path id="Trazado_896677" data-name="Trazado 896677" d="M327.7,291.894a5.318,5.318,0,0,1-1.93-4.106v-19.45a.975.975,0,0,0-.975-.975H322.56a.975.975,0,0,0-.975.975v19.45a9.486,9.486,0,0,0,3.442,7.325l6.386,5.294h3.276v-2.714Z" transform="translate(-290.196 -267.362)" fill="#fedba6"/>
          <path id="Trazado_896678" data-name="Trazado 896678" d="M103.326,291.894a5.318,5.318,0,0,0,1.93-4.106v-19.45a.975.975,0,0,1,.975-.975h2.229a.975.975,0,0,1,.975.975v19.45a9.486,9.486,0,0,1-3.442,7.325l-6.386,5.294H96.332v-2.714Z" transform="translate(-96.332 -267.362)" fill="#fedba6"/>
        </g>
      </g>
      <path id="Trazado_896679" data-name="Trazado 896679" d="M117.515,42.358V35.342a4.534,4.534,0,0,0-4.529-4.529H109.1a2.023,2.023,0,0,0-1.912-1.372h-2.136a2.023,2.023,0,0,0-1.912,1.372h-.517A13.256,13.256,0,0,0,104,26.469h1.72a2.877,2.877,0,0,0,2.874-2.874V20.257a2.861,2.861,0,0,0-.111-.784h.3a3.263,3.263,0,0,0,3.26-3.26V16.08a3.263,3.263,0,0,0-3.26-3.26h-2.336l-3.595-7.615A8.755,8.755,0,0,0,94.968,0H87.026a8.755,8.755,0,0,0-7.884,5.205l-3.595,7.615H72.74a3.263,3.263,0,0,0-3.26,3.26v.133a3.263,3.263,0,0,0,3.26,3.26h.3a2.86,2.86,0,0,0-.111.784v3.338A2.877,2.877,0,0,0,75.8,26.469h1.73a13.257,13.257,0,0,0,1.38,4.345h-.533a2.023,2.023,0,0,0-1.912-1.372H74.328a2.023,2.023,0,0,0-1.912,1.372h-3.88a4.534,4.534,0,0,0-4.529,4.529v7.015a4.534,4.534,0,0,0,4.245,4.519,11.95,11.95,0,0,0-.779,4.238V67.471a1.036,1.036,0,0,0-.006.116V70.3a1.045,1.045,0,0,0,1.045,1.045h3.276a1.041,1.041,0,0,0,.2-.02h37.543a1.041,1.041,0,0,0,.2.02H113a1.045,1.045,0,0,0,1.045-1.045v-.014s0,0,0-.005V56.915a1.045,1.045,0,1,0-2.09,0v8.447l-5.281-4.378a4.278,4.278,0,0,1-1.552-3.3V41.65a10,10,0,0,1,6.833,9.464v1.234a1.045,1.045,0,0,0,2.09,0V51.114a11.985,11.985,0,0,0-.775-4.238,4.534,4.534,0,0,0,4.241-4.519ZM103.031,32.9v3.308h-2.155a2.023,2.023,0,0,0-2.021,2.021v.843H96.663V36.649a13.445,13.445,0,0,0,4.611-3.745ZM76.39,41.654V57.683a4.278,4.278,0,0,1-1.552,3.3l-5.275,4.373V51.115a10.017,10.017,0,0,1,6.827-9.461ZM69.563,69.237V68.073l6.609-5.479h0a6.362,6.362,0,0,0,2.308-4.911V40.092c0-.032,0-.064,0-.1V38.3H80.57V57.683A8.447,8.447,0,0,1,77.506,64.2l-6.072,5.033Zm9.278-3.424a10.531,10.531,0,0,0,3.82-8.13V41.166h2.28a5.915,5.915,0,0,0,4.776,4.839v8.817a1.045,1.045,0,1,0,2.09,0V46.005a5.915,5.915,0,0,0,4.776-4.839h2.273V57.683a10.531,10.531,0,0,0,3.82,8.13l4.131,3.424H74.71Zm11.925-27.79a13.315,13.315,0,0,0,3.807-.553V40.2a3.812,3.812,0,0,1-7.623,0V37.466A13.313,13.313,0,0,0,90.766,38.023Zm15.741-17.766v3.338a.785.785,0,0,1-.784.784h-1.6V19.473h1.6a.785.785,0,0,1,.784.784ZM81.032,6.1A6.685,6.685,0,0,1,87.026,2.09h7.942A6.685,6.685,0,0,1,100.962,6.1l3.174,6.723H77.859ZM71.57,16.214V16.08a1.171,1.171,0,0,1,1.169-1.169h36.042a1.171,1.171,0,0,1,1.169,1.169v.133a1.171,1.171,0,0,1-1.169,1.169H93.036a1.045,1.045,0,0,0,0,2.09h9v5.19a11.269,11.269,0,0,1-22.539,0v-5.19h8.987a1.045,1.045,0,1,0,0-2.09H75.8c-.041,0-.082,0-.122.006a1.066,1.066,0,0,0-.112-.006H72.74A1.171,1.171,0,0,1,71.57,16.214Zm3.445,7.381V20.257a.785.785,0,0,1,.784-.784h1.607v4.906H75.8A.785.785,0,0,1,75.015,23.595Zm9.844,13.049v2.432h-2.2v-.843a2.023,2.023,0,0,0-2.021-2.021H78.485V32.9h1.773A13.445,13.445,0,0,0,84.859,36.644Zm-8.464-5.111v6.6c0,.032,0,.064,0,.1v1.24a11.874,11.874,0,0,0-1.992.734V31.532ZM68.536,44.8A2.441,2.441,0,0,1,66.1,42.358V35.342A2.441,2.441,0,0,1,68.536,32.9h3.772v8.565A12.2,12.2,0,0,0,69.275,44.8Zm36.808,17.8,6.616,5.485v1.158h-1.878L104.009,64.2a8.446,8.446,0,0,1-3.064-6.521V38.3h2.085v7.291c0,.033,0,.065,0,.1V57.683A6.362,6.362,0,0,0,105.343,62.594Zm-.223-24.458v-6.6h2V40.2a11.932,11.932,0,0,0-1.992-.73V38.232C105.126,38.2,105.122,38.168,105.121,38.135Zm10.3,4.222a2.441,2.441,0,0,1-2.438,2.438h-.734a12.156,12.156,0,0,0-3.044-3.336V32.9h3.778a2.441,2.441,0,0,1,2.438,2.438Z"/>
    </g>
  </g>
</svg>
