<svg xmlns="http://www.w3.org/2000/svg" width="89" height="89" viewBox="0 0 89 89">
  <g id="Grupo_1112361" data-name="Grupo 1112361" transform="translate(-755.467 -736.31)">
    <rect id="Rectángulo_400898" data-name="Rectángulo 400898" width="89" height="89" rx="44.5" transform="translate(755.467 736.31)" fill="#769671"/>
    <g id="Grupo_1112264" data-name="Grupo 1112264" transform="translate(769.528 739.267)">
      <g id="Grupo_1112262" data-name="Grupo 1112262" transform="translate(0.896 13.972)">
        <path id="Trazado_900313" data-name="Trazado 900313" d="M253.963,280l2.657-3.675a5.748,5.748,0,0,1,4.658-2.38H281.41a2.377,2.377,0,0,1,2.377,2.377V300.3H256.681Z" transform="translate(-224.63 -247.218)" fill="#4f66d0"/>
        <path id="Trazado_900314" data-name="Trazado 900314" d="M460.714,273.943h-3.222V300.3h5.6V276.32A2.377,2.377,0,0,0,460.714,273.943Z" transform="translate(-403.934 -247.218)" fill="#3c58bc"/>
        <path id="Trazado_900315" data-name="Trazado 900315" d="M325.208,273.943l3.291,6.734,3.012-6.734h6.468s-2.578,6.546-9.48,6.734c0,0-6.153,0-9.807-6.734Z" transform="translate(-281.655 -247.218)" fill="#fd3581"/>
        <g id="Grupo_1112256" data-name="Grupo 1112256" transform="translate(46.844 26.725)">
          <path id="Trazado_900316" data-name="Trazado 900316" d="M407.729,273.943a11.658,11.658,0,0,1-6.4,6.174l-.25.56c6.9-.187,9.48-6.734,9.48-6.734Z" transform="translate(-401.082 -273.943)" fill="#ef0665"/>
        </g>
        <path id="Trazado_900317" data-name="Trazado 900317" d="M7.529,433.289v4.405h35.4l-3.005-7.788Z" transform="translate(-7.529 -384.617)" fill="#ffe177"/>
        <path id="Trazado_900318" data-name="Trazado 900318" d="M226.288,429.906l-7.215.753,2.715,7.035h7.506Z" transform="translate(-193.893 -384.617)" fill="#ffd15b"/>
        <path id="Trazado_900319" data-name="Trazado 900319" d="M311.787,136.306v7.242a4.82,4.82,0,0,0,4.82,4.82h2.517v4.321l3.291,6.734,3.012-6.734V136.306Z" transform="translate(-275.572 -125.964)" fill="#fed2a4"/>
        <path id="Trazado_900320" data-name="Trazado 900320" d="M390.314,136.306v16.383l-1.658,3.707,1.479,3.027,3.012-6.734V136.306Z" transform="translate(-343.291 -125.964)" fill="#ffbd86"/>
        <path id="Trazado_900321" data-name="Trazado 900321" d="M43.169,364.719c-1.492,3.431-6.308,2.326-6.308,2.326-2.834,3.88-7.024.97-7.024.97-3.768,4.253-7.423.6-7.423.6a5.436,5.436,0,0,1-7.345-.074c-4.7,2.535-7.54,0-7.54,0V356.407H36.861Z" transform="translate(-7.529 -319.867)" fill="#97d729"/>
        <path id="Trazado_900322" data-name="Trazado 900322" d="M227.46,364.715c-1.309,3.01-5.179,2.528-6.107,2.365a4.139,4.139,0,0,0,1.674-2.365l-6.307-8.313h4.433Z" transform="translate(-191.82 -319.862)" fill="#85bc19"/>
        <path id="Trazado_900323" data-name="Trazado 900323" d="M43.169,333.134c-1.492,3.431-6.308,2.326-6.308,2.326-2.834,3.88-7.024.97-7.024.97-3.768,4.253-7.423.6-7.423.6a5.436,5.436,0,0,1-7.345-.074c-4.7,2.535-7.54,0-7.54,0v-8.571a3.561,3.561,0,0,1,3.561-3.561H32.6a8.583,8.583,0,0,1,6.837,3.395Z" transform="translate(-7.529 -292.041)" fill="#eaf6ff"/>
        <g id="Grupo_1112257" data-name="Grupo 1112257" transform="translate(1.358 32.781)">
          <path id="Trazado_900324" data-name="Trazado 900324" d="M20.686,426.743a10.233,10.233,0,0,1-1.749.752,6.378,6.378,0,0,0,3.333.271A5.709,5.709,0,0,1,20.686,426.743Z" transform="translate(-18.937 -414.612)" fill="#eaf6ff"/>
          <path id="Trazado_900325" data-name="Trazado 900325" d="M253.88,414.2l.011,0-.021.012Z" transform="translate(-225.906 -403.563)" fill="#eaf6ff"/>
          <path id="Trazado_900326" data-name="Trazado 900326" d="M219.743,333.134c-1.452,3.339-6.049,2.384-6.3,2.329a4.29,4.29,0,0,0,1.864-2.329l-4.2-5.486a10.936,10.936,0,0,0-3.147-2.826h1.214a8.584,8.584,0,0,1,6.838,3.395Z" transform="translate(-185.46 -324.822)" fill="#c8effe"/>
        </g>
        <path id="Trazado_900327" data-name="Trazado 900327" d="M375.775,136.306v5.1s1.681-1.557,2.873.208-.933,2.98-.933,2.98l4.084,1.872,2.132-10.159h-8.157Z" transform="translate(-331.943 -125.964)" fill="#c59191"/>
        <path id="Trazado_900328" data-name="Trazado 900328" d="M406.561,136.306l-1.884,8.975,2.584,1.185,2.132-10.159Z" transform="translate(-357.405 -125.964)" fill="#b98080"/>
        <path id="Trazado_900329" data-name="Trazado 900329" d="M49.766,186.261v-3.291h3.3a3.877,3.877,0,0,0,3.877-3.877V168.45H43.3v17.811a.8.8,0,0,1-.8.8h-5.01v2.256a3.9,3.9,0,0,0,3.9,3.9H53.856a3.9,3.9,0,0,0,3.9-3.9v-2.256H50.567A.8.8,0,0,1,49.766,186.261Z" transform="translate(-33.922 -154.282)" fill="#ffe5c2"/>
        <g id="Grupo_1112258" data-name="Grupo 1112258" transform="translate(13.01 14.168)">
          <path id="Trazado_900330" data-name="Trazado 900330" d="M144.539,182.971h2.833a3.877,3.877,0,0,0,3.877-3.877V168.45h-2.833v10.644A3.877,3.877,0,0,1,144.539,182.971Z" transform="translate(-141.241 -168.45)" fill="#fed2a4"/>
          <path id="Trazado_900331" data-name="Trazado 900331" d="M119.668,293.735v-3.291H117.5a.666.666,0,0,0-.666.666v2.624a.8.8,0,0,0,.8.8h2.833A.8.8,0,0,1,119.668,293.735Z" transform="translate(-116.835 -275.923)" fill="#fed2a4"/>
          <path id="Trazado_900332" data-name="Trazado 900332" d="M155.106,324.82v2.256a3.9,3.9,0,0,1-3.9,3.9h2.833a3.9,3.9,0,0,0,3.9-3.9V324.82Z" transform="translate(-147.112 -306.208)" fill="#fed2a4"/>
        </g>
        <path id="Trazado_900333" data-name="Trazado 900333" d="M70.3,143.906s0-3.229,3.41-2.06l5.045-2.329a3.057,3.057,0,0,0,1.775-2.775,4.393,4.393,0,0,0-4.393-4.393h-7.3a4.569,4.569,0,0,0-4.569,4.569v11.638Z" transform="translate(-57.508 -122.477)" fill="#7a6d79"/>
        <g id="Grupo_1112259" data-name="Grupo 1112259" transform="translate(15.792 9.871)">
          <path id="Trazado_900334" data-name="Trazado 900334" d="M143.038,132.348h-2.833a4.393,4.393,0,0,1,4.393,4.393v3.111a1.315,1.315,0,0,1-.01.157l1.068-.493a3.057,3.057,0,0,0,1.775-2.775A4.393,4.393,0,0,0,143.038,132.348Z" transform="translate(-140.205 -132.348)" fill="#665d66"/>
        </g>
        <circle id="Elipse_12141" data-name="Elipse 12141" cx="5.147" cy="5.147" r="5.147" transform="translate(0.525 19.286)" fill="#7a6d79"/>
        <path id="Trazado_900335" data-name="Trazado 900335" d="M44.7,211.446a5.147,5.147,0,0,0-1.417.2,5.147,5.147,0,0,1,0,9.9,5.147,5.147,0,1,0,1.417-10.1Z" transform="translate(-39.029 -192.16)" fill="#665d66"/>
        <path id="Trazado_900336" data-name="Trazado 900336" d="M13.092,173.615a1.176,1.176,0,0,1,1.971.949,1.176,1.176,0,0,0,1,1.248,1.176,1.176,0,0,1,.487,2.132,1.176,1.176,0,0,0-.355,1.556,1.176,1.176,0,0,1-1.364,1.71,1.176,1.176,0,0,0-1.438.692,1.176,1.176,0,0,1-2.187,0,1.176,1.176,0,0,0-1.438-.692A1.176,1.176,0,0,1,8.4,179.5a1.176,1.176,0,0,0-.355-1.556,1.176,1.176,0,0,1,.487-2.132,1.176,1.176,0,0,0,1-1.248,1.176,1.176,0,0,1,1.971-.949,1.176,1.176,0,0,0,1.6,0Z" transform="translate(-7.531 -158.554)" fill="#fea3c6"/>
        <g id="Grupo_1112260" data-name="Grupo 1112260" transform="translate(3.346 14.746)">
          <path id="Trazado_900337" data-name="Trazado 900337" d="M40.824,175.812a1.176,1.176,0,0,1-1-1.248,1.176,1.176,0,0,0-1.971-.949,1.175,1.175,0,0,1-1,.294,1.162,1.162,0,0,1,.14.655,1.176,1.176,0,0,0,1,1.248,1.176,1.176,0,0,1,.487,2.132,1.176,1.176,0,0,0-.355,1.556,1.176,1.176,0,0,1-1.364,1.71,1.175,1.175,0,0,0-1.115.237,1.17,1.17,0,0,1,.323.456,1.176,1.176,0,0,0,2.187,0,1.176,1.176,0,0,1,1.438-.693,1.176,1.176,0,0,0,1.364-1.71,1.176,1.176,0,0,1,.355-1.556A1.176,1.176,0,0,0,40.824,175.812Z" transform="translate(-35.644 -173.299)" fill="#fe93bb"/>
        </g>
        <g id="Grupo_1112261" data-name="Grupo 1112261" transform="translate(16.995 22.127)">
          <circle id="Elipse_12142" data-name="Elipse 12142" cx="0.956" cy="0.956" r="0.956" fill="#fea3c6"/>
        </g>
        <path id="Trazado_900338" data-name="Trazado 900338" d="M278.449,91.556h0a1.381,1.381,0,0,1-.652.187H255.643a1.684,1.684,0,0,1-.394-3.321l5.707-1.376,11.577-1.264.546-.06h1.644a3.543,3.543,0,0,1,3.108,1.843l1.146,2.1A1.407,1.407,0,0,1,278.449,91.556Z" transform="translate(-224.627 -81.402)" fill="#eaf6ff"/>
        <path id="Trazado_900339" data-name="Trazado 900339" d="M415.925,91.556h0a2.1,2.1,0,0,1-.652.187h-2.885a1.405,1.405,0,0,0,1.233-2.079l-1.145-2.1a3.542,3.542,0,0,0-2.465-1.783l.546-.06H412.2a3.543,3.543,0,0,1,3.108,1.843l1.146,2.1A1.407,1.407,0,0,1,415.925,91.556Z" transform="translate(-362.103 -81.402)" fill="#c8effe"/>
        <path id="Trazado_900340" data-name="Trazado 900340" d="M324.872,50.765v2.972l-12.124,1.324L313.9,50.4a1.264,1.264,0,0,1,1.6-.931l3.962,1.182,3.8-1.1A1.264,1.264,0,0,1,324.872,50.765Z" transform="translate(-276.419 -49.416)" fill="#eaf6ff"/>
        <path id="Trazado_900341" data-name="Trazado 900341" d="M324.872,51.383v2.972l-12.123,1.324.074-.3,9.369-1.022V51.383a1.259,1.259,0,0,0-.3-.82l1.365-.4a1.264,1.264,0,0,1,1.615,1.215Z" transform="translate(-276.419 -50.034)" fill="#c8effe"/>
      </g>
      <g id="Grupo_1112263" data-name="Grupo 1112263" transform="translate(0 9.184)">
        <path id="Trazado_900342" data-name="Trazado 900342" d="M274.8,68.647h-6.031V63.409l1.964-9.359a2.839,2.839,0,0,0,1.557-.309,2.287,2.287,0,0,0,.864-3.092l-1.147-2.1a4.434,4.434,0,0,0-3.891-2.307h-.751V44.164a2.156,2.156,0,0,0-2.756-2.073l-3.55,1.028-3.711-1.107a2.157,2.157,0,0,0-2.719,1.58l-1.017,4.127-5.179,1.249a2.576,2.576,0,0,0,.6,5.081h4.306v4.256l-1.386,1.464a.893.893,0,1,0,1.3,1.228l.112-.118a5.72,5.72,0,0,0,5.692,5.232h1.625v2.535h-6.013a6.658,6.658,0,0,0-5.381,2.75L248.5,72.48a.893.893,0,0,0,1.447,1.046l.783-1.083a4.867,4.867,0,0,1,3.805-2.007,13.154,13.154,0,0,0,8.432,6.472l-1.8,1.8a.893.893,0,0,0,1.263,1.262l2.432-2.432,2.432,2.432a.893.893,0,0,0,1.263-1.262l-1.757-1.756a11.074,11.074,0,0,0,6.047-3.512,13.587,13.587,0,0,0,2.06-3,1.485,1.485,0,0,1,1.372,1.479V95.893a.893.893,0,0,0,1.785,0V71.917a3.273,3.273,0,0,0-3.27-3.27Zm-7.568-6.608-1.844-.845a2.908,2.908,0,0,0,.527-1.092,2.656,2.656,0,0,0-.451-2.138,2.568,2.568,0,0,0-1.851-1.22,2.51,2.51,0,0,0-.869.056V54.05h6.165ZM256.366,44.013l0-.016a.368.368,0,0,1,.175-.238.368.368,0,0,1,.294-.035l3.963,1.182a.893.893,0,0,0,.5,0l3.8-1.1a.362.362,0,0,1,.325.06.366.366,0,0,1,.149.3h0v2.171l-10.059,1.1Zm-7.888,8.02a.791.791,0,0,1,.374-1.329l5.652-1.363,12.018-1.312h1.6a2.649,2.649,0,0,1,2.324,1.378l1.146,2.1a.529.529,0,0,1-.457.759H249.037A.785.785,0,0,1,248.478,52.033Zm10.579,12.293a3.932,3.932,0,0,1-3.928-3.928V54.05h5.831v4.207a.891.891,0,0,0,1.495.659,1.511,1.511,0,0,1,.96-.4c.073.009.3.036.571.445a.883.883,0,0,1,.193.728,1.932,1.932,0,0,1-.829.977.893.893,0,0,0,.071,1.587l3.564,1.633v5.46l-2.155,4.818-2.362-4.833V65.219a.893.893,0,0,0-.893-.893h-2.517Zm-2.408,6.106h4.368l2.306,4.718a10.6,10.6,0,0,1-1.719-.573A11.482,11.482,0,0,1,256.649,70.433Zm14.842,1.849a9.168,9.168,0,0,1-5.181,2.949l2.146-4.8h4.42A11.862,11.862,0,0,1,271.49,72.281Z" transform="translate(-217.124 -38.026)"/>
        <path id="Trazado_900343" data-name="Trazado 900343" d="M36.262,158.881a4.713,4.713,0,0,0,1.092-1.566.893.893,0,0,0-.107-.9L33.516,151.5a9.528,9.528,0,0,0-7.549-3.748H17.632v-2.306h2.4a4.775,4.775,0,0,0,4.77-4.77v-.741a.892.892,0,0,0,1.176-1.336l-1.176-1.2v-7.367a5.342,5.342,0,0,0-5.285-5.189h-7.3a5.468,5.468,0,0,0-5.435,4.93,2.069,2.069,0,0,0-.931.5.284.284,0,0,1-.384,0A2.068,2.068,0,0,0,2,131.941a.285.285,0,0,1-.24.3A2.068,2.068,0,0,0,.9,135.993a.284.284,0,0,1,.085.375,2.055,2.055,0,0,0-.1,1.869,6.037,6.037,0,0,0,8.488,7.406v2.112H4.462A4.5,4.5,0,0,0,0,152.406v16.538a.893.893,0,0,0,1.785,0V166.07a6.922,6.922,0,0,0,2.6.495A9.066,9.066,0,0,0,8.32,165.6a6.923,6.923,0,0,0,2.01,1.031,6.124,6.124,0,0,0,5.42-.888,6.278,6.278,0,0,0,3.673,1.223,5.876,5.876,0,0,0,3.942-1.826,7.654,7.654,0,0,0,2.136.727,5.232,5.232,0,0,0,5.1-1.851,9.885,9.885,0,0,0,2.825-.032l2.038,5.284a.893.893,0,1,0,1.666-.643l-2-5.19a4.667,4.667,0,0,0,2.229-2.357.893.893,0,0,0-.107-.9ZM20.037,143.662h-3.3a.893.893,0,0,0-.893.893v3.2H11.166V144.21a6.1,6.1,0,0,0,1.359-4.9l1.7-1.312a.893.893,0,0,0,.348-.708,1.754,1.754,0,0,1,.526-1.246,2.056,2.056,0,0,1,1.7.032.893.893,0,0,0,.663-.034l5.046-2.329a3.915,3.915,0,0,0,.508-.283v7.245A2.988,2.988,0,0,1,20.037,143.662Zm-7.82-17.032h7.3a3.549,3.549,0,0,1,3.5,3.5,2.171,2.171,0,0,1-1.256,1.965l-4.734,2.185a3.346,3.346,0,0,0-2.968.315,3.271,3.271,0,0,0-1.236,2.231l-.9.692a6.031,6.031,0,0,0-1.305-1.692,2.068,2.068,0,0,0-1.067-3.585.284.284,0,0,1-.24-.3,2.055,2.055,0,0,0-.773-1.768A3.68,3.68,0,0,1,12.217,126.63ZM1.8,134.223a.266.266,0,0,1,.233-.217,2.079,2.079,0,0,0,1.751-2.2.283.283,0,0,1,.474-.228,2.079,2.079,0,0,0,2.808,0,.283.283,0,0,1,.474.228,2.079,2.079,0,0,0,1.751,2.2.283.283,0,0,1,.117.513,2.061,2.061,0,0,0-.834,1.21.882.882,0,0,0-.044.222,2.058,2.058,0,0,0,.253,1.305.283.283,0,0,1-.328.412,2.079,2.079,0,0,0-2.53,1.218.283.283,0,0,1-.526,0,2.081,2.081,0,0,0-1.931-1.308,2.042,2.042,0,0,0-.6.09.283.283,0,0,1-.328-.412,2.079,2.079,0,0,0-.625-2.737.265.265,0,0,1-.116-.3Zm.517,6.077a4.271,4.271,0,0,1,.089-.868,2.072,2.072,0,0,0,.986-.056.284.284,0,0,1,.346.167,2.068,2.068,0,0,0,3.848,0,.284.284,0,0,1,.346-.167,2.057,2.057,0,0,0,2.223-.688,2.091,2.091,0,0,0,.208-.317A4.254,4.254,0,1,1,2.313,140.3Zm-.525,11.908a2.672,2.672,0,0,1,1.781-2.516v1.21a4.8,4.8,0,0,0,4.8,4.8.893.893,0,1,0,0-1.785,3.014,3.014,0,0,1-3.01-3.01V149.54H23.84V150.9a3.014,3.014,0,0,1-3.01,3.01h-8.3a.893.893,0,1,0,0,1.785h8.3a4.8,4.8,0,0,0,4.8-4.8V149.54a7.86,7.86,0,0,1,6.467,3.042l3.387,4.464c-1.405,2.16-5.016,1.379-5.053,1.37a.893.893,0,0,0-.92.344,3.53,3.53,0,0,1-3.651,1.6,5.939,5.939,0,0,1-2.143-.832.893.893,0,0,0-1.177.141,4.5,4.5,0,0,1-3.152,1.756,4.533,4.533,0,0,1-2.972-1.2.893.893,0,0,0-1.187-.067,4.562,4.562,0,0,1-4.3,1.031,5.025,5.025,0,0,1-1.864-1.042.893.893,0,0,0-1.052-.151c-3.276,1.767-5.461.8-6.223.331v-8.116Zm28.639,9.967a.893.893,0,0,0-.92.344,3.529,3.529,0,0,1-3.651,1.6,5.937,5.937,0,0,1-2.143-.832.893.893,0,0,0-1.178.141,4.5,4.5,0,0,1-3.151,1.756,4.525,4.525,0,0,1-2.972-1.2.893.893,0,0,0-1.187-.067,4.563,4.563,0,0,1-4.3,1.031A5.019,5.019,0,0,1,9.064,163.9a.893.893,0,0,0-1.052-.151c-3.276,1.767-5.461.8-6.224.331V162.31a6.922,6.922,0,0,0,2.6.495,9.066,9.066,0,0,0,3.931-.966,6.931,6.931,0,0,0,2.01,1.031,6.123,6.123,0,0,0,5.42-.888,6.279,6.279,0,0,0,3.674,1.223,5.876,5.876,0,0,0,3.942-1.826,7.655,7.655,0,0,0,2.136.727,5.233,5.233,0,0,0,5.1-1.851,9.688,9.688,0,0,0,2.32.042,6.715,6.715,0,0,0,1.833-.451l.728.959c-1.406,2.159-5.016,1.378-5.053,1.37Z" transform="translate(0 -111.077)"/>
        <path id="Trazado_900344" data-name="Trazado 900344" d="M151.733,18.576a.89.89,0,0,0,.631-.262l.23-.23a3.656,3.656,0,0,0,1.078-2.6V12.193l3.055-.917V14.03a1.882,1.882,0,0,1-.555,1.339l-.23.23a.893.893,0,1,0,1.262,1.263l.23-.23a3.656,3.656,0,0,0,1.078-2.6V10.077a.893.893,0,0,0-1.149-.855l-4.84,1.452a.893.893,0,0,0-.636.855v3.953a1.882,1.882,0,0,1-.555,1.339l-.23.23a.893.893,0,0,0,.631,1.524Z" transform="translate(-132.886 -9.184)"/>
        <path id="Trazado_900345" data-name="Trazado 900345" d="M36.542,70.017a.89.89,0,0,0,.631-.262l.23-.23a3.655,3.655,0,0,0,1.078-2.6V62.97a.893.893,0,0,0-1.785,0v3.953a1.882,1.882,0,0,1-.555,1.339l-.23.23a.893.893,0,0,0,.631,1.524Z" transform="translate(-31.406 -55.781)"/>
      </g>
    </g>
  </g>
</svg>
